<svg width="24" height="24" viewBox="0 0 24 24" fill="none" xmlns="http://www.w3.org/2000/svg">
<g clip-path="url(#clip0_701_1186)">
<path d="M0.561203 14.4375C0.560491 11.6882 0.559746 8.96237 0.559082 6.23654C0.558834 5.21609 0.899904 4.87494 1.92166 4.875C8.66984 4.87542 15.418 4.87604 22.1662 4.87669C22.2443 4.8767 22.3225 4.87632 22.4005 4.8791C23.1435 4.90555 23.5237 5.27675 23.5282 6.02255C23.5379 7.62363 23.5327 9.22479 23.5329 10.8259C23.5332 13.169 23.5333 15.5122 23.5328 17.8553C23.5326 18.883 23.1983 19.217 22.171 19.217C15.4228 19.2172 8.67463 19.2171 1.92643 19.217C0.898827 19.217 0.56124 18.8811 0.561021 17.8584C0.560778 16.7259 0.561117 15.5934 0.561203 14.4375ZM5.44324 14.3612C5.76206 14.2543 6.07012 14.2804 6.37466 14.4222C6.69452 14.5711 7.01522 14.5911 7.29047 14.334C7.69563 13.9557 7.96508 13.4889 8.1442 12.9564C7.68404 12.7126 7.39485 12.3625 7.35681 11.8365C7.31817 11.302 7.5689 10.9141 8.02432 10.5771C7.8297 10.4297 7.67231 10.2767 7.48632 10.1769C7.11813 9.97936 6.71665 9.94695 6.33521 10.1198C5.94639 10.2961 5.58768 10.3057 5.19539 10.1287C5.02202 10.0505 4.79578 10.0346 4.60383 10.0621C3.90837 10.162 3.40526 10.7322 3.32654 11.4766C3.22802 12.4082 3.51826 13.227 4.06164 13.9706C4.49561 14.5643 4.73302 14.6366 5.44324 14.3612ZM12.968 10.5482C12.7841 9.52869 12.1584 9.00213 11.1224 8.99817C10.5447 8.99597 9.96689 8.99777 9.38912 8.99777C9.29979 8.99777 9.21046 8.99777 9.12642 8.99777C9.12642 10.8479 9.12642 12.6627 9.12642 14.4755C9.41246 14.4755 9.68241 14.4755 9.97054 14.4755C9.97054 14.1598 9.97054 13.8569 9.97054 13.5539C9.97054 13.2448 9.97054 12.9356 9.97054 12.6115C10.3465 12.6115 10.6966 12.6121 11.0466 12.6114C12.3127 12.6091 13.0348 11.8518 12.968 10.5482ZM14.4673 12.1878C14.2442 12.2529 14.0088 12.2918 13.8006 12.3889C13.4445 12.5551 13.2362 12.847 13.2124 13.2509C13.1656 14.0449 13.766 14.608 14.5946 14.5546C15.0984 14.5222 15.4948 14.3006 15.8157 13.83C15.8157 14.0868 15.8157 14.2773 15.8157 14.474C16.0904 14.474 16.3426 14.474 16.5993 14.474C16.5993 13.5158 16.6083 12.5719 16.5953 11.6284C16.5891 11.1798 16.365 10.8328 15.9635 10.6343C15.3053 10.3087 14.6369 10.322 13.9905 10.6696C13.6081 10.8754 13.4072 11.2168 13.3641 11.6615C13.6286 11.6615 13.884 11.6615 14.1363 11.6615C14.3169 11.1827 14.7465 10.9814 15.2804 11.1187C15.6816 11.222 15.8551 11.5674 15.7649 12.0988C15.3481 12.1273 14.9284 12.156 14.4673 12.1878ZM17.8689 15.9787C18.4624 15.9479 18.8551 15.637 19.0863 15.1033C19.1512 14.9535 19.2146 14.8025 19.2696 14.6488C19.6002 13.7254 19.9281 12.8009 20.257 11.8768C20.4184 11.4237 20.5801 10.9707 20.7523 10.4878C20.5189 10.4878 20.3168 10.5003 20.1171 10.484C19.9386 10.4695 19.8666 10.5277 19.8133 10.7056C19.5119 11.712 19.1927 12.713 18.8707 13.744C18.8392 13.6584 18.8155 13.6019 18.7974 13.5436C18.4992 12.5844 18.2033 11.6245 17.9005 10.6667C17.8791 10.5992 17.8115 10.4996 17.76 10.4961C17.5007 10.4786 17.2395 10.4881 16.9594 10.4881C16.9814 10.5518 16.9909 10.5806 17.0012 10.609C17.4462 11.8471 17.8919 13.085 18.3352 14.3237C18.3605 14.3946 18.3931 14.4786 18.3775 14.5461C18.2446 15.1237 18.0556 15.3384 17.4796 15.31C17.4425 15.3081 17.4053 15.3097 17.358 15.3097C17.358 15.5284 17.358 15.7356 17.358 15.9807C17.5187 15.9807 17.6722 15.9807 17.8689 15.9787ZM6.37992 9.73576C6.74887 9.44158 6.92647 9.06467 6.90568 8.58551C6.17063 8.67183 5.60736 9.34343 5.75434 9.99877C5.95914 9.91479 6.155 9.83447 6.37992 9.73576Z" fill="#FEFEFE"/>
<path d="M5.42571 14.3697C4.73262 14.6364 4.49522 14.5642 4.06125 13.9704C3.51786 13.2269 3.22762 12.4081 3.32614 11.4765C3.40486 10.7321 3.90797 10.1619 4.60344 10.062C4.79538 10.0345 5.02162 10.0504 5.19499 10.1286C5.58729 10.3056 5.94599 10.296 6.33481 10.1197C6.71625 9.94683 7.11773 9.97924 7.48592 10.1768C7.67191 10.2765 7.82931 10.4296 8.02393 10.577C7.5685 10.914 7.31777 11.3019 7.35642 11.8364C7.39445 12.3624 7.68365 12.7125 8.1438 12.9563C7.96468 13.4888 7.69523 13.9555 7.29007 14.3339C7.01482 14.591 6.69412 14.571 6.37426 14.4221C6.06973 14.2803 5.76166 14.2542 5.42571 14.3697Z" fill="#010101"/>
<path d="M12.9707 10.569C13.0343 11.8518 12.3122 12.6091 11.0461 12.6114C10.6961 12.6121 10.3461 12.6115 9.97009 12.6115C9.97009 12.9356 9.97009 13.2448 9.97009 13.5539C9.97009 13.8569 9.97009 14.1598 9.97009 14.4755C9.68196 14.4755 9.41201 14.4755 9.12598 14.4755C9.12598 12.6627 9.12598 10.8479 9.12598 8.99776C9.21001 8.99776 9.29935 8.99776 9.38868 8.99776C9.96644 8.99777 10.5442 8.99596 11.122 8.99817C12.158 9.00212 12.7836 9.52869 12.9707 10.569ZM11.2633 9.7469C10.8371 9.7469 10.411 9.7469 9.98447 9.7469C9.98447 10.4546 9.98447 11.1692 9.98447 11.882C10.388 11.882 10.7801 11.9144 11.1646 11.8744C11.7462 11.8139 12.0626 11.4723 12.0981 10.9449C12.1428 10.2823 11.9071 9.92872 11.2633 9.7469Z" fill="#060606"/>
<path d="M14.4876 12.1865C14.928 12.1562 15.3477 12.1275 15.7645 12.099C15.8547 11.5676 15.6812 11.2222 15.28 11.119C14.7462 10.9816 14.3165 11.1829 14.136 11.6617C13.8836 11.6617 13.6282 11.6617 13.3637 11.6617C13.4068 11.217 13.6077 10.8756 13.9902 10.6699C14.6365 10.3222 15.3049 10.309 15.9631 10.6345C16.3646 10.8331 16.5887 11.18 16.5949 11.6286C16.608 12.5722 16.5989 13.5161 16.5989 14.4742C16.3422 14.4742 16.09 14.4742 15.8153 14.4742C15.8153 14.2775 15.8153 14.087 15.8153 13.8302C15.4944 14.3008 15.098 14.5224 14.5942 14.5548C13.7656 14.6082 13.1653 14.0452 13.212 13.2511C13.2358 12.8472 13.4441 12.5553 13.8003 12.3892C14.0084 12.292 14.2438 12.2531 14.4876 12.1865ZM15.7523 13.2275C15.7682 13.0479 15.7841 12.8684 15.8033 12.6511C15.3185 12.7053 14.8816 12.7297 14.4554 12.8103C14.1691 12.8645 14.0218 13.1038 14.0356 13.3549C14.0501 13.6182 14.2314 13.8131 14.5213 13.8771C15.0575 13.9956 15.5151 13.7665 15.7523 13.2275Z" fill="#040404"/>
<path d="M17.8468 15.9797C17.6717 15.9807 17.5182 15.9807 17.3575 15.9807C17.3575 15.7356 17.3575 15.5284 17.3575 15.3098C17.4049 15.3098 17.4421 15.3082 17.4791 15.31C18.0551 15.3385 18.2442 15.1238 18.3771 14.5461C18.3926 14.4786 18.3601 14.3947 18.3347 14.3237C17.8914 13.085 17.4458 11.8471 17.0007 10.609C16.9905 10.5806 16.981 10.5519 16.959 10.4881C17.2391 10.4881 17.5002 10.4786 17.7595 10.4961C17.8111 10.4996 17.8787 10.5992 17.9001 10.6668C18.2028 11.6245 18.4987 12.5845 18.7969 13.5437C18.815 13.6019 18.8387 13.6584 18.8703 13.744C19.1922 12.713 19.5114 11.712 19.8128 10.7056C19.8661 10.5278 19.9382 10.4695 20.1166 10.4841C20.3164 10.5004 20.5184 10.4878 20.7518 10.4878C20.5796 10.9707 20.4179 11.4237 20.2566 11.8768C19.9276 12.8009 19.5997 13.7254 19.2691 14.6489C19.2141 14.8025 19.1508 14.9535 19.0859 15.1033C18.8547 15.637 18.4619 15.9479 17.8468 15.9797Z" fill="#040404"/>
<path d="M6.36497 9.7449C6.15458 9.83441 5.95872 9.91473 5.75392 9.99871C5.60693 9.34337 6.1702 8.67177 6.90525 8.58545C6.92605 9.06461 6.74845 9.44152 6.36497 9.7449Z" fill="#050505"/>
<path d="M11.2833 9.7493C11.9075 9.92888 12.1432 10.2824 12.0985 10.945C12.063 11.4725 11.7466 11.8141 11.165 11.8746C10.7805 11.9145 10.3883 11.8821 9.98486 11.8821C9.98486 11.1693 9.98486 10.4547 9.98486 9.74707C10.4114 9.74707 10.8375 9.74707 11.2833 9.7493Z" fill="#FCFCFC"/>
<path d="M15.7484 13.2459C15.5151 13.7663 15.0574 13.9954 14.5213 13.877C14.2313 13.8129 14.05 13.618 14.0356 13.3547C14.0218 13.1036 14.1691 12.8643 14.4553 12.8101C14.8816 12.7295 15.3184 12.7051 15.8032 12.6509C15.784 12.8682 15.7681 13.0477 15.7484 13.2459Z" fill="#FBFBFB"/>
</g>
<defs>
<clipPath id="clip0_701_1186">
<rect width="24" height="24" fill="white"/>
</clipPath>
</defs>
</svg>
