<svg width="32" height="32" viewBox="0 0 32 32" fill="none" xmlns="http://www.w3.org/2000/svg">
<g clip-path="url(#clip0_263_2579)">
<path d="M0.542755 -0.0238285C0.617214 -0.0243559 0.691673 -0.0248834 0.768389 -0.0254269C0.891702 -0.0248635 0.891702 -0.0248635 1.01751 -0.0242887C1.1054 -0.0245493 1.19329 -0.0248916 1.28119 -0.0253086C1.52328 -0.0262156 1.76536 -0.0259457 2.00746 -0.0254857C2.26833 -0.025191 2.52919 -0.0259709 2.79006 -0.0266118C3.30134 -0.0276884 3.81262 -0.0277381 4.32391 -0.027411C4.73934 -0.0271588 5.15478 -0.0272482 5.57022 -0.0275828C5.6588 -0.0276529 5.6588 -0.0276529 5.74917 -0.0277245C5.86912 -0.0278202 5.98907 -0.0279164 6.10902 -0.028013C7.23477 -0.0288716 8.36051 -0.0285303 9.48625 -0.0278139C10.5169 -0.027193 11.5475 -0.0280019 12.5781 -0.0294973C13.6355 -0.03102 14.693 -0.0316226 15.7504 -0.0312065C16.3444 -0.0309878 16.9384 -0.0311302 17.5323 -0.0322222C18.038 -0.0331401 18.5437 -0.0331848 19.0493 -0.0320927C19.3074 -0.0315589 19.5656 -0.0314312 19.8237 -0.0323834C20.0598 -0.0332438 20.2959 -0.0329578 20.5321 -0.0317435C20.6583 -0.0313945 20.7846 -0.0322797 20.9108 -0.0332031C20.9854 -0.0325897 21.0601 -0.0319763 21.137 -0.0313444C21.2015 -0.0313376 21.266 -0.0313309 21.3325 -0.031324C21.545 0.00834078 21.6191 0.0809266 21.75 0.249941C21.7814 0.435344 21.7814 0.435344 21.7814 0.654009C21.7823 0.776952 21.7823 0.776952 21.7832 0.902378C21.7825 0.991621 21.7818 1.08086 21.781 1.17011C21.7811 1.26178 21.7811 1.35346 21.7813 1.44514C21.7814 1.63707 21.7806 1.82897 21.7792 2.02089C21.7774 2.26694 21.7776 2.51294 21.7784 2.759C21.7788 2.94821 21.7783 3.13742 21.7776 3.32664C21.7773 3.41737 21.7773 3.5081 21.7775 3.59882C21.7777 3.72554 21.7765 3.85225 21.7753 3.97896C21.775 4.05107 21.7746 4.12318 21.7743 4.19747C21.75 4.37494 21.75 4.37494 21.6664 4.48953C21.5625 4.56244 21.5625 4.56244 21.375 4.62494C21.3544 5.01682 21.3338 5.40869 21.3125 5.81244C21.4157 5.85369 21.5188 5.89494 21.625 5.93744C21.75 6.06244 21.75 6.06244 21.7654 6.19788C21.7652 6.28274 21.7652 6.28274 21.7651 6.36932C21.7653 6.4666 21.7653 6.4666 21.7656 6.56585C21.7651 6.63729 21.7647 6.70872 21.7642 6.78232C21.7642 6.85732 21.7643 6.93232 21.7643 7.00959C21.7642 7.21555 21.7636 7.42149 21.7627 7.62745C21.7619 7.84257 21.7619 8.05769 21.7617 8.27282C21.7613 8.68032 21.7603 9.08782 21.759 9.49532C21.7576 9.95919 21.757 10.4231 21.7563 10.8869C21.755 11.8413 21.7528 12.7956 21.75 13.7499C21.8033 13.7492 21.8565 13.7484 21.9114 13.7477C22.3585 13.7414 22.8056 13.7368 23.2528 13.7338C23.4854 13.7321 23.718 13.7299 23.9506 13.7264C24.1751 13.723 24.3996 13.7211 24.6241 13.7203C24.7097 13.7197 24.7954 13.7186 24.881 13.7169C25.0009 13.7146 25.1209 13.7145 25.2409 13.7145C25.3092 13.7138 25.3775 13.7131 25.4479 13.7124C25.625 13.7499 25.625 13.7499 25.774 13.9006C25.875 14.0624 25.875 14.0624 25.875 14.1874C26.2669 14.1874 26.6588 14.1874 27.0625 14.1874C27.1038 14.0843 27.145 13.9812 27.1875 13.8749C27.3426 13.7198 27.3898 13.7337 27.6037 13.7318C27.6642 13.731 27.7248 13.7302 27.7871 13.7294C27.8857 13.7292 27.8857 13.7292 27.9864 13.7289C28.0541 13.7285 28.1218 13.7281 28.1915 13.7277C28.3353 13.727 28.479 13.7268 28.6228 13.7268C28.8412 13.7265 29.0595 13.7242 29.2779 13.7219C29.4177 13.7215 29.5575 13.7212 29.6973 13.7211C29.762 13.7202 29.8268 13.7193 29.8935 13.7184C30.5133 13.7222 31.0008 13.8938 31.4529 14.3212C31.8436 14.7354 32.0152 15.1115 32.0168 15.6918C32.017 15.7348 32.0173 15.7778 32.0176 15.8222C32.0184 15.9655 32.0183 16.1088 32.0182 16.2522C32.0186 16.3553 32.019 16.4584 32.0195 16.5615C32.0206 16.8411 32.0209 17.1207 32.0209 17.4003C32.021 17.5751 32.0213 17.75 32.0216 17.9249C32.0228 18.5355 32.0233 19.1461 32.0232 19.7567C32.0231 20.3249 32.0244 20.8932 32.0264 21.4614C32.0281 21.95 32.0287 22.4386 32.0286 22.9272C32.0286 23.2187 32.029 23.5102 32.0303 23.8017C32.0315 24.076 32.0315 24.3504 32.0306 24.6247C32.0305 24.7251 32.0308 24.8254 32.0315 24.9257C32.0367 25.6582 31.9691 26.2692 31.4497 26.8234C30.9941 27.202 30.4754 27.383 29.8898 27.3825C29.8178 27.3825 29.7459 27.3826 29.6717 27.3827C29.5934 27.3825 29.515 27.3823 29.4343 27.382C29.3505 27.382 29.2667 27.382 29.1829 27.3821C28.9559 27.3821 28.7289 27.3817 28.502 27.3813C28.2646 27.3809 28.0272 27.3809 27.7898 27.3808C27.3404 27.3806 26.8911 27.3801 26.4418 27.3794C25.9301 27.3787 25.4185 27.3784 24.9069 27.3781C23.8546 27.3774 22.8023 27.3763 21.75 27.3749C21.7506 27.4292 21.7511 27.4835 21.7517 27.5394C21.7567 28.0507 21.7605 28.562 21.763 29.0733C21.7643 29.3362 21.7661 29.599 21.7689 29.8619C21.7716 30.1156 21.7731 30.3692 21.7738 30.6229C21.7742 30.7197 21.7751 30.8165 21.7765 30.9133C21.7783 31.0489 21.7785 31.1844 21.7784 31.3199C21.779 31.3971 21.7795 31.4743 21.7801 31.5538C21.75 31.7499 21.75 31.7499 21.6378 31.8989C21.4729 32.0198 21.3405 32.0504 21.1361 32.0389C20.8469 31.956 20.6604 31.7203 20.459 31.5078C20.4098 31.4578 20.3606 31.4079 20.3098 31.3564C20.1533 31.1971 19.9985 31.0361 19.8438 30.8749C19.7378 30.7664 19.6317 30.658 19.5254 30.5497C19.2656 30.2844 19.0073 30.0177 18.75 29.7499C18.5602 29.8348 18.4301 29.9298 18.2843 30.0775C18.2434 30.1186 18.2026 30.1596 18.1605 30.202C18.0953 30.2684 18.0953 30.2684 18.0288 30.3361C17.9837 30.3816 17.9386 30.427 17.8921 30.4739C17.7481 30.619 17.6045 30.7645 17.461 30.9101C17.3169 31.0559 17.1728 31.2015 17.0285 31.347C16.9388 31.4375 16.8492 31.5282 16.7597 31.6191C16.7193 31.66 16.6788 31.7009 16.6371 31.743C16.6015 31.7791 16.5659 31.8152 16.5292 31.8525C16.3572 32.0119 16.1856 32.0362 15.953 32.0324C15.6586 31.9644 15.4727 31.72 15.2715 31.5078C15.1977 31.4328 15.1977 31.4328 15.1223 31.3564C14.9658 31.1971 14.811 31.0361 14.6563 30.8749C14.5503 30.7664 14.4442 30.658 14.3379 30.5497C14.0781 30.2844 13.8198 30.0177 13.5625 29.7499C13.3761 29.8337 13.2468 29.9256 13.1035 30.0707C13.0641 30.1104 13.0247 30.15 12.9841 30.1908C12.9422 30.2335 12.9004 30.2762 12.8572 30.3203C12.8136 30.3642 12.77 30.4081 12.7251 30.4533C12.586 30.5936 12.4473 30.7342 12.3086 30.8749C12.1697 31.0156 12.0307 31.1562 11.8915 31.2965C11.8049 31.3839 11.7185 31.4714 11.6323 31.5591C11.5931 31.5987 11.5539 31.6383 11.5134 31.6791C11.4791 31.714 11.4447 31.7489 11.4093 31.7848C11.2371 31.9452 11.1294 31.9993 10.8946 32.0351C10.2624 32.0109 9.61138 31.0554 9.18754 30.6288C9.10251 30.5435 9.01747 30.4582 8.93241 30.3729C8.72562 30.1654 8.51902 29.9577 8.31254 29.7499C8.11949 29.8355 7.99229 29.9317 7.84702 30.0842C7.80611 30.1267 7.7652 30.1693 7.72305 30.2131C7.65761 30.2818 7.65761 30.2818 7.59086 30.352C7.49716 30.4485 7.40341 30.5449 7.30961 30.6413C7.16227 30.7933 7.01535 30.9456 6.86942 31.0989C6.72823 31.2469 6.58549 31.3933 6.44242 31.5395C6.3993 31.5856 6.35619 31.6317 6.31176 31.6792C6.10942 31.8836 5.96677 32.0278 5.6699 32.0387C5.36261 31.9874 5.36261 31.9874 5.21488 31.8395C5.15313 31.7796 5.15313 31.7796 5.09012 31.7184C5.01459 31.6412 5.01459 31.6412 4.93754 31.5624C4.8679 31.4937 4.79815 31.425 4.72831 31.3564C4.48388 31.1155 4.24191 30.8723 4.00004 30.6288C3.91501 30.5435 3.82997 30.4582 3.74491 30.3729C3.53812 30.1654 3.33152 29.9577 3.12504 29.7499C2.93201 29.8354 2.80534 29.9313 2.66051 30.0842C2.6198 30.1267 2.57909 30.1693 2.53715 30.2131C2.47201 30.2818 2.47201 30.2818 2.40555 30.352C2.31216 30.4485 2.21869 30.5449 2.12516 30.6413C1.97828 30.7932 1.83188 30.9454 1.68664 31.0989C1.54605 31.2471 1.40373 31.3934 1.26102 31.5395C1.21823 31.5856 1.17543 31.6317 1.13134 31.6792C0.913823 31.899 0.765727 32.0286 0.448569 32.0404C0.296444 32.0338 0.213664 32.0177 0.0876155 31.932C-0.0469556 31.7483 -0.0239763 31.59 -0.0246137 31.3645C-0.0249944 31.3186 -0.025375 31.2726 -0.0257672 31.2253C-0.0268101 31.071 -0.0265077 30.9167 -0.0262082 30.7624C-0.0266668 30.6519 -0.0272033 30.5415 -0.0278123 30.431C-0.0292037 30.1307 -0.0293838 29.8303 -0.0292656 29.53C-0.0292581 29.2794 -0.0297928 29.0289 -0.0303141 28.7783C-0.0315173 28.1874 -0.0316961 27.5965 -0.0312741 27.0055C-0.0308589 26.3954 -0.0322885 25.7853 -0.0346063 25.1752C-0.0365227 24.6518 -0.037235 24.1284 -0.0369914 23.605C-0.036862 23.2922 -0.037208 22.9794 -0.0387347 22.6666C-0.0401227 22.3725 -0.0400121 22.0784 -0.0387392 21.7843C-0.0385255 21.6763 -0.038847 21.5682 -0.0397382 21.4602C-0.0408699 21.3129 -0.0400826 21.1657 -0.0388043 21.0183C-0.0388489 20.9359 -0.0388934 20.8534 -0.0389393 20.7684C3.69139e-05 20.5624 3.69102e-05 20.5624 0.150902 20.4089C0.312537 20.3124 0.312537 20.3124 0.437537 20.3124C0.437537 19.9206 0.437537 19.5287 0.437537 19.1249C0.355037 19.1043 0.272537 19.0837 0.187537 19.0624C0.045292 18.9596 0.00523266 18.9065 -0.023466 18.732C-0.0234965 18.6754 -0.0235269 18.6189 -0.0235583 18.5605C-0.0242917 18.4625 -0.0242917 18.4625 -0.02504 18.3625C-0.0246217 18.2905 -0.0242035 18.2184 -0.0237725 18.1442C-0.024065 18.0679 -0.0243575 17.9915 -0.0246589 17.9129C-0.0252789 17.7006 -0.0250537 17.4883 -0.0244739 17.276C-0.0240508 17.0472 -0.024704 16.8185 -0.0252202 16.5897C-0.0260553 16.1413 -0.0258733 15.693 -0.0253303 15.2446C-0.0249074 14.8804 -0.0248492 14.5161 -0.0250535 14.1518C-0.0250823 14.1 -0.025111 14.0482 -0.0251406 13.9949C-0.0252006 13.8897 -0.0252613 13.7845 -0.025323 13.6793C-0.025858 12.6922 -0.0252423 11.7051 -0.0242354 10.7181C-0.0233977 9.87051 -0.0235432 9.02298 -0.0244077 8.17545C-0.0254104 7.19197 -0.0258066 6.20849 -0.0252304 5.22501C-0.0251707 5.1202 -0.0251117 5.01539 -0.0250535 4.91058C-0.0250102 4.83322 -0.0250101 4.83322 -0.0249659 4.7543C-0.0248038 4.39033 -0.0250777 4.02636 -0.0255185 3.66238C-0.0260435 3.21901 -0.0259037 2.77564 -0.0249033 2.33227C-0.0244095 2.10591 -0.0242194 1.87957 -0.0248375 1.65322C-0.0254966 1.4082 -0.0247113 1.1632 -0.0237725 0.918177C-0.0241908 0.846139 -0.024609 0.774101 -0.02504 0.69988C-0.024551 0.634526 -0.0240621 0.569173 -0.0235583 0.501839C-0.0235279 0.445243 -0.0234974 0.388648 -0.023466 0.330338C3.69325e-05 0.187441 3.69176e-05 0.187441 0.0730605 0.0755271C0.233912 -0.0306786 0.350575 -0.0236369 0.542755 -0.0238285Z" fill="#DCF4FE"/>
<path d="M21.625 5.93763C21.75 6.06263 21.75 6.06263 21.7654 6.19807C21.7653 6.25464 21.7652 6.31122 21.7651 6.36951C21.7653 6.46679 21.7653 6.46679 21.7656 6.56604C21.7651 6.63747 21.7647 6.70891 21.7642 6.78251C21.7642 6.85751 21.7643 6.9325 21.7643 7.00978C21.7642 7.21573 21.7636 7.42168 21.7627 7.62763C21.7619 7.84276 21.7619 8.05788 21.7617 8.27301C21.7613 8.68051 21.7603 9.08801 21.759 9.49551C21.7576 9.95938 21.757 10.4232 21.7563 10.8871C21.755 11.8415 21.7528 12.7958 21.75 13.7501C21.8299 13.749 21.8299 13.749 21.9114 13.7478C22.3585 13.7416 22.8056 13.737 23.2528 13.7339C23.4854 13.7323 23.718 13.7301 23.9506 13.7266C24.1751 13.7232 24.3996 13.7213 24.6241 13.7205C24.7097 13.7199 24.7954 13.7188 24.881 13.7171C25.0009 13.7148 25.121 13.7147 25.2409 13.7147C25.3092 13.714 25.3775 13.7133 25.4479 13.7125C25.625 13.7501 25.625 13.7501 25.774 13.9008C25.875 14.0626 25.875 14.0626 25.875 14.1876C26.2669 14.1876 26.6588 14.1876 27.0625 14.1876C27.1038 14.0845 27.145 13.9814 27.1875 13.8751C27.3426 13.72 27.3898 13.7339 27.6037 13.732C27.6945 13.7308 27.6945 13.7308 27.7871 13.7296C27.8529 13.7294 27.9186 13.7293 27.9864 13.7291C28.0541 13.7287 28.1218 13.7283 28.1915 13.7279C28.3353 13.7272 28.479 13.7269 28.6228 13.727C28.8412 13.7267 29.0595 13.7244 29.2779 13.7221C29.4177 13.7217 29.5575 13.7214 29.6973 13.7213C29.762 13.7204 29.8268 13.7195 29.8935 13.7186C30.5133 13.7224 31.0008 13.894 31.4529 14.3214C31.8436 14.7356 32.0152 15.1117 32.0168 15.692C32.017 15.735 32.0173 15.778 32.0176 15.8224C32.0184 15.9657 32.0183 16.109 32.0182 16.2524C32.0186 16.3555 32.019 16.4586 32.0195 16.5617C32.0206 16.8413 32.0209 17.1209 32.0209 17.4004C32.021 17.5753 32.0213 17.7502 32.0216 17.925C32.0228 18.5357 32.0233 19.1463 32.0232 19.7569C32.0231 20.3251 32.0244 20.8934 32.0264 21.4616C32.0281 21.9502 32.0287 22.4388 32.0286 22.9274C32.0286 23.2189 32.029 23.5104 32.0303 23.8019C32.0315 24.0762 32.0315 24.3506 32.0306 24.6249C32.0305 24.7253 32.0308 24.8256 32.0315 24.9259C32.0367 25.6584 31.9691 26.2694 31.4497 26.8236C30.9941 27.2022 30.4754 27.3832 29.8898 27.3826C29.8178 27.3827 29.7459 27.3828 29.6717 27.3829C29.5934 27.3827 29.515 27.3825 29.4343 27.3822C29.3505 27.3822 29.2667 27.3822 29.1829 27.3823C28.9559 27.3823 28.7289 27.3819 28.502 27.3815C28.2646 27.3811 28.0272 27.381 27.7898 27.381C27.3404 27.3808 26.8911 27.3803 26.4418 27.3796C25.9301 27.3789 25.4185 27.3786 24.9069 27.3783C23.8546 27.3776 22.8023 27.3765 21.75 27.3751C21.7506 27.4294 21.7511 27.4836 21.7517 27.5395C21.7567 28.0508 21.7605 28.5621 21.763 29.0735C21.7643 29.3363 21.7661 29.5992 21.7689 29.8621C21.7716 30.1157 21.7731 30.3694 21.7738 30.6231C21.7742 30.7199 21.7751 30.8167 21.7765 30.9135C21.7783 31.049 21.7785 31.1845 21.7784 31.3201C21.779 31.3973 21.7795 31.4745 21.7801 31.554C21.75 31.7501 21.75 31.7501 21.6378 31.8991C21.4729 32.02 21.3405 32.0506 21.1361 32.0391C20.8469 31.9562 20.6604 31.7205 20.459 31.5079C20.4098 31.458 20.3606 31.4081 20.3098 31.3566C20.1533 31.1972 19.9985 31.0362 19.8438 30.8751C19.7378 30.7666 19.6317 30.6582 19.5254 30.5499C19.2656 30.2846 19.0073 30.0179 18.75 29.7501C18.5602 29.835 18.4301 29.93 18.2843 30.0777C18.2434 30.1187 18.2026 30.1598 18.1605 30.2021C18.0953 30.2686 18.0953 30.2686 18.0288 30.3363C17.9837 30.3818 17.9386 30.4272 17.8921 30.474C17.7481 30.6192 17.6045 30.7647 17.461 30.9103C17.3169 31.056 17.1728 31.2017 17.0285 31.3472C16.9388 31.4377 16.8492 31.5284 16.7597 31.6193C16.7193 31.6602 16.6788 31.7011 16.6371 31.7432C16.6015 31.7793 16.5659 31.8154 16.5292 31.8527C16.3572 32.0121 16.1856 32.0364 15.953 32.0325C15.6586 31.9646 15.4727 31.7202 15.2715 31.5079C15.1977 31.433 15.1977 31.433 15.1223 31.3566C14.9658 31.1972 14.811 31.0362 14.6563 30.8751C14.5503 30.7666 14.4442 30.6582 14.3379 30.5499C14.0781 30.2846 13.8198 30.0179 13.5625 29.7501C13.3761 29.8338 13.2468 29.9257 13.1035 30.0709C13.0641 30.1106 13.0247 30.1502 12.9841 30.191C12.9422 30.2337 12.9004 30.2764 12.8572 30.3204C12.8136 30.3644 12.77 30.4083 12.7251 30.4535C12.586 30.5938 12.4473 30.7344 12.3086 30.8751C12.1697 31.0158 12.0307 31.1563 11.8915 31.2967C11.8049 31.3841 11.7185 31.4716 11.6323 31.5592C11.5931 31.5989 11.5539 31.6385 11.5134 31.6793C11.4791 31.7142 11.4447 31.7491 11.4093 31.785C11.2371 31.9454 11.1294 31.9995 10.8946 32.0353C10.2624 32.0111 9.61138 31.0556 9.18754 30.629C9.10251 30.5437 9.01747 30.4584 8.93241 30.3731C8.72562 30.1656 8.51902 29.9579 8.31254 29.7501C8.11949 29.8357 7.99229 29.9319 7.84702 30.0844C7.80611 30.1269 7.7652 30.1695 7.72305 30.2133C7.65761 30.282 7.65761 30.282 7.59086 30.3522C7.49717 30.4487 7.40341 30.5451 7.30961 30.6415C7.16227 30.7935 7.01535 30.9458 6.86942 31.0991C6.72823 31.2471 6.58549 31.3935 6.44242 31.5397C6.3993 31.5858 6.35619 31.6319 6.31176 31.6793C6.10942 31.8838 5.96677 32.028 5.6699 32.0389C5.36261 31.9876 5.36261 31.9876 5.21488 31.8397C5.15313 31.7798 5.15313 31.7798 5.09013 31.7186C5.01459 31.6414 5.01459 31.6414 4.93754 31.5626C4.8679 31.4938 4.79815 31.4252 4.72831 31.3566C4.48388 31.1157 4.24191 30.8725 4.00004 30.629C3.91501 30.5437 3.82997 30.4584 3.74491 30.3731C3.53812 30.1656 3.33152 29.9579 3.12504 29.7501C2.93201 29.8356 2.80534 29.9315 2.66051 30.0844C2.6198 30.1269 2.57909 30.1695 2.53715 30.2133C2.47201 30.282 2.47201 30.282 2.40556 30.3522C2.31216 30.4487 2.21869 30.5451 2.12516 30.6415C1.97828 30.7934 1.83188 30.9456 1.68664 31.0991C1.54605 31.2473 1.40373 31.3936 1.26102 31.5397C1.21823 31.5858 1.17543 31.6319 1.13134 31.6793C0.913823 31.8992 0.765728 32.0288 0.44857 32.0406C0.296445 32.034 0.213664 32.0179 0.0876153 31.9322C-0.0469559 31.7485 -0.0239758 31.5902 -0.0246131 31.3647C-0.0249938 31.3187 -0.0253749 31.2728 -0.0257671 31.2255C-0.02681 31.0712 -0.0265071 30.9169 -0.0262077 30.7626C-0.0266662 30.6521 -0.0272028 30.5417 -0.0278118 30.4312C-0.0292032 30.1309 -0.0293834 29.8305 -0.0292652 29.5301C-0.0292577 29.2796 -0.0297928 29.0291 -0.0303142 28.7785C-0.0315174 28.1876 -0.0316956 27.5966 -0.0312736 27.0057C-0.0308584 26.3956 -0.032288 25.7855 -0.0346057 25.1754C-0.0365222 24.652 -0.0372354 24.1286 -0.0369918 23.6051C-0.0368624 23.2924 -0.0372085 22.9796 -0.0387351 22.6668C-0.0401232 22.3727 -0.0400119 22.0786 -0.038739 21.7845C-0.0385252 21.6765 -0.0388472 21.5684 -0.0397384 21.4604C-0.0408701 21.313 -0.0400821 21.1658 -0.0388038 21.0185C-0.0388483 20.936 -0.0388933 20.8535 -0.0389392 20.7686C3.69623e-05 20.5626 3.79086e-05 20.5626 0.144555 20.4069C0.312538 20.3126 0.312537 20.3126 0.5391 20.3478C0.823552 20.4689 0.823552 20.4689 0.937537 20.6251C0.961585 20.7995 0.961586 20.7995 0.962459 21.0155C0.963243 21.0972 0.964024 21.179 0.964832 21.2632C0.964758 21.3541 0.964668 21.4449 0.964561 21.5357C0.965124 21.6312 0.96577 21.7266 0.966491 21.8221C0.968218 22.0815 0.968794 22.3409 0.969169 22.6003C0.969754 22.8713 0.971391 23.1424 0.972919 23.4134C0.975651 23.9267 0.977434 24.44 0.978877 24.9533C0.980566 25.5376 0.983312 26.1219 0.986146 26.7063C0.991954 27.9084 0.996431 29.1105 1.00004 30.3126C1.05265 30.258 1.10527 30.2035 1.15948 30.1472C1.35548 29.9444 1.55274 29.7429 1.75039 29.5417C1.83565 29.4545 1.92058 29.367 2.00515 29.2792C2.12699 29.1528 2.25001 29.0277 2.37333 28.9027C2.41072 28.8634 2.44811 28.8241 2.48663 28.7836C2.72794 28.5421 2.89306 28.439 3.25004 28.4376C3.39735 28.5226 3.39735 28.5226 3.53275 28.6581C3.58591 28.71 3.63906 28.762 3.69382 28.8155C3.72263 28.8449 3.75144 28.8742 3.78113 28.9045C3.88259 29.0078 3.98563 29.1094 4.08897 29.2109C4.32398 29.4424 4.55661 29.6762 4.7891 29.9103C4.87055 29.992 4.95201 30.0738 5.03348 30.1555C5.23084 30.3536 5.42799 30.5518 5.62504 30.7501C5.81763 30.6646 5.94579 30.5683 6.09154 30.4169C6.15321 30.3534 6.15321 30.3534 6.21613 30.2886C6.25995 30.2429 6.30377 30.1973 6.34891 30.1503C6.44291 30.0541 6.53695 29.9579 6.63102 29.8618C6.77873 29.7102 6.92613 29.5584 7.07287 29.4059C7.21482 29.2586 7.35793 29.1126 7.50126 28.9667C7.5447 28.9209 7.58814 28.8751 7.63289 28.828C7.83135 28.6275 7.95962 28.513 8.23229 28.4259C8.48033 28.4401 8.54644 28.4841 8.72025 28.6581C8.77341 28.71 8.82656 28.762 8.88132 28.8155C8.91013 28.8449 8.93894 28.8742 8.96863 28.9045C9.07009 29.0078 9.17313 29.1094 9.27647 29.2109C9.51148 29.4424 9.74411 29.6762 9.9766 29.9103C10.058 29.992 10.1395 30.0738 10.221 30.1555C10.4183 30.3536 10.6155 30.5518 10.8125 30.7501C11.0051 30.6646 11.1333 30.5683 11.279 30.4169C11.3202 30.3745 11.3613 30.3322 11.4036 30.2886C11.4474 30.2429 11.4913 30.1973 11.5364 30.1503C11.6304 30.0541 11.7244 29.9579 11.8185 29.8618C11.9662 29.7102 12.1136 29.5584 12.2604 29.4059C12.4023 29.2586 12.5454 29.1126 12.6888 28.9667C12.7539 28.898 12.7539 28.898 12.8204 28.828C13.0102 28.6362 13.1535 28.5138 13.4062 28.4124C13.7397 28.4509 13.8972 28.6413 14.125 28.8751C14.1632 28.9121 14.2014 28.9491 14.2408 28.9873C14.3566 29.0995 14.4705 29.2135 14.584 29.328C14.6249 29.369 14.6658 29.41 14.708 29.4522C14.8367 29.5813 14.9653 29.7107 15.0938 29.84C15.1818 29.9283 15.2699 30.0167 15.3579 30.105C15.5721 30.3199 15.7861 30.5349 16 30.7501C16.1894 30.6654 16.3194 30.5709 16.4648 30.4236C16.5258 30.3623 16.5258 30.3623 16.588 30.2997C16.6529 30.2336 16.6529 30.2336 16.719 30.1661C16.764 30.1208 16.809 30.0755 16.8553 30.0289C16.9989 29.8842 17.1421 29.739 17.2852 29.5939C17.4286 29.4488 17.5721 29.3037 17.7157 29.1589C17.8051 29.0688 17.8942 28.9785 17.9832 28.888C18.0237 28.8472 18.0642 28.8063 18.1059 28.7642C18.1414 28.7282 18.1768 28.6922 18.2134 28.6551C18.3819 28.4979 18.4691 28.4379 18.7031 28.4359C19.0137 28.521 19.1589 28.6735 19.3767 28.9027C19.4119 28.9383 19.4471 28.9739 19.4834 29.0105C19.6137 29.1427 19.7423 29.2766 19.8711 29.4103C20.1612 29.7081 20.4512 30.0058 20.75 30.3126C20.7707 29.3226 20.7913 28.3326 20.8125 27.3126C20.5987 27.3146 20.3849 27.3166 20.1646 27.3186C19.4564 27.3248 18.7482 27.329 18.04 27.3321C17.6108 27.334 17.1816 27.3366 16.7524 27.3409C16.3379 27.3451 15.9233 27.3472 15.5088 27.3482C15.351 27.3489 15.1932 27.3502 15.0354 27.3523C13.3107 27.3736 13.3107 27.3736 12.5938 26.6759C12.0103 26.0271 12.092 25.1598 12.1006 24.349C12.1011 24.2197 12.1014 24.0903 12.1017 23.961C12.1026 23.6226 12.1051 23.2843 12.1079 22.946C12.1104 22.5999 12.1116 22.2538 12.1128 21.9077C12.1155 21.2302 12.1198 20.5527 12.125 19.8751C12.085 19.8754 12.045 19.8756 12.0037 19.8758C11.0299 19.8813 10.056 19.8855 9.08212 19.8881C8.61116 19.8894 8.14021 19.8911 7.66926 19.894C7.2588 19.8965 6.84835 19.8981 6.43788 19.8987C6.22052 19.899 6.00317 19.8997 5.78581 19.9016C5.54323 19.9036 5.30067 19.9036 5.05808 19.9035C4.98593 19.9044 4.91378 19.9053 4.83944 19.9062C4.77336 19.9059 4.70728 19.9055 4.63919 19.9052C4.58181 19.9054 4.52443 19.9057 4.46531 19.9059C4.26258 19.8651 4.18819 19.7865 4.06254 19.6251C4.03129 19.4064 4.03129 19.4064 4.06254 19.1876C4.18819 19.0263 4.26258 18.9477 4.46531 18.9069C4.52269 18.9071 4.58007 18.9073 4.63919 18.9076C4.73831 18.907 4.73831 18.907 4.83944 18.9065C4.94767 18.9079 4.94766 18.9079 5.05808 18.9092C5.13432 18.9092 5.21056 18.9092 5.2891 18.9091C5.49791 18.9093 5.70666 18.9105 5.91546 18.9123C6.13375 18.9138 6.35204 18.914 6.57034 18.9143C6.9836 18.9151 7.39684 18.9171 7.81009 18.9196C8.28061 18.9224 8.75113 18.9238 9.22166 18.925C10.1895 18.9277 11.1572 18.9322 12.125 18.9376C12.125 17.9889 12.125 17.0401 12.125 16.0626C11.8875 16.0636 11.6499 16.0646 11.4051 16.0656C10.6216 16.0687 9.838 16.0708 9.05443 16.0723C8.5792 16.0733 8.10398 16.0746 7.62875 16.0768C7.2146 16.0786 6.80046 16.0799 6.38631 16.0803C6.16696 16.0805 5.94763 16.0811 5.72828 16.0825C5.48359 16.084 5.23892 16.084 4.99422 16.0839C4.92126 16.0846 4.8483 16.0853 4.77312 16.086C4.7066 16.0857 4.64009 16.0854 4.57155 16.0852C4.51365 16.0853 4.45575 16.0855 4.3961 16.0857C4.25004 16.0626 4.25004 16.0626 4.13815 15.9828C4.03225 15.832 4.03376 15.6825 4.02543 15.5023C4.0876 15.2892 4.1837 15.2381 4.37504 15.1251C4.62768 15.0882 4.87852 15.0936 5.13341 15.0967C5.21027 15.0967 5.28712 15.0967 5.36631 15.0966C5.57653 15.0968 5.7867 15.098 5.99692 15.0998C6.21679 15.1013 6.43667 15.1015 6.65655 15.1018C7.07269 15.1026 7.4888 15.1046 7.90493 15.1071C8.37878 15.1099 8.85263 15.1113 9.32648 15.1125C10.301 15.1152 11.2755 15.1196 12.25 15.1251C12.2791 15.036 12.2791 15.036 12.3087 14.9451C12.4744 14.458 12.801 14.1747 13.25 13.9376C13.6629 13.7508 14.005 13.7241 14.4551 13.7288C14.5241 13.7288 14.593 13.7288 14.6641 13.7288C14.8907 13.7289 15.1172 13.7303 15.3438 13.7318C15.5014 13.7322 15.659 13.7324 15.8167 13.7326C16.1883 13.7333 16.5599 13.7347 16.9316 13.7366C17.3549 13.7387 17.7783 13.7398 18.2017 13.7407C19.072 13.7426 19.9423 13.7459 20.8125 13.7501C20.8123 13.7111 20.8121 13.672 20.8118 13.6317C20.8063 12.6813 20.8022 11.731 20.7996 10.7806C20.7983 10.3209 20.7965 9.86134 20.7937 9.40174C20.7912 9.00117 20.7896 8.6006 20.789 8.20003C20.7887 7.9879 20.7879 7.7758 20.7861 7.56368C20.7843 7.32693 20.784 7.09022 20.7842 6.85346C20.7833 6.78306 20.7824 6.71266 20.7814 6.64013C20.7818 6.57562 20.7821 6.51112 20.7825 6.44467C20.7822 6.38867 20.782 6.33267 20.7818 6.27497C20.8225 6.07682 20.9092 6.0024 21.0625 5.87513C21.2818 5.77612 21.4155 5.83288 21.625 5.93763Z" fill="#6CC349"/>
<path d="M21.625 5.93763C21.75 6.06263 21.75 6.06263 21.7654 6.19807C21.7653 6.25464 21.7652 6.31122 21.7651 6.36951C21.7653 6.46679 21.7653 6.46679 21.7656 6.56604C21.7651 6.63747 21.7647 6.70891 21.7642 6.78251C21.7642 6.85751 21.7643 6.9325 21.7643 7.00978C21.7642 7.21573 21.7636 7.42168 21.7627 7.62763C21.7619 7.84276 21.7619 8.05788 21.7617 8.27301C21.7613 8.68051 21.7603 9.08801 21.759 9.49551C21.7576 9.95938 21.757 10.4232 21.7563 10.8871C21.755 11.8415 21.7528 12.7958 21.75 13.7501C21.8299 13.749 21.8299 13.749 21.9114 13.7478C22.3585 13.7416 22.8056 13.737 23.2528 13.7339C23.4854 13.7323 23.718 13.7301 23.9506 13.7266C24.1751 13.7232 24.3996 13.7213 24.6241 13.7205C24.7097 13.7199 24.7954 13.7188 24.881 13.7171C25.0009 13.7148 25.121 13.7147 25.2409 13.7147C25.3092 13.714 25.3775 13.7133 25.4479 13.7125C25.625 13.7501 25.625 13.7501 25.774 13.8966C25.875 14.0626 25.875 14.0626 25.875 14.254C25.8016 14.4696 25.7429 14.5493 25.5625 14.6876C25.397 14.7117 25.2575 14.7206 25.0921 14.718C25.0445 14.7182 24.997 14.7185 24.9479 14.7187C24.7883 14.7193 24.6288 14.718 24.4692 14.7168C24.3548 14.7168 24.2405 14.717 24.1261 14.7172C23.8797 14.7175 23.6333 14.7171 23.3869 14.7161C22.9971 14.7145 22.6074 14.7149 22.2176 14.7156C21.2493 14.7171 20.281 14.7159 19.3127 14.7143C18.5605 14.713 17.8084 14.7125 17.0562 14.7141C16.6689 14.7148 16.2817 14.7141 15.8944 14.7122C15.6531 14.7114 15.4119 14.7119 15.1706 14.7127C15.0589 14.7128 14.9473 14.7124 14.8356 14.7114C14.1065 14.6799 14.1065 14.6799 13.4633 14.9691C13.0441 15.4136 13.0893 15.886 13.0927 16.4656C13.0923 16.564 13.0919 16.6623 13.0914 16.7607C13.0902 17.0271 13.0907 17.2935 13.0915 17.5599C13.0921 17.8392 13.0915 18.1185 13.0911 18.3978C13.0907 18.8668 13.0913 19.3358 13.0924 19.8048C13.0938 20.3464 13.0934 20.8879 13.092 21.4294C13.0909 21.895 13.0907 22.3606 13.0913 22.8262C13.0917 23.104 13.0918 23.3818 13.091 23.6596C13.0902 23.9209 13.0907 24.1821 13.0922 24.4434C13.0925 24.539 13.0924 24.6347 13.0919 24.7303C13.0635 25.4479 13.0635 25.4479 13.375 26.0626C13.7437 26.332 14.0407 26.3484 14.489 26.3444C14.5565 26.3448 14.624 26.3452 14.6935 26.3456C14.9193 26.3466 15.1451 26.3458 15.3709 26.345C15.5329 26.3453 15.6949 26.3458 15.8569 26.3463C16.2511 26.3474 16.6452 26.3472 17.0394 26.3465C17.3597 26.3459 17.6801 26.3458 18.0004 26.3461C18.0689 26.3461 18.0689 26.3461 18.1387 26.3462C18.2314 26.3463 18.3241 26.3464 18.4168 26.3464C19.2855 26.3472 20.1543 26.3463 21.023 26.345C21.7682 26.3439 22.5135 26.3441 23.2587 26.3452C24.1245 26.3466 24.9902 26.3471 25.856 26.3463C25.9483 26.3462 26.0407 26.3462 26.133 26.3461C26.2011 26.346 26.2011 26.346 26.2706 26.346C26.5906 26.3457 26.9106 26.3461 27.2305 26.3467C27.6612 26.3475 28.0918 26.3469 28.5225 26.3455C28.6807 26.3451 28.8389 26.3452 28.997 26.3458C29.2127 26.3465 29.4283 26.3456 29.644 26.3444C29.7068 26.3449 29.7696 26.3455 29.8343 26.3461C30.1927 26.342 30.405 26.3055 30.6875 26.0626C30.9581 25.7628 31.0078 25.5597 31.0097 25.1614C31.0099 25.1205 31.0102 25.0796 31.0105 25.0375C31.0113 24.9002 31.0117 24.7629 31.0121 24.6256C31.0126 24.5272 31.0131 24.4289 31.0136 24.3305C31.0153 24.0072 31.0162 23.684 31.0171 23.3607C31.0175 23.2494 31.0178 23.1381 31.0181 23.0267C31.0195 22.5635 31.0207 22.1004 31.0214 21.6372C31.0224 20.9737 31.0244 20.3102 31.028 19.6467C31.0304 19.18 31.0317 18.7134 31.032 18.2467C31.0322 17.968 31.033 17.6894 31.035 17.4108C31.0369 17.1485 31.0373 16.8862 31.0365 16.6239C31.0365 16.5279 31.037 16.4318 31.0381 16.3358C31.0498 15.6086 31.0498 15.6086 30.6875 15.0001C30.3512 14.7153 30.0141 14.7158 29.5872 14.7208C29.5246 14.7204 29.462 14.7199 29.3975 14.7195C29.1986 14.7181 28.9997 14.7183 28.8008 14.7189C28.5382 14.7196 28.2756 14.7188 28.013 14.7169C27.9226 14.718 27.9226 14.718 27.8305 14.7191C27.4145 14.7159 27.4145 14.7159 27.2141 14.5723C27.0962 14.394 27.0625 14.2769 27.0625 14.0626C27.1447 13.8969 27.1447 13.8969 27.3125 13.7501C27.5408 13.7028 27.7662 13.7079 27.9986 13.7108C28.0661 13.7107 28.1336 13.7105 28.2032 13.7104C28.3462 13.7104 28.4892 13.7113 28.6322 13.7128C28.8495 13.715 29.0667 13.7141 29.284 13.7129C29.4232 13.7133 29.5625 13.7139 29.7017 13.7147C29.766 13.7144 29.8304 13.7141 29.8967 13.7138C30.5137 13.7237 31.0027 13.8957 31.4529 14.3214C31.8436 14.7356 32.0152 15.1117 32.0168 15.692C32.017 15.735 32.0173 15.778 32.0176 15.8224C32.0184 15.9657 32.0183 16.109 32.0182 16.2524C32.0186 16.3555 32.019 16.4586 32.0195 16.5617C32.0206 16.8413 32.0209 17.1209 32.0209 17.4004C32.021 17.5753 32.0213 17.7502 32.0216 17.925C32.0228 18.5357 32.0233 19.1463 32.0232 19.7569C32.0231 20.3251 32.0244 20.8934 32.0264 21.4616C32.0281 21.9502 32.0287 22.4388 32.0286 22.9274C32.0286 23.2189 32.029 23.5104 32.0303 23.8019C32.0315 24.0762 32.0315 24.3506 32.0306 24.6249C32.0305 24.7253 32.0308 24.8256 32.0315 24.9259C32.0367 25.6584 31.9691 26.2694 31.4497 26.8236C30.9941 27.2022 30.4754 27.3832 29.8898 27.3826C29.8178 27.3827 29.7459 27.3828 29.6717 27.3829C29.5934 27.3827 29.515 27.3825 29.4343 27.3822C29.3505 27.3822 29.2667 27.3822 29.1829 27.3823C28.9559 27.3823 28.7289 27.3819 28.502 27.3815C28.2646 27.3811 28.0272 27.381 27.7898 27.381C27.3404 27.3808 26.8911 27.3803 26.4418 27.3796C25.9301 27.3789 25.4185 27.3786 24.9069 27.3783C23.8546 27.3776 22.8023 27.3765 21.75 27.3751C21.7506 27.4294 21.7511 27.4836 21.7517 27.5395C21.7567 28.0508 21.7605 28.5621 21.763 29.0735C21.7643 29.3363 21.7661 29.5992 21.7689 29.8621C21.7716 30.1157 21.7731 30.3694 21.7738 30.6231C21.7742 30.7199 21.7751 30.8167 21.7765 30.9135C21.7783 31.049 21.7785 31.1845 21.7784 31.3201C21.779 31.3973 21.7795 31.4745 21.7801 31.554C21.75 31.7501 21.75 31.7501 21.6378 31.8991C21.4729 32.02 21.3405 32.0506 21.1361 32.0391C20.8469 31.9562 20.6604 31.7205 20.459 31.5079C20.4098 31.458 20.3606 31.4081 20.3098 31.3566C20.1533 31.1972 19.9985 31.0362 19.8438 30.8751C19.7378 30.7666 19.6317 30.6582 19.5254 30.5499C19.2656 30.2846 19.0073 30.0179 18.75 29.7501C18.5602 29.835 18.4301 29.93 18.2843 30.0777C18.2434 30.1187 18.2026 30.1598 18.1605 30.2021C18.0953 30.2686 18.0953 30.2686 18.0288 30.3363C17.9837 30.3818 17.9386 30.4272 17.8921 30.474C17.7481 30.6192 17.6045 30.7647 17.461 30.9103C17.3169 31.056 17.1728 31.2017 17.0285 31.3472C16.9388 31.4377 16.8492 31.5284 16.7597 31.6193C16.7193 31.6602 16.6788 31.7011 16.6371 31.7432C16.6015 31.7793 16.5659 31.8154 16.5292 31.8527C16.3572 32.0121 16.1856 32.0364 15.953 32.0325C15.6586 31.9646 15.4727 31.7202 15.2715 31.5079C15.1977 31.433 15.1977 31.433 15.1223 31.3566C14.9658 31.1972 14.811 31.0362 14.6563 30.8751C14.5503 30.7666 14.4442 30.6582 14.3379 30.5499C14.0781 30.2846 13.8198 30.0179 13.5625 29.7501C13.3761 29.8338 13.2468 29.9257 13.1035 30.0709C13.0641 30.1106 13.0247 30.1502 12.9841 30.191C12.9422 30.2337 12.9004 30.2764 12.8572 30.3204C12.8136 30.3644 12.77 30.4083 12.7251 30.4535C12.586 30.5938 12.4473 30.7344 12.3086 30.8751C12.1697 31.0158 12.0307 31.1563 11.8915 31.2967C11.8049 31.3841 11.7185 31.4716 11.6323 31.5592C11.5931 31.5989 11.5539 31.6385 11.5134 31.6793C11.4791 31.7142 11.4447 31.7491 11.4093 31.785C11.2371 31.9454 11.1294 31.9995 10.8946 32.0353C10.2624 32.0111 9.61138 31.0556 9.18754 30.629C9.10251 30.5437 9.01747 30.4584 8.93241 30.3731C8.72562 30.1656 8.51902 29.9579 8.31254 29.7501C8.11949 29.8357 7.99229 29.9319 7.84702 30.0844C7.80611 30.1269 7.7652 30.1695 7.72305 30.2133C7.65761 30.282 7.65761 30.282 7.59086 30.3522C7.49717 30.4487 7.40341 30.5451 7.30961 30.6415C7.16227 30.7935 7.01535 30.9458 6.86942 31.0991C6.72823 31.2471 6.58549 31.3935 6.44242 31.5397C6.3993 31.5858 6.35619 31.6319 6.31176 31.6793C6.10942 31.8838 5.96677 32.028 5.6699 32.0389C5.36261 31.9876 5.36261 31.9876 5.21488 31.8397C5.15313 31.7798 5.15313 31.7798 5.09013 31.7186C5.01459 31.6414 5.01459 31.6414 4.93754 31.5626C4.8679 31.4938 4.79815 31.4252 4.72831 31.3566C4.48388 31.1157 4.24191 30.8725 4.00004 30.629C3.91501 30.5437 3.82997 30.4584 3.74491 30.3731C3.53812 30.1656 3.33152 29.9579 3.12504 29.7501C2.93201 29.8356 2.80534 29.9315 2.66051 30.0844C2.6198 30.1269 2.57909 30.1695 2.53715 30.2133C2.47201 30.282 2.47201 30.282 2.40556 30.3522C2.31216 30.4487 2.21869 30.5451 2.12516 30.6415C1.97828 30.7934 1.83188 30.9456 1.68664 31.0991C1.54605 31.2473 1.40373 31.3936 1.26102 31.5397C1.21823 31.5858 1.17543 31.6319 1.13134 31.6793C0.913823 31.8992 0.765728 32.0288 0.44857 32.0406C0.296445 32.034 0.213664 32.0179 0.0876153 31.9322C-0.0469559 31.7485 -0.0239758 31.5902 -0.0246131 31.3647C-0.0249938 31.3187 -0.0253749 31.2728 -0.0257671 31.2255C-0.02681 31.0712 -0.0265071 30.9169 -0.0262077 30.7626C-0.0266662 30.6521 -0.0272028 30.5417 -0.0278118 30.4312C-0.0292032 30.1309 -0.0293834 29.8305 -0.0292652 29.5301C-0.0292577 29.2796 -0.0297928 29.0291 -0.0303142 28.7785C-0.0315174 28.1876 -0.0316956 27.5966 -0.0312736 27.0057C-0.0308584 26.3956 -0.032288 25.7855 -0.0346057 25.1754C-0.0365222 24.652 -0.0372354 24.1286 -0.0369918 23.6051C-0.0368624 23.2924 -0.0372085 22.9796 -0.0387351 22.6668C-0.0401232 22.3727 -0.0400119 22.0786 -0.038739 21.7845C-0.0385252 21.6765 -0.0388472 21.5684 -0.0397384 21.4604C-0.0408701 21.313 -0.0400821 21.1658 -0.0388038 21.0185C-0.0388483 20.936 -0.0388933 20.8535 -0.0389392 20.7686C3.69623e-05 20.5626 3.79086e-05 20.5626 0.144555 20.4069C0.312538 20.3126 0.312537 20.3126 0.5391 20.3478C0.823552 20.4689 0.823552 20.4689 0.937537 20.6251C0.961585 20.7995 0.961586 20.7995 0.962459 21.0155C0.963243 21.0972 0.964024 21.179 0.964832 21.2632C0.964758 21.3541 0.964668 21.4449 0.964561 21.5357C0.965124 21.6312 0.96577 21.7266 0.966491 21.8221C0.968218 22.0815 0.968794 22.3409 0.969169 22.6003C0.969754 22.8713 0.971391 23.1424 0.972919 23.4134C0.975651 23.9267 0.977434 24.44 0.978877 24.9533C0.980566 25.5376 0.983312 26.1219 0.986146 26.7063C0.991954 27.9084 0.996431 29.1105 1.00004 30.3126C1.05265 30.258 1.10527 30.2035 1.15948 30.1472C1.35548 29.9444 1.55274 29.7429 1.75039 29.5417C1.83565 29.4545 1.92058 29.367 2.00515 29.2792C2.12699 29.1528 2.25001 29.0277 2.37333 28.9027C2.41072 28.8634 2.44811 28.8241 2.48663 28.7836C2.72794 28.5421 2.89306 28.439 3.25004 28.4376C3.39735 28.5226 3.39735 28.5226 3.53275 28.6581C3.58591 28.71 3.63906 28.762 3.69382 28.8155C3.72263 28.8449 3.75144 28.8742 3.78113 28.9045C3.88259 29.0078 3.98563 29.1094 4.08897 29.2109C4.32398 29.4424 4.55661 29.6762 4.7891 29.9103C4.87055 29.992 4.95201 30.0738 5.03348 30.1555C5.23084 30.3536 5.42799 30.5518 5.62504 30.7501C5.81763 30.6646 5.94579 30.5683 6.09154 30.4169C6.15321 30.3534 6.15321 30.3534 6.21613 30.2886C6.25995 30.2429 6.30377 30.1973 6.34891 30.1503C6.44291 30.0541 6.53695 29.9579 6.63102 29.8618C6.77873 29.7102 6.92613 29.5584 7.07287 29.4059C7.21482 29.2586 7.35793 29.1126 7.50126 28.9667C7.5447 28.9209 7.58814 28.8751 7.63289 28.828C7.83135 28.6275 7.95962 28.513 8.23229 28.4259C8.48033 28.4401 8.54644 28.4841 8.72025 28.6581C8.77341 28.71 8.82656 28.762 8.88132 28.8155C8.91013 28.8449 8.93894 28.8742 8.96863 28.9045C9.07009 29.0078 9.17313 29.1094 9.27647 29.2109C9.51148 29.4424 9.74411 29.6762 9.9766 29.9103C10.058 29.992 10.1395 30.0738 10.221 30.1555C10.4183 30.3536 10.6155 30.5518 10.8125 30.7501C11.0051 30.6646 11.1333 30.5683 11.279 30.4169C11.3202 30.3745 11.3613 30.3322 11.4036 30.2886C11.4474 30.2429 11.4913 30.1973 11.5364 30.1503C11.6304 30.0541 11.7244 29.9579 11.8185 29.8618C11.9662 29.7102 12.1136 29.5584 12.2604 29.4059C12.4023 29.2586 12.5454 29.1126 12.6888 28.9667C12.7539 28.898 12.7539 28.898 12.8204 28.828C13.0102 28.6362 13.1535 28.5138 13.4062 28.4124C13.7397 28.4509 13.8972 28.6413 14.125 28.8751C14.1632 28.9121 14.2014 28.9491 14.2408 28.9873C14.3566 29.0995 14.4705 29.2135 14.584 29.328C14.6249 29.369 14.6658 29.41 14.708 29.4522C14.8367 29.5813 14.9653 29.7107 15.0938 29.84C15.1818 29.9283 15.2699 30.0167 15.3579 30.105C15.5721 30.3199 15.7861 30.5349 16 30.7501C16.1894 30.6654 16.3194 30.5709 16.4648 30.4236C16.5258 30.3623 16.5258 30.3623 16.588 30.2997C16.6529 30.2336 16.6529 30.2336 16.719 30.1661C16.764 30.1208 16.809 30.0755 16.8553 30.0289C16.9989 29.8842 17.1421 29.739 17.2852 29.5939C17.4286 29.4488 17.5721 29.3037 17.7157 29.1589C17.8051 29.0688 17.8942 28.9785 17.9832 28.888C18.0237 28.8472 18.0642 28.8063 18.1059 28.7642C18.1414 28.7282 18.1768 28.6922 18.2134 28.6551C18.3819 28.4979 18.4691 28.4379 18.7031 28.4359C19.0137 28.521 19.1589 28.6735 19.3767 28.9027C19.4119 28.9383 19.4471 28.9739 19.4834 29.0105C19.6137 29.1427 19.7423 29.2766 19.8711 29.4103C20.1612 29.7081 20.4512 30.0058 20.75 30.3126C20.7707 29.3226 20.7913 28.3326 20.8125 27.3126C20.5987 27.3146 20.3849 27.3166 20.1646 27.3186C19.4564 27.3248 18.7482 27.329 18.04 27.3321C17.6108 27.334 17.1816 27.3366 16.7524 27.3409C16.3379 27.3451 15.9233 27.3472 15.5088 27.3482C15.351 27.3489 15.1932 27.3502 15.0354 27.3523C13.3107 27.3736 13.3107 27.3736 12.5938 26.6759C12.0103 26.0271 12.092 25.1598 12.1006 24.349C12.1011 24.2197 12.1014 24.0903 12.1017 23.961C12.1026 23.6226 12.1051 23.2843 12.1079 22.946C12.1104 22.5999 12.1116 22.2538 12.1128 21.9077C12.1155 21.2302 12.1198 20.5527 12.125 19.8751C12.085 19.8754 12.045 19.8756 12.0037 19.8758C11.0299 19.8813 10.056 19.8855 9.08212 19.8881C8.61116 19.8894 8.14021 19.8911 7.66926 19.894C7.2588 19.8965 6.84835 19.8981 6.43788 19.8987C6.22052 19.899 6.00317 19.8997 5.78581 19.9016C5.54323 19.9036 5.30067 19.9036 5.05808 19.9035C4.98593 19.9044 4.91378 19.9053 4.83944 19.9062C4.77336 19.9059 4.70728 19.9055 4.63919 19.9052C4.58181 19.9054 4.52443 19.9057 4.46531 19.9059C4.26258 19.8651 4.18819 19.7865 4.06254 19.6251C4.03129 19.4064 4.03129 19.4064 4.06254 19.1876C4.18819 19.0263 4.26258 18.9477 4.46531 18.9069C4.52269 18.9071 4.58007 18.9073 4.63919 18.9076C4.73831 18.907 4.73831 18.907 4.83944 18.9065C4.94767 18.9079 4.94766 18.9079 5.05808 18.9092C5.13432 18.9092 5.21056 18.9092 5.2891 18.9091C5.49791 18.9093 5.70666 18.9105 5.91546 18.9123C6.13375 18.9138 6.35204 18.914 6.57034 18.9143C6.9836 18.9151 7.39684 18.9171 7.81009 18.9196C8.28061 18.9224 8.75113 18.9238 9.22166 18.925C10.1895 18.9277 11.1572 18.9322 12.125 18.9376C12.125 17.9889 12.125 17.0401 12.125 16.0626C11.8875 16.0636 11.6499 16.0646 11.4051 16.0656C10.6216 16.0687 9.838 16.0708 9.05443 16.0723C8.5792 16.0733 8.10398 16.0746 7.62875 16.0768C7.2146 16.0786 6.80046 16.0799 6.38631 16.0803C6.16696 16.0805 5.94763 16.0811 5.72828 16.0825C5.48359 16.084 5.23892 16.084 4.99422 16.0839C4.92126 16.0846 4.8483 16.0853 4.77312 16.086C4.7066 16.0857 4.64009 16.0854 4.57155 16.0852C4.51365 16.0853 4.45575 16.0855 4.3961 16.0857C4.25004 16.0626 4.25004 16.0626 4.13815 15.9828C4.03225 15.832 4.03376 15.6825 4.02543 15.5023C4.0876 15.2892 4.1837 15.2381 4.37504 15.1251C4.62768 15.0882 4.87852 15.0936 5.13341 15.0967C5.21027 15.0967 5.28712 15.0967 5.36631 15.0966C5.57653 15.0968 5.7867 15.098 5.99692 15.0998C6.21679 15.1013 6.43667 15.1015 6.65655 15.1018C7.07269 15.1026 7.4888 15.1046 7.90493 15.1071C8.37878 15.1099 8.85263 15.1113 9.32648 15.1125C10.301 15.1152 11.2755 15.1196 12.25 15.1251C12.2791 15.036 12.2791 15.036 12.3087 14.9451C12.4744 14.458 12.801 14.1747 13.25 13.9376C13.6629 13.7508 14.005 13.7241 14.4551 13.7288C14.5241 13.7288 14.593 13.7288 14.6641 13.7288C14.8907 13.7289 15.1172 13.7303 15.3438 13.7318C15.5014 13.7322 15.659 13.7324 15.8167 13.7326C16.1883 13.7333 16.5599 13.7347 16.9316 13.7366C17.3549 13.7387 17.7783 13.7398 18.2017 13.7407C19.072 13.7426 19.9423 13.7459 20.8125 13.7501C20.8123 13.7111 20.8121 13.672 20.8118 13.6317C20.8063 12.6813 20.8022 11.731 20.7996 10.7806C20.7983 10.3209 20.7965 9.86134 20.7937 9.40174C20.7912 9.00117 20.7896 8.6006 20.789 8.20003C20.7887 7.9879 20.7879 7.7758 20.7861 7.56368C20.7843 7.32693 20.784 7.09022 20.7842 6.85346C20.7833 6.78306 20.7824 6.71266 20.7814 6.64013C20.7818 6.57562 20.7821 6.51112 20.7825 6.44467C20.7822 6.38867 20.782 6.33267 20.7818 6.27497C20.8225 6.07682 20.9092 6.0024 21.0625 5.87513C21.2818 5.77612 21.4155 5.83288 21.625 5.93763Z" fill="#010101"/>
<path d="M0.54266 -0.0238285C0.617119 -0.0243559 0.691578 -0.0248834 0.768293 -0.0254269C0.891607 -0.0248635 0.891607 -0.0248635 1.01741 -0.0242887C1.10531 -0.0245493 1.1932 -0.0248916 1.28109 -0.0253086C1.52319 -0.0262156 1.76527 -0.0259457 2.00736 -0.0254857C2.26823 -0.025191 2.5291 -0.0259709 2.78997 -0.0266118C3.30125 -0.0276884 3.81253 -0.0277381 4.32381 -0.027411C4.73925 -0.0271588 5.15469 -0.0272482 5.57013 -0.0275828C5.6587 -0.0276529 5.6587 -0.0276529 5.74907 -0.0277245C5.86902 -0.0278202 5.98898 -0.0279164 6.10893 -0.028013C7.23467 -0.0288716 8.36041 -0.0285303 9.48616 -0.0278139C10.5168 -0.027193 11.5474 -0.0280019 12.578 -0.0294973C13.6354 -0.03102 14.6929 -0.0316226 15.7503 -0.0312065C16.3443 -0.0309878 16.9383 -0.0311302 17.5323 -0.0322222C18.0379 -0.0331401 18.5436 -0.0331848 19.0492 -0.0320927C19.3074 -0.0315589 19.5655 -0.0314312 19.8236 -0.0323834C20.0597 -0.0332438 20.2958 -0.0329578 20.532 -0.0317435C20.6582 -0.0313945 20.7845 -0.0322797 20.9107 -0.0332031C20.9854 -0.0325897 21.06 -0.0319763 21.1369 -0.0313444C21.2014 -0.0313376 21.2659 -0.0313309 21.3325 -0.031324C21.5449 0.00834078 21.619 0.0809266 21.7499 0.249941C21.7813 0.435344 21.7813 0.435344 21.7813 0.654009C21.7822 0.776952 21.7822 0.776952 21.7831 0.902378C21.7824 0.991621 21.7817 1.08086 21.7809 1.17011C21.781 1.26178 21.781 1.35346 21.7812 1.44514C21.7813 1.63707 21.7805 1.82897 21.7791 2.02089C21.7773 2.26694 21.7775 2.51294 21.7783 2.759C21.7787 2.94821 21.7782 3.13742 21.7775 3.32664C21.7772 3.41737 21.7772 3.5081 21.7774 3.59882C21.7776 3.72554 21.7764 3.85225 21.7752 3.97896C21.7749 4.05107 21.7745 4.12318 21.7742 4.19747C21.7499 4.37494 21.7499 4.37494 21.6619 4.49027C21.5397 4.57892 21.4635 4.61161 21.3124 4.62494C21.077 4.55604 20.9912 4.4912 20.8124 4.31244C20.8124 3.19869 20.8124 2.08494 20.8124 0.937441C14.2537 0.937441 7.69494 0.937441 0.937441 0.937441C0.947345 6.80887 0.947345 6.80887 0.959963 12.6803C0.961092 13.8138 0.961092 13.8138 0.961302 14.3438C0.961536 14.7154 0.962455 15.0869 0.963835 15.4585C0.965423 15.8867 0.966151 16.3149 0.965803 16.7431C0.965652 16.9623 0.965896 17.1814 0.967245 17.4006C0.968481 17.635 0.968192 17.8694 0.967505 18.1038C0.968597 18.207 0.968597 18.207 0.969712 18.3123C0.968965 18.4064 0.968965 18.4064 0.968203 18.5025C0.968298 18.5567 0.968393 18.6109 0.968491 18.6668C0.926478 18.8639 0.842844 18.938 0.687441 19.0624C0.468691 19.1249 0.468691 19.1249 0.249941 19.1249C0.0888157 19.0013 0.0103878 18.9253 -0.031324 18.7243C-0.0313307 18.6677 -0.0313374 18.6111 -0.0313444 18.5529C-0.0319577 18.4874 -0.0325711 18.4219 -0.0332031 18.3544C-0.0323027 18.2467 -0.0323027 18.2467 -0.031384 18.1367C-0.0317299 18.0603 -0.0320758 17.9839 -0.0324322 17.9052C-0.0331368 17.693 -0.0327171 17.4809 -0.0318236 17.2688C-0.0311305 17.04 -0.0318753 16.8113 -0.0324388 16.5826C-0.0333105 16.1344 -0.0328366 15.6863 -0.0318965 15.2382C-0.0308439 14.7166 -0.0310433 14.195 -0.0312774 13.6734C-0.031645 12.743 -0.0307584 11.8126 -0.0292182 10.8822C-0.0277228 9.97882 -0.0272805 9.07542 -0.0279365 8.17201C-0.028649 7.18883 -0.0287708 6.20565 -0.0278679 5.22247C-0.0277725 5.1177 -0.0276774 5.01292 -0.0275828 4.90815C-0.0275354 4.85659 -0.027488 4.80504 -0.0274392 4.75192C-0.0271425 4.38811 -0.0272588 4.02429 -0.0275244 3.66047C-0.0278318 3.21733 -0.0274603 2.77419 -0.0262185 2.33105C-0.0256002 2.10482 -0.0252837 1.87861 -0.0257742 1.65238C-0.0262944 1.4075 -0.025369 1.16264 -0.0242887 0.917757C-0.0246643 0.845761 -0.0250399 0.773766 -0.0254269 0.699589C-0.0248994 0.634274 -0.0243719 0.568958 -0.0238284 0.501664C-0.0237641 0.445103 -0.0236998 0.388541 -0.0236335 0.330266C-5.86547e-05 0.187441 -5.8651e-05 0.187441 0.0729758 0.075538C0.233818 -0.0306874 0.350477 -0.0236369 0.54266 -0.0238285Z" fill="black"/>
<path d="M0.9375 20.8125C0.958125 20.8125 0.97875 20.8125 1 20.8125C1.02063 23.4938 1.04125 26.175 1.0625 28.9375C1.70187 28.2981 2.34125 27.6588 3 27C3.22137 27.1107 3.32756 27.1872 3.4964 27.3572C3.54393 27.4047 3.59146 27.4523 3.64043 27.5013C3.71642 27.5782 3.71642 27.5782 3.79395 27.6567C3.84631 27.7093 3.89867 27.7618 3.95262 27.8159C4.11975 27.9838 4.28644 28.152 4.45312 28.3203C4.56638 28.4342 4.67966 28.548 4.79297 28.6619C5.07064 28.9409 5.34796 29.2203 5.625 29.5C5.95692 29.2229 6.26552 28.9303 6.57007 28.6235C6.61662 28.5769 6.66316 28.5303 6.71112 28.4822C6.85834 28.3346 7.00535 28.1869 7.15234 28.0391C7.25271 27.9384 7.35309 27.8377 7.45349 27.7371C7.69833 27.4915 7.94298 27.2458 8.1875 27C8.392 27.0895 8.527 27.1993 8.6839 27.3572C8.73143 27.4047 8.77896 27.4523 8.82793 27.5013C8.87859 27.5526 8.92925 27.6039 8.98145 27.6567C9.05999 27.7355 9.05999 27.7355 9.14012 27.8159C9.30725 27.9838 9.47394 28.152 9.64062 28.3203C9.75388 28.4342 9.86716 28.548 9.98047 28.6619C10.2581 28.9409 10.5355 29.2203 10.8125 29.5C11.0047 29.4143 11.136 29.3168 11.284 29.1677C11.3261 29.1256 11.3682 29.0835 11.4116 29.0401C11.4564 28.9946 11.5012 28.9492 11.5474 28.9023C11.5939 28.8557 11.6404 28.809 11.6883 28.7608C11.8368 28.6117 11.9848 28.4621 12.1328 28.3125C12.233 28.2117 12.3331 28.111 12.4333 28.0103C12.6537 27.7887 12.8737 27.5669 13.0935 27.3449C13.1663 27.2714 13.2394 27.1981 13.3125 27.125C13.3577 27.1453 13.4028 27.1655 13.4493 27.1864C13.6255 27.2502 13.7495 27.2662 13.9354 27.2674C14.0268 27.2685 14.0268 27.2685 14.12 27.2695C14.1861 27.2697 14.2522 27.2698 14.3203 27.2699C14.4255 27.2709 14.4255 27.2709 14.5328 27.2718C14.7645 27.2738 14.9961 27.2748 15.2278 27.2759C15.3885 27.277 15.5492 27.2783 15.7099 27.2795C16.0895 27.2824 16.4691 27.2848 16.8487 27.2868C17.281 27.2892 17.7133 27.2923 18.1455 27.2955C19.0345 27.3019 19.9235 27.3074 20.8125 27.3125C20.8125 28.3231 20.8125 29.3337 20.8125 30.375C20.5336 30.1359 20.2836 29.9138 20.0332 29.6511C19.9712 29.5871 19.9091 29.5231 19.8469 29.4591C19.751 29.3601 19.6554 29.2609 19.5606 29.1608C19.4677 29.0629 19.3736 28.9663 19.2793 28.8699C19.2241 28.8124 19.169 28.7549 19.1122 28.6956C18.8987 28.533 18.7675 28.4978 18.5 28.5C18.3451 28.5808 18.3451 28.5808 18.2173 28.7205C18.1641 28.7724 18.111 28.8244 18.0562 28.8779C18.0274 28.9073 17.9986 28.9366 17.9689 28.9669C17.8674 29.0702 17.7644 29.1718 17.6611 29.2732C17.4261 29.5048 17.1934 29.7386 16.9609 29.9727C16.8795 30.0544 16.798 30.1362 16.7166 30.2179C16.5192 30.4159 16.322 30.6142 16.125 30.8125C15.9324 30.727 15.8043 30.6307 15.6585 30.4792C15.6174 30.4369 15.5763 30.3946 15.5339 30.351C15.4901 30.3053 15.4463 30.2597 15.4011 30.2126C15.3071 30.1165 15.2131 30.0203 15.119 29.9242C14.9713 29.7726 14.8239 29.6208 14.6772 29.4682C14.5352 29.321 14.3921 29.175 14.2488 29.0291C14.2053 28.9833 14.1619 28.9375 14.1171 28.8904C13.9273 28.6986 13.784 28.5761 13.5313 28.4747C13.1979 28.5132 13.0404 28.7037 12.8125 28.9375C12.7743 28.9745 12.7361 29.0115 12.6967 29.0496C12.5809 29.1619 12.4671 29.2759 12.3535 29.3904C12.3126 29.4314 12.2717 29.4724 12.2295 29.5146C12.1008 29.6437 11.9723 29.773 11.8438 29.9023C11.7557 29.9907 11.6677 30.079 11.5796 30.1674C11.3654 30.3822 11.1514 30.5973 10.9375 30.8125C10.7482 30.7278 10.6182 30.6333 10.4728 30.486C10.4321 30.4451 10.3914 30.4042 10.3495 30.3621C10.3063 30.318 10.2631 30.2739 10.2185 30.2285C10.1735 30.1832 10.1285 30.1379 10.0822 30.0912C9.93861 29.9465 9.79545 29.8014 9.65234 29.6562C9.50896 29.5111 9.36548 29.3661 9.22182 29.2213C9.13247 29.1312 9.04329 29.0409 8.95429 28.9504C8.91382 28.9095 8.87335 28.8687 8.83165 28.8265C8.79618 28.7906 8.76071 28.7546 8.72417 28.7175C8.56006 28.5644 8.46758 28.5012 8.24046 28.4923C7.90096 28.5543 7.69456 28.8219 7.46509 29.0608C7.41577 29.1106 7.36644 29.1605 7.31563 29.2119C7.15873 29.3708 7.00319 29.5311 6.84766 29.6914C6.74134 29.7996 6.63493 29.9077 6.52844 30.0157C6.26796 30.2804 6.00857 30.546 5.75 30.8125C5.56066 30.7278 5.43066 30.6333 5.28526 30.486C5.24459 30.4451 5.20393 30.4042 5.16202 30.3621C5.11879 30.318 5.07555 30.2739 5.03101 30.2285C4.98602 30.1832 4.94104 30.1379 4.8947 30.0912C4.75111 29.9465 4.60795 29.8014 4.46484 29.6562C4.32146 29.5111 4.17798 29.3661 4.03432 29.2213C3.94497 29.1312 3.85579 29.0409 3.76679 28.9504C3.72632 28.9095 3.68585 28.8687 3.64415 28.8265C3.60868 28.7906 3.57321 28.7546 3.53667 28.7175C3.36805 28.5602 3.28088 28.5003 3.04684 28.4983C2.73646 28.5833 2.59254 28.7356 2.37549 28.9651C2.33603 29.0052 2.29656 29.0454 2.2559 29.0867C2.13062 29.2145 2.0067 29.3435 1.88281 29.4727C1.75732 29.6017 1.63157 29.7305 1.5057 29.8593C1.42759 29.9393 1.34975 30.0196 1.2722 30.1003C1.18262 30.193 1.09147 30.2842 1 30.375C0.979375 30.375 0.95875 30.375 0.9375 30.375C0.9375 27.2194 0.9375 24.0638 0.9375 20.8125Z" fill="#BFE6F1"/>
<path d="M15.0401 15.2934C15.1441 15.2919 15.1441 15.2919 15.2501 15.2904C15.3244 15.29 15.3988 15.2897 15.4754 15.2893C15.5525 15.2888 15.6297 15.2882 15.7092 15.2876C15.8724 15.2867 16.0356 15.2862 16.1989 15.2859C16.4473 15.2855 16.6956 15.2821 16.944 15.279C17.1029 15.2784 17.2618 15.2779 17.4207 15.2776C17.4944 15.2764 17.5681 15.2752 17.6441 15.2739C18.1166 15.2765 18.4834 15.3493 18.8751 15.625C19.1529 15.9114 19.2554 16.1944 19.2621 16.5854C19.2631 16.6388 19.2641 16.6923 19.2652 16.7473C19.2679 16.9912 19.2705 17.235 19.2719 17.4789C19.273 17.6071 19.2747 17.7354 19.2771 17.8636C19.2805 18.0494 19.2819 18.2351 19.2828 18.4209C19.2842 18.4777 19.2856 18.5345 19.2871 18.593C19.2857 18.9931 19.1908 19.2514 18.9376 19.5625C18.6362 19.8488 18.3594 19.9526 17.9465 19.9557C17.8743 19.9565 17.8021 19.9573 17.7278 19.9581C17.6503 19.9583 17.5728 19.9584 17.493 19.9585C17.3726 19.9592 17.3726 19.9592 17.2499 19.9598C17.0802 19.9605 16.9106 19.9608 16.741 19.9607C16.5247 19.9607 16.3085 19.9624 16.0923 19.9645C15.8847 19.9663 15.6771 19.9662 15.4695 19.9663C15.3924 19.9672 15.3153 19.9681 15.2359 19.9691C14.7937 19.9667 14.4998 19.9283 14.1251 19.6875C13.7398 19.2918 13.6584 18.911 13.6583 18.3794C13.6578 18.3201 13.6573 18.2608 13.6568 18.1997C13.6561 18.0745 13.656 17.9494 13.6562 17.8243C13.6563 17.6339 13.6537 17.4436 13.6509 17.2532C13.6506 17.1312 13.6504 17.0092 13.6504 16.8872C13.6494 16.8308 13.6484 16.7745 13.6473 16.7163C13.6521 16.2737 13.7838 15.9733 14.0924 15.6547C14.3864 15.3941 14.652 15.2976 15.0401 15.2934Z" fill="#010200"/>
<path d="M30.4375 14.8125C30.759 14.992 30.9331 15.1518 31.0625 15.5C31.1071 15.825 31.104 16.1473 31.101 16.4745C31.1012 16.5731 31.1015 16.6717 31.102 16.7703C31.1029 17.037 31.1018 17.3036 31.1004 17.5703C31.0991 17.8498 31.0995 18.1293 31.0996 18.4088C31.0996 18.878 31.0984 19.3471 31.0964 19.8163C31.0941 20.3583 31.0935 20.9004 31.094 21.4424C31.0944 21.9646 31.0937 22.4867 31.0925 23.0088C31.0919 23.2307 31.0918 23.4527 31.0919 23.6746C31.0919 23.9359 31.091 24.1972 31.0894 24.4586C31.089 24.5544 31.0888 24.6501 31.0891 24.7459C31.0893 24.8769 31.0884 25.0078 31.0872 25.1388C31.0869 25.212 31.0867 25.2852 31.0864 25.3606C31.0469 25.6944 30.9133 25.9355 30.6523 26.1445C30.6149 26.1752 30.5774 26.2059 30.5388 26.2375C30.3642 26.3667 30.2547 26.3829 30.0408 26.3836C29.9547 26.384 29.9547 26.384 29.8668 26.3845C29.7716 26.3846 29.7716 26.3846 29.6744 26.3846C29.5737 26.385 29.5737 26.385 29.471 26.3854C29.2445 26.3863 29.0181 26.3867 28.7916 26.3871C28.6298 26.3875 28.4681 26.3881 28.3063 26.3886C27.8197 26.3901 27.3331 26.3911 26.8465 26.3919C26.709 26.3921 26.5716 26.3923 26.4342 26.3926C25.5808 26.3942 24.7275 26.3955 23.8741 26.3963C23.6764 26.3965 23.4787 26.3967 23.281 26.3969C23.2318 26.3969 23.1827 26.397 23.1321 26.397C22.3362 26.3978 21.5404 26.3999 20.7445 26.4025C19.9275 26.4051 19.1105 26.4066 18.2935 26.4069C17.8348 26.4072 17.376 26.4079 16.9173 26.41C16.4856 26.4119 16.054 26.4122 15.6224 26.4115C15.464 26.4115 15.3055 26.412 15.1471 26.4131C14.9308 26.4145 14.7145 26.414 14.4982 26.413C14.4355 26.4139 14.3729 26.4147 14.3083 26.4156C13.9112 26.4111 13.6091 26.3407 13.3125 26.0625C13.2366 25.9269 13.2366 25.9269 13.1875 25.8125C13.2228 25.8124 13.2581 25.8124 13.2945 25.8123C15.3874 25.8087 17.4802 25.8041 19.5731 25.7982C19.8243 25.7975 20.0755 25.7968 20.3267 25.7961C20.3767 25.796 20.4267 25.7958 20.4783 25.7957C21.2884 25.7935 22.0985 25.7919 22.9086 25.7906C23.7397 25.7892 24.5707 25.7872 25.4018 25.7845C25.9147 25.7828 26.4277 25.7817 26.9406 25.7813C27.2922 25.781 27.6438 25.78 27.9954 25.7784C28.1983 25.7775 28.4013 25.777 28.6042 25.7772C28.8242 25.7773 29.0441 25.7763 29.264 25.7749C29.3283 25.7752 29.3926 25.7755 29.4588 25.7758C29.8861 25.7733 29.8861 25.7733 30.25 25.5625C30.4024 25.3339 30.3912 25.2241 30.3924 24.9515C30.3929 24.8865 30.3929 24.8865 30.3935 24.8203C30.3946 24.6749 30.3947 24.5295 30.3949 24.3841C30.3955 24.28 30.3961 24.1759 30.3968 24.0718C30.3985 23.7889 30.3995 23.506 30.4003 23.2231C30.4013 22.9276 30.4029 22.632 30.4045 22.3365C30.4075 21.7767 30.4098 21.2169 30.4118 20.6571C30.4142 20.0199 30.4173 19.3827 30.4205 18.7454C30.4269 17.4345 30.4325 16.1235 30.4375 14.8125Z" fill="#5CB139"/>
<path d="M5.707 2.66003C5.78108 2.65879 5.85516 2.65754 5.93149 2.65625C6.51561 2.65657 7.01193 2.76184 7.43747 3.18738C7.66969 3.52732 7.72819 3.77127 7.71872 4.17957C7.71841 4.2293 7.71811 4.27903 7.7178 4.33028C7.70902 4.65985 7.66198 4.91098 7.46774 5.18616C7.41761 5.33124 7.41761 5.33124 7.55368 5.51306C7.57746 5.55096 7.60125 5.58886 7.62576 5.62791C7.73231 5.83852 7.72471 6.04532 7.71872 6.27722C7.71752 6.34759 7.71752 6.34759 7.71629 6.41939C7.70104 6.83481 7.62656 7.11802 7.33224 7.42053C6.88234 7.82787 6.4911 7.83927 5.90065 7.84241C5.76272 7.84362 5.62502 7.8475 5.48715 7.85144C4.74807 7.86253 4.74807 7.86253 4.47189 7.63464C4.25047 7.40172 4.24166 7.17885 4.2389 6.86736C4.2381 6.7885 4.2373 6.70964 4.23647 6.62839C4.23596 6.54218 4.2355 6.45596 4.23507 6.36975C4.23482 6.32626 4.23456 6.28277 4.2343 6.23796C4.233 6.00776 4.23211 5.77756 4.23152 5.54735C4.23083 5.31007 4.22868 5.07283 4.2262 4.83557C4.22456 4.65267 4.22404 4.46979 4.22381 4.28688C4.22351 4.19945 4.22279 4.11201 4.22162 4.02458C4.2201 3.90195 4.22031 3.7793 4.22059 3.65666C4.22023 3.587 4.21986 3.51734 4.21948 3.44557C4.26663 3.1429 4.40993 2.94368 4.65109 2.7594C5.00048 2.647 5.34234 2.65787 5.707 2.66003Z" fill="#020303"/>
<path d="M0.9375 0.9375C7.49625 0.9375 14.055 0.9375 20.8125 0.9375C20.8331 2.05125 20.8538 3.165 20.875 4.3125C21.05 4.51965 21.05 4.51965 21.3125 4.5625C21.3125 4.99563 21.3125 5.42875 21.3125 5.875C21.1887 5.91625 21.065 5.9575 20.9375 6C20.8604 6.15421 20.8664 6.25698 20.8651 6.42951C20.8645 6.49384 20.8639 6.55817 20.8633 6.62444C20.8629 6.69529 20.8625 6.76614 20.8622 6.83914C20.8615 6.91353 20.8609 6.98792 20.8603 7.06456C20.8587 7.26884 20.8573 7.47311 20.856 7.67738C20.8547 7.89076 20.853 8.10413 20.8513 8.3175C20.8482 8.72168 20.8454 9.12586 20.8427 9.53004C20.8396 9.99014 20.8361 10.4502 20.8327 10.9103C20.8256 11.8569 20.8189 12.8034 20.8125 13.75C20.5031 13.75 20.1938 13.75 19.875 13.75C19.875 9.5425 19.875 5.335 19.875 1C13.6462 1 7.4175 1 1 1C1 6.83687 1 12.6737 1 18.6875C0.979375 18.6875 0.95875 18.6875 0.9375 18.6875C0.9375 12.83 0.9375 6.9725 0.9375 0.9375Z" fill="#BEE2ED"/>
<path d="M27.5781 22.4803C27.8872 22.5851 28.0167 22.515 28.3125 22.3749C28.8431 22.3019 29.2403 22.417 29.6836 22.703C30.0514 22.982 30.2686 23.3545 30.3425 23.8099C30.3673 24.3308 30.234 24.7404 29.8833 25.1292C29.4387 25.5427 29.0399 25.6549 28.4382 25.6446C28.25 25.6249 28.25 25.6249 28.0469 25.5194C27.8874 25.421 27.8874 25.421 27.7566 25.4666C27.7119 25.4841 27.6671 25.5015 27.6211 25.5194C27.2095 25.6783 26.7615 25.7102 26.3384 25.5721C25.9144 25.358 25.5711 25.0104 25.3789 24.5741C25.2434 24.1386 25.2498 23.7139 25.4375 23.2967C25.8921 22.4889 26.7046 22.1732 27.5781 22.4803Z" fill="#020301"/>
<path d="M15.1988 16.2259C15.2955 16.225 15.2955 16.225 15.3941 16.2241C15.4633 16.2245 15.5325 16.2249 15.6038 16.2253C15.7108 16.225 15.7108 16.225 15.82 16.2247C15.9707 16.2246 16.1214 16.2249 16.2722 16.2257C16.5033 16.2267 16.7344 16.2257 16.9655 16.2245C17.1119 16.2247 17.2582 16.2249 17.4046 16.2253C17.5086 16.2247 17.5086 16.2247 17.6147 16.2241C17.679 16.2247 17.7432 16.2253 17.8094 16.2259C17.866 16.2261 17.9225 16.2262 17.9808 16.2264C18.1251 16.2502 18.1251 16.2502 18.237 16.3307C18.37 16.5191 18.3391 16.7464 18.3375 16.9689C18.3376 17.0209 18.3378 17.0729 18.338 17.1265C18.3381 17.2364 18.3378 17.3463 18.337 17.4562C18.336 17.6246 18.337 17.7928 18.3382 17.9611C18.3381 18.0679 18.3378 18.1747 18.3375 18.2814C18.338 18.357 18.338 18.357 18.3386 18.4341C18.3342 18.7818 18.3342 18.7818 18.2374 18.9197C18.0863 19.0279 17.9877 19.024 17.8027 19.0244C17.737 19.025 17.6713 19.0256 17.6036 19.0262C17.5327 19.0258 17.4618 19.0255 17.3887 19.0251C17.3159 19.0253 17.2431 19.0254 17.1681 19.0256C17.014 19.0257 16.86 19.0254 16.706 19.0246C16.4697 19.0236 16.2336 19.0246 15.9974 19.0258C15.8479 19.0257 15.6984 19.0254 15.5489 19.0251C15.478 19.0255 15.4071 19.0258 15.334 19.0262C15.2355 19.0253 15.2355 19.0253 15.1349 19.0244C15.0771 19.0243 15.0192 19.0241 14.9596 19.024C14.8126 19.0002 14.8126 19.0002 14.7002 18.9197C14.5678 18.7311 14.5971 18.5039 14.598 18.2814C14.5976 18.2294 14.5973 18.1774 14.597 18.1238C14.5966 18.0139 14.5966 17.904 14.5972 17.7941C14.5977 17.6258 14.5959 17.4576 14.5939 17.2892C14.5938 17.1825 14.5939 17.0757 14.594 16.9689C14.5933 16.9185 14.5926 16.8681 14.5919 16.8162C14.5963 16.4665 14.5963 16.4665 14.7318 16.3307C14.9014 16.2354 15.005 16.2264 15.1988 16.2259Z" fill="#FDCB4F"/>
<path d="M4.65606 11.3503C4.76081 11.3492 4.76081 11.3492 4.86768 11.3481C4.94402 11.3483 5.02035 11.3485 5.09901 11.3487C5.17962 11.3482 5.26023 11.3476 5.34328 11.3471C5.56423 11.3457 5.78516 11.3455 6.00611 11.3456C6.19063 11.3457 6.37515 11.3451 6.55967 11.3446C6.99502 11.3434 7.43035 11.3432 7.8657 11.3436C8.31467 11.3441 8.76362 11.3426 9.21258 11.3403C9.59821 11.3384 9.98382 11.3377 10.3695 11.3379C10.5997 11.338 10.8299 11.3377 11.0602 11.3362C11.317 11.3345 11.5737 11.3354 11.8305 11.3365C11.9067 11.3357 11.9829 11.3348 12.0614 11.334C12.6347 11.3397 12.6347 11.3397 12.829 11.5236C12.9375 11.6874 12.9375 11.6874 12.9688 11.8476C12.9317 12.0282 12.8776 12.1177 12.75 12.2499C12.559 12.3136 12.4285 12.3208 12.2285 12.3216C12.1245 12.3223 12.1245 12.3223 12.0184 12.323C11.9423 12.3232 11.8663 12.3233 11.7879 12.3235C11.6677 12.3241 11.6677 12.3241 11.5452 12.3248C11.2796 12.3261 11.0139 12.3267 10.7483 12.3273C10.6569 12.3276 10.5654 12.3279 10.474 12.3281C10.0445 12.3293 9.615 12.3302 9.18551 12.3307C8.6896 12.3313 8.1937 12.333 7.69779 12.3355C7.31451 12.3374 6.93123 12.3383 6.54794 12.3385C6.31898 12.3387 6.09004 12.3392 5.86109 12.3408C5.6058 12.3425 5.35055 12.3423 5.09525 12.3418C5.0193 12.3426 4.94335 12.3434 4.8651 12.3442C4.79561 12.3438 4.72612 12.3434 4.65453 12.3429C4.59416 12.3431 4.5338 12.3432 4.4716 12.3434C4.2664 12.3035 4.19199 12.223 4.06252 12.0624C4.01424 11.8775 4.03766 11.7582 4.06252 11.5624C4.24893 11.3723 4.3957 11.3513 4.65606 11.3503Z" fill="#010101"/>
<path d="M14.3749 2.7085C14.4368 2.7097 14.4368 2.7097 14.4999 2.71094C14.5412 2.71013 14.5824 2.70933 14.6249 2.7085C14.82 2.77325 14.8874 2.89438 14.9999 3.0625C15.03 3.24482 15.03 3.24482 15.0283 3.44795C15.0283 3.56241 15.0283 3.56241 15.0283 3.67918C15.027 3.76096 15.0257 3.84274 15.0244 3.927C15.0239 4.01203 15.0235 4.09706 15.0233 4.18209C15.0223 4.40518 15.0199 4.62822 15.0171 4.85129C15.0145 5.0792 15.0134 5.30711 15.0121 5.53503C15.0095 5.98171 15.0052 6.42835 14.9999 6.875C15.0646 6.87336 15.1292 6.87173 15.1958 6.87004C15.4363 6.86437 15.6768 6.86079 15.9174 6.85783C16.0213 6.85627 16.1253 6.85414 16.2293 6.85143C16.379 6.84762 16.5286 6.84586 16.6784 6.84448C16.7246 6.84287 16.7709 6.84126 16.8185 6.83959C17.0659 6.83946 17.1769 6.86689 17.3755 7.019C17.4999 7.1875 17.4999 7.1875 17.4999 7.41406C17.4383 7.62214 17.416 7.68575 17.2499 7.8125C17.118 7.83715 17.118 7.83715 16.964 7.83875C16.9062 7.83974 16.8484 7.84073 16.7888 7.84176C16.6954 7.84178 16.6954 7.84178 16.6 7.8418C16.5358 7.84227 16.4716 7.84275 16.4055 7.84324C16.2696 7.84391 16.1338 7.84409 15.9979 7.84381C15.7902 7.84375 15.5826 7.84635 15.3749 7.84912C15.2429 7.84945 15.1109 7.84961 14.9789 7.84961C14.9169 7.85063 14.8548 7.85166 14.7909 7.85271C14.7036 7.85184 14.7036 7.85184 14.6146 7.85095C14.5382 7.85114 14.5382 7.85114 14.4603 7.85134C14.2343 7.79197 14.1411 7.68294 13.9999 7.5C13.9607 7.29606 13.9607 7.29606 13.9605 7.06213C13.96 7.01931 13.9596 6.97648 13.9591 6.93236C13.9581 6.79145 13.9593 6.65067 13.9606 6.50977C13.9606 6.41147 13.9604 6.31318 13.9602 6.21488C13.96 6.00913 13.9609 5.80343 13.9626 5.59769C13.9648 5.33434 13.9644 5.07106 13.9632 4.80771C13.9626 4.60481 13.9631 4.40193 13.9641 4.19904C13.9644 4.10196 13.9643 4.00488 13.964 3.9078C13.9636 3.77195 13.9649 3.6362 13.9666 3.50037C13.967 3.42317 13.9674 3.34598 13.9678 3.26644C14.009 3.00534 14.1117 2.7959 14.3749 2.7085Z" fill="#070809"/>
<path d="M10.75 2.74999C10.9272 2.88329 10.9926 2.95631 11.03 3.17716C11.0295 3.24544 11.0289 3.31373 11.0284 3.38408C11.0283 3.46164 11.0283 3.5392 11.0283 3.61912C11.027 3.70343 11.0257 3.78774 11.0244 3.87206C11.0239 3.95858 11.0236 4.0451 11.0233 4.13162C11.0224 4.35892 11.0199 4.58617 11.0171 4.81346C11.0146 5.04555 11.0134 5.27765 11.0122 5.50975C11.0095 5.96485 11.0052 6.41991 11 6.87499C11.0646 6.87368 11.1292 6.87237 11.1958 6.87102C11.4363 6.86648 11.6769 6.86362 11.9174 6.86125C12.0214 6.86 12.1253 6.85829 12.2293 6.85613C12.379 6.85308 12.5287 6.85167 12.6784 6.85057C12.7478 6.84864 12.7478 6.84864 12.8185 6.84666C13.0458 6.84656 13.1775 6.86893 13.3733 6.98784C13.5 7.12499 13.5 7.12499 13.5351 7.34374C13.5 7.56249 13.5 7.56249 13.4139 7.69908C13.1555 7.87781 12.8988 7.84819 12.5918 7.84569C12.5275 7.84593 12.4633 7.84617 12.3971 7.84641C12.2613 7.84658 12.1256 7.84612 11.9898 7.84508C11.782 7.84374 11.5743 7.84507 11.3664 7.84667C11.2345 7.8465 11.1026 7.84618 10.9707 7.84569C10.8774 7.84645 10.8774 7.84645 10.7823 7.84722C10.7243 7.84644 10.6663 7.84565 10.6065 7.84484C10.5557 7.84464 10.5048 7.84444 10.4524 7.84423C10.2525 7.79887 10.1819 7.72817 10.0625 7.56249C10.0307 7.3609 10.0307 7.3609 10.0301 7.11925C10.0297 7.07511 10.0292 7.03098 10.0288 6.98551C10.0277 6.83992 10.0284 6.6944 10.0293 6.54881C10.0291 6.44748 10.0289 6.34614 10.0285 6.24481C10.0282 6.03254 10.0287 5.82031 10.0299 5.60805C10.0313 5.33608 10.0305 5.06417 10.029 4.79219C10.0281 4.58298 10.0284 4.37377 10.029 4.16455C10.0292 4.06428 10.029 3.96401 10.0284 3.86373C10.0278 3.72353 10.0287 3.58342 10.0301 3.44322C10.0303 3.36348 10.0305 3.28374 10.0307 3.20158C10.0625 2.99999 10.0625 2.99999 10.1758 2.84924C10.3755 2.70421 10.5095 2.71564 10.75 2.74999Z" fill="#010101"/>
<path d="M13.9375 27.375C15.3606 27.375 16.7838 27.375 18.25 27.375C17.8281 27.8672 17.8281 27.8672 17.6718 28.0228C17.6368 28.0578 17.6018 28.0928 17.5657 28.1289C17.5294 28.1649 17.493 28.2009 17.4556 28.238C17.4173 28.2763 17.3789 28.3145 17.3395 28.3539C17.2186 28.4743 17.0976 28.5946 16.9766 28.7148C16.8939 28.7971 16.8113 28.8795 16.7288 28.9618C16.5277 29.1622 16.3264 29.3624 16.125 29.5625C15.8743 29.447 15.7026 29.2816 15.5117 29.0859C15.4782 29.052 15.4447 29.0181 15.4102 28.9832C15.2008 28.7697 15.0017 28.5501 14.8083 28.322C14.609 28.1001 14.3951 27.8926 14.1819 27.6842C14.0994 27.603 14.0183 27.5204 13.9375 27.4375C13.9375 27.4169 13.9375 27.3963 13.9375 27.375Z" fill="#DCF4FE"/>
<path d="M8.99786 2.71289C9.19872 2.77149 9.26205 2.89053 9.37506 3.0625C9.40723 3.26644 9.40723 3.26644 9.4084 3.50037C9.40894 3.54319 9.40948 3.58602 9.41003 3.63014C9.41145 3.77103 9.41103 3.91184 9.41046 4.05273C9.41079 4.15103 9.41118 4.24932 9.41163 4.34762C9.41228 4.55336 9.412 4.75907 9.41109 4.96481C9.41001 5.22817 9.41148 5.49144 9.41368 5.75479C9.41505 5.95769 9.41496 6.16056 9.41444 6.36346C9.41439 6.46054 9.41482 6.55763 9.41574 6.6547C9.41683 6.79057 9.41592 6.92628 9.4145 7.06213C9.41441 7.17793 9.41441 7.17793 9.41432 7.29606C9.36414 7.55671 9.2682 7.64987 9.06256 7.8125C8.87115 7.84766 8.87115 7.84766 8.68756 7.8125C8.49539 7.67096 8.4428 7.59668 8.40623 7.35812C8.40622 7.27707 8.40621 7.19603 8.4062 7.11253C8.40587 7.06769 8.40553 7.02284 8.40518 6.97664C8.4044 6.82872 8.40543 6.68088 8.40655 6.53296C8.40654 6.43007 8.40645 6.32718 8.40628 6.2243C8.40619 6.00883 8.40698 5.79339 8.4084 5.57793C8.41018 5.30161 8.41 5.02534 8.40921 4.74902C8.40877 4.53664 8.40926 4.32427 8.41004 4.1119C8.41032 4.01 8.41034 3.90811 8.41009 3.80621C8.40991 3.66391 8.41094 3.52167 8.41231 3.37938C8.41264 3.29839 8.41298 3.21739 8.41333 3.13395C8.43756 2.9375 8.43756 2.9375 8.51751 2.81809C8.66942 2.72192 8.82155 2.72104 8.99786 2.71289Z" fill="#040405"/>
<path d="M14.4535 11.3427C14.519 11.3419 14.5845 11.3411 14.652 11.3403C14.7575 11.3411 14.7575 11.3411 14.8652 11.3419C14.9741 11.3415 14.9741 11.3415 15.0852 11.3411C15.2386 11.341 15.392 11.3414 15.5454 11.3425C15.7804 11.3438 16.0153 11.3425 16.2502 11.3409C16.3993 11.3411 16.5483 11.3414 16.6973 11.3419C16.7676 11.3414 16.838 11.3409 16.9105 11.3403C16.976 11.3411 17.0415 11.3419 17.109 11.3427C17.1953 11.343 17.1953 11.343 17.2834 11.3433C17.4865 11.3852 17.5612 11.4633 17.6875 11.6251C17.7227 11.8438 17.7227 11.8438 17.6875 12.0626C17.5509 12.2266 17.4381 12.3026 17.2256 12.3362C17.036 12.3468 16.8481 12.3488 16.6582 12.348C16.5886 12.3484 16.5191 12.3487 16.4474 12.3491C16.3005 12.3496 16.1536 12.3494 16.0067 12.3486C15.782 12.3477 15.5575 12.3499 15.3328 12.3522C15.1899 12.3523 15.0471 12.3522 14.9043 12.3519C14.8372 12.3527 14.77 12.3535 14.7009 12.3544C14.2363 12.3486 14.2363 12.3486 13.9886 12.1658C13.875 12.0001 13.875 12.0001 13.8398 11.8087C13.9071 11.4572 14.1116 11.3439 14.4535 11.3427Z" fill="#010202"/>
<path d="M22.7888 20.7794C22.8766 20.779 22.8766 20.779 22.9662 20.7787C23.09 20.7785 23.2137 20.779 23.3374 20.78C23.5264 20.7813 23.7153 20.78 23.9044 20.7784C24.0247 20.7786 24.145 20.7789 24.2654 20.7794C24.3217 20.7789 24.3781 20.7784 24.4362 20.7779C24.6963 20.7817 24.8399 20.7915 25.0669 20.9282C25.1875 21.0626 25.1875 21.0626 25.2265 21.2462C25.1729 21.5088 25.0876 21.5874 24.875 21.7501C24.6717 21.7958 24.4731 21.7939 24.2654 21.7916C24.2067 21.7919 24.1481 21.7922 24.0877 21.7925C23.9641 21.7927 23.8405 21.7921 23.7169 21.7908C23.5277 21.7892 23.3387 21.7908 23.1495 21.7928C23.0293 21.7926 22.909 21.7922 22.7888 21.7916C22.7323 21.7922 22.6758 21.7929 22.6175 21.7935C22.227 21.7862 22.227 21.7862 22.0268 21.6032C21.9175 21.4006 21.8989 21.2895 21.9375 21.0626C22.1537 20.7374 22.4337 20.7762 22.7888 20.7794Z" fill="#000100"/>
<path d="M14.7263 20.7769C14.7849 20.7765 14.8435 20.7762 14.9038 20.7758C15.0275 20.7753 15.1512 20.7755 15.2749 20.7763C15.464 20.7772 15.6529 20.775 15.8419 20.7727C15.9623 20.7726 16.0826 20.7727 16.2029 20.773C16.2593 20.7722 16.3157 20.7714 16.3738 20.7705C16.6556 20.7747 16.7754 20.7836 17.0049 20.961C17.125 21.1248 17.125 21.1248 17.1563 21.285C17.1192 21.4656 17.0651 21.555 16.9375 21.6873C16.7684 21.7437 16.6659 21.7585 16.4917 21.7609C16.44 21.7617 16.3883 21.7625 16.335 21.7633C16.2515 21.764 16.2515 21.764 16.1663 21.7647C16.1089 21.7652 16.0515 21.7657 15.9923 21.7662C15.8709 21.7671 15.7495 21.7678 15.6281 21.7683C15.4423 21.7694 15.2567 21.7721 15.0709 21.7748C14.953 21.7755 14.835 21.776 14.7171 21.7764C14.6615 21.7775 14.606 21.7786 14.5488 21.7798C14.1655 21.7784 14.1655 21.7784 13.965 21.6368C13.8326 21.4352 13.8414 21.298 13.875 21.0623C14.0883 20.7367 14.3729 20.775 14.7263 20.7769Z" fill="#010100"/>
<path d="M18.791 20.7853C18.8497 20.785 18.9084 20.7847 18.9689 20.7843C19.0929 20.7839 19.2169 20.784 19.3409 20.7846C19.5306 20.7851 19.7202 20.7833 19.9099 20.7813C20.0304 20.7812 20.151 20.7812 20.2715 20.7814C20.3566 20.7804 20.3566 20.7804 20.4433 20.7793C20.8342 20.7836 20.8342 20.7836 21.0355 20.9257C21.1686 21.129 21.1631 21.2628 21.125 21.4999C20.9466 21.7006 20.802 21.7657 20.541 21.7833C20.4336 21.7853 20.3262 21.7859 20.2188 21.7853C20.1617 21.7857 20.1046 21.7861 20.0458 21.7865C19.9254 21.7869 19.805 21.7868 19.6846 21.786C19.5006 21.7851 19.3168 21.7872 19.1328 21.7896C19.0156 21.7897 18.8984 21.7895 18.7812 21.7892C18.7264 21.7901 18.6716 21.7909 18.6151 21.7917C18.3395 21.7876 18.2215 21.7753 17.9944 21.6054C17.875 21.4374 17.875 21.4374 17.8711 21.2109C17.9375 20.9999 17.9375 20.9999 18.0289 20.8947C18.2759 20.7666 18.5167 20.7844 18.791 20.7853Z" fill="#000100"/>
<path d="M26.8535 20.7814C26.9122 20.7813 26.9709 20.7812 27.0314 20.7811C27.1554 20.7812 27.2794 20.7819 27.4034 20.7832C27.5931 20.785 27.7827 20.7845 27.9724 20.7837C28.093 20.7841 28.2135 20.7846 28.334 20.7853C28.4191 20.785 28.4191 20.785 28.5059 20.7847C28.8976 20.7906 28.8976 20.7906 29.0984 20.9003C29.2095 21.0245 29.2178 21.085 29.211 21.2499C29.2102 21.2924 29.2093 21.335 29.2085 21.3788C29.1875 21.4999 29.1875 21.4999 29.0625 21.6874C28.8934 21.7438 28.7909 21.7586 28.6167 21.7609C28.565 21.7617 28.5133 21.7625 28.46 21.7634C28.3765 21.7641 28.3765 21.7641 28.2913 21.7648C28.2339 21.7653 28.1765 21.7658 28.1173 21.7663C27.9959 21.7672 27.8745 21.7678 27.7531 21.7683C27.5673 21.7694 27.3817 21.7721 27.1959 21.7749C27.078 21.7755 26.96 21.7761 26.8421 21.7765C26.7865 21.7776 26.731 21.7787 26.6738 21.7798C26.2905 21.7785 26.2905 21.7785 26.09 21.6369C25.9576 21.4352 25.9664 21.298 26 21.0624C26.2136 20.7351 26.4994 20.777 26.8535 20.7814Z" fill="#000100"/>
<path d="M20.3513 23.3958C20.4304 23.3953 20.5095 23.3949 20.5909 23.3945C20.6731 23.3957 20.7552 23.3969 20.8398 23.3982C20.9217 23.397 21.0036 23.3958 21.088 23.3945C21.7559 23.3979 21.7559 23.3979 21.9941 23.5818C22.125 23.7498 22.125 23.7498 22.1289 23.9763C22.0396 24.2599 22.0396 24.2599 21.875 24.3748C21.6731 24.399 21.6731 24.399 21.4258 24.3997C21.3821 24.3998 21.3384 24.4 21.2934 24.4002C21.2012 24.4003 21.1089 24.4 21.0167 24.3992C20.8755 24.3982 20.7344 24.3992 20.5933 24.4004C20.5036 24.4003 20.4139 24.4 20.3242 24.3997C20.2426 24.3994 20.161 24.3992 20.0769 24.399C19.875 24.3748 19.875 24.3748 19.7571 24.2926C19.6372 24.111 19.625 23.9649 19.625 23.7498C19.8463 23.4649 19.9946 23.3975 20.3513 23.3958Z" fill="#030502"/>
<path d="M17.4785 23.3983C17.5976 23.3981 17.5976 23.3981 17.719 23.3979C17.8014 23.3994 17.8838 23.4009 17.9688 23.4025C18.0512 23.4018 18.1336 23.4011 18.2185 23.4004C18.9015 23.4056 18.9015 23.4056 19.1875 23.6876C19.2412 23.8717 19.2124 23.9915 19.1875 24.1876C19.1197 24.2951 19.1197 24.2951 19 24.3751C18.7991 24.4004 18.7991 24.4004 18.553 24.4022C18.4877 24.4027 18.4877 24.4027 18.4211 24.4032C18.3291 24.4036 18.2371 24.4035 18.1451 24.403C18.0046 24.4025 17.8642 24.4043 17.7238 24.4062C17.6343 24.4064 17.5448 24.4063 17.4553 24.4061C17.374 24.4062 17.2927 24.4064 17.209 24.4065C17 24.3751 17 24.3751 16.8487 24.2597C16.75 24.1251 16.75 24.1251 16.7148 23.9415C16.7926 23.5184 17.0801 23.3981 17.4785 23.3983Z" fill="#020501"/>
<path d="M14.6035 23.4043C14.6828 23.404 14.7622 23.4037 14.844 23.4033C14.9264 23.4043 15.0088 23.4053 15.0937 23.4062C15.2174 23.4048 15.2174 23.4048 15.3435 23.4033C15.4625 23.4038 15.4625 23.4038 15.584 23.4043C15.6924 23.4047 15.6924 23.4047 15.8031 23.4052C16.0409 23.4442 16.1458 23.5156 16.3125 23.6875C16.3513 23.9293 16.3593 24.0603 16.2137 24.2616C16.0063 24.4171 15.8648 24.4073 15.6072 24.4082C15.5418 24.4086 15.5418 24.4086 15.4751 24.4089C15.3832 24.4091 15.2913 24.4086 15.1994 24.4076C15.0588 24.4063 14.9183 24.4076 14.7777 24.4092C14.6883 24.409 14.5989 24.4087 14.5095 24.4082C14.4283 24.4079 14.3471 24.4076 14.2634 24.4073C14.0625 24.375 14.0625 24.375 13.9427 24.2616C13.8411 24.0566 13.8428 23.9125 13.875 23.6875C14.1075 23.4472 14.2743 23.4056 14.6035 23.4043Z" fill="#020501"/>
<path d="M5.1875 5.7498C5.40107 5.74474 5.61452 5.74102 5.82812 5.73808C5.91888 5.73573 5.91888 5.73573 6.01147 5.73332C6.09909 5.73242 6.09909 5.73242 6.18848 5.73149C6.24215 5.73051 6.29583 5.72953 6.35114 5.72852C6.5337 5.75462 6.61797 5.81019 6.75 5.9373C6.7832 6.11308 6.7832 6.11308 6.78125 6.3123C6.78189 6.37804 6.78254 6.44379 6.7832 6.51152C6.75 6.6873 6.75 6.6873 6.6424 6.79089C6.47519 6.88942 6.38114 6.89664 6.18848 6.89311C6.13007 6.89251 6.07166 6.8919 6.01147 6.89128C5.95097 6.88971 5.89046 6.88814 5.82812 6.88652C5.76665 6.88567 5.70518 6.88483 5.64185 6.88396C5.49038 6.88175 5.33894 6.87839 5.1875 6.8748C5.1875 6.50355 5.1875 6.1323 5.1875 5.7498Z" fill="#DBF3FD"/>
<path d="M5.1875 3.6873C5.41279 3.68225 5.63796 3.67853 5.86328 3.67558C5.9593 3.67323 5.9593 3.67323 6.05725 3.67082C6.1494 3.66992 6.1494 3.66992 6.24341 3.66899C6.32834 3.66752 6.32834 3.66752 6.41499 3.66602C6.5625 3.6873 6.5625 3.6873 6.6745 3.7722C6.78309 3.91977 6.7771 4.0333 6.77734 4.21465C6.77916 4.30347 6.77916 4.30347 6.78101 4.39409C6.75 4.5623 6.75 4.5623 6.66528 4.70805C6.40054 4.87503 6.13375 4.83851 5.82812 4.82793C5.73592 4.82623 5.73592 4.82623 5.64185 4.82451C5.49037 4.82157 5.33893 4.81708 5.1875 4.8123C5.1875 4.44105 5.1875 4.0698 5.1875 3.6873Z" fill="#D8F0F9"/>
<path d="M27.125 23.3127C27.3536 23.4402 27.4793 23.5317 27.625 23.7502C27.6538 24.0611 27.6355 24.2544 27.4375 24.5002C27.2544 24.6477 27.1408 24.6857 26.9062 24.7151C26.6489 24.6829 26.5541 24.6219 26.375 24.4377C26.2321 24.2336 26.2249 24.0581 26.25 23.8127C26.422 23.4234 26.7002 23.252 27.125 23.3127Z" fill="#F6C64D"/>
<path d="M27.9727 25.414C28.0481 25.4566 28.0481 25.4566 28.125 25.5C28.2685 25.5717 28.3798 25.5817 28.5391 25.5976C28.6157 25.6055 28.6157 25.6055 28.6938 25.6135C28.7526 25.6192 28.7526 25.6192 28.8125 25.625C28.8125 25.6456 28.8125 25.6662 28.8125 25.6875C29.1838 25.7081 29.555 25.7287 29.9375 25.75C29.9375 25.7706 29.9375 25.7912 29.9375 25.8125C24.41 25.8125 18.8825 25.8125 13.1875 25.8125C13.1875 25.7918 13.1875 25.7712 13.1875 25.75C13.2584 25.7499 13.3292 25.7499 13.4023 25.7499C15.1279 25.749 16.8535 25.7463 18.5791 25.7417C19.4136 25.7396 20.2481 25.738 21.0826 25.7378C21.8101 25.7376 22.5375 25.7363 23.265 25.7337C23.6501 25.7324 24.0351 25.7316 24.4202 25.7321C24.783 25.7326 25.1457 25.7316 25.5084 25.7295C25.6413 25.729 25.7741 25.729 25.907 25.7296C26.8006 25.7472 26.8006 25.7472 27.6254 25.4381C27.75 25.375 27.75 25.375 27.9727 25.414Z" fill="#65BD43"/>
<path d="M14.875 16.2501C15.3344 16.2453 15.7938 16.2421 16.2533 16.2398C16.4096 16.2388 16.566 16.2376 16.7223 16.2359C16.9468 16.2337 17.1713 16.2326 17.3958 16.2318C17.4659 16.2308 17.536 16.2298 17.6082 16.2288C17.6733 16.2288 17.7383 16.2288 17.8054 16.2288C17.8627 16.2284 17.92 16.228 17.9791 16.2275C18.125 16.2501 18.125 16.2501 18.2372 16.3304C18.3698 16.5191 18.3391 16.7463 18.3374 16.9688C18.3376 17.0208 18.3378 17.0728 18.3379 17.1264C18.3381 17.2363 18.3377 17.3462 18.3369 17.4561C18.3359 17.6245 18.3369 17.7927 18.3381 17.961C18.338 18.0678 18.3378 18.1746 18.3374 18.2813C18.338 18.3569 18.338 18.3569 18.3386 18.434C18.3342 18.7816 18.3342 18.7816 18.2376 18.9198C18.0852 19.0285 17.9859 19.0227 17.7996 19.0214C17.7333 19.0214 17.667 19.0213 17.5987 19.0213C17.4915 19.0199 17.4915 19.0199 17.3821 19.0184C17.3088 19.0181 17.2356 19.0179 17.1601 19.0176C16.9257 19.0165 16.6914 19.0142 16.457 19.0118C16.2983 19.0109 16.1396 19.01 15.9808 19.0092C15.5914 19.0072 15.2019 19.004 14.8125 19.0001C14.8125 18.9795 14.8125 18.9588 14.8125 18.9376C15.8438 18.9376 16.875 18.9376 17.9375 18.9376C17.9375 18.0713 17.9375 17.2051 17.9375 16.3126C16.9269 16.3126 15.9162 16.3126 14.875 16.3126C14.875 16.292 14.875 16.2713 14.875 16.2501Z" fill="#E4AC2C"/>
<path d="M28.6719 23.2969C28.9034 23.3147 29.0058 23.3576 29.1875 23.5C29.3205 23.6696 29.3706 23.7827 29.4023 23.9961C29.3675 24.2397 29.2771 24.3712 29.125 24.5625C28.9319 24.6912 28.8932 24.7024 28.6758 24.6953C28.5971 24.6927 28.5185 24.6902 28.4375 24.6875C28.4477 24.6445 28.4578 24.6015 28.4683 24.5571C28.5035 24.3552 28.5083 24.1658 28.5078 23.9609C28.508 23.8905 28.5081 23.8201 28.5083 23.7476C28.5083 23.5589 28.5083 23.5589 28.4375 23.375C28.5 23.3125 28.5 23.3125 28.6719 23.2969Z" fill="#F37644"/>
<path d="M19.125 27.375C19.3725 27.375 19.62 27.375 19.875 27.375C19.875 27.6225 19.875 27.87 19.875 28.125C19.5917 27.8917 19.3516 27.6634 19.125 27.375Z" fill="#DCF4FE"/>
</g>
<defs>
<clipPath id="clip0_263_2579">
<rect width="32" height="32" fill="white"/>
</clipPath>
</defs>
</svg>
