<svg width="20" height="20" viewBox="0 0 20 20" fill="none" xmlns="http://www.w3.org/2000/svg">
<g clip-path="url(#clip0_466_2518)">
<path d="M11.5193 13.7977C11.6913 13.8767 11.8851 13.8947 12.0687 13.8489C12.2523 13.803 12.4148 13.6959 12.5295 13.5454L12.8251 13.1581C12.9803 12.9512 13.1814 12.7833 13.4127 12.6677C13.644 12.5521 13.899 12.4919 14.1576 12.4919H16.656C17.0977 12.4919 17.5214 12.6674 17.8337 12.9797C18.1461 13.2921 18.3216 13.7157 18.3216 14.1575V16.6558C18.3216 17.0976 18.1461 17.5212 17.8337 17.8336C17.5214 18.146 17.0977 18.3214 16.656 18.3214C12.6803 18.3214 8.86744 16.7421 6.05621 13.9309C3.24498 11.1196 1.66565 7.3068 1.66565 3.33112C1.66565 2.88938 1.84113 2.46573 2.15349 2.15337C2.46585 1.84101 2.8895 1.66553 3.33124 1.66553H5.82963C6.27137 1.66553 6.69502 1.84101 7.00738 2.15337C7.31974 2.46573 7.49522 2.88938 7.49522 3.33112V5.8295C7.49522 6.08808 7.43502 6.3431 7.31938 6.57438C7.20374 6.80566 7.03584 7.00683 6.82898 7.16198L6.43923 7.45429C6.28635 7.57103 6.17858 7.73709 6.13426 7.92428C6.08993 8.11146 6.11176 8.30822 6.19606 8.48113C7.33422 10.7929 9.20613 12.6624 11.5193 13.7977Z" stroke="#9810FA" stroke-width="1.66559" stroke-linecap="round" stroke-linejoin="round"/>
</g>
<defs>
<clipPath id="clip0_466_2518">
<rect width="19.9871" height="19.9871" fill="white"/>
</clipPath>
</defs>
</svg>
