<svg width="24" height="24" viewBox="0 0 24 24" fill="none" xmlns="http://www.w3.org/2000/svg">
<g clip-path="url(#clip0_701_328)">
<path d="M12.7304 0.144156C12.7923 0.165129 12.8542 0.186137 12.9161 0.207177C12.981 0.228728 13.0458 0.250236 13.1107 0.271702C13.2459 0.316611 13.381 0.362011 13.5159 0.40778C13.6881 0.466168 13.8607 0.523347 14.0334 0.58017C14.1672 0.624304 14.3007 0.66905 14.4342 0.713981C14.4978 0.735297 14.5614 0.756432 14.6251 0.777377C15.2439 0.981662 15.2439 0.981662 15.4686 1.21883C15.5404 1.36247 15.5262 1.48211 15.5155 1.64071C15.417 1.85731 15.2885 1.97365 15.0697 2.06465C15.0255 2.07933 14.9814 2.09401 14.936 2.10913C14.8857 2.12601 14.8355 2.14289 14.7838 2.16028C14.7298 2.17801 14.6759 2.19574 14.6203 2.21401C14.5647 2.23254 14.5091 2.25107 14.4519 2.27016C14.3345 2.30921 14.217 2.34813 14.0995 2.38681C13.9489 2.43639 13.7984 2.48647 13.6481 2.53671C13.5044 2.58464 13.3607 2.63223 13.217 2.67983C13.1629 2.69785 13.1089 2.71586 13.0532 2.73442C13.0031 2.75086 12.9531 2.7673 12.9015 2.78424C12.8574 2.7988 12.8133 2.81337 12.7679 2.82837C12.6561 2.85946 12.6561 2.85946 12.5155 2.85946C12.5129 3.06371 12.5128 3.26776 12.5149 3.472C12.5153 3.54123 12.515 3.61047 12.5141 3.67969C12.5084 4.11615 12.5489 4.42382 12.8384 4.77406C12.9628 4.90101 13.0916 5.01031 13.236 5.11367C13.3291 5.18127 13.4166 5.24974 13.5044 5.32351C14.2524 5.94856 15.0903 6.45855 15.9374 6.93758C15.9833 6.96367 16.0292 6.98976 16.0765 7.01664C16.7691 7.40936 17.4687 7.78234 18.1839 8.13224C18.3211 8.19982 18.4578 8.26829 18.5944 8.337C19.001 8.54133 19.4104 8.73895 19.8221 8.9327C19.8555 8.94847 19.8889 8.96423 19.9233 8.98048C20.3201 9.16781 20.7186 9.35038 21.1213 9.52486C21.1577 9.54071 21.1942 9.55655 21.2318 9.57287C21.4072 9.64899 21.5829 9.72442 21.7591 9.7988C21.8227 9.82619 21.8864 9.85359 21.95 9.881C22.0054 9.90446 22.0608 9.92792 22.1179 9.95208C22.281 10.0396 22.3847 10.1207 22.4999 10.2657C22.5295 10.3981 22.5295 10.3981 22.5294 10.5424C22.5297 10.6219 22.5297 10.6219 22.5301 10.7031C22.5288 10.7589 22.5275 10.8147 22.5262 10.8722C22.5255 10.9292 22.5247 10.9863 22.5239 11.0451C22.5025 11.8737 22.2292 12.5626 21.6561 13.172C21.2942 13.4935 21.2942 13.4935 21.0936 13.5938C21.0358 16.6385 21.8337 19.9106 23.1979 22.6339C23.2198 22.678 23.2417 22.7221 23.2643 22.7675C23.3061 22.8502 23.3487 22.9324 23.3924 23.014C23.5075 23.241 23.5519 23.4121 23.5291 23.6663C23.4596 23.8204 23.3453 23.9149 23.203 24.0001C23.0656 24.0227 22.956 24.0316 22.8191 24.0294C22.781 24.0298 22.743 24.0301 22.7037 24.0304C22.5758 24.0312 22.448 24.0304 22.3201 24.0295C22.2276 24.0298 22.1351 24.0301 22.0426 24.0305C21.7882 24.0314 21.5339 24.0309 21.2795 24.03C21.0052 24.0294 20.731 24.0301 20.4567 24.0307C19.9194 24.0315 19.3821 24.0311 18.8447 24.0303C18.4082 24.0296 17.9716 24.0295 17.535 24.0296C17.4885 24.0296 17.4885 24.0296 17.441 24.0297C17.3151 24.0297 17.1893 24.0298 17.0634 24.0298C15.8824 24.0303 14.7015 24.0294 13.5205 24.0279C12.471 24.0266 11.4215 24.0264 10.372 24.0271C10.1032 24.0273 9.83443 24.0275 9.56566 24.0276C9.53257 24.0276 9.49949 24.0277 9.4654 24.0277C8.58873 24.0282 7.71205 24.0279 6.83538 24.0273C6.74107 24.0272 6.64676 24.0271 6.55244 24.0271C6.45868 24.027 6.36492 24.0269 6.27116 24.0269C5.83493 24.0266 5.39871 24.0268 4.96248 24.0271C4.43111 24.0274 3.89974 24.0271 3.36837 24.0259C3.09711 24.0254 2.82586 24.0251 2.55459 24.0256C2.30649 24.0261 2.05839 24.0257 1.81029 24.0246C1.72033 24.0243 1.63037 24.0244 1.54041 24.0248C1.41849 24.0254 1.29664 24.0247 1.17473 24.0238C1.12185 24.0245 1.12185 24.0245 1.06791 24.0251C0.839119 24.0217 0.723975 23.9739 0.562373 23.8126C0.463012 23.6861 0.468714 23.6232 0.476496 23.4596C0.510777 23.2121 0.621413 23.0126 0.735224 22.7931C1.78319 20.6798 2.42691 18.3594 2.7655 16.0313C2.7714 15.9908 2.77731 15.9503 2.7834 15.9085C2.81309 15.6998 2.83822 15.4911 2.85925 15.2813C2.86444 15.2305 2.86964 15.1796 2.87499 15.1272C2.8895 14.9598 2.8984 14.7929 2.90612 14.6251C2.90871 14.584 2.9113 14.5429 2.91397 14.5006C2.92219 14.3624 2.92756 14.2244 2.93249 14.086C2.93694 14.0196 2.93694 14.0196 2.94148 13.9519C2.94901 13.7089 2.94901 13.7089 2.82901 13.5072C2.7328 13.435 2.63496 13.3731 2.53112 13.3126C1.96015 12.8868 1.63767 12.2173 1.49987 11.5313C1.47906 11.3141 1.47596 11.099 1.47644 10.8809C1.47511 10.8249 1.47378 10.7688 1.47241 10.711C1.47229 10.657 1.47217 10.603 1.47204 10.5473C1.47171 10.4988 1.47138 10.4503 1.47103 10.4003C1.51066 10.2154 1.58893 10.1496 1.73425 10.0313C1.86779 9.95697 1.86779 9.95697 2.01495 9.89327C2.06972 9.8692 2.12449 9.84512 2.18092 9.82032C2.22424 9.80173 2.22424 9.80173 2.26843 9.78277C2.36013 9.74343 2.45152 9.70345 2.54285 9.66328C2.66745 9.60851 2.79213 9.55395 2.91688 9.49953C3.16363 9.39158 3.40854 9.27969 3.65319 9.16708C3.69773 9.14659 3.74226 9.1261 3.78814 9.10499C3.88126 9.06209 3.97435 9.01914 4.06742 8.97614C4.17477 8.92658 4.28216 8.87711 4.3896 8.82774C5.0715 8.51423 5.74821 8.19626 6.40845 7.83871C6.523 7.77731 6.63824 7.71738 6.75372 7.65774C8.08802 6.96838 9.42616 6.22079 10.5771 5.24715C10.6763 5.16546 10.7775 5.0937 10.8837 5.02157C11.1377 4.82518 11.3875 4.58826 11.4584 4.26302C11.4911 3.98857 11.4826 3.71296 11.4777 3.43716C11.4775 3.34819 11.4776 3.25921 11.4779 3.17024C11.4781 2.93737 11.4763 2.70457 11.4739 2.47171C11.4703 2.09829 11.4692 1.72487 11.4692 1.35142C11.4689 1.22142 11.4672 1.09147 11.4655 0.961476C11.4651 0.881655 11.4649 0.801833 11.4646 0.722012C11.4634 0.668201 11.4634 0.668201 11.4621 0.613303C11.4629 0.370766 11.5177 0.233239 11.6717 0.0469593C12 -0.117174 12.4075 0.0389683 12.7304 0.144156Z" fill="#FEC007"/>
<path d="M12.7305 0.144156C12.7924 0.165129 12.8544 0.186137 12.9163 0.207177C12.9811 0.228728 13.046 0.250236 13.1109 0.271702C13.2461 0.316611 13.3811 0.362011 13.516 0.40778C13.6882 0.466168 13.8608 0.523347 14.0336 0.58017C14.1673 0.624304 14.3009 0.66905 14.4343 0.713981C14.4979 0.735297 14.5615 0.756432 14.6252 0.777377C15.244 0.981662 15.244 0.981662 15.4688 1.21883C15.5406 1.36247 15.5264 1.48211 15.5156 1.64071C15.4172 1.85731 15.2886 1.97365 15.0698 2.06465C15.0257 2.07933 14.9815 2.09401 14.9361 2.10913C14.8859 2.12601 14.8357 2.14289 14.7839 2.16028C14.73 2.17801 14.676 2.19574 14.6204 2.21401C14.5648 2.23254 14.5093 2.25107 14.452 2.27016C14.3346 2.30921 14.2171 2.34813 14.0996 2.38681C13.949 2.43639 13.7986 2.48647 13.6482 2.53671C13.5046 2.58464 13.3608 2.63223 13.2171 2.67983C13.163 2.69785 13.109 2.71586 13.0533 2.73442C13.0032 2.75086 12.9532 2.7673 12.9016 2.78424C12.8575 2.7988 12.8134 2.81337 12.768 2.82837C12.6563 2.85946 12.6562 2.85946 12.5156 2.85946C12.5156 3.33899 12.5156 3.81852 12.5156 4.31258C12.4073 4.21977 12.2991 4.12696 12.1875 4.03133C12.1256 4.01587 12.0638 4.0004 12 3.98446C12.0005 4.02887 12.001 4.07329 12.0014 4.11905C12.0129 5.20124 12.0214 6.28343 12.0267 7.36567C12.0294 7.88904 12.033 8.41237 12.0389 8.93572C12.044 9.39203 12.0474 9.84831 12.0485 10.3047C12.0492 10.5462 12.0508 10.7876 12.0545 11.0291C12.058 11.2567 12.0591 11.4842 12.0583 11.7119C12.0585 11.7951 12.0595 11.8783 12.0615 11.9615C12.0713 12.3927 12.0601 12.7046 11.7513 13.028C11.5182 13.2484 11.2763 13.4586 10.9918 13.6092C10.8539 13.7018 10.7969 13.7891 10.7109 13.9307C9.9927 15.0456 9.00273 16.0069 7.96875 16.8282C7.91257 16.8735 7.85642 16.9189 7.80029 16.9643C6.94244 17.6567 6.04829 18.2812 5.11285 18.8645C5.04917 18.9045 4.98551 18.9444 4.92188 18.9845C4.88006 19.0105 4.88006 19.0105 4.83739 19.037C4.70544 19.1212 4.63552 19.1796 4.54688 19.3126C4.52655 19.5647 4.55137 19.772 4.61243 20.017C4.68483 20.3227 4.73621 20.6273 4.77832 20.9386C4.78615 20.9948 4.79397 21.051 4.80203 21.1088C4.8514 21.479 4.88967 21.8492 4.92206 22.2212C4.92794 22.2878 4.92794 22.2878 4.93395 22.3556C4.95343 22.5771 4.97191 22.7986 4.98888 23.0202C4.99581 23.1022 5.00278 23.1842 5.00977 23.2662C5.0123 23.3037 5.01484 23.3413 5.01746 23.38C5.04301 23.6651 5.14145 23.7978 5.34375 24.0001C4.75496 24.0044 4.16618 24.0078 3.57738 24.0098C3.30398 24.0108 3.03059 24.0121 2.75719 24.0142C2.49338 24.0163 2.22957 24.0174 1.96575 24.0179C1.86507 24.0182 1.76439 24.0189 1.66372 24.0199C1.52276 24.0213 1.38184 24.0215 1.24087 24.0214C1.1992 24.022 1.15752 24.0227 1.11459 24.0234C0.920833 24.0221 0.822936 24.0167 0.655967 23.9101C0.503823 23.7513 0.503822 23.7513 0.46875 23.6251C0.484087 23.3026 0.58828 23.0768 0.735352 22.7931C1.78332 20.6798 2.42704 18.3594 2.76562 16.0313C2.77153 15.9908 2.77744 15.9503 2.78352 15.9085C2.81322 15.6998 2.83835 15.4911 2.85938 15.2813C2.86457 15.2305 2.86977 15.1796 2.87512 15.1272C2.88963 14.9598 2.89853 14.7929 2.90625 14.6251C2.90884 14.584 2.91143 14.5429 2.9141 14.5006C2.92232 14.3624 2.92769 14.2244 2.93262 14.086C2.93707 14.0196 2.93707 14.0196 2.94161 13.9519C2.94913 13.7089 2.94913 13.7089 2.82914 13.5072C2.73293 13.435 2.63509 13.3731 2.53125 13.3126C1.96028 12.8868 1.6378 12.2173 1.5 11.5313C1.47918 11.3141 1.47608 11.099 1.47656 10.8809C1.47523 10.8249 1.4739 10.7688 1.47253 10.711C1.47241 10.657 1.47229 10.603 1.47217 10.5473C1.47184 10.4988 1.4715 10.4503 1.47116 10.4003C1.51079 10.2154 1.58905 10.1496 1.73438 10.0313C1.86792 9.95697 1.86792 9.95697 2.01508 9.89327C2.06985 9.8692 2.12462 9.84512 2.18105 9.82032C2.22437 9.80173 2.22437 9.80173 2.26856 9.78277C2.36025 9.74343 2.45164 9.70345 2.54298 9.66328C2.66758 9.60851 2.79226 9.55395 2.91701 9.49953C3.16376 9.39158 3.40867 9.27969 3.65332 9.16708C3.69785 9.14659 3.74239 9.1261 3.78827 9.10499C3.88138 9.06209 3.97448 9.01914 4.06755 8.97614C4.1749 8.92658 4.28229 8.87711 4.38972 8.82774C5.07163 8.51423 5.74833 8.19626 6.40858 7.83871C6.52313 7.77731 6.63837 7.71738 6.75385 7.65774C8.08814 6.96838 9.42629 6.22079 10.5773 5.24715C10.6764 5.16546 10.7776 5.0937 10.8838 5.02157C11.1378 4.82518 11.3877 4.58826 11.4585 4.26302C11.4912 3.98857 11.4827 3.71296 11.4778 3.43716C11.4777 3.34819 11.4777 3.25921 11.478 3.17024C11.4783 2.93737 11.4765 2.70457 11.474 2.47171C11.4704 2.09829 11.4693 1.72487 11.4694 1.35142C11.469 1.22142 11.4674 1.09147 11.4656 0.961476C11.4653 0.881655 11.465 0.801833 11.4647 0.722012C11.4635 0.668201 11.4635 0.668201 11.4622 0.613303C11.463 0.370766 11.5178 0.233239 11.6719 0.0469593C12.0001 -0.117174 12.4076 0.0389683 12.7305 0.144156Z" fill="#CFD7DB"/>
<path d="M12.9375 4.92188C13.0976 4.99292 13.2174 5.08704 13.3506 5.2002C14.8002 6.40018 16.5011 7.3088 18.1841 8.13216C18.3212 8.19973 18.4579 8.26821 18.5945 8.33691C19.0011 8.54124 19.4105 8.73886 19.8223 8.93262C19.8556 8.94838 19.889 8.96415 19.9234 8.98039C20.3202 9.16772 20.7187 9.35029 21.1214 9.52478C21.1579 9.54062 21.1943 9.55646 21.2319 9.57278C21.4073 9.64891 21.583 9.72434 21.7592 9.79872C21.8229 9.8261 21.8865 9.8535 21.9501 9.88092C22.0055 9.90438 22.0609 9.92783 22.118 9.952C22.2811 10.0396 22.3848 10.1206 22.5 10.2656C22.5296 10.398 22.5296 10.398 22.5295 10.5423C22.5297 10.5953 22.5299 10.6483 22.5302 10.703C22.5289 10.7588 22.5277 10.8146 22.5264 10.8721C22.5256 10.9291 22.5248 10.9862 22.524 11.045C22.5026 11.8736 22.2294 12.5626 21.6562 13.1719C21.2943 13.4935 21.2943 13.4935 21.0938 13.5938C21.0359 16.6384 21.8338 19.9105 23.198 22.6339C23.2199 22.6779 23.2419 22.722 23.2645 22.7674C23.3062 22.8501 23.3488 22.9323 23.3925 23.0139C23.5077 23.2409 23.5521 23.412 23.5292 23.6662C23.459 23.8218 23.3488 23.9171 23.2031 24C23.0529 24.0324 22.907 24.0297 22.7538 24.0266C22.7094 24.0266 22.665 24.0267 22.6193 24.0267C22.4732 24.0265 22.3271 24.0247 22.181 24.0229C22.0795 24.0225 21.978 24.0221 21.8764 24.0219C21.6096 24.021 21.3428 24.0187 21.0761 24.0161C20.8036 24.0137 20.5312 24.0126 20.2588 24.0114C19.7246 24.0089 19.1904 24.0049 18.6562 24C18.676 23.9785 18.6958 23.957 18.7162 23.9349C18.7419 23.9061 18.7676 23.8774 18.7941 23.8477C18.8197 23.8195 18.8453 23.7912 18.8716 23.7621C18.9827 23.61 18.987 23.457 18.9961 23.2734C19.0005 23.2162 19.0005 23.2162 19.0051 23.1578C19.0114 23.0756 19.0172 22.9933 19.0226 22.9109C19.0377 22.6858 19.0583 22.4611 19.0781 22.2363C19.0841 22.1674 19.0841 22.1674 19.0902 22.0971C19.1016 21.9658 19.1132 21.8345 19.125 21.7031C19.1281 21.668 19.1312 21.6329 19.1345 21.5966C19.1799 21.1047 19.2695 20.6262 19.3745 20.1435C19.4858 19.687 19.4858 19.687 19.396 19.2411C19.3029 19.1117 19.2234 19.0545 19.086 18.975C19.0411 18.9486 18.9963 18.9221 18.9501 18.8949C18.9024 18.8674 18.8548 18.8399 18.8057 18.8115C18.3799 18.5594 17.9746 18.2954 17.5781 18C17.4951 17.9404 17.4121 17.8808 17.3291 17.8213C16.6217 17.3045 15.9421 16.7638 15.2939 16.1743C15.1952 16.085 15.095 15.9979 14.9941 15.9111C14.6731 15.6308 14.3856 15.3239 14.1094 15C14.0702 14.9551 14.0311 14.9102 13.9907 14.864C13.6782 14.5031 13.3963 14.127 13.125 13.7344C13.1482 13.688 13.1482 13.688 13.1719 13.6406C13.2279 13.6652 13.2279 13.6652 13.285 13.6902C13.3347 13.7116 13.3844 13.7329 13.4355 13.7549C13.509 13.7867 13.509 13.7867 13.5839 13.8192C13.887 13.9316 14.1826 13.9304 14.502 13.9307C14.5445 13.9312 14.587 13.9318 14.6309 13.9324C15.2689 13.9338 15.8536 13.6971 16.3594 13.3125C16.3916 13.288 16.4239 13.2634 16.4572 13.2382C17.0011 12.7942 17.3423 12.1284 17.4375 11.4375C17.4528 11.2449 17.4569 11.0535 17.458 10.8604C17.4603 10.786 17.4603 10.786 17.4627 10.7101C17.467 10.4173 17.467 10.4173 17.3278 10.1669C17.2404 10.1047 17.1518 10.0439 17.0625 9.98438C17.078 9.96891 17.0934 9.95344 17.1094 9.9375C17.0769 9.91013 17.0769 9.91013 17.0438 9.8822C16.644 9.53924 16.2786 9.16671 15.9375 8.76562C15.8963 8.71799 15.855 8.67038 15.8137 8.6228C15.2979 8.02693 14.8039 7.41366 14.3194 6.79211C14.2436 6.69498 14.1677 6.59798 14.0918 6.50098C13.8178 6.15037 13.5455 5.79847 13.2773 5.44336C13.2538 5.41243 13.2303 5.3815 13.2061 5.34963C13.1027 5.2119 13.0063 5.08103 12.9375 4.92188Z" fill="#CFD7DB"/>
<path d="M11.9531 14.6719C11.9841 14.6719 12.015 14.6719 12.0469 14.6719C12.0626 14.7067 12.0784 14.7416 12.0946 14.7775C12.4263 15.5083 12.7661 16.2285 13.1719 16.9219C13.1953 16.9621 13.2188 17.0023 13.2429 17.0437C13.8721 18.1149 14.5658 19.1531 15.3035 20.1526C15.4068 20.2933 15.5083 20.4353 15.61 20.5771C15.8837 20.9585 16.1649 21.3326 16.4531 21.7031C16.5093 21.7767 16.5654 21.8504 16.6215 21.924C16.8706 22.2505 17.1286 22.5693 17.3884 22.8873C17.5056 23.0307 17.6213 23.1752 17.7363 23.3203C17.9236 23.5552 18.1155 23.7874 18.3281 24C14.1361 24 9.94406 24 5.625 24C5.74102 23.9072 5.74102 23.9072 5.85938 23.8125C5.90351 23.7677 5.94636 23.7215 5.98718 23.6737C6.02012 23.6353 6.02012 23.6353 6.05372 23.5961C6.0766 23.5689 6.09948 23.5417 6.12305 23.5137C6.14756 23.4848 6.17207 23.4559 6.19732 23.4261C6.42776 23.1526 6.64916 22.8725 6.86797 22.5897C6.94198 22.4942 7.01642 22.3991 7.09094 22.3041C7.71427 21.5079 8.31994 20.6988 8.90625 19.875C8.94678 19.8181 8.94678 19.8181 8.98812 19.76C9.3653 19.2288 9.73068 18.6918 10.0781 18.1406C10.1025 18.1021 10.1268 18.0636 10.1519 18.024C10.4852 17.496 10.8052 16.963 11.1017 16.4135C11.156 16.313 11.2109 16.2127 11.2657 16.1125C11.5207 15.6431 11.7424 15.1627 11.9531 14.6719Z" fill="#FFA000"/>
<path d="M12.7305 0.144156C12.7925 0.165129 12.8544 0.186137 12.9163 0.207177C12.9811 0.228728 13.046 0.250236 13.1109 0.271702C13.2461 0.316611 13.3811 0.362011 13.516 0.40778C13.6883 0.466168 13.8609 0.523347 14.0336 0.58017C14.1673 0.624304 14.3009 0.66905 14.4344 0.713981C14.4979 0.735297 14.5615 0.756432 14.6252 0.777377C15.244 0.981662 15.244 0.981662 15.4688 1.21883C15.5406 1.36247 15.5264 1.48211 15.5157 1.64071C15.4172 1.85731 15.2887 1.97365 15.0698 2.06465C15.0036 2.08667 15.0036 2.08667 14.9361 2.10913C14.8859 2.12601 14.8357 2.14289 14.784 2.16028C14.73 2.17801 14.676 2.19574 14.6205 2.21401C14.5649 2.23254 14.5093 2.25107 14.452 2.27016C14.3346 2.30921 14.2172 2.34813 14.0996 2.38681C13.949 2.43639 13.7986 2.48647 13.6482 2.53671C13.5046 2.58464 13.3609 2.63223 13.2171 2.67983C13.1631 2.69785 13.109 2.71586 13.0533 2.73442C13.0033 2.75086 12.9532 2.7673 12.9016 2.78424C12.8575 2.7988 12.8134 2.81337 12.768 2.82837C12.6563 2.85946 12.6563 2.85946 12.5157 2.85946C12.5157 3.33899 12.5157 3.81852 12.5157 4.31258C12.4074 4.21977 12.2991 4.12696 12.1875 4.03133C12.0947 4.00813 12.0947 4.00813 12 3.98446C12.0005 4.02887 12.001 4.07329 12.0015 4.11905C12.0129 5.20124 12.0214 6.28343 12.0267 7.36567C12.0294 7.88904 12.033 8.41237 12.0389 8.93572C12.0441 9.39203 12.0474 9.84831 12.0485 10.3047C12.0492 10.5462 12.0508 10.7876 12.0545 11.0291C12.0581 11.2567 12.0591 11.4842 12.0583 11.7119C12.0585 11.7951 12.0595 11.8783 12.0615 11.9615C12.0701 12.3415 12.0766 12.6542 11.8208 12.9549C11.714 13.0666 11.6029 13.1664 11.4844 13.2657C11.4493 13.2959 11.4143 13.3261 11.3782 13.3572C10.6727 13.9406 9.78903 14.0452 8.90628 13.9688C8.67327 13.9257 8.46251 13.838 8.25003 13.7345C8.21142 13.7165 8.17281 13.6984 8.13302 13.6799C7.72014 13.4695 7.35793 13.1651 7.07815 12.797C7.07815 12.766 7.07815 12.7351 7.07815 12.7032C7.04722 12.7032 7.01628 12.7032 6.9844 12.7032C6.93147 12.592 6.87877 12.4806 6.8262 12.3692C6.81134 12.338 6.79647 12.3069 6.78116 12.2747C6.55808 11.8007 6.50596 11.366 6.501 10.8458C6.49965 10.7978 6.49829 10.7498 6.49688 10.7004C6.49391 10.349 6.49391 10.349 6.60025 10.1709C6.63421 10.1403 6.66817 10.1097 6.70315 10.0782C6.74222 10.042 6.74222 10.042 6.78207 10.005C6.8092 9.98273 6.83633 9.96049 6.86429 9.93758C7.28 9.58181 7.66306 9.18362 8.01565 8.76571C8.05777 8.71714 8.09995 8.66862 8.14218 8.62014C8.40158 8.32145 8.65336 8.01848 8.89606 7.70607C9.06149 7.49328 9.23078 7.28393 9.4014 7.07528C9.64001 6.78276 9.87307 6.48696 10.1014 6.18633C10.1865 6.07462 10.2722 5.96329 10.3578 5.85195C10.4247 5.76462 10.4917 5.67728 10.5586 5.58993C10.606 5.52837 10.606 5.52837 10.6544 5.46556C10.8216 5.24685 10.9817 5.02606 11.1315 4.79502C11.2032 4.68758 11.2032 4.68758 11.2604 4.61948C11.4389 4.39874 11.4709 4.23598 11.4655 3.95662C11.4657 3.9177 11.4658 3.87879 11.466 3.83869C11.4663 3.75472 11.466 3.67076 11.4653 3.58679C11.4641 3.45376 11.4643 3.32079 11.4649 3.18775C11.4658 2.90546 11.4649 2.62319 11.4639 2.3409C11.4629 2.0135 11.4627 1.68613 11.4639 1.35873C11.4641 1.2279 11.4631 1.09711 11.462 0.966285C11.4621 0.885853 11.4623 0.80542 11.4625 0.724987C11.4619 0.688819 11.4613 0.65265 11.4607 0.615386C11.463 0.372453 11.5175 0.233631 11.6719 0.0469593C12.0002 -0.117174 12.4076 0.0389683 12.7305 0.144156Z" fill="#CFD7DB"/>
<path d="M12.0002 3.98438C12.2692 4.01992 12.2692 4.01992 12.3794 4.12189C12.4079 4.16062 12.4365 4.19935 12.466 4.23926C12.4979 4.28186 12.5298 4.32446 12.5627 4.36835C12.6757 4.52714 12.7883 4.68616 12.899 4.84662C13.062 5.07938 13.2345 5.30507 13.4064 5.53125C13.4288 5.56068 13.4511 5.59012 13.4742 5.62045C13.654 5.85687 13.8347 6.09264 14.0158 6.32812C14.0425 6.36285 14.0691 6.39758 14.0966 6.43336C14.4742 6.92415 14.861 7.406 15.2567 7.88219C15.3549 8.00098 15.4514 8.12117 15.548 8.24121C15.7385 8.47466 15.9408 8.69576 16.1457 8.9165C16.2445 9.02381 16.3408 9.13241 16.4357 9.24316C16.7055 9.55349 16.9991 9.8375 17.3144 10.1012C17.4202 10.1992 17.4805 10.2779 17.4974 10.4228C17.498 10.487 17.498 10.487 17.4986 10.5526C17.4991 10.6 17.4995 10.6474 17.5 10.6963C17.4949 11.6463 17.3042 12.46 16.6205 13.1563C16.2873 13.459 15.9307 13.6579 15.5158 13.8281C15.4779 13.8447 15.44 13.8614 15.401 13.8785C14.7101 14.1292 13.8144 14.0029 13.1662 13.7021C12.8888 13.5549 12.6561 13.3799 12.422 13.1719C12.3849 13.1415 12.3477 13.1112 12.3094 13.0799C12.0613 12.8498 11.9625 12.6529 11.9494 12.3158C11.9467 12.1602 11.9492 12.0051 11.9523 11.8496C11.9524 11.7636 11.9523 11.6776 11.9521 11.5917C11.952 11.3594 11.9544 11.1273 11.9574 10.895C11.96 10.6519 11.9603 10.4088 11.9608 10.1657C11.9621 9.70584 11.9655 9.24603 11.9698 8.78619C11.9745 8.26246 11.9768 7.73873 11.9789 7.21499C11.9833 6.1381 11.9907 5.06124 12.0002 3.98438Z" fill="#D22F2F"/>
<path d="M12.9375 4.92188C13.0976 4.99292 13.2174 5.08704 13.3506 5.2002C14.8002 6.40018 16.5011 7.3088 18.1841 8.13216C18.3212 8.19973 18.4579 8.26821 18.5945 8.33691C19.0011 8.54124 19.4105 8.73886 19.8223 8.93262C19.8556 8.94838 19.889 8.96415 19.9234 8.98039C20.3202 9.16772 20.7187 9.35029 21.1214 9.52478C21.1579 9.54062 21.1943 9.55646 21.2319 9.57278C21.4073 9.64891 21.583 9.72434 21.7592 9.79872C21.8229 9.8261 21.8865 9.8535 21.9501 9.88092C22.0055 9.90438 22.0609 9.92783 22.118 9.952C22.2811 10.0396 22.3848 10.1206 22.5 10.2656C22.5296 10.398 22.5296 10.398 22.5295 10.5423C22.5297 10.5953 22.5299 10.6483 22.5302 10.703C22.5289 10.7588 22.5277 10.8146 22.5264 10.8721C22.5256 10.9291 22.5248 10.9862 22.524 11.045C22.5012 11.9278 22.1848 12.6471 21.5544 13.2729C21.3271 13.4713 21.086 13.6064 20.8125 13.7285C20.7825 13.7419 20.7525 13.7554 20.7216 13.7692C20.0904 14.0339 19.2293 14.0989 18.5742 13.8926C18.4911 13.858 18.4089 13.821 18.3281 13.7812C18.2853 13.7614 18.2424 13.7415 18.1983 13.721C17.7643 13.5031 17.3451 13.1965 17.0625 12.7969C17.0625 12.7659 17.0625 12.735 17.0625 12.7031C17.0316 12.6877 17.0006 12.6722 16.9688 12.6562C16.9947 12.6075 17.0207 12.5588 17.0475 12.5087C17.0818 12.4426 17.1161 12.3766 17.1504 12.3105C17.1675 12.2787 17.1846 12.2469 17.2022 12.2141C17.4258 11.7792 17.4553 11.3433 17.458 10.8604C17.4603 10.786 17.4603 10.786 17.4627 10.7101C17.467 10.4173 17.467 10.4173 17.3278 10.1669C17.2404 10.1047 17.1518 10.0439 17.0625 9.98438C17.078 9.96891 17.0934 9.95344 17.1094 9.9375C17.0769 9.91013 17.0769 9.91013 17.0438 9.8822C16.644 9.53924 16.2786 9.16671 15.9375 8.76562C15.8963 8.71799 15.855 8.67038 15.8137 8.6228C15.2979 8.02693 14.8039 7.41366 14.3194 6.79211C14.2436 6.69498 14.1677 6.59798 14.0918 6.50098C13.8178 6.15037 13.5455 5.79847 13.2773 5.44336C13.2538 5.41243 13.2303 5.3815 13.2061 5.34963C13.1027 5.2119 13.0063 5.08103 12.9375 4.92188Z" fill="#B0BDC4"/>
<path d="M10.9688 4.92188C11.0152 4.94508 11.0152 4.94508 11.0625 4.96875C8.87131 7.84805 8.87131 7.84805 7.87704 8.94086C7.7898 9.03744 7.70479 9.13552 7.62015 9.23438C7.41999 9.4646 7.20178 9.67682 6.98441 9.89062C6.95347 9.92156 6.92253 9.9525 6.89066 9.98438C6.83265 10.0293 6.83265 10.0293 6.77347 10.0752C6.6465 10.1799 6.56919 10.2531 6.5504 10.4207C6.55029 10.4625 6.55019 10.5042 6.55008 10.5472C6.54996 10.5935 6.54984 10.6398 6.54971 10.6875C6.55026 10.76 6.55026 10.76 6.55081 10.834C6.55045 10.8812 6.55009 10.9285 6.54971 10.9772C6.55073 11.3694 6.61152 11.7139 6.7471 12.082C6.76203 12.1234 6.77695 12.1647 6.79233 12.2073C6.84084 12.3317 6.84084 12.3317 6.92307 12.446C6.98441 12.5625 6.98441 12.5625 6.97964 12.6817C6.81143 13.1417 6.27789 13.4863 5.85538 13.6884C5.1688 14.001 4.31465 14.1306 3.57718 13.8955C3.49307 13.8599 3.41005 13.8217 3.32816 13.7812C3.27347 13.7568 3.21879 13.7324 3.16245 13.7073C2.46921 13.3897 2.00203 12.8922 1.69083 12.1902C1.53585 11.7474 1.47556 11.351 1.47659 10.8809C1.4746 10.7967 1.4746 10.7967 1.47256 10.7109C1.47244 10.6569 1.47232 10.6029 1.4722 10.5472C1.47187 10.4987 1.47153 10.4502 1.47119 10.4002C1.51082 10.2153 1.58908 10.1495 1.73441 10.0312C1.86795 9.95689 1.86795 9.95689 2.01511 9.89319C2.06988 9.86911 2.12465 9.84504 2.18108 9.82023C2.20996 9.80784 2.23884 9.79545 2.26859 9.78269C2.36029 9.74334 2.45167 9.70336 2.54301 9.6632C2.66761 9.60843 2.79229 9.55386 2.91704 9.49944C3.16379 9.39149 3.4087 9.27961 3.65335 9.16699C3.69788 9.1465 3.74242 9.12602 3.7883 9.10491C3.88142 9.06201 3.97451 9.01905 4.06758 8.97606C4.17493 8.9265 4.28232 8.87702 4.38976 8.82765C5.07166 8.51414 5.74836 8.19617 6.40861 7.83863C6.52316 7.77723 6.6384 7.7173 6.75388 7.65765C8.13379 6.94473 9.50048 6.16607 10.6875 5.15625C10.7451 5.10835 10.8027 5.06049 10.8604 5.0127C10.914 4.96774 10.914 4.96774 10.9688 4.92188Z" fill="#D32F2F"/>
<path d="M6.89065 9.89062C6.92158 9.90609 6.95252 9.92156 6.9844 9.9375C7.0515 9.94235 7.11881 9.94437 7.18608 9.94492C7.22841 9.94538 7.27074 9.94583 7.31436 9.94631C7.36092 9.94658 7.40748 9.94685 7.45546 9.94712C7.52886 9.94782 7.52886 9.94782 7.60374 9.94853C7.76607 9.95002 7.92839 9.95117 8.09072 9.95233C8.20304 9.9533 8.31535 9.95428 8.42767 9.95528C8.72374 9.95787 9.01981 9.96019 9.31589 9.96245C9.61783 9.9648 9.91976 9.96741 10.2217 9.97C10.8145 9.97505 11.4072 9.97981 12 9.98438C12.0121 10.3291 12.0212 10.6738 12.0267 11.0187C12.0294 11.1789 12.033 11.339 12.0389 11.4991C12.0812 12.6776 12.0812 12.6776 11.8226 12.9916C11.7176 13.0956 11.6059 13.1819 11.4844 13.2656C11.4208 13.3191 11.3572 13.3728 11.294 13.4268C10.5655 13.9333 9.7767 14.044 8.90627 13.9688C8.67326 13.9256 8.4625 13.8379 8.25002 13.7344C8.21141 13.7164 8.1728 13.6984 8.13302 13.6798C7.72013 13.4694 7.35792 13.165 7.07815 12.7969C7.07815 12.7659 7.07815 12.735 7.07815 12.7031C7.04721 12.7031 7.01627 12.7031 6.9844 12.7031C6.93147 12.5919 6.87877 12.4805 6.82619 12.3691C6.81133 12.338 6.79646 12.3068 6.78115 12.2747C6.55807 11.8006 6.50595 11.3659 6.501 10.8457C6.49964 10.7977 6.49828 10.7497 6.49688 10.7003C6.4939 10.348 6.4939 10.348 6.60372 10.1688C6.63653 10.1389 6.66934 10.1089 6.70315 10.0781C6.73795 10.0424 6.77276 10.0066 6.80861 9.96973C6.83569 9.94362 6.86276 9.91752 6.89065 9.89062Z" fill="#B0BEC4"/>
<path d="M12 3.98438C12.3167 4.03716 12.3167 4.03716 12.4658 4.23926C12.4977 4.28186 12.5296 4.32446 12.5625 4.36835C12.6756 4.52714 12.7882 4.68616 12.8989 4.84662C13.0618 5.07938 13.2343 5.30507 13.4062 5.53125C13.4286 5.56068 13.451 5.59012 13.474 5.62045C13.6539 5.85687 13.8345 6.09264 14.0156 6.32812C14.0423 6.36285 14.069 6.39758 14.0965 6.43336C14.474 6.92415 14.8608 7.406 15.2566 7.88219C15.3548 8.00098 15.4512 8.12117 15.5479 8.24121C15.7384 8.47466 15.9406 8.69576 16.1455 8.9165C16.2444 9.02381 16.3406 9.13241 16.4355 9.24316C16.6182 9.45402 16.8168 9.64835 17.0156 9.84375C17.0626 9.89057 17.1094 9.93743 17.1562 9.98438C17.0462 10.0394 16.9817 10.037 16.859 10.0369C16.7951 10.037 16.7951 10.037 16.7298 10.0371C16.6827 10.0369 16.6357 10.0367 16.5871 10.0366C16.5369 10.0366 16.4868 10.0366 16.435 10.0366C16.272 10.0366 16.109 10.0362 15.9459 10.0358C15.8455 10.0358 15.7451 10.0357 15.6446 10.0357C15.2716 10.0354 14.8985 10.0348 14.5254 10.0342C13.692 10.0332 12.8586 10.0322 12 10.0312C12 8.03578 12 6.04031 12 3.98438Z" fill="#F34336"/>
<path d="M12.9375 4.92188C13.0976 4.99292 13.2174 5.08704 13.3506 5.2002C14.8002 6.40018 16.5011 7.30881 18.1841 8.13217C18.3212 8.19969 18.4577 8.26811 18.5942 8.33677C19.0029 8.54212 19.4143 8.74089 19.8281 8.93555C19.8783 8.95919 19.8783 8.95919 19.9295 8.98331C20.6704 9.33205 21.4197 9.66088 22.1719 9.98438C22.0427 10.0274 21.9656 10.0373 21.8324 10.0379C21.7919 10.0382 21.7513 10.0385 21.7096 10.0388C21.6652 10.0388 21.6209 10.0389 21.5752 10.039C21.5284 10.0392 21.4816 10.0394 21.4333 10.0397C21.0013 10.0413 20.5692 10.0403 20.1371 10.0386C19.847 10.0375 19.5569 10.0371 19.2667 10.0388C18.986 10.0404 18.7053 10.0399 18.4246 10.038C18.3179 10.0377 18.2111 10.038 18.1043 10.0391C17.164 10.0477 17.164 10.0477 16.8664 9.78349C16.8048 9.71147 16.7451 9.6378 16.6875 9.5625C16.6151 9.49035 16.5419 9.41895 16.4678 9.34863C16.2826 9.16089 16.1085 8.96622 15.9375 8.76562C15.8962 8.71793 15.8549 8.67027 15.8135 8.62262C15.2978 8.02677 14.8038 7.41359 14.3194 6.79211C14.2436 6.69498 14.1677 6.59798 14.0918 6.50098C13.8178 6.15037 13.5455 5.79847 13.2773 5.44336C13.2538 5.41243 13.2303 5.3815 13.2061 5.34963C13.1027 5.2119 13.0063 5.08103 12.9375 4.92188Z" fill="#CFD7DB"/>
<path d="M10.9688 4.92188C11.0152 4.94508 11.0152 4.94508 11.0625 4.96875C8.87128 7.84805 8.87128 7.84805 7.87701 8.94086C7.78977 9.03744 7.70476 9.13552 7.62012 9.23438C6.98122 9.96754 6.98122 9.96754 6.74958 9.99591C6.71341 9.99582 6.67725 9.99574 6.63999 9.99565C6.57758 9.99584 6.57758 9.99584 6.5139 9.99604C6.46839 9.9957 6.42287 9.99537 6.37597 9.99502C6.30393 9.99504 6.30393 9.99504 6.23044 9.99506C6.07141 9.99499 5.91239 9.99426 5.75336 9.99353C5.64321 9.99336 5.53306 9.99322 5.42291 9.99313C5.13277 9.99277 4.84264 9.99185 4.5525 9.99081C4.25653 9.98985 3.96055 9.98943 3.66458 9.98895C3.08368 9.98795 2.50278 9.98635 1.92188 9.98438C2.02151 9.88474 2.0924 9.85147 2.22107 9.79706C2.26358 9.77889 2.30609 9.76071 2.3499 9.74199C2.39621 9.7224 2.44252 9.7028 2.49023 9.68262C3.01839 9.45599 3.54157 9.21994 4.06302 8.97832C4.17227 8.92776 4.28158 8.87732 4.39096 8.82703C5.07245 8.51371 5.74873 8.19596 6.40858 7.83863C6.52313 7.77723 6.63837 7.7173 6.75385 7.65765C8.13376 6.94473 9.50045 6.16607 10.6875 5.15625C10.7451 5.10835 10.8027 5.06049 10.8604 5.0127C10.914 4.96774 10.914 4.96774 10.9688 4.92188Z" fill="#F34336"/>
<path d="M12.7304 0.144156C12.7923 0.165129 12.8542 0.186137 12.9162 0.207177C12.981 0.228728 13.0459 0.250236 13.1107 0.271702C13.246 0.316611 13.381 0.362011 13.5159 0.40778C13.6881 0.466168 13.8607 0.523347 14.0335 0.58017C14.1672 0.624304 14.3007 0.66905 14.4342 0.713981C14.4978 0.735297 14.5614 0.756432 14.6251 0.777376C15.2439 0.981662 15.2439 0.981662 15.4686 1.21883C15.5405 1.36247 15.5263 1.48211 15.5155 1.64071C15.4171 1.85731 15.2885 1.97365 15.0697 2.06465C15.0035 2.08667 15.0035 2.08667 14.936 2.10913C14.8858 2.12601 14.8356 2.14289 14.7838 2.16028C14.7029 2.18688 14.7029 2.18688 14.6203 2.21401C14.5647 2.23254 14.5091 2.25107 14.4519 2.27016C14.3345 2.30921 14.217 2.34812 14.0995 2.38681C13.9489 2.43639 13.7985 2.48647 13.6481 2.53671C13.5045 2.58464 13.3607 2.63223 13.217 2.67983C13.1629 2.69785 13.1089 2.71586 13.0532 2.73442C12.9781 2.75908 12.9781 2.75908 12.9015 2.78424C12.8574 2.7988 12.8133 2.81337 12.7679 2.82837C12.6561 2.85946 12.6561 2.85946 12.5155 2.85946C12.5155 3.33899 12.5155 3.81852 12.5155 4.31258C12.4072 4.21977 12.299 4.12696 12.1874 4.03133C12.0227 3.99955 11.9244 3.99055 11.7794 4.08132C11.6741 4.167 11.5802 4.26351 11.4843 4.35946C11.4799 3.83871 11.4766 3.31797 11.4746 2.7972C11.4736 2.55538 11.4722 2.31358 11.4701 2.07176C11.4681 1.83834 11.467 1.60493 11.4665 1.3715C11.4661 1.28251 11.4655 1.19351 11.4644 1.10452C11.4631 0.979728 11.4629 0.854989 11.463 0.730194C11.4623 0.69351 11.4616 0.656826 11.4609 0.619031C11.4628 0.376738 11.512 0.239466 11.6718 0.0469593C12 -0.117174 12.4075 0.0389683 12.7304 0.144156Z" fill="#009587"/>
</g>
<defs>
<clipPath id="clip0_701_328">
<rect width="24" height="24" fill="white"/>
</clipPath>
</defs>
</svg>
