<svg width="18" height="18" viewBox="0 0 18 18" fill="none" xmlns="http://www.w3.org/2000/svg">
<g clip-path="url(#clip0_263_2537)">
<path d="M16.907 0.616369C17.0076 0.711464 17.1053 0.808722 17.2024 0.907412C17.2353 0.939792 17.2682 0.972172 17.3022 1.00553C17.7608 1.46672 18.0149 1.95394 18.0198 2.6059C18.0113 3.19862 17.811 3.66881 17.4053 4.09669C17.3841 4.11922 17.3629 4.14175 17.341 4.16497C17.0398 4.48279 16.7296 4.7918 16.4201 5.10156C16.327 5.19488 16.2339 5.28831 16.1408 5.38171C15.9172 5.60598 15.6935 5.83008 15.4697 6.05415C15.3852 6.13874 15.3008 6.22333 15.2163 6.30792C14.8435 6.68146 14.4705 7.05496 14.0974 7.42831C14.0066 7.51919 13.9158 7.61008 13.825 7.70097C13.8024 7.72356 13.7798 7.74614 13.7566 7.76941C13.3899 8.13642 13.0234 8.50373 12.6572 8.87116C12.2802 9.24933 11.9029 9.62723 11.5254 10.0049C11.3138 10.2165 11.1023 10.4283 10.8911 10.6404C10.7116 10.8207 10.5318 11.0007 10.3518 11.1805C10.26 11.2721 10.1683 11.3638 10.0769 11.4559C9.97784 11.5557 9.8782 11.655 9.7785 11.7542C9.74983 11.7833 9.72117 11.8123 9.69163 11.8422C9.44165 12.0894 9.20036 12.2021 8.86512 12.293C8.82054 12.3055 8.82054 12.3055 8.77507 12.3182C8.6775 12.3454 8.57982 12.3722 8.48213 12.399C8.41336 12.418 8.34459 12.4371 8.27583 12.4562C8.1317 12.4962 7.98751 12.536 7.84329 12.5756C7.66058 12.6258 7.47798 12.6764 7.29541 12.7271C7.15322 12.7666 7.01098 12.8059 6.86873 12.8452C6.80153 12.8638 6.73434 12.8824 6.66715 12.901C6.48027 12.9528 6.29318 13.0035 6.10569 13.053C6.04099 13.0703 5.97637 13.0878 5.91183 13.1057C5.81242 13.133 5.71277 13.1593 5.61301 13.1853C5.56809 13.1981 5.56809 13.1981 5.52226 13.211C5.30887 13.265 5.18951 13.2486 4.99219 13.1484C4.88661 13.0239 4.83592 12.9225 4.81641 12.7617C4.83196 12.6645 4.83196 12.6645 4.86059 12.5567C4.87135 12.5155 4.8821 12.4744 4.89318 12.432C4.90548 12.3865 4.91779 12.3411 4.93011 12.2957C4.94289 12.2476 4.95564 12.1994 4.96837 12.1513C5.01085 11.9913 5.05423 11.8316 5.09766 11.6718C5.11306 11.615 5.12846 11.5581 5.14386 11.5013C5.24186 11.14 5.34135 10.7791 5.4416 10.4184C5.4852 10.2615 5.52843 10.1045 5.57159 9.94747C5.60541 9.82463 5.6395 9.70186 5.67366 9.57912C5.68973 9.52119 5.70571 9.46323 5.72158 9.40525C5.74365 9.32477 5.76608 9.24441 5.78859 9.16406C5.79802 9.12919 5.79802 9.12919 5.80764 9.09361C5.90764 8.74122 6.07271 8.53176 6.32876 8.27856C6.37738 8.22965 6.37738 8.22965 6.42698 8.17976C6.51652 8.08969 6.60649 8.00007 6.69655 7.91052C6.79377 7.81369 6.89059 7.71646 6.98745 7.61928C7.17716 7.42908 7.36723 7.23927 7.55745 7.04959C7.7792 6.82842 8.0006 6.60691 8.22199 6.38539C8.61729 5.98988 9.01294 5.59473 9.40878 5.19976C9.79231 4.81707 10.1755 4.43409 10.5585 4.0508C10.9758 3.63302 11.3934 3.21542 11.8112 2.79809C11.8558 2.75351 11.9005 2.70893 11.9451 2.66435C11.9671 2.64242 11.989 2.62049 12.0116 2.59789C12.1658 2.44387 12.3199 2.28974 12.4739 2.13556C12.662 1.94736 12.8502 1.75936 13.0386 1.5716C13.1347 1.47592 13.2306 1.38017 13.3263 1.28418C13.4304 1.17979 13.5349 1.07582 13.6394 0.97188C13.6692 0.941942 13.6989 0.912004 13.7295 0.881159C14.6497 -0.0294418 15.8695 -0.28681 16.907 0.616369ZM14.3789 1.58197C14.3514 1.60948 14.3238 1.63699 14.2954 1.66533C14.2766 1.68423 14.2577 1.70313 14.2383 1.7226C14.2946 1.86235 14.392 1.95604 14.4973 2.05991C14.5261 2.08875 14.5261 2.08875 14.5555 2.11816C14.6189 2.18148 14.6825 2.24455 14.7461 2.30762C14.7902 2.35154 14.8342 2.39548 14.8782 2.43944C14.994 2.55495 15.11 2.67026 15.2261 2.78552C15.3445 2.90322 15.4627 3.02112 15.5809 3.13901C15.8129 3.37019 16.045 3.60115 16.2773 3.83197C16.626 3.66802 16.9107 3.29408 17.0464 2.93769C17.1262 2.66209 17.1072 2.40521 17.0008 2.13925C16.9001 1.95735 16.7577 1.81521 16.6114 1.66985C16.5591 1.61761 16.5081 1.56436 16.4572 1.5107C16.1624 1.20254 15.9019 0.992874 15.4622 0.968936C14.987 0.98255 14.6944 1.26342 14.3789 1.58197ZM13.4891 2.46743C13.4693 2.48718 13.4496 2.50694 13.4293 2.5273C13.4065 2.54995 13.3838 2.57261 13.3604 2.59595C13.3352 2.62126 13.31 2.64656 13.284 2.67264C13.2574 2.6992 13.2308 2.72575 13.2034 2.75312C13.1136 2.84292 13.0239 2.93284 12.9341 3.02276C12.8701 3.08685 12.806 3.15092 12.7419 3.21499C12.6035 3.35334 12.4652 3.49176 12.3269 3.63022C12.127 3.83041 11.927 4.03051 11.727 4.23058C11.4025 4.55515 11.0781 4.87979 10.7537 5.20449C10.4386 5.51999 10.1233 5.83545 9.80809 6.15086C9.78867 6.17029 9.76925 6.18971 9.74925 6.20973C9.65184 6.30719 9.55442 6.40464 9.45701 6.5021C8.64831 7.31116 7.83974 8.12035 7.03125 8.92963C7.06437 8.96859 7.09753 9.0075 7.13071 9.04641C7.14918 9.06808 7.16764 9.08976 7.18666 9.11209C7.26643 9.2035 7.35131 9.28904 7.43718 9.3747C7.45538 9.39291 7.47359 9.41112 7.49234 9.42988C7.5516 9.48912 7.61099 9.54824 7.67038 9.60735C7.71186 9.64876 7.75333 9.69019 7.7948 9.73162C7.90326 9.83995 8.01183 9.94817 8.12042 10.0564C8.23149 10.1671 8.34245 10.2779 8.45343 10.3887C8.67068 10.6056 8.88804 10.8223 9.10547 11.039C9.28565 10.8882 9.45432 10.7302 9.62006 10.5638C9.64597 10.5379 9.67188 10.512 9.69857 10.4854C9.78486 10.3991 9.87102 10.3128 9.95718 10.2264C10.0192 10.1644 10.0812 10.1024 10.1433 10.0404C10.2766 9.90707 10.4098 9.77372 10.543 9.64033C10.7356 9.44747 10.9283 9.25471 11.121 9.06197C11.4336 8.74922 11.7462 8.43639 12.0588 8.12351C12.3623 7.81968 12.6658 7.51589 12.9694 7.21216C12.9881 7.19342 13.0069 7.17467 13.0262 7.15536C13.1201 7.06134 13.2141 6.96731 13.3081 6.87328C14.087 6.094 14.8658 5.31459 15.6445 4.5351C15.6114 4.49614 15.5782 4.45722 15.5451 4.41832C15.5266 4.39665 15.5081 4.37497 15.4891 4.35263C15.4094 4.26132 15.3248 4.17572 15.2392 4.09002C15.221 4.07181 15.2029 4.0536 15.1842 4.03484C15.1251 3.9756 15.0659 3.91648 15.0066 3.85738C14.9652 3.81596 14.9239 3.77454 14.8825 3.73311C14.7962 3.6468 14.7099 3.56056 14.6235 3.47436C14.5126 3.36363 14.4018 3.25274 14.2911 3.1418C14.2059 3.05648 14.1206 2.97124 14.0353 2.88603C13.9944 2.84513 13.9535 2.80422 13.9127 2.76327C13.8559 2.70638 13.7989 2.64961 13.742 2.59286C13.6934 2.54432 13.6934 2.54432 13.6439 2.4948C13.5648 2.40878 13.5648 2.40878 13.4891 2.46743ZM6.57422 9.84369C6.49619 10.1266 6.41826 10.4096 6.34044 10.6926C6.30431 10.824 6.26815 10.9554 6.23191 11.0868C6.19695 11.2135 6.16209 11.3403 6.12728 11.467C6.11397 11.5155 6.10062 11.5639 6.08725 11.6123C6.06856 11.6799 6.04999 11.7476 6.03143 11.8153C6.02081 11.8539 6.01019 11.8924 5.99925 11.9322C5.97373 12.0191 5.97373 12.0191 5.97656 12.0937C6.46301 11.9857 6.94118 11.8527 7.42017 11.7158C7.49535 11.6944 7.57054 11.673 7.64573 11.6516C7.82766 11.5999 8.00955 11.548 8.19141 11.496C8.13887 11.3736 8.06886 11.2945 7.9749 11.2007C7.94475 11.1704 7.9146 11.1402 7.88354 11.109C7.85095 11.0767 7.81836 11.0443 7.78477 11.011C7.75105 10.9773 7.71734 10.9436 7.68365 10.9099C7.61316 10.8395 7.54255 10.7692 7.47184 10.6989C7.38102 10.6087 7.29044 10.5183 7.19993 10.4277C7.13042 10.3582 7.06083 10.2888 6.9912 10.2194C6.94145 10.1699 6.89174 10.1202 6.84204 10.0706C6.812 10.0408 6.78197 10.0109 6.75102 9.98023C6.71117 9.94058 6.71117 9.94058 6.67052 9.90014C6.61894 9.83972 6.61894 9.83972 6.57422 9.84369Z" fill="white"/>
<path d="M2.41695 1.77888C2.45914 1.77864 2.50134 1.77839 2.5448 1.77815C2.65898 1.77762 2.77314 1.77756 2.88732 1.77776C2.98308 1.77787 3.07884 1.77765 3.1746 1.77744C3.4005 1.77695 3.62639 1.777 3.85228 1.7774C4.08468 1.77781 4.31707 1.77731 4.54947 1.77637C4.74991 1.77559 4.95035 1.77536 5.15079 1.77556C5.27012 1.77568 5.38945 1.7756 5.50878 1.77499C5.64164 1.77447 5.77446 1.77484 5.90731 1.77544C5.94647 1.7751 5.98563 1.77476 6.02598 1.77441C6.25182 1.77656 6.39058 1.7991 6.57427 1.93371C6.68852 2.06271 6.69611 2.18421 6.68976 2.35036C6.67557 2.4573 6.64413 2.51976 6.57427 2.60168C6.41278 2.71762 6.27677 2.74669 6.08096 2.74668C6.04529 2.74677 6.00961 2.74686 5.97286 2.74695C5.93392 2.74688 5.89498 2.74681 5.85487 2.74673C5.81369 2.7468 5.77251 2.74686 5.73009 2.74693C5.64058 2.74707 5.55108 2.74714 5.46157 2.74716C5.31967 2.7472 5.17777 2.74765 5.03587 2.7482C5.01188 2.74829 4.98789 2.74838 4.96317 2.74847C4.9141 2.74865 4.86503 2.74884 4.81596 2.74903C4.48577 2.75026 4.15558 2.7512 3.82538 2.75111C3.60247 2.75105 3.37958 2.75162 3.15667 2.75289C3.03891 2.75354 2.92118 2.75377 2.80342 2.75344C2.67166 2.7531 2.53994 2.75385 2.40818 2.75483C2.36981 2.75447 2.33144 2.75412 2.29191 2.75375C1.93013 2.75857 1.65187 2.86839 1.37114 3.09386C1.34794 3.09386 1.32473 3.09386 1.30083 3.09386C1.29099 3.11448 1.28116 3.1351 1.27103 3.15635C1.23338 3.22896 1.19134 3.29263 1.14482 3.35973C0.944251 3.68293 0.933903 4.03006 0.935636 4.40101C0.935489 4.45047 0.935297 4.49992 0.935063 4.54938C0.934557 4.68431 0.934703 4.81924 0.934963 4.95417C0.93513 5.10007 0.934689 5.24597 0.93433 5.39187C0.933726 5.67732 0.933696 5.96278 0.93388 6.24823C0.934022 6.48035 0.933971 6.71246 0.933783 6.94458C0.933744 6.99421 0.933744 6.99421 0.933704 7.04485C0.93365 7.11207 0.933596 7.1793 0.933541 7.24652C0.933059 7.87638 0.93325 8.50623 0.933653 9.13609C0.934002 9.71172 0.933548 10.2873 0.932707 10.863C0.931848 11.4547 0.931511 12.0465 0.931745 12.6382C0.931868 12.9702 0.93179 13.3021 0.931174 13.6341C0.930655 13.9166 0.930635 14.1992 0.931246 14.4818C0.931545 14.6258 0.931623 14.7698 0.931083 14.9139C0.930594 15.046 0.930766 15.1781 0.931443 15.3102C0.931636 15.3801 0.931146 15.4499 0.930622 15.5198C0.933592 15.885 0.989503 16.2695 1.23052 16.5587C1.25526 16.5888 1.25526 16.5888 1.2805 16.6195C1.46904 16.8301 1.70455 16.9277 1.9688 17.0157C2.04103 17.0191 2.11337 17.0203 2.18569 17.0204C2.23138 17.0205 2.27707 17.0206 2.32415 17.0208C2.37516 17.0207 2.42617 17.0207 2.47718 17.0207C2.53114 17.0208 2.58509 17.0209 2.63905 17.021C2.78771 17.0213 2.93637 17.0213 3.08504 17.0214C3.24522 17.0214 3.40541 17.0217 3.56559 17.0219C3.91607 17.0224 4.26655 17.0226 4.61702 17.0228C4.83582 17.0229 5.05462 17.023 5.27342 17.0232C5.87906 17.0236 6.4847 17.024 7.09034 17.0241C7.14851 17.0241 7.14851 17.0241 7.20786 17.0241C7.26617 17.0241 7.26617 17.0241 7.32565 17.0241C7.40443 17.0242 7.4832 17.0242 7.56197 17.0242C7.62058 17.0242 7.62058 17.0242 7.68038 17.0242C8.31341 17.0243 8.94644 17.025 9.57947 17.0258C10.2292 17.0266 10.879 17.0271 11.5287 17.0271C11.8936 17.0271 12.2584 17.0273 12.6233 17.028C12.9341 17.0285 13.2448 17.0287 13.5555 17.0284C13.7141 17.0283 13.8726 17.0283 14.0311 17.0288C14.1764 17.0292 14.3216 17.0292 14.4668 17.0288C14.5192 17.0287 14.5717 17.0288 14.6241 17.0291C15.1054 17.0317 15.4202 16.9533 15.7852 16.629C16.0605 16.3136 16.1174 15.9741 16.1151 15.5667C16.1153 15.5248 16.1155 15.4829 16.1157 15.4398C16.1161 15.3258 16.1161 15.2118 16.1159 15.0979C16.1159 14.9782 16.1165 14.8585 16.117 14.7388C16.1185 14.4092 16.1189 14.0796 16.1193 13.75C16.1196 13.4475 16.1202 13.1449 16.1217 12.8423C16.1222 12.7234 16.1225 12.6044 16.1223 12.4854C16.1222 12.3529 16.1226 12.2204 16.1232 12.0879C16.1229 12.0291 16.1229 12.0291 16.1226 11.9691C16.1241 11.7741 16.1288 11.6278 16.2422 11.4611C16.3621 11.3529 16.4409 11.2898 16.6026 11.2743C16.7966 11.2905 16.8936 11.3676 17.0207 11.5108C17.1256 11.6749 17.1053 11.8617 17.1036 12.0499C17.1039 12.112 17.1039 12.112 17.1042 12.1754C17.1046 12.2887 17.1043 12.4019 17.1037 12.5152C17.1032 12.6343 17.1035 12.7534 17.1036 12.8725C17.1037 13.0727 17.1032 13.273 17.1024 13.4732C17.1015 13.7035 17.1014 13.9339 17.1018 14.1642C17.1022 14.3868 17.102 14.6095 17.1015 14.8321C17.1013 14.9263 17.1013 15.0204 17.1014 15.1146C17.102 15.8816 17.0647 16.5192 16.5938 17.1564C16.5784 17.1776 16.563 17.1989 16.5471 17.2208C16.1891 17.6765 15.6371 17.9021 15.0821 18.0001C14.8949 18.0178 14.709 18.0191 14.5213 18.0177C14.4672 18.0179 14.4131 18.0181 14.359 18.0183C14.2121 18.0188 14.0652 18.0185 13.9183 18.018C13.7593 18.0176 13.6002 18.018 13.4411 18.0183C13.1302 18.0188 12.8192 18.0186 12.5083 18.018C12.1457 18.0174 11.7831 18.0175 11.4206 18.0177C10.7734 18.0179 10.1263 18.0174 9.4791 18.0165C8.85199 18.0157 8.22488 18.0154 7.59776 18.0158C6.91378 18.0162 6.22981 18.0163 5.54583 18.0158C5.47283 18.0157 5.39982 18.0156 5.32682 18.0156C5.27294 18.0156 5.27294 18.0156 5.21798 18.0155C4.96559 18.0153 4.7132 18.0154 4.46081 18.0156C4.15305 18.0157 3.84529 18.0155 3.53753 18.0148C3.38068 18.0145 3.22383 18.0143 3.06698 18.0146C2.92312 18.0148 2.77926 18.0146 2.6354 18.014C2.58365 18.0138 2.53189 18.0139 2.48013 18.0141C2.04396 18.0159 1.6126 17.9745 1.22173 17.7672C1.19825 17.7551 1.17478 17.743 1.1506 17.7305C0.937364 17.6156 0.764998 17.4721 0.597703 17.297C0.575497 17.2755 0.553291 17.2539 0.530412 17.2318C0.104256 16.7915 -0.0163504 16.2108 -0.0135825 15.6198C-0.0137294 15.5684 -0.0139221 15.5169 -0.0141562 15.4654C-0.0146619 15.325 -0.0145158 15.1845 -0.0142557 15.044C-0.0140888 14.8922 -0.0145297 14.7403 -0.0148892 14.5884C-0.0154927 14.2913 -0.0155232 13.9941 -0.0153388 13.6969C-0.0151965 13.4553 -0.0152476 13.2136 -0.0154353 12.972C-0.0154616 12.9375 -0.0154881 12.9031 -0.0155153 12.8676C-0.0155691 12.7976 -0.0156229 12.7276 -0.0156773 12.6576C-0.0161595 12.0019 -0.015969 11.3462 -0.0155654 10.6904C-0.0152163 10.0912 -0.015671 9.49192 -0.0165122 8.89267C-0.0173705 8.27664 -0.0177075 7.66062 -0.0174738 7.0446C-0.0173512 6.69904 -0.0174284 6.35348 -0.0180451 6.00791C-0.0185636 5.71372 -0.0185836 5.41953 -0.0179722 5.12534C-0.0176737 4.97539 -0.0175958 4.82546 -0.0181358 4.67551C-0.018625 4.53795 -0.0184521 4.4004 -0.0177758 4.26284C-0.0176444 4.21338 -0.0177443 4.16391 -0.0181138 4.11444C-0.0226911 3.4541 0.18007 2.92286 0.640413 2.45144C1.13843 1.96389 1.72696 1.77606 2.41695 1.77888Z" fill="white"/>
</g>
<defs>
<clipPath id="clip0_263_2537">
<rect width="18" height="18" fill="white"/>
</clipPath>
</defs>
</svg>
