<svg width="32" height="32" viewBox="0 0 32 32" fill="none" xmlns="http://www.w3.org/2000/svg">
<g clip-path="url(#clip0_701_819)">
<path d="M15.9922 -0.0244625C16.0427 -0.0255744 16.0932 -0.0266864 16.1452 -0.027832C16.877 -0.027319 17.4899 0.257005 18.1093 0.577277C18.1767 0.611465 18.244 0.645653 18.3133 0.680877C18.5219 0.787078 18.7297 0.894191 18.9375 1.00162C19.0007 1.03427 19.064 1.06693 19.1292 1.10056C19.4389 1.26054 19.748 1.42126 20.0569 1.58249C20.4509 1.78811 20.8464 1.99159 21.2422 2.19467C21.3096 2.22927 21.377 2.26388 21.4465 2.29953C21.6518 2.40489 21.8571 2.51022 22.0625 2.61554C22.8527 3.02079 23.6425 3.42642 24.4297 3.83641C24.972 4.11886 25.5166 4.39766 26.0625 4.67467C26.6694 4.98264 27.2743 5.29342 27.8771 5.60773C28.2066 5.77945 28.5367 5.95021 28.8679 6.11945C28.9041 6.13797 28.9403 6.15649 28.9776 6.17557C29.1518 6.26469 29.3261 6.35367 29.5006 6.4424C30.6261 7.01772 31.5895 7.53695 31.9492 8.71389C32.0741 9.24004 32.0345 9.7938 32.0323 10.3285C32.0327 10.466 32.0331 10.6036 32.0336 10.7412C32.0347 11.0744 32.0345 11.4077 32.0338 11.7409C32.0332 12.012 32.0331 12.2831 32.0334 12.5542C32.0335 12.5929 32.0335 12.6317 32.0335 12.6716C32.0336 12.7503 32.0337 12.8291 32.0338 12.9078C32.0345 13.6443 32.0337 14.3807 32.0323 15.1171C32.0312 15.7475 32.0314 16.3779 32.0326 17.0083C32.0339 17.7423 32.0344 18.4763 32.0337 19.2103C32.0336 19.2887 32.0335 19.3671 32.0334 19.4456C32.0334 19.4842 32.0333 19.5227 32.0333 19.5625C32.0331 19.8329 32.0335 20.1033 32.034 20.3738C32.0348 20.7385 32.0343 21.1032 32.0328 21.4679C32.0325 21.6013 32.0326 21.7347 32.0331 21.868C32.0369 22.8645 32.0057 23.796 31.1763 24.556C30.8088 24.8546 30.434 25.0858 30 25.3008C29.9353 25.3335 29.8707 25.3663 29.8041 25.4001C29.6677 25.4693 29.5312 25.5382 29.3944 25.6069C29.1235 25.7434 28.8541 25.8822 28.5847 26.0211C28.381 26.126 28.1771 26.2307 27.9731 26.3353C27.5653 26.5445 27.1576 26.7539 26.75 26.9634C26.6146 27.0329 26.4791 27.1025 26.3437 27.1721C26.2767 27.2065 26.2097 27.2409 26.1406 27.2764C24.3125 28.2155 22.4843 29.1547 20.6562 30.0938C20.5556 30.1455 20.5556 30.1455 20.4529 30.1983C20.3182 30.2675 20.1835 30.3366 20.0488 30.4057C19.7357 30.5664 19.4227 30.7274 19.1104 30.8892C19.001 30.9459 18.8916 31.0025 18.7822 31.059C18.6459 31.1295 18.5096 31.2001 18.3735 31.271C16.9238 32.0195 16.9238 32.0195 16.0195 32.0208C15.9681 32.0221 15.9168 32.0235 15.8639 32.0249C15.1151 32.028 14.4969 31.7361 13.8632 31.4086C13.7948 31.3738 13.7264 31.3391 13.6558 31.3032C13.4576 31.2023 13.2599 31.1004 13.0625 30.9981C13.0134 30.9727 12.9643 30.9473 12.9137 30.9211C12.703 30.8115 12.493 30.7011 12.2832 30.5903C11.9313 30.4049 11.5769 30.2234 11.2226 30.0416C11.1534 30.0061 11.0842 29.9706 11.0129 29.934C10.871 29.8612 10.7291 29.7884 10.5872 29.7157C10.2455 29.5404 9.90398 29.3649 9.56247 29.1895C9.15482 28.98 8.74715 28.7706 8.33932 28.5614C7.68609 28.2263 7.03353 27.8902 6.38278 27.5512C5.84043 27.2687 5.29583 26.9899 4.74997 26.7129C4.06941 26.3675 3.39107 26.0189 2.71554 25.6658C2.5006 25.5535 2.28481 25.4428 2.06759 25.334C1.18032 24.8872 0.445288 24.3942 0.11472 23.4949C-0.0683191 22.8966 -0.0344113 22.2842 -0.0313891 21.6686C-0.0316259 21.5308 -0.0319708 21.393 -0.0324133 21.2551C-0.0331922 20.9213 -0.0328143 20.5874 -0.0318697 20.2536C-0.0308101 19.8641 -0.0310185 19.4745 -0.0312518 19.085C-0.0316182 18.3897 -0.0307364 17.6944 -0.0291918 16.9991C-0.0276961 16.3257 -0.0272546 15.6523 -0.0279101 14.9789C-0.0286243 14.2439 -0.0287424 13.5088 -0.0278414 12.7738C-0.0277461 12.6953 -0.0276519 12.6168 -0.0275572 12.5384C-0.0275099 12.4997 -0.0274611 12.4611 -0.0274123 12.4214C-0.0271168 12.1504 -0.0272316 11.8794 -0.0274981 11.6084C-0.0278394 11.2432 -0.0271619 10.8781 -0.0258139 10.513C-0.0254671 10.3793 -0.0254344 10.2455 -0.0257471 10.1118C-0.0261214 9.9288 -0.0253332 9.74581 -0.0242613 9.56279C-0.024637 9.51032 -0.025013 9.45785 -0.0254 9.40379C-0.017169 8.62695 0.293986 7.93088 0.89694 7.3688C1.21327 7.11247 1.56924 6.92374 1.93747 6.7338C1.99837 6.70238 2.05926 6.67096 2.12201 6.63858C2.52822 6.42982 2.93577 6.2232 3.34379 6.01725C3.73289 5.82071 4.12046 5.62181 4.50778 5.42249C4.57427 5.3883 4.64075 5.35411 4.70926 5.31888C4.8433 5.24994 4.97733 5.18099 5.11136 5.11203C5.44914 4.93828 5.78706 4.76475 6.12497 4.59119C6.19192 4.55679 6.25887 4.52239 6.32785 4.48695C6.66787 4.31225 7.00794 4.13762 7.34811 3.96315C8.00135 3.62799 8.6539 3.2919 9.30466 2.95293C9.88396 2.65123 10.4659 2.35387 11.0491 2.05806C11.5618 1.79788 12.0727 1.53502 12.582 1.26945C12.764 1.17487 12.946 1.08039 13.1281 0.985972C13.2544 0.920434 13.3807 0.854776 13.5068 0.789016C13.6995 0.68885 13.8926 0.589498 14.0859 0.49032C14.1435 0.460212 14.201 0.430104 14.2603 0.399084C14.8265 0.110519 15.3389 -0.0295164 15.9922 -0.0244625Z" fill="#5EA764"/>
<path d="M2.62504 14.8037C2.66629 14.8037 2.70754 14.8037 2.75004 14.8037C2.89344 15.0658 3.03674 15.3279 3.17995 15.5901C3.22847 15.6788 3.27701 15.7676 3.32558 15.8564C3.48868 16.1544 3.65097 16.4528 3.81254 16.7515C3.83471 16.7924 3.85688 16.8332 3.87972 16.8753C3.94229 16.9909 4.00433 17.1067 4.0662 17.2226C4.10176 17.2889 4.13733 17.3552 4.17397 17.4235C4.25004 17.5863 4.25004 17.5863 4.25004 17.7533C4.29406 17.7678 4.33809 17.7824 4.38344 17.7974C4.57555 17.8695 4.74827 17.9551 4.92801 18.0491C4.96302 18.0674 4.99803 18.0857 5.0341 18.1045C5.14919 18.1646 5.26407 18.225 5.37894 18.2855C5.46019 18.328 5.54144 18.3706 5.62269 18.4132C6.2438 18.7391 6.86053 19.0714 7.476 19.4057C7.97132 19.6746 8.46915 19.9394 8.96879 20.202C9.54181 20.5031 10.1118 20.8082 10.6797 21.1168C11.4402 21.5298 12.2076 21.9319 12.9768 22.332C13.272 22.4855 13.5665 22.6399 13.8594 22.7968C13.9273 22.8329 13.9952 22.8691 14.0652 22.9063C14.2792 23.0212 14.4907 23.1395 14.7024 23.2576C14.8091 23.3163 14.9157 23.375 15.0224 23.4336C15.1269 23.4913 15.2306 23.5499 15.3343 23.6086C15.3988 23.6439 15.4632 23.6791 15.5296 23.7155C15.5871 23.7475 15.6446 23.7796 15.7039 23.8127C15.9223 23.8923 16.0247 23.8789 16.25 23.8194C16.3959 23.7541 16.5309 23.6878 16.6692 23.612C16.7286 23.5803 16.7286 23.5803 16.7892 23.548C16.9184 23.4789 17.0471 23.4092 17.1758 23.3394C17.2662 23.2909 17.3566 23.2424 17.447 23.1941C17.6293 23.0964 17.8115 22.9984 17.9935 22.9002C18.2178 22.7792 18.4426 22.6591 18.6678 22.5394C19.1913 22.2609 19.7138 21.9811 20.2344 21.6985C20.3802 21.6194 20.5261 21.5402 20.6719 21.4611C20.7264 21.4315 20.7264 21.4315 20.7821 21.4013C21.3784 21.078 21.9794 20.7622 22.5825 20.449C23.181 20.1381 23.7748 19.821 24.3662 19.4996C24.9845 19.1637 25.6061 18.8333 26.2302 18.5061C26.3592 18.4384 26.488 18.3703 26.6165 18.302C26.7546 18.2291 26.893 18.1577 27.0326 18.0872C27.4193 17.8888 27.7057 17.7388 27.8946 17.3707C27.9135 17.3354 27.9324 17.3001 27.9518 17.2638C28.0122 17.1496 28.0688 17.0343 28.125 16.9185C28.1662 16.8366 28.2075 16.7548 28.2488 16.6731C28.3121 16.5472 28.3749 16.4213 28.4368 16.2949C28.6479 15.8637 28.8848 15.4451 29.125 15.0263C29.1668 14.9522 29.2085 14.878 29.25 14.8037C29.4966 14.896 29.6835 15.0456 29.8828 15.2002C29.9493 15.2515 30.0159 15.3026 30.0826 15.3537C30.116 15.3802 30.1494 15.4067 30.1838 15.434C30.3125 15.5315 30.3125 15.5315 30.4687 15.6116C30.7296 15.7629 30.9069 15.8795 30.9968 16.1518C31.0208 16.3769 31.025 16.5964 31.0224 16.8222C31.0236 16.9081 31.0252 16.9939 31.0269 17.0798C31.0308 17.3121 31.0308 17.5443 31.0297 17.7766C31.0292 17.9709 31.0306 18.1652 31.0319 18.3595C31.0351 18.8181 31.0349 19.2767 31.0328 19.7353C31.0306 20.2076 31.0339 20.6797 31.0399 21.152C31.0448 21.5583 31.0464 21.9645 31.0453 22.3708C31.0446 22.6132 31.0453 22.8553 31.0492 23.0977C31.0527 23.3257 31.0519 23.5534 31.0479 23.7814C31.0472 23.8647 31.0479 23.9481 31.0503 24.0314C31.0662 24.6414 31.0662 24.6414 30.8531 24.8469C30.6448 24.9985 30.4167 25.1107 30.1759 25.2159C29.9956 25.2961 29.8246 25.389 29.6514 25.4807C29.5125 25.5509 29.3735 25.6209 29.2344 25.6907C29.1197 25.7486 29.0051 25.8066 28.8904 25.8646C28.8125 25.904 28.7346 25.9433 28.6567 25.9827C28.2649 26.1805 27.8745 26.3806 27.4844 26.5811C27.4175 26.6155 27.3506 26.6499 27.2817 26.6853C26.8354 26.9148 26.3902 27.1459 25.9453 27.3776C25.366 27.6793 24.7839 27.9767 24.2008 28.2726C23.6305 28.5621 23.0625 28.8548 22.4959 29.1499C21.8386 29.4922 21.1788 29.8306 20.519 30.169C20.2415 30.3115 19.9642 30.4541 19.6868 30.5968C19.4835 30.7013 19.28 30.8056 19.0765 30.9098C18.8234 31.0395 18.5714 31.1705 18.3201 31.3028C17.546 31.7086 16.9135 32.0127 16 32.0281C15.9496 32.0291 15.8992 32.0302 15.8472 32.0313C15.1079 32.0241 14.4894 31.7325 13.8633 31.4089C13.7949 31.3742 13.7264 31.3394 13.6559 31.3036C13.4576 31.2026 13.26 31.1008 13.0625 30.9985C13.0134 30.9731 12.9643 30.9476 12.9137 30.9214C12.7031 30.8119 12.493 30.7015 12.2832 30.5907C11.9314 30.4052 11.577 30.2237 11.2227 30.042C11.1535 30.0065 11.0843 29.971 11.013 29.9344C10.8711 29.8616 10.7292 29.7888 10.5872 29.716C10.2456 29.5408 9.90405 29.3653 9.56254 29.1898C9.15489 28.9803 8.74722 28.7709 8.33939 28.5618C7.68616 28.2266 7.0336 27.8905 6.38285 27.5515C5.8405 27.2691 5.2959 26.9903 4.75004 26.7133C4.01171 26.3386 3.2764 25.9594 2.54328 25.5767C2.38049 25.4918 2.21751 25.4072 2.05448 25.3226C1.9582 25.2726 1.86193 25.2225 1.76566 25.1724C1.70141 25.1392 1.70141 25.1392 1.63586 25.1053C1.5274 25.0487 1.41991 24.9906 1.31254 24.9324C1.26782 24.9098 1.2231 24.8872 1.17703 24.8639C1.06254 24.7655 1.06254 24.7655 1.02933 24.6094C1.02842 24.5456 1.02752 24.4818 1.02658 24.416C1.02498 24.3428 1.02337 24.2695 1.02171 24.1941C1.0212 24.1127 1.02072 24.0313 1.02027 23.9499C1.01891 23.8643 1.01745 23.7788 1.0159 23.6932C1.01208 23.4605 1.00996 23.2277 1.00837 22.9949C1.00736 22.8493 1.00609 22.7038 1.00475 22.5582C1.00065 22.1022 0.997668 21.6462 0.996144 21.1902C0.994366 20.6647 0.988894 20.1393 0.980207 19.6139C0.973717 19.2073 0.970621 18.8007 0.970042 18.3941C0.969618 18.1514 0.967783 17.9089 0.962381 17.6663C0.928815 16.0742 0.928815 16.0742 1.25094 15.7108C1.42502 15.5597 1.61041 15.4521 1.82763 15.3564C2.00543 15.2726 2.14772 15.1594 2.30082 15.0437C2.3502 15.0091 2.39959 14.9744 2.45048 14.9387C2.55719 14.8662 2.55719 14.8662 2.62504 14.8037Z" fill="#FEC32E"/>
<path d="M15.9922 -0.0244625C16.0427 -0.0255744 16.0932 -0.0266864 16.1453 -0.027832C16.877 -0.027319 17.49 0.257005 18.1094 0.577277C18.1767 0.611465 18.244 0.645653 18.3134 0.680877C18.5219 0.787078 18.7298 0.894191 18.9375 1.00162C19.0008 1.03427 19.064 1.06692 19.1292 1.10056C19.4389 1.26054 19.748 1.42126 20.0569 1.58249C20.451 1.78811 20.8464 1.99159 21.2422 2.19467C21.3096 2.22927 21.377 2.26388 21.4465 2.29953C21.6518 2.40489 21.8571 2.51022 22.0625 2.61554C22.8527 3.02079 23.6426 3.42642 24.4297 3.83641C24.972 4.11886 25.5166 4.39766 26.0625 4.67467C26.6694 4.98264 27.2743 5.29342 27.8771 5.60772C28.2067 5.77945 28.5368 5.9502 28.8679 6.11945C28.9041 6.13797 28.9403 6.15649 28.9776 6.17557C29.1519 6.26469 29.3262 6.35367 29.5006 6.4424C30.6261 7.01772 31.5896 7.53695 31.9492 8.71389C32.0741 9.24004 32.0346 9.7938 32.0323 10.3285C32.0327 10.466 32.0331 10.6036 32.0337 10.7412C32.0347 11.0744 32.0345 11.4077 32.0338 11.7409C32.0333 12.012 32.0332 12.2831 32.0335 12.5542C32.0335 12.5929 32.0335 12.6317 32.0336 12.6716C32.0336 12.7503 32.0337 12.8291 32.0338 12.9078C32.0345 13.6443 32.0337 14.3807 32.0324 15.1171C32.0312 15.7475 32.0314 16.3779 32.0326 17.0083C32.0339 17.7423 32.0345 18.4763 32.0337 19.2103C32.0336 19.2887 32.0335 19.3671 32.0335 19.4456C32.0334 19.4842 32.0334 19.5227 32.0333 19.5625C32.0331 19.8329 32.0335 20.1033 32.0341 20.3738C32.0348 20.7385 32.0343 21.1032 32.0328 21.4679C32.0325 21.6013 32.0326 21.7347 32.0332 21.868C32.0367 22.807 32.0174 23.6684 31.3125 24.4312C31.1903 24.5272 31.0637 24.6176 30.9375 24.7094C30.9379 24.665 30.9383 24.6205 30.9388 24.5747C30.9489 23.491 30.9545 22.4073 30.9551 21.3235C30.9556 20.7994 30.9575 20.2754 30.963 19.7513C30.9678 19.2943 30.9697 18.8373 30.9683 18.3803C30.9676 18.1384 30.9683 17.8967 30.9725 17.6549C30.9764 17.4269 30.9764 17.199 30.9735 16.971C30.9732 16.8877 30.9742 16.8044 30.9767 16.7211C30.9939 16.2767 30.9939 16.2767 30.7969 15.88C30.6068 15.7049 30.394 15.5627 30.1687 15.4257C29.996 15.3187 29.8351 15.1997 29.6719 15.0816C29.6161 15.0426 29.5604 15.0036 29.5029 14.9634C29.375 14.859 29.375 14.859 29.3125 14.6921C29.3748 14.5458 29.3748 14.5458 29.4648 14.3825C29.5843 14.184 29.5843 14.184 29.625 13.9686C29.5808 13.9505 29.5366 13.9323 29.4911 13.9136C29.076 13.7431 28.6615 13.5715 28.2474 13.3991C27.9728 13.285 27.697 13.1737 27.4204 13.0634C26.6011 12.7318 25.9123 12.3819 25.2477 11.8408C25.0361 11.6713 24.8144 11.5129 24.5937 11.3529C24.5055 11.2883 24.4173 11.2236 24.3291 11.1588C24.1489 11.0266 23.9685 10.8946 23.7881 10.7627C23.3786 10.4632 22.97 10.163 22.5664 9.85728C22.2949 9.65165 22.0197 9.45107 21.7405 9.2538C21.1753 8.85065 20.618 8.43851 20.0664 8.02075C19.7368 7.77139 19.4029 7.52792 19.0625 7.29032C18.9761 7.22748 18.9761 7.22748 18.8879 7.16336C18.0448 6.56833 17.0785 6.25422 16.0039 6.26771C15.9378 6.26836 15.8716 6.269 15.8035 6.26967C14.6224 6.29174 13.6855 6.70713 12.8125 7.40162C12.6764 7.50549 12.5393 7.60829 12.4023 7.71119C12.3677 7.73741 12.333 7.76363 12.2973 7.79065C12.0528 7.97533 11.8041 8.15461 11.553 8.33206C10.9878 8.73521 10.4305 9.14731 9.8789 9.5651C9.60741 9.77073 9.33218 9.97131 9.05297 10.1686C8.4878 10.5717 7.93052 10.9839 7.3789 11.4016C7.04923 11.651 6.71614 11.8953 6.375 12.1321C6.32629 12.1663 6.27758 12.2005 6.2274 12.2357C5.76745 12.5472 5.28188 12.7709 4.76171 12.9877C4.67648 13.0238 4.59127 13.0599 4.50608 13.0961C3.79993 13.395 3.08931 13.6855 2.375 13.9686C2.39353 14.0181 2.41206 14.0676 2.43115 14.1186C2.5166 14.3468 2.60205 14.5751 2.6875 14.8034C1.60886 15.6846 1.60886 15.6846 1.24247 15.8734C1.10805 15.9667 1.10805 15.9667 1.09326 16.1291C1.09303 16.1933 1.0928 16.2576 1.09256 16.3238C1.09209 16.3597 1.09162 16.3955 1.09114 16.4324C1.08987 16.5526 1.09038 16.6728 1.09088 16.7931C1.09033 16.8792 1.08968 16.9653 1.08892 17.0514C1.08717 17.2854 1.08697 17.5193 1.08703 17.7533C1.08683 17.9978 1.08523 18.2422 1.08378 18.4866C1.08124 18.9496 1.07997 19.4126 1.07916 19.8756C1.07816 20.4026 1.07576 20.9296 1.07324 21.4567C1.06809 22.5409 1.06471 23.6252 1.0625 24.7094C0.459861 24.2711 0.121874 23.7307 -3.65078e-06 23.0399C-0.0450463 22.5843 -0.0336039 22.1256 -0.0313605 21.6686C-0.0315972 21.5308 -0.0319422 21.393 -0.0323847 21.2551C-0.0331636 20.9213 -0.0327857 20.5874 -0.0318411 20.2536C-0.0307814 19.8641 -0.0309899 19.4745 -0.0312231 19.085C-0.0315896 18.3897 -0.0307078 17.6944 -0.0291632 16.9991C-0.0276675 16.3257 -0.0272259 15.6523 -0.0278815 14.9789C-0.0285957 14.2439 -0.0287138 13.5088 -0.0278128 12.7738C-0.0277174 12.6953 -0.0276233 12.6168 -0.0275286 12.5384C-0.0274812 12.4997 -0.0274324 12.4611 -0.0273836 12.4214C-0.0270882 12.1504 -0.0272029 11.8794 -0.0274695 11.6084C-0.0278108 11.2432 -0.0271332 10.8781 -0.0257853 10.513C-0.0254385 10.3793 -0.0254058 10.2455 -0.0257185 10.1118C-0.0260927 9.9288 -0.0253046 9.74581 -0.0242327 9.56279C-0.0246083 9.51032 -0.0249844 9.45785 -0.0253714 9.40379C-0.0171403 8.62695 0.294015 7.93088 0.896969 7.3688C1.2133 7.11247 1.56927 6.92374 1.9375 6.7338C1.99839 6.70238 2.05929 6.67095 2.12204 6.63858C2.52825 6.42982 2.9358 6.2232 3.34382 6.01725C3.73292 5.82071 4.12049 5.62181 4.50781 5.42249C4.5743 5.3883 4.64078 5.35411 4.70929 5.31888C4.84333 5.24994 4.97736 5.18099 5.11139 5.11203C5.44917 4.93828 5.78709 4.76475 6.125 4.59119C6.19195 4.55679 6.2589 4.52239 6.32788 4.48695C6.6679 4.31225 7.00797 4.13762 7.34814 3.96315C8.00138 3.62799 8.65393 3.2919 9.30468 2.95293C9.88399 2.65123 10.466 2.35387 11.0491 2.05806C11.5619 1.79788 12.0727 1.53502 12.582 1.26945C12.764 1.17487 12.9461 1.08039 13.1281 0.985972C13.2545 0.920434 13.3807 0.854776 13.5069 0.789016C13.6995 0.68885 13.8926 0.589498 14.0859 0.49032C14.1435 0.460212 14.201 0.430104 14.2603 0.399084C14.8265 0.110519 15.339 -0.0295164 15.9922 -0.0244625Z" fill="#00BB96"/>
<path d="M29.25 14.8037C29.4966 14.896 29.6835 15.0456 29.8828 15.2002C29.9493 15.2515 30.0159 15.3026 30.0825 15.3537C30.1159 15.3802 30.1493 15.4067 30.1838 15.434C30.3125 15.5315 30.3125 15.5315 30.4687 15.6116C30.7296 15.7629 30.9068 15.8795 30.9968 16.1518C31.0207 16.3769 31.025 16.5964 31.0223 16.8222C31.0236 16.9081 31.0251 16.9939 31.0269 17.0798C31.0308 17.3121 31.0307 17.5443 31.0297 17.7766C31.0292 17.9709 31.0305 18.1652 31.0319 18.3595C31.035 18.8181 31.0349 19.2767 31.0327 19.7353C31.0305 20.2076 31.0338 20.6797 31.0398 21.152C31.0448 21.5583 31.0464 21.9645 31.0452 22.3708C31.0446 22.6132 31.0452 22.8553 31.0491 23.0977C31.0526 23.3257 31.0519 23.5534 31.0479 23.7814C31.0471 23.8647 31.0479 23.9481 31.0502 24.0314C31.0661 24.6414 31.0661 24.6414 30.8531 24.8469C30.6448 24.9985 30.4167 25.1107 30.1759 25.2159C29.9956 25.2961 29.8246 25.389 29.6514 25.4807C29.5125 25.5509 29.3735 25.6209 29.2344 25.6907C29.1197 25.7486 29.005 25.8066 28.8904 25.8646C28.8125 25.904 28.7346 25.9433 28.6567 25.9827C28.2649 26.1805 27.8745 26.3806 27.4844 26.5811C27.4181 26.6152 27.3518 26.6492 27.2836 26.6843C26.8834 26.8902 26.4838 27.097 26.0847 27.3045C25.9573 27.3708 25.8297 27.437 25.7021 27.5031C25.4379 27.64 25.1741 27.7773 24.9126 27.9183C24.8524 27.9502 24.8524 27.9502 24.791 27.9829C24.6896 28.0367 24.5887 28.0913 24.4878 28.1459C24.2806 28.2286 24.1632 28.234 23.9375 28.2159C23.7511 28.1379 23.7511 28.1379 23.5554 28.0285C23.52 28.009 23.4846 27.9895 23.4481 27.9695C23.3334 27.9062 23.2195 27.8419 23.1055 27.7776C23.0257 27.7334 22.9459 27.6893 22.866 27.6452C22.7091 27.5587 22.5524 27.4719 22.3958 27.3849C22.1516 27.25 21.9049 27.1197 21.6562 26.9915C21.2373 26.7743 20.8231 26.5503 20.4091 26.3255C19.7554 25.9706 19.0987 25.6207 18.4375 25.2768C18.3615 25.2372 18.2854 25.1976 18.2094 25.158C18.0435 25.0716 18.0435 25.0716 17.8775 24.9852C17.5311 24.8048 17.185 24.6242 16.8398 24.442C16.7893 24.4156 16.7387 24.3893 16.6866 24.3621C16.6404 24.3376 16.5942 24.3131 16.5466 24.2878C16.5071 24.2671 16.4676 24.2463 16.4269 24.2248C16.2894 24.1389 16.1783 24.0386 16.0625 23.9307C17.0179 23.4114 17.976 22.8966 18.9393 22.3891C19.5284 22.0786 20.1149 21.7647 20.6992 21.4472C21.323 21.1082 21.9513 20.7767 22.5826 20.449C23.1811 20.1381 23.7748 19.8209 24.3662 19.4996C24.9844 19.1637 25.6061 18.8333 26.2301 18.5061C26.3591 18.4384 26.4879 18.3703 26.6165 18.302C26.7546 18.2291 26.893 18.1577 27.0325 18.0872C27.4192 17.8888 27.7056 17.7388 27.8945 17.3707C27.9134 17.3354 27.9323 17.3001 27.9518 17.2638C28.0121 17.1496 28.0687 17.0343 28.125 16.9185C28.1662 16.8366 28.2074 16.7548 28.2488 16.6731C28.312 16.5472 28.3749 16.4213 28.4368 16.2949C28.6479 15.8637 28.8848 15.4451 29.125 15.0263C29.1668 14.9522 29.2085 14.878 29.25 14.8037Z" fill="#FEC32E"/>
<path d="M12.375 9.90625C14.7675 9.90625 17.16 9.90625 19.625 9.90625C19.6477 12.9352 19.6477 12.9352 19.6525 14.2026C19.6558 15.0783 19.6597 15.9541 19.6674 16.8298C19.673 17.4676 19.6767 18.1053 19.6779 18.7431C19.6787 19.0808 19.6804 19.4185 19.6845 19.7563C19.6883 20.0741 19.6895 20.3919 19.6886 20.7098C19.6888 20.8265 19.6899 20.9432 19.6921 21.0599C19.7076 21.9429 19.7076 21.9429 19.5037 22.1788C19.358 22.2672 19.2282 22.3204 19.0625 22.3723C18.984 22.4131 18.9062 22.4552 18.8299 22.4994C18.7544 22.5393 18.6788 22.579 18.603 22.6186C18.5617 22.6405 18.5203 22.6623 18.4777 22.6847C18.3472 22.7535 18.2166 22.822 18.0859 22.8906C17.9572 22.9583 17.8286 23.026 17.6999 23.0938C17.6148 23.1386 17.5295 23.1833 17.4442 23.2278C17.2279 23.341 17.014 23.4564 16.8028 23.577C16.7609 23.6005 16.7189 23.6241 16.6757 23.6484C16.5963 23.6931 16.5175 23.7385 16.4392 23.7848C16.2588 23.8856 16.1454 23.9311 15.9305 23.9258C15.7448 23.8735 15.5989 23.8109 15.4331 23.7202C15.3727 23.6875 15.3123 23.6548 15.2501 23.6212C15.1856 23.5855 15.1211 23.5499 15.0547 23.5132C14.9875 23.4766 14.9202 23.4401 14.851 23.4024C14.7063 23.3237 14.5618 23.2449 14.4174 23.1658C14.1783 23.0349 13.9381 22.9055 13.6978 22.7762C13.5381 22.6903 13.3784 22.6044 13.2188 22.5184C13.1799 22.4975 13.141 22.4766 13.101 22.455C12.9911 22.3958 12.8813 22.3365 12.7715 22.2771C12.7084 22.2431 12.6454 22.2091 12.5805 22.174C12.4375 22.0941 12.4375 22.0941 12.375 22.0384C12.3689 21.8822 12.3669 21.7274 12.3675 21.5711C12.3674 21.5216 12.3674 21.472 12.3673 21.4209C12.3672 21.2534 12.3676 21.0859 12.3679 20.9184C12.3679 20.7989 12.3679 20.6793 12.3679 20.5598C12.3679 20.2342 12.3682 19.9086 12.3687 19.5829C12.3691 19.2431 12.3691 18.9032 12.3692 18.5633C12.3694 17.9192 12.3699 17.2751 12.3705 16.631C12.3713 15.7609 12.3717 14.8909 12.372 14.0208C12.3726 12.6493 12.3739 11.2778 12.375 9.90625Z" fill="#71CE7A"/>
<path d="M15.9375 23.9307C16.6882 24.2567 17.3989 24.6544 18.111 25.0414C18.815 25.424 19.523 25.8002 20.2328 26.1743C20.3119 26.216 20.3909 26.2577 20.47 26.2994C20.5088 26.3198 20.5477 26.3403 20.5877 26.3614C20.9374 26.5459 21.2859 26.7321 21.6344 26.9185C22.0169 27.1231 22.3998 27.3272 22.7831 27.5306C22.8716 27.5776 22.96 27.6248 23.0484 27.6719C23.1788 27.7415 23.3094 27.8108 23.4399 27.88C23.4791 27.901 23.5183 27.922 23.5587 27.9436C23.7631 28.0516 23.9639 28.1438 24.1875 28.2159C24.0307 28.3727 23.8563 28.4639 23.6516 28.5665C23.581 28.6022 23.5104 28.6378 23.4376 28.6745C23.4001 28.6932 23.3625 28.712 23.3239 28.7314C23.1242 28.8312 22.925 28.932 22.7258 29.0326C22.6854 29.053 22.645 29.0734 22.6033 29.0944C22.2336 29.281 21.8665 29.4714 21.5 29.6628C20.8871 29.9824 20.2712 30.297 19.6538 30.6096C19.2935 30.7923 18.9344 30.9765 18.5776 31.1646C18.5105 31.1999 18.4434 31.2352 18.3743 31.2715C18.249 31.3376 18.124 31.4039 17.9993 31.4707C17.3508 31.8124 16.7835 32.0101 16.0312 32.0176C15.979 32.0192 15.9268 32.0208 15.873 32.0225C15.1186 32.0292 14.5018 31.7389 13.8633 31.4089C13.7948 31.3742 13.7264 31.3394 13.6559 31.3036C13.4576 31.2026 13.2599 31.1008 13.0625 30.9985C13.0134 30.973 12.9643 30.9476 12.9137 30.9214C12.703 30.8119 12.493 30.7015 12.2832 30.5907C11.9313 30.4052 11.5769 30.2237 11.2227 30.042C11.154 30.0067 11.0853 29.9714 11.0145 29.9351C10.6572 29.7518 10.2998 29.5687 9.94238 29.3857C9.22854 29.0199 8.51597 28.653 7.8125 28.2715C7.84667 28.257 7.88083 28.2424 7.91603 28.2274C8.08456 28.1501 8.2444 28.0639 8.40601 27.9757C8.47481 27.9382 8.54361 27.9008 8.6145 27.8622C8.65113 27.8422 8.68776 27.8222 8.72549 27.8017C9.38585 27.4418 10.0498 27.0882 10.7188 26.7411C11.3625 26.407 12.0015 26.0667 12.6376 25.7212C13.1234 25.4573 13.611 25.1962 14.1016 24.9394C14.5345 24.7126 14.9658 24.4837 15.3945 24.2507C15.4424 24.2247 15.4903 24.1987 15.5396 24.172C15.75 24.0649 15.75 24.0649 15.9375 23.9307Z" fill="#E8A33A"/>
<path d="M22.125 11.52C22.4198 11.6012 22.695 11.7074 22.9726 11.8261C23.0184 11.8455 23.0641 11.8648 23.1112 11.8848C23.2617 11.9485 23.4121 12.0125 23.5625 12.0765C23.6683 12.1214 23.7742 12.1663 23.8801 12.2111C24.1008 12.3046 24.3214 12.3981 24.542 12.4918C25.0668 12.7145 25.5919 12.9365 26.1172 13.1583C26.1666 13.1792 26.216 13.2 26.2669 13.2215C27.0914 13.5696 27.9186 13.912 28.75 14.247C28.6538 14.5273 28.5236 14.7842 28.3816 15.0476C28.3576 15.0925 28.3336 15.1375 28.3089 15.1837C28.2309 15.3296 28.1526 15.4752 28.0742 15.6209C28.0475 15.6705 28.0208 15.72 27.9933 15.7711C27.9531 15.8459 27.9531 15.8459 27.912 15.9222C27.8577 16.023 27.8035 16.1238 27.7492 16.2246C27.7224 16.2744 27.6955 16.3243 27.6679 16.3756C27.5073 16.6743 27.3509 16.9744 27.198 17.2763C27.1624 17.3455 27.1268 17.4147 27.0911 17.4839C27.0272 17.6084 26.9644 17.7333 26.9031 17.8589C26.697 18.2551 26.4881 18.4356 26.0625 18.6435C25.9315 18.7149 25.8007 18.7867 25.6701 18.8587C25.5315 18.9332 25.3927 19.0075 25.2539 19.0818C25.1822 19.1204 25.1106 19.1591 25.0389 19.1978C24.9714 19.234 24.9038 19.2702 24.8342 19.3074C24.773 19.3403 24.7117 19.3731 24.6487 19.4069C24.5 19.4783 24.5 19.4783 24.375 19.4783C24.3568 19.4359 24.3386 19.3935 24.3198 19.3498C24.0039 18.6414 23.6131 18.0839 22.822 17.7433C22.4424 17.6138 22.1017 17.5646 21.6992 17.5652C21.6498 17.5652 21.6005 17.5651 21.5496 17.565C21.2026 17.5706 20.9231 17.6203 20.6093 17.76C20.5 17.8087 20.5 17.8087 20.375 17.8087C20.2502 16.0094 20.2196 14.5577 21.3039 12.9996C21.5069 12.7038 21.6587 12.3875 21.8125 12.0696C21.8604 11.9731 21.9086 11.8767 21.957 11.7805C21.9761 11.7418 21.9952 11.7032 22.0149 11.6635C22.0625 11.5757 22.0625 11.5757 22.125 11.52Z" fill="#71CE7A"/>
<path d="M9.9375 11.5759C10.0195 11.6996 10.0195 11.6996 10.1028 11.8654C10.1344 11.9271 10.166 11.9888 10.1986 12.0524C10.2505 12.1562 10.302 12.2601 10.3534 12.3642C10.4078 12.4742 10.4625 12.5841 10.5176 12.6939C10.5363 12.7312 10.555 12.7685 10.5742 12.8069C10.6973 13.0467 10.8375 13.267 10.998 13.4891C11.913 14.8156 11.7091 16.3041 11.625 17.8089C11.4388 17.7542 11.2542 17.6991 11.0713 17.6361C10.8322 17.5755 10.6059 17.5672 10.3594 17.5689C10.3123 17.5692 10.2653 17.5695 10.2168 17.5699C9.52793 17.5832 8.93685 17.7824 8.4231 18.2007C8.03242 18.5701 7.78323 18.9918 7.625 19.4785C7.36416 19.3936 7.13016 19.279 6.89209 19.1533C6.85275 19.1327 6.8134 19.1121 6.77287 19.0909C6.69013 19.0476 6.60746 19.0042 6.52484 18.9607C6.39852 18.8942 6.27203 18.8279 6.14551 18.7617C6.06493 18.7195 5.98436 18.6773 5.90381 18.635C5.84726 18.6054 5.84726 18.6054 5.78957 18.5751C5.29893 18.3167 5.29893 18.3167 5.20288 18.0746C5.05521 17.727 4.87308 17.3961 4.68927 17.0628C4.58514 16.8739 4.48188 16.6846 4.37866 16.4952C4.35762 16.4566 4.33659 16.4181 4.31491 16.3783C4.11233 16.0061 3.91368 15.6322 3.71756 15.2573C3.66497 15.1567 3.61216 15.0563 3.55934 14.9559C3.51184 14.8647 3.51184 14.8647 3.46338 14.7717C3.43563 14.7186 3.40789 14.6655 3.3793 14.6107C3.32166 14.4891 3.28041 14.376 3.25 14.2472C3.28992 14.2308 3.32984 14.2144 3.37097 14.1975C4.27 13.8283 5.16655 13.4545 6.06065 13.0759C6.21917 13.0087 6.37773 12.9417 6.5363 12.8747C7.02204 12.6692 7.50749 12.4634 7.99195 12.2556C8.20113 12.1659 8.41053 12.0767 8.61996 11.9876C8.71916 11.9452 8.81826 11.9027 8.91724 11.8599C9.0537 11.801 9.19049 11.7427 9.32739 11.6846C9.38785 11.6581 9.38785 11.6581 9.44954 11.6312C9.72864 11.5139 9.72864 11.5139 9.9375 11.5759Z" fill="#71CE7A"/>
<path d="M17.75 6.51134C17.8507 6.54858 17.8507 6.54858 17.9534 6.58656C18.4256 6.77883 18.7973 7.04484 19.1875 7.34613C19.2992 7.42759 19.4112 7.50875 19.5234 7.5896C19.7797 7.77616 20.033 7.96562 20.2852 8.15656C20.5645 8.36798 20.8473 8.57449 21.1345 8.77743C21.6997 9.18058 22.257 9.59268 22.8086 10.0105C23.0804 10.2163 23.3559 10.4172 23.6355 10.6146C23.9565 10.8437 24.273 11.0776 24.5901 11.3109C24.7853 11.4545 24.9812 11.5973 25.1775 11.7396C25.2507 11.7928 25.2507 11.7928 25.3253 11.8471C25.4195 11.9155 25.5137 11.9838 25.6082 12.0519C25.6505 12.0827 25.6928 12.1135 25.7363 12.1453C25.7925 12.1859 25.7925 12.1859 25.8497 12.2274C25.9375 12.2992 25.9375 12.2992 26 12.4105C25.7187 12.3329 25.4576 12.2332 25.1943 12.117C25.1534 12.0992 25.1126 12.0814 25.0704 12.063C24.9829 12.0248 24.8953 11.9866 24.8078 11.9483C24.5774 11.8474 24.3466 11.7473 24.1157 11.6472C24.0693 11.6271 24.0228 11.6069 23.9749 11.5862C23.5299 11.3938 23.0821 11.207 22.6328 11.0226C22.565 10.9948 22.4971 10.9669 22.4272 10.9381C22.0936 10.8006 22.0936 10.8006 21.75 10.6853C21.7287 10.75 21.7075 10.8147 21.6855 10.8813C21.5327 11.2895 21.3072 11.6706 21.0938 12.0557C21.03 12.1713 20.9663 12.287 20.9027 12.4027C20.8634 12.4742 20.824 12.5457 20.7844 12.617C20.6601 12.8422 20.5466 13.0697 20.4375 13.3009C20.4169 13.3009 20.3962 13.3009 20.375 13.3009C20.375 11.9786 20.375 10.6563 20.375 9.29395C17.4875 9.29395 14.6 9.29395 11.625 9.29395C11.625 10.6162 11.625 11.9385 11.625 13.3009C11.4654 13.1114 11.3657 12.9559 11.2568 12.7431C11.223 12.6774 11.1891 12.6117 11.1542 12.544C11.1367 12.5096 11.1191 12.4752 11.101 12.4398C11.0107 12.2633 10.9196 12.0871 10.8284 11.9109C10.8107 11.8766 10.7929 11.8424 10.7747 11.8071C10.5882 11.4474 10.3918 11.0928 10.1875 10.7409C9.67075 10.8736 9.20291 11.0819 8.72238 11.2932C8.57657 11.3572 8.43054 11.4209 8.28444 11.4845C7.96262 11.6245 7.64106 11.765 7.31952 11.9055C7.09743 12.0025 6.875 12.0989 6.65234 12.1948C6.59931 12.2181 6.54628 12.2415 6.49164 12.2655C6.37119 12.3172 6.24832 12.3644 6.125 12.4105C6.08375 12.3921 6.0425 12.3737 6 12.3548C6.45379 12.0062 6.90861 11.6594 7.37378 11.3229C7.60674 11.1541 7.83855 10.9841 8.07031 10.814C8.34701 10.6109 8.62374 10.4079 8.90088 10.2053C9.30987 9.90612 9.71795 9.60629 10.1211 9.30091C10.3926 9.09528 10.6678 8.8947 10.947 8.69743C11.1811 8.53045 11.4129 8.36106 11.6445 8.19134C11.6904 8.15778 11.7362 8.12421 11.7834 8.08963C12.0309 7.9079 12.2764 7.72443 12.5197 7.53831C14.022 6.39159 15.8267 5.78317 17.75 6.51134Z" fill="#E8A33A"/>
<path d="M17.375 15.5824C18.055 15.9673 18.491 16.498 18.6875 17.1963C18.7858 17.9254 18.6232 18.6012 18.1191 19.1879C17.6111 19.7134 16.9329 20.0435 16.1509 20.1024C15.3105 20.1276 14.6148 19.8263 14.0049 19.325C13.4317 18.7724 13.284 18.149 13.2913 17.4166C13.3565 16.74 13.7512 16.1933 14.3242 15.7633C15.2126 15.1958 16.4128 15.0618 17.375 15.5824Z" fill="#5DA764"/>
<path d="M16.711 11.5233C17.1403 11.7411 17.4197 12.0419 17.5625 12.4659C17.6333 12.9201 17.53 13.2531 17.25 13.6346C16.9812 13.9424 16.5851 14.1441 16.1551 14.2183C15.6574 14.2427 15.2716 14.0576 14.8868 13.7911C14.5706 13.4291 14.3801 13.0846 14.4075 12.6183C14.487 12.2148 14.7085 11.888 15.075 11.6413C15.5821 11.3445 16.1554 11.2972 16.711 11.5233Z" fill="#5DA764"/>
<path d="M24.6758 14.1949C25.1395 14.4459 25.4834 14.7126 25.625 15.1932C25.6938 15.593 25.6125 15.9608 25.375 16.3062C25.0673 16.6119 24.7655 16.8356 24.2978 16.8834C23.736 16.8929 23.3684 16.8371 22.9516 16.493C22.602 16.1565 22.4577 15.809 22.4746 15.3512C22.5455 14.9098 22.8081 14.6041 23.1836 14.3236C23.629 14.0592 24.1725 14.07 24.6758 14.1949Z" fill="#5DA764"/>
<path d="M8.87871 14.3827C9.24404 14.64 9.45824 14.9174 9.52129 15.3329C9.54007 15.7692 9.42074 16.0924 9.11333 16.4312C8.75454 16.7679 8.46117 16.8744 7.93755 16.8903C7.41598 16.8744 7.12168 16.7678 6.76176 16.4347C6.4656 16.1095 6.32993 15.7416 6.34965 15.3223C6.43237 14.9009 6.69394 14.5821 7.06523 14.3214C7.60499 13.9923 8.35977 14.0592 8.87871 14.3827Z" fill="#5DA764"/>
<path d="M16.75 21.3146C17.1539 21.5475 17.4172 21.8517 17.5625 22.2607C17.6244 22.6108 17.5901 22.8944 17.4035 23.2081C17.2282 23.4199 16.9817 23.5313 16.7265 23.6555C16.6742 23.6831 16.6218 23.7108 16.5679 23.7393C16.351 23.8484 16.1867 23.9279 15.9358 23.9374C15.6644 23.8457 15.4231 23.7237 15.1758 23.5894C15.1254 23.5637 15.075 23.538 15.0231 23.5116C14.6925 23.3334 14.5435 23.2066 14.4375 22.8729C14.3528 22.4324 14.4628 22.0668 14.75 21.7042C15.3039 21.1562 15.9901 20.9834 16.75 21.3146Z" fill="#5DA764"/>
<path d="M29.25 14.8037C29.4929 14.9053 29.6816 15.0442 29.8828 15.2002C30.1915 15.4371 30.5055 15.6651 30.8293 15.8857C30.865 15.9143 30.9007 15.9429 30.9375 15.9724C30.9375 16.0091 30.9375 16.0459 30.9375 16.0837C30.7919 16.1717 30.7919 16.1717 30.5872 16.2761C30.5504 16.295 30.5137 16.3139 30.4759 16.3334C30.3553 16.3955 30.2343 16.457 30.1133 16.5185C29.9471 16.6037 29.7811 16.6892 29.6152 16.7748C29.5529 16.8069 29.5529 16.8069 29.4892 16.8397C29.0518 17.066 28.6234 17.3048 28.1983 17.5489C28.1487 17.5769 28.0992 17.6049 28.0481 17.6337C27.9839 17.6706 27.9839 17.6706 27.9184 17.7082C27.8835 17.7231 27.8485 17.7379 27.8125 17.7533C27.7712 17.7349 27.73 17.7165 27.6875 17.6976C27.7104 17.6554 27.7333 17.6132 27.7569 17.5698C28.2569 16.6487 28.7554 15.7271 29.25 14.8037Z" fill="#E4A23A"/>
<path d="M2.625 14.8037C2.66625 14.8037 2.7075 14.8037 2.75 14.8037C2.8934 15.0658 3.0367 15.3279 3.17992 15.5901C3.22843 15.6788 3.27697 15.7676 3.32555 15.8564C3.57482 16.3119 3.8232 16.7679 4.06616 17.2261C4.08487 17.261 4.10359 17.2959 4.12286 17.3319C4.25 17.5734 4.25 17.5734 4.25 17.6976C3.97007 17.6236 3.74109 17.5245 3.49292 17.3881C3.45743 17.3687 3.42195 17.3493 3.38538 17.3294C3.27104 17.2669 3.15701 17.204 3.04297 17.1411C2.92516 17.0766 2.80728 17.0123 2.68937 16.948C2.61133 16.9054 2.53332 16.8628 2.45532 16.8201C2.13381 16.6444 1.81 16.4724 1.48438 16.3028C1.44052 16.28 1.39667 16.2571 1.35149 16.2336C1.25522 16.1835 1.15887 16.1336 1.0625 16.0837C1.1573 15.8715 1.29653 15.768 1.49609 15.6281C1.55708 15.5848 1.61807 15.5415 1.68091 15.497C1.74496 15.4518 1.80901 15.4067 1.875 15.3602C2.00302 15.2679 2.13041 15.175 2.25781 15.082C2.31469 15.0407 2.37157 14.9993 2.43018 14.9568C2.49693 14.9076 2.56376 14.8582 2.625 14.8037Z" fill="#E5A23A"/>
<path d="M22.375 12.355C22.5916 12.4376 22.5916 12.4376 22.8125 12.5219C22.724 12.7772 22.6088 13.014 22.4763 13.253C22.4558 13.2905 22.4353 13.328 22.4141 13.3666C22.3479 13.4875 22.2814 13.6082 22.2148 13.7289C22.1242 13.8942 22.0336 14.0596 21.9431 14.225C21.9098 14.2857 21.9098 14.2857 21.8759 14.3476C21.696 14.676 21.5188 15.0054 21.3438 15.3359C21.3208 15.3791 21.2979 15.4224 21.2743 15.467C21.2244 15.5612 21.1747 15.6555 21.125 15.7498C20.8281 15.7011 20.8281 15.7011 20.6875 15.6385C20.7271 15.4011 20.8201 15.2133 20.9392 14.9987C20.9583 14.964 20.9773 14.9294 20.9969 14.8937C21.0377 14.8196 21.0787 14.7456 21.1198 14.6716C21.2272 14.4782 21.3335 14.2843 21.4397 14.0904C21.4609 14.0518 21.4821 14.0131 21.5039 13.9733C21.7224 13.5736 21.9291 13.1694 22.1323 12.7634C22.1555 12.7171 22.1787 12.6709 22.2026 12.6232C22.2225 12.5832 22.2424 12.5432 22.2629 12.502C22.3125 12.4106 22.3125 12.4106 22.375 12.355Z" fill="#5DA864"/>
<path d="M4.625 14.5254C5.19995 15.5778 5.76298 16.6344 6.3125 17.6976C6.16339 17.8029 6.05802 17.8659 5.875 17.9202C5.55129 17.3517 5.23722 16.7792 4.92578 16.2054C4.90707 16.171 4.88837 16.1366 4.86909 16.1011C4.74516 15.8731 4.62218 15.6446 4.5 15.4158C4.46829 15.3565 4.43657 15.2973 4.4039 15.2362C4.37527 15.1816 4.34664 15.127 4.31714 15.0708C4.29198 15.0231 4.26681 14.9753 4.24089 14.9261C4.1875 14.8037 4.1875 14.8037 4.1875 14.6367C4.35296 14.5554 4.43091 14.5254 4.625 14.5254Z" fill="#5DA864"/>
<path d="M13 10.6294C13.1444 10.6294 13.2887 10.6294 13.4375 10.6294C13.4375 11.8048 13.4375 12.9801 13.4375 14.1911C13.2931 14.1911 13.1488 14.1911 13 14.1911C13 13.0158 13 11.8404 13 10.6294Z" fill="#5DA764"/>
<path d="M22.75 19.5342C22.9775 19.6479 23.1076 19.7632 23.1875 19.9898C23.1875 20.0415 23.1875 20.0931 23.1875 20.1463C23.1463 20.1831 23.105 20.2198 23.0625 20.2576C22.7634 20.2395 22.526 20.1461 22.2578 20.0315C22.1858 20.0011 22.1138 19.9706 22.0396 19.9392C21.9852 19.9157 21.9309 19.8922 21.875 19.8681C22.062 19.5041 22.3175 19.426 22.75 19.5342Z" fill="#5EA864"/>
<path d="M16.8796 16.9539C17.121 16.994 17.2641 17.0933 17.4258 17.2521C17.5 17.3634 17.5 17.3634 17.5 17.5304C17.0462 17.5304 16.5925 17.5304 16.125 17.5304C16.2166 17.1225 16.4083 16.9254 16.8796 16.9539Z" fill="#5DA764"/>
<path d="M18.5625 21.1479C18.7069 21.1479 18.8512 21.1479 19 21.1479C19.0109 21.3473 19.0176 21.5467 19.0234 21.7462C19.0266 21.8027 19.0297 21.8593 19.033 21.9175C19.042 22.3273 19.042 22.3273 18.9171 22.4611C18.6954 22.5949 18.6954 22.5949 18.5625 22.5949C18.5625 22.1174 18.5625 21.6399 18.5625 21.1479Z" fill="#5DA763"/>
<path d="M14.25 17.8086C14.6625 17.8086 15.075 17.8086 15.5 17.8086C15.375 18.1425 15.375 18.1425 15.2734 18.2469C15.0576 18.3379 14.8565 18.3463 14.625 18.3095C14.4414 18.2156 14.4414 18.2156 14.3125 18.0869C14.2919 17.995 14.2713 17.9032 14.25 17.8086Z" fill="#5DA764"/>
<path d="M9.125 19.2002C9.23047 19.3115 9.23047 19.3115 9.3125 19.4228C9.24591 19.5612 9.1851 19.6475 9.0625 19.7532C8.92659 19.878 8.8737 19.9828 8.8125 20.1463C8.68875 20.0912 8.565 20.0361 8.4375 19.9793C8.46341 19.6851 8.5177 19.5244 8.75 19.3115C8.9375 19.2002 8.9375 19.2002 9.125 19.2002Z" fill="#71CD79"/>
<path d="M10.3125 20.0903C10.351 20.4945 10.351 20.4945 10.1562 20.7025C10.1047 20.7392 10.0531 20.776 10 20.8138C9.79375 20.7036 9.5875 20.5934 9.375 20.4799C9.54878 20.3638 9.68954 20.276 9.87891 20.1912C9.92088 20.172 9.96286 20.1529 10.0061 20.1332C10.125 20.0903 10.125 20.0903 10.3125 20.0903Z" fill="#60A964"/>
<path d="M20.9375 18.4209C20.9994 18.4577 21.0612 18.4944 21.125 18.5322C21.0838 18.6608 21.0425 18.7894 21 18.9218C20.7937 18.9218 20.5875 18.9218 20.375 18.9218C20.375 18.7749 20.375 18.628 20.375 18.4766C20.5637 18.3926 20.7296 18.4112 20.9375 18.4209Z" fill="#71CD79"/>
<path d="M6.5625 11.9097C6.60375 11.928 6.645 11.9464 6.6875 11.9653C6.53004 12.1686 6.38014 12.3195 6.10938 12.3931C6.07328 12.3989 6.03719 12.4046 6 12.4105C6.1875 12.2436 6.375 12.0766 6.5625 11.9097Z" fill="#D29D3F"/>
</g>
<defs>
<clipPath id="clip0_701_819">
<rect width="32" height="32" fill="white"/>
</clipPath>
</defs>
</svg>
