<svg width="24" height="24" viewBox="0 0 24 24" fill="none" xmlns="http://www.w3.org/2000/svg">
<g clip-path="url(#clip0_701_207)">
<path d="M11.9063 0.468732C12.0722 0.600497 12.2251 0.741122 12.3751 0.890607C12.4148 0.928675 12.4148 0.928675 12.4553 0.967511C13.1531 1.69852 13.1958 2.82997 13.3284 3.77621C13.3333 3.81048 13.3381 3.84474 13.3431 3.88005C13.3563 3.97455 13.3694 4.06908 13.3825 4.16361C13.4023 4.31304 13.4023 4.31304 13.4532 4.45311C13.4727 4.43595 13.4921 4.41879 13.5122 4.40111C13.6676 4.26452 13.8236 4.12865 13.9811 3.99443C14.0366 3.94713 14.0921 3.89982 14.1475 3.85252C14.1759 3.82839 14.2042 3.80425 14.2334 3.77938C14.4106 3.62772 14.5832 3.47236 14.754 3.31346C15.308 2.80809 15.9271 2.45076 16.6876 2.39061C16.7182 2.38807 16.7489 2.38553 16.7804 2.38292C17.2747 2.36252 17.8005 2.48279 18.2345 2.71873C18.2713 2.73734 18.3081 2.75595 18.346 2.77513C19.0054 3.13425 19.4741 3.73324 19.6862 4.44941C19.8809 5.19137 19.8181 5.96516 19.4649 6.65037C19.2808 6.96049 19.0565 7.24924 18.797 7.49998C18.834 7.50441 18.8711 7.50883 18.9093 7.51339C19.1258 7.55628 19.3238 7.62996 19.5301 7.70726C19.5733 7.72328 19.6166 7.73931 19.6611 7.75582C19.7524 7.78974 19.8436 7.82379 19.9348 7.85795C20.073 7.90967 20.2114 7.96083 20.3499 8.01194C20.4389 8.04511 20.528 8.07832 20.617 8.11155C20.6782 8.13413 20.6782 8.13413 20.7406 8.15716C21.4261 8.41539 21.9853 8.737 22.3126 9.42186C22.7191 10.3566 22.3234 11.2546 21.9932 12.1465C21.955 12.2516 21.9167 12.3568 21.8785 12.462C21.7373 12.8492 21.5953 13.2359 21.4418 13.6184C21.4236 13.664 21.4054 13.7095 21.3866 13.7565C21.301 13.9302 21.2097 14.0067 21.047 14.1094C20.7511 14.208 20.5244 14.1613 20.2367 14.0616C20.1864 14.0443 20.1362 14.027 20.0844 14.0092C20.0462 13.9959 20.0081 13.9825 19.9688 13.9687C19.969 14.0299 19.969 14.0299 19.9691 14.0923C19.9712 15.0865 19.9727 16.0807 19.9737 17.0749C19.9742 17.5557 19.9748 18.0365 19.9759 18.5173C19.9768 18.9365 19.9774 19.3557 19.9777 19.775C19.9778 19.9968 19.9781 20.2186 19.9787 20.4404C19.9794 20.6496 19.9796 20.8587 19.9794 21.0679C19.9795 21.1443 19.9796 21.2207 19.98 21.2971C19.9838 22.1438 19.8954 22.8378 19.2855 23.4754C18.8052 23.91 18.2982 24.0213 17.667 24.0185C17.606 24.0188 17.545 24.019 17.4822 24.0193C17.3138 24.0201 17.1455 24.02 16.9771 24.0197C16.7952 24.0196 16.6132 24.0203 16.4313 24.0209C16.0752 24.0219 15.719 24.0221 15.3629 24.022C15.0733 24.0219 14.7837 24.0221 14.4941 24.0224C14.4106 24.0225 14.3271 24.0226 14.2435 24.0227C14.202 24.0228 14.1604 24.0228 14.1175 24.0229C13.3317 24.0238 12.5459 24.0237 11.76 24.0234C11.0419 24.0231 10.3238 24.0241 9.6057 24.0257C8.86756 24.0273 8.12941 24.028 7.39127 24.0278C6.97718 24.0276 6.56309 24.0279 6.149 24.0291C5.79642 24.03 5.44384 24.0302 5.09126 24.0293C4.91156 24.0289 4.73187 24.0288 4.55217 24.0298C4.35688 24.0309 4.16163 24.0301 3.96633 24.0291C3.91021 24.0297 3.85409 24.0303 3.79627 24.0309C3.15464 24.0242 2.66469 23.7881 2.2065 23.3512C1.59472 22.7093 1.6267 21.8808 1.62783 21.0528C1.62763 20.9539 1.62739 20.8551 1.62711 20.7563C1.62648 20.4891 1.62645 20.2219 1.62657 19.9547C1.62662 19.7314 1.62639 19.508 1.62617 19.2847C1.62565 18.758 1.62563 18.2313 1.62591 17.7045C1.62619 17.1614 1.62561 16.6182 1.62462 16.075C1.62379 15.6081 1.62351 15.1412 1.62366 14.6744C1.62375 14.3957 1.62362 14.1171 1.62297 13.8385C1.62238 13.5767 1.62247 13.3149 1.62309 13.0531C1.6232 12.9571 1.62307 12.8611 1.62268 12.7651C1.62219 12.6339 1.62257 12.5028 1.62317 12.3717C1.62282 12.3338 1.62247 12.2959 1.62212 12.2568C1.6247 11.9864 1.66814 11.7534 1.85329 11.5433C2.10671 11.3554 2.25569 11.3367 2.56623 11.3363C2.60918 11.3361 2.65214 11.3359 2.6964 11.3356C2.84121 11.3349 2.98603 11.3345 3.13084 11.3341C3.2343 11.3337 3.33776 11.3332 3.44123 11.3327C3.72285 11.3314 4.00447 11.3304 4.28609 11.3295C4.58013 11.3285 4.87416 11.3272 5.1682 11.3259C5.66196 11.3239 6.15573 11.322 6.64949 11.3202C7.15813 11.3183 7.66676 11.3164 8.1754 11.3143C8.20674 11.3142 8.23808 11.3141 8.27036 11.3139C8.42758 11.3133 8.58479 11.3126 8.74201 11.312C10.0468 11.3067 11.3516 11.3016 12.6563 11.2969C12.6235 11.2851 12.5908 11.2733 12.557 11.2611C12.2409 11.1473 11.9248 11.0335 11.6088 10.9196C11.4465 10.8611 11.2842 10.8026 11.1218 10.7442C10.2227 10.4206 9.32507 10.0932 8.42879 9.7617C8.31172 9.71844 8.19464 9.67517 8.07756 9.63192C8.02538 9.61264 7.97319 9.59335 7.91942 9.57348C7.26526 9.33192 6.60963 9.09469 5.95321 8.85936C5.13523 8.56591 4.31824 8.26985 3.50246 7.97036C3.38347 7.92668 3.26445 7.8831 3.1454 7.83962C2.97957 7.779 2.81385 7.71808 2.64815 7.65709C2.59909 7.6392 2.55003 7.62132 2.49948 7.60289C1.70271 7.30832 1.70271 7.30832 1.54696 6.98436C1.48486 6.68413 1.51593 6.48987 1.6202 6.20506C1.63437 6.16467 1.64854 6.12427 1.66314 6.08265C1.69687 5.98736 1.73107 5.89224 1.76561 5.79724C1.81186 5.66997 1.85767 5.54258 1.90307 5.41501C1.97261 5.21969 2.04279 5.02461 2.11338 4.82968C2.14167 4.75146 2.16984 4.6732 2.19788 4.59489C2.75143 3.05331 2.75143 3.05331 3.51864 2.65135C4.58458 2.16853 5.53924 2.61738 6.56258 2.99119C6.64046 3.0195 6.71834 3.04779 6.79623 3.07606C6.98403 3.14428 7.17177 3.2127 7.35946 3.28123C7.36192 3.22102 7.36439 3.16081 7.36693 3.09877C7.37059 3.01848 7.37426 2.93818 7.37795 2.85789C7.38031 2.79859 7.38031 2.79859 7.38272 2.7381C7.41885 1.97941 7.72232 1.29871 8.25008 0.749982C8.54773 0.495621 8.87286 0.290706 9.23446 0.140607C9.28775 0.118129 9.28775 0.118129 9.34212 0.0951969C10.1839 -0.194343 11.1799 -0.0184068 11.9063 0.468732ZM9.16598 1.92241C8.85801 2.32026 8.80134 2.68852 8.85946 3.18748C8.95619 3.57783 9.23175 3.90239 9.56437 4.12054C9.76023 4.22983 9.97408 4.29905 10.1846 4.37474C10.2603 4.40243 10.2603 4.40243 10.3375 4.43069C10.498 4.48929 10.6587 4.54737 10.8194 4.60545C10.9284 4.64521 11.0374 4.68501 11.1464 4.72484C11.3447 4.79712 11.543 4.8694 11.7415 4.94113C11.7814 4.95555 11.8212 4.96998 11.8623 4.98484C11.9446 5.01811 11.9446 5.01811 12.0001 5.01561C11.9736 4.54093 11.9116 4.07457 11.8398 3.60495C11.8213 3.48318 11.8037 3.3613 11.7861 3.23939C11.7006 2.6653 11.6137 2.13633 11.1563 1.73436C10.5092 1.29492 9.70578 1.32504 9.16598 1.92241ZM4.03133 4.07811C3.86385 4.29971 3.77268 4.52429 3.68197 4.78343C3.66767 4.82339 3.65337 4.86334 3.63863 4.90451C3.60868 4.98844 3.5789 5.07243 3.54931 5.15648C3.50385 5.28552 3.45783 5.41434 3.4117 5.54313C3.38262 5.62485 3.35356 5.70657 3.32455 5.78831C3.31078 5.82693 3.29701 5.86556 3.28283 5.90535C3.21306 6.08881 3.21306 6.08881 3.18758 6.28123C3.84847 6.54454 4.51646 6.78674 5.18611 7.02675C5.50173 7.13988 5.81719 7.25345 6.13265 7.36705C6.16445 7.37849 6.19624 7.38994 6.229 7.40173C6.88508 7.63799 7.53999 7.87735 8.19442 8.11815C8.24276 8.13593 8.29111 8.15371 8.34092 8.17203C8.55382 8.25037 8.76671 8.32877 8.97954 8.4073C9.01443 8.42011 9.04932 8.43292 9.08527 8.44612C9.15426 8.4719 9.22299 8.49843 9.29144 8.52563C9.45679 8.59083 9.56978 8.62498 9.75008 8.62498C9.87724 8.28054 10.004 7.93596 10.1306 7.59129C10.1737 7.47399 10.2169 7.35674 10.2602 7.2395C10.3223 7.07122 10.3841 6.90283 10.4459 6.73442C10.4654 6.68183 10.4848 6.62923 10.5049 6.57505C10.5227 6.52626 10.5406 6.47747 10.559 6.4272C10.5748 6.38421 10.5906 6.34122 10.6069 6.29693C10.6476 6.18418 10.6476 6.18418 10.6407 6.04686C9.49895 5.62361 8.35508 5.2063 7.20957 4.79331C6.15426 4.41284 6.15426 4.41284 5.66885 4.22862C5.60293 4.20376 5.53701 4.1789 5.47109 4.15404C5.35815 4.1114 5.24567 4.06794 5.13326 4.02387C4.73942 3.87485 4.37788 3.77186 4.03133 4.07811ZM15.3584 4.75441C15.1878 4.91756 15.0081 5.07003 14.828 5.22259C14.7683 5.27316 14.7087 5.32379 14.6491 5.37447C14.589 5.42554 14.5288 5.47646 14.4684 5.52723C14.3145 5.65197 14.3145 5.65197 14.2032 5.81248C14.7917 6.03509 15.381 6.25512 15.9727 6.46873C16.0226 6.48679 16.0725 6.50486 16.1239 6.52347C16.1704 6.54021 16.217 6.55695 16.265 6.5742C16.3059 6.58894 16.3469 6.60369 16.3891 6.61888C16.7839 6.75173 17.1342 6.74356 17.5165 6.57127C17.9067 6.37126 18.1346 6.1089 18.2989 5.69822C18.3793 5.24025 18.3329 4.83084 18.0667 4.43754C17.7785 4.08765 17.4504 3.94863 17.0157 3.84373C16.2773 3.84373 15.8565 4.27468 15.3584 4.75441ZM12.047 6.56248C11.8444 7.02846 11.6689 7.50375 11.4945 7.98081C11.4459 8.11357 11.3969 8.24618 11.348 8.3788C11.317 8.46335 11.286 8.54792 11.255 8.63249C11.2404 8.67204 11.2257 8.71159 11.2106 8.75233C11.1973 8.78898 11.184 8.82563 11.1703 8.8634C11.1526 8.9116 11.1526 8.9116 11.1346 8.96077C11.1029 9.05441 11.1029 9.05441 11.1095 9.18748C11.3027 9.25804 11.4961 9.32826 11.6895 9.39842C11.7446 9.41854 11.7998 9.43866 11.8565 9.45939C11.9091 9.47843 11.9617 9.49746 12.0158 9.51707C12.0644 9.53475 12.113 9.55242 12.1631 9.57063C12.2754 9.61422 12.2754 9.61422 12.3751 9.60936C12.4635 9.3703 12.5518 9.13121 12.64 8.8921C12.6699 8.81114 12.6998 8.7302 12.7297 8.64925C12.9286 8.11147 13.1234 7.57249 13.3126 7.03123C12.8971 6.85119 12.4777 6.70076 12.047 6.56248ZM14.672 7.54686C14.4689 8.01352 14.2938 8.4898 14.1195 8.96776C14.0709 9.10101 14.0219 9.23415 13.973 9.36729C13.942 9.452 13.911 9.53672 13.88 9.62144C13.8654 9.66123 13.8507 9.70102 13.8356 9.74202C13.8223 9.77867 13.809 9.81533 13.7953 9.85309C13.7835 9.88533 13.7717 9.91757 13.7596 9.95078C13.7298 10.0321 13.7298 10.0321 13.7345 10.125C14.4721 10.4039 15.2121 10.676 15.954 10.9433C16.2477 11.0492 16.5414 11.1553 16.835 11.2615C16.8651 11.2724 16.8953 11.2834 16.9264 11.2946C17.6466 11.5553 18.3655 11.8198 19.0841 12.0849C19.1138 12.0959 19.1435 12.1069 19.1741 12.1181C19.5328 12.2505 19.8915 12.383 20.2501 12.5156C20.3618 12.348 20.4254 12.1724 20.4949 11.9848C20.5164 11.9271 20.5164 11.9271 20.5383 11.8683C20.5685 11.7869 20.5987 11.7054 20.6287 11.6239C20.6745 11.5001 20.7208 11.3766 20.7673 11.253C20.7966 11.1737 20.826 11.0944 20.8552 11.0151C20.8691 10.9785 20.8829 10.9419 20.8971 10.9042C20.9896 10.6507 21.0845 10.377 21.0204 10.1067C21.005 10.0779 20.9896 10.0491 20.9737 10.0195C20.9519 9.97565 20.9519 9.97565 20.9296 9.93089C20.7094 9.65723 20.3605 9.56637 20.0417 9.4539C19.9883 9.43472 19.935 9.41553 19.88 9.39577C19.7348 9.34366 19.5895 9.29189 19.4442 9.24024C19.2921 9.18608 19.1401 9.13148 18.9882 9.07689C18.8003 9.00941 18.6125 8.94196 18.4245 8.87467C17.8376 8.66445 17.2517 8.45133 16.6662 8.23718C16.5123 8.18091 16.3584 8.12475 16.2044 8.0686C16.1093 8.03386 16.0142 7.99911 15.9191 7.96434C15.8525 7.94001 15.8525 7.94001 15.7846 7.91519C15.4951 7.80907 15.2074 7.69924 14.9214 7.58412C14.8096 7.53926 14.8096 7.53926 14.672 7.54686ZM3.09383 12.7969C3.08974 14.4313 3.08974 14.4313 3.08697 16.0657C3.08613 16.732 3.08515 17.3983 3.08322 18.0647C3.08182 18.5499 3.08091 19.0352 3.0806 19.5204C3.08042 19.7774 3.07999 20.0344 3.07896 20.2913C3.07801 20.5332 3.07772 20.775 3.07793 21.0169C3.07789 21.1056 3.07761 21.1944 3.07707 21.2832C3.07637 21.4044 3.07654 21.5256 3.07692 21.6468C3.07651 21.6819 3.0761 21.7171 3.07568 21.7532C3.07806 22.0308 3.14304 22.2211 3.33993 22.4179C4.84022 23.3727 6.89365 22.5937 8.67196 22.5937C8.67196 19.3608 8.67196 16.1278 8.67196 12.7969C6.83118 12.7969 4.9904 12.7969 3.09383 12.7969ZM10.1251 12.7969C10.1251 16.0298 10.1251 19.2628 10.1251 22.5937C10.5737 22.5937 11.0223 22.5937 11.4845 22.5937C11.4845 19.3608 11.4845 16.1278 11.4845 12.7969C11.0359 12.7969 10.5873 12.7969 10.1251 12.7969ZM12.9376 12.7969C12.9376 16.0298 12.9376 19.2628 12.9376 22.5937C15.9154 23.0894 15.9154 23.0894 18.3751 22.3154C18.5224 22.0899 18.5224 21.9005 18.5213 21.6362C18.5214 21.601 18.5214 21.5658 18.5215 21.5295C18.5215 21.4116 18.5213 21.2936 18.521 21.1756C18.521 21.0911 18.521 21.0065 18.521 20.922C18.5211 20.6924 18.5208 20.4628 18.5205 20.2332C18.5202 19.9933 18.5201 19.7533 18.5201 19.5134C18.5199 19.059 18.5196 18.6047 18.5191 18.1503C18.5186 17.633 18.5183 17.1158 18.5181 16.5985C18.5176 15.5344 18.5168 14.4703 18.5157 13.4062C18.3907 13.3573 18.2657 13.3085 18.1407 13.2597C18.0898 13.2398 18.0898 13.2398 18.0378 13.2195C16.0941 12.4618 15.9875 12.7969 12.9376 12.7969Z" fill="#F61942"/>
</g>
<defs>
<clipPath id="clip0_701_207">
<rect width="24" height="24" fill="white"/>
</clipPath>
</defs>
</svg>
