<svg width="32" height="32" viewBox="0 0 32 32" fill="none" xmlns="http://www.w3.org/2000/svg">
<g clip-path="url(#clip0_701_849)">
<path d="M8.49173 0.92547C8.54916 0.924959 8.60659 0.924448 8.66576 0.923922C8.85634 0.922367 9.04692 0.921336 9.23751 0.920435C9.33501 0.919936 9.33501 0.919936 9.43448 0.919427C9.77849 0.917756 10.1225 0.916545 10.4665 0.915644C10.8221 0.914603 11.1777 0.911804 11.5333 0.90862C11.8065 0.906519 12.0797 0.905795 12.3528 0.905442C12.4839 0.905022 12.615 0.904068 12.7461 0.902574C12.9296 0.900601 13.113 0.900592 13.2964 0.901056C13.3506 0.900031 13.4048 0.899006 13.4607 0.897949C13.7338 0.900777 13.8421 0.912116 14.0652 1.08451C14.2138 1.28572 14.2241 1.38806 14.218 1.63601C14.217 1.70832 14.216 1.78063 14.2149 1.85513C14.2123 1.93001 14.2097 2.0049 14.207 2.08206C14.2049 2.1962 14.2049 2.1962 14.2027 2.31265C14.199 2.50018 14.1939 2.68757 14.1875 2.87502C14.2667 2.87285 14.3459 2.87067 14.4274 2.86843C14.5336 2.86667 14.6399 2.86497 14.7461 2.86331C14.798 2.86173 14.8499 2.86016 14.9034 2.85855C15.3702 2.8531 15.7526 2.94044 16.1445 3.19924C16.5313 3.60409 16.629 4.01526 16.625 4.56252C16.6863 4.56197 16.7476 4.56141 16.8107 4.56084C17.3883 4.55578 17.9658 4.55203 18.5433 4.54957C18.8402 4.54827 19.1372 4.5465 19.4341 4.54366C19.7206 4.54095 20.0071 4.53945 20.2936 4.53881C20.4029 4.53834 20.5123 4.53744 20.6216 4.53609C20.7747 4.53428 20.9277 4.53403 21.0808 4.53414C21.1487 4.5328 21.1487 4.5328 21.218 4.53142C21.4328 4.53318 21.5425 4.54684 21.7137 4.68149C21.8874 4.91193 21.8826 5.05428 21.8821 5.34185C21.8821 5.38332 21.8821 5.42479 21.8821 5.46752C21.882 5.60482 21.8816 5.74212 21.8811 5.87942C21.8809 5.97453 21.8809 6.06963 21.8808 6.16474C21.8806 6.41524 21.8799 6.66574 21.8793 6.91625C21.8786 7.17179 21.8783 7.42734 21.878 7.68289C21.8773 8.18443 21.8763 8.68598 21.875 9.18752C21.9123 9.19135 21.9497 9.19518 21.9882 9.19912C22.9199 9.2979 23.787 9.58698 24.625 10C24.6971 10.0356 24.7692 10.0711 24.8435 10.1077C25.3032 10.3454 25.713 10.6258 26.125 10.9375C26.2703 11.0424 26.4163 11.1463 26.5625 11.25C27.5142 10.51 27.5142 10.51 28.0412 9.48123C28.0572 9.29222 28.0591 9.11233 28.0494 8.92298C28.0336 8.61248 28.033 8.42907 28.2412 8.18679C28.3261 8.10238 28.4125 8.01939 28.5 7.93752C28.604 7.83098 28.7079 7.72428 28.8117 7.61746C28.9225 7.50653 29.0334 7.39578 29.1445 7.28518C29.2294 7.19992 29.2294 7.19992 29.316 7.11294C29.37 7.059 29.424 7.00506 29.4797 6.94949C29.5286 6.90063 29.5776 6.85177 29.628 6.80143C29.826 6.61651 29.978 6.61164 30.2456 6.59231C30.4543 6.64507 30.5161 6.75715 30.625 6.93752C30.6516 7.15066 30.6516 7.15066 30.6445 7.37893C30.643 7.45442 30.6414 7.52991 30.6399 7.60769C30.6281 7.7699 30.6099 7.90797 30.5625 8.06252C30.6205 8.05221 30.6785 8.0419 30.7382 8.03127C31.1276 7.97814 31.5217 7.92528 31.8867 8.08987C32.0307 8.29348 32.032 8.42221 32.0263 8.66667C31.9797 8.92448 31.8219 9.06152 31.6352 9.2344C31.5981 9.27091 31.5609 9.30742 31.5226 9.34504C31.4043 9.46059 31.2842 9.57402 31.164 9.68752C31.0837 9.7656 31.0034 9.84381 30.9233 9.92214C30.3456 10.4835 30.3456 10.4835 30.1875 10.5625C30.0946 10.5601 30.0018 10.5546 29.9091 10.5476C29.2943 10.5301 28.8194 10.5739 28.3488 11.0017C28.0007 11.3326 27.682 11.6937 27.375 12.0625C27.3986 12.0938 27.4222 12.125 27.4466 12.1572C28.7501 13.8872 29.5313 15.7273 29.5195 17.9219C29.5193 17.9878 29.5193 17.9878 29.5191 18.0551C29.5162 18.7207 29.4843 19.3535 29.3125 20C29.3017 20.0408 29.291 20.0816 29.28 20.1236C28.6451 22.4788 27.1696 24.3912 25.0788 25.6419C24.1626 26.1681 22.9471 26.6875 21.875 26.6875C21.8756 26.7617 21.8756 26.7617 21.8762 26.8373C21.88 27.3035 21.8828 27.7697 21.8847 28.2359C21.8857 28.4756 21.887 28.7153 21.8891 28.955C21.8911 29.1864 21.8923 29.4177 21.8927 29.6491C21.8931 29.7373 21.8938 29.8255 21.8948 29.9137C21.8961 30.0374 21.8962 30.1611 21.8962 30.2849C21.8969 30.3904 21.8969 30.3904 21.8975 30.4981C21.8721 30.7114 21.8148 30.8285 21.6875 31C21.5226 31.0825 21.3997 31.0706 21.2149 31.0709C21.1406 31.0712 21.0663 31.0715 20.9897 31.0718C20.9073 31.0717 20.8249 31.0717 20.74 31.0717C20.6522 31.0719 20.5643 31.0722 20.4765 31.0724C20.2343 31.073 19.992 31.0733 19.7498 31.0734C19.4889 31.0737 19.228 31.0743 18.9671 31.0748C18.3366 31.0761 17.7061 31.0767 17.0756 31.0773C16.779 31.0775 16.4824 31.0779 16.1857 31.0782C15.2 31.0793 14.2144 31.0802 13.2287 31.0806C12.9728 31.0807 12.717 31.0809 12.4611 31.081C12.3657 31.081 12.3657 31.081 12.2683 31.0811C11.2373 31.0816 10.2063 31.0832 9.17525 31.0852C8.11756 31.0873 7.05986 31.0884 6.00216 31.0886C5.40796 31.0887 4.81376 31.0893 4.21956 31.0909C3.71367 31.0922 3.20779 31.0927 2.7019 31.0921C2.44364 31.0918 2.1854 31.092 1.92714 31.0932C1.69089 31.0943 1.45466 31.0942 1.21841 31.0932C1.09209 31.093 0.965773 31.094 0.839461 31.0951C0.764801 31.0946 0.69014 31.094 0.613217 31.0935C0.516348 31.0936 0.516348 31.0936 0.417522 31.0936C0.197928 31.0529 0.126987 30.9957 -4.07174e-05 30.8125C-0.0314499 30.615 -0.0314503 30.615 -0.031676 30.3764C-0.0322491 30.3102 -0.0322491 30.3102 -0.0328338 30.2427C-0.0338128 30.0942 -0.0330027 29.9457 -0.0322072 29.7971C-0.0325399 29.6898 -0.032981 29.5825 -0.0335223 29.4752C-0.0346907 29.1798 -0.034291 28.8845 -0.0336377 28.5891C-0.0332019 28.2707 -0.0342 27.9524 -0.0350129 27.634C-0.0363677 27.0102 -0.0363574 26.3863 -0.0358493 25.7625C-0.0354561 25.2556 -0.0355258 24.7487 -0.0359284 24.2418C-0.0359848 24.1698 -0.0360411 24.0977 -0.0360991 24.0235C-0.0362148 23.8771 -0.0363311 23.7307 -0.0364482 23.5844C-0.0374851 22.2109 -0.0369386 20.8375 -0.0358865 19.464C-0.0349677 18.2064 -0.0358828 16.9489 -0.0376851 15.6913C-0.0395205 14.4011 -0.0402079 13.1109 -0.0396106 11.8207C-0.0395467 11.6749 -0.039485 11.5291 -0.0394246 11.3832C-0.0393948 11.3115 -0.0393647 11.2397 -0.039334 11.1658C-0.0391985 10.6593 -0.0398128 10.1529 -0.0407226 9.64641C-0.0418152 9.02947 -0.0418138 8.41255 -0.0403878 7.79561C-0.0396891 7.48064 -0.039499 7.16569 -0.0406568 6.85072C-0.041702 6.56266 -0.0413177 6.27463 -0.0397689 5.98657C-0.039462 5.88209 -0.0396872 5.77762 -0.040486 5.67315C-0.0414908 5.5316 -0.0405893 5.39019 -0.0391919 5.24864C-0.0391751 5.16989 -0.0391578 5.09114 -0.0391404 5.01C-4.07137e-05 4.81252 -4.1157e-05 4.81252 0.144592 4.66215C0.364371 4.53172 0.553013 4.52919 0.801183 4.53414C0.849387 4.53411 0.897591 4.53407 0.947255 4.53403C1.10588 4.53421 1.26444 4.53615 1.42305 4.53811C1.53331 4.53858 1.64356 4.53893 1.75381 4.53918C2.04348 4.54014 2.33311 4.54259 2.62275 4.54536C2.91853 4.54792 3.21431 4.54906 3.51009 4.55032C4.09006 4.553 4.67001 4.55726 5.24996 4.56252C5.24883 4.52049 5.24769 4.47845 5.24653 4.43514C5.24565 4.37953 5.24476 4.32392 5.24386 4.26663C5.24216 4.18424 5.24216 4.18424 5.24042 4.10018C5.26172 3.737 5.44236 3.47332 5.70308 3.23049C6.1041 2.88407 6.55823 2.8482 7.06246 2.86331C7.14403 2.86457 7.14403 2.86457 7.22725 2.86587C7.35984 2.86805 7.4924 2.87142 7.62496 2.87502C7.62398 2.82933 7.623 2.78363 7.62198 2.73655C7.61808 2.52881 7.61564 2.32107 7.61324 2.11331C7.61167 2.0414 7.6101 1.9695 7.60848 1.89541C7.60788 1.82592 7.60727 1.75643 7.60665 1.68484C7.60567 1.62102 7.60469 1.55719 7.60367 1.49143C7.62839 1.28373 7.68947 1.16769 7.81246 1.00002C8.02267 0.894922 8.26046 0.926599 8.49173 0.92547ZM8.68746 2.00002C8.68746 2.66002 8.68746 3.32002 8.68746 4.00002C10.1518 4.00002 11.6162 4.00002 13.125 4.00002C13.125 3.34002 13.125 2.68002 13.125 2.00002C11.6606 2.00002 10.1962 2.00002 8.68746 2.00002ZM6.31246 4.18752C6.31246 5.30127 6.31246 6.41502 6.31246 7.56252C9.36496 7.56252 12.4175 7.56252 15.5625 7.56252C15.5625 6.4694 15.5625 5.37628 15.5625 4.25002C15.3049 3.94028 15.3049 3.94028 15.1169 3.90205C15.0526 3.9045 15.0526 3.9045 14.987 3.90701C14.9166 3.90852 14.9166 3.90852 14.8448 3.91006C14.7968 3.91268 14.7487 3.9153 14.6992 3.91799C14.6499 3.9194 14.6006 3.92081 14.5499 3.92227C14.429 3.92593 14.3082 3.93153 14.1875 3.93752C14.1837 3.994 14.1799 4.05048 14.176 4.10867C14.1681 4.21924 14.1681 4.21924 14.1601 4.33206C14.1525 4.44191 14.1525 4.44191 14.1447 4.55398C14.125 4.75002 14.125 4.75002 14.0625 4.93752C13.8068 5.03305 13.5305 5.00974 13.2612 5.0101C13.2056 5.01041 13.15 5.01072 13.0927 5.01104C12.9088 5.01195 12.725 5.01237 12.5412 5.01272C12.4134 5.01308 12.2856 5.01344 12.1578 5.0138C11.8899 5.01446 11.622 5.01482 11.3541 5.01504C11.0108 5.01538 10.6676 5.01688 10.3243 5.01866C10.0603 5.01983 9.79638 5.02015 9.53242 5.02025C9.40586 5.02044 9.27929 5.02094 9.15273 5.02176C8.97574 5.02283 8.79879 5.02271 8.6218 5.0223C8.56955 5.02288 8.5173 5.02345 8.46347 5.02405C8.17447 5.02197 7.98468 5.00032 7.74996 4.81252C7.66553 4.64366 7.6663 4.49264 7.6523 4.30471C7.64445 4.20199 7.64445 4.20199 7.63643 4.09719C7.63265 4.0445 7.62886 3.99181 7.62496 3.93752C7.45302 3.93077 7.28134 3.92582 7.10933 3.9219C7.06075 3.91981 7.01217 3.91771 6.96212 3.91555C6.91499 3.91475 6.86786 3.91394 6.8193 3.91311C6.77609 3.9118 6.73289 3.91049 6.68837 3.90914C6.52019 3.93527 6.52019 3.93527 6.31246 4.18752ZM0.999959 5.62502C0.999959 13.6688 0.999959 21.7125 0.999959 30C7.53808 30 14.0762 30 20.8125 30C20.8125 28.9275 20.8125 27.855 20.8125 26.75C20.4825 26.7294 20.1525 26.7088 19.8125 26.6875C19.8108 26.829 19.8092 26.9705 19.8076 27.1162C19.8052 27.2536 19.8024 27.3909 19.7995 27.5283C19.7977 27.6236 19.7964 27.7189 19.7955 27.8142C19.7942 27.9514 19.7913 28.0884 19.788 28.2256C19.7861 28.3493 19.7861 28.3493 19.7841 28.4755C19.75 28.6875 19.75 28.6875 19.6654 28.8238C19.4005 29.0059 19.1327 28.9717 18.8187 28.9689C18.7484 28.9692 18.6781 28.9695 18.6057 28.9699C18.3694 28.9708 18.1331 28.9698 17.8968 28.9689C17.7277 28.969 17.5587 28.9695 17.3896 28.9699C16.9776 28.9708 16.5655 28.9703 16.1535 28.9694C15.6739 28.9683 15.1943 28.9685 14.7147 28.9687C13.8592 28.9691 13.0036 28.9682 12.1481 28.9667C11.3175 28.9652 10.4868 28.9647 9.65616 28.9654C8.75209 28.9661 7.84801 28.9662 6.94394 28.9653C6.84759 28.9652 6.75124 28.9651 6.65489 28.965C6.60748 28.965 6.56008 28.965 6.51123 28.9649C6.17672 28.9646 5.84221 28.9647 5.5077 28.965C5.10023 28.9653 4.69278 28.9649 4.28532 28.9637C4.07732 28.9631 3.86934 28.9628 3.66134 28.9632C3.43615 28.9636 3.21101 28.9628 2.98583 28.9618C2.88659 28.9623 2.88659 28.9623 2.78535 28.9629C2.72526 28.9624 2.66517 28.9618 2.60326 28.9613C2.55125 28.9612 2.49925 28.9612 2.44567 28.9611C2.28088 28.9319 2.22771 28.8794 2.12496 28.75C2.0419 28.5839 2.05454 28.4587 2.05442 28.2726C2.05422 28.1972 2.05402 28.1218 2.05381 28.0441C2.0539 27.9596 2.054 27.8752 2.0541 27.7907C2.05399 27.7016 2.05384 27.6124 2.05367 27.5233C2.05329 27.2775 2.0533 27.0317 2.05337 26.7859C2.05339 26.5212 2.05304 26.2564 2.05274 25.9917C2.05222 25.4727 2.05205 24.9537 2.05202 24.4346C2.05199 24.0129 2.05186 23.5912 2.05166 23.1695C2.05111 21.9748 2.05082 20.7801 2.05087 19.5855C2.05087 19.521 2.05088 19.4565 2.05088 19.3901C2.05088 19.3256 2.05088 19.2611 2.05089 19.1946C2.05091 18.1484 2.05031 17.1022 2.04943 16.056C2.04853 14.9828 2.0481 13.9095 2.04816 12.8363C2.04818 12.2334 2.048 11.6304 2.04733 11.0275C2.04676 10.5142 2.04663 10.0009 2.04705 9.48754C2.04726 9.22549 2.04726 8.96344 2.04672 8.70139C2.04623 8.46167 2.04631 8.22196 2.04686 7.98224C2.04696 7.89535 2.04684 7.80845 2.04649 7.72156C2.04606 7.60376 2.04646 7.48596 2.0469 7.36816C2.04689 7.30263 2.04688 7.23711 2.04686 7.16959C2.06277 6.99663 2.09281 6.89458 2.18746 6.75002C2.33582 6.67584 2.4307 6.67779 2.5963 6.67469C2.68451 6.67282 2.68451 6.67282 2.77449 6.67091C2.8381 6.66987 2.90171 6.66883 2.96724 6.66775C3.03227 6.66645 3.09729 6.66515 3.16429 6.66381C3.37253 6.65972 3.58077 6.65604 3.78902 6.65237C3.92997 6.64967 4.07092 6.64694 4.21187 6.64419C4.5579 6.63749 4.90393 6.63116 5.24996 6.62502C5.24996 6.29502 5.24996 5.96502 5.24996 5.62502C3.84746 5.62502 2.44496 5.62502 0.999959 5.62502ZM16.625 5.62502C16.625 5.95502 16.625 6.28502 16.625 6.62502C16.7107 6.62561 16.7965 6.62619 16.8849 6.62679C17.2031 6.62929 17.5213 6.6334 17.8396 6.63799C17.9773 6.63976 18.115 6.64108 18.2528 6.64196C18.4508 6.6433 18.6487 6.64621 18.8466 6.64944C18.9082 6.64952 18.9698 6.64959 19.0333 6.64967C19.4507 6.65861 19.4507 6.65861 19.6634 6.78347C19.7846 6.99913 19.7876 7.19924 19.788 7.44045C19.7891 7.48865 19.7901 7.53685 19.7912 7.58652C19.7942 7.73998 19.7955 7.89341 19.7968 8.0469C19.7986 8.15115 19.8005 8.2554 19.8025 8.35964C19.8073 8.61479 19.8098 8.86981 19.8125 9.12502C20.1425 9.12502 20.4725 9.12502 20.8125 9.12502C20.8125 7.97003 20.8125 6.81502 20.8125 5.62502C19.4306 5.62502 18.0487 5.62502 16.625 5.62502ZM3.06246 7.68752C3.06246 14.37 3.06246 21.0525 3.06246 27.9375C8.23933 27.9375 13.4162 27.9375 18.75 27.9375C18.75 27.4632 18.75 26.9888 18.75 26.5C18.5708 26.451 18.3916 26.4021 18.207 26.3516C17.7237 26.2111 17.2671 26.0362 16.8125 25.8203C16.7611 25.7962 16.7097 25.7721 16.6568 25.7472C16.4348 25.6386 16.2317 25.5381 16.0433 25.3758C15.4233 24.8612 14.7605 24.9336 13.9921 24.9441C13.8523 24.9441 13.7124 24.9439 13.5726 24.9434C13.2065 24.9427 12.8404 24.9448 12.4743 24.9476C11.8867 24.9518 11.299 24.952 10.7114 24.9516C10.5064 24.9519 10.3015 24.9536 10.0965 24.9555C9.97129 24.9559 9.8461 24.9563 9.72091 24.9566C9.66396 24.9575 9.60701 24.9584 9.54833 24.9593C9.32411 24.959 9.16746 24.9586 8.96467 24.858C8.84062 24.7087 8.84467 24.5663 8.84176 24.3772C8.89125 24.1876 8.97024 24.12 9.12496 24C9.29751 23.9748 9.44552 23.9647 9.61806 23.9659C9.66748 23.9653 9.71689 23.9646 9.7678 23.9639C9.93081 23.9621 10.0938 23.962 10.2568 23.9619C10.3699 23.961 10.4831 23.96 10.5962 23.9588C10.8938 23.9561 11.1913 23.9548 11.4889 23.9539C11.7926 23.9527 12.0964 23.95 12.4001 23.9475C12.9959 23.9428 13.5917 23.9397 14.1875 23.9375C14.0626 23.7253 13.9332 23.539 13.7734 23.3516C13.2047 22.6472 12.7243 21.7981 12.4375 20.9375C12.3956 20.9372 12.3537 20.9368 12.3106 20.9364C11.8756 20.9324 11.4407 20.9271 11.0058 20.9211C10.8434 20.919 10.681 20.9173 10.5186 20.9159C10.2854 20.9138 10.0522 20.9105 9.81905 20.907C9.74619 20.9066 9.67334 20.9062 9.59827 20.9058C9.49694 20.9039 9.49694 20.9039 9.39356 20.902C9.33402 20.9014 9.27448 20.9007 9.21313 20.8999C9.03699 20.8708 8.98076 20.8288 8.87496 20.6875C8.85006 20.5664 8.85006 20.5664 8.85152 20.4375C8.8508 20.3737 8.8508 20.3737 8.85006 20.3086C8.88286 20.1491 8.93533 20.1006 9.06246 20C9.20127 19.9751 9.20127 19.9751 9.36487 19.973C9.42617 19.9718 9.48747 19.9705 9.55063 19.9693C9.64966 19.9687 9.64966 19.9687 9.75069 19.968C9.8184 19.9669 9.88611 19.9658 9.95587 19.9646C10.1724 19.9613 10.3889 19.9591 10.6054 19.9571C10.7521 19.955 10.8988 19.9528 11.0455 19.9506C11.4053 19.9453 11.7651 19.941 12.125 19.9375C12.1193 19.9006 12.1137 19.8636 12.1079 19.8256C11.9993 19.1009 11.9083 18.398 11.9257 17.6641C11.9266 17.5928 11.9274 17.5215 11.9283 17.448C11.9304 17.2778 11.9335 17.1077 11.9375 16.9375C11.9028 16.9373 11.8681 16.9371 11.8324 16.9368C11.4714 16.9342 11.1105 16.9299 10.7496 16.9246C10.6149 16.9228 10.4802 16.9215 10.3454 16.9206C10.1518 16.9193 9.95823 16.9163 9.76461 16.9131C9.70438 16.913 9.64415 16.913 9.58209 16.9129C9.16411 16.9037 9.16411 16.9037 8.96206 16.7556C8.81216 16.5309 8.84119 16.391 8.87496 16.125C9.05142 15.9494 9.18389 15.9137 9.42873 15.9105C9.48877 15.9093 9.54882 15.908 9.61068 15.9068C9.70718 15.9062 9.70718 15.9062 9.80562 15.9055C9.87186 15.9044 9.93809 15.9033 10.0063 15.9021C10.2177 15.8988 10.4292 15.8966 10.6406 15.8946C10.784 15.8925 10.9274 15.8903 11.0708 15.8881C11.4222 15.8828 11.7735 15.8785 12.125 15.875C12.1383 15.8336 12.1517 15.7923 12.1654 15.7496C12.4507 14.8687 12.7899 14.0594 13.2431 13.2511C13.3113 13.1272 13.3746 13.0016 13.4375 12.875C13.3831 12.8747 13.3287 12.8743 13.2726 12.8739C12.7604 12.8703 12.2481 12.8658 11.7359 12.8603C11.4725 12.8575 11.2092 12.855 10.9458 12.8534C10.6917 12.8517 10.4376 12.8492 10.1835 12.8461C10.0865 12.845 9.98953 12.8443 9.89252 12.8439C9.75677 12.8433 9.62109 12.8416 9.48536 12.8395C9.40805 12.8389 9.33075 12.8382 9.2511 12.8374C9.06246 12.8125 9.06246 12.8125 8.94383 12.7247C8.81695 12.5411 8.8411 12.3384 8.87496 12.125C8.97142 11.9891 9.03975 11.9489 9.18746 11.875C9.34885 11.87 9.50855 11.8687 9.66991 11.8701C9.77318 11.8705 9.87645 11.8709 9.97971 11.8712C10.0346 11.8715 10.0895 11.8718 10.1461 11.8721C10.4367 11.8733 10.7274 11.8724 11.018 11.8717C11.388 11.871 11.7578 11.8709 12.1278 11.8735C12.4266 11.8756 12.7254 11.8753 13.0242 11.8733C13.1379 11.873 13.2515 11.8736 13.3652 11.8751C13.9839 11.9007 13.9839 11.9007 14.5523 11.7029C14.6766 11.5792 14.7746 11.4557 14.875 11.3125C15.8764 10.3743 17.2489 9.71596 18.5749 9.40457C18.688 9.385 18.688 9.385 18.75 9.31252C18.7554 9.19211 18.7566 9.07149 18.7561 8.95095C18.7558 8.85221 18.7558 8.85221 18.7556 8.75147C18.755 8.66721 18.7545 8.58294 18.7539 8.49612C18.7519 8.09586 18.7519 8.09586 18.75 7.68752C18.0487 7.68752 17.3475 7.68752 16.625 7.68752C16.5837 7.9144 16.5425 8.14127 16.5 8.37502C16.3211 8.55389 16.199 8.51592 15.9483 8.51632C15.9039 8.51656 15.8596 8.5168 15.8138 8.51704C15.6644 8.51769 15.5149 8.51744 15.3655 8.51719C15.2586 8.51746 15.1517 8.51779 15.0449 8.51816C14.7541 8.519 14.4633 8.51903 14.1725 8.51887C13.93 8.51881 13.6876 8.51911 13.4451 8.51941C12.8732 8.52011 12.3014 8.52013 11.7295 8.51975C11.1389 8.51938 10.5483 8.52015 9.95768 8.52148C9.4512 8.52258 8.94473 8.52295 8.43825 8.52275C8.13549 8.52264 7.83273 8.5228 7.52997 8.52367C7.24531 8.52445 6.96066 8.52434 6.676 8.52352C6.57136 8.52337 6.46672 8.52354 6.36209 8.52406C6.21955 8.52471 6.07706 8.52421 5.93452 8.52341C5.85466 8.52342 5.7748 8.52343 5.69252 8.52345C5.49996 8.50002 5.49996 8.50002 5.31246 8.31252C5.29183 8.10627 5.27121 7.90002 5.24996 7.68752C4.52808 7.68752 3.80621 7.68752 3.06246 7.68752ZM29.1965 8.69314C29.0433 8.94875 29.0676 9.27164 29.0625 9.56252C29.3623 9.57452 29.6008 9.56545 29.875 9.43752C30.0227 9.28167 30.0227 9.28167 30.125 9.12502C30.0554 9.10698 29.9857 9.08893 29.914 9.07034C29.6875 9.00002 29.6875 9.00002 29.5625 8.87502C29.5376 8.75076 29.5163 8.62568 29.5 8.50002C29.3684 8.50002 29.2841 8.60656 29.1965 8.69314ZM18.625 10.4375C18.5831 10.4486 18.5412 10.4596 18.498 10.471C17.3222 10.791 16.1346 11.4705 15.3125 12.375C15.2635 12.4227 15.2145 12.4704 15.164 12.5196C15.1099 12.575 15.0557 12.6304 15 12.6875C14.9603 12.7267 14.9207 12.7658 14.8798 12.8062C13.5129 14.2264 12.8977 16.2401 12.9282 18.1792C12.9859 20.21 13.8577 21.9918 15.25 23.4375C15.2863 23.4778 15.3226 23.5181 15.3601 23.5596C16.5548 24.8476 18.473 25.6017 20.2066 25.6953C22.2295 25.7606 24.1315 25.1939 25.6875 23.875C25.7193 23.8485 25.751 23.8219 25.7838 23.7945C27.2364 22.5708 28.2426 20.7102 28.4375 18.8125C28.541 16.6876 28.118 14.724 26.7465 13.0528C26.6302 12.916 26.6302 12.916 26.4375 12.9375C26.3122 13.0367 26.3122 13.0367 26.1867 13.1699C26.1394 13.2179 26.0921 13.2658 26.0433 13.3152C25.9942 13.3659 25.9451 13.4166 25.8945 13.4688C25.8447 13.5195 25.7948 13.5701 25.7435 13.6223C25.6202 13.7478 25.4974 13.8737 25.375 14C25.4608 14.2239 25.5521 14.3926 25.6992 14.5821C26.5992 15.8477 26.8544 17.5156 26.6093 19.0252C26.2917 20.5486 25.4815 21.9708 24.1768 22.8583C22.7514 23.7799 21.0828 24.1201 19.4055 23.8078C17.8479 23.4596 16.4888 22.5203 15.6311 21.1741C14.8081 19.8358 14.5157 18.2004 14.8203 16.6524C14.8559 16.5173 14.8951 16.3831 14.9375 16.25C14.9495 16.2112 14.9616 16.1724 14.9741 16.1324C15.4707 14.5744 16.5015 13.3284 17.9571 12.5693C19.4052 11.853 21.0988 11.7432 22.6328 12.2397C23.3131 12.4744 23.9262 12.8151 24.5 13.25C24.7036 13.1609 24.8376 13.0521 24.9931 12.8941C25.0596 12.827 25.0596 12.827 25.1274 12.7586C25.173 12.7119 25.2186 12.6653 25.2656 12.6172C25.3122 12.5701 25.3587 12.5229 25.4067 12.4744C25.5214 12.3582 25.6358 12.2418 25.75 12.125C25.5613 11.8621 25.3467 11.6865 25.0781 11.5117C25.0368 11.4848 24.9956 11.4579 24.9531 11.4301C23.0566 10.2161 20.8094 9.84639 18.625 10.4375ZM17.5 14.125C17.4456 14.1659 17.4456 14.1659 17.3901 14.2075C16.4796 14.9148 15.8956 16.1234 15.75 17.25C15.6334 18.6049 15.9002 19.8702 16.7421 20.961C16.8266 21.0587 16.9125 21.155 17 21.25C17.0468 21.3026 17.0936 21.3551 17.1418 21.4092C17.7123 22.0175 18.4052 22.4111 19.1875 22.6875C19.2406 22.7075 19.2936 22.7275 19.3483 22.7481C20.4869 23.1071 21.8229 22.9236 22.8867 22.4297C24.156 21.751 25.0487 20.7077 25.5022 19.3399C25.8711 18.0253 25.7105 16.693 25.0625 15.5C24.9269 15.2827 24.7838 15.0759 24.625 14.875C24.4213 14.9642 24.2873 15.073 24.1318 15.231C24.0653 15.2981 24.0653 15.2981 23.9975 15.3665C23.9519 15.4131 23.9063 15.4598 23.8593 15.5078C23.8128 15.555 23.7662 15.6021 23.7182 15.6507C23.6035 15.7668 23.4891 15.8833 23.375 16C23.4924 16.2952 23.6169 16.5871 23.7424 16.8789C24.0282 17.6279 23.9476 18.5912 23.625 19.3125C23.1698 20.186 22.5487 20.7124 21.6206 21.0127C20.6996 21.2632 19.8234 21.1145 18.9887 20.6699C18.214 20.1978 17.7857 19.493 17.5625 18.625C17.3823 17.6895 17.5711 16.8718 18.0625 16.0625C18.5456 15.3978 19.2442 14.943 20.0532 14.7757C20.877 14.6683 21.6794 14.7275 22.3789 15.2005C22.499 15.2658 22.499 15.2658 22.6173 15.2051C22.7651 15.1159 22.8721 15.0171 22.9931 14.8941C23.0374 14.8494 23.0817 14.8046 23.1274 14.7586C23.173 14.7119 23.2186 14.6653 23.2656 14.6172C23.3122 14.5701 23.3587 14.5229 23.4067 14.4744C23.5214 14.3582 23.6358 14.2418 23.75 14.125C23.55 13.6723 22.9579 13.452 22.5122 13.2776C20.7656 12.6658 18.9333 12.9148 17.5 14.125ZM18.8867 16.6328C18.5653 17.1272 18.4109 17.762 18.5317 18.3391C18.6803 18.9019 18.9709 19.393 19.4375 19.75C20.0521 20.0874 20.6251 20.2381 21.3164 20.0547C21.9395 19.8454 22.4053 19.4441 22.707 18.8633C22.937 18.3869 22.9634 17.8106 22.8191 17.3037C22.7598 17.1572 22.6974 17.0155 22.625 16.875C22.3907 16.9723 22.2444 17.1171 22.0678 17.2971C22.01 17.3557 21.9521 17.4142 21.8925 17.4745C21.832 17.5364 21.7714 17.5983 21.7109 17.6602C21.5918 17.7816 21.4724 17.9027 21.353 18.0237C21.2739 18.1045 21.2739 18.1045 21.1932 18.1869C21.0069 18.366 20.9587 18.3737 20.6914 18.3906C20.537 18.3873 20.4517 18.3821 20.3125 18.3125C20.2034 18.0945 20.1848 17.9182 20.25 17.6875C20.408 17.4519 20.6101 17.2598 20.8125 17.0625C20.9376 16.9387 21.0625 16.8147 21.1873 16.6905C21.2728 16.6057 21.3587 16.5214 21.445 16.4376C21.4845 16.3989 21.524 16.3602 21.5647 16.3203C21.6004 16.2857 21.636 16.251 21.6728 16.2154C21.7635 16.129 21.7635 16.129 21.75 16C20.7284 15.4835 19.61 15.7468 18.8867 16.6328Z" fill="white"/>
<path d="M7.75 10.75C7.92714 10.8929 7.93806 11.0027 7.98438 11.2266C7.96604 11.5842 7.7204 11.7861 7.47675 12.0249C7.3569 12.1428 7.23928 12.2628 7.12158 12.3828C6.94577 12.5612 6.76972 12.7393 6.59229 12.916C6.55495 12.9533 6.51762 12.9906 6.47916 13.029C6.2703 13.2216 6.10994 13.2894 5.82373 13.2815C5.54833 13.2178 5.37676 13.0112 5.1875 12.8125C5.14504 12.7713 5.10258 12.73 5.05884 12.6875C4.86251 12.4853 4.76021 12.3627 4.70312 12.0821C4.76355 11.8152 4.83898 11.7195 5.0625 11.5625C5.28048 11.5229 5.42008 11.5117 5.61133 11.6333C5.70328 11.7092 5.78966 11.7918 5.875 11.875C6.07751 11.7865 6.20858 11.6799 6.36157 11.5213C6.40504 11.4768 6.4485 11.4324 6.49329 11.3866C6.53804 11.3403 6.5828 11.2939 6.62891 11.2461C6.71788 11.1539 6.80715 11.0621 6.89673 10.9705C6.93605 10.9297 6.97537 10.8889 7.01588 10.8469C7.24908 10.6398 7.46302 10.6834 7.75 10.75Z" fill="white"/>
<path d="M7.8125 18.8752C7.94303 19.071 7.97552 19.1939 7.96877 19.4281C7.93028 19.5938 7.86878 19.6664 7.75366 19.791C7.71394 19.8342 7.67421 19.8775 7.63329 19.9221C7.5893 19.9685 7.54532 20.0149 7.5 20.0627C7.45372 20.112 7.40744 20.1614 7.35976 20.2122C7.21019 20.3697 7.05852 20.525 6.90625 20.6799C6.85525 20.7332 6.80425 20.7866 6.75171 20.8415C6.25313 21.3473 6.25313 21.3473 5.875 21.3752C5.56501 21.2716 5.35886 21.0719 5.13672 20.84C5.10614 20.8091 5.07557 20.7782 5.04407 20.7464C4.75494 20.4509 4.75494 20.4509 4.73828 20.1955C4.74985 20.0027 4.76385 19.9058 4.875 19.7502C5.03954 19.6222 5.12868 19.6253 5.33984 19.633C5.57902 19.6918 5.69734 19.7708 5.875 19.9377C6.06972 19.8517 6.19717 19.7537 6.34351 19.5998C6.40363 19.5378 6.40363 19.5378 6.46497 19.4746C6.5481 19.3876 6.63111 19.3005 6.71399 19.2133C7.07684 18.8399 7.28893 18.6677 7.8125 18.8752Z" fill="white"/>
<path d="M7.46191 14.7119C7.6875 14.7502 7.6875 14.7502 7.84375 14.8401C7.98278 15.0776 7.98488 15.2936 7.9375 15.5627C7.84167 15.7319 7.71468 15.8532 7.57275 15.9846C7.53559 16.0211 7.49844 16.0576 7.46015 16.0953C7.34188 16.2108 7.22179 16.3242 7.10156 16.4377C7.0212 16.5158 6.94095 16.594 6.86084 16.6724C6.22048 17.2946 6.22048 17.2946 5.96094 17.344C5.63896 17.2963 5.47539 17.0989 5.25 16.8752C5.20811 16.835 5.16621 16.7947 5.12305 16.7532C4.75954 16.3986 4.75954 16.3986 4.73047 16.137C4.7556 15.8806 4.80123 15.7901 5 15.6252C5.19636 15.5798 5.36614 15.5798 5.5625 15.6252C5.75391 15.7815 5.75391 15.7815 5.875 15.9377C6.0849 15.8477 6.21092 15.7361 6.36426 15.5681C6.40913 15.5206 6.45401 15.473 6.50024 15.4241C6.59362 15.324 6.68624 15.2233 6.77808 15.1218C7.16383 14.7175 7.16383 14.7175 7.46191 14.7119Z" fill="white"/>
<path d="M7.625 22.8127C7.80469 22.9025 7.80469 22.9025 7.9375 23.0627C7.9863 23.297 7.9926 23.5282 7.87233 23.7399C7.77829 23.8504 7.67919 23.9485 7.57275 24.0471C7.53559 24.0836 7.49844 24.1201 7.46015 24.1577C7.34188 24.2733 7.22179 24.3867 7.10156 24.5002C7.0212 24.5783 6.94095 24.6565 6.86084 24.7348C6.2164 25.361 6.2164 25.361 5.92725 25.406C5.58659 25.3622 5.45209 25.1912 5.22656 24.9455C5.18733 24.9048 5.14809 24.8641 5.10767 24.8222C4.76121 24.4593 4.76121 24.4593 4.72656 24.1994C4.75 24.0002 4.75 24.0002 4.87891 23.8205C5.0625 23.6877 5.0625 23.6877 5.27734 23.6486C5.56601 23.6993 5.66774 23.798 5.875 24.0002C6.07756 23.9115 6.2099 23.8044 6.36377 23.6464C6.40752 23.602 6.45126 23.5576 6.49634 23.5118C6.54137 23.4654 6.58641 23.4191 6.63281 23.3713C6.72268 23.2793 6.81268 23.1874 6.90283 23.0957C6.94248 23.0549 6.98213 23.0141 7.02298 22.9721C7.2146 22.7901 7.3663 22.7873 7.625 22.8127Z" fill="white"/>
</g>
<defs>
<clipPath id="clip0_701_849">
<rect width="32" height="32" fill="white"/>
</clipPath>
</defs>
</svg>
