<svg width="24" height="24" viewBox="0 0 24 24" fill="none" xmlns="http://www.w3.org/2000/svg">
<g clip-path="url(#clip0_701_1797)">
<path d="M9.17859 0.313367C9.67678 0.674804 9.73034 1.22012 9.83377 1.78986C9.85256 1.89328 9.87182 1.99661 9.89114 2.09993C9.98425 2.6033 9.98425 2.6033 9.98425 2.76552C10.0532 2.76473 10.0532 2.76473 10.1236 2.76394C10.5567 2.75919 10.9899 2.75567 11.423 2.75337C11.6457 2.75215 11.8684 2.75049 12.0911 2.74783C12.306 2.74529 12.5208 2.74389 12.7357 2.74328C12.8177 2.74285 12.8997 2.742 12.9817 2.74074C13.0966 2.73904 13.2113 2.7388 13.3262 2.73891C13.3601 2.73807 13.3941 2.73722 13.429 2.73635C13.6041 2.73815 13.6739 2.7526 13.8024 2.87544C13.8914 3.02833 13.8965 3.12346 13.8932 3.29963C13.8923 3.38415 13.8923 3.38415 13.8914 3.47038C13.889 3.55798 13.889 3.55798 13.8866 3.64735C13.8857 3.70666 13.8849 3.76597 13.884 3.82707C13.8818 3.97325 13.8787 4.11937 13.8749 4.26552C14.1142 4.26927 14.3533 4.27021 14.5927 4.26866C14.6739 4.26852 14.7552 4.26912 14.8364 4.27049C15.3184 4.28891 15.3184 4.28891 15.7576 4.12468C16.0086 3.8765 16.0831 3.72632 16.0879 3.37562C16.0892 3.30885 16.0905 3.24208 16.0919 3.17531C16.0938 3.07019 16.0956 2.96508 16.0968 2.85995C16.0981 2.75838 16.1003 2.65686 16.1025 2.55531C16.1035 2.49454 16.1044 2.43377 16.1054 2.37115C16.1297 2.16105 16.1922 2.00033 16.3375 1.84468C16.6437 1.61051 16.856 1.62894 17.2352 1.62587C17.2902 1.62451 17.3451 1.62315 17.4018 1.62175C17.7196 1.61941 17.9381 1.62142 18.1874 1.82802C18.471 2.15162 18.3974 2.59861 18.3908 3.00501C18.3773 3.52363 18.3773 3.52363 18.6303 3.96178C18.6663 3.99611 18.6663 3.99611 18.703 4.03114C18.7347 4.06758 18.7663 4.10401 18.7989 4.14155C18.8526 4.19924 18.9063 4.25686 18.9601 4.3144C19.1213 4.52254 19.1397 4.72526 19.1542 4.98329C19.1594 5.07148 19.1594 5.07148 19.1648 5.16145C19.1671 5.2061 19.1694 5.25076 19.1717 5.29677C19.1878 5.27689 19.2039 5.25701 19.2205 5.23652C19.5194 4.90153 19.9493 4.67321 20.3905 4.59364C20.3893 4.53949 20.388 4.48534 20.3868 4.42954C20.3825 4.22819 20.3798 4.02684 20.3776 3.82546C20.3764 3.73838 20.3748 3.65131 20.3728 3.56426C20.37 3.43893 20.3686 3.31366 20.3676 3.18831C20.3664 3.14953 20.3652 3.11075 20.3639 3.0708C20.3638 2.8679 20.3719 2.78956 20.5003 2.62373C20.6249 2.53114 20.6249 2.53114 20.7655 2.50184C20.9574 2.54183 21.0189 2.61297 21.1405 2.76552C21.164 2.89909 21.1754 3.00728 21.1757 3.14052C21.1806 3.34859 21.1899 3.54586 21.2342 3.74989C21.2477 3.71176 21.2477 3.71176 21.2615 3.67285C21.3551 3.408 21.4495 3.14343 21.5444 2.879C21.5797 2.78031 21.6148 2.68155 21.6497 2.58273C21.6999 2.44059 21.7508 2.29872 21.8019 2.15687C21.825 2.09065 21.825 2.09065 21.8487 2.02309C21.9924 1.62743 21.9924 1.62743 22.1717 1.49989C22.3548 1.47373 22.4554 1.47252 22.6141 1.5702C22.7158 1.73282 22.7079 1.87738 22.6874 2.06239C22.6471 2.22242 22.5913 2.3752 22.5336 2.52968C22.518 2.57284 22.5024 2.61601 22.4863 2.66049C22.4367 2.79727 22.3863 2.93373 22.3358 3.0702C22.3019 3.16332 22.268 3.25646 22.2342 3.34962C22.1515 3.57703 22.0681 3.80415 21.9842 4.03114C22.1026 3.91349 22.2195 3.79579 22.3325 3.67299C22.3703 3.63262 22.4082 3.59226 22.4471 3.55067C22.4847 3.50982 22.5223 3.46898 22.561 3.42689C22.716 3.30559 22.8205 3.28771 23.0155 3.28114C23.1532 3.34852 23.1532 3.34852 23.2499 3.46864C23.2766 3.68751 23.2838 3.82498 23.1466 4.00239C23.0999 4.05483 23.0523 4.10638 23.0038 4.15712C22.9788 4.18468 22.9538 4.21224 22.9281 4.24064C22.8487 4.32788 22.7681 4.41387 22.6874 4.49989C22.6331 4.55908 22.5789 4.61834 22.5248 4.67769C22.3924 4.82246 22.259 4.96612 22.1249 5.10927C22.2126 5.33938 22.3243 5.55438 22.4371 5.77302C22.7235 6.38012 22.5144 7.01257 22.3052 7.6066C22.2615 7.72759 22.2171 7.84826 22.1717 7.96864C22.2423 7.9693 22.2423 7.9693 22.3143 7.96997C22.4895 7.97184 22.6646 7.97493 22.8398 7.97837C22.9155 7.97969 22.9912 7.98068 23.0669 7.98134C23.176 7.98235 23.2849 7.98454 23.394 7.98695C23.4276 7.98701 23.4613 7.98707 23.496 7.98713C23.7261 7.9938 23.8383 8.04065 23.9999 8.20302C24.0292 8.32627 24.0292 8.32627 24.0293 8.46914C24.0302 8.55054 24.0302 8.55054 24.0311 8.63359C24.0306 8.69295 24.03 8.75232 24.0295 8.81349C24.0297 8.8768 24.03 8.9401 24.0305 9.00341C24.0313 9.17535 24.0307 9.34726 24.0298 9.5192C24.029 9.69955 24.0295 9.87989 24.0297 10.0602C24.0299 10.3635 24.0292 10.6668 24.0279 10.97C24.0264 11.3195 24.0264 11.6689 24.0272 12.0184C24.0279 12.3554 24.0276 12.6924 24.0268 13.0295C24.0265 13.1724 24.0265 13.3153 24.0269 13.4582C24.0272 13.6272 24.0266 13.7962 24.0254 13.9652C24.0249 14.0559 24.0253 14.1466 24.0258 14.2372C24.0197 14.8044 23.8719 15.2509 23.5311 15.703C23.5041 15.7436 23.477 15.7842 23.4491 15.8261C23.0484 16.249 22.5393 16.4594 21.9737 16.543C21.9257 16.5505 21.8778 16.5581 21.8284 16.5658C21.6617 16.5916 21.4949 16.6162 21.328 16.6405C21.2973 16.645 21.2665 16.6495 21.2348 16.6541C20.7231 16.7288 20.2108 16.8002 19.6986 16.8713C19.4863 16.9007 19.2741 16.9303 19.0619 16.9599C18.7034 17.0099 18.3449 17.0598 17.9864 17.1096C17.6264 17.1596 17.2665 17.2096 16.9065 17.2598C16.8628 17.2659 16.819 17.272 16.7739 17.2783C16.6857 17.2906 16.5976 17.3029 16.5094 17.3152C15.9399 17.3945 15.3703 17.4739 14.8008 17.5527C14.7578 17.5586 14.7149 17.5645 14.6706 17.5707C14.3225 17.6188 14.3225 17.6188 14.1538 17.6422C13.6074 17.7177 13.0612 17.7942 12.5151 17.8717C12.2377 17.9111 11.9602 17.95 11.6827 17.9889C11.4986 18.0147 11.3146 18.0406 11.1306 18.0672C9.24968 18.3379 9.24968 18.3379 8.58386 18.1434C8.55347 18.1349 8.52307 18.1263 8.49176 18.1175C8.41091 18.0947 8.33037 18.0708 8.24988 18.0468C8.18744 18.0309 8.12496 18.0152 8.06238 17.9999C8.05212 18.0244 8.04186 18.0489 8.03129 18.0742C7.92408 18.3305 7.81685 18.5868 7.70961 18.843C7.66964 18.9386 7.62968 19.0341 7.58972 19.1296C7.53214 19.2673 7.47453 19.4049 7.41693 19.5426C7.3992 19.585 7.38147 19.6273 7.3632 19.671C7.26916 19.8957 7.17432 20.12 7.078 20.3436C7.10912 20.372 7.14024 20.4004 7.1723 20.4297C7.53287 20.7718 7.75037 21.0682 7.828 21.5624C7.91652 21.5621 7.91652 21.5621 8.00683 21.5619C9.40707 21.5578 10.8073 21.5547 12.2076 21.5528C12.3798 21.5526 12.5521 21.5523 12.7244 21.5521C12.7586 21.552 12.7929 21.552 12.8283 21.5519C13.3839 21.5511 13.9396 21.5496 14.4952 21.5479C15.0652 21.5462 15.6351 21.5451 16.2051 21.5448C16.5569 21.5445 16.9087 21.5437 17.2605 21.5422C17.5301 21.541 17.7996 21.5409 18.0692 21.5412C18.1799 21.5411 18.2907 21.5408 18.4014 21.54C18.5522 21.5391 18.703 21.5393 18.8538 21.5398C18.898 21.5393 18.9421 21.5388 18.9876 21.5382C19.2817 21.5409 19.2817 21.5409 19.4335 21.6473C19.5306 21.7973 19.5217 21.9032 19.4999 22.078C19.4174 22.2273 19.3827 22.2577 19.2186 22.3124C19.1537 22.3166 19.0885 22.3182 19.0234 22.3182C18.9635 22.3183 18.9635 22.3183 18.9023 22.3184C18.8365 22.3182 18.8365 22.3182 18.7693 22.318C18.7226 22.3181 18.676 22.3181 18.628 22.3181C18.471 22.3182 18.314 22.318 18.157 22.3177C18.0448 22.3177 17.9326 22.3177 17.8203 22.3177C17.5783 22.3177 17.3363 22.3176 17.0943 22.3173C16.7443 22.317 16.3944 22.3168 16.0445 22.3168C15.4768 22.3167 14.9091 22.3164 14.3414 22.3159C13.7899 22.3155 13.2384 22.3152 12.6869 22.315C12.6529 22.315 12.6189 22.3149 12.5839 22.3149C12.4134 22.3149 12.2429 22.3148 12.0724 22.3148C10.6576 22.3143 9.2428 22.3134 7.828 22.3124C7.81867 22.3446 7.80934 22.3769 7.79972 22.4101C7.78731 22.4524 7.77489 22.4947 7.7621 22.5382C7.74987 22.5801 7.73764 22.6221 7.72504 22.6652C7.59638 23.0611 7.28553 23.3648 6.93738 23.578C6.42316 23.8328 5.94301 23.8692 5.39178 23.7205C4.89188 23.5489 4.53392 23.2387 4.2948 22.7724C4.07109 22.3064 4.03361 21.7299 4.19812 21.2343C4.41364 20.7369 4.79938 20.3512 5.29675 20.1356C5.64551 20.0187 6.01216 20.0471 6.37488 20.0624C6.38284 20.0338 6.39081 20.0051 6.39903 19.9756C6.48166 19.6885 6.58342 19.4176 6.70355 19.1443C6.73941 19.0612 6.77527 18.9782 6.81112 18.8951C6.86719 18.7661 6.92338 18.6371 6.97964 18.5081C7.03438 18.3824 7.08871 18.2565 7.143 18.1306C7.15999 18.0921 7.17698 18.0535 7.19449 18.0137C7.20999 17.9777 7.22549 17.9417 7.24146 17.9046C7.25519 17.8731 7.26892 17.8417 7.28307 17.8092C7.32199 17.7048 7.32199 17.7048 7.31238 17.5311C7.20928 17.4123 7.20928 17.4123 7.07507 17.2938C6.58386 16.8276 6.3178 16.2404 6.08209 15.6149C6.05369 15.5403 6.05369 15.5403 6.02471 15.4642C5.96254 15.3007 5.90064 15.1371 5.83874 14.9735C5.79544 14.8596 5.75212 14.7456 5.70878 14.6316C5.6296 14.4234 5.55049 14.2152 5.47145 14.0069C5.25222 13.4291 5.032 12.8518 4.81162 12.2745C4.74656 12.104 4.68158 11.9335 4.61662 11.7629C4.57697 11.659 4.53733 11.5551 4.49768 11.4511C4.47951 11.4034 4.46134 11.3557 4.44263 11.3065C4.41778 11.2414 4.41778 11.2414 4.39244 11.175C4.37802 11.1372 4.36361 11.0994 4.34876 11.0604C4.3133 10.9671 4.3133 10.9671 4.2655 10.8749C4.24612 10.7315 4.24342 10.5962 4.2655 10.453C4.36218 10.33 4.36218 10.33 4.49988 10.2655C4.66687 10.2626 4.66687 10.2626 4.828 10.3124C5.01305 10.4999 5.09036 10.7111 5.17846 10.9536C5.19359 10.9941 5.20872 11.0346 5.22431 11.0764C5.25706 11.1642 5.28962 11.2521 5.32199 11.3401C5.3915 11.5289 5.46197 11.7173 5.53236 11.9058C5.56931 12.0047 5.60621 12.1037 5.64306 12.2027C5.95952 13.0526 6.28582 13.8988 6.61212 14.745C6.65266 14.8503 6.69303 14.9556 6.7333 15.061C6.79579 15.2245 6.85914 15.3876 6.92273 15.5507C6.9391 15.5938 6.95547 15.6369 6.97234 15.6814C7.24078 16.3608 7.64913 16.861 8.29675 17.203C9.05335 17.5088 9.76112 17.4578 10.5527 17.343C10.6257 17.3328 10.6987 17.3227 10.7717 17.3125C10.969 17.285 11.1662 17.2569 11.3633 17.2287C11.5747 17.1986 11.7862 17.1691 11.9977 17.1394C12.4019 17.0827 12.8062 17.0255 13.2104 16.9681C13.6979 16.8989 14.1856 16.8303 14.6733 16.7617C15.2003 16.6876 15.7273 16.6134 16.2542 16.5387C17.1223 16.4156 17.9906 16.2939 18.8594 16.1756C19.139 16.1374 19.4186 16.099 19.6981 16.0607C19.9629 16.0244 20.2279 15.9885 20.4928 15.953C20.6563 15.931 20.8198 15.9085 20.9833 15.886C21.0583 15.8757 21.1334 15.8656 21.2085 15.8557C22.0257 15.7577 22.0257 15.7577 22.7342 15.3749C22.7652 15.3749 22.7961 15.3749 22.828 15.3749C22.8454 15.3372 22.8454 15.3372 22.8632 15.2987C22.9217 15.1874 22.9217 15.1874 23.0155 15.0526C24.1463 13.2857 23.2788 10.8632 23.2967 8.76552C17.0319 8.76552 10.7671 8.76552 4.31238 8.76552C4.34331 8.82739 4.37425 8.88927 4.40613 8.95302C4.43755 9.14011 4.43438 9.28281 4.33288 9.4452C4.17215 9.54411 4.07602 9.54481 3.8905 9.51552C3.66637 9.33615 3.58628 9.14633 3.49426 8.88435C3.48011 8.84581 3.46597 8.80727 3.4514 8.76757C3.42132 8.68543 3.39152 8.60319 3.362 8.52085C3.30071 8.35005 3.23797 8.1798 3.17527 8.00952C3.14425 7.92528 3.1133 7.84101 3.08241 7.75672C2.96349 7.43256 2.84019 7.11067 2.70984 6.79091C2.69402 6.75139 2.6782 6.71188 2.66191 6.67117C2.52508 6.33862 2.38561 6.08715 2.06237 5.90614C1.84376 5.8183 1.65841 5.80063 1.42352 5.79957C1.35501 5.79862 1.2865 5.79765 1.21798 5.79664C1.11111 5.79558 1.00425 5.79481 0.897378 5.79454C0.793435 5.79409 0.689557 5.79251 0.585629 5.79078C0.523841 5.7904 0.462053 5.79001 0.398392 5.78962C0.21028 5.762 0.132344 5.7118 -0.000125233 5.57802C-0.0296052 5.48427 -0.0296052 5.48427 -0.0264924 5.39052C-0.0265528 5.35958 -0.0266133 5.32864 -0.0266755 5.29677C0.0130017 5.15666 0.0722741 5.10472 0.187375 5.01552C0.317455 4.99739 0.428489 4.99028 0.558346 4.99226C0.594425 4.99219 0.630504 4.99212 0.667676 4.99205C0.744035 4.99213 0.820395 4.99267 0.896748 4.99365C1.01219 4.99499 1.12753 4.99461 1.24298 4.994C1.87619 4.99482 2.41313 5.084 2.90484 5.51924C3.33757 5.9767 3.52716 6.62809 3.74402 7.20692C3.83876 7.45829 3.93351 7.70966 4.03113 7.96864C4.57253 7.98411 5.11394 7.99958 5.67175 8.01552C5.64812 7.89829 5.6245 7.78107 5.60016 7.66029C5.53952 7.32292 5.52297 6.99915 5.53387 6.65687C5.53526 6.61248 5.53665 6.56808 5.53808 6.52234C5.5411 6.43046 5.54418 6.33859 5.54731 6.24671C5.57415 5.36928 5.50746 4.65423 5.16949 3.84291C5.03604 3.52138 4.961 3.18789 5.0653 2.84755C5.18221 2.58993 5.34387 2.40161 5.58386 2.25282C5.87077 2.14994 6.20456 2.16037 6.48913 2.25868C6.78039 2.46469 6.92617 2.70595 7.08386 3.01747C7.10398 3.05614 7.1241 3.09481 7.14483 3.13466C7.25695 3.35199 7.35977 3.57069 7.453 3.79677C7.48661 3.70715 7.52009 3.61748 7.55298 3.5276C7.58891 3.43405 7.63043 3.34269 7.67273 3.25184C7.80593 2.88449 7.74218 2.47328 7.70953 2.09187C7.70501 2.03842 7.70049 1.98496 7.69583 1.92989C7.68645 1.82285 7.67641 1.71586 7.66564 1.60895C7.63407 1.25992 7.61983 0.940398 7.80529 0.631604C8.17838 0.233307 8.66055 0.0407149 9.17859 0.313367ZM8.52582 0.985181C8.41504 1.10147 8.41786 1.1835 8.4209 1.34031C8.42247 1.37267 8.42404 1.40503 8.42566 1.43837C8.4265 1.47127 8.42735 1.50417 8.42822 1.53807C8.43042 1.61912 8.43379 1.70014 8.43738 1.78114C8.623 1.7502 8.80863 1.71927 8.99988 1.68739C8.98691 1.30822 8.98691 1.30822 8.81238 0.984266C8.69027 0.921244 8.64949 0.925514 8.52582 0.985181ZM16.8749 2.39052C16.8749 2.63802 16.8749 2.88552 16.8749 3.14052C17.1224 3.14052 17.3699 3.14052 17.6249 3.14052C17.6249 2.89302 17.6249 2.64552 17.6249 2.39052C17.3774 2.39052 17.1299 2.39052 16.8749 2.39052ZM8.72741 2.48134C8.66198 2.49794 8.59655 2.51454 8.53113 2.53114C8.5332 2.56167 8.53527 2.59219 8.53741 2.62364C8.55125 2.98966 8.47363 3.28099 8.35241 3.62391C8.31777 3.72705 8.28335 3.83026 8.24914 3.93355C8.23286 3.98263 8.21657 4.03172 8.1998 4.0823C8.04634 4.56141 7.9386 4.98038 8.17369 5.45333C8.19617 5.49692 8.19617 5.49692 8.21911 5.54139C8.23454 5.57241 8.24997 5.60342 8.26587 5.63537C8.31479 5.73366 8.36428 5.83165 8.41394 5.92958C8.47941 6.05871 8.54427 6.18813 8.60876 6.31776C8.63125 6.36136 8.63125 6.36136 8.65419 6.40583C8.7499 6.59837 8.79627 6.76997 8.81238 6.98427C8.76754 7.11531 8.74895 7.1566 8.62488 7.21864C8.49304 7.23622 8.49304 7.23622 8.34363 7.21864C8.13843 7.0476 8.03645 6.86604 7.92852 6.62849C7.91241 6.59411 7.8963 6.55973 7.87971 6.52431C7.8278 6.4132 7.77662 6.30177 7.72546 6.19032C7.68998 6.11399 7.65446 6.03768 7.61891 5.96139C7.51601 5.74018 7.41406 5.51854 7.31238 5.29677C7.29825 5.26602 7.28413 5.23527 7.26958 5.20358C7.12625 4.8915 6.9841 4.5789 6.84363 4.26552C6.77716 4.28682 6.71077 4.30835 6.64441 4.32997C6.60743 4.34193 6.57045 4.3539 6.53235 4.36622C6.42802 4.40388 6.33225 4.44819 6.23425 4.49989C6.24156 4.52666 6.24887 4.55343 6.25641 4.58101C6.31141 4.81013 6.33193 5.00948 6.30804 5.2444C6.27693 5.60081 6.26991 5.95575 6.26941 6.31337C6.26931 6.34603 6.26922 6.3787 6.26912 6.41235C6.25158 7.23509 6.25158 7.23509 6.46863 8.01552C7.42769 8.01552 8.38675 8.01552 9.37488 8.01552C9.38034 7.24089 9.38034 7.24089 9.38403 6.46626C9.38514 6.14947 9.38645 5.8327 9.38902 5.51592C9.39108 5.26 9.39218 5.0041 9.39266 4.74818C9.39301 4.65143 9.39367 4.55468 9.3947 4.45793C9.4016 3.77987 9.33218 3.14702 9.18738 2.48427C9.01471 2.44591 8.89971 2.43762 8.72741 2.48134ZM5.82446 3.03138C5.75293 3.13863 5.75293 3.13863 5.78088 3.26668C5.79514 3.31109 5.8094 3.3555 5.82409 3.40126C5.83787 3.44579 5.85165 3.49032 5.86584 3.53621C5.87914 3.57578 5.89243 3.61536 5.90613 3.65614C5.92159 3.70255 5.93706 3.74895 5.953 3.79677C6.12758 3.73993 6.29884 3.67917 6.46863 3.60927C6.446 3.3679 6.31226 3.12477 6.1405 2.95302C5.99496 2.93387 5.93278 2.92743 5.82446 3.03138ZM10.1249 3.51552C10.1249 4.25802 10.1249 5.00052 10.1249 5.76552C11.1149 5.76552 12.1049 5.76552 13.1249 5.76552C13.1249 5.02302 13.1249 4.28052 13.1249 3.51552C12.1349 3.51552 11.1449 3.51552 10.1249 3.51552ZM16.828 3.89052C16.798 3.95142 16.7681 4.01233 16.7372 4.07509C16.6119 4.30369 16.4508 4.46712 16.2604 4.64308C16.1265 4.78078 16.1191 4.89986 16.1203 5.08345C16.1204 5.12318 16.1206 5.16291 16.1208 5.20384C16.1211 5.24514 16.1215 5.28644 16.1219 5.32899C16.1222 5.37084 16.1224 5.41268 16.1226 5.45579C16.1231 5.55904 16.1239 5.66227 16.1249 5.76552C16.1668 5.76618 16.2087 5.76684 16.2519 5.76753C16.6906 5.78483 17.0416 5.8438 17.3641 6.15809C17.5242 6.42703 17.5952 6.63488 17.602 6.94893C17.6032 6.99505 17.6032 6.99505 17.6045 7.0421C17.607 7.13903 17.6087 7.23595 17.6102 7.3329C17.6118 7.39915 17.6134 7.46541 17.6151 7.53166C17.6191 7.69295 17.622 7.85419 17.6249 8.01552C17.8724 8.01552 18.1199 8.01552 18.3749 8.01552C18.3844 7.6011 18.3922 7.18675 18.3967 6.77224C18.3989 6.57973 18.4019 6.3873 18.4067 6.19484C18.4113 6.00883 18.4138 5.82289 18.4149 5.63682C18.4157 5.56611 18.4172 5.49541 18.4195 5.42474C18.4372 5.01535 18.4372 5.01535 18.2822 4.64644C18.1773 4.5419 18.0687 4.4513 17.953 4.35927C17.8349 4.2151 17.7551 4.05723 17.6717 3.89052C17.3933 3.89052 17.1149 3.89052 16.828 3.89052ZM13.8749 5.01552C13.8749 6.00552 13.8749 6.99552 13.8749 8.01552C14.3699 8.01552 14.8649 8.01552 15.3749 8.01552C15.3749 7.02552 15.3749 6.03552 15.3749 5.01552C14.8799 5.01552 14.3849 5.01552 13.8749 5.01552ZM19.7472 5.81239C19.6866 5.90738 19.6604 5.9834 19.6405 6.09364C19.6738 6.11002 19.7071 6.12639 19.7414 6.14326C19.7845 6.16459 19.8276 6.18592 19.8719 6.2079C19.9149 6.22911 19.9579 6.25032 20.0021 6.27217C20.1092 6.32802 20.1092 6.32802 20.1561 6.37489C20.1777 6.70928 20.1777 6.70928 20.1063 6.84364C19.9118 6.94404 19.7052 6.90071 19.5028 6.84364C19.4554 6.82817 19.4081 6.8127 19.3592 6.79677C19.3188 6.88501 19.2801 6.97406 19.2421 7.06337C19.2203 7.11285 19.1986 7.16234 19.1761 7.21333C19.0988 7.47104 19.0988 7.47104 19.1249 8.01552C19.8519 8.01552 20.5789 8.01552 21.328 8.01552C21.4208 7.76802 21.5136 7.52052 21.6092 7.26552C21.4781 7.11607 21.4781 7.11607 21.3016 7.05751C21.1405 6.98427 21.1405 6.98427 21.0702 6.8993C21.0368 6.75311 21.048 6.65842 21.0936 6.51552C21.1844 6.42177 21.1844 6.42177 21.328 6.37489C21.4884 6.39181 21.6412 6.42666 21.7967 6.46864C21.7855 6.11515 21.7005 5.89409 21.4686 5.62489C21.2046 5.41038 20.9361 5.31912 20.5981 5.32936C20.2288 5.37568 19.9823 5.52919 19.7472 5.81239ZM10.1249 6.51552C10.1249 7.01052 10.1249 7.50552 10.1249 8.01552C11.1149 8.01552 12.1049 8.01552 13.1249 8.01552C13.1249 7.52052 13.1249 7.02552 13.1249 6.51552C12.1349 6.51552 11.1449 6.51552 10.1249 6.51552ZM16.1249 6.51552C16.1249 7.01052 16.1249 7.50552 16.1249 8.01552C16.3724 8.01552 16.6199 8.01552 16.8749 8.01552C16.8812 7.80941 16.8858 7.6035 16.8895 7.39735C16.8915 7.33895 16.8934 7.28055 16.8955 7.22038C16.9018 6.8929 16.9018 6.8929 16.789 6.59224C16.592 6.47607 16.592 6.47607 16.1249 6.51552ZM5.08581 21.2343C4.87678 21.5357 4.83624 21.8112 4.87488 22.1718C4.959 22.5083 5.15029 22.7331 5.43738 22.9218C5.72705 23.0731 6.01269 23.1018 6.328 23.0155C6.63495 22.8817 6.87918 22.7094 7.03113 22.4061C7.16836 22.0402 7.1528 21.7496 6.99963 21.3952C6.86814 21.1543 6.69206 21.0034 6.45984 20.8622C5.93901 20.717 5.43181 20.793 5.08581 21.2343Z" fill="#0EAA47"/>
<path d="M23.1658 20.3117C23.5943 20.6105 23.8859 21.0033 24.0002 21.5155C24.0456 22.1642 24.0013 22.6637 23.5607 23.1766C23.1476 23.602 22.7376 23.783 22.1428 23.8241C21.6153 23.814 21.2054 23.6201 20.8215 23.2703C20.4141 22.8164 20.2256 22.3718 20.2531 21.7528C20.3151 21.2141 20.5502 20.7964 20.9533 20.4373C21.6008 19.9609 22.4692 19.8936 23.1658 20.3117ZM21.2902 21.1727C21.077 21.4366 20.9835 21.6939 21.0002 22.034C21.0514 22.3853 21.2435 22.6453 21.5186 22.8627C21.7926 23.0403 22.0648 23.0921 22.3868 23.0451C22.7165 22.9588 22.97 22.7332 23.1564 22.453C23.3 22.1603 23.3026 21.8111 23.2213 21.4977C23.0951 21.2125 22.8544 20.9889 22.5771 20.8512C22.0833 20.6963 21.6402 20.8082 21.2902 21.1727Z" fill="#0EAA47"/>
<path d="M7.73423 9.56269C7.90429 9.7364 7.9646 9.8994 8.02653 10.132C8.0355 10.1651 8.04447 10.1981 8.05371 10.2322C8.08332 10.3418 8.11211 10.4517 8.14091 10.5615C8.16182 10.6395 8.18278 10.7175 8.20379 10.7954C8.25994 11.0042 8.31541 11.2132 8.37074 11.4223C8.42806 11.6384 8.48596 11.8544 8.54386 12.0703C8.55536 12.1132 8.56687 12.1561 8.57872 12.2004C8.60196 12.287 8.6252 12.3737 8.64844 12.4604C8.68331 12.5905 8.7181 12.7206 8.75288 12.8508C8.89077 13.3662 9.03185 13.8806 9.17729 14.3939C9.19397 14.453 9.21066 14.5121 9.22785 14.5729C9.28967 14.7915 9.35154 15.01 9.41447 15.2282C9.4563 15.3732 9.49748 15.5185 9.53855 15.6638C9.55066 15.7049 9.56277 15.746 9.57524 15.7884C9.64515 16.0381 9.69614 16.2873 9.65611 16.5471C9.55943 16.6701 9.55943 16.6701 9.42173 16.7346C9.25474 16.7375 9.25474 16.7375 9.09361 16.6877C8.92969 16.5187 8.86663 16.364 8.80636 16.1385C8.79792 16.1076 8.78949 16.0767 8.78079 16.0448C8.75293 15.9422 8.72589 15.8393 8.69883 15.7365C8.67911 15.6632 8.65933 15.59 8.63951 15.5168C8.58638 15.3201 8.53395 15.1232 8.48165 14.9263C8.42727 14.722 8.37233 14.5178 8.31739 14.3137C8.29521 14.2312 8.27303 14.1488 8.25086 14.0664C8.23985 14.0255 8.22885 13.9846 8.21751 13.9425C8.18402 13.8179 8.15062 13.6933 8.11723 13.5687C7.98678 13.0823 7.85392 12.5967 7.71751 12.112C7.69048 12.016 7.66353 11.9199 7.6366 11.8239C7.5701 11.5869 7.5036 11.3498 7.43609 11.1131C7.39064 10.9536 7.34585 10.7939 7.30119 10.6342C7.28791 10.5884 7.27463 10.5425 7.26095 10.4953C7.18543 10.2226 7.1503 9.98661 7.17173 9.70331C7.33857 9.49098 7.48336 9.48515 7.73423 9.56269Z" fill="#0EAA47"/>
<path d="M10.9686 9.56254C11.1247 9.71456 11.1486 9.89411 11.1816 10.1011C11.1907 10.154 11.1907 10.154 11.2 10.2081C11.2201 10.3258 11.2394 10.4437 11.2588 10.5616C11.2729 10.6454 11.2871 10.7293 11.3014 10.8131C11.3316 10.9915 11.3615 11.17 11.3912 11.3486C11.4367 11.622 11.4831 11.8953 11.5297 12.1685C11.6002 12.5821 11.67 12.9958 11.7392 13.4096C11.7787 13.6451 11.8182 13.8806 11.858 14.1161C11.8976 14.3498 11.9368 14.5835 11.9759 14.8173C11.9906 14.905 12.0053 14.9926 12.0202 15.0802C12.0408 15.2013 12.061 15.3225 12.0811 15.4437C12.0871 15.4789 12.0932 15.514 12.0994 15.5502C12.1941 16.1294 12.1941 16.1294 12.0701 16.336C11.9298 16.4202 11.8325 16.4304 11.6717 16.4358C11.5161 16.3868 11.4775 16.3109 11.3904 16.1719C11.3361 15.9795 11.3055 15.784 11.2737 15.5868C11.2636 15.5274 11.2534 15.468 11.2429 15.4068C11.2152 15.2443 11.1883 15.0817 11.1616 14.919C11.1335 14.7485 11.1047 14.5781 11.076 14.4076C11.0279 14.1214 10.9803 13.8351 10.9331 13.5487C10.8786 13.2181 10.8233 12.8876 10.7674 12.5572C10.7136 12.2388 10.6604 11.9204 10.6075 11.6019C10.585 11.4666 10.5623 11.3313 10.5395 11.196C10.5076 11.007 10.4765 10.8177 10.4455 10.6285C10.436 10.5726 10.4265 10.5168 10.4167 10.4592C10.374 10.194 10.3404 9.96574 10.4061 9.70317C10.5687 9.49097 10.7171 9.50519 10.9686 9.56254Z" fill="#0EAA47"/>
<path d="M14.1154 9.52579C14.2393 9.57788 14.2749 9.63415 14.3436 9.75009C14.3626 9.8693 14.374 9.97908 14.3796 10.0989C14.3828 10.1514 14.3828 10.1514 14.3861 10.2049C14.3931 10.3209 14.3992 10.4371 14.4053 10.5532C14.4101 10.6353 14.4149 10.7174 14.4198 10.7995C14.4326 11.0169 14.4446 11.2344 14.4564 11.4519C14.4683 11.6668 14.4808 11.8817 14.4933 12.0966C14.5128 12.4336 14.5318 12.7705 14.5505 13.1076C14.568 13.4224 14.5865 13.7372 14.606 14.0519C14.6104 14.1243 14.6148 14.1967 14.6193 14.2691C14.6255 14.3701 14.6317 14.4711 14.6382 14.572C14.7151 15.7693 14.7151 15.7693 14.578 16.005C14.415 16.0899 14.3277 16.0927 14.1499 16.0681C14.026 16.0161 13.9904 15.9597 13.9217 15.8438C13.9027 15.7249 13.8914 15.6154 13.8857 15.4957C13.8836 15.4609 13.8814 15.426 13.8792 15.39C13.8722 15.2742 13.8661 15.1583 13.86 15.0424C13.8552 14.9604 13.8504 14.8784 13.8455 14.7965C13.8327 14.5793 13.8207 14.362 13.8089 14.1448C13.7971 13.9303 13.7845 13.7159 13.772 13.5015C13.7525 13.1645 13.7334 12.8275 13.7148 12.4904C13.697 12.1701 13.6786 11.8499 13.6593 11.5297C13.6528 11.4189 13.6462 11.308 13.6396 11.1972C13.6355 11.1286 13.6313 11.06 13.6271 10.9914C13.5547 9.8158 13.5547 9.8158 13.6873 9.59189C13.8509 9.50329 13.9358 9.50097 14.1154 9.52579Z" fill="#0EAA47"/>
<path d="M16.9217 9.56273C17.0566 9.70055 17.08 9.80061 17.0805 9.99041C17.081 10.0389 17.0814 10.0874 17.0819 10.1374C17.0816 10.2168 17.0816 10.2168 17.0813 10.2978C17.0816 10.3538 17.0819 10.4097 17.0822 10.4674C17.083 10.6207 17.083 10.774 17.0828 10.9273C17.0826 11.0553 17.0829 11.1834 17.0832 11.3114C17.0838 11.6134 17.0838 11.9154 17.0832 12.2174C17.0827 12.529 17.0834 12.8405 17.0846 13.152C17.0856 13.4196 17.086 13.6871 17.0857 13.9547C17.0855 14.1145 17.0856 14.2742 17.0864 14.434C17.0871 14.6121 17.0866 14.7902 17.0858 14.9683C17.0863 15.0212 17.0867 15.0742 17.0872 15.1287C17.0868 15.1772 17.0863 15.2257 17.0858 15.2757C17.0858 15.3178 17.0858 15.3599 17.0858 15.4033C17.0545 15.5535 16.9942 15.6096 16.8748 15.7034C16.6792 15.7354 16.5862 15.73 16.4209 15.6185C16.2586 15.3949 16.2802 15.1952 16.2835 14.9254C16.2832 14.8705 16.283 14.8155 16.2827 14.7588C16.2821 14.5771 16.2833 14.3954 16.2845 14.2136C16.2847 14.0873 16.2846 13.9611 16.2845 13.8348C16.2845 13.5702 16.2854 13.3055 16.2869 13.0409C16.2886 12.7352 16.2891 12.4295 16.2887 12.1238C16.2884 11.8294 16.2889 11.535 16.2899 11.2406C16.2902 11.1154 16.2903 10.9903 16.2903 10.8651C16.2904 10.6903 16.2914 10.5155 16.2926 10.3407C16.2925 10.2888 16.2924 10.237 16.2922 10.1836C16.2972 9.735 16.2972 9.735 16.4529 9.56273C16.6308 9.50344 16.74 9.52055 16.9217 9.56273Z" fill="#0EAA47"/>
<path d="M19.3125 9.56235C19.415 9.63829 19.4489 9.67868 19.4709 9.80541C19.4711 9.86551 19.4711 9.86551 19.4713 9.92683C19.4717 9.9729 19.4722 10.019 19.4727 10.0664C19.4725 10.1169 19.4723 10.1674 19.472 10.2194C19.4724 10.2726 19.4727 10.3258 19.473 10.3807C19.4739 10.5571 19.4737 10.7334 19.4734 10.9098C19.4736 11.0321 19.4739 11.1544 19.4742 11.2768C19.4746 11.5333 19.4745 11.7899 19.474 12.0465C19.4735 12.343 19.4741 12.6395 19.4754 12.9361C19.4766 13.2214 19.4767 13.5067 19.4764 13.792C19.4764 13.9134 19.4766 14.0348 19.4772 14.1561C19.4779 14.3257 19.4774 14.4953 19.4766 14.6648C19.4771 14.7152 19.4775 14.7656 19.478 14.8175C19.4746 15.1573 19.4746 15.1573 19.3638 15.3123C19.1956 15.4194 19.0874 15.3967 18.8906 15.3749C18.7652 15.2899 18.7519 15.24 18.7031 15.0936C18.6987 15.0215 18.697 14.9491 18.6968 14.8769C18.6966 14.8324 18.6964 14.7879 18.6962 14.742C18.6963 14.6933 18.6963 14.6446 18.6963 14.5944C18.6961 14.543 18.696 14.4916 18.6958 14.4387C18.6954 14.2684 18.6953 14.0981 18.6952 13.9278C18.6951 13.8097 18.6949 13.6916 18.6948 13.5734C18.6945 13.3257 18.6944 13.078 18.6944 12.8302C18.6944 12.5439 18.694 12.2576 18.6932 11.9713C18.6925 11.6958 18.6924 11.4203 18.6924 11.1448C18.6923 11.0276 18.6921 10.9104 18.6918 10.7932C18.6913 10.6295 18.6914 10.4658 18.6917 10.302C18.6915 10.2534 18.6912 10.2047 18.6909 10.1546C18.6911 10.11 18.6913 10.0654 18.6915 10.0194C18.6915 9.98071 18.6915 9.94201 18.6914 9.90213C18.7044 9.78461 18.7355 9.70974 18.7969 9.60923C18.9639 9.47931 19.1152 9.51573 19.3125 9.56235Z" fill="#0EAA47"/>
<path d="M21.4453 9.52463C21.6102 9.56291 21.6523 9.57395 21.75 9.70334C21.7677 9.80005 21.7677 9.80005 21.7678 9.91328C21.7682 9.95626 21.7686 9.99924 21.769 10.0435C21.7688 10.0906 21.7685 10.1376 21.7682 10.1861C21.7684 10.2357 21.7687 10.2854 21.7689 10.3365C21.7695 10.5009 21.7691 10.6654 21.7687 10.8298C21.7688 10.9438 21.7689 11.0578 21.7691 11.1719C21.7693 11.411 21.769 11.6501 21.7683 11.8892C21.7675 12.1961 21.768 12.503 21.7688 12.8099C21.7693 13.0454 21.7692 13.2809 21.7688 13.5164C21.7687 13.6295 21.7688 13.7427 21.7691 13.8559C21.7695 14.0139 21.769 14.1719 21.7682 14.33C21.7686 14.4005 21.7686 14.4005 21.769 14.4725C21.7686 14.5155 21.7682 14.5585 21.7678 14.6028C21.7678 14.6401 21.7677 14.6775 21.7677 14.716C21.7453 14.8381 21.7067 14.8784 21.6094 14.9533C21.4423 15.0042 21.3608 15.0143 21.1992 14.9446C21.0661 14.8374 21.0089 14.7451 20.9881 14.5743C20.988 14.5391 20.9879 14.504 20.9878 14.4678C20.9874 14.4273 20.9871 14.3867 20.9868 14.345C20.9869 14.3009 20.987 14.2568 20.9871 14.2113C20.9869 14.1646 20.9866 14.1178 20.9864 14.0697C20.9857 13.9151 20.9858 13.7605 20.9859 13.6059C20.9857 13.4985 20.9855 13.391 20.9853 13.2836C20.9849 13.0584 20.9849 12.8332 20.9852 12.608C20.9855 12.3194 20.9847 12.0307 20.9836 11.742C20.9829 11.5202 20.9828 11.2983 20.983 11.0765C20.983 10.97 20.9827 10.8636 20.9822 10.7572C20.9817 10.6084 20.982 10.4596 20.9825 10.3108C20.9822 10.2668 20.9818 10.2228 20.9814 10.1774C20.9833 9.95065 20.9894 9.79155 21.1406 9.60959C21.2812 9.51584 21.2812 9.51584 21.4453 9.52463Z" fill="#0EAA47"/>
<path d="M11.625 4.23615C11.6942 4.23479 11.6942 4.23479 11.7649 4.2334C11.9895 4.23492 12.1044 4.23837 12.2882 4.37567C12.375 4.49982 12.375 4.49982 12.4043 4.64044C12.3633 4.83742 12.3022 4.89479 12.1406 5.01544C11.9681 5.05016 11.8004 5.04818 11.625 5.04474C11.5558 5.0461 11.5558 5.0461 11.4851 5.04749C11.2605 5.04597 11.1456 5.04251 10.9618 4.90521C10.875 4.78107 10.875 4.78107 10.8457 4.64044C10.9334 4.21959 11.2687 4.22915 11.625 4.23615Z" fill="#0EAA47"/>
<path d="M6.09804 21.5416C6.18758 21.5625 6.18758 21.5625 6.3077 21.6591C6.39553 21.8386 6.38116 21.9343 6.32821 22.125C6.2496 22.2491 6.19455 22.2635 6.05282 22.3066C5.87814 22.3136 5.80876 22.2774 5.67196 22.1718C5.59949 22.0269 5.61132 21.9096 5.62508 21.75C5.74493 21.5552 5.88165 21.5295 6.09804 21.5416Z" fill="#0EAA47"/>
<path d="M22.3123 21.5625C22.4267 21.6468 22.4827 21.712 22.5408 21.8408C22.5491 21.9772 22.52 22.053 22.4529 22.1719C22.3168 22.2853 22.2501 22.3137 22.0721 22.3066C21.933 22.2643 21.8774 22.2439 21.7967 22.125C21.7483 21.9836 21.7446 21.9092 21.785 21.7646C21.9087 21.5356 22.0738 21.5374 22.3123 21.5625Z" fill="#0EAA47"/>
</g>
<defs>
<clipPath id="clip0_701_1797">
<rect width="24" height="24" fill="white"/>
</clipPath>
</defs>
</svg>
