<svg width="24" height="24" viewBox="0 0 24 24" fill="none" xmlns="http://www.w3.org/2000/svg">
<path d="M21.8113 5.42308C22.1596 5.71139 22.3881 6.07513 22.4412 6.52757C22.455 6.67482 22.4537 6.74795 22.4061 6.89086C22.438 6.89859 22.4699 6.90632 22.5028 6.91429C22.8049 7.06855 23.0002 7.36174 23.1222 7.67235C23.3489 8.40276 22.9871 9.25928 22.7952 9.96886C22.7689 10.0665 22.7427 10.1642 22.7165 10.2619C22.6477 10.518 22.5787 10.7741 22.5096 11.0302C22.4405 11.2863 22.3717 11.5426 22.3029 11.7988C22.1852 12.2368 22.0671 12.6746 21.9485 13.1123C21.8834 13.3525 21.8187 13.5928 21.7546 13.8333C21.7286 13.9309 21.7023 14.0284 21.676 14.126C21.6459 14.2376 21.6161 14.3493 21.5866 14.4612C21.3864 15.1976 20.9576 15.6337 20.3905 16.1252C20.3279 16.1799 20.2654 16.2346 20.203 16.2893C20.173 16.3154 20.143 16.3415 20.1121 16.3684C20.0009 16.4661 19.891 16.5651 19.7811 16.6643C19.6115 16.8173 19.4406 16.9684 19.2684 17.1184C19.117 17.2514 18.9677 17.3868 18.8183 17.5221C18.7131 17.6162 18.6058 17.7072 18.4979 17.7981C18.1025 18.1472 18.0558 18.518 18.0238 19.0207C18.0146 19.1805 18.0069 19.3403 17.9998 19.5002C18.0443 19.5051 18.0888 19.5099 18.1346 19.5149C18.2811 19.5471 18.2811 19.5471 18.3748 19.6877C18.3874 19.8315 18.3874 19.8315 18.3884 20.0105C18.3888 20.0432 18.3891 20.0758 18.3894 20.1094C18.3903 20.2173 18.3905 20.3252 18.3906 20.4332C18.3909 20.5082 18.3912 20.5832 18.3915 20.6582C18.3921 20.8155 18.3923 20.9727 18.3922 21.13C18.3922 21.3315 18.3935 21.533 18.3951 21.7345C18.3961 21.8894 18.3963 22.0444 18.3963 22.1993C18.3964 22.2736 18.3968 22.3479 18.3975 22.4222C18.3984 22.5261 18.3982 22.6299 18.3976 22.7339C18.3977 22.793 18.3979 22.8521 18.398 22.913C18.37 23.0939 18.3279 23.1373 18.1873 23.2502C18.0769 23.2738 18.0769 23.2738 17.9525 23.274C17.8815 23.2748 17.8815 23.2748 17.8091 23.2756C17.7575 23.2753 17.7059 23.2749 17.6527 23.2745C17.5981 23.2748 17.5435 23.2752 17.4872 23.2755C17.3065 23.2763 17.1258 23.2758 16.9451 23.2751C16.8197 23.2753 16.6943 23.2754 16.5689 23.2757C16.306 23.276 16.0431 23.2756 15.7802 23.2747C15.4763 23.2737 15.1725 23.274 14.8686 23.275C14.6076 23.2759 14.3466 23.276 14.0857 23.2755C13.9298 23.2752 13.774 23.2752 13.6181 23.2758C13.4444 23.2763 13.2707 23.2755 13.097 23.2745C13.0454 23.2749 12.9937 23.2753 12.9405 23.2756C12.8932 23.2751 12.8459 23.2746 12.7972 23.274C12.7561 23.274 12.715 23.2739 12.6727 23.2738C12.5245 23.2421 12.4679 23.1801 12.3748 23.0627C12.351 22.9133 12.351 22.9133 12.3506 22.7346C12.3502 22.702 12.3499 22.6693 12.3496 22.6357C12.3487 22.528 12.3493 22.4204 12.3499 22.3127C12.3498 22.2378 12.3496 22.1628 12.3494 22.0879C12.3491 21.9309 12.3495 21.7739 12.3504 21.6169C12.3514 21.4158 12.3508 21.2147 12.3497 21.0136C12.349 20.8588 12.3492 20.7041 12.3497 20.5493C12.3499 20.4752 12.3497 20.401 12.3493 20.3269C12.3488 20.2232 12.3495 20.1195 12.3506 20.0159C12.3507 19.9569 12.3509 19.8979 12.351 19.8371C12.3748 19.6877 12.3748 19.6877 12.4584 19.5735C12.5623 19.5002 12.5623 19.5002 12.7498 19.5002C12.7492 19.4259 12.7492 19.4259 12.7486 19.3501C12.7447 18.8806 12.7419 18.4111 12.7401 17.9415C12.7391 17.7002 12.7378 17.4588 12.7357 17.2175C12.7336 16.9841 12.7325 16.7507 12.732 16.5172C12.7317 16.4287 12.731 16.3402 12.73 16.2517C12.719 15.2545 12.924 14.3995 13.6051 13.6312C14.0537 13.1762 14.5845 12.8853 15.1395 12.5788C15.4044 12.4326 15.6655 12.2808 15.9256 12.1262C15.9666 12.1019 16.0077 12.0776 16.05 12.0525C16.2693 11.9223 16.4883 11.7916 16.7072 11.6606C16.8241 11.5907 16.9412 11.5209 17.0582 11.4511C17.1432 11.4004 17.228 11.3494 17.3128 11.2984C17.39 11.2524 17.39 11.2524 17.4688 11.2054C17.5148 11.1778 17.5608 11.1503 17.6081 11.1219C17.7186 11.0627 17.7186 11.0627 17.8123 11.0627C17.8236 11.0055 17.835 10.9484 17.8466 10.8894C17.9115 10.5983 18.0097 10.3199 18.1075 10.0384C18.1274 9.98045 18.1474 9.92247 18.168 9.86273C18.2216 9.70687 18.2756 9.55112 18.3297 9.3954C18.3632 9.29883 18.3967 9.20224 18.4301 9.10565C18.5523 8.75272 18.675 8.39993 18.7979 8.04724C18.8644 7.85644 18.9306 7.66552 18.9965 7.47453C19.0712 7.25844 19.1464 7.04258 19.2223 6.82693C19.2488 6.75128 19.2751 6.67555 19.3012 6.59974C19.6171 5.68304 19.6171 5.68304 20.0418 5.42015C20.0757 5.39852 20.1096 5.37689 20.1445 5.3546C20.6665 5.06954 21.3174 5.07579 21.8113 5.42308ZM20.6746 6.00609C20.629 6.02077 20.629 6.02077 20.5825 6.03575C20.319 6.19179 20.2051 6.44722 20.113 6.72716C20.1011 6.76179 20.0891 6.79642 20.0768 6.8321C20.0372 6.9472 19.9985 7.06257 19.9598 7.17796C19.9319 7.25949 19.904 7.34099 19.8761 7.42247C19.8151 7.60033 19.7545 7.7783 19.694 7.95632C19.5857 8.27412 19.4753 8.59114 19.3647 8.90813C19.3067 9.07451 19.2488 9.2409 19.1908 9.40728C19.1528 9.51658 19.1147 9.62588 19.0765 9.73516C19.0228 9.88924 18.9693 10.0434 18.9159 10.1976C18.8998 10.2437 18.8836 10.2899 18.867 10.3374C18.8448 10.4016 18.8448 10.4016 18.8222 10.4671C18.8093 10.5042 18.7964 10.5414 18.7831 10.5796C18.7486 10.6917 18.7259 10.8071 18.703 10.9221C18.8576 10.953 19.0123 10.984 19.1717 11.0159C19.1842 10.9769 19.1967 10.9379 19.2096 10.8977C19.3279 10.5287 19.4465 10.1598 19.5654 9.79092C19.6264 9.60133 19.6874 9.41171 19.7482 9.22203C19.807 9.03869 19.866 8.85543 19.9251 8.67221C19.9475 8.60259 19.9699 8.53295 19.9921 8.46327C20.403 7.17811 20.403 7.17811 20.9998 6.84398C21.1993 6.75661 21.3978 6.70664 21.6092 6.65648C21.5978 6.4619 21.5827 6.35396 21.4598 6.19945C21.2048 5.99544 20.9951 5.89568 20.6746 6.00609ZM21.4246 7.50609C21.3942 7.51588 21.3638 7.52567 21.3325 7.53575C21.0758 7.68781 20.9652 7.92686 20.877 8.20097C20.8666 8.23257 20.8562 8.26417 20.8455 8.29672C20.8113 8.40114 20.7781 8.50583 20.7449 8.61058C20.7089 8.72296 20.6727 8.83529 20.6365 8.94762C20.611 9.027 20.5855 9.1064 20.5602 9.18582C20.4763 9.44706 20.3879 9.70635 20.2963 9.96498C20.2327 10.145 20.1704 10.3254 20.1083 10.5059C20.0779 10.5932 20.0469 10.6803 20.0153 10.7671C19.7769 11.4084 19.7769 11.4084 19.9157 12.0637C20.0453 12.3675 19.9832 12.7071 19.8783 13.011C19.6791 13.463 19.3312 13.6723 18.9161 13.9023C18.7211 14.0112 18.5282 14.1236 18.335 14.2355C18.1298 14.3541 17.9243 14.472 17.7187 14.5899C17.5472 14.6901 17.3787 14.7949 17.2111 14.9016C17.0419 14.9875 16.9206 14.9795 16.7342 14.9534C16.5936 14.8596 16.5936 14.8596 16.5526 14.7043C16.5459 14.5067 16.5718 14.4529 16.6873 14.2971C16.7982 14.2177 16.7982 14.2177 16.9294 14.1471C16.9778 14.1207 17.0261 14.0942 17.076 14.0669C17.1533 14.0257 17.1533 14.0257 17.2322 13.9836C17.3388 13.9254 17.4453 13.8671 17.5518 13.8088C17.6303 13.766 17.6303 13.766 17.7104 13.7225C18.5988 13.3074 18.5988 13.3074 19.2023 12.6059C19.2389 12.3272 19.2014 12.1339 19.0311 11.9065C18.833 11.7309 18.6373 11.6706 18.3748 11.6721C18.2523 11.7126 18.1604 11.7514 18.0496 11.8127C18.0182 11.8293 17.9868 11.8458 17.9545 11.8628C17.5497 12.0803 17.1587 12.3231 16.7661 12.5616C16.4495 12.7534 16.1295 12.9382 15.8084 13.1223C15.6169 13.2325 15.4256 13.3429 15.2342 13.4534C15.1996 13.4732 15.165 13.4931 15.1294 13.5136C14.3962 13.937 13.8548 14.4598 13.5936 15.2815C13.4927 15.7933 13.4871 16.3028 13.4907 16.8223C13.4908 16.8914 13.4909 16.9605 13.491 17.0296C13.4914 17.2819 13.4928 17.5341 13.494 17.7864C13.4959 18.3519 13.4978 18.9175 13.4998 19.5002C14.7373 19.5002 15.9748 19.5002 17.2498 19.5002C17.2653 19.0826 17.2808 18.6649 17.2967 18.2346C17.5186 17.7019 17.7054 17.3637 18.1331 17.0067C18.2449 16.9131 18.3522 16.8154 18.4598 16.717C18.6181 16.5739 18.7795 16.4372 18.9461 16.3039C19.2303 16.0743 19.494 15.8245 19.7597 15.5739C19.8817 15.459 20.0055 15.3469 20.1326 15.2375C20.1744 15.2006 20.1744 15.2006 20.2171 15.163C20.2713 15.116 20.327 15.0705 20.3837 15.0264C20.8637 14.618 20.9583 13.715 21.1134 13.1272C21.1372 13.0375 21.1611 12.9477 21.185 12.858C21.2476 12.6226 21.3099 12.3871 21.3722 12.1517C21.4465 11.8713 21.521 11.5909 21.5956 11.3106C21.6562 11.0823 21.7167 10.854 21.7768 10.6255C21.8773 10.2441 21.9781 9.86285 22.085 9.48316C22.1265 9.33583 22.1674 9.18833 22.2082 9.04081C22.227 8.97349 22.2462 8.90627 22.2657 8.83917C22.4181 8.33249 22.4181 8.33249 22.3123 7.82836C22.1676 7.64339 22.0138 7.54113 21.7967 7.45336C21.6432 7.45336 21.5632 7.45836 21.4246 7.50609ZM13.1248 20.2502C13.1248 20.9927 13.1248 21.7352 13.1248 22.5002C14.6098 22.5002 16.0948 22.5002 17.6248 22.5002C17.6248 21.7577 17.6248 21.0152 17.6248 20.2502C16.1398 20.2502 14.6548 20.2502 13.1248 20.2502Z" fill="#FE0C0F"/>
<path d="M4.05165 5.46989C4.40633 5.77781 4.56346 6.17571 4.70772 6.61211C4.72625 6.66645 4.74478 6.7208 4.76387 6.7768C4.81363 6.92308 4.86286 7.06952 4.91185 7.21606C4.96296 7.36849 5.01473 7.52068 5.06648 7.67288C5.12935 7.85788 5.19218 8.04289 5.25474 8.22799C5.38526 8.61403 5.51809 8.99921 5.65346 9.38359C5.66995 9.43045 5.68643 9.4773 5.70342 9.52558C5.76546 9.70175 5.82757 9.87789 5.89002 10.0539C5.93191 10.1721 5.97352 10.2903 6.01509 10.4086C6.03333 10.4596 6.03333 10.4596 6.05194 10.5117C6.10234 10.6556 6.14202 10.791 6.16556 10.942C6.17276 10.9818 6.17997 11.0216 6.18739 11.0627C6.28979 11.1216 6.28979 11.1216 6.42177 11.1564C6.53128 11.2146 6.63928 11.2738 6.74696 11.3351C6.77946 11.3535 6.81196 11.3719 6.84544 11.3909C7.15828 11.5689 7.4682 11.7519 7.77762 11.9358C8.03529 12.0889 8.29373 12.2406 8.55312 12.3907C8.64395 12.4435 8.73477 12.4962 8.82558 12.549C8.88415 12.5829 8.94277 12.6168 9.00146 12.6505C10.0912 13.2773 10.8501 13.9575 11.203 15.1877C11.2567 15.3989 11.2562 15.6065 11.2552 15.823C11.2552 15.8628 11.2552 15.9026 11.2552 15.9436C11.2552 16.0748 11.2548 16.2059 11.2545 16.337C11.2544 16.4281 11.2543 16.5192 11.2543 16.6103C11.2541 16.8497 11.2536 17.0892 11.2531 17.3286C11.2526 17.5731 11.2524 17.8175 11.2522 18.062C11.2517 18.5414 11.2509 19.0208 11.2499 19.5002C11.2944 19.505 11.3388 19.5098 11.3847 19.5148C11.5311 19.547 11.5311 19.547 11.6249 19.6877C11.6374 19.8314 11.6374 19.8314 11.6385 20.0105C11.6388 20.0431 11.6391 20.0757 11.6395 20.1094C11.6404 20.2173 11.6405 20.3252 11.6406 20.4331C11.6409 20.5081 11.6413 20.5831 11.6416 20.6581C11.6421 20.8154 11.6423 20.9727 11.6423 21.1299C11.6423 21.3314 11.6435 21.5329 11.6452 21.7344C11.6462 21.8894 11.6464 22.0443 11.6463 22.1992C11.6464 22.2735 11.6469 22.3478 11.6476 22.4221C11.6485 22.526 11.6482 22.6299 11.6477 22.7338C11.6478 22.7929 11.6479 22.852 11.6481 22.9129C11.6201 23.0938 11.578 23.1373 11.4374 23.2502C11.327 23.2738 11.327 23.2738 11.2026 23.274C11.1316 23.2748 11.1316 23.2748 11.0592 23.2756C11.0075 23.2752 10.9559 23.2748 10.9027 23.2744C10.8208 23.2749 10.8208 23.2749 10.7373 23.2754C10.5566 23.2763 10.3759 23.2757 10.1952 23.2751C10.0698 23.2752 9.94441 23.2754 9.81902 23.2756C9.5561 23.276 9.2932 23.2755 9.03029 23.2746C8.72642 23.2736 8.42257 23.2739 8.1187 23.275C7.8577 23.2758 7.59672 23.2759 7.33572 23.2754C7.17988 23.2751 7.02405 23.2752 6.86821 23.2757C6.69448 23.2762 6.52079 23.2755 6.34706 23.2744C6.29543 23.2748 6.2438 23.2752 6.19061 23.2756C6.14329 23.2751 6.09598 23.2745 6.04723 23.274C6.00616 23.2739 5.9651 23.2738 5.92279 23.2738C5.77454 23.2421 5.71795 23.18 5.62489 23.0627C5.60108 22.9133 5.60108 22.9133 5.60063 22.7345C5.6003 22.7019 5.59998 22.6693 5.59964 22.6356C5.59881 22.528 5.59936 22.4203 5.59999 22.3127C5.59987 22.2377 5.59968 22.1628 5.59945 22.0878C5.59917 21.9308 5.59957 21.7739 5.60045 21.6169C5.60152 21.4157 5.6009 21.2146 5.59978 21.0135C5.5991 20.8587 5.59932 20.704 5.5998 20.5493C5.59993 20.4751 5.59978 20.401 5.59934 20.3268C5.59886 20.2231 5.59959 20.1195 5.60063 20.0158C5.60078 19.9568 5.60093 19.8978 5.60108 19.8371C5.62489 19.6877 5.62489 19.6877 5.70844 19.5734C5.81239 19.5002 5.81239 19.5002 5.99989 19.5002C5.96366 18.6783 5.93421 18.1787 5.30263 17.5988C5.20753 17.5131 5.11164 17.4285 5.01552 17.3439C4.98144 17.3139 4.94736 17.2839 4.91225 17.2529C4.8528 17.2008 4.79323 17.1489 4.73354 17.0971C4.50339 16.8959 4.27777 16.6896 4.05092 16.4848C3.87342 16.3247 3.69571 16.165 3.51552 16.008C3.48567 15.9817 3.45582 15.9554 3.42507 15.9283C3.35429 15.8668 3.28263 15.8062 3.21047 15.7463C2.46722 15.1129 2.32726 14.1617 2.08785 13.2566C2.06387 13.1665 2.03988 13.0763 2.01588 12.9862C1.95308 12.7502 1.89047 12.5142 1.8279 12.2781C1.75307 11.9959 1.67801 11.7138 1.60298 11.4317C1.54228 11.2034 1.48165 10.9752 1.4212 10.7468C1.31573 10.3486 1.20977 9.95054 1.10102 9.55319C1.07489 9.45721 1.04879 9.36123 1.02269 9.26524C0.999401 9.18009 0.975715 9.09505 0.952011 9.01001C0.796287 8.43715 0.715655 7.93203 1.0165 7.3947C1.14663 7.19199 1.29504 7.02067 1.49989 6.89079C1.53083 6.89079 1.56177 6.89079 1.59364 6.89079C1.58398 6.85405 1.57431 6.81732 1.56435 6.77946C1.52045 6.3551 1.66949 6.00803 1.92177 5.67204C2.47755 5.05244 3.37759 5.00453 4.05165 5.46989ZM2.57802 6.14079C2.42455 6.32112 2.38109 6.42413 2.39052 6.65642C2.4585 6.67445 2.4585 6.67445 2.52785 6.69286C3.00587 6.82948 3.39355 7.01111 3.64776 7.46513C3.78932 7.75459 3.88132 8.06311 3.98024 8.369C4.00179 8.43495 4.02337 8.50089 4.04497 8.56682C4.08998 8.70438 4.1348 8.842 4.17946 8.97967C4.23648 9.15542 4.2938 9.33108 4.35124 9.50669C4.40638 9.67528 4.46139 9.84392 4.51637 10.0126C4.53192 10.0602 4.53192 10.0602 4.54779 10.1088C4.57734 10.1995 4.60679 10.2903 4.63624 10.381C4.65295 10.4324 4.66967 10.4838 4.68689 10.5368C4.73683 10.6958 4.78291 10.8554 4.82802 11.0158C5.06005 10.9694 5.06005 10.9694 5.29677 10.922C5.26569 10.6856 5.19887 10.4749 5.11952 10.2515C5.10614 10.2132 5.09276 10.175 5.07897 10.1355C5.03462 10.009 4.98994 9.88248 4.94521 9.75603C4.91395 9.66734 4.88271 9.57864 4.85148 9.48994C4.8021 9.34974 4.75268 9.20955 4.70315 9.0694C4.596 8.76594 4.49011 8.46207 4.38514 8.15784C4.31413 7.95228 4.24263 7.74688 4.17105 7.54151C4.13652 7.4421 4.10219 7.34263 4.06807 7.24308C4.02007 7.10317 3.97131 6.96354 3.92238 6.82396C3.90139 6.7619 3.90139 6.7619 3.87998 6.69859C3.78386 6.42766 3.67476 6.18822 3.41719 6.03569C3.3716 6.02101 3.3716 6.02101 3.32509 6.00603C3.29458 5.99551 3.26406 5.985 3.23262 5.97417C2.97158 5.915 2.79067 5.99917 2.57802 6.14079ZM1.82802 7.64079C1.65716 7.83793 1.61289 7.99289 1.59364 8.25017C1.61747 8.38353 1.64495 8.50646 1.68136 8.63614C1.69624 8.69204 1.69624 8.69204 1.71141 8.74907C1.74438 8.87242 1.77824 8.99552 1.81209 9.11864C1.8357 9.20631 1.85926 9.29399 1.88276 9.38169C1.93241 9.56666 1.98242 9.75154 2.03268 9.93635C2.10759 10.2121 2.18119 10.4882 2.25445 10.7644C2.36294 11.1732 2.47213 11.5819 2.5819 11.9904C2.64407 12.2218 2.7061 12.4532 2.7678 12.6847C2.82918 12.915 2.89089 13.1452 2.95285 13.3754C2.97597 13.4615 2.99898 13.5476 3.02186 13.6337C3.21639 14.4399 3.21639 14.4399 3.6913 15.0998C3.71625 15.1238 3.7412 15.1477 3.7669 15.1724C3.92916 15.3273 4.09523 15.4778 4.26589 15.6233C4.37689 15.7184 4.48522 15.8162 4.59364 15.9142C4.73336 16.0403 4.8736 16.1656 5.01552 16.2892C5.19781 16.448 5.3772 16.6099 5.5566 16.7719C5.66151 16.866 5.76742 16.9587 5.87392 17.0509C6.28645 17.4112 6.4829 17.7063 6.70302 18.2345C6.71849 18.6522 6.73396 19.0699 6.74989 19.5002C7.98739 19.5002 9.22489 19.5002 10.4999 19.5002C10.5018 18.9346 10.5038 18.369 10.5058 17.7863C10.5066 17.6092 10.5075 17.432 10.5083 17.2495C10.5087 17.0877 10.5087 17.0877 10.5088 16.9258C10.509 16.855 10.5093 16.7841 10.5098 16.7132C10.5158 15.7819 10.4473 14.9335 9.79677 14.2033C9.48585 13.8916 9.15883 13.6648 8.77431 13.4533C8.69422 13.4082 8.61413 13.3631 8.5341 13.3179C8.47839 13.2864 8.42264 13.255 8.36685 13.2237C8.0743 13.0595 7.7851 12.8896 7.49603 12.7193C7.35344 12.6354 7.21069 12.5517 7.06795 12.468C7.01357 12.4361 6.9592 12.4042 6.90482 12.3723C6.82813 12.3273 6.82813 12.3273 6.74989 12.2814C6.70282 12.2538 6.65574 12.2261 6.60723 12.1977C6.48301 12.1248 6.35866 12.0522 6.23427 11.9797C6.19898 11.9589 6.1637 11.9382 6.12735 11.9168C5.76179 11.7016 5.76179 11.7016 5.34309 11.6942C5.11272 11.7553 4.97208 11.8776 4.85439 12.0793C4.75794 12.2982 4.75837 12.4763 4.82802 12.7033C5.01869 13.03 5.35115 13.1893 5.67177 13.3654C5.7531 13.4113 5.83443 13.4571 5.91572 13.5031C5.99854 13.5499 6.08151 13.5963 6.16451 13.6428C6.41552 13.7836 6.66511 13.9268 6.91396 14.0715C6.95758 14.0962 7.00121 14.121 7.04616 14.1465C7.10616 14.1814 7.10616 14.1814 7.16737 14.217C7.20233 14.2371 7.23729 14.2572 7.2733 14.2779C7.37365 14.355 7.41075 14.4127 7.45302 14.5314C7.44423 14.7013 7.44423 14.7013 7.40614 14.8595C7.22727 14.9788 7.09686 14.9943 6.89052 14.9533C6.69102 14.8653 6.50797 14.7534 6.32216 14.6398C6.24128 14.5916 6.16041 14.5435 6.07951 14.4953C5.99716 14.4462 5.91503 14.3966 5.83295 14.347C5.68044 14.255 5.5267 14.1653 5.37257 14.076C5.2809 14.0228 5.18922 13.9695 5.09755 13.9162C5.05549 13.8919 5.01342 13.8675 4.97009 13.8424C4.63717 13.6467 4.37355 13.4837 4.204 13.1222C4.18097 13.0743 4.15795 13.0264 4.13423 12.977C3.953 12.5479 4.01999 12.1475 4.17177 11.7189C4.22863 11.5483 4.20321 11.4965 4.14742 11.3284C4.13064 11.2771 4.11387 11.2259 4.09658 11.1731C4.07789 11.1174 4.05919 11.0618 4.03993 11.0044C4.02088 10.9466 4.00182 10.8888 3.98219 10.8293C3.9312 10.6746 3.87972 10.5201 3.82813 10.3657C3.77703 10.2124 3.7264 10.059 3.67574 9.90562C3.61641 9.72604 3.55696 9.54651 3.49693 9.36716C3.40729 9.0992 3.3185 8.83113 3.23372 8.56158C3.21211 8.49387 3.21211 8.49387 3.19007 8.42478C3.16395 8.34269 3.13832 8.26045 3.11331 8.17801C3.02745 7.91066 2.91861 7.68458 2.66719 7.53569C2.6216 7.52101 2.6216 7.52101 2.57509 7.50603C2.54458 7.49551 2.51406 7.485 2.48262 7.47417C2.22121 7.41492 2.0411 7.49947 1.82802 7.64079ZM6.37489 20.2502C6.37489 20.9927 6.37489 21.7352 6.37489 22.5002C7.85989 22.5002 9.34489 22.5002 10.8749 22.5002C10.8749 21.7577 10.8749 21.0152 10.8749 20.2502C9.38989 20.2502 7.90489 20.2502 6.37489 20.2502Z" fill="#FE0C0F"/>
<path d="M11.0155 1.172C11.0821 1.20391 11.0821 1.20391 11.15 1.23646C11.4585 1.39388 11.7052 1.58719 11.953 1.82825C12.1051 1.76057 12.2127 1.67479 12.3367 1.56458C13.1025 0.942712 14.0808 0.739126 15.0467 0.797004C16.0328 0.913135 16.9353 1.37247 17.578 2.13587C18.2672 3.03495 18.5418 4.07768 18.4017 5.20399C18.2003 6.36543 17.4713 7.14589 16.6622 7.95323C16.6142 8.00125 16.5663 8.04927 16.5183 8.0973C16.3897 8.22619 16.2608 8.35493 16.132 8.48364C15.9967 8.6188 15.8615 8.75408 15.7264 8.88934C15.4998 9.11593 15.2732 9.34243 15.0466 9.56887C14.7844 9.83074 14.5225 10.0928 14.2606 10.3549C14.0353 10.5805 13.8098 10.806 13.5843 11.0314C13.4498 11.1658 13.3153 11.3003 13.1809 11.4348C13.0549 11.5609 12.9289 11.6869 12.8027 11.8128C12.7563 11.8591 12.71 11.9054 12.6638 11.9518C12.6008 12.0149 12.5377 12.0778 12.4746 12.1407C12.4216 12.1936 12.4216 12.1936 12.3676 12.2477C12.2272 12.3784 12.1072 12.4001 11.9149 12.3968C11.7891 12.3702 11.7367 12.3265 11.6425 12.2397C11.6099 12.2097 11.5773 12.1797 11.5437 12.1488C11.3431 11.9568 11.1453 11.7623 10.9489 11.5661C10.901 11.5184 10.853 11.4707 10.8051 11.423C10.6759 11.2944 10.5468 11.1657 10.4178 11.0368C10.3369 10.9561 10.256 10.8754 10.1751 10.7947C9.9213 10.5415 9.66755 10.2882 9.41394 10.0348C9.12253 9.74362 8.83083 9.45273 8.53885 9.16211C8.31219 8.93647 8.08581 8.71056 7.85963 8.48445C7.72498 8.34984 7.59021 8.21534 7.45515 8.08113C7.32802 7.95478 7.20124 7.82809 7.07471 7.70114C7.02857 7.65498 6.98233 7.60893 6.93594 7.56301C6.53564 7.1665 6.184 6.74456 5.93831 6.2345C5.92271 6.20269 5.90712 6.17088 5.89105 6.13811C5.44436 5.20095 5.48238 4.12864 5.81819 3.16419C6.1831 2.26238 6.85822 1.54886 7.73421 1.12513C8.82421 0.692113 9.94506 0.653736 11.0155 1.172ZM7.07796 2.62513C6.54523 3.264 6.30963 4.04777 6.36513 4.87446C6.46999 5.89466 7.09525 6.54116 7.78622 7.22934C7.83201 7.27512 7.87779 7.32091 7.92356 7.36671C8.04633 7.48949 8.16924 7.61212 8.29218 7.73473C8.4212 7.86346 8.55009 7.99232 8.67899 8.12116C8.92242 8.36445 9.16597 8.60762 9.40957 8.85074C9.68717 9.12782 9.96465 9.40504 10.2421 9.68227C10.8122 10.2519 11.3825 10.8214 11.953 11.3908C12.1149 11.3209 12.2208 11.2289 12.3456 11.1051C12.3863 11.0649 12.427 11.0247 12.469 10.9833C12.5138 10.9386 12.5585 10.8939 12.6033 10.8493C12.6507 10.8023 12.6982 10.7553 12.7456 10.7083C12.8745 10.5807 13.0031 10.4527 13.1315 10.3247C13.212 10.2445 13.2925 10.1644 13.373 10.0843C13.6255 9.83306 13.8778 9.58165 14.1299 9.32997C14.4198 9.04052 14.7102 8.75169 15.0012 8.4634C15.2267 8.23992 15.4517 8.0159 15.6763 7.79147C15.8101 7.65776 15.9441 7.52427 16.0787 7.39135C16.2057 7.26593 16.332 7.13983 16.4578 7.01322C16.5252 6.94567 16.5933 6.87881 16.6615 6.81199C17.2558 6.21018 17.6217 5.45347 17.6395 4.59974C17.6312 3.75552 17.3211 3.02373 16.726 2.4217C16.119 1.84996 15.3506 1.55623 14.5159 1.57758C13.6273 1.66163 12.9102 2.0572 12.2987 2.70258C12.2076 2.7918 12.1431 2.81212 12.0174 2.83607C11.7766 2.80039 11.6546 2.65008 11.4842 2.4845C10.8425 1.8737 10.0968 1.57223 9.2115 1.58436C8.36201 1.63344 7.64641 2.00452 7.07796 2.62513Z" fill="#FE0C0F"/>
<path d="M11.4845 3.35027C11.5255 3.35009 11.5664 3.34991 11.6085 3.34973C11.6949 3.3496 11.7812 3.34994 11.8676 3.35073C11.9997 3.35173 12.1317 3.35074 12.2638 3.34954C12.3478 3.34966 12.4318 3.3499 12.5158 3.35027C12.5553 3.34989 12.5947 3.34951 12.6354 3.34912C12.8081 3.35189 12.9089 3.35676 13.0566 3.45139C13.1472 3.5984 13.1466 3.69599 13.1435 3.86809C13.1429 3.92671 13.1423 3.98532 13.1417 4.04571C13.1401 4.10673 13.1385 4.16776 13.1369 4.23064C13.136 4.2924 13.1352 4.35415 13.1343 4.41778C13.1321 4.57028 13.129 4.72271 13.1252 4.87517C13.164 4.87419 13.2027 4.87321 13.2427 4.8722C13.4184 4.8683 13.594 4.86586 13.7697 4.86345C13.8307 4.86188 13.8918 4.86031 13.9546 4.85869C14.0133 4.85809 14.0719 4.85749 14.1323 4.85686C14.1863 4.85588 14.2403 4.8549 14.2959 4.85389C14.4377 4.87517 14.4377 4.87517 14.549 4.9437C14.6623 5.12059 14.6521 5.27844 14.6501 5.48455C14.6503 5.54591 14.6503 5.54591 14.6506 5.60851C14.6507 5.69488 14.6504 5.78124 14.6496 5.86761C14.6486 5.99973 14.6496 6.13173 14.6508 6.26385C14.6507 6.34783 14.6504 6.43181 14.6501 6.5158C14.6505 6.55526 14.6508 6.59471 14.6512 6.63537C14.6485 6.80815 14.6436 6.90893 14.549 7.05665C14.4019 7.14718 14.3044 7.14661 14.1323 7.14348C14.0736 7.14288 14.015 7.14228 13.9546 7.14165C13.8936 7.14008 13.8326 7.13851 13.7697 7.13689C13.708 7.13605 13.6462 7.1352 13.5826 7.13433C13.4301 7.13212 13.2776 7.12903 13.1252 7.12517C13.1266 7.18334 13.1266 7.18334 13.1281 7.24268C13.132 7.41835 13.1345 7.59401 13.1369 7.7697C13.1385 7.83073 13.14 7.89176 13.1417 7.95464C13.1426 8.04256 13.1426 8.04256 13.1435 8.13225C13.145 8.21326 13.145 8.21326 13.1465 8.2959C13.1252 8.43767 13.1252 8.43767 13.0566 8.54896C12.8798 8.66228 12.7219 8.65206 12.5158 8.65008C12.4749 8.65026 12.434 8.65043 12.3918 8.65062C12.3055 8.65075 12.2191 8.6504 12.1327 8.64962C12.0006 8.64861 11.8686 8.64961 11.7365 8.65081C11.6525 8.65068 11.5685 8.65044 11.4845 8.65008C11.4254 8.65065 11.4254 8.65065 11.365 8.65123C11.1922 8.64846 11.0914 8.64359 10.9437 8.54896C10.8532 8.40194 10.8537 8.30436 10.8569 8.13225C10.8575 8.07364 10.8581 8.01503 10.8587 7.95464C10.8603 7.89361 10.8618 7.83258 10.8635 7.7697C10.8643 7.70795 10.8651 7.6462 10.866 7.58257C10.8682 7.43007 10.8713 7.27764 10.8752 7.12517C10.817 7.12665 10.817 7.12665 10.7577 7.12815C10.582 7.13205 10.4063 7.13449 10.2306 7.13689C10.1696 7.13846 10.1086 7.14003 10.0457 7.14165C9.98709 7.14226 9.92848 7.14286 9.86809 7.14348C9.81409 7.14447 9.76008 7.14545 9.70444 7.14646C9.56267 7.12517 9.56267 7.12517 9.45139 7.05665C9.33807 6.87976 9.34829 6.72191 9.35027 6.5158C9.35009 6.47489 9.34991 6.43398 9.34973 6.39184C9.3496 6.30547 9.34994 6.2191 9.35073 6.13274C9.35173 6.00062 9.35074 5.86862 9.34954 5.7365C9.34966 5.65252 9.3499 5.56853 9.35027 5.48455C9.34989 5.44509 9.34951 5.40563 9.34912 5.36498C9.35189 5.1922 9.35676 5.09142 9.45139 4.9437C9.5984 4.85317 9.69599 4.85373 9.86809 4.85686C9.92671 4.85747 9.98532 4.85807 10.0457 4.85869C10.1372 4.86105 10.1372 4.86105 10.2306 4.86345C10.2924 4.8643 10.3542 4.86515 10.4178 4.86602C10.5703 4.86823 10.7227 4.87131 10.8752 4.87517C10.8742 4.8364 10.8732 4.79762 10.8722 4.75767C10.8683 4.582 10.8659 4.40634 10.8635 4.23064C10.8611 4.1391 10.8611 4.1391 10.8587 4.04571C10.8581 3.98709 10.8575 3.92848 10.8569 3.86809C10.8559 3.81409 10.8549 3.76008 10.8539 3.70444C10.8752 3.56267 10.8752 3.56267 10.9437 3.45139C11.1206 3.33807 11.2784 3.34829 11.4845 3.35027ZM11.6252 4.12517C11.6234 4.21829 11.6217 4.3114 11.6199 4.40734C11.6176 4.49763 11.6153 4.58792 11.6129 4.67821C11.6105 4.77172 11.6089 4.86524 11.6073 4.95876C11.6057 5.01752 11.604 5.07629 11.6023 5.13683C11.6011 5.19108 11.5998 5.24533 11.5986 5.30123C11.5783 5.43767 11.5783 5.43767 11.5253 5.52529C11.3959 5.60357 11.2872 5.59888 11.1368 5.60229C11.0781 5.60395 11.0193 5.60561 10.9588 5.60732C10.8973 5.60838 10.8359 5.60944 10.7726 5.61053C10.71 5.61208 10.6474 5.6137 10.5849 5.61538C10.4316 5.61925 10.2784 5.62229 10.1252 5.62517C10.1252 5.87267 10.1252 6.12017 10.1252 6.37517C10.2183 6.37693 10.3114 6.37868 10.4073 6.38048C10.4976 6.38277 10.5879 6.38505 10.6782 6.38748C10.7717 6.3898 10.8652 6.39142 10.9588 6.39303C11.0175 6.39469 11.0763 6.39635 11.1368 6.39806C11.1911 6.39929 11.2453 6.40052 11.3012 6.40178C11.4377 6.42205 11.4377 6.42205 11.5253 6.47506C11.6036 6.60445 11.5989 6.71312 11.6023 6.86352C11.6048 6.95166 11.6048 6.95166 11.6073 7.04159C11.6084 7.10301 11.6094 7.16443 11.6105 7.22771C11.6121 7.29031 11.6137 7.3529 11.6154 7.41549C11.6192 7.5687 11.6223 7.72194 11.6252 7.87517C11.8727 7.87517 12.1202 7.87517 12.3752 7.87517C12.3769 7.78206 12.3787 7.68894 12.3805 7.59301C12.3828 7.50272 12.3851 7.41243 12.3875 7.32214C12.3898 7.22863 12.3914 7.13511 12.393 7.04159C12.3947 6.98282 12.3963 6.92406 12.3981 6.86352C12.3993 6.80927 12.4005 6.75502 12.4018 6.69912C12.422 6.56267 12.422 6.56267 12.4751 6.47506C12.6044 6.39678 12.7131 6.40146 12.8635 6.39806C12.9223 6.3964 12.981 6.39474 13.0416 6.39303C13.1337 6.39144 13.1337 6.39144 13.2277 6.38982C13.2903 6.38827 13.3529 6.38665 13.4155 6.38497C13.5687 6.3811 13.7219 6.37806 13.8752 6.37517C13.8752 6.12767 13.8752 5.88017 13.8752 5.62517C13.7821 5.62342 13.6889 5.62167 13.593 5.61986C13.5027 5.61758 13.4124 5.6153 13.3221 5.61287C13.2286 5.61055 13.1351 5.60893 13.0416 5.60732C12.9828 5.60566 12.9241 5.604 12.8635 5.60229C12.8093 5.60106 12.755 5.59983 12.6991 5.59857C12.5627 5.5783 12.5627 5.5783 12.4751 5.52529C12.3968 5.3959 12.4015 5.28723 12.3981 5.13683C12.3964 5.07807 12.3947 5.0193 12.393 4.95876C12.3914 4.86663 12.3914 4.86663 12.3898 4.77263C12.3883 4.71004 12.3867 4.64745 12.385 4.58486C12.3811 4.43165 12.3781 4.27841 12.3752 4.12517C12.1277 4.12517 11.8802 4.12517 11.6252 4.12517Z" fill="#FE0C0F"/>
</svg>
