<svg width="20" height="20" viewBox="0 0 20 20" fill="none" xmlns="http://www.w3.org/2000/svg">
<g clip-path="url(#clip0_280_3602)">
<path d="M9.9936 18.3214C14.593 18.3214 18.3216 14.5929 18.3216 9.99348C18.3216 5.39408 14.593 1.66553 9.9936 1.66553C5.3942 1.66553 1.66565 5.39408 1.66565 9.99348C1.66565 14.5929 5.3942 18.3214 9.9936 18.3214Z" stroke="#4A5565" stroke-width="1.66559" stroke-linecap="round" stroke-linejoin="round"/>
<path d="M7.57007 7.49525C7.76586 6.93866 8.15232 6.46933 8.66099 6.17038C9.16967 5.87143 9.76773 5.76215 10.3493 5.86189C10.9308 5.96164 11.4582 6.26398 11.8382 6.71536C12.2182 7.16673 12.4261 7.73802 12.4253 8.32804C12.4253 9.99363 9.92688 10.8264 9.92688 10.8264" stroke="#4A5565" stroke-width="1.66559" stroke-linecap="round" stroke-linejoin="round"/>
<path d="M9.99353 14.1575H10.0019" stroke="#4A5565" stroke-width="1.66559" stroke-linecap="round" stroke-linejoin="round"/>
</g>
<defs>
<clipPath id="clip0_280_3602">
<rect width="19.9871" height="19.9871" fill="white"/>
</clipPath>
</defs>
</svg>
