<svg width="24" height="24" viewBox="0 0 24 24" fill="none" xmlns="http://www.w3.org/2000/svg">
<g clip-path="url(#clip0_701_1923)">
<path d="M11.9529 6.28125C12.1358 6.36062 12.2845 6.48038 12.4393 6.60352C12.4823 6.63749 12.4823 6.63749 12.5261 6.67216C12.7894 6.88176 13.0443 7.10049 13.2988 7.32056C13.4722 7.47029 13.6492 7.61534 13.827 7.75983C14.0018 7.902 14.1756 8.04521 14.3494 8.18848C14.4184 8.2453 14.4874 8.30212 14.5563 8.35895C14.591 8.38749 14.6256 8.41603 14.6613 8.44544C14.8288 8.58345 14.9963 8.72141 15.1639 8.85938C15.2303 8.91406 15.2967 8.96875 15.3631 9.02344C15.4124 9.06404 15.4124 9.06404 15.4627 9.10547C15.5623 9.1875 15.6619 9.26953 15.7615 9.35156C15.7944 9.37864 15.8273 9.40573 15.8612 9.43363C15.9275 9.4882 15.9937 9.54277 16.06 9.59735C16.2282 9.73594 16.3965 9.87444 16.565 10.0128C16.8721 10.265 17.1785 10.5179 17.4813 10.7754C17.6851 10.9488 17.8918 11.1179 18.1014 11.2842C18.3786 11.5063 18.6515 11.7336 18.9254 11.9597C19.0295 12.0456 19.1338 12.1313 19.2382 12.217C19.5773 12.4955 19.9156 12.7749 20.2489 13.0606C20.3557 13.1518 20.4608 13.2344 20.5779 13.3125C20.5959 13.4416 20.5959 13.4416 20.5964 13.6095C20.5967 13.6404 20.597 13.6712 20.5973 13.7029C20.5981 13.8067 20.5979 13.9105 20.5976 14.0143C20.598 14.0885 20.5984 14.1627 20.5988 14.2369C20.5999 14.439 20.6 14.641 20.5999 14.8431C20.5999 15.0117 20.6003 15.1804 20.6007 15.349C20.6016 15.7472 20.6017 16.1453 20.6014 16.5434C20.6011 16.9538 20.6022 17.3642 20.6039 17.7746C20.6054 18.127 20.6059 18.4794 20.6057 18.8318C20.6056 19.0423 20.6059 19.2527 20.607 19.4631C20.6081 19.6613 20.608 19.8594 20.607 20.0576C20.6069 20.1301 20.6071 20.2027 20.6078 20.2752C20.614 21 20.614 21 20.3436 21.2812C20.1185 21.4771 19.9285 21.5684 19.6301 21.5681C19.5795 21.5682 19.5288 21.5683 19.4766 21.5683C19.421 21.5682 19.3654 21.568 19.3081 21.5678C19.2495 21.5678 19.191 21.5678 19.1307 21.5678C18.9701 21.5678 18.8096 21.5676 18.649 21.5673C18.4812 21.567 18.3134 21.5669 18.1456 21.5669C17.8279 21.5667 17.5101 21.5663 17.1924 21.5659C16.763 21.5653 16.3337 21.565 15.9043 21.5647C15.2278 21.5643 14.5513 21.5634 13.8748 21.5625C13.8748 19.6753 13.8748 17.7881 13.8748 15.8438C12.6373 15.8438 11.3998 15.8438 10.1248 15.8438C10.1248 17.7309 10.1248 19.6181 10.1248 21.5625C8.63529 21.5701 8.63529 21.5701 8.01032 21.5717C7.57907 21.5728 7.14783 21.5741 6.71659 21.5766C6.40249 21.5785 6.0884 21.5797 5.7743 21.5801C5.60808 21.5804 5.44187 21.581 5.27565 21.5823C5.08982 21.5838 4.90401 21.5839 4.71818 21.5838C4.63604 21.5848 4.63604 21.5848 4.55225 21.5858C4.21192 21.5841 3.93535 21.5478 3.67874 21.3088C3.46712 21.0712 3.41034 20.8604 3.40632 20.5482C3.40581 20.5175 3.4053 20.4868 3.40478 20.4553C3.4032 20.3529 3.40229 20.2505 3.40139 20.1482C3.40041 20.0746 3.39941 20.0011 3.39838 19.9275C3.3952 19.6863 3.39306 19.445 3.39112 19.2037C3.39061 19.1421 3.39061 19.1421 3.39009 19.0791C3.38694 18.6911 3.38422 18.303 3.38243 17.9149C3.38011 17.4194 3.37576 16.924 3.36865 16.4285C3.36381 16.0796 3.36132 15.7308 3.36055 15.3818C3.36003 15.1737 3.35848 14.9656 3.3544 14.7575C3.35061 14.5615 3.34975 14.3656 3.35106 14.1695C3.35104 14.0979 3.34999 14.0263 3.3478 13.9548C3.33255 13.4301 3.33255 13.4301 3.48199 13.233C3.6473 13.0623 3.83495 12.9297 4.03107 12.7969C4.09151 12.7496 4.15162 12.702 4.21107 12.6535C4.25898 12.6167 4.3069 12.5799 4.35627 12.542C4.61314 12.3428 4.86124 12.1351 5.10705 11.9225C5.35385 11.7091 5.6057 11.5023 5.8592 11.2969C6.13594 11.072 6.4108 10.8453 6.68244 10.6143C6.8922 10.436 7.10451 10.2618 7.3202 10.0908C7.59759 9.86846 7.8708 9.64099 8.14493 9.41469C8.27968 9.30349 8.41454 9.19242 8.54942 9.08138C8.61541 9.02704 8.6814 8.9727 8.74738 8.91835C8.91565 8.77973 9.08401 8.64121 9.25251 8.50287C9.55961 8.2506 9.86605 7.99776 10.1688 7.74023C10.3719 7.56745 10.5777 7.39883 10.7867 7.23322C11.0058 7.05754 11.222 6.87834 11.4385 6.6995C11.6089 6.55874 11.7798 6.41869 11.9529 6.28125Z" fill="#926503"/>
<path d="M13.0122 2.69976C13.3411 2.92823 13.6387 3.19713 13.9392 3.46111C14.1214 3.6208 14.3084 3.77392 14.4966 3.92638C14.6425 4.04567 14.7863 4.16724 14.9298 4.2893C15.1148 4.44654 15.3009 4.60206 15.4894 4.75512C15.7211 4.94371 15.9483 5.13727 16.1746 5.33235C16.2006 5.3548 16.2267 5.37725 16.2535 5.40038C16.2762 5.42004 16.299 5.43969 16.3224 5.45994C16.4433 5.56293 16.5655 5.66431 16.6876 5.76586C16.6879 5.73008 16.6882 5.69429 16.6885 5.65742C16.6912 5.31949 16.6946 4.98157 16.6987 4.64365C16.7008 4.46994 16.7026 4.29623 16.7039 4.12251C16.7051 3.95473 16.707 3.78697 16.7093 3.6192C16.7101 3.55533 16.7107 3.49145 16.711 3.42757C16.7114 3.33782 16.7128 3.24807 16.7142 3.15833C16.7148 3.10732 16.7153 3.05632 16.7158 3.00377C16.7376 2.83547 16.7871 2.7229 16.8751 2.57836C17.0454 2.46484 17.1264 2.47226 17.3292 2.47099C17.3609 2.47068 17.3925 2.47036 17.4251 2.47004C17.5298 2.46915 17.6344 2.46897 17.739 2.46886C17.8118 2.46856 17.8846 2.46825 17.9574 2.46792C18.1101 2.46736 18.2627 2.46718 18.4154 2.46724C18.6108 2.46725 18.8062 2.46597 19.0016 2.46435C19.152 2.46331 19.3024 2.46312 19.4528 2.46317C19.5248 2.46306 19.5968 2.46265 19.6689 2.46192C19.7697 2.461 19.8705 2.46127 19.9714 2.46184C20.0288 2.4617 20.0861 2.46157 20.1452 2.46143C20.3256 2.48898 20.4026 2.54538 20.5314 2.67211C20.592 2.79326 20.584 2.8799 20.5839 3.0156C20.584 3.09507 20.584 3.09507 20.5841 3.17614C20.5839 3.23454 20.5838 3.29294 20.5836 3.3531C20.5836 3.41438 20.5836 3.47566 20.5836 3.5388C20.5836 3.70711 20.5833 3.87542 20.583 4.04373C20.5827 4.21953 20.5827 4.39532 20.5826 4.57112C20.5825 4.90414 20.5821 5.23716 20.5816 5.57017C20.5811 5.94925 20.5809 6.32832 20.5806 6.7074C20.5801 7.4873 20.5793 8.26721 20.5783 9.04711C20.6062 9.06016 20.6342 9.07321 20.663 9.08665C20.8182 9.16854 20.9424 9.28634 21.0734 9.4016C21.1324 9.45292 21.1915 9.50419 21.2506 9.55541C21.2798 9.58067 21.3089 9.60593 21.3389 9.63195C21.4519 9.72904 21.5671 9.82332 21.6828 9.91723C21.8723 10.0711 22.0593 10.2277 22.2453 10.386C22.4219 10.5362 22.5996 10.6843 22.7814 10.8284C23.0201 11.0176 23.2525 11.214 23.4843 11.4116C23.5677 11.4825 23.6512 11.5533 23.7352 11.6236C23.9887 11.8365 23.9887 11.8365 24.0146 11.9947C24.0296 12.2552 23.9851 12.3939 23.8179 12.5922C23.7853 12.6289 23.7526 12.6656 23.7189 12.7034C23.6735 12.7564 23.6283 12.8096 23.5832 12.8628C23.4641 13.0031 23.3441 13.1424 23.2233 13.2812C23.1788 13.3333 23.1352 13.3862 23.0925 13.4399C22.9402 13.6311 22.8403 13.7 22.5939 13.7346C22.3798 13.6814 22.2421 13.5988 22.0753 13.4563C22.0308 13.4186 21.9863 13.381 21.9404 13.3422C21.8926 13.3011 21.8448 13.2601 21.797 13.219C21.7213 13.1547 21.6455 13.0906 21.5696 13.0265C21.5178 12.9827 21.4661 12.9389 21.4144 12.895C21.2543 12.7591 21.0927 12.625 20.9298 12.4924C20.714 12.3167 20.5014 12.1376 20.2893 11.9574C20.1292 11.8215 19.9677 11.6875 19.8048 11.5549C19.589 11.3792 19.3764 11.2001 19.1643 11.0199C19.0042 10.884 18.8427 10.75 18.6798 10.6174C18.464 10.4417 18.2514 10.2626 18.0393 10.0824C17.8792 9.94653 17.7177 9.81251 17.5548 9.67992C17.339 9.50424 17.1264 9.32509 16.9143 9.14489C16.7542 9.00903 16.5927 8.87501 16.4298 8.74242C16.214 8.56674 16.0014 8.38759 15.7893 8.20739C15.6292 8.07153 15.4677 7.93751 15.3048 7.80492C15.089 7.62924 14.8764 7.45009 14.6643 7.26989C14.5042 7.13403 14.3427 7.00001 14.1798 6.86742C13.964 6.69174 13.7514 6.51259 13.5393 6.33239C13.3383 6.16185 13.1347 5.9947 12.9299 5.82867C12.8314 5.74734 12.7342 5.66517 12.6377 5.58147C12.6106 5.55809 12.5835 5.53471 12.5556 5.51061C12.5031 5.46516 12.4507 5.41946 12.3987 5.37347C12.2574 5.25151 12.1313 5.1671 11.9533 5.10961C11.9153 5.14194 11.8772 5.17427 11.8381 5.20757C11.589 5.41909 11.3395 5.62989 11.0861 5.83617C10.8967 5.99031 10.7096 6.14682 10.5236 6.30492C10.2963 6.4981 10.0665 6.68789 9.8351 6.87621C9.68836 6.99687 9.54334 7.11941 9.39857 7.24242C9.17125 7.4356 8.94147 7.62539 8.7101 7.81371C8.56336 7.93437 8.41834 8.05691 8.27357 8.17992C8.04625 8.3731 7.81647 8.56289 7.5851 8.75121C7.43836 8.87187 7.29334 8.99441 7.14857 9.11742C6.92125 9.3106 6.69147 9.50039 6.4601 9.68871C6.31336 9.80937 6.16834 9.93191 6.02357 10.0549C5.79625 10.2481 5.56647 10.4379 5.3351 10.6262C5.18836 10.7469 5.04334 10.8694 4.89858 10.9924C4.67125 11.1856 4.44147 11.3754 4.2101 11.5637C4.06336 11.6844 3.91834 11.8069 3.77358 11.9299C3.54625 12.1231 3.31647 12.3129 3.0851 12.5012C2.93836 12.6219 2.79335 12.7444 2.64858 12.8674C2.45403 13.0324 2.25913 13.1969 2.06264 13.3596C2.023 13.3925 1.98336 13.4254 1.94252 13.4592C1.7407 13.6145 1.57193 13.724 1.31264 13.7346C1.04893 13.6354 0.907001 13.4739 0.73256 13.2629C0.706139 13.2317 0.679718 13.2004 0.652497 13.1682C0.575068 13.0763 0.498394 12.9837 0.422013 12.8909C0.390494 12.8527 0.390494 12.8527 0.358338 12.8137C-0.0244969 12.3477 -0.0244969 12.3477 -0.0181728 12.0173C0.0370026 11.6835 0.407169 11.4681 0.653641 11.2715C0.805345 11.1498 0.953716 11.0248 1.1017 10.8987C1.32899 10.7055 1.55881 10.5157 1.79018 10.3274C1.93692 10.2067 2.08194 10.0842 2.2267 9.96117C2.45403 9.768 2.68381 9.57821 2.91518 9.38988C3.06192 9.26923 3.20694 9.14669 3.3517 9.02367C3.57903 8.8305 3.80881 8.64071 4.04018 8.45238C4.18692 8.33173 4.33194 8.20919 4.4767 8.08617C4.70403 7.893 4.93381 7.70321 5.16518 7.51488C5.31192 7.39423 5.45694 7.27169 5.6017 7.14867C5.82903 6.9555 6.05881 6.76571 6.29018 6.57738C6.43692 6.45673 6.58194 6.33419 6.7267 6.21117C6.95402 6.018 7.18381 5.82821 7.41518 5.63989C7.56192 5.51923 7.70694 5.39669 7.8517 5.27367C8.07919 5.08036 8.30911 4.89039 8.54073 4.70202C8.68456 4.58366 8.82625 4.46298 8.96791 4.34203C9.20212 4.1423 9.44203 3.9515 9.68542 3.76312C9.89707 3.59792 10.0994 3.42371 10.3009 3.24633C11.0937 2.55343 12.0105 2.08486 13.0122 2.69976Z" fill="#926503"/>
</g>
<defs>
<clipPath id="clip0_701_1923">
<rect width="24" height="24" fill="white"/>
</clipPath>
</defs>
</svg>
