<svg width="24" height="24" viewBox="0 0 24 24" fill="none" xmlns="http://www.w3.org/2000/svg">
<path d="M19.2862 4.30362C19.7951 4.73003 20.0794 5.27538 20.25 5.90616C20.3859 5.90616 20.4438 5.8378 20.5518 5.75675C21.0651 5.39083 21.5731 5.23284 22.1983 5.23819C22.262 5.23765 22.262 5.23765 22.3271 5.23709C22.9079 5.23878 22.9079 5.23878 23.127 5.45206C23.3686 5.85172 23.2961 6.5353 23.218 6.97879C23.0134 7.68347 22.6156 8.26869 21.9802 8.6467C21.5365 8.88074 21.1591 9.00862 20.6573 9.00284C20.5383 9.00187 20.4194 9.00091 20.2969 8.99991C20.2969 9.24741 20.2969 9.49491 20.2969 9.74991C20.3919 9.74844 20.3919 9.74844 20.4889 9.74694C20.7251 9.74353 20.9613 9.74138 21.1976 9.73961C21.2996 9.73867 21.4016 9.73739 21.5036 9.73577C21.6507 9.73348 21.7978 9.73242 21.9449 9.7316C21.9901 9.73063 22.0353 9.72966 22.0819 9.72867C22.4244 9.72856 22.6734 9.80183 22.9333 10.0295C23.2978 10.4699 23.3054 10.8734 23.3057 11.4286C23.3063 11.4769 23.3069 11.5251 23.3074 11.5748C23.3082 11.9972 23.298 12.4142 23.0157 12.7499C22.6197 13.1421 22.3603 13.1311 21.75 13.1718C21.75 13.7596 21.75 14.3474 21.75 14.953C21.9821 14.9685 22.2141 14.984 22.4532 14.9999C22.8074 15.1229 23.043 15.3513 23.2207 15.6825C23.3054 16.0126 23.3055 16.3398 23.3057 16.6786C23.3063 16.7269 23.3069 16.7751 23.3074 16.8248C23.3082 17.2472 23.298 17.6642 23.0157 17.9999C22.7285 18.2843 22.4943 18.3855 22.087 18.4042C22.0545 18.406 22.022 18.4078 21.9885 18.4097C21.9091 18.4141 21.8295 18.418 21.75 18.4218C21.7576 18.4645 21.7651 18.5072 21.7729 18.5512C21.8084 18.8012 21.8055 19.0516 21.8057 19.3036C21.8063 19.3519 21.8069 19.4001 21.8074 19.4498C21.8082 19.8257 21.7914 20.1948 21.6094 20.5312C21.6309 20.5528 21.6524 20.5744 21.6746 20.5967C21.9943 20.9366 22.1774 21.3241 22.1719 21.7968C22.1425 22.2217 22.0049 22.577 21.6979 22.8784C21.356 23.16 21.0273 23.2714 20.5907 23.2684C20.5512 23.2687 20.5116 23.269 20.4709 23.2693C20.3394 23.27 20.2079 23.2698 20.0764 23.2696C19.9818 23.2699 19.8871 23.2703 19.7924 23.2708C19.5359 23.2718 19.2793 23.272 19.0227 23.2719C18.8082 23.2719 18.5936 23.2723 18.3791 23.2727C17.8726 23.2736 17.3661 23.2737 16.8596 23.2734C16.3381 23.2731 15.8166 23.2742 15.2951 23.2759C14.8465 23.2773 14.398 23.2779 13.9495 23.2777C13.6819 23.2776 13.4144 23.2778 13.1469 23.279C12.895 23.28 12.6432 23.2799 12.3914 23.279C12.2994 23.2788 12.2073 23.2791 12.1153 23.2797C10.7596 23.289 9.87303 22.4986 8.84769 21.6913C8.58983 21.4888 8.32918 21.2937 8.05668 21.1112C8.02953 21.093 8.00239 21.0747 7.97442 21.0559C7.683 20.8648 7.40455 20.7078 7.05473 20.6601C7.0059 20.6531 6.95708 20.646 6.90678 20.6388C6.85239 20.6319 6.85239 20.6319 6.79691 20.6249C6.79981 20.68 6.80271 20.7351 6.8057 20.7919C6.80494 21.0057 6.76391 21.1425 6.65629 21.328C6.48253 21.4198 6.33724 21.4329 6.14268 21.4309C6.09056 21.4306 6.03844 21.4303 5.98475 21.43C5.93082 21.4292 5.87689 21.4285 5.82133 21.4276C5.76649 21.4272 5.71166 21.4268 5.65516 21.4264C5.52011 21.4253 5.38508 21.4237 5.25004 21.4218C5.2481 21.4576 5.24617 21.4933 5.24418 21.5302C5.20316 21.6562 5.20316 21.6562 5.08374 21.7332C4.89818 21.8061 4.73775 21.8166 4.5416 21.815C4.48598 21.8154 4.48598 21.8154 4.42924 21.8157C4.30732 21.8163 4.18543 21.8159 4.06351 21.8155C3.97841 21.8156 3.89331 21.8157 3.80821 21.8159C3.63011 21.8161 3.45202 21.8158 3.27392 21.8151C3.046 21.8143 2.8181 21.8148 2.59018 21.8156C2.41453 21.8161 2.23888 21.816 2.06322 21.8156C1.9792 21.8155 1.89517 21.8156 1.81115 21.816C1.69358 21.8163 1.57604 21.8158 1.45847 21.815C1.40674 21.8154 1.40674 21.8154 1.35396 21.8158C1.13461 21.8132 0.982993 21.7727 0.796913 21.6562C0.727673 21.5177 0.743652 21.3938 0.743141 21.2392C0.742968 21.2056 0.742795 21.1719 0.742617 21.1373C0.742099 21.024 0.74192 20.9107 0.741741 20.7974C0.741448 20.7164 0.741137 20.6354 0.740809 20.5545C0.739992 20.334 0.739497 20.1136 0.739111 19.8932C0.73887 19.7555 0.738584 19.6179 0.73829 19.4803C0.737396 19.05 0.73673 18.6197 0.73634 18.1895C0.735881 17.6922 0.734647 17.195 0.732754 16.6978C0.731342 16.3138 0.730646 15.9298 0.730491 15.5458C0.73038 15.3162 0.729957 15.0867 0.728781 14.8572C0.727693 14.6414 0.72749 14.4256 0.727973 14.2097C0.727996 14.1304 0.727699 14.0511 0.727057 13.9718C0.726231 13.8637 0.726557 13.7557 0.727176 13.6475C0.727064 13.587 0.726951 13.5264 0.726836 13.4641C0.754117 13.2858 0.794927 13.2317 0.937538 13.1249C1.10809 13.0681 1.26492 13.0707 1.44251 13.0705C1.47957 13.0703 1.51663 13.07 1.55481 13.0698C1.67748 13.0691 1.80015 13.0688 1.92283 13.0685C2.00813 13.0682 2.09343 13.068 2.17874 13.0677C2.35767 13.0672 2.53661 13.0669 2.71555 13.0668C2.94458 13.0665 3.17359 13.0654 3.40261 13.0641C3.57887 13.0632 3.75512 13.0629 3.93138 13.0629C4.0158 13.0627 4.10021 13.0624 4.18463 13.0617C4.30289 13.0609 4.42111 13.061 4.53937 13.0613C4.57408 13.0609 4.60879 13.0605 4.64455 13.06C4.86443 13.0618 5.01795 13.0989 5.20316 13.2187C5.24418 13.3446 5.24418 13.3446 5.25004 13.453C5.28406 13.4523 5.31809 13.4516 5.35315 13.4508C5.50823 13.4479 5.6633 13.446 5.8184 13.4442C5.87193 13.4431 5.92547 13.4419 5.98063 13.4407C6.48637 13.4363 6.48637 13.4363 6.70316 13.5937C6.81387 13.81 6.8051 14.0126 6.79691 14.2499C6.82481 14.2464 6.8527 14.2429 6.88144 14.2392C7.35622 14.1892 7.82988 14.2019 8.3065 14.2118C8.45315 14.2147 8.59978 14.2167 8.74644 14.2186C10.4951 14.2487 11.8115 14.6397 13.2049 15.7147C13.3788 15.8473 13.5566 15.9742 13.7344 16.1015C13.9895 16.285 14.2437 16.4697 14.4965 16.6563C14.572 16.7119 14.6476 16.7672 14.7234 16.8224C14.8978 16.9497 15.0683 17.0786 15.2329 17.2184C15.2625 17.2426 15.2921 17.2667 15.3225 17.2916C15.3761 17.3356 15.4286 17.381 15.4794 17.4281C15.7996 17.6857 16.043 17.578 16.5 17.578C16.5 16.9902 16.5 16.4024 16.5 15.7968C16.268 15.7813 16.036 15.7658 15.7969 15.7499C15.4427 15.6269 15.2071 15.3986 15.0293 15.0673C14.9447 14.7373 14.9446 14.41 14.9444 14.0712C14.9438 14.023 14.9432 13.9747 14.9426 13.925C14.9418 13.5026 14.9521 13.0856 15.2344 12.7499C15.5208 12.4663 15.7565 12.3643 16.1631 12.3456C16.1956 12.3438 16.2281 12.342 16.2615 12.3401C16.341 12.3357 16.4205 12.3318 16.5 12.328C16.4991 12.276 16.4981 12.224 16.4971 12.1705C16.4937 11.9762 16.4915 11.7819 16.4897 11.5876C16.4888 11.5038 16.4875 11.4199 16.4859 11.3361C16.4836 11.2151 16.4826 11.0941 16.4817 10.9731C16.4808 10.936 16.4798 10.899 16.4788 10.8609C16.4787 10.5458 16.5713 10.3044 16.7796 10.0667C16.8102 10.0414 16.8407 10.0162 16.8721 9.99015C16.9025 9.96416 16.9329 9.93818 16.9642 9.91141C17.1448 9.787 17.3075 9.73809 17.5258 9.73927C17.5928 9.73928 17.5928 9.73928 17.6612 9.7393C17.7076 9.73978 17.754 9.74026 17.8017 9.74076C17.8448 9.74085 17.8879 9.74094 17.9323 9.74104C18.0926 9.74153 18.2528 9.74284 18.4131 9.74405C18.7718 9.74599 19.1305 9.74792 19.5 9.74991C19.5 9.00741 19.5 8.26491 19.5 7.49991C19.2371 7.49991 18.9741 7.49991 18.7032 7.49991C17.8865 7.30687 17.2657 6.90557 16.8137 6.19052C16.5656 5.74076 16.4916 5.31643 16.4912 4.81046C16.4907 4.76731 16.4901 4.72417 16.4895 4.67972C16.4883 4.09267 16.4883 4.09267 16.7022 3.87296C17.4474 3.42237 18.6562 3.83521 19.2862 4.30362ZM17.2969 4.54679C17.2657 5.14144 17.3363 5.58368 17.7261 6.04697C18.0112 6.3556 18.3717 6.6305 18.7969 6.70304C18.9102 6.70624 19.0235 6.70701 19.1368 6.70597C19.196 6.70554 19.2552 6.70512 19.3162 6.70468C19.384 6.70387 19.384 6.70387 19.4532 6.70304C19.4918 6.13038 19.4177 5.66049 19.0464 5.20897C18.7581 4.88322 18.3912 4.62156 17.9532 4.54679C17.8399 4.54358 17.7266 4.54281 17.6133 4.54386C17.5245 4.54449 17.5245 4.54449 17.4339 4.54514C17.3887 4.54568 17.3435 4.54623 17.2969 4.54679ZM20.7334 6.69132C20.4284 7.05428 20.2896 7.41743 20.294 7.88663C20.2944 7.94585 20.2948 8.00506 20.2953 8.06607C20.2958 8.11127 20.2964 8.15647 20.2969 8.20304C20.8885 8.23413 21.3324 8.16503 21.7938 7.77713C22.1368 7.45942 22.3817 7.12802 22.4532 6.65616C22.4563 6.54976 22.4572 6.44327 22.4561 6.33682C22.4557 6.28238 22.4552 6.22794 22.4548 6.17185C22.4543 6.13058 22.4537 6.08931 22.4532 6.04679C21.7332 6.00895 21.2294 6.16229 20.7334 6.69132ZM17.3438 10.6405C17.2431 10.8418 17.2843 11.1084 17.2831 11.3319C17.2823 11.4309 17.2802 11.5298 17.2781 11.6288C17.2777 11.6918 17.2773 11.7549 17.277 11.8179C17.2763 11.8752 17.2756 11.9326 17.2749 11.9916C17.3011 12.1687 17.3434 12.2215 17.4844 12.328C17.6724 12.3907 17.8536 12.3822 18.0496 12.3825C18.1148 12.3828 18.1148 12.3828 18.1813 12.3832C18.3253 12.3839 18.4693 12.3842 18.6133 12.3844C18.7133 12.3847 18.8133 12.385 18.9133 12.3852C19.1231 12.3857 19.333 12.386 19.5428 12.3862C19.8116 12.3864 20.0803 12.3876 20.349 12.3889C20.5557 12.3898 20.7624 12.39 20.969 12.3901C21.0681 12.3902 21.1672 12.3906 21.2662 12.3912C21.4049 12.392 21.5436 12.3919 21.6823 12.3916C21.7231 12.3921 21.7639 12.3925 21.806 12.3929C22.0405 12.3913 22.2036 12.3657 22.4063 12.2343C22.5069 12.033 22.4657 11.7664 22.467 11.5429C22.4678 11.444 22.4699 11.345 22.4719 11.2461C22.4724 11.183 22.4728 11.12 22.4731 11.0569C22.4738 10.9996 22.4745 10.9422 22.4752 10.8832C22.449 10.7061 22.4067 10.6533 22.2657 10.5468C22.1029 10.4925 21.9675 10.4967 21.7969 10.4999C21.7935 10.5762 21.7935 10.5762 21.79 10.6541C21.7864 10.7218 21.7829 10.7896 21.7793 10.8573C21.7779 10.8907 21.7764 10.9242 21.7749 10.9586C21.7637 11.1632 21.7379 11.3403 21.6563 11.5312C21.5103 11.6042 21.3467 11.6045 21.1875 11.578C21.0889 11.5019 21.0512 11.4589 21.0266 11.3354C21.0254 11.2968 21.0242 11.2583 21.0229 11.2186C21.0213 11.1768 21.0196 11.1349 21.0179 11.0918C21.0168 11.0483 21.0158 11.0047 21.0147 10.9599C21.0131 10.9158 21.0115 10.8717 21.0098 10.8263C21.006 10.7175 21.0029 10.6087 21 10.4999C20.768 10.4999 20.536 10.4999 20.2969 10.4999C20.2946 10.5508 20.2923 10.6017 20.29 10.6541C20.2864 10.7218 20.2829 10.7896 20.2793 10.8573C20.2772 10.9075 20.2772 10.9075 20.2749 10.9586C20.2637 11.1632 20.2379 11.3403 20.1563 11.5312C20.0103 11.6042 19.8467 11.6045 19.6875 11.578C19.5889 11.5019 19.5512 11.4589 19.5266 11.3354C19.5254 11.2968 19.5242 11.2583 19.5229 11.2186C19.5213 11.1768 19.5196 11.1349 19.5179 11.0918C19.5163 11.0265 19.5163 11.0265 19.5147 10.9599C19.5131 10.9158 19.5115 10.8717 19.5098 10.8263C19.506 10.7175 19.5029 10.6087 19.5 10.4999C19.268 10.4999 19.036 10.4999 18.7969 10.4999C18.7946 10.5508 18.7923 10.6017 18.79 10.6541C18.7864 10.7218 18.7829 10.7896 18.7793 10.8573C18.7772 10.9075 18.7772 10.9075 18.7749 10.9586C18.7637 11.1632 18.7379 11.3403 18.6563 11.5312C18.5103 11.6042 18.3467 11.6045 18.1875 11.578C18.0889 11.5019 18.0512 11.4589 18.0266 11.3354C18.0254 11.2968 18.0242 11.2583 18.0229 11.2186C18.0213 11.1768 18.0196 11.1349 18.0179 11.0918C18.0168 11.0483 18.0158 11.0047 18.0147 10.9599C18.0131 10.9158 18.0115 10.8717 18.0098 10.8263C18.006 10.7175 18.0027 10.6087 18 10.4999C17.9415 10.4986 17.8829 10.4973 17.8226 10.4959C17.7897 10.4951 17.7567 10.4944 17.7228 10.4936C17.5738 10.5032 17.4682 10.5616 17.3438 10.6405ZM15.8438 13.2655C15.7431 13.4668 15.7843 13.7334 15.7831 13.9569C15.7823 14.0559 15.7802 14.1548 15.7781 14.2538C15.7777 14.3168 15.7773 14.3799 15.777 14.4429C15.7763 14.5002 15.7756 14.5576 15.7749 14.6166C15.8011 14.7937 15.8434 14.8465 15.9844 14.953C16.1724 15.0157 16.3536 15.0072 16.5496 15.0075C16.6148 15.0078 16.6148 15.0078 16.6813 15.0082C16.8253 15.0089 16.9693 15.0092 17.1133 15.0094C17.2133 15.0097 17.3133 15.01 17.4133 15.0102C17.6231 15.0107 17.833 15.011 18.0428 15.0112C18.3116 15.0114 18.5803 15.0126 18.849 15.0139C19.0557 15.0148 19.2624 15.015 19.469 15.0151C19.5681 15.0152 19.6672 15.0156 19.7662 15.0162C19.9049 15.017 20.0436 15.0169 20.1823 15.0166C20.2231 15.0171 20.2639 15.0175 20.306 15.0179C20.5405 15.0163 20.7036 14.9907 20.9063 14.8593C21.0069 14.658 20.9657 14.3914 20.967 14.1679C20.9678 14.069 20.9699 13.97 20.9719 13.8711C20.9724 13.808 20.9728 13.745 20.9731 13.6819C20.9738 13.6246 20.9745 13.5672 20.9752 13.5082C20.949 13.3311 20.9067 13.2783 20.7657 13.1718C20.6029 13.1175 20.4675 13.1217 20.2969 13.1249C20.2935 13.2012 20.2935 13.2012 20.29 13.2791C20.2864 13.3468 20.2829 13.4146 20.2793 13.4823C20.2779 13.5157 20.2764 13.5492 20.2749 13.5836C20.2637 13.7882 20.2379 13.9653 20.1563 14.1562C20.0103 14.2292 19.8467 14.2295 19.6875 14.203C19.5889 14.1269 19.5512 14.0839 19.5266 13.9604C19.5254 13.9218 19.5242 13.8833 19.5229 13.8436C19.5213 13.8018 19.5196 13.7599 19.5179 13.7168C19.5168 13.6733 19.5158 13.6297 19.5147 13.5849C19.5131 13.5408 19.5115 13.4967 19.5098 13.4513C19.506 13.3425 19.5029 13.2337 19.5 13.1249C19.268 13.1249 19.036 13.1249 18.7969 13.1249C18.7946 13.1758 18.7923 13.2267 18.79 13.2791C18.7864 13.3468 18.7829 13.4146 18.7793 13.4823C18.7772 13.5325 18.7772 13.5325 18.7749 13.5836C18.7637 13.7882 18.7379 13.9653 18.6563 14.1562C18.5103 14.2292 18.3467 14.2295 18.1875 14.203C18.0889 14.1269 18.0512 14.0839 18.0266 13.9604C18.0254 13.9218 18.0242 13.8833 18.0229 13.8436C18.0213 13.8018 18.0196 13.7599 18.0179 13.7168C18.0163 13.6515 18.0163 13.6515 18.0147 13.5849C18.0131 13.5408 18.0115 13.4967 18.0098 13.4513C18.006 13.3425 18.0029 13.2337 18 13.1249C17.768 13.1249 17.536 13.1249 17.2969 13.1249C17.2946 13.1758 17.2923 13.2267 17.29 13.2791C17.2864 13.3468 17.2829 13.4146 17.2793 13.4823C17.2772 13.5325 17.2772 13.5325 17.2749 13.5836C17.2637 13.7882 17.2379 13.9653 17.1563 14.1562C17.0103 14.2292 16.8467 14.2295 16.6875 14.203C16.5889 14.1269 16.5512 14.0839 16.5266 13.9604C16.5254 13.9218 16.5242 13.8833 16.5229 13.8436C16.5213 13.8018 16.5196 13.7599 16.5179 13.7168C16.5168 13.6733 16.5158 13.6297 16.5147 13.5849C16.5131 13.5408 16.5115 13.4967 16.5098 13.4513C16.506 13.3425 16.5027 13.2337 16.5 13.1249C16.4415 13.1236 16.3829 13.1223 16.3226 13.1209C16.2897 13.1201 16.2567 13.1194 16.2228 13.1186C16.0738 13.1282 15.9682 13.1866 15.8438 13.2655ZM1.54691 13.8749C1.54691 16.2262 1.54691 18.5774 1.54691 20.9999C2.52144 20.9999 3.49598 20.9999 4.50004 20.9999C4.50004 18.6487 4.50004 16.2974 4.50004 13.8749C3.52551 13.8749 2.55098 13.8749 1.54691 13.8749ZM5.29691 14.2499C5.29691 16.3537 5.29691 18.4574 5.29691 20.6249C5.52894 20.6249 5.76098 20.6249 6.00004 20.6249C6.00004 18.5212 6.00004 16.4174 6.00004 14.2499C5.76801 14.2499 5.53598 14.2499 5.29691 14.2499ZM6.79691 14.9999C6.79691 16.6087 6.79691 18.2174 6.79691 19.8749C7.02894 19.8904 7.26098 19.9058 7.50004 19.9218C8.28702 20.1672 8.954 20.746 9.59703 21.2456C10.6806 22.1574 10.6806 22.1574 12.0033 22.5121C12.0584 22.5124 12.0584 22.5124 12.1147 22.5127C12.237 22.5132 12.3594 22.513 12.4818 22.5128C12.5698 22.513 12.6578 22.5132 12.7459 22.5135C12.9845 22.5141 13.2231 22.5142 13.4618 22.514C13.6612 22.514 13.8606 22.5142 14.06 22.5145C14.5306 22.515 15.0012 22.515 15.4718 22.5147C15.9568 22.5144 16.4418 22.515 16.9268 22.516C17.3437 22.5168 17.7605 22.5171 18.1774 22.517C18.4262 22.5169 18.6749 22.517 18.9237 22.5176C19.1577 22.5182 19.3917 22.5181 19.6257 22.5175C19.7114 22.5174 19.7971 22.5175 19.8828 22.5179C20.583 22.5427 20.583 22.5427 21.1846 22.2333C21.3126 22.0277 21.3989 21.8498 21.3589 21.604C21.2815 21.3592 21.165 21.2349 20.9532 21.0937C20.6921 20.9778 20.4406 20.9868 20.1604 20.9879C20.1094 20.9878 20.0584 20.9876 20.0058 20.9874C19.8952 20.9871 19.7847 20.987 19.6741 20.987C19.4989 20.9871 19.3237 20.9865 19.1486 20.9857C18.6505 20.9835 18.1525 20.9824 17.6545 20.9821C17.3496 20.9818 17.0448 20.9807 16.7399 20.979C16.6239 20.9785 16.508 20.9784 16.392 20.9787C16.2296 20.979 16.0672 20.9782 15.9047 20.9771C15.8571 20.9775 15.8096 20.9779 15.7605 20.9783C15.3593 20.9737 15.0502 20.8558 14.7305 20.6132C14.6874 20.5807 14.6442 20.5483 14.5998 20.5149C14.5457 20.4734 14.4916 20.432 14.4375 20.3905C14.363 20.3339 14.2884 20.2774 14.2138 20.2208C14.0444 20.0922 13.8754 19.9632 13.7066 19.8339C13.5443 19.7097 13.3813 19.5866 13.2173 19.4648C13.1809 19.4375 13.1445 19.4102 13.1069 19.3821C13.0389 19.3312 12.9706 19.2806 12.902 19.2303C12.7327 19.103 12.6039 18.9955 12.5157 18.7968C12.5189 18.6332 12.5315 18.5501 12.6416 18.4276C12.7905 18.3552 12.8653 18.3528 13.0313 18.3749C13.1789 18.4564 13.3087 18.5585 13.4414 18.662C13.4803 18.6915 13.5192 18.721 13.5592 18.7513C13.6807 18.8438 13.8014 18.9373 13.9219 19.0312C13.9593 19.0602 13.9966 19.0892 14.0351 19.1191C14.1779 19.2302 14.3206 19.3414 14.463 19.453C15.1452 20.0442 15.1452 20.0442 15.9844 20.203C16.2112 20.0938 16.344 19.9611 16.4532 19.7343C16.489 19.5099 16.4806 19.3278 16.3887 19.1191C16.0431 18.7405 15.595 18.461 15.1802 18.1634C14.9558 18.0022 14.7331 17.8388 14.5108 17.6747C14.4739 17.6475 14.4371 17.6203 14.3991 17.5923C14.2495 17.4818 14.0999 17.3712 13.9502 17.2607C13.412 16.863 12.8736 16.4657 12.3282 16.078C12.2975 16.056 12.2668 16.034 12.2352 16.0113C11.2353 15.298 10.2099 15.0613 8.99418 15.0204C8.94342 15.0184 8.89267 15.0164 8.84037 15.0143C8.15884 14.9906 7.47981 14.9999 6.79691 14.9999ZM17.3438 15.8905C17.2431 16.0918 17.2843 16.3584 17.2831 16.5819C17.2823 16.6809 17.2802 16.7798 17.2781 16.8788C17.2777 16.9418 17.2773 17.0049 17.277 17.0679C17.2763 17.1252 17.2756 17.1826 17.2749 17.2416C17.3011 17.4187 17.3434 17.4715 17.4844 17.578C17.6724 17.6407 17.8536 17.6322 18.0496 17.6325C18.1148 17.6328 18.1148 17.6328 18.1813 17.6332C18.3253 17.6339 18.4693 17.6342 18.6133 17.6344C18.7133 17.6347 18.8133 17.635 18.9133 17.6352C19.1231 17.6357 19.333 17.636 19.5428 17.6362C19.8116 17.6364 20.0803 17.6376 20.349 17.6389C20.5557 17.6398 20.7624 17.64 20.969 17.6401C21.0681 17.6402 21.1672 17.6406 21.2662 17.6412C21.4049 17.642 21.5436 17.6419 21.6823 17.6416C21.7231 17.6421 21.7639 17.6425 21.806 17.6429C22.0405 17.6413 22.2036 17.6157 22.4063 17.4843C22.5069 17.283 22.4657 17.0164 22.467 16.7929C22.4678 16.694 22.4699 16.595 22.4719 16.4961C22.4724 16.433 22.4728 16.37 22.4731 16.3069C22.4738 16.2496 22.4745 16.1922 22.4752 16.1332C22.449 15.9561 22.4067 15.9033 22.2657 15.7968C22.1029 15.7425 21.9675 15.7467 21.7969 15.7499C21.7935 15.8262 21.7935 15.8262 21.79 15.9041C21.7864 15.9718 21.7829 16.0396 21.7793 16.1073C21.7779 16.1407 21.7764 16.1742 21.7749 16.2086C21.7637 16.4132 21.7379 16.5903 21.6563 16.7812C21.5103 16.8542 21.3467 16.8545 21.1875 16.828C21.0889 16.7519 21.0512 16.7089 21.0266 16.5854C21.0254 16.5468 21.0242 16.5083 21.0229 16.4686C21.0213 16.4268 21.0196 16.3849 21.0179 16.3418C21.0168 16.2983 21.0158 16.2547 21.0147 16.2099C21.0131 16.1658 21.0115 16.1217 21.0098 16.0763C21.006 15.9675 21.0029 15.8587 21 15.7499C20.768 15.7499 20.536 15.7499 20.2969 15.7499C20.2946 15.8008 20.2923 15.8517 20.29 15.9041C20.2864 15.9718 20.2829 16.0396 20.2793 16.1073C20.2772 16.1575 20.2772 16.1575 20.2749 16.2086C20.2637 16.4132 20.2379 16.5903 20.1563 16.7812C20.0103 16.8542 19.8467 16.8545 19.6875 16.828C19.5889 16.7519 19.5512 16.7089 19.5266 16.5854C19.5254 16.5468 19.5242 16.5083 19.5229 16.4686C19.5213 16.4268 19.5196 16.3849 19.5179 16.3418C19.5163 16.2765 19.5163 16.2765 19.5147 16.2099C19.5131 16.1658 19.5115 16.1217 19.5098 16.0763C19.506 15.9675 19.5029 15.8587 19.5 15.7499C19.268 15.7499 19.036 15.7499 18.7969 15.7499C18.7946 15.8008 18.7923 15.8517 18.79 15.9041C18.7864 15.9718 18.7829 16.0396 18.7793 16.1073C18.7772 16.1575 18.7772 16.1575 18.7749 16.2086C18.7637 16.4132 18.7379 16.5903 18.6563 16.7812C18.5103 16.8542 18.3467 16.8545 18.1875 16.828C18.0889 16.7519 18.0512 16.7089 18.0266 16.5854C18.0254 16.5468 18.0242 16.5083 18.0229 16.4686C18.0213 16.4268 18.0196 16.3849 18.0179 16.3418C18.0168 16.2983 18.0158 16.2547 18.0147 16.2099C18.0131 16.1658 18.0115 16.1217 18.0098 16.0763C18.006 15.9675 18.0027 15.8587 18 15.7499C17.9415 15.7486 17.8829 15.7473 17.8226 15.7459C17.7897 15.7451 17.7567 15.7444 17.7228 15.7436C17.5738 15.7532 17.4682 15.8116 17.3438 15.8905ZM16.8282 18.3749C16.8804 18.459 16.9326 18.5431 16.9864 18.6298C17.2419 19.072 17.2849 19.4171 17.2032 19.9218C17.1726 20.0313 17.1414 20.1407 17.1094 20.2499C17.5629 20.2532 18.0165 20.2557 18.47 20.2572C18.6806 20.2579 18.8912 20.2589 19.1018 20.2605C19.3051 20.2621 19.5084 20.2629 19.7118 20.2633C19.7893 20.2635 19.8667 20.264 19.9442 20.2648C20.053 20.2658 20.1617 20.2659 20.2704 20.2659C20.3631 20.2663 20.3631 20.2663 20.4578 20.2668C20.6388 20.2485 20.7523 20.2047 20.9063 20.1093C21.0069 19.908 20.9657 19.6414 20.967 19.4179C20.9678 19.319 20.9699 19.22 20.9719 19.1211C20.9724 19.058 20.9728 18.995 20.9731 18.9319C20.9738 18.8746 20.9745 18.8172 20.9752 18.7582C20.949 18.5811 20.9067 18.5283 20.7657 18.4218C20.6029 18.3675 20.4675 18.3717 20.2969 18.3749C20.2935 18.4512 20.2935 18.4512 20.29 18.5291C20.2864 18.5968 20.2829 18.6646 20.2793 18.7323C20.2779 18.7657 20.2764 18.7992 20.2749 18.8336C20.2637 19.0382 20.2379 19.2153 20.1563 19.4062C20.0103 19.4792 19.8467 19.4795 19.6875 19.453C19.5889 19.3769 19.5512 19.3339 19.5266 19.2104C19.5254 19.1718 19.5242 19.1333 19.5229 19.0936C19.5213 19.0518 19.5196 19.0099 19.5179 18.9668C19.5163 18.9015 19.5163 18.9015 19.5147 18.8349C19.5131 18.7908 19.5115 18.7467 19.5098 18.7013C19.506 18.5925 19.5029 18.4837 19.5 18.3749C19.268 18.3749 19.036 18.3749 18.7969 18.3749C18.7946 18.4258 18.7923 18.4767 18.79 18.5291C18.7864 18.5968 18.7829 18.6646 18.7793 18.7323C18.7772 18.7825 18.7772 18.7825 18.7749 18.8336C18.7637 19.0382 18.7379 19.2153 18.6563 19.4062C18.5103 19.4792 18.3467 19.4795 18.1875 19.453C18.0889 19.3769 18.0512 19.3339 18.0266 19.2104C18.0254 19.1718 18.0242 19.1333 18.0229 19.0936C18.0214 19.0559 18.0198 19.0182 18.0182 18.9793C18.0171 18.9316 18.0159 18.884 18.0147 18.8349C18.0074 18.6072 18.0074 18.6072 18 18.3749C17.6133 18.3749 17.2266 18.3749 16.8282 18.3749Z" fill="#109F79"/>
<path d="M12.091 1.84375C12.2412 1.89211 12.3165 1.99412 12.4221 2.10925C12.4619 2.15143 12.5018 2.19361 12.5429 2.23706C12.7906 2.50572 13.0281 2.77849 13.2574 3.06323C13.3585 3.1861 13.4633 3.30417 13.5705 3.42175C13.753 3.62236 13.9262 3.82891 14.0964 4.0401C14.1704 4.13126 14.2457 4.22141 14.322 4.31073C14.3601 4.35575 14.3983 4.40076 14.4377 4.44714C14.4725 4.48763 14.5073 4.52811 14.5431 4.56982C14.6298 4.69398 14.6615 4.77159 14.6721 4.92175C14.5653 5.18606 14.5653 5.18606 14.4377 5.24988C14.3698 5.25379 14.3017 5.25491 14.2337 5.25446C14.1938 5.2543 14.1539 5.25415 14.1129 5.254C14.0712 5.25361 14.0295 5.25321 13.9865 5.25281C13.9445 5.2526 13.9024 5.25238 13.8591 5.25217C13.7551 5.25161 13.6511 5.25084 13.5471 5.24988C13.5464 5.27738 13.5457 5.30489 13.545 5.33323C13.49 7.33462 13.0862 9.20944 11.5895 10.6431C10.3793 11.7638 8.63327 12.1887 7.03143 12.328C6.98853 12.332 6.94563 12.3359 6.90143 12.34C6.41953 12.3799 5.93813 12.3868 5.45478 12.3887C5.36051 12.3893 5.26623 12.3902 5.17197 12.3916C5.03433 12.3936 4.89674 12.3944 4.75909 12.3948C4.717 12.3957 4.67491 12.3965 4.63155 12.3973C4.34155 12.3963 4.34155 12.3963 4.19259 12.2857C4.09901 12.1492 4.09847 12.0626 4.10687 11.9016C4.13546 11.7623 4.1981 11.7044 4.31268 11.6249C4.46874 11.5768 4.61797 11.5715 4.78089 11.5668C6.37138 11.5178 7.84976 11.0216 8.96191 9.85095C9.98675 8.72853 10.3666 7.17186 10.4328 5.69226C10.4358 5.62804 10.4358 5.62804 10.4389 5.56253C10.4438 5.45832 10.4486 5.3541 10.4533 5.24988C10.4143 5.25135 10.4143 5.25135 10.3745 5.25285C10.2563 5.25676 10.138 5.25919 10.0197 5.2616C9.9788 5.26317 9.9379 5.26474 9.89575 5.26636C9.59154 5.271 9.59154 5.271 9.44311 5.16235C9.36161 5.04241 9.33177 4.97364 9.32831 4.828C9.41393 4.62948 9.51415 4.4834 9.66229 4.32703C9.81492 4.16229 9.96078 3.99503 10.1017 3.82019C10.271 3.611 10.4479 3.4111 10.6291 3.21228C10.7382 3.08948 10.8422 2.96354 10.9455 2.83582C11.1191 2.62152 11.2981 2.41384 11.4851 2.21106C11.5396 2.15151 11.5931 2.09088 11.6437 2.02795C11.778 1.86803 11.8928 1.84775 12.091 1.84375ZM11.8667 2.99054C11.644 3.24307 11.4279 3.49956 11.2165 3.7616C11.0736 3.93381 10.9225 4.0977 10.7697 4.26111C10.6786 4.35798 10.6786 4.35798 10.6408 4.49988C10.6696 4.50163 10.6985 4.50338 10.7281 4.50519C10.766 4.50827 10.8039 4.51135 10.843 4.51453C10.8992 4.5186 10.8992 4.5186 10.9567 4.52277C11.0835 4.55145 11.1262 4.58374 11.2033 4.68738C11.6211 5.93556 11.0079 7.90863 10.4556 9.04227C10.2336 9.48594 9.98295 9.88995 9.65643 10.2655C9.60731 10.324 9.60731 10.324 9.55719 10.3836C9.3028 10.6783 9.02647 10.9181 8.71893 11.1561C8.86333 11.2283 8.96329 11.1636 9.11141 11.1143C10.374 10.6718 11.4338 9.95025 12.0453 8.72179C12.4795 7.81101 12.6773 6.86162 12.7293 5.85577C12.7312 5.81963 12.7331 5.78349 12.735 5.74626C12.744 5.56653 12.7513 5.38687 12.7568 5.207C12.7595 5.14085 12.7621 5.0747 12.7648 5.00854C12.7666 4.94997 12.7683 4.8914 12.7701 4.83105C12.7971 4.68738 12.7971 4.68738 12.8865 4.59849C13.0433 4.51576 13.1839 4.51451 13.3596 4.49988C13.2639 4.32964 13.1586 4.19131 13.0256 4.04871C12.8716 3.88077 12.7238 3.71002 12.5803 3.53308C12.4516 3.37474 12.3229 3.2167 12.1906 3.0614C12.165 3.03125 12.1395 3.0011 12.1132 2.97003C12.0064 2.86681 11.9696 2.89029 11.8667 2.99054Z" fill="#109F79"/>
<path d="M22.0783 1.31264C22.2459 1.43034 22.3025 1.50214 22.3478 1.70229C22.2972 1.95105 22.1612 2.07515 21.9845 2.25014C21.9543 2.2815 21.9241 2.31286 21.893 2.34517C21.6254 2.62008 21.6254 2.62008 21.381 2.63979C21.2425 2.63702 21.1928 2.62822 21.0705 2.55483C20.9914 2.42299 20.965 2.31744 20.9731 2.16316C21.0277 1.96052 21.1817 1.83029 21.3283 1.68764C21.3585 1.65634 21.3887 1.62504 21.4198 1.59279C21.6392 1.367 21.7462 1.27887 22.0783 1.31264Z" fill="#109F79"/>
<path d="M17.8271 1.27734C18.0759 1.32794 18.2 1.46392 18.375 1.64062C18.4064 1.67084 18.4377 1.70105 18.47 1.73218C18.7449 1.99978 18.7449 1.99978 18.7646 2.24414C18.7619 2.38264 18.7531 2.43237 18.6797 2.55469C18.5479 2.63379 18.4423 2.66011 18.288 2.6521C18.0854 2.59747 17.9551 2.4435 17.8125 2.29688C17.7812 2.26666 17.7499 2.23645 17.7177 2.20532C17.4449 1.94036 17.4449 1.94036 17.4199 1.71973C17.4375 1.54688 17.4375 1.54688 17.5342 1.40918C17.6719 1.3125 17.6719 1.3125 17.8271 1.27734Z" fill="#109F79"/>
<path d="M19.9736 0.731665C20.1128 0.760251 20.1707 0.822895 20.2502 0.937475C20.3134 1.11666 20.3075 1.3034 20.3088 1.49119C20.3098 1.52336 20.3108 1.55554 20.3118 1.58869C20.3136 1.82683 20.268 1.99182 20.1565 2.2031C20.0098 2.27645 19.8466 2.28265 19.6877 2.24998C19.566 2.15226 19.5069 2.09595 19.476 1.94089C19.4758 1.89594 19.4756 1.85098 19.4753 1.80466C19.4751 1.75536 19.4749 1.70605 19.4746 1.65525C19.4753 1.60401 19.4761 1.55277 19.4768 1.49998C19.4761 1.44874 19.4754 1.39749 19.4746 1.3447C19.475 1.27074 19.475 1.27074 19.4753 1.19529C19.4756 1.15033 19.4758 1.10538 19.476 1.05906C19.5318 0.779576 19.719 0.71839 19.9736 0.731665Z" fill="#109F79"/>
<path d="M3.18739 19.4999C3.30457 19.5702 3.30457 19.5702 3.37489 19.6874C3.41197 19.8759 3.40402 20.0138 3.30457 20.1796C3.13883 20.279 3.00087 20.287 2.81239 20.2499C2.6952 20.1796 2.6952 20.1796 2.62489 20.0624C2.58781 19.8739 2.59575 19.7359 2.6952 19.5702C2.86094 19.4708 2.9989 19.4628 3.18739 19.4999Z" fill="#109F79"/>
</svg>
