<svg width="24" height="24" viewBox="0 0 24 24" fill="none" xmlns="http://www.w3.org/2000/svg">
<path d="M11.8818 10.2413C11.9887 10.2411 12.0956 10.2407 12.2026 10.2403C12.4918 10.2395 12.7811 10.2398 13.0704 10.2404C13.3737 10.2409 13.6769 10.2404 13.9802 10.2401C14.5219 10.2398 15.0636 10.2404 15.6053 10.2413C16.0958 10.2421 16.5862 10.242 17.0766 10.2411C17.6473 10.2401 18.2179 10.2398 18.7885 10.2403C19.0902 10.2406 19.3918 10.2406 19.6935 10.24C19.9771 10.2395 20.2607 10.2399 20.5443 10.2409C20.6482 10.2412 20.7521 10.2411 20.856 10.2407C20.9981 10.2402 21.1403 10.2408 21.2825 10.2418C21.3232 10.2414 21.364 10.2409 21.406 10.2405C21.9144 10.2469 22.3302 10.4681 22.6833 10.8248C22.9884 11.1785 23.1508 11.6436 23.1271 12.1126C23.0476 12.6576 22.8438 13.0726 22.415 13.4209C22.057 13.6642 21.7116 13.7626 21.2818 13.7578C21.2371 13.7581 21.1924 13.7583 21.1464 13.7586C20.9978 13.7592 20.8494 13.7585 20.7009 13.7578C20.5939 13.758 20.4869 13.7583 20.3799 13.7586C20.0902 13.7593 19.8006 13.7587 19.5109 13.758C19.2074 13.7573 18.9038 13.7576 18.6003 13.7578C18.0907 13.7579 17.5811 13.7573 17.0715 13.7562C16.5478 13.7551 16.0242 13.7547 15.5005 13.7552C14.8684 13.7558 14.2363 13.7557 13.6042 13.755C13.3631 13.7547 13.1221 13.7547 12.8811 13.7549C12.5972 13.7552 12.3133 13.7547 12.0294 13.7537C11.9253 13.7534 11.8212 13.7534 11.7172 13.7536C11.5749 13.7539 11.4326 13.7533 11.2903 13.7525C11.2289 13.7529 11.2289 13.7529 11.1662 13.7534C10.6614 13.7482 10.3005 13.5729 9.94152 13.2257C9.5596 12.8177 9.45062 12.3918 9.45574 11.8441C9.49433 11.3327 9.75017 10.9531 10.1103 10.6054C10.6351 10.185 11.2441 10.2388 11.8818 10.2413ZM10.7812 11.5781C10.639 11.7772 10.6275 11.9362 10.6402 12.1713C10.7176 12.3512 10.8509 12.4601 11.0156 12.5625C11.1624 12.6011 11.3024 12.6004 11.4536 12.5979C11.4967 12.5983 11.5399 12.5987 11.5843 12.5991C11.7284 12.6001 11.8725 12.5991 12.0166 12.5981C12.1201 12.5984 12.2236 12.5988 12.3271 12.5994C12.6078 12.6004 12.8886 12.5998 13.1693 12.5987C13.4632 12.5978 13.757 12.5983 14.0509 12.5986C14.5759 12.599 15.1008 12.5979 15.6258 12.5963C16.1016 12.5948 16.5774 12.5947 17.0532 12.5956C17.6651 12.5967 18.277 12.5967 18.8888 12.5956C19.1224 12.5953 19.356 12.5954 19.5895 12.5958C19.8645 12.5963 20.1395 12.5957 20.4145 12.5941C20.5154 12.5937 20.6164 12.5937 20.7173 12.5942C20.8551 12.5947 20.9927 12.5938 21.1305 12.5925C21.1905 12.5933 21.1905 12.5933 21.2517 12.594C21.4468 12.5907 21.5713 12.5751 21.7259 12.4503C21.895 12.2748 21.939 12.1762 21.9346 11.9326C21.8795 11.7232 21.8064 11.6381 21.6562 11.4843C21.4999 11.4062 21.3243 11.4307 21.1524 11.4309C21.1094 11.4307 21.0664 11.4306 21.0221 11.4304C20.8772 11.43 20.7323 11.43 20.5874 11.4299C20.4839 11.4297 20.3803 11.4294 20.2768 11.4292C19.9948 11.4286 19.7129 11.4283 19.431 11.4281C19.255 11.4279 19.079 11.4277 18.903 11.4275C18.4158 11.427 17.9287 11.4265 17.4415 11.4263C17.4103 11.4263 17.3791 11.4263 17.347 11.4263C17.3001 11.4263 17.3001 11.4263 17.2522 11.4263C17.1889 11.4262 17.1255 11.4262 17.0622 11.4262C17.0308 11.4262 16.9993 11.4262 16.9669 11.4262C16.4577 11.426 15.9485 11.4252 15.4393 11.4241C14.9166 11.423 14.394 11.4224 13.8713 11.4223C13.5778 11.4223 13.2843 11.422 12.9908 11.4212C12.7147 11.4204 12.4387 11.4203 12.1626 11.4207C12.0612 11.4207 11.9598 11.4205 11.8584 11.4201C11.7201 11.4195 11.5818 11.4197 11.4436 11.4202C11.4033 11.4199 11.363 11.4195 11.3215 11.4191C11.1027 11.4209 10.9586 11.4358 10.7812 11.5781Z" fill="black"/>
<path d="M12.1682 2.04481C12.27 2.0447 12.3718 2.04453 12.4737 2.0443C12.7489 2.04386 13.0242 2.04429 13.2994 2.04492C13.5881 2.04545 13.8768 2.04526 14.1654 2.04517C14.65 2.04513 15.1346 2.04564 15.6192 2.04651C16.1788 2.0475 16.7384 2.04766 17.298 2.04737C17.8373 2.04711 18.3766 2.04737 18.9159 2.0479C19.145 2.04811 19.3741 2.04816 19.6032 2.04806C19.873 2.04797 20.1429 2.04835 20.4128 2.04909C20.5116 2.04929 20.6104 2.04933 20.7092 2.0492C20.8445 2.04905 20.9798 2.04948 21.1151 2.05005C21.1538 2.04987 21.1926 2.04969 21.2325 2.04951C21.7663 2.05347 22.252 2.16981 22.6564 2.53633C23.037 2.94519 23.173 3.33083 23.2033 3.89039C23.1809 4.33249 23.0037 4.79313 22.6877 5.10914C22.2636 5.4526 21.8827 5.59996 21.3384 5.59575C21.2942 5.59597 21.25 5.59619 21.2044 5.59641C21.0571 5.59697 20.9099 5.59653 20.7627 5.59609C20.6567 5.59628 20.5507 5.59653 20.4447 5.59683C20.1576 5.59747 19.8704 5.59723 19.5832 5.59678C19.2824 5.59642 18.9815 5.59676 18.6806 5.59698C18.143 5.59725 17.6053 5.59681 17.0677 5.5961C16.581 5.59547 16.0942 5.59558 15.6074 5.59623C15.0413 5.59698 14.4752 5.59726 13.909 5.59684C13.6097 5.59662 13.3103 5.59659 13.011 5.59706C12.7294 5.59747 12.4479 5.59718 12.1664 5.59637C12.0633 5.59618 11.9601 5.59624 11.857 5.59655C11.7159 5.59693 11.5747 5.59645 11.4336 5.59575C11.3931 5.59606 11.3526 5.59638 11.3109 5.5967C10.7909 5.59173 10.4042 5.43152 10.0357 5.06758C9.6305 4.6297 9.53532 4.2128 9.54679 3.62837C9.56805 3.21784 9.74783 2.86003 10.0315 2.56599C10.6554 2.02131 11.3864 2.04174 12.1682 2.04481ZM10.8022 3.45039C10.707 3.63445 10.6517 3.77256 10.6877 3.98414C10.7973 4.19117 10.8974 4.30803 11.1096 4.40602C11.2507 4.42622 11.3904 4.4252 11.5327 4.42419C11.5754 4.42444 11.6181 4.42469 11.6621 4.42495C11.8052 4.42562 11.9482 4.42529 12.0913 4.42496C12.1939 4.42522 12.2964 4.42555 12.399 4.42593C12.6776 4.42677 12.9563 4.42672 13.2349 4.42645C13.4674 4.42631 13.6999 4.42659 13.9324 4.42687C14.5123 4.42757 15.0921 4.4274 15.672 4.42683C16.1754 4.42637 16.6788 4.42697 17.1823 4.4281C17.6994 4.42924 18.2165 4.42967 18.7336 4.42938C19.0238 4.42922 19.314 4.42933 19.6043 4.43014C19.8772 4.43086 20.1501 4.43068 20.423 4.4298C20.5232 4.42962 20.6234 4.42977 20.7235 4.43026C20.8603 4.43088 20.9969 4.43034 21.1336 4.42951C21.1932 4.43019 21.1932 4.43019 21.2539 4.43087C21.5035 4.42776 21.6464 4.38475 21.844 4.21852C21.9543 4.0584 21.9846 3.96799 21.9846 3.7732C21.9248 3.56393 21.8589 3.4799 21.7033 3.32789C21.4916 3.21274 21.2879 3.22086 21.0533 3.22192C21.0114 3.22174 20.9695 3.22156 20.9263 3.22138C20.786 3.22089 20.6456 3.22108 20.5052 3.22127C20.4046 3.22106 20.3039 3.22082 20.2033 3.22054C19.9299 3.21991 19.6565 3.21989 19.3831 3.22C19.1549 3.22005 18.9267 3.21983 18.6985 3.2196C18.1601 3.21908 17.6217 3.21906 17.0834 3.21934C16.5279 3.21963 15.9725 3.21905 15.417 3.21805C14.9402 3.21723 14.4633 3.21694 13.9865 3.2171C13.7017 3.21718 13.4168 3.21706 13.132 3.21641C12.8642 3.21582 12.5963 3.21591 12.3285 3.21652C12.2302 3.21663 12.1319 3.2165 12.0336 3.21612C11.8994 3.21563 11.7652 3.21601 11.631 3.2166C11.5727 3.21608 11.5727 3.21608 11.5133 3.21555C11.249 3.21801 10.9954 3.25039 10.8022 3.45039Z" fill="black"/>
<path d="M11.3819 18.4039C11.4485 18.4035 11.4485 18.4035 11.5165 18.4031C11.6643 18.4024 11.812 18.4028 11.9598 18.4031C12.0662 18.4028 12.1726 18.4025 12.2789 18.4021C12.5671 18.4013 12.8554 18.4013 13.1436 18.4016C13.3845 18.4017 13.6254 18.4015 13.8663 18.4012C14.4672 18.4005 15.0681 18.4006 15.669 18.4012C16.19 18.4017 16.711 18.4011 17.232 18.4C17.7679 18.3988 18.3038 18.3984 18.8397 18.3987C19.1402 18.3988 19.4407 18.3987 19.7412 18.3979C20.0238 18.3972 20.3065 18.3974 20.5891 18.3983C20.6926 18.3984 20.7961 18.3983 20.8996 18.3978C21.5859 18.3948 22.1316 18.4131 22.6766 18.8776C23.0341 19.2432 23.1958 19.6981 23.2031 20.2033C23.1625 20.7299 22.9457 21.2106 22.5468 21.5627C21.9197 22.0149 21.1595 21.9514 20.4228 21.9498C20.3228 21.9499 20.2229 21.9501 20.123 21.9503C19.8532 21.9507 19.5834 21.9505 19.3135 21.9502C19.0304 21.95 18.7472 21.9502 18.4641 21.9504C17.9888 21.9505 17.5135 21.9503 17.0382 21.9499C16.4896 21.9494 15.941 21.9495 15.3923 21.95C14.9202 21.9505 14.4481 21.9505 13.976 21.9503C13.6945 21.9501 13.4129 21.9501 13.1314 21.9504C12.8668 21.9507 12.6022 21.9505 12.3375 21.95C12.2407 21.9499 12.1439 21.9499 12.047 21.9501C10.6128 21.9529 10.6128 21.9529 10.014 21.4125C9.6326 20.9928 9.53313 20.5233 9.54834 19.9693C9.57961 19.4229 9.86013 19.0753 10.2573 18.7207C10.5913 18.4599 10.9689 18.401 11.3819 18.4039ZM10.7343 19.8752C10.661 20.0901 10.6578 20.2722 10.7578 20.4787C10.8537 20.6498 11.0233 20.71 11.2031 20.7658C11.3458 20.7849 11.4865 20.7848 11.6304 20.7836C11.6724 20.7839 11.7144 20.7841 11.7576 20.7843C11.8978 20.7849 12.038 20.7844 12.1782 20.784C12.2789 20.7842 12.3797 20.7844 12.4804 20.7847C12.7536 20.7854 13.0268 20.7851 13.3 20.7847C13.586 20.7843 13.8719 20.7846 14.1579 20.7849C14.638 20.7851 15.1182 20.7848 15.5983 20.7841C16.1535 20.7833 16.7086 20.7836 17.2637 20.7844C17.7404 20.785 18.2171 20.7851 18.6938 20.7847C18.9785 20.7845 19.2631 20.7845 19.5478 20.7849C19.8154 20.7854 20.083 20.7851 20.3506 20.7843C20.4488 20.7841 20.5471 20.7841 20.6453 20.7844C20.7793 20.7848 20.9133 20.7843 21.0474 20.7836C21.0863 20.784 21.1252 20.7843 21.1652 20.7846C21.4501 20.7817 21.648 20.7243 21.8583 20.5197C21.9566 20.3595 21.981 20.2504 21.9843 20.0627C21.919 19.8927 21.8471 19.7548 21.7031 19.6408C21.5183 19.5792 21.3418 19.5866 21.1491 19.5864C21.085 19.586 21.085 19.586 21.0195 19.5857C20.8756 19.5849 20.7317 19.5845 20.5878 19.5841C20.4849 19.5837 20.3819 19.5832 20.279 19.5827C19.9405 19.5813 19.6019 19.5803 19.2634 19.5794C19.2058 19.5793 19.1482 19.5791 19.0889 19.579C18.5462 19.5775 18.0035 19.5763 17.4608 19.5755C17.3351 19.5753 17.2095 19.5751 17.0838 19.5749C17.0525 19.5749 17.0213 19.5748 16.9891 19.5748C16.4831 19.574 15.9772 19.5721 15.4712 19.5697C14.9516 19.5672 14.432 19.5659 13.9124 19.5655C13.6208 19.5653 13.3291 19.5646 13.0374 19.5627C12.763 19.561 12.4886 19.5606 12.2142 19.5612C12.1135 19.5612 12.0128 19.5608 11.9121 19.5597C11.7746 19.5585 11.6371 19.5589 11.4996 19.5598C11.4399 19.5586 11.4399 19.5586 11.379 19.5574C11.0958 19.5619 10.9096 19.6466 10.7343 19.8752Z" fill="black"/>
<path d="M5.48441 9.5626C5.65049 9.69424 5.80324 9.83481 5.95316 9.98447C5.98362 10.0144 6.01407 10.0443 6.04545 10.0751C6.52844 10.5846 6.74983 11.3081 6.77348 12.0001C6.74339 12.8806 6.39336 13.5975 5.76566 14.2032C5.48353 14.4621 5.18497 14.6289 4.82816 14.7657C4.79094 14.7808 4.75372 14.7958 4.71537 14.8113C4.01473 15.0497 3.19864 14.9487 2.53385 14.6586C2.20578 14.4946 1.94601 14.2737 1.68754 14.0157C1.65708 13.9858 1.62663 13.9559 1.59525 13.9251C1.06557 13.3664 0.869887 12.5954 0.877663 11.8437C0.944579 10.9597 1.34112 10.2869 1.98399 9.69699C2.23621 9.48779 2.50756 9.35141 2.81254 9.23447C2.84976 9.21942 2.88698 9.20438 2.92533 9.18888C3.75897 8.90528 4.76601 9.07465 5.48441 9.5626ZM2.53129 10.7813C2.23251 11.1603 2.02798 11.5873 2.04954 12.0779C2.10709 12.5635 2.28699 12.9956 2.6525 13.3296C3.13848 13.7019 3.56108 13.7909 4.17191 13.7345C4.62946 13.6374 5.00121 13.3921 5.26762 13.0079C5.53136 12.5783 5.65136 12.1478 5.55491 11.6443C5.42997 11.1862 5.17271 10.7703 4.76664 10.5147C4.72428 10.4875 4.68193 10.4602 4.63828 10.4322C3.94229 10.0662 3.07426 10.2281 2.53129 10.7813Z" fill="black"/>
<path d="M5.5969 17.7932C6.26958 18.2819 6.62108 19.0231 6.74992 19.8281C6.82898 20.6054 6.59195 21.3574 6.13249 21.9822C5.62019 22.5744 4.95972 23.0091 4.16282 23.0704C3.33808 23.111 2.57108 22.9629 1.92666 22.4103C1.294 21.8355 0.96004 21.1358 0.875528 20.2866C0.847804 19.5399 1.11053 18.7739 1.58616 18.1979C2.68868 17.0635 4.29444 16.9313 5.5969 17.7932ZM2.559 18.9007C2.23862 19.2595 2.0263 19.7411 2.04612 20.2273C2.12708 20.8058 2.36378 21.2129 2.80528 21.5841C3.2381 21.8936 3.70209 21.9275 4.21867 21.8906C4.64981 21.7939 5.01785 21.525 5.2675 21.164C5.53121 20.7345 5.64855 20.3073 5.55644 19.8037C5.43176 19.338 5.18857 18.9244 4.78117 18.6562C4.02265 18.2578 3.20904 18.3012 2.559 18.9007Z" fill="black"/>
<path d="M5.5969 1.48075C6.26958 1.96944 6.62108 2.71059 6.74992 3.5156C6.82898 4.29289 6.59195 5.04491 6.13249 5.66965C5.62019 6.26188 4.95972 6.69661 4.16282 6.75787C3.33808 6.79846 2.57108 6.6504 1.92666 6.09784C1.294 5.52301 0.96004 4.82334 0.875528 3.97409C0.847804 3.22738 1.11053 2.4614 1.58616 1.88541C2.68868 0.750989 4.29444 0.618788 5.5969 1.48075ZM2.559 2.58817C2.23862 2.94702 2.0263 3.42863 2.04612 3.91477C2.12708 4.49327 2.36378 4.90042 2.80528 5.27158C3.2381 5.58108 3.70209 5.615 4.21867 5.5781C4.64981 5.48138 5.01785 5.21247 5.2675 4.85153C5.53121 4.422 5.64855 3.99476 5.55644 3.49124C5.43176 3.02553 5.18857 2.61191 4.78117 2.34372C4.02265 1.94532 3.20904 1.98873 2.559 2.58817Z" fill="black"/>
</svg>
