<svg width="24" height="24" viewBox="0 0 24 24" fill="none" xmlns="http://www.w3.org/2000/svg">
<path d="M15.4415 13.0592C15.4978 13.0589 15.5542 13.0585 15.6122 13.0582C15.7653 13.0575 15.9184 13.0574 16.0715 13.0577C16.2 13.0578 16.3285 13.0575 16.457 13.0573C16.7604 13.0566 17.0638 13.0567 17.3672 13.0572C17.6788 13.0577 17.9904 13.0571 18.302 13.0558C18.5708 13.0548 18.8397 13.0545 19.1085 13.0548C19.2685 13.0549 19.4285 13.0548 19.5885 13.054C19.7671 13.0533 19.9458 13.0538 20.1244 13.0546C20.1765 13.0541 20.2285 13.0537 20.2821 13.0532C20.9426 13.0594 21.4465 13.3044 21.9258 13.749C22.3875 14.2369 22.5216 14.7868 22.5189 15.4415C22.5192 15.4978 22.5196 15.5542 22.5199 15.6122C22.5206 15.7653 22.5207 15.9184 22.5204 16.0715C22.5203 16.2 22.5206 16.3285 22.5208 16.457C22.5215 16.7604 22.5214 17.0638 22.5209 17.3672C22.5204 17.6788 22.521 17.9904 22.5223 18.302C22.5233 18.5708 22.5236 18.8397 22.5233 19.1085C22.5232 19.2685 22.5233 19.4285 22.5241 19.5885C22.5248 19.7671 22.5243 19.9458 22.5235 20.1244C22.5242 20.2025 22.5242 20.2025 22.5249 20.2821C22.5187 20.9426 22.2737 21.4465 21.8291 21.9258C21.3412 22.3875 20.7913 22.5216 20.1366 22.5189C20.0521 22.5194 20.0521 22.5194 19.9659 22.5199C19.8128 22.5206 19.6597 22.5207 19.5066 22.5204C19.3781 22.5203 19.2496 22.5206 19.1211 22.5208C18.8177 22.5215 18.5143 22.5214 18.2109 22.5209C17.8993 22.5204 17.5877 22.521 17.2761 22.5223C17.0073 22.5233 16.7384 22.5236 16.4696 22.5233C16.3096 22.5232 16.1496 22.5233 15.9896 22.5241C15.811 22.5248 15.6323 22.5243 15.4537 22.5235C15.3756 22.5242 15.3756 22.5242 15.296 22.5249C14.6355 22.5187 14.1316 22.2737 13.6523 21.8291C13.1906 21.3412 13.0565 20.7913 13.0592 20.1366C13.0589 20.0803 13.0585 20.0239 13.0582 19.9659C13.0575 19.8128 13.0574 19.6597 13.0577 19.5066C13.0578 19.3781 13.0575 19.2496 13.0573 19.1211C13.0566 18.8177 13.0567 18.5143 13.0572 18.2109C13.0577 17.8993 13.0571 17.5877 13.0558 17.2761C13.0548 17.0073 13.0545 16.7384 13.0548 16.4696C13.0549 16.3096 13.0548 16.1496 13.054 15.9896C13.0533 15.811 13.0538 15.6323 13.0546 15.4537C13.0541 15.4016 13.0537 15.3496 13.0532 15.296C13.0594 14.6355 13.3044 14.1316 13.749 13.6523C14.2369 13.1906 14.7868 13.0565 15.4415 13.0592Z" fill="#555555"/>
<path d="M3.8634 13.0592C3.91971 13.0589 3.97603 13.0585 4.03405 13.0582C4.18718 13.0575 4.34029 13.0574 4.49342 13.0577C4.62189 13.0578 4.75036 13.0575 4.87883 13.0573C5.18225 13.0566 5.48567 13.0567 5.7891 13.0572C6.10069 13.0577 6.41226 13.0571 6.72385 13.0558C6.9927 13.0548 7.26154 13.0545 7.53039 13.0548C7.69038 13.0549 7.85035 13.0548 8.01034 13.054C8.18901 13.0533 8.36765 13.0538 8.54632 13.0546C8.59835 13.0541 8.65038 13.0537 8.70399 13.0532C9.36446 13.0594 9.86841 13.3044 10.3476 13.749C10.8094 14.2369 10.9434 14.7868 10.9408 15.4415C10.9411 15.4978 10.9414 15.5542 10.9418 15.6122C10.9425 15.7653 10.9426 15.9184 10.9423 16.0715C10.9422 16.2 10.9424 16.3285 10.9427 16.457C10.9434 16.7604 10.9433 17.0638 10.9428 17.3672C10.9422 17.6788 10.9429 17.9904 10.9441 18.302C10.9452 18.5708 10.9455 18.8397 10.9452 19.1085C10.9451 19.2685 10.9452 19.4285 10.946 19.5885C10.9467 19.7671 10.9462 19.9458 10.9454 20.1244C10.9461 20.2025 10.9461 20.2025 10.9468 20.2821C10.9406 20.9426 10.6956 21.4465 10.251 21.9258C9.7631 22.3875 9.21318 22.5216 8.55845 22.5189C8.47398 22.5194 8.47398 22.5194 8.3878 22.5199C8.23467 22.5206 8.08156 22.5207 7.92843 22.5204C7.79996 22.5203 7.67149 22.5206 7.54302 22.5208C7.2396 22.5215 6.93618 22.5214 6.63276 22.5209C6.32116 22.5204 6.00959 22.521 5.698 22.5223C5.42915 22.5233 5.16031 22.5236 4.89146 22.5233C4.73148 22.5232 4.5715 22.5233 4.41152 22.5241C4.23284 22.5248 4.05421 22.5243 3.87553 22.5235C3.79748 22.5242 3.79748 22.5242 3.71786 22.5249C3.05739 22.5187 2.55344 22.2737 2.07421 21.8291C1.61248 21.3412 1.4784 20.7913 1.48105 20.1366C1.48073 20.0803 1.48041 20.0239 1.48007 19.9659C1.47937 19.8128 1.47929 19.6597 1.47956 19.5066C1.4797 19.3781 1.47941 19.2496 1.47913 19.1211C1.47848 18.8177 1.47854 18.5143 1.47908 18.2109C1.47962 17.8993 1.47896 17.5877 1.4777 17.2761C1.47666 17.0073 1.47635 16.7384 1.47663 16.4696C1.47678 16.3096 1.47668 16.1496 1.47587 15.9896C1.47516 15.811 1.47567 15.6323 1.47647 15.4537C1.47602 15.4016 1.47556 15.3496 1.4751 15.296C1.48126 14.6355 1.72626 14.1316 2.17089 13.6523C2.65875 13.1906 3.20868 13.0565 3.8634 13.0592Z" fill="#555555"/>
<path d="M3.8634 1.48105C3.91971 1.48073 3.97603 1.48041 4.03405 1.48007C4.18718 1.47937 4.34029 1.47929 4.49342 1.47956C4.62189 1.4797 4.75036 1.47941 4.87883 1.47913C5.18225 1.47848 5.48567 1.47854 5.7891 1.47908C6.10069 1.47962 6.41226 1.47896 6.72385 1.4777C6.9927 1.47666 7.26154 1.47635 7.53039 1.47663C7.69038 1.47678 7.85035 1.47668 8.01034 1.47587C8.18901 1.47516 8.36765 1.47567 8.54632 1.47647C8.59835 1.47602 8.65038 1.47556 8.70399 1.4751C9.36446 1.48126 9.86841 1.72626 10.3476 2.17089C10.8094 2.65875 10.9434 3.20868 10.9408 3.8634C10.9411 3.91971 10.9414 3.97603 10.9418 4.03405C10.9425 4.18718 10.9426 4.34029 10.9423 4.49342C10.9422 4.62189 10.9424 4.75036 10.9427 4.87883C10.9434 5.18225 10.9433 5.48567 10.9428 5.7891C10.9422 6.10069 10.9429 6.41226 10.9441 6.72385C10.9452 6.9927 10.9455 7.26154 10.9452 7.53039C10.9451 7.69038 10.9452 7.85035 10.946 8.01034C10.9467 8.18901 10.9462 8.36765 10.9454 8.54632C10.9461 8.62437 10.9461 8.62437 10.9468 8.70399C10.9406 9.36446 10.6956 9.86841 10.251 10.3476C9.7631 10.8094 9.21318 10.9434 8.55845 10.9408C8.47398 10.9413 8.47398 10.9413 8.3878 10.9418C8.23467 10.9425 8.08156 10.9426 7.92843 10.9423C7.79996 10.9422 7.67149 10.9424 7.54302 10.9427C7.2396 10.9434 6.93618 10.9433 6.63276 10.9428C6.32116 10.9422 6.00959 10.9429 5.698 10.9441C5.42915 10.9452 5.16031 10.9455 4.89146 10.9452C4.73148 10.9451 4.5715 10.9452 4.41152 10.946C4.23284 10.9467 4.05421 10.9462 3.87553 10.9454C3.79748 10.9461 3.79748 10.9461 3.71786 10.9468C3.05739 10.9406 2.55344 10.6956 2.07421 10.251C1.61248 9.7631 1.4784 9.21318 1.48105 8.55845C1.48073 8.50214 1.48041 8.44582 1.48007 8.3878C1.47937 8.23467 1.47929 8.08156 1.47956 7.92843C1.4797 7.79996 1.47941 7.67149 1.47913 7.54302C1.47848 7.2396 1.47854 6.93618 1.47908 6.63276C1.47962 6.32116 1.47896 6.00959 1.4777 5.698C1.47666 5.42915 1.47635 5.16031 1.47663 4.89146C1.47678 4.73148 1.47668 4.5715 1.47587 4.41152C1.47516 4.23284 1.47567 4.05421 1.47647 3.87553C1.47602 3.8235 1.47556 3.77147 1.4751 3.71786C1.48126 3.05739 1.72626 2.55344 2.17089 2.07421C2.65875 1.61248 3.20868 1.4784 3.8634 1.48105Z" fill="#555555"/>
<path d="M18.2316 1.5703C18.4088 1.7149 18.4981 1.84599 18.5627 2.06249C18.5882 2.32104 18.5846 2.57786 18.581 2.83739C18.5806 2.91252 18.5804 2.98766 18.5802 3.06279C18.5795 3.25946 18.5776 3.4561 18.5756 3.65276C18.5736 3.85387 18.5728 4.05498 18.5718 4.25609C18.5698 4.6499 18.5666 5.04369 18.5627 5.43749C18.6041 5.43707 18.6456 5.43666 18.6883 5.43623C19.08 5.43246 19.4717 5.42961 19.8634 5.42778C20.0648 5.4268 20.2661 5.42548 20.4674 5.42335C20.662 5.4213 20.8565 5.42019 21.051 5.4197C21.125 5.41936 21.199 5.41868 21.273 5.41767C22.0001 5.40808 22.0001 5.40808 22.3127 5.62499C22.5009 5.85551 22.5307 6.04914 22.5178 6.34441C22.4895 6.54451 22.4421 6.63837 22.3127 6.79686C21.9569 7.04372 21.5778 7.00838 21.1628 7.00268C21.0877 7.00233 21.0125 7.00206 20.9374 7.00187C20.7407 7.00116 20.5441 6.99932 20.3474 6.99724C20.1463 6.99531 19.9452 6.99446 19.7441 6.99352C19.3503 6.99152 18.9565 6.98832 18.5627 6.98436C18.5631 7.02581 18.5635 7.06726 18.564 7.10997C18.5677 7.50167 18.5706 7.89336 18.5724 8.28507C18.5734 8.48643 18.5747 8.68777 18.5768 8.88912C18.5789 9.08364 18.58 9.27814 18.5805 9.47267C18.5808 9.54668 18.5815 9.62068 18.5825 9.69468C18.5921 10.4218 18.5921 10.4218 18.3752 10.7344C18.1447 10.9225 17.951 10.9524 17.6558 10.9394C17.4557 10.9112 17.3618 10.8637 17.2033 10.7344C16.9565 10.3786 16.9918 9.99947 16.9975 9.58446C16.9979 9.50933 16.9981 9.4342 16.9983 9.35907C16.999 9.1624 17.0009 8.96575 17.0029 8.76909C17.0049 8.56799 17.0057 8.36688 17.0067 8.16576C17.0087 7.77195 17.0119 7.37816 17.0158 6.98436C16.9536 6.98499 16.9536 6.98499 16.8902 6.98563C16.4985 6.98939 16.1068 6.99224 15.7151 6.99408C15.5138 6.99506 15.3124 6.99638 15.1111 6.99851C14.9165 7.00056 14.722 7.00167 14.5275 7.00215C14.4535 7.0025 14.3795 7.00317 14.3055 7.00419C13.5784 7.01377 13.5784 7.01377 13.2658 6.79686C13.0776 6.56635 13.0478 6.37272 13.0607 6.07744C13.089 5.87735 13.1364 5.78349 13.2658 5.62499C13.6216 5.37813 14.0007 5.41348 14.4157 5.41918C14.4908 5.41953 14.566 5.4198 14.6411 5.41998C14.8378 5.4207 15.0344 5.42253 15.2311 5.42462C15.4322 5.42654 15.6333 5.42739 15.8344 5.42833C16.2282 5.43034 16.622 5.43353 17.0158 5.43749C17.0154 5.39604 17.015 5.35459 17.0146 5.31189C17.0108 4.92019 17.0079 4.5285 17.0061 4.13678C17.0051 3.93543 17.0038 3.73408 17.0017 3.53274C16.9996 3.33822 16.9985 3.14371 16.998 2.94918C16.9977 2.87518 16.997 2.80117 16.996 2.72717C16.9864 2.0001 16.9864 2.0001 17.2033 1.68749C17.4947 1.44964 17.8863 1.40396 18.2316 1.5703Z" fill="#555555"/>
</svg>
