<svg width="40" height="40" viewBox="0 0 40 40" fill="none" xmlns="http://www.w3.org/2000/svg">
<path d="M17.1113 34.9958C17.4039 35.5025 17.8246 35.9232 18.3313 36.2157C18.8379 36.5082 19.4126 36.6622 19.9977 36.6622C20.5827 36.6622 21.1574 36.5082 21.6641 36.2157C22.1707 35.9232 22.5914 35.5025 22.884 34.9958" stroke="#99A1AF" stroke-width="3.33294" stroke-linecap="round" stroke-linejoin="round"/>
<path d="M28.33 28.3299H6.66585C6.34289 28.3301 6.02685 28.2363 5.75618 28.0602C5.4855 27.884 5.27185 27.6329 5.14121 27.3376C5.01057 27.0422 4.96856 26.7153 5.02031 26.3965C5.07205 26.0777 5.21531 25.7808 5.43266 25.5419C7.64907 23.2572 9.99879 20.8292 9.99879 13.3317C9.99855 12.3482 10.1434 11.37 10.4287 10.4287" stroke="#99A1AF" stroke-width="3.33294" stroke-linecap="round" stroke-linejoin="round"/>
<path d="M3.33301 3.33301L36.6624 36.6624" stroke="#99A1AF" stroke-width="3.33294" stroke-linecap="round" stroke-linejoin="round"/>
<path d="M14.4451 5.01605C15.9507 4.01064 17.7011 3.43289 19.5094 3.34446C21.3177 3.25603 23.116 3.66023 24.7126 4.51393C26.3091 5.36764 27.6439 6.63881 28.5745 8.19179C29.5052 9.74476 29.9966 11.5213 29.9966 13.3317C29.9966 17.8095 31.2798 21.0858 32.8412 23.4139" stroke="#99A1AF" stroke-width="3.33294" stroke-linecap="round" stroke-linejoin="round"/>
</svg>
