<svg width="20" height="20" viewBox="0 0 20 20" fill="none" xmlns="http://www.w3.org/2000/svg">
<path d="M8.55115 17.4888C8.69734 17.742 8.9076 17.9522 9.16079 18.0984C9.41398 18.2445 9.70119 18.3215 9.99355 18.3215C10.2859 18.3215 10.5731 18.2445 10.8263 18.0984C11.0795 17.9522 11.2898 17.742 11.436 17.4888" stroke="#4A5565" stroke-width="1.66559" stroke-linecap="round" stroke-linejoin="round"/>
<path d="M2.71661 12.7634C2.60781 12.8826 2.53602 13.0309 2.50995 13.1902C2.48389 13.3495 2.50468 13.5129 2.56979 13.6606C2.6349 13.8083 2.74154 13.9339 2.87672 14.0221C3.0119 14.1103 3.1698 14.1573 3.33121 14.1575H16.6559C16.8173 14.1575 16.9753 14.1107 17.1105 14.0226C17.2458 13.9346 17.3526 13.8091 17.4179 13.6615C17.4831 13.5139 17.5041 13.3506 17.4783 13.1912C17.4524 13.0319 17.3808 12.8836 17.2722 12.7642C16.1646 11.6224 14.9903 10.409 14.9903 6.6623C14.9903 5.33707 14.4639 4.06612 13.5268 3.12905C12.5898 2.19197 11.3188 1.66553 9.99358 1.66553C8.66835 1.66553 7.3974 2.19197 6.46032 3.12905C5.52325 4.06612 4.9968 5.33707 4.9968 6.6623C4.9968 10.409 3.82173 11.6224 2.71661 12.7634Z" stroke="#4A5565" stroke-width="1.66559" stroke-linecap="round" stroke-linejoin="round"/>
</svg>
