<svg width="18" height="18" viewBox="0 0 18 18" fill="none" xmlns="http://www.w3.org/2000/svg">
<g clip-path="url(#clip0_701_652)">
<path d="M15.0758 6.28698C15.1188 6.28653 15.1618 6.28608 15.206 6.28561C15.2531 6.28532 15.3003 6.28506 15.3474 6.28482C15.3711 6.28468 15.3948 6.28454 15.4193 6.28439C15.5449 6.28366 15.6705 6.28315 15.7961 6.28282C15.9256 6.28244 16.0551 6.28123 16.1845 6.27983C16.2843 6.27891 16.3841 6.27862 16.4839 6.27849C16.5547 6.27824 16.6255 6.27731 16.6964 6.27637C17.099 6.27732 17.099 6.27732 17.2617 6.43383C17.306 6.52228 17.3013 6.58232 17.3012 6.68135C17.3013 6.71908 17.3014 6.75682 17.3014 6.7957C17.3013 6.83749 17.3012 6.87928 17.3011 6.92234C17.3012 6.98854 17.3012 6.98854 17.3012 7.05608C17.3013 7.17897 17.3012 7.30187 17.301 7.42477C17.3008 7.55715 17.3009 7.68953 17.3009 7.82191C17.3009 8.0514 17.3008 8.2809 17.3006 8.51039C17.3003 8.8422 17.3002 9.174 17.3002 9.50581C17.3001 10.0441 17.2999 10.5824 17.2996 11.1207C17.2992 11.6437 17.299 12.1667 17.2988 12.6897C17.2988 12.738 17.2988 12.738 17.2988 12.7874C17.2988 12.949 17.2987 13.1106 17.2987 13.2723C17.2983 14.6139 17.2977 15.9555 17.2969 17.2971C17.3329 17.2951 17.369 17.293 17.4061 17.2909C17.4539 17.2893 17.5018 17.2877 17.5496 17.2861C17.5733 17.2846 17.5969 17.2832 17.6213 17.2817C17.761 17.2783 17.8176 17.2918 17.9278 17.3802C18.0061 17.4806 18.024 17.5233 18.022 17.6487C18.0225 17.6777 18.0229 17.7067 18.0234 17.7366C17.9888 17.8668 17.929 17.9166 17.8242 18.0002C17.7186 18.0175 17.633 18.0239 17.5275 18.0224C17.4826 18.0227 17.4826 18.0227 17.4367 18.0231C17.3359 18.0238 17.2351 18.0232 17.1343 18.0226C17.0615 18.0228 16.9886 18.023 16.9158 18.0234C16.7153 18.0241 16.5149 18.0238 16.3144 18.0232C16.0983 18.0228 15.8822 18.0234 15.6662 18.0239C15.2672 18.0246 14.8683 18.0246 14.4694 18.0241C14.1008 18.0237 13.7323 18.0235 13.3638 18.0238C13.3272 18.0238 13.3272 18.0238 13.2898 18.0238C13.1906 18.0238 13.0914 18.0239 12.9923 18.024C12.0618 18.0245 11.1312 18.024 10.2007 18.0231C9.37368 18.0222 8.54666 18.0223 7.71964 18.0231C6.79083 18.0241 5.86202 18.0245 4.93321 18.0239C4.83423 18.0239 4.73525 18.0238 4.63626 18.0238C4.5997 18.0237 4.5997 18.0237 4.56241 18.0237C4.19408 18.0235 3.82576 18.0237 3.45744 18.0242C3.03871 18.0247 2.61999 18.0246 2.20126 18.0236C1.98749 18.0232 1.77373 18.023 1.55996 18.0236C1.36444 18.0241 1.16894 18.0238 0.973422 18.0229C0.902521 18.0227 0.831618 18.0228 0.760718 18.0232C0.664647 18.0237 0.56864 18.0232 0.472572 18.0224C0.44477 18.0228 0.416968 18.0232 0.388323 18.0236C0.246623 18.0212 0.183032 18.006 0.0708323 17.9165C-0.00609265 17.8165 -0.0238847 17.773 -0.0219421 17.6487C-0.0223953 17.6197 -0.0228485 17.5907 -0.0233154 17.5608C0.0111051 17.4312 0.0718876 17.3805 0.175812 17.2971C0.275611 17.2842 0.352233 17.28 0.45047 17.2861C0.474829 17.2869 0.499187 17.2877 0.524284 17.2885C0.583941 17.2906 0.643559 17.2937 0.703156 17.2971C0.702843 17.2552 0.702531 17.2133 0.702209 17.1702C0.699359 16.7755 0.697251 16.3808 0.69587 15.9861C0.695136 15.7832 0.69414 15.5802 0.692547 15.3773C0.691019 15.1815 0.690178 14.9857 0.689813 14.7899C0.689553 14.7152 0.689046 14.6405 0.688287 14.5657C0.687267 14.4611 0.687126 14.3565 0.687191 14.2519C0.686685 14.221 0.68618 14.19 0.685659 14.1582C0.686634 14.0137 0.691393 13.9408 0.770071 13.8158C0.890054 13.7027 0.963806 13.7064 1.12583 13.7049C1.1703 13.7045 1.21478 13.704 1.2606 13.7036C1.30939 13.7033 1.35818 13.703 1.40697 13.7028C1.44378 13.7026 1.44378 13.7026 1.48133 13.7024C1.61123 13.7016 1.74114 13.7011 1.87105 13.7008C2.00511 13.7004 2.13915 13.6992 2.27321 13.6978C2.37639 13.6969 2.47956 13.6966 2.58274 13.6965C2.63215 13.6963 2.68156 13.6959 2.73097 13.6952C2.80021 13.6944 2.86946 13.6945 2.93871 13.6946C2.99776 13.6943 2.99776 13.6943 3.05801 13.694C3.18808 13.715 3.24621 13.761 3.33987 13.8518C3.39973 13.9715 3.37955 14.1082 3.37902 14.2399C3.37903 14.2728 3.37903 14.3058 3.37904 14.3397C3.37901 14.4489 3.37874 14.5581 3.37846 14.6673C3.3784 14.7428 3.37835 14.8184 3.37831 14.894C3.37818 15.0931 3.37783 15.2923 3.37744 15.4915C3.37709 15.6946 3.37692 15.8977 3.37675 16.1008C3.37637 16.4996 3.37575 16.8983 3.37503 17.2971C3.64187 17.2971 3.9087 17.2971 4.18362 17.2971C4.18323 17.2147 4.18284 17.1323 4.18244 17.0474C4.17885 16.2719 4.17623 15.4964 4.17452 14.7209C4.17361 14.3222 4.17237 13.9235 4.17036 13.5248C4.16861 13.1774 4.16748 12.8299 4.16709 12.4824C4.16686 12.2984 4.16632 12.1144 4.16504 11.9303C4.16385 11.7572 4.16348 11.584 4.16374 11.4109C4.16369 11.3473 4.16334 11.2837 4.16267 11.2201C4.1618 11.1333 4.16201 11.0466 4.16249 10.9598C4.16197 10.9346 4.16146 10.9094 4.16093 10.8834C4.16296 10.7481 4.18068 10.6914 4.26608 10.5842C4.38205 10.4944 4.44397 10.4897 4.58957 10.4892C4.65838 10.4884 4.65838 10.4884 4.72858 10.4875C4.77837 10.4878 4.82817 10.4882 4.87796 10.4886C4.92931 10.4885 4.98066 10.4883 5.03201 10.4881C5.13947 10.4878 5.2469 10.4882 5.35435 10.489C5.49186 10.49 5.6293 10.4895 5.7668 10.4884C5.87278 10.4878 5.97876 10.488 6.08474 10.4884C6.13543 10.4885 6.18611 10.4884 6.23679 10.488C6.30771 10.4875 6.37864 10.4883 6.44955 10.4892C6.48985 10.4893 6.53015 10.4895 6.57167 10.4896C6.71717 10.5197 6.76343 10.5722 6.8555 10.6877C6.87248 10.7858 6.87862 10.8621 6.87664 10.9598C6.87686 11.0005 6.87686 11.0005 6.87709 11.042C6.87738 11.1328 6.87642 11.2236 6.87545 11.3144C6.87541 11.3795 6.87543 11.4447 6.87553 11.5098C6.87558 11.6866 6.87455 11.8634 6.87332 12.0402C6.87222 12.225 6.87212 12.4097 6.87191 12.5945C6.87137 12.9444 6.86992 13.2942 6.86816 13.6441C6.86619 14.0424 6.86523 14.4407 6.86435 14.8391C6.86251 15.6584 6.85938 16.4778 6.8555 17.2971C7.12234 17.2971 7.38917 17.2971 7.66409 17.2971C7.6637 17.238 7.66331 17.179 7.66291 17.1181C7.65935 16.562 7.6567 16.0059 7.65499 15.4498C7.65408 15.1639 7.65284 14.8779 7.65083 14.592C7.64908 14.3428 7.64795 14.0936 7.64755 13.8444C7.64733 13.7124 7.64679 13.5805 7.64551 13.4486C7.64409 13.3012 7.64406 13.154 7.64414 13.0066C7.64319 12.941 7.64319 12.941 7.64222 12.8741C7.64398 12.5819 7.64398 12.5819 7.73885 12.4361C7.85916 12.3636 7.92999 12.353 8.07004 12.3525C8.13885 12.3517 8.13885 12.3517 8.20905 12.3508C8.25884 12.3511 8.30864 12.3515 8.35843 12.3519C8.40978 12.3518 8.46113 12.3516 8.51248 12.3514C8.61994 12.3511 8.72737 12.3515 8.83482 12.3523C8.97232 12.3533 9.10977 12.3527 9.24726 12.3517C9.35325 12.3511 9.45922 12.3513 9.56521 12.3517C9.6159 12.3518 9.66658 12.3517 9.71726 12.3513C9.78818 12.3508 9.85911 12.3516 9.93002 12.3525C9.97032 12.3526 10.0106 12.3528 10.0521 12.3529C10.1602 12.3752 10.1602 12.3752 10.2612 12.4361C10.3792 12.6176 10.359 12.7947 10.3559 13.0066C10.3559 13.053 10.356 13.0993 10.356 13.147C10.3561 13.2737 10.355 13.4005 10.3538 13.5272C10.3527 13.6598 10.3526 13.7923 10.3524 13.9249C10.3518 14.1757 10.3504 14.4266 10.3486 14.6775C10.3467 14.9632 10.3457 15.2488 10.3448 15.5345C10.343 16.1221 10.3399 16.7096 10.336 17.2971C10.6028 17.2971 10.8696 17.2971 11.1446 17.2971C11.1442 17.2147 11.1438 17.1323 11.1434 17.0474C11.1398 16.2719 11.1372 15.4964 11.1355 14.7209C11.1345 14.3222 11.1333 13.9235 11.1313 13.5248C11.1295 13.1774 11.1284 12.8299 11.128 12.4824C11.1278 12.2984 11.1273 12.1144 11.126 11.9303C11.1248 11.7572 11.1244 11.584 11.1247 11.4109C11.1246 11.3473 11.1243 11.2837 11.1236 11.2201C11.1227 11.1333 11.1229 11.0466 11.1234 10.9598C11.1229 10.9346 11.1224 10.9094 11.1219 10.8834C11.1239 10.7481 11.1416 10.6914 11.227 10.5842C11.343 10.4944 11.4049 10.4897 11.5505 10.4892C11.6193 10.4884 11.6193 10.4884 11.6895 10.4875C11.7393 10.4878 11.7891 10.4882 11.8389 10.4886C11.8902 10.4885 11.9416 10.4883 11.9929 10.4881C12.1004 10.4878 12.2078 10.4882 12.3153 10.489C12.4528 10.49 12.5902 10.4895 12.7277 10.4884C12.8337 10.4878 12.9397 10.488 13.0457 10.4884C13.0964 10.4885 13.147 10.4884 13.1977 10.488C13.2687 10.4875 13.3396 10.4883 13.4105 10.4892C13.4508 10.4893 13.4911 10.4895 13.5326 10.4896C13.6781 10.5197 13.7244 10.5722 13.8164 10.6877C13.8334 10.7858 13.8396 10.8621 13.8376 10.9598C13.8377 10.9869 13.8379 11.0141 13.838 11.042C13.8383 11.1328 13.8374 11.2236 13.8364 11.3144C13.8363 11.3795 13.8364 11.4447 13.8365 11.5098C13.8365 11.6866 13.8355 11.8634 13.8343 12.0402C13.8332 12.225 13.8331 12.4097 13.8328 12.5945C13.8323 12.9444 13.8309 13.2942 13.8291 13.6441C13.8271 14.0424 13.8262 14.4407 13.8253 14.8391C13.8234 15.6584 13.8203 16.4778 13.8164 17.2971C14.0833 17.2971 14.3501 17.2971 14.625 17.2971C14.6249 17.2416 14.6247 17.1862 14.6245 17.129C14.6207 15.8131 14.6178 14.4972 14.6161 13.1812C14.6158 13.0193 14.6156 12.8574 14.6154 12.6955C14.6153 12.6633 14.6153 12.631 14.6152 12.5978C14.6145 12.0756 14.6131 11.5535 14.6115 11.0313C14.6098 10.4956 14.6088 9.95998 14.6085 9.42434C14.6083 9.0937 14.6075 8.76307 14.6061 8.43243C14.6051 8.20584 14.6049 7.97925 14.6051 7.75266C14.6052 7.62183 14.605 7.49102 14.6041 7.3602C14.6031 7.21846 14.6034 7.07676 14.6039 6.93502C14.6034 6.89354 14.6029 6.85205 14.6023 6.80931C14.6052 6.49982 14.6052 6.49982 14.7098 6.39152C14.8444 6.29807 14.9126 6.28847 15.0758 6.28698ZM15.3282 7.03148C15.3282 10.4191 15.3282 13.8068 15.3282 17.2971C15.7458 17.2971 16.1635 17.2971 16.5938 17.2971C16.5938 13.9095 16.5938 10.5218 16.5938 7.03148C16.1761 7.03148 15.7585 7.03148 15.3282 7.03148ZM4.88675 11.2151C4.88675 13.2221 4.88675 15.2292 4.88675 17.2971C5.30441 17.2971 5.72206 17.2971 6.15237 17.2971C6.15237 15.29 6.15237 13.283 6.15237 11.2151C5.73472 11.2151 5.31706 11.2151 4.88675 11.2151ZM11.8477 11.2151C11.8477 13.2221 11.8477 15.2292 11.8477 17.2971C12.2653 17.2971 12.683 17.2971 13.1133 17.2971C13.1133 15.29 13.1133 13.283 13.1133 11.2151C12.6957 11.2151 12.278 11.2151 11.8477 11.2151ZM8.36722 13.0784C8.36722 14.4705 8.36722 15.8627 8.36722 17.2971C8.78487 17.2971 9.20253 17.2971 9.63284 17.2971C9.63284 15.9049 9.63284 14.5127 9.63284 13.0784C9.21519 13.0784 8.79753 13.0784 8.36722 13.0784ZM1.40628 14.4495C1.40628 15.3892 1.40628 16.3289 1.40628 17.2971C1.82394 17.2971 2.24159 17.2971 2.67191 17.2971C2.67191 16.3574 2.67191 15.4177 2.67191 14.4495C2.25425 14.4495 1.83659 14.4495 1.40628 14.4495Z" fill="#077AAD"/>
<path d="M17.9341 0.0659606C18.0639 0.282255 18.0083 0.512144 17.9516 0.74743C17.9141 0.894608 17.8744 1.04114 17.8345 1.18766C17.8174 1.25173 17.8003 1.31581 17.7832 1.3799C17.7384 1.54793 17.6931 1.71583 17.6476 1.88369C17.6107 2.02017 17.5742 2.15675 17.5377 2.29333C17.3392 3.03645 17.3392 3.03645 17.2453 3.37725C17.2285 3.43829 17.2119 3.49939 17.1954 3.5605C17.1866 3.59186 17.1777 3.62322 17.1686 3.65554C17.1616 3.68093 17.1545 3.70633 17.1473 3.7325C17.0961 3.85825 17.0273 3.90512 16.9101 3.9727C16.7577 3.9972 16.6875 3.98557 16.552 3.91118C16.4657 3.84212 16.3876 3.77238 16.3125 3.69145C16.1962 3.74216 16.1201 3.80511 16.0312 3.89505C16.0039 3.92238 15.9767 3.94971 15.9487 3.97787C15.9196 4.00739 15.8906 4.03691 15.8607 4.06732C15.8306 4.09757 15.8005 4.12782 15.7696 4.15899C15.6735 4.25566 15.5777 4.35257 15.4819 4.44951C15.3859 4.54654 15.2897 4.64352 15.1935 4.7404C15.1336 4.80072 15.0739 4.86112 15.0142 4.92163C14.9872 4.94885 14.9602 4.97607 14.9324 5.00412C14.9086 5.02818 14.8848 5.05225 14.8603 5.07705C14.7459 5.18423 14.6443 5.17952 14.4936 5.17831C14.377 5.16321 14.3174 5.11144 14.2383 5.02739C14.1801 4.9111 14.1768 4.80061 14.2031 4.67582C14.2455 4.61264 14.2455 4.61264 14.3038 4.54934C14.3263 4.5249 14.3487 4.50046 14.3718 4.47529C14.5209 4.31982 14.6721 4.16668 14.8245 4.01458C14.8603 3.97882 14.896 3.94305 14.9317 3.90727C15.0061 3.83291 15.0804 3.75861 15.1549 3.68435C15.2503 3.58911 15.3456 3.49371 15.4408 3.39827C15.5143 3.32465 15.5879 3.25111 15.6615 3.1776C15.6967 3.14242 15.7318 3.10723 15.767 3.072C15.8159 3.02304 15.8649 2.9742 15.9139 2.92537C15.9417 2.89756 15.9695 2.86976 15.9982 2.84112C16.1107 2.73601 16.193 2.73648 16.3452 2.73069C16.4385 2.74549 16.4854 2.78981 16.5586 2.8477C16.7132 2.32999 16.8585 1.8104 16.9953 1.28776C17.0066 1.24467 17.018 1.20158 17.0296 1.15718C17.0397 1.11873 17.0497 1.08028 17.06 1.04067C17.0859 0.949261 17.0859 0.949261 17.1211 0.878949C17.101 0.884931 17.081 0.890913 17.0604 0.897076C16.5628 1.04513 16.0633 1.18418 15.5611 1.31566C15.5181 1.32699 15.475 1.33831 15.4306 1.34999C15.3921 1.36002 15.3537 1.37005 15.3141 1.38039C15.2242 1.40278 15.2242 1.40278 15.1523 1.44145C15.1748 1.45813 15.1973 1.4748 15.2205 1.49199C15.3084 1.60127 15.3199 1.6778 15.3391 1.81361C15.3136 2.01072 15.1463 2.15943 15.0114 2.29447C14.9941 2.31183 14.9769 2.32919 14.9591 2.34707C14.9017 2.40472 14.8441 2.46212 14.7865 2.51952C14.7451 2.56098 14.7038 2.60246 14.6624 2.64396C14.5504 2.75626 14.4382 2.86835 14.326 2.98038C14.2084 3.09773 14.0911 3.21525 13.9737 3.33274C13.7767 3.52993 13.5794 3.72696 13.3822 3.92391C13.1541 4.15164 12.9262 4.37962 12.6985 4.60774C12.5029 4.80367 12.3071 4.99947 12.1112 5.19515C11.9943 5.31199 11.8774 5.42887 11.7606 5.54589C11.6509 5.65581 11.541 5.76557 11.431 5.87519C11.3906 5.91547 11.3503 5.9558 11.31 5.9962C11.2551 6.05129 11.2 6.10615 11.1449 6.16097C11.1141 6.19174 11.0833 6.22252 11.0515 6.25422C10.9391 6.35462 10.8618 6.39264 10.7139 6.41826C10.5752 6.39746 10.5509 6.38299 10.4525 6.29329C10.4279 6.27085 10.4032 6.24841 10.3778 6.22529C10.2468 6.10131 10.1186 5.97476 9.9913 5.84691C9.96177 5.81738 9.93224 5.78786 9.90182 5.75744C9.8051 5.6607 9.70852 5.56384 9.61193 5.46698C9.54456 5.39953 9.47717 5.3321 9.40978 5.26467C9.25109 5.10588 9.09249 4.94699 8.93393 4.78808C8.75324 4.60699 8.57245 4.42601 8.39166 4.24504C8.0201 3.87312 7.64868 3.50108 7.27733 3.12895C7.1746 3.17538 7.10175 3.22546 7.02222 3.30509C7.00027 3.32691 6.97831 3.34873 6.95569 3.3712C6.91999 3.40721 6.91999 3.40721 6.88356 3.44395C6.85803 3.46942 6.8325 3.49489 6.8062 3.52114C6.72047 3.60675 6.635 3.6926 6.54952 3.77846C6.48821 3.8398 6.42688 3.90111 6.36554 3.96241C6.2334 4.09454 6.10137 4.22677 5.96943 4.35911C5.77867 4.55044 5.58772 4.74157 5.39672 4.93266C5.08684 5.24269 4.77712 5.55288 4.4675 5.86317C4.16672 6.16459 3.86588 6.46593 3.56493 6.76717C3.54638 6.78574 3.52783 6.80431 3.50872 6.82344C3.41566 6.9166 3.3226 7.00975 3.22954 7.1029C2.45748 7.87568 1.68569 8.64872 0.914053 9.42192C0.947677 9.46136 0.981332 9.50078 1.015 9.54019C1.03374 9.56215 1.05248 9.5841 1.07178 9.60672C1.13229 9.67641 1.19541 9.74243 1.26095 9.8074C1.28406 9.8304 1.30717 9.8534 1.33098 9.87709C1.35437 9.90018 1.37775 9.92327 1.40185 9.94706C1.42605 9.97111 1.45025 9.99515 1.47518 10.0199C1.53415 10.0785 1.59322 10.1369 1.65233 10.1954C1.81569 10.0589 1.97056 9.91718 2.12037 9.766C2.15172 9.73458 2.15172 9.73458 2.18371 9.70252C2.25306 9.63298 2.32229 9.56331 2.39153 9.49364C2.44149 9.44349 2.49146 9.39335 2.54145 9.34322C2.64872 9.23559 2.75595 9.12792 2.86314 9.0202C3.03262 8.84991 3.20226 8.6798 3.37195 8.50972C3.85431 8.02617 4.33653 7.54249 4.81839 7.05843C5.08477 6.79084 5.35134 6.52343 5.61812 6.25624C5.78689 6.08717 5.95543 5.91788 6.12381 5.74843C6.22847 5.6432 6.33336 5.5382 6.43831 5.43325C6.48697 5.38451 6.53554 5.33567 6.58401 5.28674C6.65012 5.22002 6.71655 5.15364 6.78308 5.08732C6.80223 5.06784 6.82138 5.04835 6.84112 5.02828C6.98276 4.88812 7.08789 4.81803 7.28832 4.81425C7.5771 4.89746 7.79777 5.19129 8.00545 5.39995C8.03464 5.42913 8.06383 5.45832 8.0939 5.48838C8.18947 5.58398 8.28492 5.6797 8.38036 5.77542C8.44695 5.84207 8.51355 5.90872 8.58015 5.97536C8.73697 6.13228 8.8937 6.2893 9.05039 6.44635C9.22896 6.62531 9.40762 6.80416 9.58629 6.98301C9.95347 7.35056 10.3205 7.71823 10.6875 8.08598C10.8099 8.0282 10.8893 7.96288 10.985 7.86625C11.0311 7.81997 11.0311 7.81997 11.0781 7.77276C11.1113 7.73906 11.1445 7.70536 11.1778 7.67166C11.2121 7.63714 11.2464 7.60265 11.2807 7.56817C11.3709 7.47753 11.4608 7.3867 11.5507 7.29582C11.6949 7.15018 11.8392 7.00477 11.9837 6.85948C12.0341 6.80868 12.0845 6.75775 12.1348 6.70682C12.1806 6.66071 12.1806 6.66071 12.2272 6.61367C12.2541 6.58648 12.281 6.55929 12.3088 6.53127C12.4002 6.44502 12.4338 6.43451 12.5618 6.42485C12.6994 6.43418 12.7593 6.4559 12.8672 6.53911C12.9638 6.68408 12.9692 6.79134 12.9375 6.96098C12.8956 7.0249 12.8956 7.0249 12.838 7.08707C12.8155 7.11137 12.7931 7.13568 12.7699 7.16072C12.6133 7.32333 12.4551 7.48433 12.2955 7.64406C12.2575 7.6821 12.2196 7.72016 12.1817 7.75821C12.1027 7.8374 12.0237 7.91651 11.9446 7.99558C11.8433 8.09683 11.7423 8.19832 11.6414 8.29986C11.5633 8.37828 11.4852 8.45653 11.4069 8.53474C11.3696 8.57211 11.3323 8.60954 11.2951 8.64702C11.2432 8.69926 11.1911 8.75127 11.1389 8.80323C11.1094 8.83283 11.0798 8.86243 11.0494 8.89293C10.9382 8.99214 10.8603 9.02963 10.7139 9.05497C10.5752 9.03418 10.5509 9.01971 10.4525 8.93001C10.4279 8.90757 10.4032 8.88513 10.3778 8.86201C10.2468 8.73803 10.1186 8.61148 9.9913 8.48363C9.96177 8.4541 9.93224 8.42457 9.90182 8.39415C9.8051 8.29742 9.70852 8.20056 9.61193 8.1037C9.54456 8.03624 9.47717 7.96882 9.40978 7.90139C9.25109 7.7426 9.09249 7.58371 8.93393 7.4248C8.75324 7.24371 8.57245 7.06273 8.39166 6.88176C8.0201 6.50984 7.64868 6.1378 7.27733 5.76567C7.12906 5.82337 7.03066 5.93319 6.92149 6.0444C6.88931 6.07675 6.88931 6.07675 6.85647 6.10976C6.78452 6.18217 6.71283 6.25483 6.64112 6.32749C6.58962 6.37941 6.5381 6.43132 6.48657 6.48321C6.37556 6.59504 6.26465 6.70696 6.15382 6.81896C5.97855 6.99601 5.80293 7.1727 5.62723 7.34932C5.12762 7.8516 4.62824 8.35411 4.12982 8.85757C3.85458 9.13558 3.57891 9.41316 3.30274 9.69024C3.1566 9.83691 3.0107 9.9838 2.86533 10.1312C2.72861 10.2699 2.59134 10.408 2.45361 10.5456C2.40317 10.5962 2.35294 10.6471 2.30294 10.6981C2.23463 10.7678 2.16561 10.8367 2.09635 10.9055C2.06694 10.936 2.06694 10.936 2.03694 10.9672C1.89084 11.1098 1.78678 11.1412 1.58202 11.1446C1.45148 11.0877 1.36092 11.0025 1.26098 10.9024C1.23366 10.8752 1.20633 10.848 1.17818 10.8199C1.14921 10.7907 1.12024 10.7615 1.09038 10.7313C1.06028 10.7012 1.03018 10.6711 0.999169 10.6401C0.935735 10.5765 0.872386 10.5129 0.809117 10.4492C0.711958 10.3514 0.61452 10.2539 0.517035 10.1564C0.455449 10.0947 0.393879 10.0329 0.332327 9.9711C0.303069 9.9418 0.273811 9.9125 0.243666 9.88232C0.216786 9.85521 0.189906 9.82811 0.162211 9.80018C0.138462 9.7763 0.114713 9.75242 0.090244 9.72781C-0.0118484 9.61701 -0.0189887 9.51678 -0.0157891 9.37039C0.00292496 9.26472 0.0337155 9.22587 0.106345 9.14806C0.128807 9.12377 0.151269 9.09948 0.174412 9.07446C0.20989 9.03762 0.20989 9.03762 0.246085 9.00004C0.268193 8.97701 0.290302 8.95397 0.313081 8.93024C0.385046 8.85636 0.457781 8.78332 0.530752 8.71044C0.558402 8.68268 0.586053 8.65493 0.614541 8.62633C0.706565 8.53401 0.798712 8.4418 0.890862 8.3496C0.957121 8.28318 1.02337 8.21675 1.08962 8.15031C1.26907 7.97039 1.44866 7.79059 1.62827 7.61082C1.74047 7.49852 1.85265 7.3862 1.96482 7.27387C2.27564 6.96262 2.58649 6.65141 2.89746 6.34031C2.91732 6.32045 2.93717 6.30059 2.95763 6.28012C2.98748 6.25026 2.98748 6.25026 3.01794 6.21979C3.05826 6.17945 3.09858 6.13912 3.13891 6.09878C3.15891 6.07877 3.17891 6.05876 3.19952 6.03814C3.52421 5.71331 3.84867 5.38823 4.17303 5.06306C4.50635 4.7289 4.83987 4.39495 5.17358 4.06119C5.36083 3.87391 5.548 3.68654 5.73495 3.49895C5.89396 3.3394 6.05315 3.18003 6.21258 3.02089C6.29391 2.9397 6.37512 2.8584 6.45616 2.77692C6.54398 2.68866 6.63212 2.60072 6.72035 2.51286C6.75872 2.47406 6.75872 2.47406 6.79787 2.43448C6.83344 2.39926 6.83344 2.39926 6.86973 2.36333C6.89003 2.343 6.91033 2.32267 6.93125 2.30173C7.04503 2.21101 7.14371 2.18026 7.28832 2.17753C7.5771 2.26074 7.79777 2.55457 8.00545 2.76323C8.03464 2.79242 8.06383 2.8216 8.0939 2.85166C8.18947 2.94726 8.28492 3.04298 8.38036 3.1387C8.44695 3.20535 8.51355 3.272 8.58015 3.33864C8.73697 3.49557 8.8937 3.65258 9.05039 3.80963C9.22896 3.98859 9.40762 4.16744 9.58629 4.34629C9.95347 4.71384 10.3205 5.08151 10.6875 5.44926C10.8086 5.3971 10.887 5.32873 10.9798 5.23569C11.0249 5.19073 11.0249 5.19073 11.0709 5.14486C11.104 5.11158 11.137 5.0783 11.17 5.04502C11.205 5.01001 11.24 4.97502 11.275 4.94004C11.37 4.84512 11.4647 4.74999 11.5594 4.65481C11.6584 4.55536 11.7576 4.4561 11.8568 4.35682C12.0446 4.16883 12.2322 3.98066 12.4197 3.79243C12.6332 3.57812 12.8469 3.36402 13.0607 3.14993C13.5003 2.70957 13.9397 2.26895 14.3789 1.82817C14.3256 1.7166 14.2668 1.6342 14.1833 1.54252C14.082 1.43083 14.0318 1.37509 14.0142 1.22172C14.03 1.06363 14.087 0.98163 14.2031 0.878949C14.3185 0.828072 14.3185 0.828072 14.4513 0.793247C14.4756 0.78664 14.4999 0.780034 14.525 0.773227C14.6051 0.751662 14.6855 0.731192 14.7659 0.710721C14.8224 0.695746 14.8789 0.680703 14.9353 0.665596C15.0841 0.625975 15.2331 0.587277 15.3822 0.548769C15.5316 0.510033 15.6807 0.47044 15.8298 0.430913C16.0823 0.364082 16.3351 0.298006 16.5879 0.232353C16.7353 0.194035 16.8825 0.15519 17.0296 0.115639C17.0609 0.107257 17.0921 0.0988747 17.1243 0.0902383C17.1779 0.0758401 17.2314 0.0613326 17.2848 0.0466739C17.5202 -0.0163877 17.7189 -0.0631616 17.9341 0.0659606Z" fill="#077AAD"/>
<path d="M13.7461 5.44913C13.8639 5.53251 13.9099 5.5903 13.9571 5.72599C13.9571 5.87252 13.9274 5.9564 13.8516 6.08195C13.7117 6.17073 13.6402 6.1927 13.4759 6.16764C13.2895 6.08675 13.2895 6.08675 13.2188 5.97648C13.189 5.81252 13.1957 5.69698 13.2847 5.5546C13.4229 5.42456 13.563 5.4213 13.7461 5.44913Z" fill="#077AAD"/>
</g>
<defs>
<clipPath id="clip0_701_652">
<rect width="18" height="18" fill="white"/>
</clipPath>
</defs>
</svg>
