<svg width="24" height="24" viewBox="0 0 24 24" fill="none" xmlns="http://www.w3.org/2000/svg">
<g clip-path="url(#clip0_701_359)">
<path d="M0 2.87686e-05C1.33031 2.87686e-05 2.66062 2.87686e-05 4.03125 2.87686e-05C4.03125 0.247529 4.03125 0.495029 4.03125 0.750029C4.66807 0.769724 5.11037 0.552684 5.66615 0.255404C6.09799 0.0551182 6.45782 -0.0275845 6.93489 -0.0242327C6.99327 -0.0245613 7.05165 -0.0248898 7.1118 -0.0252283C7.27047 -0.0259076 7.42909 -0.0257548 7.58776 -0.0251573C7.75496 -0.0246782 7.92217 -0.025124 8.08937 -0.0254172C8.37023 -0.0257572 8.65108 -0.0253118 8.93193 -0.0244158C9.25484 -0.0233975 9.57772 -0.0237248 9.90063 -0.0247583C10.1795 -0.0256145 10.4584 -0.0257266 10.7373 -0.0252385C10.9031 -0.0249489 11.0689 -0.0248997 11.2348 -0.0255266C12.0534 -0.0282009 12.7942 -0.0258146 13.5293 0.375029C13.5739 0.396872 13.5739 0.396872 13.6194 0.419157C14.1018 0.675496 14.4774 1.08667 14.7922 1.52405C15.3648 2.31317 16.0165 3.09859 17.0217 3.2656C17.4568 3.32629 17.8941 3.34009 18.3329 3.34317C18.3888 3.34363 18.3888 3.34363 18.4459 3.3441C19.0892 3.34735 19.73 3.31377 20.373 3.28714C22.1684 3.23783 22.1684 3.23783 24 3.18753C24 6.63706 24 10.0866 24 13.6407C18.4467 13.6407 12.8934 13.6407 7.17188 13.6407C7.17188 11.9546 7.17188 10.2685 7.17188 8.53128C6.92438 8.50034 6.67688 8.4694 6.42188 8.43753C5.87511 8.3106 5.33142 8.10877 4.8761 7.77176C4.70501 7.67008 4.5589 7.65657 4.36523 7.65237C4.25502 7.64851 4.1448 7.64464 4.03125 7.64065C4.03125 8.02737 4.03125 8.41409 4.03125 8.81253C2.70094 8.81253 1.37063 8.81253 0 8.81253C0 5.9044 0 2.99628 0 2.87686e-05ZM0.84375 0.843779C0.84375 3.19503 0.84375 5.54628 0.84375 7.96878C1.61719 7.96878 2.39062 7.96878 3.1875 7.96878C3.1875 5.61753 3.1875 3.26628 3.1875 0.843779C2.41406 0.843779 1.64062 0.843779 0.84375 0.843779ZM5.49602 1.30056C5.01393 1.56971 4.60774 1.55987 4.03125 1.59378C4.03125 3.31081 4.03125 5.02784 4.03125 6.7969C4.35609 6.81237 4.68094 6.82784 5.01562 6.84378C5.25873 6.97928 5.45377 7.10263 5.67188 7.26565C6.14807 7.53092 6.63392 7.62776 7.17188 7.68753C7.17188 7.05331 7.17188 6.41909 7.17188 5.76565C6.93984 5.6419 6.70781 5.51815 6.46875 5.39065C6.37594 5.31331 6.28312 5.23597 6.1875 5.15628C6.25032 4.93293 6.38602 4.79516 6.54089 4.62985C6.61932 4.55278 6.61932 4.55278 6.60938 4.45315C6.64061 4.4775 6.67185 4.50186 6.70404 4.52695C7.30705 4.98321 7.82412 5.16197 8.57812 5.1094C8.98482 5.02941 9.2836 4.84055 9.60938 4.59378C9.70294 4.531 9.79667 4.46847 9.89062 4.40628C9.93518 4.45162 9.93518 4.45162 9.98064 4.49787C10.2614 4.78331 10.5427 5.06818 10.8246 5.35242C10.9695 5.49856 11.1142 5.64491 11.2584 5.79176C11.3977 5.93361 11.5376 6.07486 11.6779 6.21574C11.7311 6.26945 11.7842 6.32337 11.8371 6.3775C12.2435 6.81715 12.2435 6.81715 12.7987 6.98793C13.0302 6.97264 13.1859 6.89982 13.3594 6.75003C13.5249 6.53225 13.5867 6.35283 13.5685 6.07754C13.4861 5.60375 12.9701 5.21784 12.6434 4.89535C12.5828 4.83503 12.5223 4.77468 12.4618 4.7143C12.3035 4.55655 12.1448 4.39923 11.986 4.242C11.8236 4.08105 11.6616 3.91969 11.4996 3.75836C11.1824 3.44269 10.8648 3.12747 10.5469 2.81253C10.5909 2.76066 10.635 2.70885 10.6791 2.65707C10.7036 2.62822 10.7282 2.59936 10.7534 2.56963C10.8516 2.45757 10.9556 2.35377 11.0625 2.25003C11.2248 2.31689 11.2959 2.39245 11.395 2.53565C11.6561 2.87485 11.9203 3.1813 12.3639 3.24708C12.7844 3.28892 13.2082 3.26734 13.6293 3.24546C13.8159 3.23672 14.0026 3.23296 14.1894 3.22873C14.5536 3.21977 14.9173 3.20544 15.2812 3.18753C15.0005 2.85433 14.7001 2.54414 14.394 2.23441C14.3296 2.16903 14.2655 2.10336 14.2018 2.03739C13.536 1.34889 12.8498 0.835562 11.8485 0.814722C11.7981 0.814586 11.7476 0.81445 11.6956 0.81431C11.6406 0.813455 11.5855 0.812599 11.5288 0.811717C11.3486 0.80924 11.1684 0.808171 10.9882 0.807341C10.9253 0.806888 10.8625 0.806412 10.7996 0.805912C10.4701 0.803344 10.1406 0.801885 9.81113 0.80131C9.50721 0.800744 9.20338 0.797538 8.89949 0.793119C8.63604 0.789427 8.37263 0.787795 8.10916 0.787639C7.95289 0.787505 7.79682 0.786342 7.64057 0.783531C6.81267 0.769756 6.21775 0.887773 5.49602 1.30056ZM12.9844 4.03128C13.0772 4.13956 13.17 4.24784 13.2656 4.3594C13.2974 4.39988 13.3292 4.44035 13.3619 4.48205C13.5545 4.70721 13.6953 4.80772 13.9945 4.83201C14.1147 4.83323 14.2349 4.83213 14.355 4.82917C14.4216 4.82905 14.4882 4.82912 14.5547 4.82936C14.7343 4.82948 14.9137 4.82701 15.0933 4.82405C15.2813 4.82141 15.4694 4.82117 15.6575 4.82067C16.0131 4.81936 16.3686 4.8159 16.7242 4.81166C17.1293 4.80694 17.5343 4.80462 17.9393 4.80251C18.7721 4.79811 19.6048 4.79069 20.4375 4.78128C20.4364 4.83192 20.4354 4.88256 20.4343 4.93473C20.4335 5.00229 20.4326 5.06986 20.4318 5.13742C20.4311 5.17066 20.4303 5.20391 20.4295 5.23816C20.4257 5.6708 20.5732 6.00643 20.8652 6.32522C21.3278 6.74998 21.7962 6.7969 22.4062 6.7969C22.4062 7.86425 22.4062 8.93159 22.4062 10.0313C22.1742 10.0313 21.9422 10.0313 21.7031 10.0313C21.2489 10.1303 20.8983 10.3943 20.6353 10.7778C20.396 11.185 20.4375 11.4979 20.4375 12C17.2509 12 14.0644 12 10.7812 12C10.7812 11.7989 10.7812 11.5978 10.7812 11.3907C10.7132 11.0945 10.6393 10.8833 10.4531 10.6407C10.428 10.602 10.4029 10.5633 10.377 10.5235C10.1375 10.2714 9.84144 10.1399 9.51562 10.0313C9.26812 10.0313 9.02063 10.0313 8.76562 10.0313C8.76562 8.96393 8.76562 7.89659 8.76562 6.7969C8.92031 6.7969 9.075 6.7969 9.23438 6.7969C9.74453 6.74437 10.0861 6.53505 10.4531 6.18753C10.3606 6.07691 10.2671 5.96774 10.1719 5.8594C10.1305 5.81164 10.1305 5.81164 10.0884 5.76291C9.93844 5.58714 9.93844 5.58714 9.72949 5.52249C9.6332 5.56711 9.53886 5.61593 9.44531 5.66604C8.99757 5.89705 8.51097 5.91505 8.01562 5.95315C8.01562 8.21159 8.01562 10.47 8.01562 12.7969C13.012 12.7969 18.0084 12.7969 23.1562 12.7969C23.1562 9.90425 23.1562 7.01159 23.1562 4.03128C19.7995 4.03128 16.4428 4.03128 12.9844 4.03128ZM14.3438 5.62503C14.3438 5.9344 14.3438 6.24378 14.3438 6.56253C14.3283 6.65534 14.3128 6.74815 14.2969 6.84378C14.336 6.82118 14.3751 6.79858 14.4153 6.7753C15.0155 6.43842 15.5662 6.30722 16.251 6.49515C16.7793 6.67636 17.1646 7.00443 17.4258 7.49417C17.6906 8.05866 17.6923 8.6482 17.4844 9.2344C17.2469 9.74564 16.8856 10.1077 16.3594 10.3125C15.8679 10.4797 15.2632 10.4877 14.7838 10.2777C14.2324 9.98717 13.9081 9.63395 13.6875 9.0469C13.6277 8.8406 13.632 8.64209 13.6318 8.42874C13.6313 8.39064 13.6307 8.35254 13.6301 8.31329C13.6295 8.0464 13.666 7.80472 13.7344 7.5469C13.6013 7.59024 13.4701 7.63336 13.3414 7.68863C12.9191 7.84622 12.4538 7.79206 12.0469 7.61429C11.6851 7.41876 11.394 7.08899 11.1094 6.7969C10.9528 6.86628 10.8396 6.95721 10.7109 7.06937C10.3793 7.33968 10.011 7.4599 9.60938 7.59378C9.60938 8.13519 9.60938 8.67659 9.60938 9.2344C9.81047 9.29628 10.0116 9.35815 10.2188 9.4219C10.9153 9.80184 11.281 10.2595 11.5312 11.0157C11.5467 11.0621 11.5622 11.1085 11.5781 11.1563C14.2387 11.1563 16.8994 11.1563 19.6406 11.1563C19.7025 10.9552 19.7644 10.7541 19.8281 10.5469C20.1454 9.96317 20.5643 9.57121 21.1875 9.32815C21.3113 9.29722 21.435 9.26628 21.5625 9.2344C21.5625 8.693 21.5625 8.15159 21.5625 7.59378C21.2609 7.47776 21.2609 7.47776 20.9531 7.3594C20.1879 6.95859 19.8897 6.41412 19.5938 5.62503C17.8612 5.62503 16.1287 5.62503 14.3438 5.62503ZM14.6719 7.64065C14.4442 7.96401 14.3741 8.28126 14.4375 8.6719C14.5654 9.07192 14.7954 9.30154 15.1494 9.50979C15.488 9.60972 15.813 9.61563 16.1396 9.47171C16.4394 9.3013 16.627 9.05624 16.7549 8.73929C16.8232 8.32204 16.7762 7.98847 16.5247 7.63827C16.3018 7.39212 16.0255 7.25618 15.6984 7.20267C15.2994 7.18359 14.9295 7.33832 14.6719 7.64065Z" fill="#045324"/>
<path d="M19.9688 15.9844C21.2992 15.9844 22.6295 15.9844 24.0001 15.9844C24.0001 18.6295 24.0001 21.2747 24.0001 24C22.6698 24 21.3395 24 19.9688 24C19.9534 23.8298 19.9379 23.6597 19.922 23.4844C19.8681 23.5053 19.8681 23.5053 19.8131 23.5267C19.6502 23.5898 19.4873 23.6528 19.3243 23.7158C19.2678 23.7378 19.2112 23.7597 19.1529 23.7824C19.0985 23.8034 19.0442 23.8244 18.9881 23.846C18.9381 23.8654 18.888 23.8848 18.8364 23.9048C18.6331 23.9786 18.4663 24.006 18.2493 24.0069C18.1949 24.0072 18.1406 24.0076 18.0846 24.0079C18.0252 24.008 17.9657 24.0082 17.9045 24.0083C17.8411 24.0086 17.7777 24.0089 17.7143 24.0092C17.5063 24.0102 17.2983 24.0107 17.0902 24.0112C17.0185 24.0114 16.9467 24.0116 16.8749 24.0117C16.5374 24.0126 16.2 24.0133 15.8625 24.0137C15.4739 24.0142 15.0853 24.0154 14.6967 24.0173C14.3957 24.0187 14.0948 24.0194 13.7939 24.0195C13.6144 24.0197 13.435 24.0201 13.2555 24.0213C13.0864 24.0224 12.9174 24.0225 12.7483 24.0221C12.6574 24.022 12.5665 24.0229 12.4757 24.0238C12.0122 24.0211 11.6262 23.9166 11.2305 23.6717C11.1653 23.6319 11.1653 23.6319 11.0988 23.5913C11.053 23.5628 11.0072 23.5343 10.9601 23.5049C10.8567 23.4417 10.7533 23.3785 10.6499 23.3154C10.6229 23.2988 10.5958 23.2822 10.568 23.2652C10.2695 23.0823 9.96813 22.9044 9.66675 22.7263C9.13438 22.4116 8.60429 22.0934 8.07627 21.7715C7.63613 21.5032 7.19366 21.2391 6.75009 20.9766C6.20778 20.6556 5.66754 20.3314 5.12957 20.0032C4.87533 19.8481 4.62059 19.6943 4.36367 19.5437C3.85863 19.2465 3.48843 18.9611 3.32822 18.375C3.27606 17.8292 3.30549 17.3402 3.6589 16.894C3.95499 16.5785 4.27524 16.3777 4.71286 16.3482C4.7767 16.3468 4.84054 16.3456 4.90439 16.3447C4.93539 16.3434 4.96638 16.342 4.99832 16.3406C5.46264 16.3348 5.87046 16.5929 6.26962 16.8047C6.31637 16.8293 6.36312 16.8539 6.41129 16.8792C6.81133 17.0905 7.20854 17.3068 7.60519 17.5243C8.33269 17.9229 9.06443 18.3139 9.79697 18.7031C9.80917 18.6611 9.82138 18.619 9.83395 18.5757C9.97732 18.1872 10.283 17.9661 10.6448 17.7926C11.0449 17.6226 11.4764 17.5279 11.8957 17.4177C11.9995 17.39 12.1033 17.3623 12.207 17.3345C12.4237 17.2766 12.6405 17.2191 12.8573 17.1619C13.1337 17.0891 13.4099 17.0153 13.686 16.9413C13.9 16.884 14.1141 16.827 14.3283 16.7702C14.4301 16.7432 14.5319 16.7161 14.6336 16.6888C15.3115 16.5077 15.9684 16.3432 16.675 16.3469C16.7144 16.3468 16.7539 16.3467 16.7946 16.3467C16.8767 16.3466 16.9589 16.3468 17.0411 16.3472C17.1654 16.3477 17.2897 16.3472 17.4141 16.3466C18.4511 16.3456 18.4511 16.3456 18.8731 16.5703C18.9418 16.6067 18.9418 16.6067 19.0119 16.6439C19.3337 16.8258 19.6514 17.0137 19.9688 17.2031C19.9688 16.8009 19.9688 16.3988 19.9688 15.9844ZM20.8126 16.8281C20.8126 18.9164 20.8126 21.0047 20.8126 23.1562C21.586 23.1562 22.3595 23.1562 23.1563 23.1562C23.1563 21.068 23.1563 18.9797 23.1563 16.8281C22.3829 16.8281 21.6095 16.8281 20.8126 16.8281ZM4.21884 17.625C4.16291 17.7369 4.16095 17.8136 4.15732 17.9385C4.15557 17.9773 4.15381 18.0162 4.15201 18.0562C4.1897 18.3041 4.30514 18.4722 4.49641 18.6251C4.57491 18.6724 4.57491 18.6724 4.655 18.7207C4.68372 18.7383 4.71245 18.7559 4.74204 18.774C4.83281 18.8293 4.9242 18.8834 5.01572 18.9375C5.07338 18.9722 5.13101 19.0069 5.18861 19.0417C5.33564 19.1301 5.48328 19.2174 5.63115 19.3043C5.79526 19.4009 5.95911 19.4979 6.12295 19.5948C6.15611 19.6145 6.18927 19.6341 6.22343 19.6543C6.54413 19.8444 6.86257 20.0381 7.18076 20.2324C7.64853 20.5179 8.11964 20.7971 8.59305 21.0731C9.04724 21.338 9.49777 21.6084 9.94665 21.8822C10.4343 22.1797 10.925 22.4718 11.4177 22.7608C11.5794 22.8566 11.7398 22.9546 11.9001 23.0529C12.0658 23.1465 12.1982 23.1627 12.3852 23.1654C12.4358 23.1662 12.4865 23.167 12.5388 23.1678C12.5944 23.1685 12.6501 23.1691 12.7074 23.1698C12.766 23.1706 12.8247 23.1714 12.8851 23.1723C13.4302 23.1796 13.9753 23.1837 14.5204 23.1868C14.9218 23.1892 15.3232 23.1931 15.7246 23.1994C16.0083 23.2037 16.2919 23.2059 16.5757 23.2067C16.7442 23.2072 16.9126 23.2086 17.0811 23.2122C18.0223 23.2317 18.7543 23.0809 19.6067 22.6978C19.7264 22.6443 19.8468 22.5947 19.9688 22.5469C19.983 21.9911 19.9938 21.4354 20.0004 20.8795C20.0036 20.6213 20.0079 20.3633 20.0148 20.1052C20.0215 19.8559 20.0251 19.6068 20.0267 19.3575C20.0278 19.2625 20.03 19.1676 20.0333 19.0727C20.0705 18.5925 20.0705 18.5925 19.9101 18.1589C19.7464 18.0162 19.56 17.9404 19.3595 17.8594C19.2752 17.8089 19.1917 17.7571 19.1097 17.703C19.0328 17.6555 18.9559 17.608 18.879 17.5605C18.8406 17.5362 18.8021 17.5118 18.7625 17.4868C18.2811 17.1919 17.8329 17.188 17.2808 17.1909C17.169 17.1914 17.0572 17.1909 16.9454 17.1903C16.8724 17.1904 16.7994 17.1905 16.7264 17.1907C16.694 17.1905 16.6615 17.1903 16.6281 17.1901C15.9527 17.1963 15.3091 17.3919 14.6623 17.566C14.5621 17.5928 14.4619 17.6195 14.3617 17.6463C14.1528 17.7021 13.944 17.7581 13.7352 17.8144C13.4683 17.8862 13.2012 17.9574 12.9341 18.0284C12.7276 18.0833 12.5212 18.1387 12.3148 18.1941C12.2164 18.2205 12.1179 18.2468 12.0194 18.273C11.8817 18.3096 11.7442 18.3467 11.6066 18.3839C11.5664 18.3945 11.5262 18.4051 11.4848 18.416C11.1352 18.5117 10.793 18.6158 10.5938 18.9375C10.4903 19.1594 10.4773 19.3596 10.547 19.5938C10.6378 19.7761 10.7439 19.8955 10.9102 20.0127C11.3334 20.151 11.7417 20.0101 12.1554 19.8984C12.2239 19.8803 12.2925 19.8623 12.3611 19.8442C12.5659 19.7903 12.7705 19.7356 12.975 19.6808C13.1423 19.636 13.3096 19.5915 13.477 19.547C13.5079 19.5388 13.5388 19.5306 13.5706 19.5222C13.6343 19.5052 13.6981 19.4883 13.7618 19.4713C14.4873 19.2785 15.2125 19.0848 15.9376 18.8906C15.9523 18.9707 15.9669 19.0508 15.9815 19.1309C15.9897 19.1755 15.9979 19.22 16.0063 19.266C16.0314 19.4063 16.0551 19.5468 16.0782 19.6875C15.5322 19.8335 14.9862 19.9793 14.4402 20.1251C14.1866 20.1928 13.9331 20.2605 13.6796 20.3283C13.4349 20.3937 13.1903 20.4591 12.9456 20.5243C12.8522 20.5493 12.7589 20.5742 12.6655 20.5992C12.5348 20.6342 12.4041 20.669 12.2733 20.7039C12.2347 20.7143 12.1961 20.7246 12.1564 20.7353C11.6489 20.8703 11.0293 20.9964 10.5446 20.7305C10.5144 20.7111 10.4843 20.6918 10.4532 20.6719C10.4206 20.6525 10.3881 20.6332 10.3545 20.6133C10.0609 20.4194 9.84533 20.1308 9.76531 19.7851C9.6854 19.5992 9.57612 19.5436 9.40219 19.4586C9.37184 19.4429 9.34148 19.4271 9.31021 19.4109C9.21115 19.3597 9.1115 19.3097 9.01181 19.2598C8.94281 19.2243 8.87387 19.1888 8.80497 19.1531C8.66762 19.0821 8.53009 19.0115 8.39241 18.9412C8.14916 18.8165 7.90934 18.6858 7.67001 18.5537C7.58891 18.5092 7.5078 18.4648 7.42667 18.4204C7.38593 18.3981 7.3452 18.3758 7.30323 18.3528C7.0001 18.1875 6.69618 18.0236 6.39169 17.8608C6.1648 17.7395 5.93863 17.6176 5.71536 17.4897C5.27764 17.2296 5.27764 17.2296 4.78189 17.1768C4.52275 17.2492 4.3706 17.4114 4.21884 17.625Z" fill="#045324"/>
</g>
<defs>
<clipPath id="clip0_701_359">
<rect width="24" height="24" fill="white"/>
</clipPath>
</defs>
</svg>
