<svg width="20" height="20" viewBox="0 0 20 20" fill="none" xmlns="http://www.w3.org/2000/svg">
<g clip-path="url(#clip0_466_2480)">
<path d="M17.6336 5.67301C18.0739 5.23282 18.3213 4.63574 18.3214 4.01313C18.3215 3.39052 18.0742 2.79338 17.634 2.35307C17.1938 1.91277 16.5968 1.66536 15.9741 1.66528C15.3515 1.66521 14.7544 1.91246 14.3141 2.35266L3.1996 13.4696C3.00625 13.6624 2.86325 13.8998 2.78321 14.1609L1.68308 17.7852C1.66156 17.8572 1.65993 17.9337 1.67838 18.0066C1.69682 18.0795 1.73465 18.146 1.78785 18.1991C1.84104 18.2522 1.90762 18.2899 1.98052 18.3083C2.05342 18.3266 2.12993 18.3248 2.20192 18.3032L5.82707 17.2039C6.08788 17.1246 6.32523 16.9825 6.51829 16.79L17.6336 5.67301Z" stroke="white" stroke-width="1.66559" stroke-linecap="round" stroke-linejoin="round"/>
</g>
<defs>
<clipPath id="clip0_466_2480">
<rect width="19.9871" height="19.9871" fill="white"/>
</clipPath>
</defs>
</svg>
