<svg width="20" height="20" viewBox="0 0 20 20" fill="none" xmlns="http://www.w3.org/2000/svg">
<path d="M16.6559 10.8264C16.6559 14.9904 13.7411 17.0724 10.2767 18.2799C10.0953 18.3414 9.89822 18.3385 9.71872 18.2716C6.24596 17.0724 3.33118 14.9904 3.33118 10.8264V4.99684C3.33118 4.77597 3.41892 4.56414 3.5751 4.40796C3.73128 4.25179 3.9431 4.16404 4.16397 4.16404C5.82956 4.16404 7.91155 3.16469 9.36062 1.89884C9.53705 1.7481 9.76149 1.66528 9.99354 1.66528C10.2256 1.66528 10.45 1.7481 10.6265 1.89884C12.0839 3.17302 14.1575 4.16404 15.8231 4.16404C16.044 4.16404 16.2558 4.25179 16.412 4.40796C16.5682 4.56414 16.6559 4.77597 16.6559 4.99684V10.8264Z" stroke="#4A5565" stroke-width="1.66559" stroke-linecap="round" stroke-linejoin="round"/>
</svg>
