<svg width="24" height="24" viewBox="0 0 24 24" fill="none" xmlns="http://www.w3.org/2000/svg">
<g clip-path="url(#clip0_701_1814)">
<path d="M0.046875 20.4844C0.046875 17.9366 0.046875 15.3887 0.0638339 12.8138C0.100925 12.7301 0.121171 12.6734 0.141173 12.6166C0.431346 11.7926 0.996541 11.2479 1.81529 10.954C2.27825 10.7879 2.75713 10.8376 3.23246 10.8254C3.31051 10.8234 3.40779 10.8072 3.46192 10.7591C3.8543 10.4102 4.2391 10.0528 4.62396 9.69549C5.10046 9.25316 5.57516 8.8089 6.04981 8.36458C6.79026 7.67146 7.5316 6.97929 8.26941 6.28338C8.67622 5.89967 9.075 5.50747 9.48044 5.12229C9.74953 4.86665 10.0263 4.619 10.2931 4.36107C10.3249 4.33035 10.3364 4.2512 10.3224 4.20503C10.2329 3.90904 10.1913 3.61548 10.2119 3.30009C10.261 2.54554 10.8167 1.86132 11.5827 1.65665C12.4389 1.42786 13.3611 1.82283 13.7525 2.622C13.9802 3.08697 14.0505 3.57817 13.851 4.07081C13.7812 4.24315 13.8106 4.34233 13.9422 4.45472C14.1536 4.6353 14.3536 4.82931 14.5572 5.01897C15.0329 5.46213 15.5083 5.90566 15.9832 6.34981C16.475 6.80993 16.9658 7.27125 17.4576 7.73151C17.9379 8.18112 18.4203 8.62861 18.8993 9.07967C19.4805 9.62694 20.0569 10.1794 20.642 10.7224C20.7063 10.782 20.813 10.8177 20.9029 10.824C21.265 10.8496 21.6324 10.8297 21.99 10.8811C22.7444 10.9896 23.3064 11.4156 23.6938 12.0564C23.8484 12.3122 23.9313 12.6113 24.0469 12.8907C24.0469 15.3916 24.0469 17.8926 24.0293 20.4214C23.9907 20.5453 23.979 20.6445 23.9473 20.7368C23.5905 21.7755 22.6523 22.4579 21.5471 22.4567C15.2005 22.4495 8.85394 22.4535 2.50736 22.4512C2.35574 22.4511 2.2012 22.4356 2.05302 22.4039C1.42707 22.2699 0.904748 21.9585 0.548073 21.4226C0.352536 21.1288 0.212137 20.7983 0.046875 20.4844ZM5.50659 9.98514C5.20882 10.2592 4.91106 10.5332 4.60159 10.818C9.5871 10.818 14.556 10.818 19.5635 10.818C19.4397 10.7137 19.3397 10.636 19.2472 10.5503C18.7871 10.1243 18.328 9.6972 17.8704 9.26856C17.1071 8.55357 16.3437 7.83855 15.5831 7.12071C15.1875 6.74745 14.8009 6.36472 14.4043 5.99259C14.061 5.67042 13.7128 5.35315 13.3569 5.04501C13.3119 5.00605 13.19 5.00558 13.1335 5.03842C12.7328 5.27102 12.3079 5.39736 11.8448 5.34096C11.4909 5.29786 11.1699 5.15909 10.8993 4.93992C10.2281 5.55768 9.56066 6.16943 8.8962 6.78439C8.41311 7.23149 7.93184 7.68061 7.45351 8.1328C6.81064 8.74054 6.17138 9.35211 5.50659 9.98514ZM13.2188 17.6015C13.2188 17.2253 13.2188 16.8492 13.2188 16.473C13.3271 16.5711 13.3929 16.6783 13.4533 16.7886C13.7356 17.3039 14.0145 17.821 14.2988 18.3352C14.3948 18.509 14.6595 18.6179 14.8591 18.5584C15.0234 18.5095 15.1395 18.3986 15.1398 18.212C15.1415 17.1497 15.1453 16.0873 15.1335 15.025C15.1323 14.9144 15.1456 14.7637 14.9463 14.7094C14.5532 14.6024 14.344 14.7329 14.3438 15.1363C14.3435 15.6618 14.3438 16.1874 14.3438 16.7619C14.2899 16.7017 14.2654 16.6833 14.2528 16.6588C14.0321 16.23 13.8194 15.7969 13.5906 15.3725C13.4799 15.1672 13.3611 14.9587 13.2071 14.7863C13.0291 14.5872 12.7706 14.635 12.5688 14.7343C12.4805 14.7777 12.4294 14.9759 12.4281 15.1045C12.417 16.1355 12.4274 17.1667 12.4171 18.1977C12.4151 18.3978 12.5158 18.4901 12.6693 18.5476C12.9593 18.6562 13.2187 18.4699 13.2187 18.1639C13.2188 17.992 13.2188 17.8202 13.2188 17.6015ZM5.29688 16.6172C5.29688 17.1401 5.29618 17.6631 5.29717 18.186C5.29766 18.4458 5.41369 18.5616 5.66977 18.5625C5.94981 18.5636 6.04664 18.4708 6.04681 18.2001C6.04706 17.806 6.04688 17.412 6.04688 17.0209C6.22043 17.0209 6.36047 17.0209 6.48344 17.0209C6.73214 17.4918 6.96771 17.9559 7.22437 18.4079C7.27208 18.4919 7.40618 18.5795 7.49782 18.5768C7.88348 18.5656 8.04355 18.281 7.87299 17.9437C7.82546 17.8496 7.76059 17.7645 7.71127 17.6713C7.56908 17.4025 7.43077 17.1317 7.30882 16.8961C7.46021 16.7677 7.59294 16.6823 7.69041 16.567C7.92811 16.286 7.96388 15.9543 7.92721 15.5946C7.88714 15.2015 7.59561 14.7763 7.21207 14.7282C6.68635 14.6623 6.1534 14.6451 5.6229 14.6305C5.39432 14.6242 5.29757 14.7601 5.29715 15.0016C5.29625 15.5245 5.29688 16.0474 5.29688 16.6172ZM10.5869 16.3131C10.325 16.3131 10.0632 16.3131 9.8127 16.3131C9.8127 15.9804 9.8127 15.6801 9.8127 15.375C10.2576 15.375 10.6867 15.3783 11.1157 15.3737C11.3432 15.3712 11.4863 15.2177 11.4844 14.9957C11.4825 14.7848 11.3428 14.6289 11.1305 14.6269C10.5683 14.6215 10.0059 14.6168 9.44398 14.6281C9.10276 14.635 8.95667 14.7589 8.95532 15.0289C8.95001 16.0908 8.94921 17.1528 8.95688 18.2146C8.95822 18.3998 9.05006 18.5224 9.27417 18.519C9.90648 18.5095 10.539 18.5164 11.1715 18.5153C11.3725 18.5149 11.4865 18.4002 11.4844 18.207C11.4822 18.014 11.3698 17.9071 11.1636 17.9066C10.7132 17.9056 10.2627 17.9063 9.80758 17.9063C9.80758 17.5691 9.80758 17.2533 9.80758 16.9219C10.0349 16.9219 10.2526 16.9104 10.4685 16.9256C10.6376 16.9375 10.7742 16.8868 10.8209 16.7329C10.8739 16.5585 10.8243 16.3962 10.5869 16.3131ZM17.0625 17.4609C17.0625 17.7031 17.0744 17.946 17.0588 18.1871C17.0462 18.3809 17.1357 18.4828 17.3007 18.5441C17.5902 18.6515 17.8593 18.4732 17.8594 18.1745C17.8594 17.9324 17.8594 17.6903 17.8594 17.4481C17.8594 16.763 17.8594 16.0779 17.8594 15.375C18.0792 15.375 18.2805 15.3804 18.4814 15.3737C18.7501 15.3647 18.8486 15.2562 18.8437 14.991C18.8397 14.7722 18.7065 14.6282 18.4823 14.6267C17.8028 14.6221 17.1231 14.6147 16.4439 14.6295C16.1191 14.6367 16.0746 14.7726 16.0755 15.0048C16.0765 15.2713 16.1594 15.3498 16.4535 15.3722C16.6524 15.3872 16.8533 15.375 17.0625 15.375C17.0625 16.0727 17.0625 16.7434 17.0625 17.4609Z" fill="black"/>
<path d="M6.88908 15.3974C7.13986 15.5519 7.2187 15.7888 7.12254 16.119C7.05729 16.3431 6.89332 16.4223 6.66502 16.4086C6.471 16.397 6.27572 16.4062 6.06396 16.4062C6.06396 16.0672 6.06396 15.7308 6.06396 15.3828C6.33498 15.3828 6.60525 15.3828 6.88908 15.3974Z" fill="black"/>
</g>
<defs>
<clipPath id="clip0_701_1814">
<rect width="24" height="24" fill="white"/>
</clipPath>
</defs>
</svg>
