<svg width="18" height="18" viewBox="0 0 18 18" fill="none" xmlns="http://www.w3.org/2000/svg">
<g clip-path="url(#clip0_342_2199)">
<path d="M15.0757 6.28673C15.1187 6.28628 15.1616 6.28583 15.2059 6.28537C15.253 6.28508 15.3001 6.28482 15.3473 6.28458C15.371 6.28444 15.3947 6.28429 15.4191 6.28415C15.5448 6.28341 15.6704 6.28291 15.796 6.28258C15.9255 6.28219 16.0549 6.28098 16.1844 6.27959C16.2842 6.27866 16.384 6.27837 16.4837 6.27825C16.5546 6.27799 16.6254 6.27706 16.6963 6.27612C17.0988 6.27708 17.0988 6.27708 17.2616 6.43358C17.3059 6.52203 17.3011 6.58207 17.3011 6.6811C17.3012 6.71884 17.3013 6.75658 17.3013 6.79546C17.3012 6.83725 17.3011 6.87904 17.301 6.92209C17.3011 6.98829 17.3011 6.98829 17.3011 7.05583C17.3012 7.17873 17.301 7.30163 17.3009 7.42453C17.3007 7.55691 17.3008 7.68929 17.3008 7.82167C17.3008 8.05116 17.3007 8.28065 17.3005 8.51014C17.3002 8.84195 17.3001 9.17376 17.3001 9.50557C17.3 10.0439 17.2998 10.5822 17.2994 11.1205C17.2991 11.6435 17.2989 12.1665 17.2987 12.6895C17.2987 12.7378 17.2987 12.7378 17.2987 12.7871C17.2986 12.9487 17.2986 13.1104 17.2986 13.272C17.2982 14.6136 17.2976 15.9552 17.2968 17.2969C17.3328 17.2948 17.3688 17.2928 17.406 17.2907C17.4538 17.289 17.5016 17.2874 17.5495 17.2859C17.5731 17.2844 17.5968 17.2829 17.6212 17.2814C17.7609 17.278 17.8175 17.2915 17.9277 17.3799C18.0059 17.4804 18.0238 17.5231 18.0219 17.6484C18.0223 17.6774 18.0228 17.7064 18.0233 17.7363C17.9887 17.8665 17.9289 17.9164 17.8241 18C17.7185 18.0173 17.6329 18.0237 17.5274 18.0221C17.4824 18.0225 17.4824 18.0225 17.4366 18.0229C17.3358 18.0235 17.235 18.0229 17.1342 18.0223C17.0613 18.0225 16.9885 18.0228 16.9157 18.0231C16.7152 18.0239 16.5147 18.0235 16.3143 18.023C16.0982 18.0226 15.8821 18.0232 15.666 18.0237C15.2671 18.0244 14.8682 18.0243 14.4692 18.0239C14.1007 18.0234 13.7322 18.0233 13.3637 18.0235C13.327 18.0235 13.327 18.0235 13.2896 18.0236C13.1905 18.0236 13.0913 18.0237 12.9922 18.0237C12.0616 18.0243 11.1311 18.0238 10.2006 18.0228C9.37355 18.022 8.54654 18.0221 7.71952 18.0229C6.79071 18.0238 5.8619 18.0242 4.93309 18.0237C4.83411 18.0236 4.73512 18.0236 4.63614 18.0235C4.59958 18.0235 4.59958 18.0235 4.56228 18.0235C4.19396 18.0233 3.82564 18.0235 3.45732 18.0239C3.03859 18.0244 2.61987 18.0243 2.20114 18.0234C1.98737 18.0229 1.7736 18.0227 1.55983 18.0233C1.36432 18.0238 1.16882 18.0235 0.9733 18.0226C0.902399 18.0224 0.831496 18.0225 0.760596 18.0229C0.664524 18.0235 0.568518 18.0229 0.47245 18.0221C0.444648 18.0225 0.416846 18.0229 0.388201 18.0234C0.246501 18.0209 0.18291 18.0058 0.0707102 17.9162C-0.00621472 17.8163 -0.0240068 17.7727 -0.0220642 17.6484C-0.0225174 17.6194 -0.0229706 17.5904 -0.0234375 17.5605C0.010983 17.431 0.0717655 17.3802 0.17569 17.2969C0.275489 17.2839 0.352111 17.2798 0.450348 17.2859C0.474707 17.2867 0.499065 17.2875 0.524162 17.2883C0.583819 17.2903 0.643437 17.2935 0.703033 17.2969C0.702721 17.255 0.702409 17.2131 0.702087 17.1699C0.699237 16.7752 0.697129 16.3805 0.695747 15.9858C0.695013 15.7829 0.694018 15.58 0.692425 15.3771C0.690897 15.1813 0.690056 14.9855 0.689691 14.7897C0.689431 14.7149 0.688924 14.6402 0.688165 14.5655C0.687145 14.4609 0.687004 14.3563 0.687069 14.2516C0.686563 14.2207 0.686058 14.1898 0.685537 14.1579C0.686512 14.0135 0.691271 13.9406 0.769949 13.8156C0.889932 13.7025 0.963684 13.7061 1.12571 13.7047C1.17018 13.7043 1.21466 13.7038 1.26048 13.7033C1.30927 13.703 1.35806 13.7028 1.40685 13.7025C1.44365 13.7023 1.44365 13.7023 1.48121 13.7021C1.61111 13.7014 1.74102 13.7009 1.87092 13.7005C2.00499 13.7002 2.13903 13.699 2.27309 13.6976C2.37626 13.6966 2.47944 13.6963 2.58262 13.6962C2.63203 13.696 2.68144 13.6956 2.73084 13.695C2.80009 13.6941 2.86934 13.6942 2.93859 13.6944C2.99764 13.6941 2.99764 13.6941 3.05789 13.6938C3.18796 13.7148 3.24609 13.7608 3.33975 13.8516C3.39961 13.9713 3.37943 14.108 3.3789 14.2397C3.3789 14.2726 3.37891 14.3055 3.37892 14.3394C3.37889 14.4486 3.37862 14.5578 3.37834 14.667C3.37828 14.7426 3.37823 14.8181 3.37819 14.8937C3.37806 15.0929 3.37771 15.292 3.37732 15.4912C3.37696 15.6943 3.3768 15.8975 3.37663 16.1006C3.37625 16.4993 3.37563 16.8981 3.37491 17.2969C3.64174 17.2969 3.90858 17.2969 4.1835 17.2969C4.18311 17.2145 4.18272 17.132 4.18232 17.0471C4.17873 16.2717 4.17611 15.4962 4.17439 14.7207C4.17349 14.322 4.17225 13.9233 4.17024 13.5246C4.16849 13.1771 4.16736 12.8296 4.16696 12.4822C4.16673 12.2981 4.16619 12.1141 4.16492 11.9301C4.16372 11.7569 4.16335 11.5838 4.16362 11.4106C4.16357 11.347 4.16322 11.2834 4.16255 11.2198C4.16167 11.1331 4.16188 11.0463 4.16236 10.9595C4.16185 10.9343 4.16134 10.9091 4.16081 10.8832C4.16284 10.7479 4.18056 10.6912 4.26596 10.584C4.38193 10.4942 4.44385 10.4895 4.58945 10.489C4.65826 10.4881 4.65826 10.4881 4.72846 10.4873C4.77825 10.4876 4.82805 10.488 4.87784 10.4884C4.92919 10.4882 4.98054 10.4881 5.03189 10.4879C5.13935 10.4876 5.24678 10.488 5.35423 10.4888C5.49173 10.4898 5.62917 10.4892 5.76667 10.4882C5.87266 10.4875 5.97863 10.4877 6.08462 10.4882C6.1353 10.4883 6.18599 10.4882 6.23667 10.4877C6.30759 10.4873 6.37852 10.4881 6.44943 10.489C6.48973 10.4891 6.53003 10.4892 6.57155 10.4894C6.71704 10.5194 6.76331 10.5719 6.85538 10.6875C6.87236 10.7855 6.8785 10.8618 6.87652 10.9595C6.87674 11.0003 6.87674 11.0003 6.87697 11.0418C6.87726 11.1326 6.87629 11.2234 6.87533 11.3142C6.87528 11.3793 6.87531 11.4444 6.87541 11.5096C6.87546 11.6864 6.87443 11.8632 6.8732 12.0399C6.8721 12.2247 6.872 12.4095 6.87179 12.5943C6.87124 12.9441 6.8698 13.294 6.86804 13.6438C6.86607 14.0422 6.86511 14.4405 6.86422 14.8388C6.86239 15.6582 6.85926 16.4775 6.85538 17.2969C7.12221 17.2969 7.38905 17.2969 7.66397 17.2969C7.66358 17.2378 7.66319 17.1787 7.66279 17.1179C7.65923 16.5618 7.65658 16.0056 7.65486 15.4495C7.65396 15.1636 7.65272 14.8777 7.65071 14.5918C7.64896 14.3426 7.64782 14.0934 7.64743 13.8442C7.6472 13.7122 7.64666 13.5803 7.64539 13.4483C7.64397 13.301 7.64393 13.1537 7.64402 13.0064C7.64307 12.9408 7.64307 12.9408 7.6421 12.8738C7.64386 12.5817 7.64386 12.5817 7.73872 12.4358C7.85903 12.3634 7.92987 12.3527 8.06992 12.3522C8.13873 12.3514 8.13873 12.3514 8.20893 12.3506C8.25872 12.3509 8.30851 12.3512 8.35831 12.3516C8.40966 12.3515 8.46101 12.3514 8.51236 12.3511C8.61981 12.3509 8.72725 12.3512 8.8347 12.3521C8.9722 12.3531 9.10964 12.3525 9.24714 12.3514C9.35313 12.3508 9.4591 12.351 9.56509 12.3515C9.61577 12.3516 9.66646 12.3514 9.71714 12.351C9.78806 12.3506 9.85898 12.3514 9.9299 12.3522C9.9702 12.3524 10.0105 12.3525 10.052 12.3527C10.1601 12.375 10.1601 12.375 10.2611 12.4358C10.3791 12.6173 10.3589 12.7945 10.3558 13.0064C10.3558 13.0527 10.3559 13.099 10.3559 13.1468C10.3559 13.2735 10.3549 13.4002 10.3537 13.527C10.3526 13.6595 10.3525 13.7921 10.3523 13.9246C10.3517 14.1755 10.3503 14.4264 10.3485 14.6773C10.3465 14.9629 10.3456 15.2486 10.3447 15.5343C10.3429 16.1218 10.3397 16.7093 10.3358 17.2969C10.6027 17.2969 10.8695 17.2969 11.1444 17.2969C11.144 17.2145 11.1437 17.132 11.1433 17.0471C11.1397 16.2717 11.137 15.4962 11.1353 14.7207C11.1344 14.322 11.1332 13.9233 11.1312 13.5246C11.1294 13.1771 11.1283 12.8296 11.1279 12.4822C11.1277 12.2981 11.1271 12.1141 11.1259 11.9301C11.1247 11.7569 11.1243 11.5838 11.1246 11.4106C11.1245 11.347 11.1242 11.2834 11.1235 11.2198C11.1226 11.1331 11.1228 11.0463 11.1233 10.9595C11.1228 10.9343 11.1223 10.9091 11.1217 10.8832C11.1238 10.7479 11.1415 10.6912 11.2269 10.584C11.3429 10.4942 11.4048 10.4895 11.5504 10.489C11.6192 10.4881 11.6192 10.4881 11.6894 10.4873C11.7392 10.4876 11.789 10.488 11.8388 10.4884C11.8901 10.4882 11.9415 10.4881 11.9928 10.4879C12.1003 10.4876 12.2077 10.488 12.3152 10.4888C12.4527 10.4898 12.5901 10.4892 12.7276 10.4882C12.8336 10.4875 12.9396 10.4877 13.0456 10.4882C13.0962 10.4883 13.1469 10.4882 13.1976 10.4877C13.2685 10.4873 13.3395 10.4881 13.4104 10.489C13.4507 10.4891 13.491 10.4892 13.5325 10.4894C13.678 10.5194 13.7242 10.5719 13.8163 10.6875C13.8333 10.7855 13.8394 10.8618 13.8375 10.9595C13.8376 10.9867 13.8378 11.0138 13.8379 11.0418C13.8382 11.1326 13.8372 11.2234 13.8363 11.3142C13.8362 11.3793 13.8362 11.4444 13.8363 11.5096C13.8364 11.6864 13.8354 11.8632 13.8341 12.0399C13.833 12.2247 13.8329 12.4095 13.8327 12.5943C13.8322 12.9441 13.8307 13.294 13.829 13.6438C13.827 14.0422 13.826 14.4405 13.8252 14.8388C13.8233 15.6582 13.8202 16.4775 13.8163 17.2969C14.0832 17.2969 14.35 17.2969 14.6249 17.2969C14.6247 17.2414 14.6246 17.1859 14.6244 17.1288C14.6206 15.8129 14.6177 14.4969 14.6159 13.181C14.6157 13.0191 14.6155 12.8572 14.6153 12.6953C14.6152 12.663 14.6152 12.6308 14.6151 12.5976C14.6143 12.0754 14.613 11.5532 14.6113 11.031C14.6097 10.4954 14.6087 9.95974 14.6084 9.4241C14.6081 9.09346 14.6074 8.76283 14.6059 8.43219C14.605 8.2056 14.6047 7.97901 14.605 7.75241C14.6051 7.62159 14.6049 7.49078 14.604 7.35996C14.6029 7.21822 14.6033 7.07652 14.6038 6.93478C14.6033 6.89329 14.6027 6.85181 14.6022 6.80907C14.6051 6.49957 14.6051 6.49957 14.7097 6.39127C14.8443 6.29783 14.9125 6.28822 15.0757 6.28673ZM15.328 7.03124C15.328 10.4189 15.328 13.8066 15.328 17.2969C15.7457 17.2969 16.1633 17.2969 16.5937 17.2969C16.5937 13.9092 16.5937 10.5216 16.5937 7.03124C16.176 7.03124 15.7583 7.03124 15.328 7.03124ZM4.88663 11.2148C4.88663 13.2219 4.88663 15.229 4.88663 17.2969C5.30428 17.2969 5.72194 17.2969 6.15225 17.2969C6.15225 15.2898 6.15225 13.2827 6.15225 11.2148C5.7346 11.2148 5.31694 11.2148 4.88663 11.2148ZM11.8476 11.2148C11.8476 13.2219 11.8476 15.229 11.8476 17.2969C12.2652 17.2969 12.6829 17.2969 13.1132 17.2969C13.1132 15.2898 13.1132 13.2827 13.1132 11.2148C12.6955 11.2148 12.2779 11.2148 11.8476 11.2148ZM8.3671 13.0781C8.3671 14.4703 8.3671 15.8625 8.3671 17.2969C8.78475 17.2969 9.20241 17.2969 9.63272 17.2969C9.63272 15.9047 9.63272 14.5125 9.63272 13.0781C9.21507 13.0781 8.79741 13.0781 8.3671 13.0781ZM1.40616 14.4492C1.40616 15.3889 1.40616 16.3287 1.40616 17.2969C1.82381 17.2969 2.24147 17.2969 2.67178 17.2969C2.67178 16.3571 2.67178 15.4174 2.67178 14.4492C2.25413 14.4492 1.83647 14.4492 1.40616 14.4492Z" fill="#077AAD"/>
<path d="M17.9341 0.0659606C18.0639 0.282255 18.0083 0.512144 17.9516 0.74743C17.9141 0.894608 17.8744 1.04114 17.8345 1.18766C17.8174 1.25173 17.8003 1.31581 17.7832 1.3799C17.7384 1.54793 17.6931 1.71583 17.6476 1.88369C17.6107 2.02017 17.5742 2.15675 17.5377 2.29333C17.3392 3.03645 17.3392 3.03645 17.2453 3.37725C17.2285 3.43829 17.2119 3.49939 17.1954 3.5605C17.1866 3.59186 17.1777 3.62322 17.1686 3.65554C17.1616 3.68093 17.1545 3.70633 17.1473 3.7325C17.0961 3.85825 17.0273 3.90512 16.9101 3.9727C16.7577 3.9972 16.6875 3.98557 16.552 3.91118C16.4657 3.84212 16.3876 3.77238 16.3125 3.69145C16.1962 3.74216 16.1201 3.80511 16.0312 3.89505C16.0039 3.92238 15.9767 3.94971 15.9487 3.97787C15.9196 4.00739 15.8906 4.03691 15.8607 4.06732C15.8306 4.09757 15.8005 4.12782 15.7696 4.15899C15.6735 4.25566 15.5777 4.35257 15.4819 4.44951C15.3859 4.54654 15.2897 4.64352 15.1935 4.7404C15.1336 4.80072 15.0739 4.86112 15.0142 4.92163C14.9872 4.94885 14.9602 4.97607 14.9324 5.00412C14.9086 5.02818 14.8848 5.05225 14.8603 5.07705C14.7459 5.18423 14.6443 5.17952 14.4936 5.17831C14.377 5.16321 14.3174 5.11144 14.2383 5.02739C14.1801 4.9111 14.1768 4.80061 14.2031 4.67582C14.2455 4.61264 14.2455 4.61264 14.3038 4.54934C14.3263 4.5249 14.3487 4.50046 14.3718 4.47529C14.5209 4.31982 14.6721 4.16668 14.8245 4.01458C14.8603 3.97882 14.896 3.94305 14.9317 3.90727C15.0061 3.83291 15.0804 3.75861 15.1549 3.68435C15.2503 3.58911 15.3456 3.49371 15.4408 3.39827C15.5143 3.32465 15.5879 3.25111 15.6615 3.1776C15.6967 3.14242 15.7318 3.10723 15.767 3.072C15.8159 3.02304 15.8649 2.9742 15.9139 2.92537C15.9417 2.89756 15.9695 2.86976 15.9982 2.84112C16.1107 2.73601 16.193 2.73648 16.3452 2.73069C16.4385 2.74549 16.4854 2.78981 16.5586 2.8477C16.7132 2.32999 16.8585 1.8104 16.9953 1.28776C17.0066 1.24467 17.018 1.20158 17.0296 1.15718C17.0397 1.11873 17.0497 1.08028 17.06 1.04067C17.0859 0.949261 17.0859 0.949261 17.1211 0.878949C17.101 0.884931 17.081 0.890913 17.0604 0.897076C16.5628 1.04513 16.0633 1.18418 15.5611 1.31566C15.5181 1.32699 15.475 1.33831 15.4306 1.34999C15.3921 1.36002 15.3537 1.37005 15.3141 1.38039C15.2242 1.40278 15.2242 1.40278 15.1523 1.44145C15.1748 1.45813 15.1973 1.4748 15.2205 1.49199C15.3084 1.60127 15.3199 1.6778 15.3391 1.81361C15.3136 2.01072 15.1463 2.15943 15.0114 2.29447C14.9941 2.31183 14.9769 2.32919 14.9591 2.34707C14.9017 2.40472 14.8441 2.46212 14.7865 2.51952C14.7451 2.56098 14.7038 2.60246 14.6624 2.64396C14.5504 2.75626 14.4382 2.86835 14.326 2.98038C14.2084 3.09773 14.0911 3.21525 13.9737 3.33274C13.7767 3.52993 13.5794 3.72696 13.3822 3.92391C13.1541 4.15164 12.9262 4.37962 12.6985 4.60774C12.5029 4.80367 12.3071 4.99947 12.1112 5.19515C11.9943 5.31199 11.8774 5.42887 11.7606 5.54589C11.6509 5.65581 11.541 5.76557 11.431 5.87519C11.3906 5.91547 11.3503 5.9558 11.31 5.9962C11.2551 6.05129 11.2 6.10615 11.1449 6.16097C11.1141 6.19174 11.0833 6.22252 11.0515 6.25422C10.9391 6.35462 10.8618 6.39264 10.7139 6.41826C10.5752 6.39746 10.5509 6.38299 10.4525 6.29329C10.4279 6.27085 10.4032 6.24841 10.3778 6.22529C10.2468 6.10131 10.1186 5.97476 9.9913 5.84691C9.96177 5.81738 9.93224 5.78786 9.90182 5.75744C9.8051 5.6607 9.70852 5.56384 9.61193 5.46698C9.54456 5.39953 9.47717 5.3321 9.40978 5.26467C9.25109 5.10588 9.09249 4.94699 8.93393 4.78808C8.75324 4.60699 8.57245 4.42601 8.39166 4.24504C8.0201 3.87312 7.64868 3.50108 7.27733 3.12895C7.1746 3.17538 7.10175 3.22546 7.02222 3.30509C7.00027 3.32691 6.97831 3.34873 6.95569 3.3712C6.91999 3.40721 6.91999 3.40721 6.88356 3.44395C6.85803 3.46942 6.8325 3.49489 6.8062 3.52114C6.72047 3.60675 6.635 3.6926 6.54952 3.77846C6.48821 3.8398 6.42688 3.90111 6.36554 3.96241C6.2334 4.09454 6.10137 4.22677 5.96943 4.35911C5.77867 4.55044 5.58772 4.74157 5.39672 4.93266C5.08684 5.24269 4.77712 5.55288 4.4675 5.86317C4.16672 6.16459 3.86588 6.46593 3.56493 6.76717C3.54638 6.78574 3.52783 6.80431 3.50872 6.82344C3.41566 6.9166 3.3226 7.00975 3.22954 7.1029C2.45748 7.87568 1.68569 8.64872 0.914053 9.42192C0.947677 9.46136 0.981332 9.50078 1.015 9.54019C1.03374 9.56215 1.05248 9.5841 1.07178 9.60672C1.13229 9.67641 1.19541 9.74243 1.26095 9.8074C1.28406 9.8304 1.30717 9.8534 1.33098 9.87709C1.35437 9.90018 1.37775 9.92327 1.40185 9.94706C1.42605 9.97111 1.45025 9.99515 1.47518 10.0199C1.53415 10.0785 1.59322 10.1369 1.65233 10.1954C1.81569 10.0589 1.97056 9.91718 2.12037 9.766C2.15172 9.73458 2.15172 9.73458 2.18371 9.70252C2.25306 9.63298 2.32229 9.56331 2.39153 9.49364C2.44149 9.44349 2.49146 9.39335 2.54145 9.34322C2.64872 9.23559 2.75595 9.12792 2.86314 9.0202C3.03262 8.84991 3.20226 8.6798 3.37195 8.50972C3.85431 8.02617 4.33653 7.54249 4.81839 7.05843C5.08477 6.79084 5.35134 6.52343 5.61812 6.25624C5.78689 6.08717 5.95543 5.91788 6.12381 5.74843C6.22847 5.6432 6.33336 5.5382 6.43831 5.43325C6.48697 5.38451 6.53554 5.33567 6.58401 5.28674C6.65012 5.22002 6.71655 5.15364 6.78308 5.08732C6.80223 5.06784 6.82138 5.04835 6.84112 5.02828C6.98276 4.88812 7.08789 4.81803 7.28832 4.81425C7.5771 4.89746 7.79777 5.19129 8.00545 5.39995C8.03464 5.42913 8.06383 5.45832 8.0939 5.48838C8.18947 5.58398 8.28492 5.6797 8.38036 5.77542C8.44695 5.84207 8.51355 5.90872 8.58015 5.97536C8.73697 6.13228 8.8937 6.2893 9.05039 6.44635C9.22896 6.62531 9.40762 6.80416 9.58629 6.98301C9.95347 7.35056 10.3205 7.71823 10.6875 8.08598C10.8099 8.0282 10.8893 7.96288 10.985 7.86625C11.0311 7.81997 11.0311 7.81997 11.0781 7.77276C11.1113 7.73906 11.1445 7.70536 11.1778 7.67166C11.2121 7.63714 11.2464 7.60265 11.2807 7.56817C11.3709 7.47753 11.4608 7.3867 11.5507 7.29582C11.6949 7.15018 11.8392 7.00477 11.9837 6.85948C12.0341 6.80868 12.0845 6.75775 12.1348 6.70682C12.1806 6.66071 12.1806 6.66071 12.2272 6.61367C12.2541 6.58648 12.281 6.55929 12.3088 6.53127C12.4002 6.44502 12.4338 6.43451 12.5618 6.42485C12.6994 6.43418 12.7593 6.4559 12.8672 6.53911C12.9638 6.68408 12.9692 6.79134 12.9375 6.96098C12.8956 7.0249 12.8956 7.0249 12.838 7.08707C12.8155 7.11137 12.7931 7.13568 12.7699 7.16072C12.6133 7.32333 12.4551 7.48433 12.2955 7.64406C12.2575 7.6821 12.2196 7.72016 12.1817 7.75821C12.1027 7.8374 12.0237 7.91651 11.9446 7.99558C11.8433 8.09683 11.7423 8.19832 11.6414 8.29986C11.5633 8.37828 11.4852 8.45653 11.4069 8.53474C11.3696 8.57211 11.3323 8.60954 11.2951 8.64702C11.2432 8.69926 11.1911 8.75127 11.1389 8.80323C11.1094 8.83283 11.0798 8.86243 11.0494 8.89293C10.9382 8.99214 10.8603 9.02963 10.7139 9.05497C10.5752 9.03418 10.5509 9.01971 10.4525 8.93001C10.4279 8.90757 10.4032 8.88513 10.3778 8.86201C10.2468 8.73803 10.1186 8.61148 9.9913 8.48363C9.96177 8.4541 9.93224 8.42457 9.90182 8.39415C9.8051 8.29742 9.70852 8.20056 9.61193 8.1037C9.54456 8.03624 9.47717 7.96882 9.40978 7.90139C9.25109 7.7426 9.09249 7.58371 8.93393 7.4248C8.75324 7.24371 8.57245 7.06273 8.39166 6.88176C8.0201 6.50984 7.64868 6.1378 7.27733 5.76567C7.12906 5.82337 7.03066 5.93319 6.92149 6.0444C6.88931 6.07675 6.88931 6.07675 6.85647 6.10976C6.78452 6.18217 6.71283 6.25483 6.64112 6.32749C6.58962 6.37941 6.5381 6.43132 6.48657 6.48321C6.37556 6.59504 6.26465 6.70696 6.15382 6.81896C5.97855 6.99601 5.80293 7.1727 5.62723 7.34932C5.12762 7.8516 4.62824 8.35411 4.12982 8.85757C3.85458 9.13558 3.57891 9.41316 3.30274 9.69024C3.1566 9.83691 3.0107 9.9838 2.86533 10.1312C2.72861 10.2699 2.59134 10.408 2.45361 10.5456C2.40317 10.5962 2.35294 10.6471 2.30294 10.6981C2.23463 10.7678 2.16561 10.8367 2.09635 10.9055C2.06694 10.936 2.06694 10.936 2.03694 10.9672C1.89084 11.1098 1.78678 11.1412 1.58202 11.1446C1.45148 11.0877 1.36092 11.0025 1.26098 10.9024C1.23366 10.8752 1.20633 10.848 1.17818 10.8199C1.14921 10.7907 1.12024 10.7615 1.09038 10.7313C1.06028 10.7012 1.03018 10.6711 0.999169 10.6401C0.935735 10.5765 0.872386 10.5129 0.809117 10.4492C0.711958 10.3514 0.61452 10.2539 0.517035 10.1564C0.455449 10.0947 0.393879 10.0329 0.332327 9.9711C0.303069 9.9418 0.273811 9.9125 0.243666 9.88232C0.216786 9.85521 0.189906 9.82811 0.162211 9.80018C0.138462 9.7763 0.114713 9.75242 0.090244 9.72781C-0.0118484 9.61701 -0.0189887 9.51678 -0.0157891 9.37039C0.00292496 9.26472 0.0337155 9.22587 0.106345 9.14806C0.128807 9.12377 0.151269 9.09948 0.174412 9.07446C0.20989 9.03762 0.20989 9.03762 0.246085 9.00004C0.268193 8.97701 0.290302 8.95397 0.313081 8.93024C0.385046 8.85636 0.457781 8.78332 0.530752 8.71044C0.558402 8.68268 0.586053 8.65493 0.614541 8.62633C0.706565 8.53401 0.798712 8.4418 0.890862 8.3496C0.957121 8.28318 1.02337 8.21675 1.08962 8.15031C1.26907 7.97039 1.44866 7.79059 1.62827 7.61082C1.74047 7.49852 1.85265 7.3862 1.96482 7.27387C2.27564 6.96262 2.58649 6.65141 2.89746 6.34031C2.91732 6.32045 2.93717 6.30059 2.95763 6.28012C2.98748 6.25026 2.98748 6.25026 3.01794 6.21979C3.05826 6.17945 3.09858 6.13912 3.13891 6.09878C3.15891 6.07877 3.17891 6.05876 3.19952 6.03814C3.52421 5.71331 3.84867 5.38823 4.17303 5.06306C4.50635 4.7289 4.83987 4.39495 5.17358 4.06119C5.36083 3.87391 5.548 3.68654 5.73495 3.49895C5.89396 3.3394 6.05315 3.18003 6.21258 3.02089C6.29391 2.9397 6.37512 2.8584 6.45616 2.77692C6.54398 2.68866 6.63212 2.60072 6.72035 2.51286C6.75872 2.47406 6.75872 2.47406 6.79787 2.43448C6.83344 2.39926 6.83344 2.39926 6.86973 2.36333C6.89003 2.343 6.91033 2.32267 6.93125 2.30173C7.04503 2.21101 7.14371 2.18026 7.28832 2.17753C7.5771 2.26074 7.79777 2.55457 8.00545 2.76323C8.03464 2.79242 8.06383 2.8216 8.0939 2.85166C8.18947 2.94726 8.28492 3.04298 8.38036 3.1387C8.44695 3.20535 8.51355 3.272 8.58015 3.33864C8.73697 3.49557 8.8937 3.65258 9.05039 3.80963C9.22896 3.98859 9.40762 4.16744 9.58629 4.34629C9.95347 4.71384 10.3205 5.08151 10.6875 5.44926C10.8086 5.3971 10.887 5.32873 10.9798 5.23569C11.0249 5.19073 11.0249 5.19073 11.0709 5.14486C11.104 5.11158 11.137 5.0783 11.17 5.04502C11.205 5.01001 11.24 4.97502 11.275 4.94004C11.37 4.84512 11.4647 4.74999 11.5594 4.65481C11.6584 4.55536 11.7576 4.4561 11.8568 4.35682C12.0446 4.16883 12.2322 3.98066 12.4197 3.79243C12.6332 3.57812 12.8469 3.36402 13.0607 3.14993C13.5003 2.70957 13.9397 2.26895 14.3789 1.82817C14.3256 1.7166 14.2668 1.6342 14.1833 1.54252C14.082 1.43083 14.0318 1.37509 14.0142 1.22172C14.03 1.06363 14.087 0.98163 14.2031 0.878949C14.3185 0.828072 14.3185 0.828072 14.4513 0.793247C14.4756 0.78664 14.4999 0.780034 14.525 0.773227C14.6051 0.751662 14.6855 0.731192 14.7659 0.710721C14.8224 0.695746 14.8789 0.680703 14.9353 0.665596C15.0841 0.625975 15.2331 0.587277 15.3822 0.548769C15.5316 0.510033 15.6807 0.47044 15.8298 0.430913C16.0823 0.364082 16.3351 0.298006 16.5879 0.232353C16.7353 0.194035 16.8825 0.15519 17.0296 0.115639C17.0609 0.107257 17.0921 0.0988747 17.1243 0.0902383C17.1779 0.0758401 17.2314 0.0613326 17.2848 0.0466739C17.5202 -0.0163877 17.7189 -0.0631616 17.9341 0.0659606Z" fill="#077AAD"/>
<path d="M13.7461 5.44913C13.8639 5.53251 13.9099 5.5903 13.9571 5.72599C13.9571 5.87252 13.9274 5.9564 13.8516 6.08195C13.7117 6.17073 13.6402 6.1927 13.4759 6.16764C13.2895 6.08675 13.2895 6.08675 13.2188 5.97648C13.189 5.81252 13.1957 5.69698 13.2847 5.5546C13.4229 5.42456 13.563 5.4213 13.7461 5.44913Z" fill="#077AAD"/>
</g>
<defs>
<clipPath id="clip0_342_2199">
<rect width="18" height="18" fill="white"/>
</clipPath>
</defs>
</svg>
