<svg width="27" height="28" viewBox="0 0 27 28" fill="none" xmlns="http://www.w3.org/2000/svg">
<path fill-rule="evenodd" clip-rule="evenodd" d="M19.768 18.5032L22.5589 21.4505C23.2194 22.1481 23.2194 23.2792 22.5589 23.9768C21.8983 24.6744 20.8273 24.6744 20.1667 23.9768L17.3759 21.0295C17.1557 20.797 17.1557 20.4199 17.3759 20.1874L18.9707 18.5032C19.1909 18.2707 19.5479 18.2707 19.768 18.5032ZM11.9086 3.5C16.5795 3.5 20.3661 7.49884 20.3661 12.4317C20.3661 17.3645 16.5795 21.3633 11.9086 21.3633C7.2377 21.3633 3.45117 17.3645 3.45117 12.4317C3.45117 7.49884 7.2377 3.5 11.9086 3.5ZM11.9086 5.88178C8.48328 5.88178 5.70649 8.81426 5.70649 12.4317C5.70649 16.0491 8.48328 18.9816 11.9086 18.9816C15.334 18.9816 18.1108 16.0491 18.1108 12.4317C18.1108 8.81426 15.334 5.88178 11.9086 5.88178ZM13.9607 6.88422C15.5721 7.54941 16.814 8.96891 17.3109 10.7224C17.4894 11.3525 17.1505 12.0162 16.5538 12.2048C15.9843 12.3847 15.3858 12.0668 15.1773 11.4895L15.1502 11.4053C14.8527 10.3552 14.1056 9.50132 13.1396 9.10255C12.5596 8.8631 12.2731 8.1724 12.4999 7.55982C12.7266 6.94725 13.3806 6.64477 13.9607 6.88422Z" fill="#077AAD"/>
</svg>
