<svg width="85" height="81" viewBox="0 0 85 81" fill="none" xmlns="http://www.w3.org/2000/svg">
<path fill-rule="evenodd" clip-rule="evenodd" d="M52.6531 1.49463C54.5569 1.5303 56.4024 1.7296 58.1901 2.09252C57.2958 2.10786 56.4132 2.0415 55.542 1.89322C54.5347 1.82327 53.5717 1.69034 52.6531 1.49463Z" fill="#00BAA4"/>
<path fill-rule="evenodd" clip-rule="evenodd" d="M51.69 1.49459C52.0109 1.49459 52.3321 1.49459 52.653 1.49459C53.5716 1.6903 54.5346 1.82323 55.5418 1.89319C55.3774 2.22721 55.0563 2.36014 54.5789 2.29178C54.4258 2.81115 54.4258 3.30939 54.5789 3.78651C53.6997 3.88596 52.8171 3.91904 51.9307 3.88615C50.4374 3.70599 48.993 3.40705 47.5974 2.98932C48.0202 2.94906 48.4212 2.84941 48.8011 2.69037C49.122 2.49108 49.122 2.29178 48.8011 2.09248C49.6931 1.65682 50.656 1.45753 51.69 1.49459Z" fill="#7BCB59"/>
<path fill-rule="evenodd" clip-rule="evenodd" d="M51.6901 1.49473C50.6562 1.45766 49.6932 1.65695 48.8012 2.09262C49.1222 2.29191 49.1222 2.49121 48.8012 2.69051C48.4214 2.84954 48.0203 2.94919 47.5975 2.98945C48.9931 3.40718 50.4376 3.70612 51.9309 3.88629C51.9309 3.95265 51.9309 4.01922 51.9309 4.08558C48.873 3.73044 45.8238 3.33184 42.7827 2.8898C42.4861 4.72871 41.202 5.65863 38.9309 5.67996C38.9309 6.27785 38.9309 6.87574 38.9309 7.47363C38.7703 8.13788 38.61 8.80234 38.4494 9.46659C38.4886 8.99685 38.4487 8.53189 38.329 8.07152C38.2691 8.29553 38.1487 8.49482 37.9679 8.66941C37.4063 8.66941 36.8444 8.66941 36.2827 8.66941C36.1161 8.77404 35.9958 8.90697 35.9216 9.068C35.9597 8.27898 35.9999 7.4818 36.042 6.67644C36.2214 4.74067 36.5021 2.81427 36.8846 0.896835C37.0851 0.464959 37.4462 0.166014 37.9679 0C42.5923 0.32864 47.1664 0.826882 51.6901 1.49473Z" fill="#93D467"/>
<path fill-rule="evenodd" clip-rule="evenodd" d="M51.931 4.08567C52.8138 4.08567 53.6963 4.08567 54.5791 4.08567C54.4147 5.20233 54.7358 6.19882 55.5421 7.07512C55.4496 7.43246 55.1689 7.63176 54.6995 7.67301C53.2705 7.8763 51.866 8.14196 50.4865 8.4702C49.7032 6.71878 48.2587 6.22054 46.1532 6.97547C45.6154 7.30192 45.2945 7.7338 45.1902 8.2709C45.0164 8.35421 44.8961 8.48694 44.8291 8.6695C44.6686 8.40383 44.5082 8.13797 44.3476 7.87231C44.2391 8.3564 44.0383 8.38968 43.7458 7.97196C42.1133 7.60426 40.5887 7.7039 39.1717 8.2709C38.9481 8.03394 38.8679 7.76828 38.931 7.47372C38.931 6.87583 38.931 6.27794 38.931 5.68005C41.2021 5.65872 42.4862 4.7288 42.7828 2.88989C45.8239 3.33193 48.8731 3.73053 51.931 4.08567Z" fill="#D3FAC5"/>
<path fill-rule="evenodd" clip-rule="evenodd" d="M55.542 1.89331C56.4133 2.04159 57.2958 2.10795 58.1902 2.09261C58.7845 2.25543 59.4264 2.35508 60.1161 2.39155C60.3166 2.55757 60.5174 2.72378 60.7179 2.88979C60.5627 5.3527 60.2817 7.81083 59.8753 10.2638C59.541 11.2142 59.3804 12.2107 59.3939 13.2532C59.3939 13.3196 59.3939 13.3862 59.3939 13.4525C59.1531 14.3826 58.9124 15.3126 58.6716 16.2427C58.6033 15.5896 58.6834 14.9586 58.9124 14.3494C58.403 14.4056 57.8813 14.5052 57.3476 14.6483C56.8297 14.5154 56.4686 14.2497 56.2642 13.8511C56.2642 13.7182 56.2642 13.5855 56.2642 13.4525C56.4121 12.7281 56.4925 11.9973 56.505 11.2603C56.6961 10.2319 56.9369 9.20212 57.2272 8.17116C56.8654 7.6197 56.3037 7.25419 55.542 7.07502C54.7358 6.19872 54.4146 5.20223 54.5791 4.08557C53.6963 4.08557 52.8137 4.08557 51.9309 4.08557C51.9309 4.01921 51.9309 3.95264 51.9309 3.88628C52.8173 3.91916 53.6999 3.88608 54.5791 3.78663C54.4259 3.30951 54.4259 2.81127 54.5791 2.2919C55.0564 2.36026 55.3776 2.22733 55.542 1.89331Z" fill="#68C05B"/>
<path fill-rule="evenodd" clip-rule="evenodd" d="M34.5976 6.07849C32.1933 6.35871 29.7859 6.62437 27.3754 6.87568C27.4676 8.3166 26.7054 9.31308 25.0884 9.86513C25.1018 10.9971 25.2222 12.1264 25.4495 13.2532C25.6418 13.8371 25.722 14.435 25.6902 15.0468C25.6902 15.1798 25.6902 15.3125 25.6902 15.4454C25.61 15.4454 25.5296 15.4454 25.4495 15.4454C25.248 13.7122 24.967 11.9851 24.6069 10.2637C24.0772 10.7283 23.5958 10.7283 23.1624 10.2637C23.1193 10.9662 22.999 11.6307 22.8013 12.2567C22.5211 10.3686 22.2804 8.47524 22.0791 6.57674C22.0878 6.15941 22.1679 5.76082 22.3198 5.38096C26.4656 4.7458 30.6384 4.24756 34.8383 3.88623C35.0449 4.64954 34.9645 5.38036 34.5976 6.07849Z" fill="#8CCD6B"/>
<path fill-rule="evenodd" clip-rule="evenodd" d="M34.5976 6.07861C34.5976 6.61014 34.5976 7.14146 34.5976 7.67299C34.4159 8.18179 34.2553 8.71332 34.1161 9.26736C33.242 9.0856 32.3595 9.05232 31.468 9.16771C30.9952 9.45689 30.6743 9.8222 30.505 10.2638C30.272 10.6838 30.1916 11.1489 30.2643 11.6589C28.6109 11.9613 27.1262 12.5591 25.8106 13.4526C25.7184 13.3418 25.598 13.2754 25.4495 13.2533C25.2222 12.1265 25.1019 10.9973 25.0884 9.86525C26.7054 9.3132 27.4676 8.31672 27.3754 6.8758C29.7859 6.62449 32.1934 6.35882 34.5976 6.07861Z" fill="#A1F88A"/>
<path fill-rule="evenodd" clip-rule="evenodd" d="M50.4865 8.47009C50.4511 9.12618 50.2104 9.72407 49.7643 10.2638C48.3184 11.117 46.9541 11.0504 45.6717 10.0645C45.2803 9.5172 45.1197 8.91931 45.1902 8.2708C45.2945 7.73369 45.6154 7.30182 46.1532 6.97537C48.2587 6.22043 49.7031 6.71867 50.4865 8.47009Z" fill="#77C75C"/>
<path fill-rule="evenodd" clip-rule="evenodd" d="M36.0421 6.67651C35.9999 7.48187 35.9597 8.27906 35.9217 9.06807C35.9958 8.90704 36.1162 8.77411 36.2828 8.66948C36.8445 8.66948 37.4063 8.66948 37.968 8.66948C38.1488 8.4949 38.2692 8.2956 38.3291 8.07159C38.4487 8.53197 38.4887 8.99692 38.4495 9.46667C38.4495 9.66596 38.4495 9.86526 38.4495 10.0646C38.2143 10.62 38.1341 11.2179 38.2087 11.8582C38.1286 11.8582 38.0482 11.8582 37.968 11.8582C37.9995 11.7109 37.9593 11.578 37.8476 11.4596C37.3717 12.0667 36.6894 12.3989 35.8013 12.4561C35.6133 12.2112 35.4929 11.9455 35.4402 11.6589C35.3844 11.9055 35.264 12.1048 35.0791 12.2568C35.0791 11.9246 35.0791 11.5926 35.0791 11.2603C35.3434 9.69885 35.6646 8.17084 36.0421 6.67651Z" fill="#88CB6B"/>
<path fill-rule="evenodd" clip-rule="evenodd" d="M55.5419 7.07495C56.3036 7.25412 56.8653 7.61963 57.2271 8.17108C56.9368 9.20204 56.696 10.2318 56.5049 11.2602C54.5313 11.1436 52.525 11.0439 50.4864 10.9612C50.1951 10.7542 49.9543 10.5216 49.7642 10.2637C50.2103 9.724 50.451 9.12611 50.4864 8.47003C51.8658 8.14179 53.2703 7.87612 54.6993 7.67284C55.1688 7.63159 55.4495 7.43229 55.5419 7.07495Z" fill="#BEF6B1"/>
<path fill-rule="evenodd" clip-rule="evenodd" d="M38.9307 7.47363C38.8677 7.76819 38.9478 8.03386 39.1715 8.27082C40.5885 7.70382 42.1131 7.60417 43.7455 7.97187C44.038 8.3896 44.2388 8.35632 44.3474 7.87223C44.508 8.13789 44.6683 8.40375 44.8289 8.66941C44.8958 8.48686 45.0162 8.35413 45.19 8.27082C45.1194 8.91933 45.28 9.51722 45.6715 10.0645C45.1787 10.255 44.6572 10.4543 44.1066 10.6624C44.007 10.5713 43.8866 10.5047 43.7455 10.4631C42.0396 10.5779 40.3545 10.7772 38.69 11.061C38.7259 11.2706 38.6859 11.4699 38.5696 11.6589C38.45 11.1315 38.4098 10.6 38.4492 10.0645C38.4492 9.86519 38.4492 9.6659 38.4492 9.4666C38.6098 8.80234 38.7702 8.13789 38.9307 7.47363Z" fill="#CCF9BA"/>
<path fill-rule="evenodd" clip-rule="evenodd" d="M34.1162 9.26742C34.1614 10.4205 34.0011 11.55 33.6347 12.6555C33.1823 12.8231 32.7008 12.8896 32.1902 12.8548C30.7094 12.4209 30.1478 11.5573 30.5051 10.2639C30.6743 9.82226 30.9952 9.45695 31.468 9.16777C32.3595 9.05238 33.242 9.08566 34.1162 9.26742Z" fill="#6ABD51"/>
<path fill-rule="evenodd" clip-rule="evenodd" d="M38.4494 10.0645C38.4099 10.6 38.4501 11.1315 38.5697 11.6588C38.686 11.4699 38.726 11.2706 38.6901 11.0609C40.3546 10.7771 42.0398 10.5778 43.7457 10.463C43.8867 10.5047 44.0071 10.5713 44.1068 10.6623C44.6573 10.4543 45.1788 10.255 45.6716 10.0645C46.954 11.0504 48.3183 11.1169 49.7642 10.2637C49.9544 10.5216 50.1951 10.7542 50.4864 10.9613C52.525 11.044 54.5313 11.1436 56.5049 11.2602C56.4924 11.9972 56.412 12.7281 56.2642 13.4525C54.033 13.6026 51.7859 13.5693 49.5234 13.3528C46.0086 12.7514 42.3975 12.5521 38.6901 12.755C38.5697 12.8546 38.4494 12.9543 38.329 13.0539C38.2098 12.6607 38.1696 12.2621 38.2086 11.8581C38.134 11.2178 38.2142 10.6199 38.4494 10.0645Z" fill="#B8F6AB"/>
<path fill-rule="evenodd" clip-rule="evenodd" d="M21.3569 13.2533C19.6 13.6146 17.9148 14.1459 16.3014 14.8477C16.7547 15.9326 16.5139 16.8958 15.5792 17.7375C15.3509 17.8337 15.1102 17.8668 14.8569 17.8371C15.0011 18.5273 15.2419 19.1915 15.5792 19.8301C15.6593 20.0958 15.7397 20.3616 15.8199 20.6273C15.642 20.6012 15.4814 20.6345 15.3384 20.7269C14.939 21.2937 14.4575 21.792 13.894 22.2216C12.9158 19.9588 11.9127 17.7 10.8847 15.4456C10.7193 15.0334 10.7595 14.6348 11.0051 14.2498C11.552 13.8211 12.1941 13.5221 12.931 13.3529C15.6429 12.5283 18.3715 11.7644 21.1162 11.061C21.2953 11.7823 21.3755 12.5129 21.3569 13.2533Z" fill="#8FD563"/>
<path fill-rule="evenodd" clip-rule="evenodd" d="M33.6346 12.6553C33.5513 13.5952 33.3908 14.5253 33.1531 15.4454C31.1591 15.5413 29.7146 16.3385 28.8198 17.837C28.0095 17.8944 27.2069 17.9275 26.4124 17.9366C26.0258 17.142 25.785 16.3118 25.6902 15.4454C25.6902 15.3125 25.6902 15.1798 25.6902 15.0468C27.0145 14.6261 28.3788 14.2608 29.7828 13.9507C30.4607 13.347 31.2633 12.9815 32.1902 12.8546C32.7008 12.8894 33.1823 12.8229 33.6346 12.6553Z" fill="#77D86B"/>
<path fill-rule="evenodd" clip-rule="evenodd" d="M34.5975 7.67285C34.4766 8.7367 34.4364 9.79975 34.4771 10.8616C34.5573 10.7287 34.6377 10.5959 34.7179 10.463C34.7684 10.7735 34.8888 11.0392 35.079 11.2602C35.079 11.5924 35.079 11.9244 35.079 12.2567C34.7439 14.3325 34.3426 16.3921 33.8753 18.4349C33.7267 18.457 33.6064 18.5234 33.5142 18.6342C32.8704 21.2374 32.5897 21.2374 32.6716 18.6342C32.9106 17.5825 33.0712 16.5196 33.1531 15.4454C33.3907 14.5253 33.5512 13.5952 33.6345 12.6553C34.0009 11.5498 34.1613 10.4204 34.116 9.26723C34.2552 8.71318 34.4157 8.18166 34.5975 7.67285Z" fill="#00BAA2"/>
<path fill-rule="evenodd" clip-rule="evenodd" d="M30.505 10.2637C30.1478 11.5571 30.7094 12.4207 32.1902 12.8545C31.2633 12.9815 30.4607 13.347 29.7828 13.9507C28.3788 14.2608 27.0145 14.6261 25.6902 15.0468C25.722 14.435 25.6418 13.8371 25.4495 13.2531C25.598 13.2752 25.7184 13.3416 25.8106 13.4524C27.1262 12.559 28.6109 11.9611 30.2643 11.6587C30.1916 11.1487 30.272 10.6836 30.505 10.2637Z" fill="#84E573"/>
<path fill-rule="evenodd" clip-rule="evenodd" d="M37.9679 11.8582C38.0481 11.8582 38.1285 11.8582 38.2086 11.8582C38.1696 12.2621 38.2098 12.6607 38.329 13.0539C38.4494 12.9543 38.5697 12.8546 38.6901 12.755C42.3975 12.5521 46.0086 12.7514 49.5234 13.3529C51.7859 13.5693 54.033 13.6026 56.2642 13.4525C56.2642 13.5855 56.2642 13.7182 56.2642 13.8511C55.7774 15.9415 55.3761 18.0672 55.0605 20.2286C54.8445 20.4474 54.644 20.4474 54.4586 20.2286C54.1377 20.3615 53.897 20.5608 53.7364 20.8265C53.6403 20.7811 53.6004 20.7145 53.616 20.6272C53.8625 17.0128 51.9366 14.5879 47.8383 13.3529C46.1808 13.1341 44.576 13.267 43.0234 13.7515C40.8125 14.7501 39.368 16.2449 38.6901 18.2356C38.5163 18.1523 38.3959 18.0196 38.329 17.8371C38.0883 18.1027 37.8475 18.1027 37.6068 17.8371C37.5266 17.97 37.4462 18.1027 37.366 18.2356C37.2481 17.978 37.2079 17.7121 37.2457 17.4385C37.4469 15.5746 37.6877 13.7146 37.9679 11.8582Z" fill="#9DF197"/>
<path fill-rule="evenodd" clip-rule="evenodd" d="M21.3567 13.2532C21.6961 14.0912 21.8567 14.9548 21.8382 15.844C20.8446 15.8709 20.2026 16.2695 19.9122 17.0398C19.7538 17.2188 19.5935 17.4181 19.4308 17.6377C19.1171 17.395 18.8763 17.4613 18.7085 17.837C18.4083 18.1371 18.4083 18.4361 18.7085 18.7338C17.6635 19.1211 16.6204 19.4864 15.5789 19.83C15.2416 19.1914 15.0009 18.5272 14.8567 17.837C15.1099 17.8667 15.3507 17.8336 15.5789 17.7373C16.5137 16.8957 16.7544 15.9325 16.3011 14.8475C17.9146 14.1458 19.5998 13.6145 21.3567 13.2532Z" fill="#96F57D"/>
<path fill-rule="evenodd" clip-rule="evenodd" d="M53.6161 20.6272C53.5359 20.6272 53.4555 20.6272 53.3754 20.6272C53.4115 19.9444 53.1308 19.878 52.5328 20.4279C52.4526 20.3615 52.3722 20.2949 52.292 20.2286C51.9547 20.5658 51.5135 20.6987 50.968 20.6272C51.1516 20.4741 51.3924 20.3745 51.6902 20.3282C51.462 20.232 51.2212 20.1989 50.968 20.2286C51.2072 17.8005 49.9234 16.8373 47.1161 17.3388C46.1416 18.2117 45.2588 19.1416 44.468 20.1289C42.7768 20.3017 42.1749 19.6705 42.6624 18.2356C43.4824 17.9765 43.9236 17.4783 43.9865 16.7409C43.4248 16.608 42.8629 16.608 42.3013 16.7409C41.7832 17.224 41.4623 17.7886 41.3383 18.4349C40.9895 18.5688 40.6686 18.7018 40.3754 18.8335C39.6519 18.8833 39.2107 18.6177 39.0513 18.0363C38.9954 18.2828 38.8751 18.4821 38.6902 18.6342C38.6902 18.5013 38.6902 18.3685 38.6902 18.2356C39.3681 16.2448 40.8126 14.7501 43.0235 13.7514C44.5761 13.2669 46.1808 13.134 47.8383 13.3528C51.9367 14.5879 53.8626 17.0127 53.6161 20.6272Z" fill="#58BC54"/>
<path fill-rule="evenodd" clip-rule="evenodd" d="M56.264 13.8511C56.4684 14.2497 56.8295 14.5153 57.3474 14.6483C57.8811 14.5052 58.4028 14.4055 58.9122 14.3493C58.6832 14.9586 58.6031 15.5895 58.6714 16.2426C58.4882 17.7023 58.3279 19.1639 58.19 20.6272C57.8187 21.9132 57.578 23.2419 57.4677 24.6131C56.5048 24.6131 55.5418 24.6131 54.5789 24.6131C54.6939 23.1441 54.8545 21.6826 55.0603 20.2286C55.3759 18.0672 55.7773 15.9415 56.264 13.8511Z" fill="#4CB855"/>
<path fill-rule="evenodd" clip-rule="evenodd" d="M33.1531 15.4456C33.0712 16.5198 32.9107 17.5826 32.6716 18.6343C32.3038 20.4646 31.9828 22.3247 31.7086 24.2146C31.2349 24.5763 30.673 24.676 30.0235 24.5136C27.6572 22.5304 27.2561 20.3048 28.8198 17.8371C29.7146 16.3386 31.159 15.5414 33.1531 15.4456Z" fill="#57B44E"/>
<path fill-rule="evenodd" clip-rule="evenodd" d="M25.4494 15.4454C25.4932 15.8621 25.4128 16.2607 25.2087 16.6412C24.6412 16.8211 24.2801 17.1534 24.1253 17.6376C24.0452 17.5713 23.9648 17.5047 23.8846 17.4384C23.7657 17.764 23.7257 18.0962 23.7642 18.4348C23.6037 17.5047 23.4433 16.5748 23.2828 15.6447C23.1814 14.5083 23.0208 13.3789 22.8013 12.2566C22.9989 11.6306 23.1193 10.9662 23.1624 10.2637C23.5957 10.7282 24.0772 10.7282 24.6068 10.2637C24.967 11.985 25.2479 13.7121 25.4494 15.4454Z" fill="#7ABD66"/>
<path fill-rule="evenodd" clip-rule="evenodd" d="M50.9678 20.6271C50.5518 21.2463 50.0703 21.8442 49.5234 22.4208C49.0335 22.3129 48.552 22.18 48.0789 22.0222C48.4068 21.4769 48.8483 21.0119 49.403 20.6271C50.26 19.1609 49.7384 18.5299 47.8382 18.7338C47.0649 19.6874 46.1821 20.551 45.1901 21.3246C44.0116 21.8018 42.9283 21.7021 41.9401 21.0257C41.526 20.2018 41.0045 19.4712 40.3752 18.8334C40.6685 18.7017 40.9894 18.5688 41.3382 18.4348C41.4622 17.7885 41.7831 17.2239 42.3012 16.7408C42.8628 16.6079 43.4247 16.6079 43.9864 16.7408C43.9235 17.4782 43.4822 17.9765 42.6623 18.2355C42.1748 19.6705 42.7766 20.3016 44.4678 20.1289C45.2587 19.1415 46.1415 18.2116 47.116 17.3387C49.9233 16.8373 51.2071 17.8005 50.9678 20.2285C51.2211 20.1988 51.4618 20.2319 51.69 20.3282C51.3923 20.3744 51.1515 20.474 50.9678 20.6271Z" fill="#58BC54"/>
<path fill-rule="evenodd" clip-rule="evenodd" d="M21.8382 15.844C21.8382 15.9104 21.8382 15.9769 21.8382 16.0433C21.805 17.0226 21.9653 17.9528 22.3197 18.8334C22.3197 18.8998 22.3197 18.9664 22.3197 19.0327C22.3197 19.232 22.3197 19.4313 22.3197 19.6306C20.4477 19.4736 19.6453 18.61 19.9123 17.0398C20.2026 16.2695 20.8447 15.8709 21.8382 15.844Z" fill="#5CBE40"/>
<path fill-rule="evenodd" clip-rule="evenodd" d="M37.9679 11.8581C37.6877 13.7145 37.4469 15.5746 37.2457 17.4384C36.8949 18.4544 36.7343 19.5172 36.7642 20.6271C36.3547 21.9064 36.1944 23.2349 36.2827 24.6131C35.2396 24.6131 34.1962 24.6131 33.1531 24.6131C33.1531 24.3474 33.1531 24.0815 33.1531 23.8159C33.3059 22.0134 33.5467 20.2198 33.8753 18.4349C34.3426 16.3921 34.7439 14.3325 35.079 12.2567C35.2639 12.1046 35.3843 11.9053 35.4401 11.6588C35.4928 11.9454 35.6132 12.211 35.8012 12.456C36.6893 12.3988 37.3716 12.0665 37.8475 11.4595C37.9592 11.5779 37.9994 11.7108 37.9679 11.8581Z" fill="#5ABE55"/>
<path fill-rule="evenodd" clip-rule="evenodd" d="M21.8383 16.0435C22.0985 16.6667 22.2588 17.3309 22.3197 18.0364C22.3197 18.3021 22.3197 18.5679 22.3197 18.8336C21.9654 17.9529 21.805 17.0228 21.8383 16.0435Z" fill="#85C971"/>
<path fill-rule="evenodd" clip-rule="evenodd" d="M59.3937 13.4526C59.3542 13.9881 59.3944 14.5197 59.514 15.047C59.5942 14.7148 59.6746 14.3828 59.7548 14.0505C59.9401 14.2694 60.1407 14.2694 60.3566 14.0505C60.3287 14.7202 60.2485 15.3844 60.1159 16.0435C60.1159 16.3092 60.1159 16.575 60.1159 16.8407C59.8802 17.4635 59.7998 18.1277 59.8751 18.8336C59.5374 20.1366 59.2165 21.4652 58.9122 22.8196C58.7237 23.1337 58.4427 23.3993 58.0696 23.6168C58.0486 22.6227 58.0888 21.6262 58.19 20.6273C58.3279 19.1641 58.4882 17.7024 58.6714 16.2428C58.9122 15.3127 59.1529 14.3828 59.3937 13.4526Z" fill="#00BAA5"/>
<path fill-rule="evenodd" clip-rule="evenodd" d="M37.2457 17.4385C37.2079 17.7121 37.2481 17.978 37.3661 18.2357C37.4462 18.1027 37.5267 17.97 37.6068 17.8371C37.8476 18.1027 38.0883 18.1027 38.329 17.8371C38.396 18.0196 38.5163 18.1524 38.6902 18.2357C38.6902 18.3686 38.6902 18.5013 38.6902 18.6343C38.6902 19.2321 38.6902 19.83 38.6902 20.4279C38.7443 20.8696 38.5438 21.2018 38.0883 21.4244C37.687 21.1587 37.2859 21.1587 36.8846 21.4244C36.7666 21.1667 36.7264 20.9009 36.7642 20.6272C36.7344 19.5173 36.8949 18.4545 37.2457 17.4385Z" fill="#80D781"/>
<path fill-rule="evenodd" clip-rule="evenodd" d="M19.9124 17.0398C19.6454 18.6101 20.4478 19.4736 22.3198 19.6307C22.3596 20.3645 22.3196 21.0951 22.1995 21.8229C22.1193 21.7565 22.0389 21.69 21.9587 21.6236C20.503 22.1946 19.0183 22.7259 17.505 23.218C17.2782 23.1965 17.0777 23.1301 16.9032 23.0187C16.6853 22.1543 16.3242 21.3572 15.8198 20.6271C15.7397 20.3615 15.6593 20.0956 15.5791 19.8299C16.6205 19.4864 17.6637 19.1211 18.7087 18.7338C18.4085 18.4361 18.4085 18.1371 18.7087 17.837C18.8765 17.4613 19.1173 17.3949 19.4309 17.6377C19.5937 17.4181 19.754 17.2188 19.9124 17.0398Z" fill="#72D762"/>
<path fill-rule="evenodd" clip-rule="evenodd" d="M33.8754 18.4351C33.5468 20.22 33.3061 22.0136 33.1532 23.8161C32.9242 24.0989 32.8441 24.4309 32.9124 24.8126C32.5111 24.8126 32.1101 24.8126 31.7087 24.8126C31.7087 24.6133 31.7087 24.414 31.7087 24.2147C31.9829 22.3247 32.3039 20.4647 32.6717 18.6344C32.5899 21.2376 32.8706 21.2376 33.5143 18.6344C33.6065 18.5235 33.7269 18.4572 33.8754 18.4351Z" fill="#00BAA2"/>
<path fill-rule="evenodd" clip-rule="evenodd" d="M25.4494 15.4456C25.5295 15.4456 25.6099 15.4456 25.6901 15.4456C25.7849 16.3119 26.0257 17.1422 26.4123 17.9368C27.2068 17.9276 28.0094 17.8945 28.8197 17.8371C27.2561 20.3048 27.6572 22.5304 30.0234 24.5136C30.6729 24.676 31.2348 24.5763 31.7086 24.2146C31.7086 24.4139 31.7086 24.6132 31.7086 24.8125C29.3012 24.8125 26.8938 24.8125 24.4864 24.8125C24.4864 24.7461 24.4864 24.6796 24.4864 24.6132C25.2888 24.6132 26.0914 24.6132 26.8938 24.6132C26.8936 22.8474 26.6126 21.1203 26.0512 19.4315C25.4169 19.6254 24.9354 19.9576 24.6068 20.428C24.5266 20.3616 24.4462 20.295 24.366 20.2287C24.2461 20.823 24.2059 21.4209 24.2457 22.0223C24.0254 20.8602 23.8648 19.6645 23.7642 18.435C23.7257 18.0964 23.7656 17.7642 23.8845 17.4385C23.9647 17.5049 24.0451 17.5715 24.1253 17.6378C24.2801 17.1535 24.6412 16.8213 25.2086 16.6413C25.4128 16.2609 25.4932 15.8623 25.4494 15.4456Z" fill="#5FBB5B"/>
<path fill-rule="evenodd" clip-rule="evenodd" d="M24.4865 24.6131C24.318 23.7565 24.2378 22.893 24.2458 22.0223C24.206 21.4208 24.2462 20.8229 24.3661 20.2286C24.4463 20.2949 24.5267 20.3615 24.6069 20.4279C24.9355 19.9575 25.417 19.6253 26.0513 19.4314C26.6127 21.1202 26.8937 22.8473 26.8939 24.6131C26.0915 24.6131 25.2889 24.6131 24.4865 24.6131Z" fill="#4AAE49"/>
<path fill-rule="evenodd" clip-rule="evenodd" d="M40.3754 18.8336C41.0047 19.4713 41.5261 20.2019 41.9402 21.0258C42.9284 21.7022 44.0118 21.8019 45.1902 21.3248C46.1823 20.5511 47.0651 19.6875 47.8383 18.7339C49.7385 18.53 50.2602 19.161 49.4031 20.6272C48.8485 21.0121 48.407 21.477 48.0791 22.0223C48.5521 22.1802 49.0336 22.3131 49.5235 22.4209C50.0705 21.8443 50.552 21.2464 50.968 20.6272C51.5135 20.6988 51.9547 20.5659 52.292 20.2286C52.3722 20.295 52.4526 20.3616 52.5328 20.4279C53.1308 19.8781 53.4115 19.9444 53.3754 20.6272C52.8416 22.2098 51.7985 23.5053 50.2457 24.5135C47.5174 24.6465 44.7889 24.6465 42.0606 24.5135C40.3053 23.4951 39.182 22.1333 38.6902 20.4279C38.6902 19.83 38.6902 19.2322 38.6902 18.6343C38.8751 18.4822 38.9954 18.2829 39.0513 18.0364C39.2107 18.6177 39.6519 18.8834 40.3754 18.8336Z" fill="#58BC54"/>
<path fill-rule="evenodd" clip-rule="evenodd" d="M23.2828 15.6448C23.4434 16.5749 23.6037 17.5048 23.7643 18.4349C23.8649 19.6644 24.0255 20.8602 24.2457 22.0223C24.2378 22.893 24.318 23.7565 24.4865 24.6131C24.4865 24.6795 24.4865 24.7461 24.4865 24.8124C24.005 24.8124 23.5235 24.8124 23.042 24.8124C22.7707 22.8623 22.53 20.9357 22.3198 19.0328C22.3198 18.9665 22.3198 18.8999 22.3198 18.8335C22.3198 18.5679 22.3198 18.302 22.3198 18.0363C22.6441 18.1701 22.925 18.1701 23.1624 18.0363C23.2825 17.2419 23.3227 16.4448 23.2828 15.6448Z" fill="#00BAA2"/>
<path fill-rule="evenodd" clip-rule="evenodd" d="M22.3197 19.0327C22.5299 20.9356 22.7706 22.8622 23.0419 24.8123C20.5638 24.8825 18.1161 25.1481 15.6994 25.6095C15.4054 25.4556 15.1647 25.2564 14.9771 25.0116C14.6861 24.0564 14.325 23.1263 13.8938 22.2215C14.4574 21.7918 14.9389 21.2935 15.3382 20.7267C15.4812 20.6343 15.6418 20.601 15.8197 20.6271C16.3241 21.3571 16.6852 22.1543 16.9031 23.0186C17.0776 23.1301 17.2781 23.1964 17.5049 23.2179C19.0182 22.7259 20.5028 22.1946 21.9586 21.6236C22.0388 21.6899 22.1192 21.7565 22.1993 21.8229C22.3195 21.095 22.3594 20.3644 22.3197 19.6306C22.3197 19.4313 22.3197 19.232 22.3197 19.0327Z" fill="#69C257"/>
<path fill-rule="evenodd" clip-rule="evenodd" d="M58.19 20.6272C58.0889 21.6261 58.0487 22.6226 58.0696 23.6166C58.4428 23.3992 58.7237 23.1336 58.9122 22.8195C58.9122 23.0851 58.9122 23.351 58.9122 23.6166C58.6809 23.9684 58.6005 24.367 58.6715 24.8124C58.2702 24.8124 57.8691 24.8124 57.4678 24.8124C57.4678 24.7461 57.4678 24.6795 57.4678 24.6131C57.578 23.242 57.8188 21.9133 58.19 20.6272Z" fill="#00BAA5"/>
<path fill-rule="evenodd" clip-rule="evenodd" d="M55.0604 20.2285C54.8546 21.6826 54.694 23.144 54.5789 24.613C55.5419 24.613 56.5048 24.613 57.4678 24.613C57.4678 24.6794 57.4678 24.746 57.4678 24.8123C49.2826 24.8123 41.0974 24.8123 32.9123 24.8123C32.8439 24.4307 32.9241 24.0987 33.153 23.8159C33.153 24.0815 33.153 24.3474 33.153 24.613C34.1961 24.613 35.2395 24.613 36.2826 24.613C36.1943 23.2349 36.3546 21.9064 36.7641 20.6271C36.7263 20.9007 36.7665 21.1666 36.8845 21.4243C37.2858 21.1586 37.6869 21.1586 38.0882 21.4243C38.5437 21.2017 38.7442 20.8695 38.69 20.4278C39.1819 22.1332 40.3052 23.495 42.0604 24.5134C44.7887 24.6463 47.5173 24.6463 50.2456 24.5134C51.7984 23.5052 52.8415 22.2097 53.3752 20.6271C53.4554 20.6271 53.5358 20.6271 53.616 20.6271C53.6003 20.7144 53.6403 20.781 53.7363 20.8264C53.8969 20.5607 54.1376 20.3614 54.4585 20.2285C54.6439 20.4473 54.8445 20.4473 55.0604 20.2285Z" fill="#5EC06D"/>
<path fill-rule="evenodd" clip-rule="evenodd" d="M33.0107 22.8053C35.6588 22.8053 38.307 22.8053 40.9551 22.8053C40.3644 23.0288 39.7223 23.1948 39.0292 23.3036C39.3114 23.3871 39.5521 23.5198 39.7514 23.7022C39.1094 23.9678 38.6279 24.3664 38.307 24.898C36.2022 25.1921 34.3564 25.9227 32.77 27.0902C33.14 27.3114 33.3003 27.6104 33.2514 27.9871C32.4062 28.0666 31.6038 28.1995 30.844 28.3856C29.5602 28.3856 28.2761 28.3856 26.9922 28.3856C27.4388 28.0801 27.88 27.7479 28.3163 27.3892C28.8536 26.3 29.5758 25.3035 30.4829 24.3997C30.6276 23.1262 31.4702 22.5947 33.0107 22.8053Z" fill="#3CAD81"/>
<path fill-rule="evenodd" clip-rule="evenodd" d="M50.5846 22.8055C51.5174 22.7228 52.4002 22.8224 53.2327 23.1044C51.9785 24.2723 50.4539 25.1359 48.6587 25.6953C48.395 26.4221 47.9136 27.02 47.2142 27.489C44.9226 27.9164 42.5956 28.149 40.2327 28.1865C39.9658 28.029 39.6448 27.9294 39.2698 27.8875C39.5907 27.8212 39.9118 27.7546 40.2327 27.6882C40.759 26.3376 41.8823 25.5404 43.6031 25.2967C44.4358 24.4572 45.3988 23.7597 46.492 23.2041C47.8878 23.0793 49.2518 22.9464 50.5846 22.8055Z" fill="#34A58C"/>
<path fill-rule="evenodd" clip-rule="evenodd" d="M33.0105 22.8055C33.0105 22.7391 33.0105 22.6726 33.0105 22.6062C41.3562 22.6062 49.7018 22.6062 58.0475 22.6062C58.3891 22.7957 58.7902 22.8621 59.2512 22.8055C59.3518 22.9494 59.5122 23.049 59.7327 23.1044C59.6525 23.3037 59.5721 23.503 59.492 23.7023C57.4425 24.1527 55.6769 25.0163 54.1957 26.2932C54.3562 26.3596 54.5166 26.4261 54.6771 26.4925C53.9491 26.794 53.3071 27.1926 52.7512 27.6883C51.4117 27.7379 50.1276 27.9039 48.8994 28.1865C48.6606 28.1522 48.5002 28.2188 48.4179 28.3858C45.1277 28.3858 41.8377 28.3858 38.5475 28.3858C39.0548 28.1929 39.6167 28.1263 40.2327 28.1865C42.5956 28.149 44.9226 27.9165 47.2142 27.489C47.9135 27.02 48.395 26.4221 48.6586 25.6953C50.4538 25.1359 51.9784 24.2723 53.2327 23.1044C52.4002 22.8224 51.5174 22.7228 50.5846 22.8055C47.3748 22.8055 44.1647 22.8055 40.9549 22.8055C38.3068 22.8055 35.6586 22.8055 33.0105 22.8055Z" fill="#38A694"/>
<path fill-rule="evenodd" clip-rule="evenodd" d="M58.0476 22.6062C63.3439 22.6062 68.6402 22.6062 73.9365 22.6062C73.3421 22.769 72.7003 22.8687 72.0105 22.9051C72.2051 22.9665 72.3656 23.0662 72.492 23.2041C72.2173 23.3884 72.2173 23.5547 72.492 23.7023C72.2361 23.9391 71.915 24.0387 71.5291 24.0013C71.3784 24.5623 71.0572 25.0605 70.5661 25.496C69.9459 25.6519 69.4645 25.9508 69.1217 26.3928C67.6632 26.3759 66.6201 26.9074 65.992 27.9872C66.4191 28.1241 66.8204 28.2901 67.1957 28.4855C66.8845 28.5831 66.5633 28.6164 66.2328 28.5851C60.3007 28.3934 54.3623 28.327 48.418 28.3858C48.5003 28.2188 48.6606 28.1522 48.8994 28.1865C51.629 28.2198 54.3575 28.1865 57.0846 28.0869C57.0045 28.0205 56.9241 27.9539 56.8439 27.8876C57.0846 27.8212 57.3254 27.7546 57.5661 27.6883C57.887 27.5553 57.887 27.4226 57.5661 27.2897C60.2903 26.7105 62.9385 26.1126 65.5105 25.496C65.0498 25.2144 64.7289 24.8489 64.5476 24.3999C64.9874 24.0039 65.2282 23.5387 65.2698 23.0048C63.2688 22.8573 61.2624 22.7909 59.2513 22.8055C58.7903 22.8621 58.3892 22.7957 58.0476 22.6062Z" fill="#329D9F"/>
<path fill-rule="evenodd" clip-rule="evenodd" d="M40.9551 22.8054C44.1649 22.8054 47.3749 22.8054 50.5847 22.8054C49.252 22.9463 47.8879 23.0793 46.4921 23.204C45.3989 23.7597 44.436 24.4572 43.6032 25.2966C41.8824 25.5404 40.7591 26.3376 40.2329 27.6882C39.912 27.7546 39.5908 27.8211 39.2699 27.8875C39.645 27.9293 39.9659 28.029 40.2329 28.1864C39.6168 28.1262 39.0549 28.1928 38.5477 28.3857C35.9797 28.3857 33.412 28.3857 30.844 28.3857C31.6038 28.1996 32.4062 28.0667 33.2514 27.9871C33.3003 27.6105 33.1399 27.3115 32.7699 27.0903C34.3564 25.9228 36.2022 25.1922 38.3069 24.898C38.6279 24.3665 39.1093 23.9679 39.7514 23.7023C39.5521 23.5199 39.3113 23.3872 39.0292 23.3037C39.7223 23.1948 40.3643 23.0288 40.9551 22.8054Z" fill="#37A986"/>
<path fill-rule="evenodd" clip-rule="evenodd" d="M73.9366 22.606C77.2694 22.5404 80.5594 22.6068 83.807 22.8053C81.719 22.7722 79.6325 22.8053 77.5477 22.9049C77.949 22.9713 78.3501 23.0379 78.7514 23.1042C78.0415 24.2201 76.9182 24.8843 75.3811 25.0972C74.752 25.5203 74.1904 25.9853 73.6959 26.4923C71.7396 26.4375 70.2952 27.1017 69.3626 28.4852C68.7761 28.4747 68.2145 28.5078 67.6774 28.5849C67.856 28.7417 68.0565 28.8745 68.2792 28.9835C68.6158 28.8737 68.9369 28.8073 69.2422 28.7842C69.3079 29.1033 69.4283 29.4022 69.6033 29.681C69.5484 29.7605 69.468 29.7936 69.3626 29.7807C68.3303 29.3195 67.2869 28.9209 66.2329 28.5849C66.5635 28.6162 66.8846 28.5829 67.1959 28.4852C66.8206 28.2899 66.4193 28.1239 65.9922 27.987C66.6203 26.9072 67.6634 26.3757 69.1218 26.3926C69.4646 25.9506 69.9461 25.6516 70.5663 25.4958C71.0574 25.0603 71.3785 24.5621 71.5292 24.0011C71.9151 24.0385 72.2363 23.9389 72.4922 23.7021C72.2175 23.5544 72.2175 23.3882 72.4922 23.2039C72.3658 23.066 72.2052 22.9663 72.0107 22.9049C72.7004 22.8685 73.3422 22.7688 73.9366 22.606Z" fill="#3199A6"/>
<path fill-rule="evenodd" clip-rule="evenodd" d="M59.2513 22.8054C61.2624 22.7909 63.2687 22.8572 65.2698 23.0047C65.2281 23.5386 64.9874 24.0038 64.5475 24.3998C64.7288 24.8488 65.0497 25.2143 65.5105 25.4959C62.9384 26.1126 60.2903 26.7104 57.5661 27.2896C57.887 27.4225 57.887 27.5553 57.5661 27.6882C57.3253 27.7546 57.0846 27.8211 56.8439 27.8875C56.924 27.9539 57.0044 28.0204 57.0846 28.0868C54.3575 28.1864 51.6289 28.2197 48.8994 28.1864C50.1277 27.9038 51.4118 27.7378 52.7513 27.6882C53.3071 27.1925 53.9492 26.794 54.6772 26.4924C54.5166 26.4261 54.3563 26.3595 54.1957 26.2931C55.677 25.0162 57.4426 24.1527 59.492 23.7023C59.5722 23.503 59.6526 23.3037 59.7327 23.1044C59.5122 23.049 59.3519 22.9493 59.2513 22.8054Z" fill="#31A298"/>
<path fill-rule="evenodd" clip-rule="evenodd" d="M82.3624 24.5991C82.1279 25.5087 82.1279 26.4055 82.3624 27.2896C81.8142 27.3311 81.2928 27.4973 80.7976 27.7879C80.385 27.5039 80.064 27.5702 79.8346 27.9872C79.6618 27.7976 79.4612 27.7645 79.2328 27.8875C77.746 28.9525 76.3015 30.0487 74.8994 31.1759C75.7524 31.5699 76.6349 31.7028 77.5476 31.5745C77.7934 31.6745 77.8336 31.8073 77.668 31.9731C77.0115 32.617 76.249 33.1483 75.3809 33.5675C74.683 35.0875 73.3989 36.1173 71.5291 36.6566C71.6897 36.7229 71.85 36.7895 72.0106 36.8559C71.3685 36.9888 70.7267 37.1215 70.0846 37.2544C69.9508 37.3308 69.8706 37.4304 69.8439 37.5534C69.2822 37.5534 68.7204 37.5534 68.1587 37.5534C68.132 37.4304 68.0518 37.3308 67.918 37.2544C69.3013 36.0467 70.9063 35.0502 72.7328 34.265C73.5031 33.472 74.3055 32.6748 75.1402 31.8734C74.5376 31.6303 73.8958 31.5639 73.2143 31.6741C72.747 31.3122 72.5864 30.9136 72.7328 30.4784C72.1548 30.3179 72.195 30.1519 72.8531 29.9801C72.9892 29.0237 73.5511 28.2931 74.5383 27.7879C74.6185 27.9208 74.6989 28.0535 74.7791 28.1865C75.2177 27.3885 75.9801 26.9566 77.0661 26.891C77.239 26.495 77.4797 26.1295 77.7883 25.7949C78.8895 25.3132 80.0128 24.8813 81.1587 24.4995C81.5836 24.3719 81.9849 24.4052 82.3624 24.5991Z" fill="#2C92B1"/>
<path fill-rule="evenodd" clip-rule="evenodd" d="M18.8069 22.8054C23.4996 22.6067 28.2343 22.5403 33.0106 22.6061C33.0106 22.6725 33.0106 22.739 33.0106 22.8054C31.4701 22.5947 30.6275 23.1263 30.4828 24.3998C29.5757 25.3036 28.8535 26.3001 28.3161 27.3892C27.8799 27.7479 27.4386 28.0802 26.9921 28.3857C23.698 28.989 21.13 30.4506 19.2884 32.7702C18.6718 32.3364 18.6718 31.9045 19.2884 31.4748C19.1783 31.3923 19.0979 31.2926 19.0476 31.1758C19.4179 30.7601 19.9795 30.3615 20.7328 29.9801C20.4172 29.829 20.2968 29.6297 20.3717 29.3822C22.3138 28.3624 23.4773 26.9009 23.8624 24.9977C24.193 25.0289 24.5141 24.9957 24.8254 24.898C24.6997 24.7862 24.6196 24.6533 24.5847 24.4994C24.9275 24.0207 25.088 23.5557 25.0661 23.1043C22.9924 22.8458 20.9059 22.7462 18.8069 22.8054Z" fill="#58BB82"/>
<path fill-rule="evenodd" clip-rule="evenodd" d="M18.5661 23.0047C18.5661 22.8717 18.6462 22.8054 18.8068 22.8054C20.9058 22.7462 22.9923 22.8458 25.0661 23.1043C25.088 23.5557 24.9274 24.0207 24.5846 24.4994C24.6195 24.6532 24.6997 24.7862 24.8253 24.898C24.514 24.9956 24.1929 25.0289 23.8624 24.9976C23.2124 24.9436 22.5703 24.8772 21.9364 24.7983C21.7905 26.0509 21.2289 27.147 20.2513 28.0867C20.3314 28.1531 20.4118 28.2197 20.492 28.286C18.4329 29.9246 16.3866 31.5523 14.3531 33.1688C13.1708 34.8124 11.646 36.2075 9.77904 37.354C8.27153 39.1672 6.62655 40.8943 4.84386 42.5357C3.15844 43.699 1.67379 45.0277 0.390163 46.5217C0.29796 46.4109 0.17759 46.3445 0.0290527 46.3224C0.0290527 45.1266 0.0290527 43.9308 0.0290527 42.735C0.185775 42.8528 0.346349 42.9855 0.510534 43.1336C0.845644 42.9134 1.12659 42.6475 1.35313 42.3364C1.70413 42.585 2.06524 42.585 2.43646 42.3364C3.06864 41.8735 3.7107 41.4083 4.36238 40.9414C8.90877 36.4781 13.6032 32.0936 18.4457 27.7878C19.3398 26.6869 19.7009 25.4911 19.529 24.2004C19.7741 23.931 20.095 23.7317 20.492 23.6025C20.2173 23.4182 20.2173 23.252 20.492 23.1043C19.855 23.0053 19.2129 22.972 18.5661 23.0047Z" fill="#66C37F"/>
<path fill-rule="evenodd" clip-rule="evenodd" d="M15.1958 23.4033C15.6048 23.3714 16.0061 23.4045 16.3995 23.503C16.1713 23.5992 15.9305 23.6323 15.6773 23.6026C15.5829 24.13 15.5829 24.6282 15.6773 25.0974C15.2759 25.5623 14.8749 26.0275 14.4735 26.4924C14.5537 26.5588 14.6341 26.6254 14.7143 26.6917C13.266 28.4916 11.6208 30.1856 9.77911 31.7738C8.68543 33.3773 7.28119 34.7724 5.56615 35.959C5.20504 36.424 4.84393 36.8891 4.48282 37.3541C4.16528 37.7501 3.724 37.9827 3.15875 38.0516C2.42714 38.7902 1.62475 39.4878 0.751341 40.1443C0.610267 40.1026 0.489897 40.036 0.39023 39.945C0.270101 39.0172 0.229897 38.0873 0.26986 37.1548C0.198841 36.7094 0.279249 36.3108 0.5106 35.959C0.472082 36.2976 0.512045 36.6299 0.630971 36.9555C2.46854 34.9362 4.43443 33.0098 6.52911 31.1759C7.07824 30.7667 7.68009 30.4345 8.33467 30.1794C9.54366 28.4457 10.9079 26.785 12.4273 25.197C12.5462 24.8714 12.5861 24.5391 12.5476 24.2005C12.3069 24.2005 12.0661 24.2005 11.8254 24.2005C12.8784 23.8117 14.0017 23.546 15.1958 23.4033Z" fill="#7DCD79"/>
<path fill-rule="evenodd" clip-rule="evenodd" d="M84.2884 23.0048C84.437 23.0269 84.5573 23.0933 84.6495 23.2041C84.7699 24.93 84.8099 26.6573 84.7699 28.3858C84.6897 28.3858 84.6093 28.3858 84.5292 28.3858C84.565 28.1762 84.5251 27.9769 84.4088 27.7879C84.3286 28.1201 84.2482 28.4522 84.1681 28.7844C84.078 28.6018 83.9576 28.4356 83.8069 28.2862C83.2831 28.2537 82.8418 28.0877 82.4829 27.7879C82.3625 27.9872 82.2421 28.1865 82.1218 28.3858C81.081 29.0164 80.0377 29.6474 78.9921 30.2791C77.8385 30.6016 76.7152 30.8675 75.6218 31.0763C76.4586 31.3262 77.3411 31.4592 78.2699 31.4749C77.9969 31.6774 78.0771 31.8103 78.5107 31.8735C77.6815 32.4935 77.1599 33.2574 76.9458 34.1654C75.4997 34.6007 74.7373 35.4642 74.6588 36.7563C73.8612 36.8649 73.0588 36.9645 72.2514 37.0552C72.3316 37.1216 72.412 37.1881 72.4921 37.2545C72.0391 37.294 71.638 37.3936 71.2884 37.5535C70.807 37.5535 70.3255 37.5535 69.844 37.5535C69.8707 37.4305 69.9509 37.3308 70.0847 37.2545C70.7268 37.1216 71.3686 36.9889 72.0107 36.8559C71.8501 36.7896 71.6898 36.723 71.5292 36.6566C73.399 36.1173 74.6831 35.0876 75.381 33.5675C76.2491 33.1484 77.0116 32.6171 77.6681 31.9732C77.8337 31.8073 77.7935 31.6746 77.5477 31.5746C76.635 31.7029 75.7525 31.57 74.8995 31.176C76.3016 30.0487 77.7461 28.9526 79.2329 27.8876C79.4613 27.7646 79.6619 27.7977 79.8347 27.9872C80.0642 27.5703 80.3851 27.5039 80.7977 27.7879C81.2929 27.4973 81.8143 27.3311 82.3625 27.2897C82.128 26.4056 82.128 25.5088 82.3625 24.5992C82.2778 23.4287 82.9198 22.8972 84.2884 23.0048Z" fill="#2C8FB4"/>
<path fill-rule="evenodd" clip-rule="evenodd" d="M18.5663 23.0047C19.2131 22.9721 19.8552 23.0053 20.4922 23.1044C20.2175 23.2521 20.2175 23.4183 20.4922 23.6026C20.0952 23.7318 19.7743 23.9311 19.5292 24.2005C19.7011 25.4912 19.34 26.6869 18.4459 27.7879C13.6034 32.0937 8.90896 36.4782 4.36258 40.9414C3.71089 41.4084 3.06884 41.8736 2.43665 42.3365C2.06543 42.585 1.70432 42.585 1.35332 42.3365C1.12678 42.6476 0.845841 42.9135 0.51073 43.1337C0.346545 42.9856 0.185971 42.8529 0.0292488 42.7351C-0.0494734 40.8388 0.0306932 38.9788 0.269989 37.1548C0.230026 38.0873 0.27023 39.0172 0.39036 39.945C0.490026 40.036 0.610396 40.1026 0.75147 40.1443C1.62488 39.4878 2.42726 38.7902 3.15888 38.0516C3.72413 37.9827 4.16541 37.7501 4.48295 37.3541C4.84406 36.8891 5.20517 36.424 5.56628 35.959C7.28132 34.7724 8.68556 33.3773 9.77924 31.7738C11.6209 30.1856 13.2661 28.4916 14.7144 26.6917C14.6343 26.6254 14.5538 26.5588 14.4737 26.4924C14.875 26.0275 15.2761 25.5623 15.6774 25.0974C15.583 24.6282 15.583 24.13 15.6774 23.6026C15.9306 23.6323 16.1714 23.5992 16.3996 23.503C16.0062 23.4045 15.6049 23.3714 15.1959 23.4033C16.2506 23.0623 17.3739 22.9296 18.5663 23.0047Z" fill="#71C77D"/>
<path fill-rule="evenodd" clip-rule="evenodd" d="M26.9921 28.3857C28.276 28.3857 29.5601 28.3857 30.8439 28.3857C33.4119 28.3857 35.9797 28.3857 38.5476 28.3857C41.8378 28.3857 45.1278 28.3857 48.418 28.3857C54.3624 28.3269 60.3007 28.3933 66.2328 28.585C67.2868 28.921 68.3301 29.3196 69.3624 29.7808C70.2284 30.2304 71.031 30.7619 71.7698 31.3752C68.7204 31.5081 65.6712 31.6408 62.6217 31.7737C57.122 32.6728 53.9119 35.3964 52.9921 39.9449C52.7545 40.9025 52.6741 41.899 52.7513 42.9344C52.6777 43.5093 52.7578 44.0409 52.9921 44.5287C53.2056 45.3098 53.5268 46.0404 53.955 46.721C54.2918 47.7442 54.9336 48.6077 55.881 49.3119C56.8172 50.4847 58.1013 51.2819 59.7328 51.7034C59.7328 51.7698 59.7328 51.8363 59.7328 51.9027C59.6647 52.06 59.5443 52.1929 59.3717 52.3013C59.33 53.1067 59.2097 53.9038 59.0106 54.6929C58.8695 54.6512 58.7491 54.5846 58.6495 54.4936C58.6093 54.7261 58.5693 54.9585 58.5291 55.1911C58.819 55.7884 59.0195 56.4196 59.131 57.0844C59.0433 58.7948 59.0835 60.4555 59.2513 62.0668C58.8105 62.1768 58.4095 62.1768 58.0476 62.0668C57.8343 62.2313 57.7542 62.4306 57.8069 62.6647C50.4265 62.8696 40.1548 62.936 26.9921 62.864C25.7824 62.8238 24.6588 62.5579 23.6217 62.0668C23.1807 61.9178 22.7794 61.7185 22.418 61.4689C21.3715 60.8017 20.4887 60.0045 19.7699 59.0774C19.5291 58.6788 19.2884 58.2802 19.0477 57.8816C18.6531 56.913 18.4123 55.9165 18.3254 54.8922C18.3254 48.714 18.3254 42.5358 18.3254 36.3576C18.338 35.6206 18.4184 34.8897 18.5662 34.1653C18.8637 33.737 19.1045 33.2721 19.2884 32.7702C21.1301 30.4506 23.698 28.989 26.9921 28.3857Z" fill="#FBFDFB"/>
<path fill-rule="evenodd" clip-rule="evenodd" d="M11.8256 24.2004C12.0663 24.2004 12.307 24.2004 12.5478 24.2004C12.5863 24.539 12.5463 24.8713 12.4274 25.1969C10.9081 26.7849 9.54382 28.4457 8.33482 30.1793C7.68025 30.4344 7.0784 30.7667 6.52927 31.1758C4.43458 33.0098 2.4687 34.9362 0.631124 36.9554C0.512198 36.6298 0.472235 36.2975 0.510754 35.9589C1.58085 30.2724 5.35229 26.3528 11.8256 24.2004Z" fill="#88D176"/>
<path fill-rule="evenodd" clip-rule="evenodd" d="M84.5291 28.3857C84.6215 29.3497 84.4609 30.2796 84.0476 31.1759C83.0574 31.5711 82.0143 31.87 80.918 32.0727C79.6411 33.6599 78.1966 35.1214 76.5846 36.4572C75.6301 37.0531 74.587 37.4187 73.455 37.5534C72.7328 37.5534 72.0106 37.5534 71.2883 37.5534C71.6379 37.3935 72.039 37.2939 72.492 37.2544C72.4119 37.1881 72.3315 37.1215 72.2513 37.0551C73.0587 36.9645 73.8611 36.8648 74.6587 36.7562C74.7372 35.4642 75.4996 34.6006 76.9457 34.1653C77.1598 33.2573 77.6814 32.4934 78.5105 31.8734C78.077 31.8102 77.9968 31.6773 78.2698 31.4748C77.341 31.4591 76.4585 31.3262 75.6217 31.0762C76.7151 30.8674 77.8384 30.6015 78.992 30.2791C80.0376 29.6473 81.0809 29.0163 82.1217 28.3857C82.242 28.1864 82.3624 27.9871 82.4828 27.7878C82.8417 28.0876 83.283 28.2536 83.8068 28.2861C83.9575 28.4356 84.0779 28.6018 84.1679 28.7843C84.2481 28.4521 84.3285 28.1201 84.4087 27.7878C84.525 27.9768 84.5649 28.1761 84.5291 28.3857Z" fill="#2A8CB9"/>
<path fill-rule="evenodd" clip-rule="evenodd" d="M83.8068 22.8054C84.0456 22.7711 84.206 22.8377 84.2883 23.0047C82.9197 22.897 82.2776 23.4286 82.3624 24.599C81.9849 24.4051 81.5836 24.3718 81.1587 24.4994C80.0128 24.8812 78.8895 25.3131 77.7883 25.7948C77.4797 26.1294 77.2389 26.4949 77.0661 26.891C75.9801 26.9565 75.2177 27.3884 74.7791 28.1864C74.6989 28.0534 74.6185 27.9207 74.5383 27.7878C73.551 28.293 72.9892 29.0236 72.8531 29.98C72.195 30.1518 72.1547 30.3179 72.7328 30.4783C72.5864 30.9136 72.747 31.3121 73.2142 31.6741C73.8958 31.5639 74.5376 31.6302 75.1402 31.8734C74.3055 32.6747 73.5031 33.4719 72.7328 34.2649C70.9063 35.0502 69.3013 36.0466 67.918 37.2544C68.0518 37.3307 68.132 37.4304 68.1587 37.5533C67.0352 37.5533 65.9119 37.5533 64.7883 37.5533C65.9672 36.3705 67.4921 35.3407 69.3624 34.4642C70.3095 33.7663 71.1119 33.0024 71.7698 32.1723C71.7799 31.9025 71.7799 31.6366 71.7698 31.3751C71.031 30.7619 70.2283 30.2304 69.3624 29.7808C69.4678 29.7937 69.5483 29.7606 69.6031 29.6811C69.4281 29.4023 69.3078 29.1033 69.242 28.7843C68.9368 28.8074 68.6156 28.8738 68.2791 28.9836C68.0564 28.8746 67.8558 28.7418 67.6772 28.585C68.2143 28.5078 68.776 28.4748 69.3624 28.4853C70.295 27.1018 71.7395 26.4376 73.6957 26.4924C74.1902 25.9853 74.7519 25.5204 75.3809 25.0973C76.918 24.8844 78.0413 24.2202 78.7513 23.1043C78.35 23.0379 77.9489 22.9714 77.5476 22.905C79.6324 22.8054 81.7189 22.7723 83.8068 22.8054Z" fill="#2D95AB"/>
<path fill-rule="evenodd" clip-rule="evenodd" d="M84.5291 28.3857C84.6093 28.3857 84.6897 28.3857 84.7699 28.3857C84.7699 29.1166 84.7699 29.8472 84.7699 30.578C84.4408 31.5388 84.1598 32.5353 83.9273 33.5675C83.5197 33.8718 83.0782 34.1374 82.6032 34.3646C82.03 34.1986 81.4684 34.265 80.918 34.5639C79.9298 35.2609 79.0472 36.0581 78.2699 36.9555C77.7648 37.0466 77.3637 37.2459 77.0662 37.5534C75.8625 37.5534 74.6588 37.5534 73.4551 37.5534C74.587 37.4187 75.6302 37.0532 76.5847 36.4573C78.1967 35.1214 79.6411 33.6599 80.918 32.0727C82.0144 31.87 83.0575 31.5711 84.0477 31.1759C84.461 30.2797 84.6216 29.3497 84.5291 28.3857Z" fill="#2987BE"/>
<path fill-rule="evenodd" clip-rule="evenodd" d="M62.6217 31.7737C62.0988 32.0332 61.5369 32.2655 60.9365 32.4712C61.8766 32.9645 61.8766 33.496 60.9365 34.0656C57.6516 35.3893 55.2844 37.4156 53.8347 40.1441C53.6741 40.4098 53.5138 40.4098 53.3532 40.1441C53.0915 40.6288 52.9711 40.5623 52.9921 39.9448C53.9119 35.3963 57.122 32.6727 62.6217 31.7737Z" fill="#36A596"/>
<path fill-rule="evenodd" clip-rule="evenodd" d="M84.7699 30.5779C84.7699 32.0393 84.7699 33.501 84.7699 34.9624C84.4177 35.5011 84.2171 36.099 84.168 36.7561C83.4896 36.6309 82.8475 36.4316 82.2421 36.1582C81.4175 36.3756 80.8157 36.8075 80.4365 37.4536C79.8096 37.5313 79.2478 37.6976 78.7513 37.9519C78.2749 37.6194 77.7133 37.4867 77.0662 37.5533C77.3637 37.2457 77.7648 37.0465 78.2699 36.9554C79.0472 36.0579 79.9298 35.2608 80.918 34.5638C81.4683 34.2649 82.03 34.1985 82.6032 34.3645C83.0782 34.1373 83.5197 33.8717 83.9273 33.5673C84.1598 32.5352 84.4408 31.5387 84.7699 30.5779Z" fill="#2983C3"/>
<path fill-rule="evenodd" clip-rule="evenodd" d="M23.8624 24.9976C23.4772 26.9009 22.3137 28.3624 20.3716 29.3822C20.2968 29.6297 20.4171 29.829 20.7327 29.9801C19.9795 30.3615 19.4178 30.7601 19.0476 31.1758C19.0979 31.2926 19.1783 31.3923 19.2883 31.4748C18.6718 31.9045 18.6718 32.3363 19.2883 32.7702C19.1044 33.272 18.8636 33.737 18.5661 34.1653C18.4043 34.0124 18.2038 33.8795 17.9642 33.7667C17.762 34.3574 17.5213 34.4238 17.242 33.966C15.462 35.2082 13.9776 36.6698 12.7883 38.3505C12.984 38.6124 13.2248 38.845 13.5105 39.0481C12.548 39.7795 11.8258 40.6432 11.3439 41.6389C7.39571 43.6705 3.62427 45.8961 0.0290527 48.3153C0.0290527 47.6511 0.0290527 46.9866 0.0290527 46.3224C0.17759 46.3445 0.29796 46.4109 0.390163 46.5217C1.67379 45.0278 3.15844 43.699 4.84386 42.5357C6.62655 40.8943 8.27153 39.1672 9.77904 37.354C11.646 36.2075 13.1708 34.8124 14.3531 33.1688C16.3866 31.5523 18.4329 29.9246 20.492 28.286C20.4118 28.2197 20.3314 28.1531 20.2513 28.0867C21.2289 27.1471 21.7905 26.0509 21.9364 24.7983C22.5703 24.8773 23.2124 24.9436 23.8624 24.9976Z" fill="#5BC082"/>
<path fill-rule="evenodd" clip-rule="evenodd" d="M84.7697 34.9624C84.7697 35.6267 84.7697 36.2911 84.7697 36.9554C84.6361 37.9006 84.3552 38.8306 83.9271 39.7455C83.6062 39.7455 83.2851 39.7455 82.9642 39.7455C82.6298 39.4013 82.2285 39.1355 81.7605 38.9483C81.0963 39.323 80.3741 39.5887 79.5938 39.7455C79.4332 38.9483 79.2729 38.9483 79.1123 39.7455C79.0565 39.499 78.9361 39.2997 78.7512 39.1476C78.7512 38.749 78.7512 38.3504 78.7512 37.9519C79.2476 37.6976 79.8095 37.5313 80.4364 37.4536C80.8156 36.8075 81.4174 36.3756 82.242 36.1582C82.8474 36.4316 83.4895 36.6309 84.1679 36.7561C84.217 36.099 84.4175 35.5011 84.7697 34.9624Z" fill="#287ECA"/>
<path fill-rule="evenodd" clip-rule="evenodd" d="M23.6217 36.3577C27.3941 36.3244 31.1658 36.3577 34.9365 36.4573C34.6317 36.5189 34.3508 36.6186 34.0939 36.7563C34.1606 37.2806 34.1204 37.7789 33.9735 38.251C34.455 38.5167 34.9365 38.7825 35.418 39.0482C31.4867 39.1479 27.5547 39.1811 23.6217 39.1479C22.4464 38.5687 22.1654 37.7715 22.7791 36.7563C22.9755 36.4926 23.2565 36.3599 23.6217 36.3577Z" fill="#C5E2E7"/>
<path fill-rule="evenodd" clip-rule="evenodd" d="M23.6218 36.3576C32.0872 36.1256 40.5936 36.0924 49.1403 36.258C50.4309 36.7813 50.6717 37.5452 49.8625 38.5499C49.506 38.7452 49.1849 38.9778 48.8996 39.2474C40.433 39.413 32.0071 39.3798 23.6218 39.1478C27.5548 39.1811 31.4868 39.1478 35.4181 39.0481C34.9366 38.7825 34.4551 38.5166 33.9737 38.2509C34.1205 37.7788 34.1607 37.2806 34.094 36.7562C34.3509 36.6185 34.6319 36.5189 34.9366 36.4573C31.1659 36.3576 27.3942 36.3243 23.6218 36.3576Z" fill="#E0EDF2"/>
<path fill-rule="evenodd" clip-rule="evenodd" d="M62.6217 31.7736C64.2286 31.7405 65.8336 31.7736 67.4365 31.8733C66.4735 31.9396 65.5106 32.0062 64.5476 32.0726C64.3531 32.134 64.1925 32.2336 64.0661 32.3715C63.0329 33.7397 62.2305 35.2011 61.6587 36.756C61.436 36.9834 61.2352 36.9834 61.0569 36.756C60.775 37.1724 60.454 37.571 60.0939 37.9518C59.8739 37.7218 59.6733 37.7551 59.492 38.0515C59.5722 38.1178 59.6526 38.1844 59.7328 38.2508C59.4417 38.856 59.241 39.4872 59.1309 40.1441C58.6877 39.5167 58.1261 39.5167 57.4458 40.1441C57.3656 40.0777 57.2852 40.0112 57.205 39.9448C56.4219 40.352 55.6595 40.7838 54.918 41.2402C54.6067 41.3379 54.2856 41.3712 53.955 41.3399C53.9902 41.8266 53.7896 41.9595 53.3532 41.7385C53.3527 42.2469 53.1519 42.6455 52.7513 42.9342C52.674 41.8989 52.7544 40.9024 52.9921 39.9448C52.9711 40.5622 53.0915 40.6288 53.3532 40.1441C53.5137 40.4098 53.6741 40.4098 53.8346 40.1441C55.2844 37.4155 57.6516 35.3893 60.9365 34.0655C61.8766 33.496 61.8766 32.9644 60.9365 32.4712C61.5369 32.2655 62.0988 32.0331 62.6217 31.7736Z" fill="#309E9D"/>
<path fill-rule="evenodd" clip-rule="evenodd" d="M18.0847 38.9483C18.0847 40.1441 18.0847 41.3399 18.0847 42.5357C17.83 42.7549 17.6293 43.0207 17.4829 43.3328C17.4027 42.6686 17.3223 42.0041 17.2422 41.3399C17.1952 42.32 17.0748 43.2832 16.881 44.2297C15.8461 44.482 14.8027 44.7146 13.7514 44.9272C12.8077 45.682 11.9252 46.4791 11.1033 47.3188C8.91325 48.6204 6.74659 49.9158 4.60328 51.2051C4.24722 51.964 3.64537 52.5288 2.79772 52.8991C2.42072 52.7873 2.09982 52.9202 1.83476 53.2977C1.60582 53.2212 1.40528 53.1548 1.23291 53.0984C1.73245 52.4714 2.17372 51.8071 2.55698 51.1054C4.64348 49.3781 6.72974 47.651 8.81624 45.9237C9.61501 44.4826 10.6581 43.3532 11.9459 42.5357C12.6178 42.1771 13.1395 41.712 13.5107 41.1406C13.4305 41.0077 13.3501 40.8749 13.2699 40.742C14.5923 40.0281 15.9566 39.3639 17.3625 38.749C17.5546 39.0635 17.675 39.3955 17.7236 39.7455C17.7742 39.435 17.8946 39.1693 18.0847 38.9483Z" fill="#3DB381"/>
<path fill-rule="evenodd" clip-rule="evenodd" d="M84.7697 36.9556C84.7697 37.8191 84.7697 38.6829 84.7697 39.5464C84.5848 39.6985 84.4645 39.8978 84.4086 40.1443C84.1407 39.903 83.8597 39.903 83.566 40.1443C82.5754 41.3309 81.3317 42.2608 79.8346 42.9345C79.6487 42.9056 79.4881 42.8392 79.3531 42.7352C79.3105 43.5037 79.1901 44.2345 78.992 44.9274C79.0656 44.3525 78.9855 43.8209 78.7512 43.3331C78.7512 41.938 78.7512 40.5429 78.7512 39.1478C78.9361 39.2999 79.0565 39.4992 79.1123 39.7457C79.2729 38.9485 79.4332 38.9485 79.5938 39.7457C80.3741 39.5889 81.0963 39.3232 81.7605 38.9485C82.2285 39.1357 82.6298 39.4015 82.9642 39.7457C83.2851 39.7457 83.6062 39.7457 83.9271 39.7457C84.3552 38.8307 84.6361 37.9008 84.7697 36.9556Z" fill="#2678D0"/>
<path fill-rule="evenodd" clip-rule="evenodd" d="M64.7884 37.5533C65.9119 37.5533 67.0352 37.5533 68.1587 37.5533C68.7204 37.5533 69.2823 37.5533 69.8439 37.5533C70.3254 37.5533 70.8069 37.5533 71.2884 37.5533C72.0106 37.5533 72.7328 37.5533 73.455 37.5533C74.6587 37.5533 75.8624 37.5533 77.0661 37.5533C77.7132 37.4867 78.2749 37.6195 78.7513 37.9519C78.7513 38.3505 78.7513 38.7491 78.7513 39.1477C78.7513 40.5427 78.7513 41.9378 78.7513 43.3329C78.8214 44.613 78.7412 45.8751 78.5106 47.1195C78.4304 47.1195 78.35 47.1195 78.2698 47.1195C73.2143 47.1195 68.1587 47.1195 63.1032 47.1195C62.3169 46.811 61.5145 46.4788 60.6958 46.1231C60.1515 45.5521 59.67 44.9542 59.2513 44.3294C59.0948 43.9437 59.0147 43.5451 59.0106 43.1336C58.8043 41.9029 59.0852 40.7735 59.8532 39.7456C61.0453 38.3056 62.6903 37.5748 64.7884 37.5533Z" fill="#F3F7F8"/>
<path fill-rule="evenodd" clip-rule="evenodd" d="M71.7698 31.3752C71.7799 31.6367 71.7799 31.9026 71.7698 32.1724C71.1119 33.0025 70.3095 33.7664 69.3624 34.4643C67.4921 35.3408 65.9672 36.3706 64.7883 37.5534C62.6903 37.575 61.0453 38.3058 59.8532 39.7457C59.0852 40.7737 58.8042 41.9031 59.0106 43.1337C58.8502 42.5642 58.6897 41.9663 58.5291 41.3401C58.3502 41.6207 58.1494 41.8864 57.9272 42.1373C57.811 41.9483 57.771 41.749 57.8069 41.5394C57.4886 41.5733 57.2077 41.5069 56.9643 41.3401C56.4775 41.8586 55.956 42.3569 55.3995 42.8348C54.6089 42.9643 53.8866 43.1967 53.2328 43.5323C53.3012 43.914 53.221 44.246 52.992 44.5288C52.7578 44.0409 52.6776 43.5094 52.7513 42.9345C53.1519 42.6457 53.3527 42.2471 53.3532 41.7387C53.7896 41.9597 53.9902 41.8268 53.955 41.3401C54.2855 41.3714 54.6067 41.3381 54.918 41.2404C55.6595 40.784 56.4219 40.3522 57.205 39.945C57.2852 40.0114 57.3656 40.0779 57.4457 40.1443C58.1261 39.5169 58.6877 39.5169 59.1309 40.1443C59.241 39.4874 59.4417 38.8562 59.7328 38.251C59.6526 38.1846 59.5722 38.118 59.492 38.0517C59.6733 37.7553 59.8739 37.722 60.0939 37.952C60.454 37.5712 60.7749 37.1726 61.0569 36.7563C61.2352 36.9837 61.436 36.9837 61.6587 36.7563C62.2305 35.2013 63.0329 33.7399 64.0661 32.3717C64.1925 32.2338 64.3531 32.1342 64.5476 32.0728C65.5106 32.0064 66.4735 31.9399 67.4365 31.8735C65.8336 31.7738 64.2286 31.7408 62.6217 31.7738C65.6711 31.6409 68.7203 31.5082 71.7698 31.3752Z" fill="#339CA5"/>
<path fill-rule="evenodd" clip-rule="evenodd" d="M18.5661 34.1652C18.4183 34.8896 18.3379 35.6205 18.3253 36.3575C18.0882 37.1814 18.008 38.0451 18.0846 38.9483C17.8944 39.1693 17.774 39.435 17.7235 39.7455C17.6749 39.3955 17.5545 39.0635 17.3624 38.749C15.9564 39.3638 14.5922 40.0281 13.2698 40.742C13.3499 40.8749 13.4304 41.0076 13.5105 41.1406C13.1393 41.712 12.6176 42.1771 11.9457 42.5357C10.658 43.3532 9.61486 44.4826 8.81608 45.9237C6.72958 47.651 4.64333 49.3781 2.55683 51.1054C2.17357 51.8071 1.73229 52.4714 1.23276 53.0984C0.680256 53.8033 0.399552 54.6005 0.390164 55.4899C0.345386 54.9845 0.225016 54.5196 0.0290527 54.0949C0.0290527 52.1683 0.0290527 50.2419 0.0290527 48.3153C3.62427 45.896 7.39571 43.6705 11.3439 41.6388C11.8258 40.6431 12.548 39.7794 13.5105 39.048C13.2248 38.8449 12.984 38.6123 12.7883 38.3504C13.9776 36.6698 15.462 35.2081 17.242 33.9659C17.5213 34.4237 17.762 34.3573 17.9642 33.7666C18.2038 33.8794 18.4043 34.0123 18.5661 34.1652Z" fill="#45B880"/>
<path fill-rule="evenodd" clip-rule="evenodd" d="M18.0846 42.5359C18.0846 44.1966 18.0846 45.8575 18.0846 47.5183C17.8944 47.7393 17.774 48.005 17.7235 48.3155C17.6226 48.0819 17.4623 47.8826 17.242 47.7176C16.0732 47.9179 14.9097 48.1505 13.7513 48.4151C13.2204 48.9213 12.6186 49.3532 11.9457 49.7105C11.8017 50.5938 11.1999 51.1252 10.1402 51.3049C9.81901 52.0132 9.25712 52.5115 8.45497 52.7996C8.08399 53.1143 7.80305 53.4798 7.61238 53.8958C6.72669 54.3456 5.96451 54.9102 5.32534 55.5898C4.39657 55.9119 3.55398 56.3437 2.79757 56.8852C2.37651 56.726 2.05561 56.8589 1.83461 57.2838C1.54163 57.1072 1.22048 56.908 0.871644 56.6859C0.751756 57.0933 0.470812 57.3592 0.0290527 57.4831C0.0290527 56.3537 0.0290527 55.2245 0.0290527 54.0951C0.225016 54.5198 0.345386 54.9847 0.390163 55.4902C0.399552 54.6007 0.680256 53.8035 1.23276 53.0986C1.40513 53.155 1.60566 53.2214 1.83461 53.2979C2.09966 52.9204 2.42057 52.7875 2.79757 52.8993C3.64522 52.529 4.24707 51.9642 4.60312 51.2053C6.74644 49.916 8.9131 48.6206 11.1031 47.319C11.925 46.4794 12.8076 45.6822 13.7513 44.9274C14.8026 44.7148 15.8459 44.4822 16.8809 44.2299C17.0747 43.2834 17.1951 42.3202 17.242 41.3401C17.3222 42.0043 17.4026 42.6688 17.4827 43.3331C17.6291 43.021 17.8299 42.7551 18.0846 42.5359Z" fill="#3CB086"/>
<path fill-rule="evenodd" clip-rule="evenodd" d="M59.0107 43.1338C59.0148 43.5453 59.095 43.9439 59.2514 44.3295C57.3219 43.9435 55.6767 44.4087 54.3163 45.7246C54.2361 45.6582 54.1557 45.5917 54.0755 45.5253C53.7286 45.885 53.6884 46.2836 53.9551 46.7211C53.5269 46.0405 53.2057 45.3099 52.9922 44.5288C53.2211 44.246 53.3013 43.914 53.2329 43.5324C53.8868 43.1967 54.609 42.9644 55.3996 42.8348C55.9562 42.3569 56.4776 41.8587 56.9644 41.3401C57.2078 41.5069 57.4887 41.5733 57.807 41.5394C57.7711 41.749 57.8111 41.9483 57.9274 42.1373C58.1496 41.8864 58.3503 41.6207 58.5292 41.3401C58.6898 41.9663 58.8504 42.5642 59.0107 43.1338Z" fill="#3197AB"/>
<path fill-rule="evenodd" clip-rule="evenodd" d="M84.7697 39.5464C84.7697 40.7422 84.7697 41.9379 84.7697 43.1337C84.5738 43.5584 84.4534 44.0234 84.4086 44.5288C84.3284 44.2631 84.248 43.9973 84.1679 43.7316C84.0516 43.9206 84.0116 44.1198 84.0475 44.3295C83.2107 44.3283 82.7292 44.6603 82.6031 45.326C82.2826 44.6554 81.8413 44.589 81.279 45.1267C80.7912 45.0233 80.3098 44.9567 79.8345 44.9274C79.7582 45.2863 79.5976 45.3527 79.3531 45.1267C79.1169 46.395 78.9965 46.3287 78.9919 44.9274C79.1901 44.2344 79.3104 43.5036 79.3531 42.7351C79.4881 42.8392 79.6487 42.9055 79.8345 42.9344C81.3317 42.2608 82.5754 41.3309 83.566 40.1443C83.8597 39.9029 84.1407 39.9029 84.4086 40.1443C84.4645 39.8977 84.5848 39.6985 84.7697 39.5464Z" fill="#2773D5"/>
<path fill-rule="evenodd" clip-rule="evenodd" d="M59.2514 44.3296C59.6701 44.9543 60.1515 45.5522 60.6959 46.1232C60.6959 46.3225 60.6959 46.5218 60.6959 46.7211C60.1812 46.7616 59.7798 46.9609 59.4922 47.319C59.1869 47.1341 58.866 47.1008 58.5292 47.2194C57.9086 47.6592 57.2265 48.0245 56.4829 48.3155C56.4027 48.2491 56.3223 48.1826 56.2422 48.1162C55.9576 48.5166 55.8372 48.9152 55.881 49.312C54.9337 48.6079 54.2919 47.7443 53.9551 46.7211C53.6884 46.2837 53.7286 45.8851 54.0755 45.5253C54.1557 45.5917 54.2361 45.6583 54.3162 45.7246C55.6767 44.4087 57.3219 43.9435 59.2514 44.3296Z" fill="#3091B2"/>
<path fill-rule="evenodd" clip-rule="evenodd" d="M84.7699 43.1338C84.7699 44.3959 84.7699 45.6583 84.7699 46.9204C84.5703 48.2798 84.4499 49.6749 84.4087 51.1057C84.3286 50.5741 84.2482 50.0428 84.168 49.5113C84.0878 49.9099 84.0074 50.3085 83.9273 50.7071C83.6827 50.4811 83.5221 50.5474 83.4458 50.9064C83.2674 50.679 83.0666 50.679 82.8439 50.9064C82.6147 50.5984 82.5346 50.2662 82.6032 49.9099C82.1037 49.8704 81.6222 49.8371 81.1588 49.8102C80.6558 50.2003 80.4551 50.6321 80.5569 51.1057C79.8749 50.8731 79.6741 51.0393 79.955 51.6039C79.3595 51.6264 78.878 51.8257 78.5106 52.2018C78.7311 52.2572 78.8915 52.3568 78.9921 52.5007C77.7884 52.5007 76.5847 52.5007 75.381 52.5007C75.3401 52.2373 75.4202 52.0047 75.6217 51.8032C76.6954 51.342 77.7788 50.9103 78.8717 50.5078C79.149 49.9218 79.3898 49.3239 79.5939 48.7141C81.1809 47.9492 82.1841 46.82 82.6032 45.3261C82.7293 44.6604 83.2108 44.3284 84.0476 44.3296C84.0118 44.1199 84.0517 43.9206 84.168 43.7317C84.2482 43.9973 84.3286 44.2632 84.4087 44.5289C84.4535 44.0234 84.5739 43.5585 84.7699 43.1338Z" fill="#266EDD"/>
<path fill-rule="evenodd" clip-rule="evenodd" d="M63.1031 47.1196C68.1586 47.1196 73.2142 47.1196 78.2697 47.1196C76.5489 47.3173 74.7836 47.3837 72.9734 47.3189C72.0105 47.3189 71.0475 47.3189 70.0845 47.3189C68.1569 47.2858 66.231 47.3189 64.3068 47.4186C64.7883 47.4849 65.2697 47.5515 65.7512 47.6179C65.1763 47.6783 64.6546 47.8445 64.1864 48.1161C63.8183 49.0249 63.2966 49.8554 62.6216 50.6073C62.4822 50.8913 62.4822 51.2235 62.6216 51.6038C61.6712 51.9398 61.6712 52.2388 62.6216 52.5006C61.617 52.4255 60.654 52.2262 59.7327 51.9027C59.7327 51.8364 59.7327 51.7698 59.7327 51.7035C59.712 51.505 59.7924 51.3389 59.9734 51.2052C59.0777 50.8636 58.9173 50.3987 59.492 49.8101C59.2695 49.6407 59.2695 49.4414 59.492 49.2122C60.7843 48.6038 61.988 47.9063 63.1031 47.1196Z" fill="#388BC6"/>
<path fill-rule="evenodd" clip-rule="evenodd" d="M70.0847 47.3188C70.1854 47.4627 70.3457 47.5623 70.5662 47.6177C70.2549 47.7154 69.9338 47.7487 69.6032 47.7174C69.2274 48.332 68.7862 48.9299 68.2792 49.5111C67.6393 50.034 66.9972 50.5655 66.3532 51.1054C66.314 51.5391 66.1135 51.9044 65.7514 52.2016C65.1093 52.2679 64.4675 52.3345 63.8255 52.4009C65.0265 52.5003 66.2302 52.5336 67.4366 52.5005C69.1668 52.4357 70.852 52.5023 72.4921 52.6998C69.1829 52.7626 65.893 52.696 62.6218 52.5005C61.6713 52.2386 61.6713 51.9397 62.6218 51.6037C62.4824 51.2234 62.4824 50.8912 62.6218 50.6072C63.2968 49.8552 63.8185 49.0248 64.1866 48.116C64.6548 47.8443 65.1765 47.6781 65.7514 47.6177C65.2699 47.5514 64.7884 47.4848 64.307 47.4184C66.2312 47.3188 68.1571 47.2857 70.0847 47.3188Z" fill="#2D81CB"/>
<path fill-rule="evenodd" clip-rule="evenodd" d="M70.0847 47.3188C71.0477 47.3188 72.0106 47.3188 72.9736 47.3188C73.2389 47.6361 73.0783 47.8021 72.4921 47.8171C72.7742 47.9006 73.015 48.0333 73.2143 48.2157C71.7776 48.6553 70.8948 49.5189 70.5662 50.8065C70.7475 51.2566 70.7475 51.6551 70.5662 52.0023C69.5055 52.2098 68.4623 52.3758 67.4365 52.5006C66.2302 52.5336 65.0265 52.5004 63.8254 52.4009C64.4675 52.3345 65.1093 52.268 65.7514 52.2016C66.1134 51.9045 66.314 51.5392 66.3532 51.1055C66.9972 50.5656 67.6393 50.0341 68.2791 49.5111C68.7861 48.93 69.2274 48.3321 69.6032 47.7174C69.9337 47.7487 70.2549 47.7154 70.5662 47.6178C70.3457 47.5624 70.1853 47.4627 70.0847 47.3188Z" fill="#277AD0"/>
<path fill-rule="evenodd" clip-rule="evenodd" d="M18.0847 47.5181C18.1247 48.8484 18.0847 50.1771 17.9644 51.504C17.5149 51.044 17.2742 50.5125 17.2421 49.9096C17.123 50.3028 17.0828 50.7014 17.1218 51.1054C16.6865 51.1036 16.2852 51.2033 15.9181 51.4044C14.2832 52.5087 12.598 53.5715 10.8625 54.5931C9.68819 55.8335 8.24375 56.7634 6.52919 57.3833C6.01112 57.8753 5.65001 58.4399 5.44586 59.0773C5.20247 59.2441 4.92153 59.3105 4.60327 59.2766C4.62903 59.7555 4.38829 60.1208 3.88105 60.3727C3.14847 60.5317 2.46646 60.7643 1.83475 61.0702C1.51385 60.9373 1.1927 60.8046 0.871792 60.6716C0.771403 60.922 0.570866 61.0549 0.26994 61.0702C0.0316073 59.9123 -0.0485593 58.7165 0.0291999 57.4829C0.470959 57.3589 0.751903 57.0931 0.871792 56.6857C1.22062 56.9077 1.54177 57.107 1.83475 57.2836C2.05575 56.8587 2.37666 56.7258 2.79772 56.885C3.55412 56.3435 4.39671 55.9116 5.32549 55.5896C5.96466 54.91 6.72684 54.3454 7.61253 53.8956C7.80319 53.4796 8.08414 53.1141 8.45512 52.7994C9.25727 52.5112 9.81915 52.013 10.1403 51.3047C11.2 51.1249 11.8019 50.5936 11.9459 49.7103C12.6187 49.353 13.2206 48.9211 13.7514 48.4149C14.9099 48.1502 16.0734 47.9177 17.2421 47.7174C17.4624 47.8824 17.6228 48.0817 17.7236 48.3153C17.7742 48.0047 17.8946 47.7391 18.0847 47.5181Z" fill="#3BAC8C"/>
<path fill-rule="evenodd" clip-rule="evenodd" d="M60.6959 46.123C61.5147 46.4788 62.317 46.811 63.1033 47.1195C61.9882 47.9062 60.7845 48.6037 59.4922 49.2121C59.2697 49.4413 59.2697 49.6406 59.4922 49.81C58.9175 50.3986 59.0779 50.8635 59.9737 51.2051C59.7926 51.3388 59.7122 51.5049 59.7329 51.7034C58.1014 51.2818 56.8173 50.4847 55.8811 49.3118C55.8373 48.915 55.9576 48.5164 56.2422 48.116C56.3224 48.1824 56.4028 48.2489 56.4829 48.3153C57.2266 48.0243 57.9086 47.659 58.5292 47.2192C58.866 47.1006 59.1869 47.1339 59.4922 47.3188C59.7799 46.9607 60.1812 46.7614 60.6959 46.7209C60.6959 46.5216 60.6959 46.3223 60.6959 46.123Z" fill="#2E8BB9"/>
<path fill-rule="evenodd" clip-rule="evenodd" d="M18.3256 36.3577C18.3256 42.5359 18.3256 48.7141 18.3256 54.8923C18.1354 54.6712 18.015 54.4056 17.9644 54.0951C17.9117 54.3817 17.7914 54.6473 17.6033 54.8923C17.4088 54.509 17.2884 54.1104 17.2422 53.6965C17.1678 53.9488 17.0475 54.1814 16.8811 54.394C16.1305 54.568 15.4083 54.8004 14.7144 55.0916C13.4299 56.0209 12.0656 56.8511 10.6219 57.5828C9.25109 58.7664 7.84685 59.9289 6.4089 61.0705C6.19416 61.7584 5.79309 62.3563 5.2052 62.8641C3.74463 63.7761 2.42055 64.7726 1.23298 65.8536C0.704075 64.2899 0.383168 62.6955 0.27002 61.0705C0.570945 61.0551 0.771482 60.9222 0.871871 60.6719C1.19278 60.8048 1.51393 60.9375 1.83483 61.0705C2.46654 60.7645 3.14855 60.532 3.88113 60.3729C4.38837 60.121 4.62911 59.7557 4.60335 59.2768C4.92161 59.3107 5.20255 59.2443 5.44594 59.0775C5.65009 58.4401 6.0112 57.8755 6.52927 57.3835C8.24383 56.7637 9.68827 55.8337 10.8626 54.5933C12.5981 53.5717 14.2833 52.5089 15.9182 51.4046C16.2853 51.2035 16.6866 51.1038 17.1219 51.1056C17.0829 50.7016 17.1231 50.3031 17.2422 49.9098C17.2742 50.5127 17.515 51.0442 17.9644 51.5042C18.0848 50.1773 18.1248 48.8486 18.0848 47.5183C18.0848 45.8575 18.0848 44.1966 18.0848 42.5359C18.0848 41.3401 18.0848 40.1443 18.0848 38.9485C18.0083 38.0453 18.0884 37.1816 18.3256 36.3577Z" fill="#3EAA93"/>
<path fill-rule="evenodd" clip-rule="evenodd" d="M78.7514 43.333C78.9856 43.8209 79.0658 44.3524 78.9921 44.9274C78.9967 46.3286 79.1171 46.395 79.3532 45.1267C79.5978 45.3527 79.7584 45.2863 79.8347 44.9274C80.3099 44.9567 80.7914 45.0232 81.2791 45.1267C81.8415 44.589 82.2828 44.6553 82.6032 45.326C82.1841 46.8199 81.1809 47.9491 79.594 48.714C79.3898 49.3239 79.1491 49.9218 78.8717 50.5077C77.7788 50.9103 76.6954 51.3419 75.6217 51.8031C75.4202 52.0046 75.3401 52.2372 75.381 52.5007C76.5847 52.5007 77.7884 52.5007 78.9921 52.5007C80.8591 52.6597 82.7048 52.7263 84.5291 52.7C84.5691 53.6986 84.5289 54.6951 84.4088 55.6894C84.369 54.5484 83.8876 54.4819 82.9643 55.4901C82.8719 56.0003 82.6713 56.4655 82.3625 56.8852C81.9932 56.7451 81.5919 56.7784 81.1588 56.9848C79.6539 58.6296 77.8484 59.9914 75.7421 61.0704C75.6258 61.2593 75.5859 61.4586 75.6217 61.6683C75.0505 61.8265 74.4888 62.0258 73.9366 62.2662C73.5218 63.0417 72.8397 63.573 71.8903 63.8606C71.5084 64.293 71.1873 64.7582 70.9273 65.2556C70.6704 65.3934 70.3895 65.493 70.0847 65.5546C69.7438 66.3494 69.142 66.9804 68.2792 67.4479C67.5379 69.0582 66.2138 70.2209 64.3069 70.9356C63.0686 71.964 61.7045 72.8275 60.2143 73.5265C58.5771 74.8462 57.0525 76.2413 55.6403 77.7117C54.7575 78.0439 53.8749 78.3759 52.9921 78.7082C52.6712 78.9075 52.6712 79.1068 52.9921 79.3061C52.3501 79.439 52.3501 79.5717 52.9921 79.7047C52.6712 79.9039 52.6712 80.1032 52.9921 80.3025C51.9117 80.454 50.8683 80.6202 49.8625 80.8008C47.8564 80.8008 45.8501 80.8008 43.844 80.8008C45.0034 80.6362 46.2071 80.5365 47.4551 80.5018C46.8935 80.4355 46.3316 80.3689 45.7699 80.3025C46.3667 79.8135 47.1291 79.3152 48.057 78.8078C49.1576 77.4867 50.4013 76.2576 51.7884 75.1208C52.97 74.6718 54.0131 74.0739 54.9181 73.3272C55.914 72.3526 56.9571 71.4225 58.0477 70.537C58.6093 70.3044 59.1712 70.072 59.7329 69.8395C61.0232 68.8374 62.3071 67.8409 63.5847 66.85C63.798 66.6856 63.8782 66.4863 63.8255 66.2521C64.4511 66.2424 64.9728 66.0431 65.3903 65.6542C65.9281 64.8654 66.6101 64.1679 67.4366 63.5616C67.3564 63.4953 67.276 63.4287 67.1958 63.3623C67.5167 63.0301 67.8379 62.6981 68.1588 62.3658C68.0786 62.2995 67.9982 62.2329 67.918 62.1665C68.4739 62.0159 68.9554 62.1155 69.3625 62.4655C70.6454 61.8339 71.4078 60.904 71.6495 59.6753C71.7297 59.7417 71.8101 59.8083 71.8903 59.8746C72.3691 58.9144 73.0511 58.2169 73.9366 57.782C74.2575 57.7157 74.5786 57.6491 74.8995 57.5827C76.4593 56.4069 77.9037 55.1445 79.2328 53.7961C79.7374 53.4441 80.2991 53.1785 80.918 52.9989C78.4362 52.7727 75.9487 52.6065 73.4551 52.5007C73.2933 51.8215 73.534 51.2899 74.1773 50.9063C74.3184 50.9479 74.4387 51.0145 74.5384 51.1056C74.6922 50.585 74.9732 50.1199 75.381 49.7105C76.2409 49.1054 77.1637 48.5739 78.1495 48.1161C78.3924 47.8122 78.5128 47.48 78.5106 47.1196C78.7413 45.8752 78.8214 44.6131 78.7514 43.333Z" fill="#2974DD"/>
<path fill-rule="evenodd" clip-rule="evenodd" d="M59.7329 51.9028C60.6542 52.2263 61.6172 52.4256 62.6218 52.5007C65.893 52.6962 69.1829 52.7628 72.4921 52.7C72.9628 58.5498 69.753 62.0042 62.8625 63.0634C62.4612 63.0634 62.0601 63.0634 61.6588 63.0634C56.0416 63.0634 50.4242 63.0634 44.807 63.0634C39.3501 63.0634 33.8935 63.0634 28.4366 63.0634C27.8986 63.1222 27.4171 63.0557 26.9922 62.8642C40.1549 62.9361 50.4266 62.8697 57.807 62.6649C57.7542 62.4307 57.8344 62.2314 58.0477 62.067C58.4095 62.177 58.8106 62.177 59.2514 62.067C59.0836 60.4556 59.0434 58.7949 59.131 57.0845C59.0196 56.4197 58.819 55.7885 58.5292 55.1912C58.5694 54.9586 58.6094 54.7263 58.6496 54.4937C58.7492 54.5848 58.8696 54.6513 59.0107 54.693C59.2098 53.904 59.3301 53.1068 59.3718 52.3014C59.5444 52.193 59.6648 52.0601 59.7329 51.9028Z" fill="#F3F7F8"/>
<path fill-rule="evenodd" clip-rule="evenodd" d="M18.3255 54.8921C18.4124 55.9165 18.6531 56.9129 19.0477 57.8815C18.6052 57.7865 18.1637 57.7201 17.7236 57.6822C17.1384 58.0651 16.4963 58.0651 15.7977 57.6822C14.6602 58.2301 13.8578 59.0273 13.3903 60.0738C12.3472 60.871 11.3038 61.6682 10.2607 62.4653C9.89475 63.4329 9.17253 64.1637 8.09401 64.6576C7.92814 64.4868 7.72761 64.3541 7.49216 64.259C7.25142 64.5912 6.93052 64.8569 6.5292 65.0562C5.49257 66.3124 4.36904 67.5081 3.15883 68.6435C3.0895 68.9148 3.00933 69.1804 2.91809 69.4407C2.1718 68.3207 1.61015 67.1249 1.23291 65.8534C2.42048 64.7724 3.74456 63.7759 5.20513 62.8639C5.79302 62.3561 6.19409 61.7582 6.40883 61.0703C7.84677 59.9287 9.25101 58.7662 10.6218 57.5826C12.0655 56.851 13.4298 56.0207 14.7144 55.0914C15.4082 54.8002 16.1304 54.5678 16.881 54.3938C17.0474 54.1812 17.1678 53.9486 17.2422 53.6963C17.2884 54.1102 17.4087 54.5088 17.6033 54.8921C17.7913 54.6471 17.9117 54.3815 17.9644 54.0949C18.0149 54.4054 18.1353 54.671 18.3255 54.8921Z" fill="#38A499"/>
<path fill-rule="evenodd" clip-rule="evenodd" d="M82.3625 56.8852C80.9746 58.4674 79.7307 60.1282 78.631 61.8676C77.7117 62.3615 76.7889 62.8597 75.8625 63.3624C75.2862 63.7514 74.9251 64.2496 74.7792 64.8571C74.3991 65.1642 73.9575 65.3968 73.4551 65.5546C72.9587 66.2801 72.2767 66.8447 71.4088 67.2486C71.2083 67.9462 70.6866 68.3781 69.844 68.5441C68.9807 69.3889 68.1381 70.2194 67.3162 71.0353C66.0634 71.841 64.8597 72.7048 63.7051 73.6261C63.5917 73.9741 63.4312 74.3063 63.2236 74.6226C62.3811 75.0545 61.699 75.6191 61.1774 76.3166C60.757 76.4105 60.3557 76.5434 59.9736 76.7152C59.5822 77.239 59.1007 77.7039 58.5292 78.1103C57.2451 78.2799 56.3623 78.8445 55.8811 79.8043C55.6006 80.0204 55.2797 80.1864 54.9181 80.3026C55.5286 80.3396 56.0903 80.4393 56.6033 80.6015C55.9872 80.5413 55.4253 80.6079 54.9181 80.8008C53.2329 80.8008 51.5477 80.8008 49.8625 80.8008C50.8684 80.6203 51.9117 80.454 52.9922 80.3026C52.6713 80.1033 52.6713 79.904 52.9922 79.7047C52.3501 79.5718 52.3501 79.439 52.9922 79.3061C52.6713 79.1068 52.6713 78.9075 52.9922 78.7082C53.875 78.376 54.7575 78.0439 55.6403 77.7117C57.0525 76.2413 58.5771 74.8462 60.2144 73.5265C61.7046 72.8276 63.0686 71.964 64.307 70.9356C66.2139 70.221 67.538 69.0583 68.2792 67.4479C69.142 66.9804 69.7439 66.3494 70.0848 65.5546C70.3895 65.493 70.6705 65.3934 70.9273 65.2557C71.1873 64.7582 71.5085 64.2931 71.8903 63.8606C72.8398 63.573 73.5218 63.0417 73.9366 62.2662C74.4889 62.0259 75.0505 61.8266 75.6218 61.6683C75.5859 61.4587 75.6259 61.2594 75.7422 61.0704C77.8484 59.9915 79.6539 58.6297 81.1588 56.9849C81.5919 56.7784 81.9932 56.7451 82.3625 56.8852Z" fill="#2A71E1"/>
<path fill-rule="evenodd" clip-rule="evenodd" d="M84.7698 46.9204C84.81 52.5011 84.7698 58.0814 84.6494 63.6613C84.5936 63.9079 84.4732 64.1072 84.2883 64.2592C84.0553 63.6723 84.0153 63.0744 84.1679 62.4656C84.2481 62.7978 84.3285 63.1298 84.4087 63.462C84.5693 62.5985 84.5693 61.7347 84.4087 60.8712C83.6284 60.5794 83.1872 60.8118 83.0846 61.5687C83.2406 61.8557 83.3208 62.1546 83.3253 62.4656C83.0856 62.4484 82.885 62.515 82.7235 62.6648C82.5629 62.3992 82.3222 62.1999 82.0013 62.067C80.0518 62.1915 78.9282 63.1216 78.6309 64.8571C77.6427 65.7593 76.5993 66.6229 75.5013 67.448C75.2162 68.5626 74.5742 69.4928 73.5754 70.2381C73.4952 70.1718 73.4148 70.1052 73.3346 70.0388C73.0505 70.9384 72.4087 71.6027 71.4087 72.0318C71.2072 72.4007 71.0064 72.766 70.8068 73.1279C68.9676 74.0903 67.2022 75.1532 65.5106 76.3167C64.551 76.4133 63.7486 76.7456 63.1031 77.3132C62.1402 77.7117 61.1772 78.1103 60.2143 78.5089C59.8934 78.9075 59.8934 79.3061 60.2143 79.7047C60.0537 79.7711 59.8934 79.8376 59.7328 79.904C60.0537 80.0369 60.0537 80.1697 59.7328 80.3026C58.7144 80.5597 57.6711 80.6593 56.6032 80.6016C56.0901 80.4393 55.5285 80.3397 54.918 80.3026C55.2796 80.1864 55.6005 80.0204 55.8809 79.8044C56.3622 78.8445 57.245 78.2799 58.5291 78.1103C59.1006 77.704 59.5821 77.239 59.9735 76.7153C60.3556 76.5435 60.7569 76.4105 61.1772 76.3167C61.6989 75.6191 62.3809 75.0545 63.2235 74.6226C63.431 74.3064 63.5916 73.9741 63.705 73.6262C64.8596 72.7048 66.0633 71.8411 67.3161 71.0353C68.138 70.2194 68.9806 69.3889 69.8439 68.5441C70.6865 68.3781 71.2082 67.9462 71.4087 67.2487C72.2766 66.8447 72.9586 66.2801 73.455 65.5546C73.9574 65.3968 74.3989 65.1642 74.7791 64.8571C74.9249 64.2497 75.2861 63.7514 75.8624 63.3624C76.7888 62.8598 77.7115 62.3615 78.6309 61.8677C79.7306 60.1282 80.9745 58.4675 82.3624 56.8852C82.6713 56.4655 82.8718 56.0004 82.9642 55.4902C83.8875 54.4819 84.369 54.5485 84.4087 55.6895C84.5288 54.6952 84.569 53.6987 84.5291 52.7C82.7047 52.7263 80.859 52.6598 78.992 52.5007C78.8914 52.3568 78.7311 52.2572 78.5105 52.2018C78.8779 51.8257 79.3594 51.6264 79.955 51.6039C79.674 51.0393 79.8748 50.8731 80.5568 51.1056C80.455 50.6321 80.6558 50.2002 81.1587 49.8102C81.6221 49.8371 82.1036 49.8704 82.6031 49.9099C82.5345 50.2662 82.6147 50.5984 82.8439 50.9063C83.0666 50.6789 83.2673 50.6789 83.4457 50.9063C83.522 50.5474 83.6826 50.481 83.9272 50.707C84.0074 50.3085 84.0878 49.9099 84.1679 49.5113C84.2481 50.0428 84.3285 50.5741 84.4087 51.1056C84.4498 49.6749 84.5702 48.2798 84.7698 46.9204Z" fill="#2A6EE4"/>
<path fill-rule="evenodd" clip-rule="evenodd" d="M19.0476 57.8817C19.2883 58.2803 19.5291 58.6789 19.7698 59.0774C18.3025 59.5849 16.858 60.1497 15.4365 60.7715C14.5282 61.5125 13.7657 62.3427 13.1494 63.2627C11.4419 64.2107 9.95746 65.3732 8.69574 66.7504C8.31513 66.8913 7.95402 67.0573 7.61241 67.2486C6.71276 68.7551 5.38869 69.8843 3.64019 70.6367C3.27715 70.3016 3.03641 69.903 2.91797 69.4409C3.00921 69.1806 3.08938 68.9149 3.15871 68.6437C4.36891 67.5083 5.49245 66.3125 6.52908 65.0564C6.93039 64.8571 7.2513 64.5914 7.49204 64.2592C7.72748 64.3542 7.92802 64.487 8.09389 64.6578C9.17241 64.1639 9.89463 63.4331 10.2606 62.4655C11.3037 61.6683 12.3471 60.8711 13.3902 60.0739C13.8577 59.0274 14.6601 58.2302 15.7976 57.6824C16.4962 58.0652 17.1383 58.0652 17.7235 57.6824C18.1636 57.7202 18.6051 57.7866 19.0476 57.8817Z" fill="#36A09F"/>
<path fill-rule="evenodd" clip-rule="evenodd" d="M22.418 61.4691C22.7793 61.7186 23.1807 61.9179 23.6217 62.067C23.601 62.2655 23.6814 62.4315 23.8624 62.5652C22.5993 63.4694 21.2352 64.2666 19.7699 64.9568C19.18 65.9102 18.3374 66.6741 17.2421 67.2487C16.6855 68.0399 16.0437 68.7707 15.3162 69.4409C14.8392 69.8708 14.2776 70.203 13.631 70.4374C13.5176 70.7854 13.357 71.1176 13.1495 71.4339C12.4145 71.8185 11.8127 72.3168 11.3439 72.9286C9.85664 73.0303 8.85347 73.6614 8.33468 74.8219C8.25451 74.7556 8.1741 74.689 8.09394 74.6226C7.97188 74.9208 8.09225 75.1534 8.45505 75.3202C8.3212 75.3965 8.24103 75.4962 8.21431 75.6191C7.06188 74.932 6.17909 74.0684 5.56616 73.0283C5.75635 72.8073 5.87672 72.5416 5.92727 72.2311C6.28549 72.6935 6.72677 72.7267 7.25135 72.3307C8.40497 70.9105 9.80921 69.6815 11.4643 68.6437C12.4836 67.334 13.7677 66.2048 15.3162 65.2557C15.4767 64.8571 15.6371 64.4585 15.7976 64.0599C16.3918 63.9395 16.8733 63.6737 17.2421 63.2627C17.3945 62.0076 18.2371 61.3764 19.7699 61.3694C20.059 61.1894 20.2598 60.9571 20.3717 60.6719C20.8527 61.0689 21.3342 61.4675 21.8161 61.8677C22.0595 61.7568 22.2601 61.6241 22.418 61.4691Z" fill="#3499AB"/>
<path fill-rule="evenodd" clip-rule="evenodd" d="M23.6217 62.0669C24.6588 62.558 25.7823 62.8238 26.9921 62.8641C27.417 63.0556 27.8985 63.1222 28.4365 63.0634C28.4266 63.5108 28.2259 63.6437 27.8347 63.462C27.7184 63.6509 27.6784 63.8502 27.7143 64.0599C26.0188 64.364 24.8553 65.2277 24.2236 66.6507C22.5624 67.8686 20.9574 69.131 19.4087 70.4374C19.2739 71.2796 18.7123 71.8111 17.7236 72.0317C17.523 72.364 17.3222 72.696 17.1217 73.0282C15.7909 74.0275 14.3465 74.9243 12.7884 75.7187C12.1757 76.2582 11.6138 76.8228 11.1032 77.4127C10.054 76.9119 9.09109 76.314 8.21431 75.6191C8.24103 75.4961 8.3212 75.3965 8.45505 75.3201C8.09226 75.1533 7.97189 74.9207 8.09394 74.6226C8.17411 74.689 8.25451 74.7555 8.33468 74.8219C8.85348 73.6614 9.85664 73.0302 11.3439 72.9286C11.8127 72.3167 12.4145 71.8185 13.1495 71.4338C13.357 71.1176 13.5176 70.7853 13.631 70.4374C14.2776 70.203 14.8392 69.8708 15.3162 69.4409C16.0437 68.7706 16.6855 68.0398 17.2421 67.2486C18.3374 66.674 19.18 65.9101 19.7699 64.9567C21.2352 64.2665 22.5993 63.4693 23.8624 62.5651C23.6814 62.4314 23.601 62.2654 23.6217 62.0669Z" fill="#3294B2"/>
<path fill-rule="evenodd" clip-rule="evenodd" d="M78.2699 47.1196C78.3501 47.1196 78.4305 47.1196 78.5107 47.1196C78.5128 47.48 78.3925 47.8122 78.1496 48.1161C77.1637 48.5739 76.241 49.1054 75.381 49.7105C74.9732 50.1198 74.6923 50.585 74.5385 51.1056C74.4388 51.0145 74.3184 50.9479 74.1773 50.9063C73.5341 51.2899 73.2933 51.8214 73.4551 52.5006C75.9487 52.6065 78.4363 52.7727 80.9181 52.9989C80.2991 53.1784 79.7375 53.4441 79.2329 53.7961C77.9038 55.1445 76.4593 56.4069 74.8996 57.5827C74.5787 57.6491 74.2575 57.7156 73.9366 57.782C73.0512 58.2169 72.3691 58.9144 71.8903 59.8746C71.8101 59.8082 71.7297 59.7417 71.6496 59.6753C71.4079 60.904 70.6454 61.8339 69.3625 62.4655C68.9554 62.1155 68.474 62.0159 67.9181 62.1665C67.9983 62.2329 68.0787 62.2995 68.1588 62.3658C67.8379 62.6981 67.5168 63.0301 67.1959 63.3623C67.276 63.4287 67.3564 63.4952 67.4366 63.5616C66.6101 64.1679 65.9281 64.8654 65.3903 65.6542C64.9729 66.043 64.4512 66.2423 63.8255 66.2521C63.8782 66.4863 63.7981 66.6856 63.5848 66.85C62.3072 67.8409 61.0233 68.8374 59.7329 69.8394C59.1713 70.072 58.6094 70.3044 58.0477 70.537C56.9572 71.4225 55.914 72.3526 54.9181 73.3271C54.0132 74.0739 52.97 74.6718 51.7885 75.1208C50.4013 76.2576 49.1577 77.4867 48.057 78.8078C47.1292 79.3152 46.3668 79.8134 45.77 80.3025C46.3316 80.3689 46.8935 80.4355 47.4551 80.5018C46.2072 80.5365 45.0034 80.6361 43.844 80.8008C41.4366 80.8008 39.0292 80.8008 36.6218 80.8008C38.3624 80.6581 40.1277 80.4588 41.9181 80.2029C41.5168 79.9703 41.1157 79.7379 40.7144 79.5053C41.148 79.4422 41.2282 79.3092 40.9552 79.1067C42.0029 78.4381 42.9658 77.7075 43.844 76.9145C43.9242 76.8812 44.0046 76.8481 44.0848 76.8148C44.2656 76.9894 44.3859 77.1887 44.4459 77.4127C44.7605 77.1592 45.1217 76.9599 45.5292 76.8148C45.1409 76.6301 44.7398 76.4639 44.3255 76.3166C45.6869 75.5216 46.8906 74.5915 47.9366 73.5264C48.2479 73.4288 48.5691 73.3955 48.8996 73.4268C48.9405 73.1633 48.8604 72.9307 48.6589 72.7292C50.1835 71.7328 51.5477 70.6034 52.7514 69.3412C54.8928 68.2335 56.8992 66.9714 58.77 65.5546C60.439 65.0035 61.803 64.1732 62.8625 63.0634C69.753 62.0041 72.9628 58.5497 72.4922 52.6999C70.852 52.5024 69.1668 52.4359 67.4366 52.5006C68.4624 52.3759 69.5055 52.2099 70.5662 52.0024C70.7475 51.6552 70.7475 51.2566 70.5662 50.8066C70.8948 49.519 71.7776 48.6554 73.2144 48.2158C73.015 48.0334 72.7743 47.9007 72.4922 47.8172C73.0784 47.8022 73.2389 47.6362 72.9736 47.3189C74.7838 47.3837 76.5491 47.3173 78.2699 47.1196Z" fill="#2A78D7"/>
<path fill-rule="evenodd" clip-rule="evenodd" d="M36.381 63.2626C35.0451 63.4462 33.6808 63.6455 32.2884 63.8605C31.4689 64.9124 30.7869 66.0418 30.2421 67.2486C28.899 68.4691 27.6149 69.7312 26.3902 71.0352C25.0125 72.0538 23.5278 72.9507 21.9365 73.7257C21.1585 74.7459 20.0352 75.3105 18.5662 75.4197C19.734 74.3571 21.0983 73.4603 22.6588 72.7292C23.9758 71.5054 25.2999 70.2763 26.631 69.0422C27.4257 67.7899 28.3084 66.5941 29.2791 65.4549C30.003 65.1388 30.6049 64.7069 31.0847 64.1595C30.8439 64.0931 30.6032 64.0265 30.3624 63.9602C31.0929 63.733 31.8151 63.6001 32.5291 63.5616C32.2082 63.4952 31.8871 63.4287 31.5661 63.3623C33.169 63.2626 34.774 63.2296 36.381 63.2626Z" fill="#2F90BC"/>
<path fill-rule="evenodd" clip-rule="evenodd" d="M36.3809 63.2627C37.1833 63.2627 37.9859 63.2627 38.7883 63.2627C38.972 63.4158 39.2127 63.5154 39.5105 63.5616C39.0962 63.7089 38.6951 63.8751 38.3068 64.0599C38.4864 64.3062 38.5666 64.5721 38.5475 64.8571C37.3631 65.2395 36.4803 65.9038 35.8994 66.85C34.5118 67.7642 33.1477 68.7276 31.8068 69.7398C31.1602 70.0125 30.5181 70.2781 29.8809 70.537C28.7653 71.7559 27.682 72.985 26.6309 74.224C25.5399 74.9953 24.4565 75.7594 23.3809 76.5159C22.7237 76.9404 22.2422 77.472 21.9365 78.1103C21.7082 78.2066 21.4675 78.2396 21.2142 78.2099C21.1341 78.6085 21.0537 79.0071 20.9735 79.4057C19.927 79.4938 19.8468 79.6598 20.7327 79.904C20.5517 80.0377 20.4713 80.2037 20.492 80.4022C18.1181 80.1236 15.8712 79.5257 13.7513 78.6085C13.6721 78.1121 13.4313 77.6804 13.0291 77.3131C13.4203 77.1431 13.5004 76.9438 13.2698 76.7152C14.2041 76.5942 15.0065 76.262 15.6772 75.7187C16.6204 75.4884 17.5834 75.3887 18.5661 75.4198C20.0351 75.3106 21.1584 74.746 21.9365 73.7258C23.5277 72.9507 25.0124 72.0539 26.3902 71.0353C27.6148 69.7313 28.8989 68.4691 30.242 67.2486C30.7868 66.0419 31.4688 64.9125 32.2883 63.8606C33.6807 63.6455 35.045 63.4462 36.3809 63.2627Z" fill="#2F8DBE"/>
<path fill-rule="evenodd" clip-rule="evenodd" d="M44.8069 63.0632C50.4241 63.0632 56.0415 63.0632 61.6587 63.0632C59.2145 63.2613 56.7269 63.3279 54.1958 63.2625C52.5908 63.2625 50.986 63.2625 49.381 63.2625C48.0944 63.2294 46.8106 63.2627 45.5291 63.3622C46.2513 63.4285 46.9736 63.4951 47.6958 63.5615C46.7872 64.3124 45.7441 64.9103 44.5661 65.3551C44.2669 65.5851 44.0262 65.851 43.8439 66.1523C42.2599 67.1026 40.6548 67.9994 39.0291 68.8428C37.4525 70.1847 35.9279 71.5798 34.455 73.0281C33.3212 73.737 32.2378 74.4678 31.2051 75.2203C30.3668 76.7043 29.2033 77.9997 27.7143 79.1066C27.7945 79.173 27.8749 79.2395 27.9551 79.3059C27.7143 79.3723 27.4736 79.4388 27.2328 79.5052C27.5537 79.7045 27.8749 79.9038 28.1958 80.1031C28.1156 80.1695 28.0352 80.236 27.9551 80.3024C26.9353 80.3692 25.9723 80.5352 25.0662 80.8006C24.5045 80.8006 23.9426 80.8006 23.381 80.8006C22.9496 80.6394 22.4681 80.5398 21.9365 80.5017C24.4301 80.1796 24.35 79.914 21.6958 79.7045C22.0167 79.6381 22.3379 79.5716 22.6588 79.5052C22.5331 79.3934 22.4529 79.2605 22.418 79.1066C23.9414 77.082 26.0279 75.5872 28.6773 74.6224C29.244 73.9871 29.9262 73.4556 30.7236 73.0281C32.839 70.5406 35.2464 68.2156 37.9458 66.0527C38.3211 65.7105 38.5216 65.3119 38.5476 64.8569C38.5667 64.5719 38.4865 64.306 38.3069 64.0597C38.6952 63.875 39.0963 63.7088 39.5106 63.5615C39.2128 63.5152 38.9721 63.4156 38.7884 63.2625C40.8388 63.3275 42.8449 63.2611 44.8069 63.0632Z" fill="#2E87C5"/>
<path fill-rule="evenodd" clip-rule="evenodd" d="M49.381 63.2626C49.7305 63.4225 50.1316 63.5221 50.5847 63.5616C49.653 63.5825 48.7702 63.7485 47.9365 64.0598C47.0626 64.9499 46.1399 65.8136 45.168 66.6507C44.68 67.1929 44.3189 67.7908 44.0847 68.4443C41.8983 69.7551 39.8922 71.2498 38.0662 72.9285C37.5452 73.1107 37.0637 73.3432 36.6217 73.626C35.7902 74.4131 35.1082 75.2766 34.5754 76.2169C33.6394 76.6597 32.9574 77.2907 32.5291 78.1102C31.5828 78.5351 30.7804 79.0997 30.1217 79.8042C29.6402 79.9703 29.1588 80.1365 28.6773 80.3025C29.6855 80.3376 30.6485 80.4372 31.5662 80.6014C32.915 80.8027 34.6002 80.8691 36.6217 80.8007C39.0291 80.8007 41.4365 80.8007 43.8439 80.8007C45.85 80.8007 47.8563 80.8007 49.8624 80.8007C51.5476 80.8007 53.2328 80.8007 54.918 80.8007C57.3254 80.8007 59.7328 80.8007 62.1402 80.8007C49.7823 81.0664 37.4241 81.0664 25.0662 80.8007C25.9723 80.5353 26.9353 80.3692 27.955 80.3025C28.0352 80.2361 28.1156 80.1696 28.1958 80.1032C27.8749 79.9039 27.5537 79.7046 27.2328 79.5053C27.4736 79.4389 27.7143 79.3724 27.955 79.306C27.8749 79.2396 27.7945 79.1731 27.7143 79.1067C29.2033 77.9998 30.3668 76.7044 31.205 75.2204C32.2378 74.4679 33.3212 73.7371 34.455 73.0282C35.9279 71.5799 37.4525 70.1848 39.0291 68.8429C40.6548 67.9995 42.2598 67.1027 43.8439 66.1524C44.0262 65.8511 44.2669 65.5852 44.5661 65.3552C45.7441 64.9104 46.7872 64.3125 47.6958 63.5616C46.9735 63.4952 46.2513 63.4286 45.5291 63.3623C46.8106 63.2628 48.0944 63.2295 49.381 63.2626Z" fill="#3888CC"/>
<path fill-rule="evenodd" clip-rule="evenodd" d="M19.77 59.0774C20.4888 60.0045 21.3716 60.8017 22.4181 61.469C22.2602 61.624 22.0597 61.7567 21.8163 61.8675C21.3343 61.4674 20.8528 61.0688 20.3718 60.6718C20.2599 60.957 20.0591 61.1893 19.77 61.3693C18.2372 61.3763 17.3946 62.0075 17.2422 63.2626C16.8734 63.6736 16.3919 63.9394 15.7978 64.0598C15.6372 64.4584 15.4769 64.857 15.3163 65.2556C13.7679 66.2046 12.4837 67.3339 11.4644 68.6436C9.80936 69.6814 8.40512 70.9104 7.25149 72.3306C6.72691 72.7266 6.28564 72.6933 5.92742 72.231C5.87686 72.5415 5.75649 72.8071 5.5663 73.0282C4.68616 72.3699 4.04434 71.5727 3.64038 70.6366C5.38888 69.8843 6.71295 68.755 7.6126 67.2486C7.95421 67.0572 8.31532 66.8912 8.69593 66.7503C9.95765 65.3732 11.4421 64.2107 13.1496 63.2626C13.7659 62.3427 14.5284 61.5124 15.4367 60.7714C16.8582 60.1496 18.3027 59.5848 19.77 59.0774Z" fill="#359CA6"/>
<path fill-rule="evenodd" clip-rule="evenodd" d="M49.3809 63.2627C50.9859 63.2627 52.5907 63.2627 54.1957 63.2627C54.7076 63.3875 55.1089 63.6531 55.3994 64.0599C54.2995 64.5486 53.1762 64.9804 52.0291 65.3553C49.8882 67.2642 47.4808 68.8585 44.8069 70.1384C44.1465 71.1515 43.3841 72.1147 42.5198 73.0282C40.2872 74.2788 38.2811 75.7403 36.5013 77.4128C35.8898 78.2281 35.288 78.9256 34.6958 79.5054C35.1409 79.7232 35.5422 79.9889 35.8995 80.3026C34.4683 80.5341 33.0238 80.6338 31.5661 80.6015C30.6484 80.4373 29.6855 80.3376 28.6772 80.3026C29.1587 80.1365 29.6402 79.9703 30.1217 79.8043C30.7804 79.0998 31.5827 78.5352 32.5291 78.1103C32.9574 77.2908 33.6394 76.6598 34.5754 76.217C35.1081 75.2767 35.7902 74.4131 36.6217 73.6261C37.0637 73.3433 37.5452 73.1107 38.0661 72.9286C39.8921 71.2499 41.8982 69.7552 44.0846 68.4444C44.3189 67.7909 44.68 67.193 45.168 66.6507C46.1398 65.8137 47.0626 64.9499 47.9365 64.0599C48.7702 63.7486 49.653 63.5826 50.5846 63.5616C50.1316 63.5222 49.7305 63.4225 49.3809 63.2627Z" fill="#2B81CC"/>
<path fill-rule="evenodd" clip-rule="evenodd" d="M28.4366 63.0632C33.8935 63.0632 39.3501 63.0632 44.8069 63.0632C42.8449 63.2611 40.8388 63.3275 38.7884 63.2625C37.986 63.2625 37.1834 63.2625 36.381 63.2625C34.7741 63.2294 33.1691 63.2625 31.5662 63.3622C31.8871 63.4285 32.2083 63.4951 32.5292 63.5615C31.8151 63.5999 31.0929 63.7329 30.3625 63.9601C30.6033 64.0264 30.844 64.093 31.0847 64.1594C30.6049 64.7068 30.0031 65.1387 29.2792 65.4548C28.3085 66.594 27.4257 67.7898 26.631 69.0421C25.3 70.2762 23.9759 71.5052 22.6588 72.7291C21.0983 73.4601 19.7341 74.357 18.5662 75.4196C17.5835 75.3885 16.6206 75.4882 15.6773 75.7186C15.0066 76.2619 14.2042 76.5941 13.2699 76.7151C13.5006 76.9436 13.4204 77.1429 13.0292 77.3129C13.4315 77.6802 13.6722 78.1119 13.7514 78.6084C12.7596 78.364 11.8768 77.9654 11.1033 77.4126C11.6139 76.8227 12.1758 76.2581 12.7885 75.7186C14.3465 74.9242 15.791 74.0273 17.1218 73.0281C17.3223 72.6958 17.5231 72.3638 17.7236 72.0316C18.7124 71.811 19.274 71.2794 19.4088 70.4372C20.9575 69.1308 22.5625 67.8685 24.2236 66.6506C24.8553 65.2276 26.0188 64.3638 27.7144 64.0597C27.6785 63.8501 27.7185 63.6508 27.8347 63.4618C28.2259 63.6436 28.4267 63.5107 28.4366 63.0632Z" fill="#3392B8"/>
<path fill-rule="evenodd" clip-rule="evenodd" d="M38.5476 64.8569C38.5216 65.3119 38.3211 65.7105 37.9458 66.0527C35.2463 68.2157 32.8389 70.5407 30.7236 73.0281C29.9262 73.4556 29.244 73.9871 28.6773 74.6225C26.0279 75.5873 23.9414 77.082 22.418 79.1066C22.4529 79.2605 22.5331 79.3934 22.6587 79.5052C22.3378 79.5716 22.0167 79.6382 21.6958 79.7045C24.3499 79.914 24.4301 80.1797 21.9365 80.5017C22.4681 80.5398 22.9496 80.6394 23.381 80.8007C22.3482 80.8609 21.3852 80.7281 20.4921 80.4021C20.4714 80.2036 20.5518 80.0376 20.7328 79.9038C19.8469 79.6597 19.9271 79.4937 20.9736 79.4056C21.0537 79.007 21.1341 78.6084 21.2143 78.2098C21.4676 78.2395 21.7083 78.2064 21.9365 78.1102C22.2423 77.4718 22.7237 76.9403 23.381 76.5158C24.4566 75.7593 25.5399 74.9952 26.631 74.2239C27.682 72.9848 28.7654 71.7558 29.881 70.5369C30.5182 70.278 31.1603 70.0123 31.8069 69.7397C33.1478 68.7275 34.5118 67.7641 35.8995 66.8499C36.4804 65.9036 37.3632 65.2394 38.5476 64.8569Z" fill="#308AC3"/>
<path fill-rule="evenodd" clip-rule="evenodd" d="M84.2885 64.2591C82.9427 71.3212 78.2885 76.2703 70.3255 79.1067C68.2185 79.7879 66.0519 80.2862 63.8255 80.6014C61.2626 80.5674 61.2626 80.4677 63.8255 80.3025C63.7453 80.2361 63.6649 80.1696 63.5848 80.1032C64.3383 79.7405 65.1409 79.5412 65.9922 79.5053C64.9233 78.8528 64.8029 78.0887 65.6311 77.2134C66.613 76.7999 67.4556 76.2352 68.1588 75.5194C69.6172 75.1028 70.7408 74.372 71.5292 73.3271C72.4175 72.6943 73.3805 72.1628 74.4181 71.7327C75.5214 70.2864 76.7251 68.8914 78.0292 67.5475C78.3287 67.4566 78.5292 67.5563 78.6311 67.8465C78.6703 67.4128 78.8708 67.0475 79.2329 66.7503C80.3073 66.3906 81.3103 65.9587 82.2422 65.4549C82.5111 65.7437 82.6716 66.0759 82.7236 66.4514C82.7357 65.2066 83.0164 64.0108 83.5662 62.864C83.4788 62.7279 83.3987 62.595 83.3255 62.4654C83.3209 62.1545 83.2408 61.8556 83.0848 61.5686C83.1873 60.8117 83.6286 60.5793 84.4088 60.8711C84.5694 61.7346 84.5694 62.5984 84.4088 63.4619C84.3287 63.1297 84.2483 62.7977 84.1681 62.4654C84.0155 63.0743 84.0554 63.6722 84.2885 64.2591Z" fill="#2B69EB"/>
<path fill-rule="evenodd" clip-rule="evenodd" d="M61.6587 63.0632C62.06 63.0632 62.4611 63.0632 62.8624 63.0632C61.8029 64.1731 60.4389 65.0034 58.7698 65.5544C56.899 66.9712 54.8927 68.2334 52.7513 69.3411C51.5476 70.6032 50.1833 71.7326 48.6587 72.7291C48.8602 72.9306 48.9404 73.1632 48.8995 73.4267C48.5689 73.3954 48.2478 73.4287 47.9365 73.5263C46.8905 74.5913 45.6868 75.5215 44.3254 76.3165C44.7397 76.4637 45.1408 76.63 45.5291 76.8147C45.1215 76.9598 44.7604 77.1591 44.4458 77.4126C44.3858 77.1886 44.2655 76.9893 44.0847 76.8147C44.0045 76.848 43.9241 76.8811 43.8439 76.9144C42.9657 77.7074 42.0027 78.438 40.955 79.1066C41.228 79.3091 41.1479 79.442 40.7143 79.5052C41.1156 79.7378 41.5167 79.9702 41.918 80.2027C40.1276 80.4586 38.3623 80.6579 36.6217 80.8006C34.6002 80.869 32.915 80.8026 31.5662 80.6013C33.0238 80.6336 34.4683 80.534 35.8995 80.3024C35.5422 79.9887 35.1409 79.723 34.6958 79.5052C35.288 78.9255 35.8899 78.2279 36.5013 77.4126C38.2811 75.7401 40.2872 74.2787 42.5199 73.0281C43.3841 72.1145 44.1465 71.1513 44.8069 70.1383C47.4808 68.8584 49.8882 67.264 52.0291 65.3551C53.1762 64.9803 54.2995 64.5484 55.3995 64.0597C55.1089 63.653 54.7076 63.3873 54.1958 63.2625C56.7269 63.3279 59.2145 63.2613 61.6587 63.0632Z" fill="#2B7ED1"/>
<path fill-rule="evenodd" clip-rule="evenodd" d="M83.3253 62.4655C83.3985 62.595 83.4787 62.728 83.5661 62.8641C83.0162 64.0108 82.7355 65.2066 82.7235 66.4514C82.6715 66.0759 82.5109 65.7437 82.242 65.4549C81.3101 65.9588 80.3072 66.3906 79.2328 66.7504C78.8707 67.0475 78.6701 67.4128 78.6309 67.8465C78.5291 67.5563 78.3285 67.4567 78.0291 67.5476C76.725 68.8914 75.5213 70.2865 74.4179 71.7328C73.3804 72.1629 72.4174 72.6944 71.5291 73.3272C70.7406 74.3721 69.6171 75.1029 68.1587 75.5194C67.4555 76.2353 66.6129 76.7999 65.6309 77.2134C64.8028 78.0888 64.9231 78.8529 65.992 79.5054C65.1408 79.5412 64.3381 79.7405 63.5846 80.1032C63.6648 80.1696 63.7452 80.2362 63.8254 80.3025C61.2624 80.4678 61.2624 80.5674 63.8254 80.6015C63.3181 80.7944 62.7562 80.861 62.1402 80.8008C59.7328 80.8008 57.3254 80.8008 54.918 80.8008C55.4252 80.6079 55.9871 80.5413 56.6032 80.6015C57.6711 80.6593 58.7144 80.5596 59.7328 80.3025C60.0537 80.1696 60.0537 80.0369 59.7328 79.9039C59.8934 79.8376 60.0537 79.771 60.2143 79.7047C59.8934 79.3061 59.8934 78.9075 60.2143 78.5089C61.1772 78.1103 62.1402 77.7117 63.1031 77.3131C63.7486 76.7455 64.551 76.4133 65.5106 76.3166C67.2022 75.1531 68.9676 74.0903 70.8068 73.1279C71.0064 72.7659 71.2072 72.4006 71.4087 72.0317C72.4087 71.6026 73.0505 70.9384 73.3346 70.0388C73.4148 70.1051 73.4952 70.1717 73.5754 70.2381C74.5742 69.4927 75.2162 68.5626 75.5013 67.4479C76.5993 66.6228 77.6427 65.7593 78.6309 64.857C78.9282 63.1216 80.0518 62.1915 82.0013 62.0669C82.3222 62.1998 82.5629 62.3991 82.7235 62.6648C82.885 62.5149 83.0856 62.4483 83.3253 62.4655Z" fill="#2A6BE8"/>
</svg>
