<svg width="85" height="63" viewBox="0 0 85 63" fill="none" xmlns="http://www.w3.org/2000/svg">
<path fill-rule="evenodd" clip-rule="evenodd" d="M33.0107 4.37028C35.6588 4.37028 38.307 4.37028 40.9551 4.37028C40.3644 4.5937 39.7223 4.75971 39.0292 4.86853C39.3114 4.95203 39.5521 5.08476 39.7514 5.26712C39.1094 5.53278 38.6279 5.93137 38.307 6.4629C36.2022 6.75706 34.3564 7.48768 32.77 8.65516C33.14 8.87638 33.3003 9.17533 33.2514 9.552C32.4062 9.63152 31.6038 9.76445 30.844 9.95059C29.5602 9.95059 28.2761 9.95059 26.9922 9.95059C27.4388 9.64507 27.88 9.31284 28.3163 8.95411C28.8536 7.86495 29.5758 6.86847 30.4829 5.96466C30.6276 4.69115 31.4702 4.15963 33.0107 4.37028Z" fill="#3CAD81"/>
<path fill-rule="evenodd" clip-rule="evenodd" d="M50.5846 4.37042C51.5174 4.28771 52.4002 4.38736 53.2327 4.66936C51.9785 5.83724 50.4539 6.7008 48.6587 7.26022C48.395 7.98706 47.9136 8.58495 47.2142 9.05389C44.9226 9.48138 42.5956 9.71396 40.2327 9.75143C39.9658 9.59399 39.6448 9.49434 39.2698 9.45249C39.5907 9.38612 39.9118 9.31955 40.2327 9.25319C40.759 7.90255 41.8823 7.10537 43.6031 6.86163C44.4358 6.02219 45.3988 5.32465 46.492 4.76901C47.8878 4.64425 49.2518 4.51132 50.5846 4.37042Z" fill="#34A58C"/>
<path fill-rule="evenodd" clip-rule="evenodd" d="M33.0105 4.37044C33.0105 4.30407 33.0105 4.23751 33.0105 4.17114C41.3562 4.17114 49.7018 4.17114 58.0475 4.17114C58.3891 4.36067 58.7902 4.42704 59.2512 4.37044C59.3518 4.51433 59.5122 4.61398 59.7327 4.66938C59.6525 4.86868 59.5721 5.06798 59.492 5.26727C57.4425 5.71768 55.6769 6.58124 54.1957 7.85813C54.3562 7.9245 54.5166 7.99106 54.6771 8.05743C53.9491 8.35896 53.3071 8.75756 52.7512 9.25321C51.4117 9.30283 50.1276 9.46885 48.8994 9.75145C48.6606 9.71717 48.5002 9.78374 48.4179 9.95075C45.1277 9.95075 41.8377 9.95075 38.5475 9.95075C39.0548 9.75783 39.6167 9.69126 40.2327 9.75145C42.5956 9.71398 44.9226 9.4814 47.2142 9.05391C47.9135 8.58497 48.395 7.98708 48.6586 7.26024C50.4538 6.70082 51.9784 5.83726 53.2327 4.66938C52.4002 4.38738 51.5174 4.28773 50.5846 4.37044C47.3748 4.37044 44.1647 4.37044 40.9549 4.37044C38.3068 4.37044 35.6586 4.37044 33.0105 4.37044Z" fill="#38A694"/>
<path fill-rule="evenodd" clip-rule="evenodd" d="M58.0476 4.17114C63.3439 4.17114 68.6402 4.17114 73.9365 4.17114C73.3421 4.33397 72.7003 4.43362 72.0105 4.47009C72.2051 4.53147 72.3656 4.63112 72.492 4.76903C72.2173 4.95338 72.2173 5.1196 72.492 5.26727C72.2361 5.50404 71.915 5.60369 71.5291 5.56622C71.3784 6.12724 71.0572 6.62548 70.5661 7.06094C69.9459 7.21679 69.4645 7.51574 69.1217 7.95778C67.6632 7.94084 66.6201 8.47236 65.992 9.55215C66.4191 9.68907 66.8204 9.85508 67.1957 10.0504C66.8845 10.148 66.5633 10.1813 66.2328 10.15C60.3007 9.95832 54.3623 9.89195 48.418 9.95075C48.5003 9.78374 48.6606 9.71717 48.8994 9.75145C51.629 9.78473 54.3575 9.75145 57.0846 9.6518C57.0045 9.58544 56.9241 9.51887 56.8439 9.4525C57.0846 9.38614 57.3254 9.31957 57.5661 9.25321C57.887 9.12028 57.887 8.98755 57.5661 8.85461C60.2903 8.27546 62.9385 7.67757 65.5105 7.06094C65.0498 6.77934 64.7289 6.41383 64.5476 5.96481C64.9874 5.56881 65.2282 5.10365 65.2698 4.56974C63.2688 4.42226 61.2624 4.35589 59.2513 4.37044C58.7903 4.42704 58.3892 4.36067 58.0476 4.17114Z" fill="#329D9F"/>
<path fill-rule="evenodd" clip-rule="evenodd" d="M40.9551 4.37036C44.1649 4.37036 47.3749 4.37036 50.5847 4.37036C49.252 4.51126 47.8879 4.64419 46.4921 4.76895C45.3989 5.32459 44.436 6.02213 43.6032 6.86157C41.8824 7.10531 40.7591 7.9025 40.2329 9.25313C39.912 9.3195 39.5908 9.38606 39.2699 9.45243C39.645 9.49428 39.9659 9.59393 40.2329 9.75137C39.6168 9.69118 39.0549 9.75775 38.5477 9.95067C35.9797 9.95067 33.412 9.95067 30.844 9.95067C31.6038 9.76453 32.4062 9.63159 33.2514 9.55207C33.3003 9.1754 33.1399 8.87646 32.7699 8.65524C34.3564 7.48776 36.2022 6.75714 38.3069 6.46298C38.6279 5.93145 39.1093 5.53286 39.7514 5.2672C39.5521 5.08484 39.3113 4.95211 39.0292 4.8686C39.7223 4.75979 40.3643 4.59377 40.9551 4.37036Z" fill="#37A986"/>
<path fill-rule="evenodd" clip-rule="evenodd" d="M73.9366 4.17092C77.2694 4.10535 80.5594 4.17172 83.807 4.37022C81.719 4.33713 79.6325 4.37022 77.5477 4.46987C77.949 4.53623 78.3501 4.6028 78.7514 4.66916C78.0415 5.78502 76.9182 6.44928 75.3811 6.66213C74.752 7.08524 74.1904 7.5502 73.6959 8.05721C71.7396 8.0024 70.2952 8.66666 69.3626 10.0502C68.7761 10.0396 68.2145 10.0727 67.6774 10.1498C67.856 10.3067 68.0565 10.4394 68.2792 10.5484C68.6158 10.4386 68.9369 10.3722 69.2422 10.3491C69.3079 10.6682 69.4283 10.9671 69.6033 11.246C69.5484 11.3255 69.468 11.3586 69.3626 11.3456C68.3303 10.8844 67.2869 10.4858 66.2329 10.1498C66.5635 10.1811 66.8846 10.1478 67.1959 10.0502C66.8206 9.85486 66.4193 9.68885 65.9922 9.55193C66.6203 8.47214 67.6634 7.94062 69.1218 7.95756C69.4646 7.51552 69.9461 7.21657 70.5663 7.06072C71.0574 6.62526 71.3785 6.12702 71.5292 5.566C71.9151 5.60347 72.2363 5.50382 72.4922 5.26705C72.2175 5.11937 72.2175 4.95316 72.4922 4.76881C72.3658 4.6309 72.2052 4.53125 72.0107 4.46987C72.7004 4.43339 73.3422 4.33375 73.9366 4.17092Z" fill="#3199A6"/>
<path fill-rule="evenodd" clip-rule="evenodd" d="M59.2513 4.37037C61.2624 4.35582 63.2687 4.42219 65.2698 4.56967C65.2281 5.10358 64.9874 5.56874 64.5475 5.96474C64.7288 6.41376 65.0497 6.77927 65.5105 7.06088C62.9384 7.6775 60.2903 8.27539 57.5661 8.85455C57.887 8.98748 57.887 9.12021 57.5661 9.25314C57.3253 9.3195 57.0846 9.38607 56.8439 9.45244C56.924 9.5188 57.0044 9.58537 57.0846 9.65173C54.3575 9.75138 51.6289 9.78466 48.8994 9.75138C50.1277 9.46878 51.4118 9.30276 52.7513 9.25314C53.3071 8.75749 53.9492 8.35889 54.6772 8.05736C54.5166 7.99099 54.3563 7.92443 54.1957 7.85806C55.677 6.58117 57.4426 5.71762 59.492 5.2672C59.5722 5.06791 59.6526 4.86861 59.7327 4.66932C59.5122 4.61391 59.3519 4.51426 59.2513 4.37037Z" fill="#31A298"/>
<path fill-rule="evenodd" clip-rule="evenodd" d="M82.3624 6.16405C82.1279 7.07364 82.1279 7.97048 82.3624 8.85456C81.8142 8.89601 81.2928 9.06222 80.7976 9.3528C80.385 9.0688 80.064 9.13517 79.8346 9.5521C79.6618 9.36256 79.4612 9.32948 79.2328 9.45245C77.746 10.5175 76.3015 11.6136 74.8994 12.7408C75.7524 13.1349 76.6349 13.2678 77.5476 13.1394C77.7934 13.2395 77.8336 13.3722 77.668 13.538C77.0115 14.182 76.249 14.7133 75.3809 15.1324C74.683 16.6524 73.3989 17.6822 71.5291 18.2215C71.6897 18.2879 71.85 18.3544 72.0106 18.4208C71.3685 18.5537 70.7267 18.6865 70.0846 18.8194C69.9508 18.8957 69.8706 18.9954 69.8439 19.1183C69.2822 19.1183 68.7204 19.1183 68.1587 19.1183C68.132 18.9954 68.0518 18.8957 67.918 18.8194C69.3013 17.6117 70.9063 16.6152 72.7328 15.8299C73.5031 15.0369 74.3055 14.2398 75.1402 13.4384C74.5376 13.1952 73.8958 13.1289 73.2143 13.2391C72.747 12.8772 72.5864 12.4786 72.7328 12.0433C72.1548 11.8829 72.195 11.7169 72.8531 11.5451C72.9892 10.5886 73.5511 9.85802 74.5383 9.3528C74.6185 9.48573 74.6989 9.61846 74.7791 9.75139C75.2177 8.95341 75.9801 8.52153 77.0661 8.45596C77.239 8.05996 77.4797 7.69445 77.7883 7.35983C78.8895 6.87813 80.0128 6.44626 81.1587 6.0644C81.5836 5.93685 81.9849 5.97014 82.3624 6.16405Z" fill="#2C92B1"/>
<path fill-rule="evenodd" clip-rule="evenodd" d="M18.8069 4.37033C23.4996 4.17163 28.2343 4.10526 33.0106 4.17103C33.0106 4.2374 33.0106 4.30396 33.0106 4.37033C31.4701 4.15967 30.6275 4.6912 30.4828 5.9647C29.5757 6.86851 28.8535 7.865 28.3161 8.95415C27.8799 9.31289 27.4386 9.64511 26.9921 9.95064C23.698 10.5539 21.13 12.0155 19.2884 14.3352C18.6718 13.9013 18.6718 13.4694 19.2884 13.0397C19.1783 12.9572 19.0979 12.8576 19.0476 12.7408C19.4179 12.3251 19.9795 11.9265 20.7328 11.545C20.4172 11.3939 20.2968 11.1946 20.3717 10.9471C22.3138 9.92732 23.4773 8.46588 23.8624 6.56259C24.193 6.59388 24.5141 6.5606 24.8254 6.46294C24.6997 6.35114 24.6196 6.21821 24.5847 6.06435C24.9275 5.58564 25.088 5.12068 25.0661 4.66927C22.9924 4.41079 20.9059 4.31114 18.8069 4.37033Z" fill="#58BB82"/>
<path fill-rule="evenodd" clip-rule="evenodd" d="M18.5661 4.5696C18.5661 4.43667 18.6462 4.3703 18.8068 4.3703C20.9058 4.31111 22.9923 4.41076 25.0661 4.66925C25.088 5.12065 24.9274 5.58561 24.5846 6.06432C24.6195 6.21818 24.6997 6.35111 24.8253 6.46292C24.514 6.56057 24.1929 6.59386 23.8624 6.56257C23.2124 6.50856 22.5703 6.44219 21.9364 6.36327C21.7905 7.61585 21.2289 8.71198 20.2513 9.65167C20.3314 9.71803 20.4118 9.7846 20.492 9.85096C18.4329 11.4896 16.3866 13.1172 14.3531 14.7337C13.1708 16.3773 11.646 17.7724 9.77904 18.919C8.27153 20.7322 6.62655 22.4593 4.84386 24.1007C3.15844 25.264 1.67379 26.5927 0.390163 28.0866C0.29796 27.9758 0.17759 27.9094 0.0290527 27.8873C0.0290527 26.6915 0.0290527 25.4958 0.0290527 24.3C0.185775 24.4178 0.346349 24.5505 0.510534 24.6986C0.845644 24.4783 1.12659 24.2125 1.35313 23.9014C1.70413 24.1499 2.06524 24.1499 2.43646 23.9014C3.06864 23.4384 3.7107 22.9733 4.36238 22.5063C8.90877 18.0431 13.6032 13.6585 18.4457 9.35272C19.3398 8.25181 19.7009 7.05603 19.529 5.76538C19.7741 5.49593 20.095 5.29663 20.492 5.16749C20.2173 4.98314 20.2173 4.81693 20.492 4.66925C19.855 4.5702 19.2129 4.53691 18.5661 4.5696Z" fill="#66C37F"/>
<path fill-rule="evenodd" clip-rule="evenodd" d="M15.1958 4.96827C15.6048 4.93639 16.0061 4.96947 16.3995 5.06792C16.1713 5.16418 15.9305 5.19727 15.6773 5.16757C15.5829 5.69491 15.5829 6.19315 15.6773 6.6623C15.2759 7.12726 14.8749 7.59241 14.4735 8.05737C14.5537 8.12374 14.6341 8.1903 14.7143 8.25667C13.266 10.0565 11.6208 11.7505 9.77911 13.3387C8.68543 14.9423 7.28119 16.3374 5.56615 17.524C5.20504 17.9889 4.84393 18.4541 4.48282 18.919C4.16528 19.315 3.724 19.5476 3.15875 19.6166C2.42714 20.3552 1.62475 21.0527 0.751341 21.7092C0.610267 21.6675 0.489897 21.601 0.39023 21.5099C0.270101 20.5822 0.229897 19.6523 0.26986 18.7197C0.198841 18.2743 0.279249 17.8757 0.5106 17.524C0.472082 17.8626 0.512045 18.1948 0.630971 18.5204C2.46854 16.5012 4.43443 14.5748 6.52911 12.7408C7.07824 12.3317 7.68009 11.9995 8.33467 11.7444C9.54366 10.0107 10.9079 8.34994 12.4273 6.76195C12.5462 6.43629 12.5861 6.10407 12.5476 5.76546C12.3069 5.76546 12.0661 5.76546 11.8254 5.76546C12.8784 5.37663 14.0017 5.11097 15.1958 4.96827Z" fill="#7DCD79"/>
<path fill-rule="evenodd" clip-rule="evenodd" d="M84.2884 4.56974C84.437 4.59187 84.5573 4.65823 84.6495 4.76904C84.7699 6.49495 84.8099 8.22225 84.7699 9.95075C84.6897 9.95075 84.6093 9.95075 84.5292 9.95075C84.565 9.74109 84.5251 9.5418 84.4088 9.35286C84.3286 9.68509 84.2482 10.0171 84.1681 10.3493C84.078 10.1668 83.9576 10.0006 83.8069 9.85111C83.2831 9.81862 82.8418 9.65261 82.4829 9.35286C82.3625 9.55216 82.2421 9.75146 82.1218 9.95075C81.081 10.5813 80.0377 11.2123 78.9921 11.8441C77.8385 12.1665 76.7152 12.4324 75.6218 12.6413C76.4586 12.8912 77.3411 13.0241 78.2699 13.0399C77.9969 13.2423 78.0771 13.3753 78.5107 13.4384C77.6815 14.0585 77.1599 14.8224 76.9458 15.7304C75.4997 16.1656 74.7373 17.0292 74.6588 18.3212C73.8612 18.4298 73.0588 18.5295 72.2514 18.6202C72.3316 18.6865 72.412 18.7531 72.4921 18.8195C72.0391 18.8589 71.638 18.9586 71.2884 19.1184C70.807 19.1184 70.3255 19.1184 69.844 19.1184C69.8707 18.9954 69.9509 18.8958 70.0847 18.8195C70.7268 18.6865 71.3686 18.5538 72.0107 18.4209C71.8501 18.3545 71.6898 18.2879 71.5292 18.2216C73.399 17.6823 74.6831 16.6525 75.381 15.1325C76.2491 14.7133 77.0116 14.182 77.6681 13.5381C77.8337 13.3723 77.7935 13.2395 77.5477 13.1395C76.635 13.2678 75.7525 13.1349 74.8995 12.7409C76.3016 11.6137 77.7461 10.5176 79.2329 9.45251C79.4613 9.32955 79.6619 9.36263 79.8347 9.55216C80.0642 9.13523 80.3851 9.06887 80.7977 9.35286C81.2929 9.06229 81.8143 8.89608 82.3625 8.85462C82.128 7.97054 82.128 7.07371 82.3625 6.16412C82.2778 4.99365 82.9198 4.46212 84.2884 4.56974Z" fill="#2C8FB4"/>
<path fill-rule="evenodd" clip-rule="evenodd" d="M18.5663 4.56968C19.2131 4.537 19.8552 4.57028 20.4922 4.66933C20.2175 4.81701 20.2175 4.98322 20.4922 5.16757C20.0952 5.29672 19.7743 5.49601 19.5292 5.76546C19.7011 7.05611 19.34 8.25189 18.4459 9.3528C13.6034 13.6586 8.90896 18.0431 4.36258 22.5064C3.71089 22.9733 3.06884 23.4385 2.43665 23.9015C2.06543 24.15 1.70432 24.15 1.35332 23.9015C1.12678 24.2126 0.845841 24.4784 0.51073 24.6986C0.346545 24.5506 0.185971 24.4178 0.0292488 24.3001C-0.0494734 22.4037 0.0306932 20.5437 0.269989 18.7197C0.230026 19.6523 0.27023 20.5822 0.39036 21.5099C0.490026 21.601 0.610396 21.6675 0.75147 21.7092C1.62488 21.0527 2.42726 20.3552 3.15888 19.6166C3.72413 19.5476 4.16541 19.315 4.48295 18.919C4.84406 18.4541 5.20517 17.9889 5.56628 17.524C7.28132 16.3374 8.68556 14.9423 9.77924 13.3387C11.6209 11.7505 13.2661 10.0565 14.7144 8.25667C14.6343 8.19031 14.5538 8.12374 14.4737 8.05737C14.875 7.59242 15.2761 7.12726 15.6774 6.6623C15.583 6.19315 15.583 5.69491 15.6774 5.16757C15.9306 5.19727 16.1714 5.16418 16.3996 5.06792C16.0062 4.96947 15.6049 4.93639 15.1959 4.96828C16.2506 4.62728 17.3739 4.49455 18.5663 4.56968Z" fill="#71C77D"/>
<path fill-rule="evenodd" clip-rule="evenodd" d="M26.9921 9.95064C28.276 9.95064 29.5601 9.95064 30.8439 9.95064C33.4119 9.95064 35.9797 9.95064 38.5476 9.95064C41.8378 9.95064 45.1278 9.95064 48.418 9.95064C54.3624 9.89185 60.3007 9.95822 66.2328 10.1499C67.2868 10.486 68.3301 10.8845 69.3624 11.3457C70.2284 11.7953 71.031 12.3269 71.7698 12.9401C68.7204 13.073 65.6712 13.2058 62.6217 13.3387C57.122 14.2377 53.9119 16.9613 52.9921 21.5098C52.7545 22.4675 52.6741 23.464 52.7513 24.4993C52.6777 25.0743 52.7578 25.6058 52.9921 26.0937C53.2056 26.8747 53.5268 27.6053 53.955 28.2859C54.2918 29.3091 54.9336 30.1727 55.881 30.8768C56.8172 32.0497 58.1013 32.8468 59.7328 33.2684C59.7328 33.3347 59.7328 33.4013 59.7328 33.4676C59.6647 33.6249 59.5443 33.7578 59.3717 33.8662C59.33 34.6716 59.2097 35.4688 59.0106 36.2578C58.8695 36.2161 58.7491 36.1496 58.6495 36.0585C58.6093 36.2911 58.5693 36.5235 58.5291 36.756C58.819 37.3533 59.0195 37.9845 59.131 38.6494C59.0433 40.3597 59.0835 42.0205 59.2513 43.6318C58.8105 43.7418 58.4095 43.7418 58.0476 43.6318C57.8343 43.7962 57.7542 43.9955 57.8069 44.2297C50.4265 44.4345 40.1548 44.5009 26.9921 44.429C25.7824 44.3887 24.6588 44.1228 23.6217 43.6318C23.1807 43.4827 22.7794 43.2834 22.418 43.0339C21.3715 42.3666 20.4887 41.5695 19.7699 40.6423C19.5291 40.2437 19.2884 39.8451 19.0477 39.4465C18.6531 38.478 18.4123 37.4815 18.3254 36.4571C18.3254 30.2789 18.3254 24.1007 18.3254 17.9225C18.338 17.1855 18.4184 16.4547 18.5662 15.7302C18.8637 15.302 19.1045 14.837 19.2884 14.3352C21.1301 12.0156 23.698 10.5539 26.9921 9.95064Z" fill="#FBFDFB"/>
<path fill-rule="evenodd" clip-rule="evenodd" d="M11.8256 5.76538C12.0663 5.76538 12.307 5.76538 12.5478 5.76538C12.5863 6.10399 12.5463 6.43621 12.4274 6.76186C10.9081 8.34986 9.54382 10.0106 8.33482 11.7443C7.68025 11.9994 7.0784 12.3316 6.52927 12.7408C4.43458 14.5747 2.4687 16.5011 0.631124 18.5204C0.512198 18.1947 0.472235 17.8625 0.510754 17.5239C1.58085 11.8374 5.35229 7.91779 11.8256 5.76538Z" fill="#88D176"/>
<path fill-rule="evenodd" clip-rule="evenodd" d="M84.5291 9.95067C84.6215 10.9147 84.4609 11.8446 84.0476 12.7408C83.0574 13.136 82.0143 13.435 80.918 13.6377C79.6411 15.2249 78.1966 16.6863 76.5846 18.0222C75.6301 18.6181 74.587 18.9836 73.455 19.1183C72.7328 19.1183 72.0106 19.1183 71.2883 19.1183C71.6379 18.9585 72.039 18.8588 72.492 18.8194C72.4119 18.753 72.3315 18.6864 72.2513 18.6201C73.0587 18.5294 73.8611 18.4298 74.6587 18.3211C74.7372 17.0291 75.4996 16.1655 76.9457 15.7303C77.1598 14.8223 77.6814 14.0584 78.5105 13.4384C78.077 13.3752 77.9968 13.2423 78.2698 13.0398C77.341 13.024 76.4585 12.8911 75.6217 12.6412C76.7151 12.4323 77.8384 12.1665 78.992 11.844C80.0376 11.2122 81.0809 10.5812 82.1217 9.95067C82.242 9.75138 82.3624 9.55208 82.4828 9.35278C82.8417 9.65253 83.283 9.81854 83.8068 9.85102C83.9575 10.0005 84.0779 10.1667 84.1679 10.3493C84.2481 10.017 84.3285 9.68501 84.4087 9.35278C84.525 9.54172 84.5649 9.74101 84.5291 9.95067Z" fill="#2A8CB9"/>
<path fill-rule="evenodd" clip-rule="evenodd" d="M83.8068 4.37031C84.0456 4.33603 84.206 4.4026 84.2883 4.56961C82.9197 4.46199 82.2776 4.99351 82.3624 6.16398C81.9849 5.97006 81.5836 5.93678 81.1587 6.06433C80.0128 6.44618 78.8895 6.87806 77.7883 7.35976C77.4797 7.69438 77.2389 8.05989 77.0661 8.45589C75.9801 8.52146 75.2177 8.95334 74.7791 9.75132C74.6989 9.61839 74.6185 9.48566 74.5383 9.35273C73.551 9.85794 72.9892 10.5886 72.8531 11.545C72.195 11.7168 72.1547 11.8828 72.7328 12.0432C72.5864 12.4785 72.747 12.8771 73.2142 13.239C73.8958 13.1288 74.5376 13.1952 75.1402 13.4383C74.3055 14.2397 73.5031 15.0369 72.7328 15.8299C70.9063 16.6151 69.3013 17.6116 67.918 18.8193C68.0518 18.8957 68.132 18.9953 68.1587 19.1183C67.0352 19.1183 65.9119 19.1183 64.7883 19.1183C65.9672 17.9354 67.4921 16.9057 69.3624 16.0292C70.3095 15.3312 71.1119 14.5673 71.7698 13.7373C71.7799 13.4674 71.7799 13.2015 71.7698 12.9401C71.031 12.3268 70.2283 11.7953 69.3624 11.3457C69.4678 11.3586 69.5483 11.3256 69.6031 11.246C69.4281 10.9672 69.3078 10.6683 69.242 10.3492C68.9368 10.3723 68.6156 10.4387 68.2791 10.5485C68.0564 10.4395 67.8558 10.3068 67.6772 10.1499C68.2143 10.0728 68.776 10.0397 69.3624 10.0503C70.295 8.66675 71.7395 8.00249 73.6957 8.0573C74.1902 7.55029 74.7519 7.08533 75.3809 6.66222C76.918 6.44937 78.0413 5.78512 78.7513 4.66926C78.35 4.60289 77.9489 4.53632 77.5476 4.46996C79.6324 4.37031 81.7189 4.33723 83.8068 4.37031Z" fill="#2D95AB"/>
<path fill-rule="evenodd" clip-rule="evenodd" d="M84.5291 9.95068C84.6093 9.95068 84.6897 9.95068 84.7699 9.95068C84.7699 10.6815 84.7699 11.4121 84.7699 12.1429C84.4408 13.1038 84.1598 14.1002 83.9273 15.1324C83.5197 15.4367 83.0782 15.7024 82.6032 15.9296C82.03 15.7636 81.4684 15.8299 80.918 16.1289C79.9298 16.8258 79.0472 17.623 78.2699 18.5204C77.7648 18.6115 77.3637 18.8108 77.0662 19.1183C75.8625 19.1183 74.6588 19.1183 73.4551 19.1183C74.587 18.9836 75.6302 18.6181 76.5847 18.0222C78.1967 16.6863 79.6411 15.2249 80.918 13.6377C82.0144 13.435 83.0575 13.136 84.0477 12.7408C84.461 11.8446 84.6216 10.9147 84.5291 9.95068Z" fill="#2987BE"/>
<path fill-rule="evenodd" clip-rule="evenodd" d="M62.6217 13.3386C62.0988 13.5981 61.5369 13.8305 60.9365 14.0362C61.8766 14.5294 61.8766 15.0609 60.9365 15.6305C57.6516 16.9543 55.2844 18.9805 53.8347 21.7091C53.6741 21.9747 53.5138 21.9747 53.3532 21.7091C53.0915 22.1938 52.9711 22.1272 52.9921 21.5098C53.9119 16.9612 57.122 14.2377 62.6217 13.3386Z" fill="#36A596"/>
<path fill-rule="evenodd" clip-rule="evenodd" d="M84.7699 12.1428C84.7699 13.6043 84.7699 15.0659 84.7699 16.5273C84.4177 17.066 84.2171 17.6639 84.168 18.321C83.4896 18.1959 82.8475 17.9966 82.2421 17.7231C81.4175 17.9406 80.8157 18.3724 80.4365 19.0186C79.8096 19.0963 79.2478 19.2625 78.7513 19.5168C78.2749 19.1844 77.7133 19.0516 77.0662 19.1182C77.3637 18.8107 77.7648 18.6114 78.2699 18.5203C79.0472 17.6229 79.9298 16.8257 80.918 16.1288C81.4683 15.8298 82.03 15.7634 82.6032 15.9295C83.0782 15.7023 83.5197 15.4366 83.9273 15.1323C84.1598 14.1001 84.4408 13.1036 84.7699 12.1428Z" fill="#2983C3"/>
<path fill-rule="evenodd" clip-rule="evenodd" d="M23.8624 6.56258C23.4772 8.46586 22.3137 9.9273 20.3716 10.9471C20.2968 11.1946 20.4171 11.3939 20.7327 11.545C19.9795 11.9264 19.4178 12.325 19.0476 12.7408C19.0979 12.8576 19.1783 12.9572 19.2883 13.0397C18.6718 13.4694 18.6718 13.9013 19.2883 14.3351C19.1044 14.837 18.8636 15.3019 18.5661 15.7302C18.4043 15.5774 18.2038 15.4444 17.9642 15.3316C17.762 15.9223 17.5213 15.9887 17.242 15.5309C15.462 16.7731 13.9776 18.2348 12.7883 19.9155C12.984 20.1773 13.2248 20.4099 13.5105 20.613C12.548 21.3444 11.8258 22.2082 11.3439 23.2039C7.39571 25.2355 3.62427 27.461 0.0290527 29.8803C0.0290527 29.216 0.0290527 28.5516 0.0290527 27.8873C0.17759 27.9094 0.29796 27.9758 0.390163 28.0866C1.67379 26.5927 3.15844 25.264 4.84386 24.1007C6.62655 22.4593 8.27153 20.7322 9.77904 18.919C11.646 17.7724 13.1708 16.3773 14.3531 14.7337C16.3866 13.1172 18.4329 11.4896 20.492 9.85097C20.4118 9.78461 20.3314 9.71804 20.2513 9.65168C21.2289 8.71199 21.7905 7.61586 21.9364 6.36328C22.5703 6.4422 23.2124 6.50857 23.8624 6.56258Z" fill="#5BC082"/>
<path fill-rule="evenodd" clip-rule="evenodd" d="M84.7697 16.5273C84.7697 17.1916 84.7697 17.8561 84.7697 18.5203C84.6361 19.4656 84.3552 20.3955 83.9271 21.3105C83.6062 21.3105 83.2851 21.3105 82.9642 21.3105C82.6298 20.9663 82.2285 20.7004 81.7605 20.5133C81.0963 20.888 80.3741 21.1536 79.5938 21.3105C79.4332 20.5133 79.2729 20.5133 79.1123 21.3105C79.0565 21.0639 78.9361 20.8646 78.7512 20.7126C78.7512 20.314 78.7512 19.9154 78.7512 19.5168C79.2476 19.2625 79.8095 19.0963 80.4364 19.0186C80.8156 18.3724 81.4174 17.9406 82.242 17.7231C82.8474 17.9966 83.4895 18.1959 84.1679 18.321C84.217 17.6639 84.4175 17.066 84.7697 16.5273Z" fill="#287ECA"/>
<path fill-rule="evenodd" clip-rule="evenodd" d="M23.6217 17.9226C27.3941 17.8894 31.1658 17.9226 34.9365 18.0223C34.6317 18.0839 34.3508 18.1835 34.0939 18.3212C34.1606 18.8456 34.1204 19.3438 33.9735 19.816C34.455 20.0816 34.9365 20.3475 35.418 20.6131C31.4867 20.7128 27.5547 20.7461 23.6217 20.7128C22.4464 20.1336 22.1654 19.3365 22.7791 18.3212C22.9755 18.0576 23.2565 17.9248 23.6217 17.9226Z" fill="#C5E2E7"/>
<path fill-rule="evenodd" clip-rule="evenodd" d="M23.6218 17.9226C32.0872 17.6906 40.5936 17.6573 49.1403 17.8229C50.4309 18.3463 50.6717 19.1102 49.8625 20.1148C49.506 20.3101 49.1849 20.5427 48.8996 20.8124C40.433 20.978 32.0071 20.9447 23.6218 20.7127C27.5548 20.746 31.4868 20.7127 35.4181 20.6131C34.9366 20.3474 34.4551 20.0816 33.9737 19.8159C34.1205 19.3438 34.1607 18.8455 34.094 18.3212C34.3509 18.1835 34.6319 18.0838 34.9366 18.0222C31.1659 17.9226 27.3942 17.8893 23.6218 17.9226Z" fill="#E0EDF2"/>
<path fill-rule="evenodd" clip-rule="evenodd" d="M62.6217 13.3386C64.2286 13.3055 65.8336 13.3386 67.4365 13.4382C66.4735 13.5046 65.5106 13.5712 64.5476 13.6375C64.3531 13.6989 64.1925 13.7985 64.0661 13.9365C63.0329 15.3046 62.2305 16.7661 61.6587 18.321C61.436 18.5484 61.2352 18.5484 61.0569 18.321C60.775 18.7373 60.454 19.1359 60.0939 19.5168C59.8739 19.2868 59.6733 19.3201 59.492 19.6164C59.5722 19.6828 59.6526 19.7493 59.7328 19.8157C59.4417 20.421 59.241 21.0522 59.1309 21.709C58.6877 21.0816 58.1261 21.0816 57.4458 21.709C57.3656 21.6427 57.2852 21.5761 57.205 21.5097C56.4219 21.9169 55.6595 22.3488 54.918 22.8052C54.6067 22.9028 54.2856 22.9361 53.955 22.9048C53.9902 23.3915 53.7896 23.5244 53.3532 23.3034C53.3527 23.8118 53.1519 24.2104 52.7513 24.4992C52.674 23.4638 52.7544 22.4674 52.9921 21.5097C52.9711 22.1272 53.0915 22.1937 53.3532 21.709C53.5137 21.9747 53.6741 21.9747 53.8346 21.709C55.2844 18.9805 57.6516 16.9542 60.9365 15.6305C61.8766 15.0609 61.8766 14.5294 60.9365 14.0361C61.5369 13.8304 62.0988 13.5981 62.6217 13.3386Z" fill="#309E9D"/>
<path fill-rule="evenodd" clip-rule="evenodd" d="M18.0847 20.5133C18.0847 21.709 18.0847 22.9048 18.0847 24.1006C17.83 24.3198 17.6293 24.5857 17.4829 24.8978C17.4027 24.2335 17.3223 23.5691 17.2422 22.9048C17.1952 23.885 17.0748 24.8482 16.881 25.7946C15.8461 26.0469 14.8027 26.2795 13.7514 26.4922C12.8077 27.2469 11.9252 28.0441 11.1033 28.8837C8.91325 30.1853 6.74659 31.4808 4.60328 32.77C4.24722 33.5289 3.64537 34.0937 2.79772 34.464C2.42072 34.3522 2.09982 34.4852 1.83476 34.8626C1.60582 34.7861 1.40528 34.7197 1.23291 34.6633C1.73245 34.0363 2.17372 33.3721 2.55698 32.6704C4.64348 30.9431 6.72974 29.216 8.81624 27.4886C9.61501 26.0475 10.6581 24.9181 11.9459 24.1006C12.6178 23.7421 13.1395 23.2769 13.5107 22.7055C13.4305 22.5726 13.3501 22.4399 13.2699 22.3069C14.5923 21.5931 15.9566 20.9288 17.3625 20.314C17.5546 20.6285 17.675 20.9605 17.7236 21.3104C17.7742 20.9999 17.8946 20.7343 18.0847 20.5133Z" fill="#3DB381"/>
<path fill-rule="evenodd" clip-rule="evenodd" d="M84.7697 18.5205C84.7697 19.3841 84.7697 20.2478 84.7697 21.1114C84.5848 21.2634 84.4645 21.4627 84.4086 21.7093C84.1407 21.4679 83.8597 21.4679 83.566 21.7093C82.5754 22.8959 81.3317 23.8258 79.8346 24.4994C79.6487 24.4705 79.4881 24.4041 79.3531 24.3001C79.3105 25.0686 79.1901 25.7994 78.992 26.4924C79.0656 25.9174 78.9855 25.3859 78.7512 24.898C78.7512 23.5029 78.7512 22.1078 78.7512 20.7128C78.9361 20.8648 79.0565 21.0641 79.1123 21.3107C79.2729 20.5135 79.4332 20.5135 79.5938 21.3107C80.3741 21.1538 81.0963 20.8882 81.7605 20.5135C82.2285 20.7006 82.6298 20.9665 82.9642 21.3107C83.2851 21.3107 83.6062 21.3107 83.9271 21.3107C84.3552 20.3957 84.6361 19.4658 84.7697 18.5205Z" fill="#2678D0"/>
<path fill-rule="evenodd" clip-rule="evenodd" d="M64.7884 19.1182C65.9119 19.1182 67.0352 19.1182 68.1587 19.1182C68.7204 19.1182 69.2823 19.1182 69.8439 19.1182C70.3254 19.1182 70.8069 19.1182 71.2884 19.1182C72.0106 19.1182 72.7328 19.1182 73.455 19.1182C74.6587 19.1182 75.8624 19.1182 77.0661 19.1182C77.7132 19.0517 78.2749 19.1844 78.7513 19.5168C78.7513 19.9154 78.7513 20.314 78.7513 20.7126C78.7513 22.1077 78.7513 23.5028 78.7513 24.8978C78.8214 26.1779 78.7412 27.4401 78.5106 28.6845C78.4304 28.6845 78.35 28.6845 78.2698 28.6845C73.2143 28.6845 68.1587 28.6845 63.1032 28.6845C62.3169 28.376 61.5145 28.0437 60.6958 27.688C60.1515 27.117 59.67 26.5191 59.2513 25.8943C59.0948 25.5087 59.0147 25.1101 59.0106 24.6985C58.8043 23.4679 59.0852 22.3385 59.8532 21.3105C61.0453 19.8706 62.6903 19.1398 64.7884 19.1182Z" fill="#F3F7F8"/>
<path fill-rule="evenodd" clip-rule="evenodd" d="M71.7698 12.9402C71.7799 13.2017 71.7799 13.4675 71.7698 13.7374C71.1119 14.5674 70.3095 15.3313 69.3624 16.0293C67.4921 16.9058 65.9672 17.9356 64.7883 19.1184C62.6903 19.1399 61.0453 19.8707 59.8532 21.3106C59.0852 22.3386 58.8042 23.468 59.0106 24.6987C58.8502 24.1291 58.6897 23.5312 58.5291 22.905C58.3502 23.1856 58.1494 23.4513 57.9272 23.7022C57.811 23.5133 57.771 23.314 57.8069 23.1043C57.4886 23.1382 57.2077 23.0718 56.9643 22.905C56.4775 23.4236 55.956 23.9218 55.3995 24.3997C54.6089 24.5293 53.8866 24.7617 53.2328 25.0973C53.3012 25.4789 53.221 25.811 52.992 26.0938C52.7578 25.6059 52.6776 25.0744 52.7513 24.4994C53.1519 24.2106 53.3527 23.812 53.3532 23.3036C53.7896 23.5246 53.9902 23.3917 53.955 22.905C54.2855 22.9363 54.6067 22.903 54.918 22.8054C55.6595 22.349 56.4219 21.9171 57.205 21.5099C57.2852 21.5763 57.3656 21.6429 57.4457 21.7092C58.1261 21.0819 58.6877 21.0819 59.1309 21.7092C59.241 21.0524 59.4417 20.4212 59.7328 19.8159C59.6526 19.7496 59.5722 19.683 59.492 19.6166C59.6733 19.3203 59.8739 19.287 60.0939 19.517C60.454 19.1361 60.7749 18.7375 61.0569 18.3212C61.2352 18.5486 61.436 18.5486 61.6587 18.3212C62.2305 16.7663 63.0329 15.3048 64.0661 13.9367C64.1925 13.7988 64.3531 13.6991 64.5476 13.6377C65.5106 13.5714 66.4735 13.5048 67.4365 13.4384C65.8336 13.3388 64.2286 13.3057 62.6217 13.3388C65.6711 13.2058 68.7203 13.0731 71.7698 12.9402Z" fill="#339CA5"/>
<path fill-rule="evenodd" clip-rule="evenodd" d="M18.5661 15.7301C18.4183 16.4546 18.3379 17.1854 18.3253 17.9224C18.0882 18.7463 18.008 19.61 18.0846 20.5133C17.8944 20.7343 17.774 20.9999 17.7235 21.3104C17.6749 20.9605 17.5545 20.6285 17.3624 20.314C15.9564 20.9288 14.5922 21.593 13.2698 22.3069C13.3499 22.4399 13.4304 22.5726 13.5105 22.7055C13.1393 23.2769 12.6176 23.7421 11.9457 24.1006C10.658 24.9181 9.61486 26.0475 8.81608 27.4886C6.72958 29.2159 4.64333 30.9431 2.55683 32.6704C2.17357 33.3721 1.73229 34.0363 1.23276 34.6633C0.680256 35.3682 0.399552 36.1654 0.390164 37.0549C0.345386 36.5495 0.225016 36.0845 0.0290527 35.6598C0.0290527 33.7332 0.0290527 31.8068 0.0290527 29.8802C3.62427 27.4609 7.39571 25.2354 11.3439 23.2038C11.8258 22.2081 12.548 21.3443 13.5105 20.6129C13.2248 20.4098 12.984 20.1772 12.7883 19.9154C13.9776 18.2347 15.462 16.7731 17.242 15.5308C17.5213 15.9886 17.762 15.9223 17.9642 15.3315C18.2038 15.4443 18.4043 15.5773 18.5661 15.7301Z" fill="#45B880"/>
<path fill-rule="evenodd" clip-rule="evenodd" d="M18.0846 24.1008C18.0846 25.7615 18.0846 27.4225 18.0846 29.0832C17.8944 29.3042 17.774 29.5699 17.7235 29.8804C17.6226 29.6468 17.4623 29.4475 17.242 29.2825C16.0732 29.4828 14.9097 29.7154 13.7513 29.9801C13.2204 30.4863 12.6186 30.9182 11.9457 31.2755C11.8017 32.1588 11.1999 32.6901 10.1402 32.8699C9.81901 33.5782 9.25712 34.0764 8.45497 34.3646C8.08399 34.6793 7.80305 35.0448 7.61238 35.4607C6.72669 35.9105 5.96451 36.4751 5.32534 37.1547C4.39657 37.4768 3.55398 37.9087 2.79757 38.4502C2.37651 38.2909 2.05561 38.4239 1.83461 38.8488C1.54163 38.6722 1.22048 38.4729 0.871644 38.2509C0.751756 38.6582 0.470812 38.9241 0.0290527 39.0481C0.0290527 37.9186 0.0290527 36.7894 0.0290527 35.66C0.225016 36.0847 0.345386 36.5497 0.390163 37.0551C0.399552 36.1656 0.680256 35.3684 1.23276 34.6635C1.40513 34.7199 1.60566 34.7863 1.83461 34.8628C2.09966 34.4854 2.42057 34.3524 2.79757 34.4642C3.64522 34.0939 4.24707 33.5291 4.60312 32.7702C6.74644 31.481 8.9131 30.1855 11.1031 28.8839C11.925 28.0443 12.8076 27.2471 13.7513 26.4924C14.8026 26.2797 15.8459 26.0471 16.8809 25.7948C17.0747 24.8484 17.1951 23.8852 17.242 22.905C17.3222 23.5693 17.4026 24.2337 17.4827 24.898C17.6291 24.5859 17.8299 24.32 18.0846 24.1008Z" fill="#3CB086"/>
<path fill-rule="evenodd" clip-rule="evenodd" d="M59.0107 24.6987C59.0148 25.1102 59.095 25.5088 59.2514 25.8945C57.3219 25.5084 55.6767 25.9736 54.3163 27.2896C54.2361 27.2232 54.1557 27.1566 54.0755 27.0903C53.7286 27.45 53.6884 27.8486 53.9551 28.286C53.5269 27.6054 53.2057 26.8748 52.9922 26.0938C53.2211 25.811 53.3013 25.4789 53.2329 25.0973C53.8868 24.7617 54.609 24.5293 55.3996 24.3998C55.9562 23.9218 56.4776 23.4236 56.9644 22.905C57.2078 23.0718 57.4887 23.1382 57.807 23.1043C57.7711 23.314 57.8111 23.5133 57.9274 23.7022C58.1496 23.4513 58.3503 23.1856 58.5292 22.905C58.6898 23.5312 58.8504 24.1291 59.0107 24.6987Z" fill="#3197AB"/>
<path fill-rule="evenodd" clip-rule="evenodd" d="M84.7697 21.1113C84.7697 22.3071 84.7697 23.5029 84.7697 24.6987C84.5738 25.1234 84.4534 25.5883 84.4086 26.0937C84.3284 25.8281 84.248 25.5622 84.1679 25.2966C84.0516 25.4855 84.0116 25.6848 84.0475 25.8944C83.2107 25.8933 82.7292 26.2253 82.6031 26.8909C82.2826 26.2203 81.8413 26.1539 81.279 26.6916C80.7912 26.5882 80.3098 26.5216 79.8345 26.4923C79.7582 26.8513 79.5976 26.9176 79.3531 26.6916C79.1169 27.96 78.9965 27.8936 78.9919 26.4923C79.1901 25.7994 79.3104 25.0686 79.3531 24.3001C79.4881 24.4041 79.6487 24.4705 79.8345 24.4994C81.3317 23.8257 82.5754 22.8958 83.566 21.7092C83.8597 21.4679 84.1407 21.4679 84.4086 21.7092C84.4645 21.4627 84.5848 21.2634 84.7697 21.1113Z" fill="#2773D5"/>
<path fill-rule="evenodd" clip-rule="evenodd" d="M59.2514 25.8945C59.6701 26.5193 60.1515 27.1172 60.6959 27.6882C60.6959 27.8875 60.6959 28.0868 60.6959 28.2861C60.1812 28.3265 59.7798 28.5258 59.4922 28.8839C59.1869 28.699 58.866 28.6657 58.5292 28.7843C57.9086 29.2241 57.2265 29.5895 56.4829 29.8804C56.4027 29.8141 56.3223 29.7475 56.2422 29.6811C55.9576 30.0815 55.8372 30.4801 55.881 30.8769C54.9337 30.1728 54.2919 29.3092 53.9551 28.2861C53.6884 27.8486 53.7286 27.45 54.0755 27.0903C54.1557 27.1566 54.2361 27.2232 54.3162 27.2896C55.6767 25.9736 57.3219 25.5085 59.2514 25.8945Z" fill="#3091B2"/>
<path fill-rule="evenodd" clip-rule="evenodd" d="M84.7699 24.6987C84.7699 25.9609 84.7699 27.2232 84.7699 28.4854C84.5703 29.8448 84.4499 31.2398 84.4087 32.6706C84.3286 32.1391 84.2482 31.6077 84.168 31.0762C84.0878 31.4748 84.0074 31.8734 83.9273 32.272C83.6827 32.046 83.5221 32.1124 83.4458 32.4713C83.2674 32.2439 83.0666 32.2439 82.8439 32.4713C82.6147 32.1634 82.5346 31.8312 82.6032 31.4748C82.1037 31.4354 81.6222 31.4021 81.1588 31.3752C80.6558 31.7652 80.4551 32.1971 80.5569 32.6706C79.8749 32.438 79.6741 32.6042 79.955 33.1688C79.3595 33.1914 78.878 33.3907 78.5106 33.7667C78.7311 33.8221 78.8915 33.9218 78.9921 34.0657C77.7884 34.0657 76.5847 34.0657 75.381 34.0657C75.3401 33.8022 75.4202 33.5696 75.6217 33.3681C76.6954 32.907 77.7788 32.4753 78.8717 32.0727C79.149 31.4868 79.3898 30.8889 79.5939 30.279C81.1809 29.5141 82.1841 28.3849 82.6032 26.891C82.7293 26.2253 83.2108 25.8933 84.0476 25.8945C84.0118 25.6849 84.0517 25.4856 84.168 25.2966C84.2482 25.5623 84.3286 25.8281 84.4087 26.0938C84.4535 25.5884 84.5739 25.1234 84.7699 24.6987Z" fill="#266EDD"/>
<path fill-rule="evenodd" clip-rule="evenodd" d="M63.1031 28.6846C68.1586 28.6846 73.2142 28.6846 78.2697 28.6846C76.5489 28.8823 74.7836 28.9486 72.9734 28.8839C72.0105 28.8839 71.0475 28.8839 70.0845 28.8839C68.1569 28.8508 66.231 28.8839 64.3068 28.9835C64.7883 29.0499 65.2697 29.1164 65.7512 29.1828C65.1763 29.2432 64.6546 29.4094 64.1864 29.6811C63.8183 30.5898 63.2966 31.4203 62.6216 32.1723C62.4822 32.4563 62.4822 32.7885 62.6216 33.1687C61.6712 33.5048 61.6712 33.8037 62.6216 34.0656C61.617 33.9904 60.654 33.7911 59.7327 33.4677C59.7327 33.4013 59.7327 33.3348 59.7327 33.2684C59.712 33.0699 59.7924 32.9039 59.9734 32.7702C59.0777 32.4286 58.9173 31.9636 59.492 31.3751C59.2695 31.2057 59.2695 31.0064 59.492 30.7772C60.7843 30.1687 61.988 29.4712 63.1031 28.6846Z" fill="#388BC6"/>
<path fill-rule="evenodd" clip-rule="evenodd" d="M70.0847 28.8837C70.1854 29.0276 70.3457 29.1273 70.5662 29.1827C70.2549 29.2803 69.9338 29.3136 69.6032 29.2823C69.2274 29.897 68.7862 30.4949 68.2792 31.076C67.6393 31.599 66.9972 32.1305 66.3532 32.6704C66.314 33.104 66.1135 33.4694 65.7514 33.7665C65.1093 33.8329 64.4675 33.8994 63.8255 33.9658C65.0265 34.0653 66.2302 34.0985 67.4366 34.0655C69.1668 34.0007 70.852 34.0672 72.4921 34.2647C69.1829 34.3275 65.893 34.261 62.6218 34.0655C61.6713 33.8036 61.6713 33.5046 62.6218 33.1686C62.4824 32.7884 62.4824 32.4561 62.6218 32.1721C63.2968 31.4202 63.8185 30.5897 64.1866 29.6809C64.6548 29.4093 65.1765 29.2431 65.7514 29.1827C65.2699 29.1163 64.7884 29.0498 64.307 28.9834C66.2312 28.8837 68.1571 28.8507 70.0847 28.8837Z" fill="#2D81CB"/>
<path fill-rule="evenodd" clip-rule="evenodd" d="M70.0847 28.8838C71.0477 28.8838 72.0106 28.8838 72.9736 28.8838C73.2389 29.2011 73.0783 29.3671 72.4921 29.382C72.7742 29.4655 73.015 29.5983 73.2143 29.7806C71.7776 30.2203 70.8948 31.0838 70.5662 32.3715C70.7475 32.8215 70.7475 33.2201 70.5662 33.5673C69.5055 33.7747 68.4623 33.9407 67.4365 34.0655C66.2302 34.0986 65.0265 34.0653 63.8254 33.9659C64.4675 33.8995 65.1093 33.8329 65.7514 33.7666C66.1134 33.4694 66.314 33.1041 66.3532 32.6704C66.9972 32.1305 67.6393 31.599 68.2791 31.0761C68.7861 30.4949 69.2274 29.897 69.6032 29.2824C69.9337 29.3137 70.2549 29.2804 70.5662 29.1827C70.3457 29.1273 70.1853 29.0277 70.0847 28.8838Z" fill="#277AD0"/>
<path fill-rule="evenodd" clip-rule="evenodd" d="M18.0847 29.083C18.1247 30.4133 18.0847 31.742 17.9644 33.0689C17.5149 32.609 17.2742 32.0774 17.2421 31.4746C17.123 31.8678 17.0828 32.2664 17.1218 32.6703C16.6865 32.6686 16.2852 32.7682 15.9181 32.9693C14.2832 34.0736 12.598 35.1364 10.8625 36.158C9.68819 37.3985 8.24375 38.3284 6.52919 38.9482C6.01112 39.4403 5.65001 40.0049 5.44586 40.6422C5.20247 40.809 4.92153 40.8754 4.60327 40.8415C4.62903 41.3204 4.38829 41.6857 3.88105 41.9376C3.14847 42.0967 2.46646 42.3293 1.83475 42.6352C1.51385 42.5023 1.1927 42.3695 0.871792 42.2366C0.771403 42.4869 0.570866 42.6198 0.26994 42.6352C0.0316073 41.4773 -0.0485593 40.2815 0.0291999 39.0478C0.470959 38.9239 0.751903 38.658 0.871792 38.2507C1.22062 38.4727 1.54177 38.672 1.83475 38.8485C2.05575 38.4236 2.37666 38.2907 2.79772 38.45C3.55412 37.9085 4.39671 37.4766 5.32549 37.1545C5.96466 36.4749 6.72684 35.9103 7.61253 35.4605C7.80319 35.0446 8.08414 34.6791 8.45512 34.3644C9.25727 34.0762 9.81915 33.5779 10.1403 32.8696C11.2 32.6899 11.8019 32.1586 11.9459 31.2753C12.6187 30.9179 13.2206 30.4861 13.7514 29.9798C14.9099 29.7152 16.0734 29.4826 17.2421 29.2823C17.4624 29.4473 17.6228 29.6466 17.7236 29.8802C17.7742 29.5697 17.8946 29.304 18.0847 29.083Z" fill="#3BAC8C"/>
<path fill-rule="evenodd" clip-rule="evenodd" d="M60.6959 27.688C61.5147 28.0437 62.317 28.376 63.1033 28.6845C61.9882 29.4711 60.7845 30.1686 59.4922 30.7771C59.2697 31.0063 59.2697 31.2056 59.4922 31.375C58.9175 31.9635 59.0779 32.4285 59.9737 32.7701C59.7926 32.9038 59.7122 33.0698 59.7329 33.2683C58.1014 32.8468 56.8173 32.0496 55.8811 30.8767C55.8373 30.4799 55.9576 30.0813 56.2422 29.681C56.3224 29.7473 56.4028 29.8139 56.4829 29.8803C57.2266 29.5893 57.9086 29.224 58.5292 28.7841C58.866 28.6655 59.1869 28.6988 59.4922 28.8838C59.7799 28.5256 60.1812 28.3263 60.6959 28.2859C60.6959 28.0866 60.6959 27.8873 60.6959 27.688Z" fill="#2E8BB9"/>
<path fill-rule="evenodd" clip-rule="evenodd" d="M18.3256 17.9226C18.3256 24.1008 18.3256 30.279 18.3256 36.4572C18.1354 36.2362 18.015 35.9705 17.9644 35.66C17.9117 35.9466 17.7914 36.2123 17.6033 36.4572C17.4088 36.074 17.2884 35.6754 17.2422 35.2614C17.1678 35.5137 17.0475 35.7463 16.8811 35.959C16.1305 36.1329 15.4083 36.3653 14.7144 36.6565C13.4299 37.5858 12.0656 38.4161 10.6219 39.1477C9.25109 40.3313 7.84685 41.4938 6.4089 42.6354C6.19416 43.3234 5.79309 43.9213 5.2052 44.4291C3.74463 45.341 2.42055 46.3375 1.23298 47.4185C0.704075 45.8548 0.383168 44.2605 0.27002 42.6354C0.570945 42.6201 0.771482 42.4871 0.871871 42.2368C1.19278 42.3697 1.51393 42.5025 1.83483 42.6354C2.46654 42.3295 3.14855 42.0969 3.88113 41.9379C4.38837 41.6859 4.62911 41.3206 4.60335 40.8417C4.92161 40.8756 5.20255 40.8092 5.44594 40.6424C5.65009 40.0051 6.0112 39.4405 6.52927 38.9484C8.24383 38.3286 9.68827 37.3987 10.8626 36.1583C12.5981 35.1367 14.2833 34.0738 15.9182 32.9695C16.2853 32.7684 16.6866 32.6688 17.1219 32.6706C17.0829 32.2666 17.1231 31.868 17.2422 31.4748C17.2742 32.0777 17.515 32.6092 17.9644 33.0692C18.0848 31.7422 18.1248 30.4135 18.0848 29.0832C18.0848 27.4225 18.0848 25.7615 18.0848 24.1008C18.0848 22.905 18.0848 21.7092 18.0848 20.5135C18.0083 19.6103 18.0884 18.7465 18.3256 17.9226Z" fill="#3EAA93"/>
<path fill-rule="evenodd" clip-rule="evenodd" d="M78.7514 24.8979C78.9856 25.3858 79.0658 25.9174 78.9921 26.4923C78.9967 27.8936 79.1171 27.9599 79.3532 26.6916C79.5978 26.9176 79.7584 26.8513 79.8347 26.4923C80.3099 26.5216 80.7914 26.5882 81.2791 26.6916C81.8415 26.1539 82.2828 26.2203 82.6032 26.8909C82.1841 28.3848 81.1809 29.5141 79.594 30.279C79.3898 30.8888 79.1491 31.4867 78.8717 32.0726C77.7788 32.4752 76.6954 32.9069 75.6217 33.3681C75.4202 33.5695 75.3401 33.8021 75.381 34.0656C76.5847 34.0656 77.7884 34.0656 78.9921 34.0656C80.8591 34.2246 82.7048 34.2912 84.5291 34.2649C84.5691 35.2636 84.5289 36.2601 84.4088 37.2543C84.369 36.1134 83.8876 36.0468 82.9643 37.055C82.8719 37.5652 82.6713 38.0304 82.3625 38.4501C81.9932 38.31 81.5919 38.3433 81.1588 38.5498C79.6539 40.1946 77.8484 41.5564 75.7421 42.6354C75.6258 42.8243 75.5859 43.0236 75.6217 43.2332C75.0505 43.3915 74.4888 43.5908 73.9366 43.8311C73.5218 44.6066 72.8397 45.1379 71.8903 45.4255C71.5084 45.858 71.1873 46.3231 70.9273 46.8206C70.6704 46.9583 70.3895 47.0579 70.0847 47.1195C69.7438 47.9143 69.142 48.5453 68.2792 49.0128C67.5379 50.6232 66.2138 51.7859 64.3069 52.5005C63.0686 53.5289 61.7045 54.3925 60.2143 55.0914C58.5771 56.4111 57.0525 57.8062 55.6403 59.2766C54.7575 59.6089 53.8749 59.9409 52.9921 60.2731C52.6712 60.4724 52.6712 60.6717 52.9921 60.871C52.3501 61.0039 52.3501 61.1367 52.9921 61.2696C52.6712 61.4689 52.6712 61.6682 52.9921 61.8675C51.9117 62.0189 50.8683 62.1852 49.8625 62.3657C47.8564 62.3657 45.8501 62.3657 43.844 62.3657C45.0034 62.2011 46.2071 62.1015 47.4551 62.0668C46.8935 62.0004 46.3316 61.9338 45.7699 61.8675C46.3667 61.3784 47.1291 60.8802 48.057 60.3728C49.1576 59.0516 50.4013 57.8226 51.7884 56.6858C52.97 56.2368 54.0131 55.6389 54.9181 54.8921C55.914 53.9175 56.9571 52.9874 58.0477 52.1019C58.6093 51.8694 59.1712 51.637 59.7329 51.4044C61.0232 50.4023 62.3071 49.4059 63.5847 48.415C63.798 48.2505 63.8782 48.0512 63.8255 47.8171C64.4511 47.8073 64.9728 47.608 65.3903 47.2192C65.9281 46.4304 66.6101 45.7328 67.4366 45.1266C67.3564 45.0602 67.276 44.9936 67.1958 44.9273C67.5167 44.595 67.8379 44.263 68.1588 43.9308C68.0786 43.8644 67.9982 43.7979 67.918 43.7315C68.4739 43.5808 68.9554 43.6805 69.3625 44.0304C70.6454 43.3989 71.4078 42.4689 71.6495 41.2403C71.7297 41.3066 71.8101 41.3732 71.8903 41.4396C72.3691 40.4794 73.0511 39.7818 73.9366 39.347C74.2575 39.2806 74.5786 39.214 74.8995 39.1477C76.4593 37.9718 77.9037 36.7095 79.2328 35.361C79.7374 35.0091 80.2991 34.7434 80.918 34.5638C78.4362 34.3376 75.9487 34.1714 73.4551 34.0656C73.2933 33.3864 73.534 32.8549 74.1773 32.4712C74.3184 32.5129 74.4387 32.5794 74.5384 32.6705C74.6922 32.15 74.9732 31.6848 75.381 31.2754C76.2409 30.6704 77.1637 30.1389 78.1495 29.6811C78.3924 29.3771 78.5128 29.0449 78.5106 28.6846C78.7413 27.4402 78.8214 26.178 78.7514 24.8979Z" fill="#2974DD"/>
<path fill-rule="evenodd" clip-rule="evenodd" d="M59.7329 33.4678C60.6542 33.7912 61.6172 33.9905 62.6218 34.0657C65.893 34.2612 69.1829 34.3277 72.4921 34.265C72.9628 40.1147 69.753 43.5691 62.8625 44.6284C62.4612 44.6284 62.0601 44.6284 61.6588 44.6284C56.0416 44.6284 50.4242 44.6284 44.807 44.6284C39.3501 44.6284 33.8935 44.6284 28.4366 44.6284C27.8986 44.6872 27.4171 44.6206 26.9922 44.4291C40.1549 44.501 50.4266 44.4347 57.807 44.2298C57.7542 43.9956 57.8344 43.7963 58.0477 43.6319C58.4095 43.7419 58.8106 43.7419 59.2514 43.6319C59.0836 42.0206 59.0434 40.3599 59.131 38.6495C59.0196 37.9846 58.819 37.3535 58.5292 36.7562C58.5694 36.5236 58.6094 36.2912 58.6496 36.0586C58.7492 36.1497 58.8696 36.2163 59.0107 36.2579C59.2098 35.4689 59.3301 34.6717 59.3718 33.8664C59.5444 33.7579 59.6648 33.625 59.7329 33.4678Z" fill="#F3F7F8"/>
<path fill-rule="evenodd" clip-rule="evenodd" d="M18.3255 36.457C18.4124 37.4814 18.6531 38.4779 19.0477 39.4465C18.6052 39.3514 18.1637 39.285 17.7236 39.2472C17.1384 39.63 16.4963 39.63 15.7977 39.2472C14.6602 39.795 13.8578 40.5922 13.3903 41.6387C12.3472 42.4359 11.3038 43.2331 10.2607 44.0303C9.89475 44.9979 9.17253 45.7287 8.09401 46.2225C7.92814 46.0518 7.72761 45.919 7.49216 45.824C7.25142 46.1562 6.93052 46.4218 6.5292 46.6211C5.49257 47.8773 4.36904 49.0731 3.15883 50.2085C3.0895 50.4797 3.00933 50.7454 2.91809 51.0057C2.1718 49.8856 1.61015 48.6898 1.23291 47.4183C2.42048 46.3373 3.74456 45.3409 5.20513 44.4289C5.79302 43.9211 6.19409 43.3232 6.40883 42.6352C7.84677 41.4936 9.25101 40.3311 10.6218 39.1475C12.0655 38.4159 13.4298 37.5856 14.7144 36.6563C15.4082 36.3651 16.1304 36.1328 16.881 35.9588C17.0474 35.7461 17.1678 35.5135 17.2422 35.2612C17.2884 35.6752 17.4087 36.0738 17.6033 36.457C17.7913 36.2121 17.9117 35.9464 17.9644 35.6598C18.0149 35.9703 18.1353 36.236 18.3255 36.457Z" fill="#38A499"/>
<path fill-rule="evenodd" clip-rule="evenodd" d="M82.3625 38.4502C80.9746 40.0324 79.7307 41.6931 78.631 43.4326C77.7117 43.9264 76.7889 44.4247 75.8625 44.9273C75.2862 45.3163 74.9251 45.8146 74.7792 46.422C74.3991 46.7291 73.9575 46.9617 73.4551 47.1196C72.9587 47.845 72.2767 48.4096 71.4088 48.8136C71.2083 49.5111 70.6866 49.943 69.844 50.109C68.9807 50.9538 68.1381 51.7843 67.3162 52.6002C66.0634 53.406 64.8597 54.2697 63.7051 55.1911C63.5917 55.539 63.4312 55.8713 63.2236 56.1876C62.3811 56.6194 61.699 57.184 61.1774 57.8816C60.757 57.9755 60.3557 58.1084 59.9736 58.2802C59.5822 58.8039 59.1007 59.2689 58.5292 59.6753C57.2451 59.8449 56.3623 60.4095 55.8811 61.3693C55.6006 61.5853 55.2797 61.7513 54.9181 61.8675C55.5286 61.9046 56.0903 62.0042 56.6033 62.1665C55.9872 62.1063 55.4253 62.1728 54.9181 62.3658C53.2329 62.3658 51.5477 62.3658 49.8625 62.3658C50.8684 62.1852 51.9117 62.019 52.9922 61.8675C52.6713 61.6682 52.6713 61.4689 52.9922 61.2696C52.3501 61.1367 52.3501 61.004 52.9922 60.871C52.6713 60.6717 52.6713 60.4724 52.9922 60.2731C53.875 59.9409 54.7575 59.6089 55.6403 59.2767C57.0525 57.8062 58.5771 56.4112 60.2144 55.0914C61.7046 54.3925 63.0686 53.5289 64.307 52.5006C66.2139 51.7859 67.538 50.6232 68.2792 49.0129C69.142 48.5453 69.7439 47.9144 70.0848 47.1196C70.3895 47.058 70.6705 46.9583 70.9273 46.8206C71.1873 46.3232 71.5085 45.858 71.8903 45.4255C72.8398 45.138 73.5218 44.6066 73.9366 43.8312C74.4889 43.5908 75.0505 43.3915 75.6218 43.2333C75.5859 43.0236 75.6259 42.8243 75.7422 42.6354C77.8484 41.5564 79.6539 40.1946 81.1588 38.5498C81.5919 38.3433 81.9932 38.3101 82.3625 38.4502Z" fill="#2A71E1"/>
<path fill-rule="evenodd" clip-rule="evenodd" d="M84.7698 28.4854C84.81 34.0661 84.7698 39.6464 84.6494 45.2263C84.5936 45.4728 84.4732 45.6721 84.2883 45.8242C84.0553 45.2372 84.0153 44.6393 84.1679 44.0305C84.2481 44.3627 84.3285 44.6947 84.4087 45.027C84.5693 44.1634 84.5693 43.2997 84.4087 42.4361C83.6284 42.1443 83.1872 42.3767 83.0846 43.1337C83.2406 43.4206 83.3208 43.7196 83.3253 44.0305C83.0856 44.0134 82.885 44.0799 82.7235 44.2298C82.5629 43.9641 82.3222 43.7648 82.0013 43.6319C80.0518 43.7565 78.9282 44.6866 78.6309 46.4221C77.6427 47.3243 76.5993 48.1878 75.5013 49.0129C75.2162 50.1276 74.5742 51.0577 73.5754 51.8031C73.4952 51.7367 73.4148 51.6701 73.3346 51.6038C73.0505 52.5034 72.4087 53.1676 71.4087 53.5967C71.2072 53.9656 71.0064 54.3309 70.8068 54.6929C68.9676 55.6553 67.2022 56.7181 65.5106 57.8816C64.551 57.9783 63.7486 58.3105 63.1031 58.8781C62.1402 59.2767 61.1772 59.6753 60.2143 60.0739C59.8934 60.4725 59.8934 60.8711 60.2143 61.2697C60.0537 61.336 59.8934 61.4026 59.7328 61.469C60.0537 61.6019 60.0537 61.7346 59.7328 61.8675C58.7144 62.1246 57.6711 62.2243 56.6032 62.1665C56.0901 62.0043 55.5285 61.9046 54.918 61.8675C55.2796 61.7514 55.6005 61.5853 55.8809 61.3693C56.3622 60.4095 57.245 59.8449 58.5291 59.6753C59.1006 59.2689 59.5821 58.804 59.9735 58.2802C60.3556 58.1084 60.7569 57.9755 61.1772 57.8816C61.6989 57.1841 62.3809 56.6195 63.2235 56.1876C63.431 55.8713 63.5916 55.5391 63.705 55.1911C64.8596 54.2698 66.0633 53.406 67.3161 52.6003C68.138 51.7843 68.9806 50.9539 69.8439 50.109C70.6865 49.943 71.2082 49.5112 71.4087 48.8136C72.2766 48.4096 72.9586 47.845 73.455 47.1196C73.9574 46.9617 74.3989 46.7292 74.7791 46.4221C74.9249 45.8146 75.2861 45.3164 75.8624 44.9273C76.7888 44.4247 77.7115 43.9265 78.6309 43.4326C79.7306 41.6931 80.9745 40.0324 82.3624 38.4502C82.6713 38.0305 82.8718 37.5653 82.9642 37.0551C83.8875 36.0469 84.369 36.1134 84.4087 37.2544C84.5288 36.2601 84.569 35.2636 84.5291 34.265C82.7047 34.2913 80.859 34.2247 78.992 34.0657C78.8914 33.9218 78.7311 33.8221 78.5105 33.7667C78.8779 33.3906 79.3594 33.1913 79.955 33.1688C79.674 32.6042 79.8748 32.438 80.5568 32.6706C80.455 32.1971 80.6558 31.7652 81.1587 31.3752C81.6221 31.4021 82.1036 31.4353 82.6031 31.4748C82.5345 31.8311 82.6147 32.1634 82.8439 32.4713C83.0666 32.2439 83.2673 32.2439 83.4457 32.4713C83.522 32.1124 83.6826 32.046 83.9272 32.272C84.0074 31.8734 84.0878 31.4748 84.1679 31.0762C84.2481 31.6077 84.3285 32.1391 84.4087 32.6706C84.4498 31.2398 84.5702 29.8448 84.7698 28.4854Z" fill="#2A6EE4"/>
<path fill-rule="evenodd" clip-rule="evenodd" d="M19.0476 39.4466C19.2883 39.8452 19.5291 40.2438 19.7698 40.6424C18.3025 41.1498 16.858 41.7146 15.4365 42.3364C14.5282 43.0774 13.7657 43.9077 13.1494 44.8276C11.4419 45.7757 9.95746 46.9382 8.69574 48.3153C8.31513 48.4562 7.95402 48.6222 7.61241 48.8136C6.71276 50.32 5.38869 51.4493 3.64019 52.2016C3.27715 51.8666 3.03641 51.468 2.91797 51.0058C3.00921 50.7455 3.08938 50.4799 3.15871 50.2086C4.36891 49.0732 5.49245 47.8775 6.52908 46.6213C6.93039 46.422 7.2513 46.1563 7.49204 45.8241C7.72748 45.9192 7.92802 46.0519 8.09389 46.2227C9.17241 45.7288 9.89463 44.998 10.2606 44.0304C11.3037 43.2332 12.3471 42.4361 13.3902 41.6389C13.8577 40.5924 14.6601 39.7952 15.7976 39.2473C16.4962 39.6302 17.1383 39.6302 17.7235 39.2473C18.1636 39.2852 18.6051 39.3515 19.0476 39.4466Z" fill="#36A09F"/>
<path fill-rule="evenodd" clip-rule="evenodd" d="M22.418 43.034C22.7793 43.2835 23.1807 43.4828 23.6217 43.6319C23.601 43.8304 23.6814 43.9964 23.8624 44.1301C22.5993 45.0343 21.2352 45.8315 19.7699 46.5217C19.18 47.4751 18.3374 48.239 17.2421 48.8136C16.6855 49.6048 16.0437 50.3356 15.3162 51.0059C14.8392 51.4358 14.2776 51.768 13.631 52.0024C13.5176 52.3503 13.357 52.6826 13.1495 52.9988C12.4145 53.3835 11.8127 53.8817 11.3439 54.4936C9.85664 54.5952 8.85347 55.2264 8.33468 56.3869C8.25451 56.3205 8.1741 56.254 8.09394 56.1876C7.97188 56.4857 8.09225 56.7183 8.45505 56.8851C8.3212 56.9615 8.24103 57.0611 8.21431 57.1841C7.06188 56.4969 6.17909 55.6333 5.56616 54.5932C5.75635 54.3722 5.87672 54.1065 5.92727 53.796C6.28549 54.2584 6.72677 54.2917 7.25135 53.8957C8.40497 52.4755 9.80921 51.2464 11.4643 50.2087C12.4836 48.8989 13.7677 47.7697 15.3162 46.8206C15.4767 46.422 15.6371 46.0235 15.7976 45.6249C16.3918 45.5045 16.8733 45.2386 17.2421 44.8277C17.3945 43.5725 18.2371 42.9413 19.7699 42.9344C20.059 42.7544 20.2598 42.522 20.3717 42.2368C20.8527 42.6338 21.3342 43.0324 21.8161 43.4326C22.0595 43.3218 22.2601 43.1891 22.418 43.034Z" fill="#3499AB"/>
<path fill-rule="evenodd" clip-rule="evenodd" d="M23.6217 43.6318C24.6588 44.1229 25.7823 44.3888 26.9921 44.429C27.417 44.6205 27.8985 44.6871 28.4365 44.6283C28.4266 45.0757 28.2259 45.2087 27.8347 45.0269C27.7184 45.2158 27.6784 45.4151 27.7143 45.6248C26.0188 45.9289 24.8553 46.7927 24.2236 48.2157C22.5624 49.4336 20.9574 50.6959 19.4087 52.0023C19.2739 52.8445 18.7123 53.376 17.7236 53.5967C17.523 53.9289 17.3222 54.2609 17.1217 54.5932C15.7909 55.5924 14.3465 56.4893 12.7884 57.2837C12.1757 57.8232 11.6138 58.3878 11.1032 58.9777C10.054 58.4768 9.09109 57.879 8.21431 57.184C8.24103 57.061 8.3212 56.9614 8.45505 56.8851C8.09226 56.7183 7.97189 56.4857 8.09394 56.1875C8.17411 56.2539 8.25451 56.3205 8.33468 56.3868C8.85348 55.2263 9.85664 54.5951 11.3439 54.4935C11.8127 53.8817 12.4145 53.3834 13.1495 52.9988C13.357 52.6825 13.5176 52.3503 13.631 52.0023C14.2776 51.7679 14.8392 51.4357 15.3162 51.0058C16.0437 50.3356 16.6855 49.6048 17.2421 48.8135C18.3374 48.239 19.18 47.4751 19.7699 46.5216C21.2352 45.8315 22.5993 45.0343 23.8624 44.1301C23.6814 43.9963 23.601 43.8303 23.6217 43.6318Z" fill="#3294B2"/>
<path fill-rule="evenodd" clip-rule="evenodd" d="M78.2699 28.6846C78.3501 28.6846 78.4305 28.6846 78.5107 28.6846C78.5128 29.0449 78.3925 29.3771 78.1496 29.6811C77.1637 30.1388 76.241 30.6704 75.381 31.2754C74.9732 31.6848 74.6923 32.1499 74.5385 32.6705C74.4388 32.5794 74.3184 32.5129 74.1773 32.4712C73.5341 32.8549 73.2933 33.3864 73.4551 34.0656C75.9487 34.1714 78.4363 34.3376 80.9181 34.5638C80.2991 34.7434 79.7375 35.0091 79.2329 35.361C77.9038 36.7094 76.4593 37.9718 74.8996 39.1476C74.5787 39.214 74.2575 39.2806 73.9366 39.3469C73.0512 39.7818 72.3691 40.4793 71.8903 41.4396C71.8101 41.3732 71.7297 41.3066 71.6496 41.2403C71.4079 42.4689 70.6454 43.3988 69.3625 44.0304C68.9554 43.6804 68.474 43.5808 67.9181 43.7315C67.9983 43.7978 68.0787 43.8644 68.1588 43.9308C67.8379 44.263 67.5168 44.595 67.1959 44.9272C67.276 44.9936 67.3564 45.0602 67.4366 45.1265C66.6101 45.7328 65.9281 46.4303 65.3903 47.2192C64.9729 47.608 64.4512 47.8073 63.8255 47.8171C63.8782 48.0512 63.7981 48.2505 63.5848 48.4149C62.3072 49.4058 61.0233 50.4023 59.7329 51.4044C59.1713 51.637 58.6094 51.8694 58.0477 52.1019C56.9572 52.9874 55.914 53.9175 54.9181 54.8921C54.0132 55.6388 52.97 56.2367 51.7885 56.6858C50.4013 57.8225 49.1577 59.0516 48.057 60.3727C47.1292 60.8801 46.3668 61.3784 45.77 61.8675C46.3316 61.9338 46.8935 62.0004 47.4551 62.0668C46.2072 62.1014 45.0034 62.2011 43.844 62.3657C41.4366 62.3657 39.0292 62.3657 36.6218 62.3657C38.3624 62.223 40.1277 62.0237 41.9181 61.7678C41.5168 61.5352 41.1157 61.3029 40.7144 61.0703C41.148 61.0071 41.2282 60.8742 40.9552 60.6717C42.0029 60.003 42.9658 59.2724 43.844 58.4794C43.9242 58.4461 44.0046 58.4131 44.0848 58.3798C44.2656 58.5544 44.3859 58.7537 44.4459 58.9777C44.7605 58.7242 45.1217 58.5249 45.5292 58.3798C45.1409 58.195 44.7398 58.0288 44.3255 57.8815C45.6869 57.0865 46.8906 56.1564 47.9366 55.0914C48.2479 54.9937 48.5691 54.9604 48.8996 54.9917C48.9405 54.7283 48.8604 54.4957 48.6589 54.2942C50.1835 53.2977 51.5477 52.1683 52.7514 50.9061C54.8928 49.7985 56.8992 48.5363 58.77 47.1195C60.439 46.5685 61.803 45.7382 62.8625 44.6283C69.753 43.569 72.9628 40.1146 72.4922 34.2649C70.852 34.0674 69.1668 34.0008 67.4366 34.0656C68.4624 33.9408 69.5055 33.7748 70.5662 33.5673C70.7475 33.2202 70.7475 32.8216 70.5662 32.3716C70.8948 31.0839 71.7776 30.2204 73.2144 29.7807C73.015 29.5983 72.7743 29.4656 72.4922 29.3821C73.0784 29.3672 73.2389 29.2011 72.9736 28.8839C74.7838 28.9486 76.5491 28.8823 78.2699 28.6846Z" fill="#2A78D7"/>
<path fill-rule="evenodd" clip-rule="evenodd" d="M36.381 44.8276C35.0451 45.0111 33.6808 45.2104 32.2884 45.4255C31.4689 46.4774 30.7869 47.6068 30.2421 48.8135C28.899 50.034 27.6149 51.2962 26.3902 52.6002C25.0125 53.6188 23.5278 54.5156 21.9365 55.2907C21.1585 56.3109 20.0352 56.8755 18.5662 56.9847C19.734 55.922 21.0983 55.0252 22.6588 54.2942C23.9758 53.0703 25.2999 51.8412 26.631 50.6072C27.4257 49.3548 28.3084 48.159 29.2791 47.0198C30.003 46.7038 30.6049 46.2719 31.0847 45.7244C30.8439 45.6581 30.6032 45.5915 30.3624 45.5251C31.0929 45.2979 31.8151 45.165 32.5291 45.1265C32.2082 45.0602 31.8871 44.9936 31.5661 44.9272C33.169 44.8276 34.774 44.7945 36.381 44.8276Z" fill="#2F90BC"/>
<path fill-rule="evenodd" clip-rule="evenodd" d="M36.3809 44.8276C37.1833 44.8276 37.9859 44.8276 38.7883 44.8276C38.972 44.9807 39.2127 45.0803 39.5105 45.1266C39.0962 45.2739 38.6951 45.4401 38.3068 45.6248C38.4864 45.8712 38.5666 46.137 38.5475 46.422C37.3631 46.8045 36.4803 47.4687 35.8994 48.415C34.5118 49.3292 33.1477 50.2926 31.8068 51.3048C31.1602 51.5774 30.5181 51.8431 29.8809 52.102C28.7653 53.3209 27.682 54.5499 26.6309 55.789C25.5399 56.5602 24.4565 57.3243 23.3809 58.0809C22.7237 58.5054 22.2422 59.0369 21.9365 59.6752C21.7082 59.7715 21.4675 59.8046 21.2142 59.7749C21.1341 60.1735 21.0537 60.5721 20.9735 60.9707C19.927 61.0588 19.8468 61.2248 20.7327 61.4689C20.5517 61.6026 20.4713 61.7687 20.492 61.9672C18.1181 61.6885 15.8712 61.0906 13.7513 60.1735C13.6721 59.677 13.4313 59.2454 13.0291 58.8781C13.4203 58.7081 13.5004 58.5088 13.2698 58.2802C14.2041 58.1592 15.0065 57.827 15.6772 57.2837C16.6204 57.0533 17.5834 56.9536 18.5661 56.9847C20.0351 56.8755 21.1584 56.3109 21.9365 55.2907C23.5277 54.5156 25.0124 53.6188 26.3902 52.6002C27.6148 51.2962 28.8989 50.0341 30.242 48.8136C30.7868 47.6068 31.4688 46.4774 32.2883 45.4255C33.6807 45.2105 35.045 45.0112 36.3809 44.8276Z" fill="#2F8DBE"/>
<path fill-rule="evenodd" clip-rule="evenodd" d="M44.8069 44.6282C50.4241 44.6282 56.0415 44.6282 61.6587 44.6282C59.2145 44.8263 56.7269 44.8928 54.1958 44.8275C52.5908 44.8275 50.986 44.8275 49.381 44.8275C48.0944 44.7944 46.8106 44.8277 45.5291 44.9271C46.2513 44.9935 46.9736 45.06 47.6958 45.1264C46.7872 45.8774 45.7441 46.4753 44.5661 46.9201C44.2669 47.1501 44.0262 47.4159 43.8439 47.7173C42.2599 48.6675 40.6548 49.5644 39.0291 50.4078C37.4525 51.7496 35.9279 53.1447 34.455 54.593C33.3212 55.3019 32.2378 56.0327 31.2051 56.7853C30.3668 58.2692 29.2033 59.5647 27.7143 60.6716C27.7945 60.7379 27.8749 60.8045 27.9551 60.8709C27.7143 60.9372 27.4736 61.0038 27.2328 61.0701C27.5537 61.2694 27.8749 61.4687 28.1958 61.668C28.1156 61.7344 28.0352 61.801 27.9551 61.8673C26.9353 61.9341 25.9723 62.1001 25.0662 62.3656C24.5045 62.3656 23.9426 62.3656 23.381 62.3656C22.9496 62.2043 22.4681 62.1047 21.9365 62.0666C24.4301 61.7446 24.35 61.4789 21.6958 61.2694C22.0167 61.2031 22.3379 61.1365 22.6588 61.0701C22.5331 60.9583 22.4529 60.8254 22.418 60.6716C23.9414 58.6469 26.0279 57.1522 28.6773 56.1874C29.244 55.552 29.9262 55.0205 30.7236 54.593C32.839 52.1056 35.2464 49.7806 37.9458 47.6176C38.3211 47.2754 38.5216 46.8768 38.5476 46.4218C38.5667 46.1368 38.4865 45.871 38.3069 45.6247C38.6952 45.4399 39.0963 45.2737 39.5106 45.1264C39.2128 45.0802 38.9721 44.9805 38.7884 44.8275C40.8388 44.8924 42.8449 44.8261 44.8069 44.6282Z" fill="#2E87C5"/>
<path fill-rule="evenodd" clip-rule="evenodd" d="M49.381 44.8276C49.7305 44.9874 50.1316 45.087 50.5847 45.1265C49.653 45.1474 48.7702 45.3134 47.9365 45.6247C47.0626 46.5148 46.1399 47.3786 45.168 48.2156C44.68 48.7579 44.3189 49.3558 44.0847 50.0093C41.8983 51.32 39.8922 52.8148 38.0662 54.4934C37.5452 54.6756 37.0637 54.9082 36.6217 55.191C35.7902 55.978 35.1082 56.8416 34.5754 57.7818C33.6394 58.2247 32.9574 58.8557 32.5291 59.6752C31.5828 60.1001 30.7804 60.6647 30.1217 61.3692C29.6402 61.5352 29.1588 61.7014 28.6773 61.8674C29.6855 61.9025 30.6485 62.0021 31.5662 62.1664C32.915 62.3677 34.6002 62.434 36.6217 62.3657C39.0291 62.3657 41.4365 62.3657 43.8439 62.3657C45.85 62.3657 47.8563 62.3657 49.8624 62.3657C51.5476 62.3657 53.2328 62.3657 54.918 62.3657C57.3254 62.3657 59.7328 62.3657 62.1402 62.3657C49.7823 62.6313 37.4241 62.6313 25.0662 62.3657C25.9723 62.1002 26.9353 61.9342 27.955 61.8674C28.0352 61.8011 28.1156 61.7345 28.1958 61.6681C27.8749 61.4688 27.5537 61.2695 27.2328 61.0702C27.4736 61.0039 27.7143 60.9373 27.955 60.8709C27.8749 60.8046 27.7945 60.738 27.7143 60.6716C29.2033 59.5648 30.3668 58.2693 31.205 56.7854C32.2378 56.0328 33.3212 55.302 34.455 54.5931C35.9279 53.1448 37.4525 51.7497 39.0291 50.4079C40.6548 49.5644 42.2598 48.6676 43.8439 47.7174C44.0262 47.416 44.2669 47.1502 44.5661 46.9202C45.7441 46.4753 46.7872 45.8775 47.6958 45.1265C46.9735 45.0601 46.2513 44.9936 45.5291 44.9272C46.8106 44.8278 48.0944 44.7945 49.381 44.8276Z" fill="#3888CC"/>
<path fill-rule="evenodd" clip-rule="evenodd" d="M19.77 40.6423C20.4888 41.5695 21.3716 42.3666 22.4181 43.0339C22.2602 43.1889 22.0597 43.3217 21.8163 43.4325C21.3343 43.0323 20.8528 42.6337 20.3718 42.2367C20.2599 42.5219 20.0591 42.7543 19.77 42.9342C18.2372 42.9412 17.3946 43.5724 17.2422 44.8276C16.8734 45.2385 16.3919 45.5044 15.7978 45.6248C15.6372 46.0233 15.4769 46.4219 15.3163 46.8205C13.7679 47.7696 12.4837 48.8988 11.4644 50.2086C9.80936 51.2463 8.40512 52.4754 7.25149 53.8956C6.72691 54.2916 6.28564 54.2583 5.92742 53.7959C5.87686 54.1064 5.75649 54.3721 5.5663 54.5931C4.68616 53.9348 4.04434 53.1376 3.64038 52.2015C5.38888 51.4492 6.71295 50.32 7.6126 48.8135C7.95421 48.6222 8.31532 48.4562 8.69593 48.3153C9.95765 46.9381 11.4421 45.7756 13.1496 44.8276C13.7659 43.9076 14.5284 43.0773 15.4367 42.3364C16.8582 41.7146 18.3027 41.1497 19.77 40.6423Z" fill="#359CA6"/>
<path fill-rule="evenodd" clip-rule="evenodd" d="M49.3809 44.8276C50.9859 44.8276 52.5907 44.8276 54.1957 44.8276C54.7076 44.9524 55.1089 45.2181 55.3994 45.6248C54.2995 46.1135 53.1762 46.5454 52.0291 46.9203C49.8882 48.8291 47.4808 50.4235 44.8069 51.7034C44.1465 52.7164 43.3841 53.6796 42.5198 54.5932C40.2872 55.8438 38.2811 57.3052 36.5013 58.9777C35.8898 59.793 35.288 60.4906 34.6958 61.0703C35.1409 61.2881 35.5422 61.5538 35.8995 61.8675C34.4683 62.0991 33.0238 62.1987 31.5661 62.1664C30.6484 62.0022 29.6855 61.9026 28.6772 61.8675C29.1587 61.7015 29.6402 61.5353 30.1217 61.3693C30.7804 60.6647 31.5827 60.1001 32.5291 59.6752C32.9574 58.8557 33.6394 58.2248 34.5754 57.7819C35.1081 56.8416 35.7902 55.9781 36.6217 55.1911C37.0637 54.9083 37.5452 54.6757 38.0661 54.4935C39.8921 52.8149 41.8982 51.3201 44.0846 50.0094C44.3189 49.3559 44.68 48.758 45.168 48.2157C46.1398 47.3786 47.0626 46.5149 47.9365 45.6248C48.7702 45.3135 49.653 45.1475 50.5846 45.1266C50.1316 45.0871 49.7305 44.9875 49.3809 44.8276Z" fill="#2B81CC"/>
<path fill-rule="evenodd" clip-rule="evenodd" d="M28.4366 44.6282C33.8935 44.6282 39.3501 44.6282 44.8069 44.6282C42.8449 44.8261 40.8388 44.8924 38.7884 44.8275C37.986 44.8275 37.1834 44.8275 36.381 44.8275C34.7741 44.7944 33.1691 44.8275 31.5662 44.9271C31.8871 44.9935 32.2083 45.06 32.5292 45.1264C31.8151 45.1649 31.0929 45.2978 30.3625 45.525C30.6033 45.5914 30.844 45.6579 31.0847 45.7243C30.6049 46.2718 30.0031 46.7036 29.2792 47.0197C28.3085 48.1589 27.4257 49.3547 26.631 50.6071C25.3 51.8411 23.9759 53.0702 22.6588 54.2941C21.0983 55.0251 19.7341 55.9219 18.5662 56.9846C17.5835 56.9535 16.6206 57.0531 15.6773 57.2835C15.0066 57.8268 14.2042 58.159 13.2699 58.28C13.5006 58.5086 13.4204 58.7079 13.0292 58.8779C13.4315 59.2452 13.6722 59.6769 13.7514 60.1733C12.7596 59.929 11.8768 59.5304 11.1033 58.9775C11.6139 58.3876 12.1758 57.823 12.7885 57.2835C14.3465 56.4891 15.791 55.5923 17.1218 54.593C17.3223 54.2608 17.5231 53.9288 17.7236 53.5965C18.7124 53.3759 19.274 52.8444 19.4088 52.0022C20.9575 50.6958 22.5625 49.4334 24.2236 48.2155C24.8553 46.7925 26.0188 45.9288 27.7144 45.6247C27.6785 45.415 27.7185 45.2157 27.8347 45.0268C28.2259 45.2085 28.4267 45.0756 28.4366 44.6282Z" fill="#3392B8"/>
<path fill-rule="evenodd" clip-rule="evenodd" d="M38.5476 46.4219C38.5216 46.8769 38.3211 47.2755 37.9458 47.6177C35.2463 49.7806 32.8389 52.1056 30.7236 54.593C29.9262 55.0205 29.244 55.5521 28.6773 56.1874C26.0279 57.1522 23.9414 58.6469 22.418 60.6716C22.4529 60.8254 22.5331 60.9584 22.6587 61.0702C22.3378 61.1365 22.0167 61.2031 21.6958 61.2695C24.3499 61.4789 24.4301 61.7446 21.9365 62.0667C22.4681 62.1047 22.9496 62.2044 23.381 62.3656C22.3482 62.4258 21.3852 62.2931 20.4921 61.967C20.4714 61.7685 20.5518 61.6025 20.7328 61.4688C19.8469 61.2246 19.9271 61.0586 20.9736 60.9705C21.0537 60.5719 21.1341 60.1733 21.2143 59.7748C21.4676 59.8044 21.7083 59.7714 21.9365 59.6751C22.2423 59.0368 22.7237 58.5052 23.381 58.0807C24.4566 57.3242 25.5399 56.5601 26.631 55.7888C27.682 54.5498 28.7654 53.3207 29.881 52.1018C30.5182 51.8429 31.1603 51.5773 31.8069 51.3046C33.1478 50.2924 34.5118 49.329 35.8995 48.4148C36.4804 47.4686 37.3632 46.8043 38.5476 46.4219Z" fill="#308AC3"/>
<path fill-rule="evenodd" clip-rule="evenodd" d="M84.2885 45.8241C82.9427 52.8861 78.2885 57.8353 70.3255 60.6717C68.2185 61.3529 66.0519 61.8511 63.8255 62.1664C61.2626 62.1323 61.2626 62.0327 63.8255 61.8674C63.7453 61.8011 63.6649 61.7345 63.5848 61.6681C64.3383 61.3054 65.1409 61.1061 65.9922 61.0702C64.9233 60.4178 64.8029 59.6536 65.6311 58.7783C66.613 58.3648 67.4556 57.8002 68.1588 57.0843C69.6172 56.6678 70.7408 55.937 71.5292 54.8921C72.4175 54.2593 73.3805 53.7278 74.4181 53.2977C75.5214 51.8514 76.7251 50.4563 78.0292 49.1125C78.3287 49.0216 78.5292 49.1212 78.6311 49.4114C78.6703 48.9777 78.8708 48.6124 79.2329 48.3153C80.3073 47.9555 81.3103 47.5237 82.2422 47.0198C82.5111 47.3086 82.6716 47.6408 82.7236 48.0163C82.7357 46.7715 83.0164 45.5757 83.5662 44.429C83.4788 44.2929 83.3987 44.1599 83.3255 44.0304C83.3209 43.7195 83.2408 43.4205 83.0848 43.1336C83.1873 42.3766 83.6286 42.1442 84.4088 42.436C84.5694 43.2996 84.5694 44.1633 84.4088 45.0269C84.3287 44.6946 84.2483 44.3626 84.1681 44.0304C84.0155 44.6392 84.0554 45.2371 84.2885 45.8241Z" fill="#2B69EB"/>
<path fill-rule="evenodd" clip-rule="evenodd" d="M61.6587 44.6282C62.06 44.6282 62.4611 44.6282 62.8624 44.6282C61.8029 45.7381 60.4389 46.5683 58.7698 47.1194C56.899 48.5362 54.8927 49.7983 52.7513 50.906C51.5476 52.1682 50.1833 53.2976 48.6587 54.2941C48.8602 54.4956 48.9404 54.7281 48.8995 54.9916C48.5689 54.9603 48.2478 54.9936 47.9365 55.0912C46.8905 56.1563 45.6868 57.0864 44.3254 57.8814C44.7397 58.0287 45.1408 58.1949 45.5291 58.3796C45.1215 58.5247 44.7604 58.724 44.4458 58.9775C44.3858 58.7535 44.2655 58.5542 44.0847 58.3796C44.0045 58.4129 43.9241 58.446 43.8439 58.4793C42.9657 59.2723 42.0027 60.0029 40.955 60.6716C41.228 60.874 41.1479 61.007 40.7143 61.0702C41.1156 61.3027 41.5167 61.5351 41.918 61.7677C40.1276 62.0236 38.3623 62.2229 36.6217 62.3656C34.6002 62.4339 32.915 62.3676 31.5662 62.1663C33.0238 62.1986 34.4683 62.0989 35.8995 61.8673C35.5422 61.5536 35.1409 61.288 34.6958 61.0702C35.288 60.4904 35.8899 59.7929 36.5013 58.9775C38.2811 57.305 40.2872 55.8436 42.5199 54.593C43.3841 53.6794 44.1465 52.7162 44.8069 51.7032C47.4808 50.4233 49.8882 48.8289 52.0291 46.9201C53.1762 46.5452 54.2995 46.1133 55.3995 45.6247C55.1089 45.2179 54.7076 44.9522 54.1958 44.8275C56.7269 44.8928 59.2145 44.8263 61.6587 44.6282Z" fill="#2B7ED1"/>
<path fill-rule="evenodd" clip-rule="evenodd" d="M83.3253 44.0304C83.3985 44.16 83.4787 44.2929 83.5661 44.429C83.0162 45.5758 82.7355 46.7716 82.7235 48.0164C82.6715 47.6409 82.5109 47.3087 82.242 47.0199C81.3101 47.5237 80.3072 47.9556 79.2328 48.3153C78.8707 48.6125 78.6701 48.9778 78.6309 49.4114C78.5291 49.1213 78.3285 49.0216 78.0291 49.1125C76.725 50.4564 75.5213 51.8514 74.4179 53.2977C73.3804 53.7278 72.4174 54.2593 71.5291 54.8921C70.7406 55.937 69.6171 56.6678 68.1587 57.0844C67.4555 57.8002 66.6129 58.3648 65.6309 58.7784C64.8028 59.6537 64.9231 60.4178 65.992 61.0703C65.1408 61.1062 64.3381 61.3055 63.5846 61.6682C63.6648 61.7346 63.7452 61.8011 63.8254 61.8675C61.2624 62.0327 61.2624 62.1323 63.8254 62.1664C63.3181 62.3593 62.7562 62.4259 62.1402 62.3657C59.7328 62.3657 57.3254 62.3657 54.918 62.3657C55.4252 62.1728 55.9871 62.1062 56.6032 62.1664C57.6711 62.2242 58.7144 62.1246 59.7328 61.8675C60.0537 61.7346 60.0537 61.6018 59.7328 61.4689C59.8934 61.4025 60.0537 61.336 60.2143 61.2696C59.8934 60.871 59.8934 60.4724 60.2143 60.0738C61.1772 59.6752 62.1402 59.2766 63.1031 58.878C63.7486 58.3104 64.551 57.9782 65.5106 57.8815C67.2022 56.7181 68.9676 55.6552 70.8068 54.6928C71.0064 54.3309 71.2072 53.9656 71.4087 53.5967C72.4087 53.1676 73.0505 52.5033 73.3346 51.6037C73.4148 51.6701 73.4952 51.7366 73.5754 51.803C74.5742 51.0576 75.2162 50.1275 75.5013 49.0128C76.5993 48.1878 77.6427 47.3242 78.6309 46.422C78.9282 44.6865 80.0518 43.7564 82.0013 43.6318C82.3222 43.7648 82.5629 43.9641 82.7235 44.2297C82.885 44.0799 83.0856 44.0133 83.3253 44.0304Z" fill="#2A6BE8"/>
</svg>
