<svg width="85" height="70" viewBox="0 0 85 70" fill="none" xmlns="http://www.w3.org/2000/svg">
<path fill-rule="evenodd" clip-rule="evenodd" d="M21.3569 2.19226C19.6 2.55359 17.9148 3.08491 16.3014 3.78664C16.7547 4.87161 16.5139 5.83481 15.5792 6.67644C15.3509 6.7727 15.1102 6.80578 14.8569 6.77609C15.0011 7.46625 15.2419 8.13051 15.5792 8.76905C15.6593 9.03472 15.7397 9.30058 15.8199 9.56624C15.642 9.54013 15.4814 9.57342 15.3384 9.66589C14.939 10.2327 14.4575 10.7309 13.894 11.1606C12.9158 8.8978 11.9127 6.63897 10.8847 4.38453C10.7193 3.97238 10.7595 3.57379 11.0051 3.18875C11.552 2.76006 12.1941 2.46111 12.931 2.29191C15.6429 1.46722 18.3715 0.703318 21.1162 0C21.2953 0.721255 21.3755 1.45188 21.3569 2.19226Z" fill="#8FD563"/>
<path fill-rule="evenodd" clip-rule="evenodd" d="M21.3567 2.19214C21.6961 3.03018 21.8567 3.89373 21.8382 4.783C20.8446 4.8099 20.2026 5.20849 19.9122 5.97878C19.7538 6.15774 19.5935 6.35704 19.4308 6.57667C19.1171 6.33392 18.8763 6.40029 18.7085 6.77596C18.4083 7.0761 18.4083 7.37505 18.7085 7.6728C17.6635 8.06003 16.6204 8.42534 15.5789 8.76893C15.2416 8.13038 15.0009 7.46613 14.8567 6.77596C15.1099 6.80566 15.3507 6.77257 15.5789 6.67631C16.5137 5.83468 16.7544 4.87148 16.3011 3.78651C17.9146 3.08479 19.5998 2.55346 21.3567 2.19214Z" fill="#96F57D"/>
<path fill-rule="evenodd" clip-rule="evenodd" d="M21.8382 4.78296C21.8382 4.84932 21.8382 4.91589 21.8382 4.98226C21.805 5.9616 21.9653 6.89172 22.3197 7.77241C22.3197 7.83877 22.3197 7.90534 22.3197 7.97171C22.3197 8.171 22.3197 8.3703 22.3197 8.5696C20.4477 8.41255 19.6453 7.549 19.9123 5.97874C20.2026 5.20846 20.8447 4.80986 21.8382 4.78296Z" fill="#5CBE40"/>
<path fill-rule="evenodd" clip-rule="evenodd" d="M21.8383 4.98242C22.0985 5.60562 22.2588 6.26988 22.3197 6.97539C22.3197 7.24105 22.3197 7.50691 22.3197 7.77258C21.9654 6.89188 21.805 5.96177 21.8383 4.98242Z" fill="#85C971"/>
<path fill-rule="evenodd" clip-rule="evenodd" d="M19.9124 5.97876C19.6454 7.54902 20.4478 8.41257 22.3198 8.56962C22.3596 9.30343 22.3196 10.034 22.1995 10.7619C22.1193 10.6955 22.0389 10.6289 21.9587 10.5626C20.503 11.1336 19.0183 11.6649 17.505 12.157C17.2782 12.1354 17.0777 12.0691 16.9032 11.9577C16.6853 11.0933 16.3242 10.2961 15.8198 9.5661C15.7397 9.30044 15.6593 9.03458 15.5791 8.76891C16.6205 8.42533 17.6637 8.06001 18.7087 7.67278C18.4085 7.37503 18.4085 7.07609 18.7087 6.77595C18.8765 6.40027 19.1173 6.33391 19.4309 6.57665C19.5937 6.35702 19.754 6.15773 19.9124 5.97876Z" fill="#72D762"/>
<path fill-rule="evenodd" clip-rule="evenodd" d="M33.8754 7.37402C33.5468 9.15892 33.3061 10.9526 33.1532 12.755C32.9242 13.0378 32.8441 13.3699 32.9124 13.7515C32.5111 13.7515 32.1101 13.7515 31.7087 13.7515C31.7087 13.5522 31.7087 13.3529 31.7087 13.1536C31.9829 11.2637 32.3039 9.40366 32.6717 7.57332C32.5899 10.1765 32.8706 10.1765 33.5143 7.57332C33.6065 7.46251 33.7269 7.39615 33.8754 7.37402Z" fill="#00BAA3"/>
<path fill-rule="evenodd" clip-rule="evenodd" d="M22.3197 7.97168C22.5299 9.87456 22.7706 11.8012 23.0419 13.7513C20.5638 13.8214 18.1161 14.0871 15.6994 14.5485C15.4054 14.3946 15.1647 14.1953 14.9771 13.9506C14.6861 12.9954 14.325 12.0652 13.8938 11.1604C14.4574 10.7307 14.9389 10.2325 15.3382 9.6657C15.4812 9.57323 15.6418 9.53995 15.8197 9.56605C16.3241 10.2961 16.6852 11.0933 16.9031 11.9576C17.0776 12.069 17.2781 12.1354 17.5049 12.1569C19.0182 11.6648 20.5028 11.1335 21.9586 10.5625C22.0388 10.6289 22.1192 10.6955 22.1993 10.7618C22.3195 10.034 22.3594 9.30338 22.3197 8.56957C22.3197 8.37027 22.3197 8.17098 22.3197 7.97168Z" fill="#69C257"/>
<path fill-rule="evenodd" clip-rule="evenodd" d="M58.19 9.56616C58.0889 10.565 58.0487 11.5615 58.0696 12.5556C58.4428 12.3382 58.7237 12.0725 58.9122 11.7584C58.9122 12.0241 58.9122 12.2899 58.9122 12.5556C58.6809 12.9074 58.6005 13.306 58.6715 13.7514C58.2702 13.7514 57.8691 13.7514 57.4678 13.7514C57.4678 13.685 57.4678 13.6185 57.4678 13.5521C57.578 12.1809 57.8188 10.8522 58.19 9.56616Z" fill="#0E6177"/>
<path fill-rule="evenodd" clip-rule="evenodd" d="M33.0107 11.7443C35.6588 11.7443 38.307 11.7443 40.9551 11.7443C40.3644 11.9677 39.7223 12.1337 39.0292 12.2425C39.3114 12.3261 39.5521 12.4588 39.7514 12.6411C39.1094 12.9068 38.6279 13.3054 38.307 13.8369C36.2022 14.1311 34.3564 14.8617 32.77 16.0292C33.14 16.2504 33.3003 16.5494 33.2514 16.926C32.4062 17.0055 31.6038 17.1385 30.844 17.3246C29.5602 17.3246 28.2761 17.3246 26.9922 17.3246C27.4388 17.0191 27.88 16.6869 28.3163 16.3281C28.8536 15.239 29.5758 14.2425 30.4829 13.3387C30.6276 12.0652 31.4702 11.5337 33.0107 11.7443Z" fill="#3CAD81"/>
<path fill-rule="evenodd" clip-rule="evenodd" d="M50.5846 11.7444C51.5174 11.6617 52.4002 11.7614 53.2327 12.0434C51.9785 13.2113 50.4539 14.0748 48.6587 14.6342C48.395 15.3611 47.9136 15.959 47.2142 16.4279C44.9226 16.8554 42.5956 17.088 40.2327 17.1255C39.9658 16.968 39.6448 16.8684 39.2698 16.8265C39.5907 16.7601 39.9118 16.6936 40.2327 16.6272C40.759 15.2766 41.8823 14.4794 43.6031 14.2357C44.4358 13.3962 45.3988 12.6987 46.492 12.143C47.8878 12.0183 49.2518 11.8853 50.5846 11.7444Z" fill="#34A58C"/>
<path fill-rule="evenodd" clip-rule="evenodd" d="M33.0105 11.7445C33.0105 11.6781 33.0105 11.6115 33.0105 11.5452C41.3562 11.5452 49.7018 11.5452 58.0475 11.5452C58.3891 11.7347 58.7902 11.8011 59.2512 11.7445C59.3518 11.8884 59.5122 11.988 59.7327 12.0434C59.6525 12.2427 59.5721 12.442 59.492 12.6413C57.4425 13.0917 55.6769 13.9553 54.1957 15.2322C54.3562 15.2985 54.5166 15.3651 54.6771 15.4315C53.9491 15.733 53.3071 16.1316 52.7512 16.6272C51.4117 16.6769 50.1276 16.8429 48.8994 17.1255C48.6606 17.0912 48.5002 17.1578 48.4179 17.3248C45.1277 17.3248 41.8377 17.3248 38.5475 17.3248C39.0548 17.1319 39.6167 17.0653 40.2327 17.1255C42.5956 17.088 44.9226 16.8554 47.2142 16.4279C47.9135 15.959 48.395 15.3611 48.6586 14.6343C50.4538 14.0748 51.9784 13.2113 53.2327 12.0434C52.4002 11.7614 51.5174 11.6618 50.5846 11.7445C47.3748 11.7445 44.1647 11.7445 40.9549 11.7445C38.3068 11.7445 35.6586 11.7445 33.0105 11.7445Z" fill="#38A694"/>
<path fill-rule="evenodd" clip-rule="evenodd" d="M58.0476 11.5452C63.3439 11.5452 68.6402 11.5452 73.9365 11.5452C73.3421 11.708 72.7003 11.8076 72.0105 11.8441C72.2051 11.9055 72.3656 12.0051 72.492 12.1431C72.2173 12.3274 72.2173 12.4936 72.492 12.6413C72.2361 12.8781 71.915 12.9777 71.5291 12.9402C71.3784 13.5013 71.0572 13.9995 70.5661 14.435C69.9459 14.5908 69.4645 14.8898 69.1217 15.3318C67.6632 15.3149 66.6201 15.8464 65.992 16.9262C66.4191 17.0631 66.8204 17.2291 67.1957 17.4244C66.8845 17.5221 66.5633 17.5554 66.2328 17.5241C60.3007 17.3323 54.3623 17.266 48.418 17.3248C48.5003 17.1578 48.6606 17.0912 48.8994 17.1255C51.629 17.1588 54.3575 17.1255 57.0846 17.0258C57.0045 16.9595 56.9241 16.8929 56.8439 16.8265C57.0846 16.7602 57.3254 16.6936 57.5661 16.6272C57.887 16.4943 57.887 16.3616 57.5661 16.2286C60.2903 15.6495 62.9385 15.0516 65.5105 14.435C65.0498 14.1534 64.7289 13.7879 64.5476 13.3388C64.9874 12.9428 65.2282 12.4777 65.2698 11.9438C63.2688 11.7963 61.2624 11.7299 59.2513 11.7445C58.7903 11.8011 58.3892 11.7347 58.0476 11.5452Z" fill="#329D9F"/>
<path fill-rule="evenodd" clip-rule="evenodd" d="M40.9551 11.7444C44.1649 11.7444 47.3749 11.7444 50.5847 11.7444C49.252 11.8853 47.8879 12.0182 46.4921 12.143C45.3989 12.6986 44.436 13.3962 43.6032 14.2356C41.8824 14.4793 40.7591 15.2765 40.2329 16.6272C39.912 16.6935 39.5908 16.7601 39.2699 16.8265C39.645 16.8683 39.9659 16.968 40.2329 17.1254C39.6168 17.0652 39.0549 17.1318 38.5477 17.3247C35.9797 17.3247 33.412 17.3247 30.844 17.3247C31.6038 17.1385 32.4062 17.0056 33.2514 16.9261C33.3003 16.5494 33.1399 16.2505 32.7699 16.0293C34.3564 14.8618 36.2022 14.1312 38.3069 13.837C38.6279 13.3055 39.1093 12.9069 39.7514 12.6412C39.5521 12.4589 39.3113 12.3261 39.0292 12.2426C39.7223 12.1338 40.3643 11.9678 40.9551 11.7444Z" fill="#37A986"/>
<path fill-rule="evenodd" clip-rule="evenodd" d="M73.9366 11.5449C77.2694 11.4794 80.5594 11.5457 83.807 11.7442C81.719 11.7112 79.6325 11.7442 77.5477 11.8439C77.949 11.9103 78.3501 11.9768 78.7514 12.0432C78.0415 13.159 76.9182 13.8233 75.3811 14.0362C74.752 14.4593 74.1904 14.9242 73.6959 15.4312C71.7396 15.3764 70.2952 16.0407 69.3626 17.4242C68.7761 17.4136 68.2145 17.4467 67.6774 17.5238C67.856 17.6807 68.0565 17.8134 68.2792 17.9224C68.6158 17.8126 68.9369 17.7463 69.2422 17.7231C69.3079 18.0422 69.4283 18.3412 69.6033 18.62C69.5484 18.6995 69.468 18.7326 69.3626 18.7196C68.3303 18.2585 67.2869 17.8599 66.2329 17.5238C66.5635 17.5551 66.8846 17.5219 67.1959 17.4242C66.8206 17.2289 66.4193 17.0629 65.9922 16.926C66.6203 15.8462 67.6634 15.3146 69.1218 15.3316C69.4646 14.8895 69.9461 14.5906 70.5663 14.4347C71.0574 13.9993 71.3785 13.501 71.5292 12.94C71.9151 12.9775 72.2363 12.8778 72.4922 12.6411C72.2175 12.4934 72.2175 12.3272 72.4922 12.1428C72.3658 12.0049 72.2052 11.9053 72.0107 11.8439C72.7004 11.8074 73.3422 11.7078 73.9366 11.5449Z" fill="#3199A6"/>
<path fill-rule="evenodd" clip-rule="evenodd" d="M59.2513 11.7444C61.2624 11.7298 63.2687 11.7962 65.2698 11.9437C65.2281 12.4776 64.9874 12.9428 64.5475 13.3388C64.7288 13.7878 65.0497 14.1533 65.5105 14.4349C62.9384 15.0515 60.2903 15.6494 57.5661 16.2286C57.887 16.3615 57.887 16.4942 57.5661 16.6272C57.3253 16.6935 57.0846 16.7601 56.8439 16.8265C56.924 16.8928 57.0044 16.9594 57.0846 17.0258C54.3575 17.1254 51.6289 17.1587 48.8994 17.1254C50.1277 16.8428 51.4118 16.6768 52.7513 16.6272C53.3071 16.1315 53.9492 15.7329 54.6772 15.4314C54.5166 15.365 54.3563 15.2985 54.1957 15.2321C55.677 13.9552 57.4426 13.0916 59.492 12.6412C59.5722 12.4419 59.6526 12.2426 59.7327 12.0433C59.5122 11.9879 59.3519 11.8883 59.2513 11.7444Z" fill="#31A298"/>
<path fill-rule="evenodd" clip-rule="evenodd" d="M82.3624 13.5381C82.1279 14.4477 82.1279 15.3445 82.3624 16.2286C81.8142 16.27 81.2928 16.4362 80.7976 16.7268C80.385 16.4428 80.064 16.5092 79.8346 16.9261C79.6618 16.7366 79.4612 16.7035 79.2328 16.8265C77.746 17.8915 76.3015 18.9876 74.8994 20.1149C75.7524 20.5089 76.6349 20.6418 77.5476 20.5135C77.7934 20.6135 77.8336 20.7462 77.668 20.9121C77.0115 21.556 76.249 22.0873 75.3809 22.5064C74.683 24.0265 73.3989 25.0562 71.5291 25.5955C71.6897 25.6619 71.85 25.7285 72.0106 25.7948C71.3685 25.9278 70.7267 26.0605 70.0846 26.1934C69.9508 26.2697 69.8706 26.3694 69.8439 26.4924C69.2822 26.4924 68.7204 26.4924 68.1587 26.4924C68.132 26.3694 68.0518 26.2697 67.918 26.1934C69.3013 24.9857 70.9063 23.9892 72.7328 23.204C73.5031 22.411 74.3055 21.6138 75.1402 20.8124C74.5376 20.5693 73.8958 20.5029 73.2143 20.6131C72.747 20.2512 72.5864 19.8526 72.7328 19.4173C72.1548 19.2569 72.195 19.0909 72.8531 18.9191C72.9892 17.9627 73.5511 17.232 74.5383 16.7268C74.6185 16.8598 74.6989 16.9925 74.7791 17.1254C75.2177 16.3274 75.9801 15.8956 77.0661 15.83C77.239 15.434 77.4797 15.0685 77.7883 14.7339C78.8895 14.2522 80.0128 13.8203 81.1587 13.4384C81.5836 13.3109 81.9849 13.3442 82.3624 13.5381Z" fill="#2C92B1"/>
<path fill-rule="evenodd" clip-rule="evenodd" d="M18.8069 11.7444C23.4996 11.5457 28.2343 11.4793 33.0106 11.5451C33.0106 11.6114 33.0106 11.678 33.0106 11.7444C31.4701 11.5337 30.6275 12.0652 30.4828 13.3387C29.5757 14.2425 28.8535 15.239 28.3161 16.3282C27.8799 16.6869 27.4386 17.0191 26.9921 17.3247C23.698 17.9279 21.13 19.3896 19.2884 21.7092C18.6718 21.2753 18.6718 20.8434 19.2884 20.4138C19.1783 20.3313 19.0979 20.2316 19.0476 20.1148C19.4179 19.6991 19.9795 19.3005 20.7328 18.919C20.4172 18.768 20.2968 18.5687 20.3717 18.3211C22.3138 17.3013 23.4773 15.8399 23.8624 13.9366C24.193 13.9679 24.5141 13.9346 24.8254 13.837C24.6997 13.7252 24.6196 13.5922 24.5847 13.4384C24.9275 12.9597 25.088 12.4947 25.0661 12.0433C22.9924 11.7848 20.9059 11.6852 18.8069 11.7444Z" fill="#58BB82"/>
<path fill-rule="evenodd" clip-rule="evenodd" d="M18.5661 11.9436C18.5661 11.8107 18.6462 11.7443 18.8068 11.7443C20.9058 11.6851 22.9923 11.7848 25.0661 12.0433C25.088 12.4947 24.9274 12.9596 24.5846 13.4383C24.6195 13.5922 24.6997 13.7251 24.8253 13.8369C24.514 13.9346 24.1929 13.9679 23.8624 13.9366C23.2124 13.8826 22.5703 13.8162 21.9364 13.7373C21.7905 14.9899 21.2289 16.086 20.2513 17.0257C20.3314 17.0921 20.4118 17.1586 20.492 17.225C18.4329 18.8636 16.3866 20.4913 14.3531 22.1078C13.1708 23.7514 11.646 25.1464 9.77904 26.293C8.27153 28.1062 6.62655 29.8333 4.84386 31.4747C3.15844 32.638 1.67379 33.9667 0.390163 35.4606C0.29796 35.3498 0.17759 35.2835 0.0290527 35.2613C0.0290527 34.0656 0.0290527 32.8698 0.0290527 31.674C0.185775 31.7918 0.346349 31.9245 0.510534 32.0726C0.845644 31.8524 1.12659 31.5865 1.35313 31.2754C1.70413 31.5239 2.06524 31.5239 2.43646 31.2754C3.06864 30.8124 3.7107 30.3473 4.36238 29.8803C8.90877 25.4171 13.6032 21.0325 18.4457 16.7267C19.3398 15.6258 19.7009 14.43 19.529 13.1394C19.7741 12.87 20.095 12.6707 20.492 12.5415C20.2173 12.3572 20.2173 12.191 20.492 12.0433C19.855 11.9442 19.2129 11.9109 18.5661 11.9436Z" fill="#66C37F"/>
<path fill-rule="evenodd" clip-rule="evenodd" d="M15.1958 12.3423C15.6048 12.3104 16.0061 12.3435 16.3995 12.4419C16.1713 12.5382 15.9305 12.5713 15.6773 12.5416C15.5829 13.0689 15.5829 13.5672 15.6773 14.0363C15.2759 14.5013 14.8749 14.9664 14.4735 15.4314C14.5537 15.4978 14.6341 15.5643 14.7143 15.6307C13.266 17.4305 11.6208 19.1246 9.77911 20.7128C8.68543 22.3163 7.28119 23.7114 5.56615 24.898C5.20504 25.3629 4.84393 25.8281 4.48282 26.2931C4.16528 26.6891 3.724 26.9216 3.15875 26.9906C2.42714 27.7292 1.62475 28.4267 0.751341 29.0832C0.610267 29.0416 0.489897 28.975 0.39023 28.8839C0.270101 27.9562 0.229897 27.0263 0.26986 26.0938C0.198841 25.6483 0.279249 25.2497 0.5106 24.898C0.472082 25.2366 0.512045 25.5688 0.630971 25.8945C2.46854 23.8752 4.43443 21.9488 6.52911 20.1149C7.07824 19.7057 7.68009 19.3735 8.33467 19.1184C9.54366 17.3847 10.9079 15.724 12.4273 14.136C12.5462 13.8103 12.5861 13.4781 12.5476 13.1395C12.3069 13.1395 12.0661 13.1395 11.8254 13.1395C12.8784 12.7507 14.0017 12.485 15.1958 12.3423Z" fill="#7DCD79"/>
<path fill-rule="evenodd" clip-rule="evenodd" d="M84.2884 11.9438C84.437 11.9659 84.5573 12.0323 84.6495 12.1431C84.7699 13.869 84.8099 15.5963 84.7699 17.3248C84.6897 17.3248 84.6093 17.3248 84.5292 17.3248C84.565 17.1151 84.5251 16.9158 84.4088 16.7269C84.3286 17.0591 84.2482 17.3911 84.1681 17.7234C84.078 17.5408 83.9576 17.3746 83.8069 17.2251C83.2831 17.1926 82.8418 17.0266 82.4829 16.7269C82.3625 16.9262 82.2421 17.1255 82.1218 17.3248C81.081 17.9554 80.0377 18.5863 78.9921 19.2181C77.8385 19.5406 76.7152 19.8064 75.6218 20.0153C76.4586 20.2652 77.3411 20.3981 78.2699 20.4139C77.9969 20.6164 78.0771 20.7493 78.5107 20.8125C77.6815 21.4325 77.1599 22.1964 76.9458 23.1044C75.4997 23.5396 74.7373 24.4032 74.6588 25.6952C73.8612 25.8039 73.0588 25.9035 72.2514 25.9942C72.3316 26.0605 72.412 26.1271 72.4921 26.1935C72.0391 26.2329 71.638 26.3326 71.2884 26.4924C70.807 26.4924 70.3255 26.4924 69.844 26.4924C69.8707 26.3695 69.9509 26.2698 70.0847 26.1935C70.7268 26.0605 71.3686 25.9278 72.0107 25.7949C71.8501 25.7285 71.6898 25.662 71.5292 25.5956C73.399 25.0563 74.6831 24.0265 75.381 22.5065C76.2491 22.0874 77.0116 21.556 77.6681 20.9121C77.8337 20.7463 77.7935 20.6136 77.5477 20.5135C76.635 20.6419 75.7525 20.5089 74.8995 20.1149C76.3016 18.9877 77.7461 17.8916 79.2329 16.8265C79.4613 16.7036 79.6619 16.7367 79.8347 16.9262C80.0642 16.5093 80.3851 16.4429 80.7977 16.7269C81.2929 16.4363 81.8143 16.2701 82.3625 16.2286C82.128 15.3446 82.128 14.4477 82.3625 13.5381C82.2778 12.3677 82.9198 11.8361 84.2884 11.9438Z" fill="#2C8FB4"/>
<path fill-rule="evenodd" clip-rule="evenodd" d="M18.5663 11.9437C19.2131 11.911 19.8552 11.9443 20.4922 12.0434C20.2175 12.191 20.2175 12.3572 20.4922 12.5416C20.0952 12.6707 19.7743 12.87 19.5292 13.1395C19.7011 14.4301 19.34 15.6259 18.4459 16.7268C13.6034 21.0326 8.90896 25.4172 4.36258 29.8804C3.71089 30.3474 3.06884 30.8125 2.43665 31.2755C2.06543 31.524 1.70432 31.524 1.35332 31.2755C1.12678 31.5866 0.845841 31.8524 0.51073 32.0727C0.346545 31.9246 0.185971 31.7919 0.0292488 31.6741C-0.0494734 29.7778 0.0306932 27.9177 0.269989 26.0938C0.230026 27.0263 0.27023 27.9562 0.39036 28.8839C0.490026 28.975 0.610396 29.0416 0.75147 29.0832C1.62488 28.4267 2.42726 27.7292 3.15888 26.9906C3.72413 26.9216 4.16541 26.6891 4.48295 26.2931C4.84406 25.8281 5.20517 25.3629 5.56628 24.898C7.28132 23.7114 8.68556 22.3163 9.77924 20.7128C11.6209 19.1246 13.2661 17.4305 14.7144 15.6307C14.6343 15.5643 14.5538 15.4978 14.4737 15.4314C14.875 14.9664 15.2761 14.5013 15.6774 14.0363C15.583 13.5672 15.583 13.0689 15.6774 12.5416C15.9306 12.5713 16.1714 12.5382 16.3996 12.4419C16.0062 12.3435 15.6049 12.3104 15.1959 12.3423C16.2506 12.0013 17.3739 11.8686 18.5663 11.9437Z" fill="#71C77D"/>
<path fill-rule="evenodd" clip-rule="evenodd" d="M26.9921 17.3247C28.276 17.3247 29.5601 17.3247 30.8439 17.3247C33.4119 17.3247 35.9797 17.3247 38.5476 17.3247C41.8378 17.3247 45.1278 17.3247 48.418 17.3247C54.3624 17.2659 60.3007 17.3322 66.2328 17.524C67.2868 17.86 68.3301 18.2586 69.3624 18.7197C70.2284 19.1694 71.031 19.7009 71.7698 20.3141C68.7204 20.447 65.6712 20.5798 62.6217 20.7127C57.122 21.6117 53.9119 24.3353 52.9921 28.8839C52.7545 29.8415 52.6741 30.838 52.7513 31.8733C52.6777 32.4483 52.7578 32.9798 52.9921 33.4677C53.2056 34.2487 53.5268 34.9794 53.955 35.66C54.2918 36.6831 54.9336 37.5467 55.881 38.2508C56.8172 39.4237 58.1013 40.2209 59.7328 40.6424C59.7328 40.7087 59.7328 40.7753 59.7328 40.8417C59.6647 40.9989 59.5443 41.1318 59.3717 41.2403C59.33 42.0456 59.2097 42.8428 59.0106 43.6318C58.8695 43.5902 58.7491 43.5236 58.6495 43.4325C58.6093 43.6651 58.5693 43.8975 58.5291 44.1301C58.819 44.7274 59.0195 45.3585 59.131 46.0234C59.0433 47.7337 59.0835 49.3945 59.2513 51.0058C58.8105 51.1158 58.4095 51.1158 58.0476 51.0058C57.8343 51.1702 57.7542 51.3695 57.8069 51.6037C50.4265 51.8086 40.1548 51.8749 26.9921 51.803C25.7824 51.7627 24.6588 51.4969 23.6217 51.0058C23.1807 50.8567 22.7794 50.6574 22.418 50.4079C21.3715 49.7407 20.4887 48.9435 19.7699 48.0164C19.5291 47.6178 19.2884 47.2192 19.0477 46.8206C18.6531 45.852 18.4123 44.8555 18.3254 43.8311C18.3254 37.6529 18.3254 31.4747 18.3254 25.2965C18.338 24.5595 18.4184 23.8287 18.5662 23.1043C18.8637 22.676 19.1045 22.211 19.2884 21.7092C21.1301 19.3896 23.698 17.9279 26.9921 17.3247Z" fill="#FBFDFB"/>
<path fill-rule="evenodd" clip-rule="evenodd" d="M11.8256 13.1394C12.0663 13.1394 12.307 13.1394 12.5478 13.1394C12.5863 13.478 12.5463 13.8102 12.4274 14.1359C10.9081 15.7239 9.54382 17.3846 8.33482 19.1183C7.68025 19.3734 7.0784 19.7056 6.52927 20.1148C4.43458 21.9487 2.4687 23.8751 0.631124 25.8944C0.512198 25.5687 0.472235 25.2365 0.510754 24.8979C1.58085 19.2114 5.35229 15.2918 11.8256 13.1394Z" fill="#88D176"/>
<path fill-rule="evenodd" clip-rule="evenodd" d="M84.5291 17.3247C84.6215 18.2887 84.4609 19.2186 84.0476 20.1149C83.0574 20.5101 82.0143 20.809 80.918 21.0117C79.6411 22.5989 78.1966 24.0603 76.5846 25.3962C75.6301 25.9921 74.587 26.3576 73.455 26.4923C72.7328 26.4923 72.0106 26.4923 71.2883 26.4923C71.6379 26.3325 72.039 26.2329 72.492 26.1934C72.4119 26.127 72.3315 26.0605 72.2513 25.9941C73.0587 25.9034 73.8611 25.8038 74.6587 25.6952C74.7372 24.4031 75.4996 23.5396 76.9457 23.1043C77.1598 22.1963 77.6814 21.4324 78.5105 20.8124C78.077 20.7492 77.9968 20.6163 78.2698 20.4138C77.341 20.3981 76.4585 20.2651 75.6217 20.0152C76.7151 19.8063 77.8384 19.5405 78.992 19.218C80.0376 18.5862 81.0809 17.9553 82.1217 17.3247C82.242 17.1254 82.3624 16.9261 82.4828 16.7268C82.8417 17.0265 83.283 17.1926 83.8068 17.225C83.9575 17.3745 84.0779 17.5407 84.1679 17.7233C84.2481 17.3911 84.3285 17.059 84.4087 16.7268C84.525 16.9157 84.5649 17.115 84.5291 17.3247Z" fill="#2A8CB9"/>
<path fill-rule="evenodd" clip-rule="evenodd" d="M83.8068 11.7443C84.0456 11.7101 84.206 11.7766 84.2883 11.9436C82.9197 11.836 82.2776 12.3675 82.3624 13.538C81.9849 13.3441 81.5836 13.3108 81.1587 13.4384C80.0128 13.8202 78.8895 14.2521 77.7883 14.7338C77.4797 15.0684 77.2389 15.4339 77.0661 15.8299C75.9801 15.8955 75.2177 16.3274 74.7791 17.1253C74.6989 16.9924 74.6185 16.8597 74.5383 16.7268C73.551 17.232 72.9892 17.9626 72.8531 18.919C72.195 19.0908 72.1547 19.2568 72.7328 19.4173C72.5864 19.8525 72.747 20.2511 73.2142 20.613C73.8958 20.5028 74.5376 20.5692 75.1402 20.8123C74.3055 21.6137 73.5031 22.4109 72.7328 23.2039C70.9063 23.9891 69.3013 24.9856 67.918 26.1933C68.0518 26.2697 68.132 26.3693 68.1587 26.4923C67.0352 26.4923 65.9119 26.4923 64.7883 26.4923C65.9672 25.3095 67.4921 24.2797 69.3624 23.4032C70.3095 22.7053 71.1119 21.9413 71.7698 21.1113C71.7799 20.8414 71.7799 20.5756 71.7698 20.3141C71.031 19.7009 70.2283 19.1693 69.3624 18.7197C69.4678 18.7327 69.5483 18.6996 69.6031 18.6201C69.4281 18.3413 69.3078 18.0423 69.242 17.7232C68.9368 17.7464 68.6156 17.8127 68.2791 17.9225C68.0564 17.8135 67.8558 17.6808 67.6772 17.5239C68.2143 17.4468 68.776 17.4137 69.3624 17.4243C70.295 16.0408 71.7395 15.3765 73.6957 15.4313C74.1902 14.9243 74.7519 14.4594 75.3809 14.0362C76.918 13.8234 78.0413 13.1591 78.7513 12.0433C78.35 11.9769 77.9489 11.9103 77.5476 11.844C79.6324 11.7443 81.7189 11.7113 83.8068 11.7443Z" fill="#2D95AB"/>
<path fill-rule="evenodd" clip-rule="evenodd" d="M84.5291 17.3247C84.6093 17.3247 84.6897 17.3247 84.7699 17.3247C84.7699 18.0555 84.7699 18.7861 84.7699 19.517C84.4408 20.4778 84.1598 21.4743 83.9273 22.5064C83.5197 22.8107 83.0782 23.0764 82.6032 23.3036C82.03 23.1376 81.4684 23.204 80.918 23.5029C79.9298 24.1998 79.0472 24.997 78.2699 25.8945C77.7648 25.9855 77.3637 26.1848 77.0662 26.4924C75.8625 26.4924 74.6588 26.4924 73.4551 26.4924C74.587 26.3576 75.6302 25.9921 76.5847 25.3962C78.1967 24.0603 79.6411 22.5989 80.918 21.0117C82.0144 20.809 83.0575 20.5101 84.0477 20.1149C84.461 19.2186 84.6216 18.2887 84.5291 17.3247Z" fill="#2987BE"/>
<path fill-rule="evenodd" clip-rule="evenodd" d="M62.6217 20.7126C62.0988 20.9721 61.5369 21.2045 60.9365 21.4102C61.8766 21.9034 61.8766 22.435 60.9365 23.0046C57.6516 24.3283 55.2844 26.3545 53.8347 29.0831C53.6741 29.3488 53.5138 29.3488 53.3532 29.0831C53.0915 29.5678 52.9711 29.5012 52.9921 28.8838C53.9119 24.3353 57.122 21.6117 62.6217 20.7126Z" fill="#36A596"/>
<path fill-rule="evenodd" clip-rule="evenodd" d="M84.7699 19.5168C84.7699 20.9783 84.7699 22.4399 84.7699 23.9014C84.4177 24.4401 84.2171 25.038 84.168 25.695C83.4896 25.5699 82.8475 25.3706 82.2421 25.0972C81.4175 25.3146 80.8157 25.7465 80.4365 26.3926C79.8096 26.4703 79.2478 26.6365 78.7513 26.8908C78.2749 26.5584 77.7133 26.4257 77.0662 26.4922C77.3637 26.1847 77.7648 25.9854 78.2699 25.8943C79.0472 24.9969 79.9298 24.1997 80.918 23.5028C81.4683 23.2038 82.03 23.1375 82.6032 23.3035C83.0782 23.0763 83.5197 22.8106 83.9273 22.5063C84.1598 21.4741 84.4408 20.4777 84.7699 19.5168Z" fill="#2983C3"/>
<path fill-rule="evenodd" clip-rule="evenodd" d="M23.8624 13.9366C23.4772 15.8399 22.3137 17.3013 20.3716 18.3211C20.2968 18.5687 20.4171 18.768 20.7327 18.919C19.9795 19.3005 19.4178 19.6991 19.0476 20.1148C19.0979 20.2316 19.1783 20.3312 19.2883 20.4137C18.6718 20.8434 18.6718 21.2753 19.2883 21.7092C19.1044 22.211 18.8636 22.676 18.5661 23.1042C18.4043 22.9514 18.2038 22.8185 17.9642 22.7057C17.762 23.2964 17.5213 23.3627 17.242 22.905C15.462 24.1472 13.9776 25.6088 12.7883 27.2895C12.984 27.5514 13.2248 27.7839 13.5105 27.987C12.548 28.7184 11.8258 29.5822 11.3439 30.5779C7.39571 32.6095 3.62427 34.8351 0.0290527 37.2543C0.0290527 36.5901 0.0290527 35.9256 0.0290527 35.2613C0.17759 35.2835 0.29796 35.3498 0.390163 35.4606C1.67379 33.9667 3.15844 32.638 4.84386 31.4747C6.62655 29.8333 8.27153 28.1062 9.77904 26.293C11.646 25.1464 13.1708 23.7514 14.3531 22.1078C16.3866 20.4913 18.4329 18.8636 20.492 17.225C20.4118 17.1586 20.3314 17.0921 20.2513 17.0257C21.2289 16.086 21.7905 14.9899 21.9364 13.7373C22.5703 13.8162 23.2124 13.8826 23.8624 13.9366Z" fill="#5BC082"/>
<path fill-rule="evenodd" clip-rule="evenodd" d="M84.7697 23.9014C84.7697 24.5656 84.7697 25.2301 84.7697 25.8943C84.6361 26.8396 84.3552 27.7695 83.9271 28.6845C83.6062 28.6845 83.2851 28.6845 82.9642 28.6845C82.6298 28.3403 82.2285 28.0744 81.7605 27.8873C81.0963 28.262 80.3741 28.5276 79.5938 28.6845C79.4332 27.8873 79.2729 27.8873 79.1123 28.6845C79.0565 28.438 78.9361 28.2387 78.7512 28.0866C78.7512 27.688 78.7512 27.2894 78.7512 26.8908C79.2476 26.6365 79.8095 26.4703 80.4364 26.3926C80.8156 25.7465 81.4174 25.3146 82.242 25.0971C82.8474 25.3706 83.4895 25.5699 84.1679 25.695C84.217 25.038 84.4175 24.4401 84.7697 23.9014Z" fill="#287ECA"/>
<path fill-rule="evenodd" clip-rule="evenodd" d="M23.6217 25.2967C27.3941 25.2634 31.1658 25.2967 34.9365 25.3963C34.6317 25.4579 34.3508 25.5575 34.0939 25.6953C34.1606 26.2196 34.1204 26.7178 33.9735 27.19C34.455 27.4556 34.9365 27.7215 35.418 27.9872C31.4867 28.0868 27.5547 28.1201 23.6217 28.0868C22.4464 27.5077 22.1654 26.7105 22.7791 25.6953C22.9755 25.4316 23.2565 25.2989 23.6217 25.2967Z" fill="#C5E2E7"/>
<path fill-rule="evenodd" clip-rule="evenodd" d="M23.6218 25.2966C32.0872 25.0646 40.5936 25.0313 49.1403 25.1969C50.4309 25.7203 50.6717 26.4842 49.8625 27.4889C49.506 27.6842 49.1849 27.9167 48.8996 28.1864C40.433 28.352 32.0071 28.3187 23.6218 28.0867C27.5548 28.12 31.4868 28.0867 35.4181 27.9871C34.9366 27.7214 34.4551 27.4556 33.9737 27.1899C34.1205 26.7178 34.1607 26.2195 34.094 25.6952C34.3509 25.5575 34.6319 25.4578 34.9366 25.3962C31.1659 25.2966 27.3942 25.2633 23.6218 25.2966Z" fill="#E0EDF2"/>
<path fill-rule="evenodd" clip-rule="evenodd" d="M62.6217 20.7126C64.2286 20.6795 65.8336 20.7126 67.4365 20.8122C66.4735 20.8786 65.5106 20.9452 64.5476 21.0115C64.3531 21.0729 64.1925 21.1726 64.0661 21.3105C63.0329 22.6787 62.2305 24.1401 61.6587 25.695C61.436 25.9224 61.2352 25.9224 61.0569 25.695C60.775 26.1113 60.454 26.5099 60.0939 26.8908C59.8739 26.6608 59.6733 26.6941 59.492 26.9904C59.5722 27.0568 59.6526 27.1234 59.7328 27.1897C59.4417 27.795 59.241 28.4262 59.1309 29.0831C58.6877 28.4557 58.1261 28.4557 57.4458 29.0831C57.3656 29.0167 57.2852 28.9501 57.205 28.8838C56.4219 29.2909 55.6595 29.7228 54.918 30.1792C54.6067 30.2768 54.2856 30.3101 53.955 30.2788C53.9902 30.7655 53.7896 30.8984 53.3532 30.6774C53.3527 31.1858 53.1519 31.5844 52.7513 31.8732C52.674 30.8379 52.7544 29.8414 52.9921 28.8838C52.9711 29.5012 53.0915 29.5677 53.3532 29.0831C53.5137 29.3487 53.6741 29.3487 53.8346 29.0831C55.2844 26.3545 57.6516 24.3282 60.9365 23.0045C61.8766 22.4349 61.8766 21.9034 60.9365 21.4101C61.5369 21.2045 62.0988 20.9721 62.6217 20.7126Z" fill="#309E9D"/>
<path fill-rule="evenodd" clip-rule="evenodd" d="M18.0847 27.8873C18.0847 29.0831 18.0847 30.2788 18.0847 31.4746C17.83 31.6939 17.6293 31.9597 17.4829 32.2718C17.4027 31.6076 17.3223 30.9431 17.2422 30.2788C17.1952 31.259 17.0748 32.2222 16.881 33.1686C15.8461 33.421 14.8027 33.6535 13.7514 33.8662C12.8077 34.6209 11.9252 35.4181 11.1033 36.2577C8.91325 37.5594 6.74659 38.8548 4.60328 40.144C4.24722 40.903 3.64537 41.4678 2.79772 41.8381C2.42072 41.7262 2.09982 41.8592 1.83476 42.2366C1.60582 42.1601 1.40528 42.0938 1.23291 42.0373C1.73245 41.4104 2.17372 40.7461 2.55698 40.0444C4.64348 38.3171 6.72974 36.59 8.81624 34.8627C9.61501 33.4216 10.6581 32.2921 11.9459 31.4746C12.6178 31.1161 13.1395 30.6509 13.5107 30.0795C13.4305 29.9466 13.3501 29.8139 13.2699 29.681C14.5923 28.9671 15.9566 28.3028 17.3625 27.688C17.5546 28.0025 17.675 28.3345 17.7236 28.6845C17.7742 28.374 17.8946 28.1083 18.0847 27.8873Z" fill="#3DB381"/>
<path fill-rule="evenodd" clip-rule="evenodd" d="M84.7697 25.8945C84.7697 26.7581 84.7697 27.6218 84.7697 28.4854C84.5848 28.6375 84.4645 28.8367 84.4086 29.0833C84.1407 28.8419 83.8597 28.8419 83.566 29.0833C82.5754 30.2699 81.3317 31.1998 79.8346 31.8734C79.6487 31.8445 79.4881 31.7782 79.3531 31.6741C79.3105 32.4426 79.1901 33.1734 78.992 33.8664C79.0656 33.2914 78.9855 32.7599 78.7512 32.272C78.7512 30.8769 78.7512 29.4819 78.7512 28.0868C78.9361 28.2389 79.0565 28.4382 79.1123 28.6847C79.2729 27.8875 79.4332 27.8875 79.5938 28.6847C80.3741 28.5278 81.0963 28.2622 81.7605 27.8875C82.2285 28.0746 82.6298 28.3405 82.9642 28.6847C83.2851 28.6847 83.6062 28.6847 83.9271 28.6847C84.3552 27.7697 84.6361 26.8398 84.7697 25.8945Z" fill="#2678D0"/>
<path fill-rule="evenodd" clip-rule="evenodd" d="M64.7884 26.4923C65.9119 26.4923 67.0352 26.4923 68.1587 26.4923C68.7204 26.4923 69.2823 26.4923 69.8439 26.4923C70.3254 26.4923 70.8069 26.4923 71.2884 26.4923C72.0106 26.4923 72.7328 26.4923 73.455 26.4923C74.6587 26.4923 75.8624 26.4923 77.0661 26.4923C77.7132 26.4257 78.2749 26.5584 78.7513 26.8909C78.7513 27.2894 78.7513 27.688 78.7513 28.0866C78.7513 29.4817 78.7513 30.8768 78.7513 32.2719C78.8214 33.5519 78.7412 34.8141 78.5106 36.0585C78.4304 36.0585 78.35 36.0585 78.2698 36.0585C73.2143 36.0585 68.1587 36.0585 63.1032 36.0585C62.3169 35.75 61.5145 35.4178 60.6958 35.062C60.1515 34.491 59.67 33.8931 59.2513 33.2683C59.0948 32.8827 59.0147 32.4841 59.0106 32.0726C58.8043 30.8419 59.0852 29.7125 59.8532 28.6845C61.0453 27.2446 62.6903 26.5138 64.7884 26.4923Z" fill="#F3F7F8"/>
<path fill-rule="evenodd" clip-rule="evenodd" d="M71.7698 20.3142C71.7799 20.5757 71.7799 20.8415 71.7698 21.1114C71.1119 21.9415 70.3095 22.7054 69.3624 23.4033C67.4921 24.2798 65.9672 25.3096 64.7883 26.4924C62.6903 26.5139 61.0453 27.2448 59.8532 28.6847C59.0852 29.7126 58.8042 30.8421 59.0106 32.0727C58.8502 31.5031 58.6897 30.9052 58.5291 30.279C58.3502 30.5597 58.1494 30.8253 57.9272 31.0762C57.811 30.8873 57.771 30.688 57.8069 30.4783C57.4886 30.5122 57.2077 30.4459 56.9643 30.279C56.4775 30.7976 55.956 31.2959 55.3995 31.7738C54.6089 31.9033 53.8866 32.1357 53.2328 32.4713C53.3012 32.853 53.221 33.185 52.992 33.4678C52.7578 32.9799 52.6776 32.4484 52.7513 31.8734C53.1519 31.5846 53.3527 31.186 53.3532 30.6776C53.7896 30.8987 53.9902 30.7657 53.955 30.279C54.2855 30.3103 54.6067 30.2771 54.918 30.1794C55.6595 29.723 56.4219 29.2911 57.205 28.884C57.2852 28.9503 57.3656 29.0169 57.4457 29.0833C58.1261 28.4559 58.6877 28.4559 59.1309 29.0833C59.241 28.4264 59.4417 27.7952 59.7328 27.1899C59.6526 27.1236 59.5722 27.057 59.492 26.9906C59.6733 26.6943 59.8739 26.661 60.0939 26.891C60.454 26.5101 60.7749 26.1116 61.0569 25.6952C61.2352 25.9226 61.436 25.9226 61.6587 25.6952C62.2305 24.1403 63.0329 22.6789 64.0661 21.3107C64.1925 21.1728 64.3531 21.0731 64.5476 21.0117C65.5106 20.9454 66.4735 20.8788 67.4365 20.8125C65.8336 20.7128 64.2286 20.6797 62.6217 20.7128C65.6711 20.5799 68.7203 20.4471 71.7698 20.3142Z" fill="#339CA5"/>
<path fill-rule="evenodd" clip-rule="evenodd" d="M18.5661 23.1042C18.4183 23.8286 18.3379 24.5594 18.3253 25.2964C18.0882 26.1203 18.008 26.9841 18.0846 27.8873C17.8944 28.1083 17.774 28.374 17.7235 28.6845C17.6749 28.3345 17.5545 28.0025 17.3624 27.688C15.9564 28.3028 14.5922 28.9671 13.2698 29.681C13.3499 29.8139 13.4304 29.9466 13.5105 30.0795C13.1393 30.6509 12.6176 31.1161 11.9457 31.4746C10.658 32.2921 9.61486 33.4215 8.81608 34.8627C6.72958 36.59 4.64333 38.3171 2.55683 40.0444C2.17357 40.7461 1.73229 41.4104 1.23276 42.0373C0.680256 42.7423 0.399552 43.5394 0.390164 44.4289C0.345386 43.9235 0.225016 43.4585 0.0290527 43.0338C0.0290527 41.1072 0.0290527 39.1808 0.0290527 37.2542C3.62427 34.835 7.39571 32.6094 11.3439 30.5778C11.8258 29.5821 12.548 28.7183 13.5105 27.9869C13.2248 27.7838 12.984 27.5513 12.7883 27.2894C13.9776 25.6087 15.462 24.1471 17.242 22.9049C17.5213 23.3626 17.762 23.2963 17.9642 22.7056C18.2038 22.8184 18.4043 22.9513 18.5661 23.1042Z" fill="#45B880"/>
<path fill-rule="evenodd" clip-rule="evenodd" d="M18.0846 31.4748C18.0846 33.1356 18.0846 34.7965 18.0846 36.4573C17.8944 36.6783 17.774 36.9439 17.7235 37.2544C17.6226 37.0209 17.4623 36.8216 17.242 36.6565C16.0732 36.8568 14.9097 37.0894 13.7513 37.3541C13.2204 37.8603 12.6186 38.2922 11.9457 38.6495C11.8017 39.5328 11.1999 40.0641 10.1402 40.2439C9.81901 40.9522 9.25712 41.4504 8.45497 41.7386C8.08399 42.0533 7.80305 42.4188 7.61238 42.8347C6.72669 43.2846 5.96451 43.8492 5.32534 44.5288C4.39657 44.8508 3.55398 45.2827 2.79757 45.8242C2.37651 45.665 2.05561 45.7979 1.83461 46.2228C1.54163 46.0462 1.22048 45.8469 0.871644 45.6249C0.751756 46.0323 0.470812 46.2981 0.0290527 46.4221C0.0290527 45.2927 0.0290527 44.1635 0.0290527 43.034C0.225016 43.4587 0.345386 43.9237 0.390163 44.4291C0.399552 43.5397 0.680256 42.7425 1.23276 42.0376C1.40513 42.094 1.60566 42.1603 1.83461 42.2369C2.09966 41.8594 2.42057 41.7265 2.79757 41.8383C3.64522 41.468 4.24707 40.9032 4.60312 40.1442C6.74644 38.855 8.9131 37.5596 11.1031 36.258C11.925 35.4183 12.8076 34.6211 13.7513 33.8664C14.8026 33.6537 15.8459 33.4212 16.8809 33.1689C17.0747 32.2224 17.1951 31.2592 17.242 30.2791C17.3222 30.9433 17.4026 31.6078 17.4827 32.272C17.6291 31.9599 17.8299 31.6941 18.0846 31.4748Z" fill="#3CB086"/>
<path fill-rule="evenodd" clip-rule="evenodd" d="M59.0107 32.0727C59.0148 32.4843 59.095 32.8829 59.2514 33.2685C57.3219 32.8825 55.6767 33.3476 54.3163 34.6636C54.2361 34.5972 54.1557 34.5306 54.0755 34.4643C53.7286 34.824 53.6884 35.2226 53.9551 35.6601C53.5269 34.9795 53.2057 34.2488 52.9922 33.4678C53.2211 33.185 53.3013 32.853 53.2329 32.4713C53.8868 32.1357 54.609 31.9033 55.3996 31.7738C55.9562 31.2959 56.4776 30.7976 56.9644 30.2791C57.2078 30.4459 57.4887 30.5122 57.807 30.4783C57.7711 30.688 57.8111 30.8873 57.9274 31.0762C58.1496 30.8253 58.3503 30.5597 58.5292 30.2791C58.6898 30.9052 58.8504 31.5031 59.0107 32.0727Z" fill="#3197AB"/>
<path fill-rule="evenodd" clip-rule="evenodd" d="M84.7697 28.4854C84.7697 29.6811 84.7697 30.8769 84.7697 32.0727C84.5738 32.4974 84.4534 32.9624 84.4086 33.4678C84.3284 33.2021 84.248 32.9362 84.1679 32.6706C84.0516 32.8595 84.0116 33.0588 84.0475 33.2685C83.2107 33.2673 82.7292 33.5993 82.6031 34.265C82.2826 33.5943 81.8413 33.528 81.279 34.0657C80.7912 33.9622 80.3098 33.8957 79.8345 33.8664C79.7582 34.2253 79.5976 34.2917 79.3531 34.0657C79.1169 35.334 78.9965 35.2676 78.9919 33.8664C79.1901 33.1734 79.3104 32.4426 79.3531 31.6741C79.4881 31.7781 79.6487 31.8445 79.8345 31.8734C81.3317 31.1998 82.5754 30.2699 83.566 29.0832C83.8597 28.8419 84.1407 28.8419 84.4086 29.0832C84.4645 28.8367 84.5848 28.6374 84.7697 28.4854Z" fill="#2773D5"/>
<path fill-rule="evenodd" clip-rule="evenodd" d="M59.2514 33.2685C59.6701 33.8933 60.1515 34.4912 60.6959 35.0622C60.6959 35.2615 60.6959 35.4608 60.6959 35.6601C60.1812 35.7005 59.7798 35.8998 59.4922 36.258C59.1869 36.073 58.866 36.0397 58.5292 36.1583C57.9086 36.5982 57.2265 36.9635 56.4829 37.2545C56.4027 37.1881 56.3223 37.1215 56.2422 37.0552C55.9576 37.4555 55.8372 37.8541 55.881 38.2509C54.9337 37.5468 54.2919 36.6833 53.9551 35.6601C53.6884 35.2226 53.7286 34.824 54.0755 34.4643C54.1557 34.5307 54.2361 34.5972 54.3162 34.6636C55.6767 33.3476 57.3219 32.8825 59.2514 33.2685Z" fill="#3091B2"/>
<path fill-rule="evenodd" clip-rule="evenodd" d="M84.7699 32.0728C84.7699 33.3349 84.7699 34.5972 84.7699 35.8594C84.5703 37.2188 84.4499 38.6139 84.4087 40.0446C84.3286 39.5131 84.2482 38.9818 84.168 38.4502C84.0878 38.8488 84.0074 39.2474 83.9273 39.646C83.6827 39.42 83.5221 39.4864 83.4458 39.8453C83.2674 39.6179 83.0666 39.6179 82.8439 39.8453C82.6147 39.5374 82.5346 39.2052 82.6032 38.8488C82.1037 38.8094 81.6222 38.7761 81.1588 38.7492C80.6558 39.1392 80.4551 39.5711 80.5569 40.0446C79.8749 39.812 79.6741 39.9783 79.955 40.5429C79.3595 40.5654 78.878 40.7647 78.5106 41.1408C78.7311 41.1962 78.8915 41.2958 78.9921 41.4397C77.7884 41.4397 76.5847 41.4397 75.381 41.4397C75.3401 41.1762 75.4202 40.9436 75.6217 40.7422C76.6954 40.281 77.7788 39.8493 78.8717 39.4467C79.149 38.8608 79.3898 38.2629 79.5939 37.6531C81.1809 36.8882 82.1841 35.7589 82.6032 34.265C82.7293 33.5994 83.2108 33.2673 84.0476 33.2685C84.0118 33.0589 84.0517 32.8596 84.168 32.6706C84.2482 32.9363 84.3286 33.2022 84.4087 33.4678C84.4535 32.9624 84.5739 32.4975 84.7699 32.0728Z" fill="#266EDD"/>
<path fill-rule="evenodd" clip-rule="evenodd" d="M63.1031 36.0586C68.1586 36.0586 73.2142 36.0586 78.2697 36.0586C76.5489 36.2563 74.7836 36.3227 72.9734 36.2579C72.0105 36.2579 71.0475 36.2579 70.0845 36.2579C68.1569 36.2248 66.231 36.2579 64.3068 36.3575C64.7883 36.4239 65.2697 36.4905 65.7512 36.5568C65.1763 36.6172 64.6546 36.7834 64.1864 37.0551C63.8183 37.9639 63.2966 38.7943 62.6216 39.5463C62.4822 39.8303 62.4822 40.1625 62.6216 40.5428C61.6712 40.8788 61.6712 41.1777 62.6216 41.4396C61.617 41.3645 60.654 41.1652 59.7327 40.8417C59.7327 40.7753 59.7327 40.7088 59.7327 40.6424C59.712 40.4439 59.7924 40.2779 59.9734 40.1442C59.0777 39.8026 58.9173 39.3376 59.492 38.7491C59.2695 38.5797 59.2695 38.3804 59.492 38.1512C60.7843 37.5428 61.988 36.8452 63.1031 36.0586Z" fill="#388BC6"/>
<path fill-rule="evenodd" clip-rule="evenodd" d="M70.0847 36.2578C70.1854 36.4017 70.3457 36.5013 70.5662 36.5567C70.2549 36.6544 69.9338 36.6876 69.6032 36.6564C69.2274 37.271 68.7862 37.8689 68.2792 38.45C67.6393 38.973 66.9972 39.5045 66.3532 40.0444C66.314 40.4781 66.1135 40.8434 65.7514 41.1405C65.1093 41.2069 64.4675 41.2735 63.8255 41.3398C65.0265 41.4393 66.2302 41.4726 67.4366 41.4395C69.1668 41.3747 70.852 41.4413 72.4921 41.6388C69.1829 41.7016 65.893 41.635 62.6218 41.4395C61.6713 41.1776 61.6713 40.8787 62.6218 40.5426C62.4824 40.1624 62.4824 39.8302 62.6218 39.5462C63.2968 38.7942 63.8185 37.9637 64.1866 37.0549C64.6548 36.7833 65.1765 36.6171 65.7514 36.5567C65.2699 36.4903 64.7884 36.4238 64.307 36.3574C66.2312 36.2578 68.1571 36.2247 70.0847 36.2578Z" fill="#2D81CB"/>
<path fill-rule="evenodd" clip-rule="evenodd" d="M70.0847 36.2578C71.0477 36.2578 72.0106 36.2578 72.9736 36.2578C73.2389 36.5751 73.0783 36.7411 72.4921 36.7561C72.7742 36.8396 73.015 36.9723 73.2143 37.1546C71.7776 37.5943 70.8948 38.4578 70.5662 39.7455C70.7475 40.1955 70.7475 40.5941 70.5662 40.9413C69.5055 41.1488 68.4623 41.3148 67.4365 41.4395C66.2302 41.4726 65.0265 41.4393 63.8254 41.3399C64.4675 41.2735 65.1093 41.2069 65.7514 41.1406C66.1134 40.8434 66.314 40.4781 66.3532 40.0444C66.9972 39.5046 67.6393 38.973 68.2791 38.4501C68.7861 37.8689 69.2274 37.271 69.6032 36.6564C69.9337 36.6877 70.2549 36.6544 70.5662 36.5568C70.3457 36.5014 70.1853 36.4017 70.0847 36.2578Z" fill="#277AD0"/>
<path fill-rule="evenodd" clip-rule="evenodd" d="M18.0847 36.457C18.1247 37.7873 18.0847 39.116 17.9644 40.443C17.5149 39.983 17.2742 39.4515 17.2421 38.8486C17.123 39.2418 17.0828 39.6404 17.1218 40.0444C16.6865 40.0426 16.2852 40.1422 15.9181 40.3433C14.2832 41.4476 12.598 42.5105 10.8625 43.5321C9.68819 44.7725 8.24375 45.7024 6.52919 46.3222C6.01112 46.8143 5.65001 47.3789 5.44586 48.0162C5.20247 48.1831 4.92153 48.2494 4.60327 48.2155C4.62903 48.6944 4.38829 49.0598 3.88105 49.3117C3.14847 49.4707 2.46646 49.7033 1.83475 50.0092C1.51385 49.8763 1.1927 49.7435 0.871792 49.6106C0.771403 49.8609 0.570866 49.9939 0.26994 50.0092C0.0316073 48.8513 -0.0485593 47.6555 0.0291999 46.4219C0.470959 46.2979 0.751903 46.032 0.871792 45.6247C1.22062 45.8467 1.54177 46.046 1.83475 46.2226C2.05575 45.7977 2.37666 45.6647 2.79772 45.824C3.55412 45.2825 4.39671 44.8506 5.32549 44.5285C5.96466 43.8489 6.72684 43.2843 7.61253 42.8345C7.80319 42.4186 8.08414 42.0531 8.45512 41.7384C9.25727 41.4502 9.81915 40.952 10.1403 40.2437C11.2 40.0639 11.8019 39.5326 11.9459 38.6493C12.6187 38.292 13.2206 37.8601 13.7514 37.3539C14.9099 37.0892 16.0734 36.8566 17.2421 36.6563C17.4624 36.8213 17.6228 37.0206 17.7236 37.2542C17.7742 36.9437 17.8946 36.6781 18.0847 36.457Z" fill="#3BAC8C"/>
<path fill-rule="evenodd" clip-rule="evenodd" d="M60.6959 35.062C61.5147 35.4178 62.317 35.75 63.1033 36.0585C61.9882 36.8451 60.7845 37.5427 59.4922 38.1511C59.2697 38.3803 59.2697 38.5796 59.4922 38.749C58.9175 39.3375 59.0779 39.8025 59.9737 40.1441C59.7926 40.2778 59.7122 40.4438 59.7329 40.6423C58.1014 40.2208 56.8173 39.4236 55.8811 38.2508C55.8373 37.854 55.9576 37.4554 56.2422 37.055C56.3224 37.1213 56.4028 37.1879 56.4829 37.2543C57.2266 36.9633 57.9086 36.598 58.5292 36.1581C58.866 36.0396 59.1869 36.0728 59.4922 36.2578C59.7799 35.8997 60.1812 35.7004 60.6959 35.6599C60.6959 35.4606 60.6959 35.2613 60.6959 35.062Z" fill="#2E8BB9"/>
<path fill-rule="evenodd" clip-rule="evenodd" d="M18.3256 25.2966C18.3256 31.4748 18.3256 37.653 18.3256 43.8312C18.1354 43.6102 18.015 43.3445 17.9644 43.034C17.9117 43.3206 17.7914 43.5863 17.6033 43.8312C17.4088 43.448 17.2884 43.0494 17.2422 42.6354C17.1678 42.8878 17.0475 43.1203 16.8811 43.333C16.1305 43.507 15.4083 43.7393 14.7144 44.0305C13.4299 44.9598 12.0656 45.7901 10.6219 46.5217C9.25109 47.7054 7.84685 48.8678 6.4089 50.0094C6.19416 50.6974 5.79309 51.2953 5.2052 51.8031C3.74463 52.7151 2.42055 53.7116 1.23298 54.7925C0.704075 53.2289 0.383168 51.6345 0.27002 50.0094C0.570945 49.9941 0.771482 49.8611 0.871871 49.6108C1.19278 49.7438 1.51393 49.8765 1.83483 50.0094C2.46654 49.7035 3.14855 49.4709 3.88113 49.3119C4.38837 49.06 4.62911 48.6947 4.60335 48.2157C4.92161 48.2496 5.20255 48.1833 5.44594 48.0165C5.65009 47.3791 6.0112 46.8145 6.52927 46.3224C8.24383 45.7026 9.68827 44.7727 10.8626 43.5323C12.5981 42.5107 14.2833 41.4478 15.9182 40.3435C16.2853 40.1424 16.6866 40.0428 17.1219 40.0446C17.0829 39.6406 17.1231 39.242 17.2422 38.8488C17.2742 39.4517 17.515 39.9832 17.9644 40.4432C18.0848 39.1163 18.1248 37.7876 18.0848 36.4572C18.0848 34.7965 18.0848 33.1356 18.0848 31.4748C18.0848 30.279 18.0848 29.0833 18.0848 27.8875C18.0083 26.9843 18.0884 26.1205 18.3256 25.2966Z" fill="#3EAA93"/>
<path fill-rule="evenodd" clip-rule="evenodd" d="M78.7514 32.272C78.9856 32.7599 79.0658 33.2914 78.9921 33.8663C78.9967 35.2676 79.1171 35.334 79.3532 34.0656C79.5978 34.2916 79.7584 34.2253 79.8347 33.8663C80.3099 33.8956 80.7914 33.9622 81.2791 34.0656C81.8415 33.5279 82.2828 33.5943 82.6032 34.2649C82.1841 35.7589 81.1809 36.8881 79.594 37.653C79.3898 38.2628 79.1491 38.8607 78.8717 39.4467C77.7788 39.8492 76.6954 40.2809 75.6217 40.7421C75.4202 40.9436 75.3401 41.1762 75.381 41.4396C76.5847 41.4396 77.7884 41.4396 78.9921 41.4396C80.8591 41.5987 82.7048 41.6652 84.5291 41.6389C84.5691 42.6376 84.5289 43.6341 84.4088 44.6284C84.369 43.4874 83.8876 43.4208 82.9643 44.4291C82.8719 44.9393 82.6713 45.4044 82.3625 45.8241C81.9932 45.684 81.5919 45.7173 81.1588 45.9238C79.6539 47.5686 77.8484 48.9304 75.7421 50.0094C75.6258 50.1983 75.5859 50.3976 75.6217 50.6073C75.0505 50.7655 74.4888 50.9648 73.9366 51.2052C73.5218 51.9806 72.8397 52.5119 71.8903 52.7995C71.5084 53.232 71.1873 53.6972 70.9273 54.1946C70.6704 54.3323 70.3895 54.432 70.0847 54.4936C69.7438 55.2883 69.142 55.9193 68.2792 56.3869C67.5379 57.9972 66.2138 59.1599 64.3069 59.8746C63.0686 60.9029 61.7045 61.7665 60.2143 62.4654C58.5771 63.7852 57.0525 65.1802 55.6403 66.6507C54.7575 66.9829 53.8749 67.3149 52.9921 67.6471C52.6712 67.8464 52.6712 68.0457 52.9921 68.245C52.3501 68.378 52.3501 68.5107 52.9921 68.6436C52.6712 68.8429 52.6712 69.0422 52.9921 69.2415C51.9117 69.393 50.8683 69.5592 49.8625 69.7397C47.8564 69.7397 45.8501 69.7397 43.844 69.7397C45.0034 69.5751 46.2071 69.4755 47.4551 69.4408C46.8935 69.3744 46.3316 69.3079 45.7699 69.2415C46.3667 68.7524 47.1291 68.2542 48.057 67.7468C49.1576 66.4256 50.4013 65.1966 51.7884 64.0598C52.97 63.6108 54.0131 63.0129 54.9181 62.2661C55.914 61.2916 56.9571 60.3614 58.0477 59.476C58.6093 59.2434 59.1712 59.011 59.7329 58.7784C61.0232 57.7764 62.3071 56.7799 63.5847 55.789C63.798 55.6246 63.8782 55.4253 63.8255 55.1911C64.4511 55.1813 64.9728 54.982 65.3903 54.5932C65.9281 53.8044 66.6101 53.1068 67.4366 52.5006C67.3564 52.4342 67.276 52.3677 67.1958 52.3013C67.5167 51.9691 67.8379 51.637 68.1588 51.3048C68.0786 51.2384 67.9982 51.1719 67.918 51.1055C68.4739 50.9548 68.9554 51.0545 69.3625 51.4045C70.6454 50.7729 71.4078 49.843 71.6495 48.6143C71.7297 48.6807 71.8101 48.7472 71.8903 48.8136C72.3691 47.8534 73.0511 47.1558 73.9366 46.721C74.2575 46.6546 74.5786 46.5881 74.8995 46.5217C76.4593 45.3458 77.9037 44.0835 79.2328 42.735C79.7374 42.3831 80.2991 42.1174 80.918 41.9379C78.4362 41.7117 75.9487 41.5454 73.4551 41.4396C73.2933 40.7604 73.534 40.2289 74.1773 39.8452C74.3184 39.8869 74.4387 39.9535 74.5384 40.0445C74.6922 39.524 74.9732 39.0588 75.381 38.6495C76.2409 38.0444 77.1637 37.5129 78.1495 37.0551C78.3924 36.7512 78.5128 36.4189 78.5106 36.0586C78.7413 34.8142 78.8214 33.5521 78.7514 32.272Z" fill="#2974DD"/>
<path fill-rule="evenodd" clip-rule="evenodd" d="M59.7329 40.8418C60.6542 41.1653 61.6172 41.3646 62.6218 41.4397C65.893 41.6352 69.1829 41.7018 72.4921 41.639C72.9628 47.4887 69.753 50.9431 62.8625 52.0024C62.4612 52.0024 62.0601 52.0024 61.6588 52.0024C56.0416 52.0024 50.4242 52.0024 44.807 52.0024C39.3501 52.0024 33.8935 52.0024 28.4366 52.0024C27.8986 52.0612 27.4171 51.9946 26.9922 51.8031C40.1549 51.8751 50.4266 51.8087 57.807 51.6038C57.7542 51.3696 57.8344 51.1703 58.0477 51.0059C58.4095 51.1159 58.8106 51.1159 59.2514 51.0059C59.0836 49.3946 59.0434 47.7339 59.131 46.0235C59.0196 45.3587 58.819 44.7275 58.5292 44.1302C58.5694 43.8976 58.6094 43.6652 58.6496 43.4327C58.7492 43.5237 58.8696 43.5903 59.0107 43.632C59.2098 42.8429 59.3301 42.0457 59.3718 41.2404C59.5444 41.132 59.6648 40.999 59.7329 40.8418Z" fill="#F3F7F8"/>
<path fill-rule="evenodd" clip-rule="evenodd" d="M18.3255 43.831C18.4124 44.8554 18.6531 45.8519 19.0477 46.8205C18.6052 46.7254 18.1637 46.6591 17.7236 46.6212C17.1384 47.004 16.4963 47.004 15.7977 46.6212C14.6602 47.1691 13.8578 47.9662 13.3903 49.0127C12.3472 49.8099 11.3038 50.6071 10.2607 51.4043C9.89475 52.3719 9.17253 53.1027 8.09401 53.5966C7.92814 53.4258 7.72761 53.293 7.49216 53.198C7.25142 53.5302 6.93052 53.7959 6.5292 53.9952C5.49257 55.2513 4.36904 56.4471 3.15883 57.5825C3.0895 57.8537 3.00933 58.1194 2.91809 58.3797C2.1718 57.2596 1.61015 56.0639 1.23291 54.7924C2.42048 53.7114 3.74456 52.7149 5.20513 51.8029C5.79302 51.2951 6.19409 50.6972 6.40883 50.0092C7.84677 48.8677 9.25101 47.7052 10.6218 46.5215C12.0655 45.7899 13.4298 44.9597 14.7144 44.0303C15.4082 43.7392 16.1304 43.5068 16.881 43.3328C17.0474 43.1201 17.1678 42.8876 17.2422 42.6353C17.2884 43.0492 17.4087 43.4478 17.6033 43.831C17.7913 43.5861 17.9117 43.3204 17.9644 43.0338C18.0149 43.3444 18.1353 43.61 18.3255 43.831Z" fill="#38A499"/>
<path fill-rule="evenodd" clip-rule="evenodd" d="M82.3625 45.8242C80.9746 47.4064 79.7307 49.0671 78.631 50.8066C77.7117 51.3005 76.7889 51.7987 75.8625 52.3013C75.2862 52.6903 74.9251 53.1886 74.7792 53.796C74.3991 54.1032 73.9575 54.3357 73.4551 54.4936C72.9587 55.219 72.2767 55.7836 71.4088 56.1876C71.2083 56.8851 70.6866 57.317 69.844 57.483C68.9807 58.3279 68.1381 59.1583 67.3162 59.9742C66.0634 60.78 64.8597 61.6438 63.7051 62.5651C63.5917 62.9131 63.4312 63.2453 63.2236 63.5616C62.3811 63.9935 61.699 64.5581 61.1774 65.2556C60.757 65.3495 60.3557 65.4824 59.9736 65.6542C59.5822 66.178 59.1007 66.6429 58.5292 67.0493C57.2451 67.2189 56.3623 67.7835 55.8811 68.7433C55.6006 68.9593 55.2797 69.1254 54.9181 69.2415C55.5286 69.2786 56.0903 69.3783 56.6033 69.5405C55.9872 69.4803 55.4253 69.5469 54.9181 69.7398C53.2329 69.7398 51.5477 69.7398 49.8625 69.7398C50.8684 69.5592 51.9117 69.393 52.9922 69.2415C52.6713 69.0422 52.6713 68.8429 52.9922 68.6437C52.3501 68.5107 52.3501 68.378 52.9922 68.2451C52.6713 68.0458 52.6713 67.8465 52.9922 67.6472C53.875 67.3149 54.7575 66.9829 55.6403 66.6507C57.0525 65.1803 58.5771 63.7852 60.2144 62.4655C61.7046 61.7665 63.0686 60.903 64.307 59.8746C66.2139 59.1599 67.538 57.9972 68.2792 56.3869C69.142 55.9194 69.7439 55.2884 70.0848 54.4936C70.3895 54.432 70.6705 54.3324 70.9273 54.1946C71.1873 53.6972 71.5085 53.232 71.8903 52.7996C72.8398 52.512 73.5218 51.9807 73.9366 51.2052C74.4889 50.9648 75.0505 50.7655 75.6218 50.6073C75.5859 50.3976 75.6259 50.1983 75.7422 50.0094C77.8484 48.9304 79.6539 47.5686 81.1588 45.9238C81.5919 45.7174 81.9932 45.6841 82.3625 45.8242Z" fill="#2A71E1"/>
<path fill-rule="evenodd" clip-rule="evenodd" d="M84.7698 35.8594C84.81 41.4401 84.7698 47.0204 84.6494 52.6003C84.5936 52.8468 84.4732 53.0461 84.2883 53.1982C84.0553 52.6113 84.0153 52.0134 84.1679 51.4045C84.2481 51.7367 84.3285 52.0688 84.4087 52.401C84.5693 51.5374 84.5693 50.6737 84.4087 49.8101C83.6284 49.5184 83.1872 49.7508 83.0846 50.5077C83.2406 50.7947 83.3208 51.0936 83.3253 51.4045C83.0856 51.3874 82.885 51.4539 82.7235 51.6038C82.5629 51.3382 82.3222 51.1389 82.0013 51.0059C80.0518 51.1305 78.9282 52.0606 78.6309 53.7961C77.6427 54.6983 76.5993 55.5618 75.5013 56.3869C75.2162 57.5016 74.5742 58.4317 73.5754 59.1771C73.4952 59.1107 73.4148 59.0442 73.3346 58.9778C73.0505 59.8774 72.4087 60.5417 71.4087 60.9708C71.2072 61.3397 71.0064 61.705 70.8068 62.0669C68.9676 63.0293 67.2022 64.0921 65.5106 65.2556C64.551 65.3523 63.7486 65.6845 63.1031 66.2521C62.1402 66.6507 61.1772 67.0493 60.2143 67.4479C59.8934 67.8465 59.8934 68.2451 60.2143 68.6437C60.0537 68.71 59.8934 68.7766 59.7328 68.843C60.0537 68.9759 60.0537 69.1086 59.7328 69.2416C58.7144 69.4987 57.6711 69.5983 56.6032 69.5405C56.0901 69.3783 55.5285 69.2786 54.918 69.2416C55.2796 69.1254 55.6005 68.9594 55.8809 68.7433C56.3622 67.7835 57.245 67.2189 58.5291 67.0493C59.1006 66.6429 59.5821 66.178 59.9735 65.6542C60.3556 65.4824 60.7569 65.3495 61.1772 65.2556C61.6989 64.5581 62.3809 63.9935 63.2235 63.5616C63.431 63.2453 63.5916 62.9131 63.705 62.5651C64.8596 61.6438 66.0633 60.78 67.3161 59.9743C68.138 59.1584 68.9806 58.3279 69.8439 57.4831C70.6865 57.3171 71.2082 56.8852 71.4087 56.1876C72.2766 55.7837 72.9586 55.2191 73.455 54.4936C73.9574 54.3358 74.3989 54.1032 74.7791 53.7961C74.9249 53.1886 75.2861 52.6904 75.8624 52.3014C76.7888 51.7987 77.7115 51.3005 78.6309 50.8066C79.7306 49.0672 80.9745 47.4064 82.3624 45.8242C82.6713 45.4045 82.8718 44.9393 82.9642 44.4291C83.8875 43.4209 84.369 43.4875 84.4087 44.6284C84.5288 43.6341 84.569 42.6377 84.5291 41.639C82.7047 41.6653 80.859 41.5987 78.992 41.4397C78.8914 41.2958 78.7311 41.1961 78.5105 41.1407C78.8779 40.7647 79.3594 40.5654 79.955 40.5428C79.674 39.9782 79.8748 39.812 80.5568 40.0446C80.455 39.5711 80.6558 39.1392 81.1587 38.7492C81.6221 38.7761 82.1036 38.8094 82.6031 38.8488C82.5345 39.2052 82.6147 39.5374 82.8439 39.8453C83.0666 39.6179 83.2673 39.6179 83.4457 39.8453C83.522 39.4864 83.6826 39.42 83.9272 39.646C84.0074 39.2474 84.0878 38.8488 84.1679 38.4502C84.2481 38.9818 84.3285 39.5131 84.4087 40.0446C84.4498 38.6139 84.5702 37.2188 84.7698 35.8594Z" fill="#2A6EE4"/>
<path fill-rule="evenodd" clip-rule="evenodd" d="M19.0476 46.8206C19.2883 47.2192 19.5291 47.6178 19.7698 48.0164C18.3025 48.5238 16.858 49.0886 15.4365 49.7104C14.5282 50.4514 13.7657 51.2817 13.1494 52.2016C11.4419 53.1497 9.95746 54.3122 8.69574 55.6893C8.31513 55.8302 7.95402 55.9963 7.61241 56.1876C6.71276 57.6941 5.38869 58.8233 3.64019 59.5756C3.27715 59.2406 3.03641 58.842 2.91797 58.3798C3.00921 58.1196 3.08938 57.8539 3.15871 57.5827C4.36891 56.4473 5.49245 55.2515 6.52908 53.9953C6.93039 53.796 7.2513 53.5304 7.49204 53.1981C7.72748 53.2932 7.92802 53.4259 8.09389 53.5967C9.17241 53.1029 9.89463 52.372 10.2606 51.4045C11.3037 50.6073 12.3471 49.8101 13.3902 49.0129C13.8577 47.9664 14.6601 47.1692 15.7976 46.6213C16.4962 47.0042 17.1383 47.0042 17.7235 46.6213C18.1636 46.6592 18.6051 46.7256 19.0476 46.8206Z" fill="#36A09F"/>
<path fill-rule="evenodd" clip-rule="evenodd" d="M22.418 50.408C22.7793 50.6575 23.1807 50.8568 23.6217 51.0059C23.601 51.2044 23.6814 51.3704 23.8624 51.5042C22.5993 52.4084 21.2352 53.2056 19.7699 53.8957C19.18 54.8492 18.3374 55.6131 17.2421 56.1876C16.6855 56.9788 16.0437 57.7097 15.3162 58.3799C14.8392 58.8098 14.2776 59.142 13.631 59.3764C13.5176 59.7243 13.357 60.0566 13.1495 60.3729C12.4145 60.7575 11.8127 61.2557 11.3439 61.8676C9.85664 61.9692 8.85347 62.6004 8.33468 63.7609C8.25451 63.6945 8.1741 63.628 8.09394 63.5616C7.97188 63.8598 8.09225 64.0923 8.45505 64.2591C8.3212 64.3355 8.24103 64.4351 8.21431 64.5581C7.06188 63.8709 6.17909 63.0074 5.56616 61.9672C5.75635 61.7462 5.87672 61.4806 5.92727 61.17C6.28549 61.6324 6.72677 61.6657 7.25135 61.2697C8.40497 59.8495 9.80921 58.6204 11.4643 57.5827C12.4836 56.2729 13.7677 55.1437 15.3162 54.1947C15.4767 53.7961 15.6371 53.3975 15.7976 52.9989C16.3918 52.8785 16.8733 52.6126 17.2421 52.2017C17.3945 50.9465 18.2371 50.3154 19.7699 50.3084C20.059 50.1284 20.2598 49.896 20.3717 49.6108C20.8527 50.0078 21.3342 50.4064 21.8161 50.8066C22.0595 50.6958 22.2601 50.5631 22.418 50.408Z" fill="#3499AB"/>
<path fill-rule="evenodd" clip-rule="evenodd" d="M23.6217 51.0059C24.6588 51.4969 25.7823 51.7628 26.9921 51.803C27.417 51.9946 27.8985 52.0611 28.4365 52.0023C28.4266 52.4498 28.2259 52.5827 27.8347 52.4009C27.7184 52.5899 27.6784 52.7892 27.7143 52.9988C26.0188 53.303 24.8553 54.1667 24.2236 55.5897C22.5624 56.8076 20.9574 58.0699 19.4087 59.3763C19.2739 60.2185 18.7123 60.7501 17.7236 60.9707C17.523 61.3029 17.3222 61.6349 17.1217 61.9672C15.7909 62.9665 14.3465 63.8633 12.7884 64.6577C12.1757 65.1972 11.6138 65.7618 11.1032 66.3517C10.054 65.8509 9.09109 65.253 8.21431 64.558C8.24103 64.4351 8.3212 64.3354 8.45505 64.2591C8.09226 64.0923 7.97189 63.8597 8.09394 63.5616C8.17411 63.6279 8.25451 63.6945 8.33468 63.7608C8.85348 62.6003 9.85664 61.9692 11.3439 61.8675C11.8127 61.2557 12.4145 60.7574 13.1495 60.3728C13.357 60.0565 13.5176 59.7243 13.631 59.3763C14.2776 59.1419 14.8392 58.8097 15.3162 58.3798C16.0437 57.7096 16.6855 56.9788 17.2421 56.1876C18.3374 55.613 19.18 54.8491 19.7699 53.8957C21.2352 53.2055 22.5993 52.4083 23.8624 51.5041C23.6814 51.3704 23.601 51.2044 23.6217 51.0059Z" fill="#3294B2"/>
<path fill-rule="evenodd" clip-rule="evenodd" d="M78.2699 36.0586C78.3501 36.0586 78.4305 36.0586 78.5107 36.0586C78.5128 36.4189 78.3925 36.7511 78.1496 37.0551C77.1637 37.5129 76.241 38.0444 75.381 38.6495C74.9732 39.0588 74.6923 39.524 74.5385 40.0445C74.4388 39.9534 74.3184 39.8869 74.1773 39.8452C73.5341 40.2289 73.2933 40.7604 73.4551 41.4396C75.9487 41.5454 78.4363 41.7116 80.9181 41.9378C80.2991 42.1174 79.7375 42.3831 79.2329 42.735C77.9038 44.0835 76.4593 45.3458 74.8996 46.5217C74.5787 46.588 74.2575 46.6546 73.9366 46.721C73.0512 47.1558 72.3691 47.8534 71.8903 48.8136C71.8101 48.7472 71.7297 48.6806 71.6496 48.6143C71.4079 49.8429 70.6454 50.7729 69.3625 51.4044C68.9554 51.0545 68.474 50.9548 67.9181 51.1055C67.9983 51.1719 68.0787 51.2384 68.1588 51.3048C67.8379 51.637 67.5168 51.969 67.1959 52.3013C67.276 52.3676 67.3564 52.4342 67.4366 52.5006C66.6101 53.1068 65.9281 53.8044 65.3903 54.5932C64.9729 54.982 64.4512 55.1813 63.8255 55.1911C63.8782 55.4252 63.7981 55.6245 63.5848 55.789C62.3072 56.7799 61.0233 57.7764 59.7329 58.7784C59.1713 59.011 58.6094 59.2434 58.0477 59.476C56.9572 60.3614 55.914 61.2915 54.9181 62.2661C54.0132 63.0129 52.97 63.6108 51.7885 64.0598C50.4013 65.1966 49.1577 66.4256 48.057 67.7468C47.1292 68.2542 46.3668 68.7524 45.77 69.2415C46.3316 69.3079 46.8935 69.3744 47.4551 69.4408C46.2072 69.4755 45.0034 69.5751 43.844 69.7397C41.4366 69.7397 39.0292 69.7397 36.6218 69.7397C38.3624 69.597 40.1277 69.3977 41.9181 69.1418C41.5168 68.9093 41.1157 68.6769 40.7144 68.4443C41.148 68.3811 41.2282 68.2482 40.9552 68.0457C42.0029 67.3771 42.9658 66.6464 43.844 65.8534C43.9242 65.8202 44.0046 65.7871 44.0848 65.7538C44.2656 65.9284 44.3859 66.1277 44.4459 66.3517C44.7605 66.0982 45.1217 65.8989 45.5292 65.7538C45.1409 65.569 44.7398 65.4028 44.3255 65.2556C45.6869 64.4606 46.8906 63.5304 47.9366 62.4654C48.2479 62.3677 48.5691 62.3345 48.8996 62.3658C48.9405 62.1023 48.8604 61.8697 48.6589 61.6682C50.1835 60.6717 51.5477 59.5423 52.7514 58.2802C54.8928 57.1725 56.8992 55.9103 58.77 54.4935C60.439 53.9425 61.803 53.1122 62.8625 52.0023C69.753 50.9431 72.9628 47.4887 72.4922 41.6389C70.852 41.4414 69.1668 41.3748 67.4366 41.4396C68.4624 41.3148 69.5055 41.1488 70.5662 40.9414C70.7475 40.5942 70.7475 40.1956 70.5662 39.7456C70.8948 38.4579 71.7776 37.5944 73.2144 37.1547C73.015 36.9724 72.7743 36.8396 72.4922 36.7561C73.0784 36.7412 73.2389 36.5752 72.9736 36.2579C74.7838 36.3227 76.5491 36.2563 78.2699 36.0586Z" fill="#2A78D7"/>
<path fill-rule="evenodd" clip-rule="evenodd" d="M36.381 52.2016C35.0451 52.3852 33.6808 52.5845 32.2884 52.7995C31.4689 53.8514 30.7869 54.9808 30.2421 56.1875C28.899 57.408 27.6149 58.6702 26.3902 59.9742C25.0125 60.9928 23.5278 61.8896 21.9365 62.6647C21.1585 63.6849 20.0352 64.2495 18.5662 64.3587C19.734 63.2961 21.0983 62.3992 22.6588 61.6682C23.9758 60.4443 25.2999 59.2153 26.631 57.9812C27.4257 56.7288 28.3084 55.5331 29.2791 54.3939C30.003 54.0778 30.6049 53.6459 31.0847 53.0984C30.8439 53.0321 30.6032 52.9655 30.3624 52.8991C31.0929 52.6719 31.8151 52.539 32.5291 52.5006C32.2082 52.4342 31.8871 52.3676 31.5661 52.3013C33.169 52.2016 34.774 52.1685 36.381 52.2016Z" fill="#2F90BC"/>
<path fill-rule="evenodd" clip-rule="evenodd" d="M36.3809 52.2017C37.1833 52.2017 37.9859 52.2017 38.7883 52.2017C38.972 52.3547 39.2127 52.4544 39.5105 52.5006C39.0962 52.6479 38.6951 52.8141 38.3068 52.9988C38.4864 53.2452 38.5666 53.511 38.5475 53.796C37.3631 54.1785 36.4803 54.8427 35.8994 55.789C34.5118 56.7032 33.1477 57.6666 31.8068 58.6788C31.1602 58.9514 30.5181 59.2171 29.8809 59.476C28.7653 60.6949 27.682 61.924 26.6309 63.163C25.5399 63.9343 24.4565 64.6984 23.3809 65.4549C22.7237 65.8794 22.2422 66.4109 21.9365 67.0493C21.7082 67.1455 21.4675 67.1786 21.2142 67.1489C21.1341 67.5475 21.0537 67.9461 20.9735 68.3447C19.927 68.4328 19.8468 68.5988 20.7327 68.8429C20.5517 68.9767 20.4713 69.1427 20.492 69.3412C18.1181 69.0626 15.8712 68.4647 13.7513 67.5475C13.6721 67.0511 13.4313 66.6194 13.0291 66.2521C13.4203 66.0821 13.5004 65.8828 13.2698 65.6542C14.2041 65.5332 15.0065 65.201 15.6772 64.6577C16.6204 64.4273 17.5834 64.3277 18.5661 64.3588C20.0351 64.2495 21.1584 63.6849 21.9365 62.6647C23.5277 61.8897 25.0124 60.9928 26.3902 59.9742C27.6148 58.6702 28.8989 57.4081 30.242 56.1876C30.7868 54.9809 31.4688 53.8514 32.2883 52.7996C33.6807 52.5845 35.045 52.3852 36.3809 52.2017Z" fill="#2F8DBE"/>
<path fill-rule="evenodd" clip-rule="evenodd" d="M44.8069 52.0022C50.4241 52.0022 56.0415 52.0022 61.6587 52.0022C59.2145 52.2003 56.7269 52.2669 54.1958 52.2015C52.5908 52.2015 50.986 52.2015 49.381 52.2015C48.0944 52.1684 46.8106 52.2017 45.5291 52.3011C46.2513 52.3675 46.9736 52.4341 47.6958 52.5004C46.7872 53.2514 45.7441 53.8493 44.5661 54.2941C44.2669 54.5241 44.0262 54.79 43.8439 55.0913C42.2599 56.0415 40.6548 56.9384 39.0291 57.7818C37.4525 59.1237 35.9279 60.5187 34.455 61.967C33.3212 62.6759 32.2378 63.4067 31.2051 64.1593C30.3668 65.6433 29.2033 66.9387 27.7143 68.0456C27.7945 68.1119 27.8749 68.1785 27.9551 68.2449C27.7143 68.3112 27.4736 68.3778 27.2328 68.4442C27.5537 68.6435 27.8749 68.8428 28.1958 69.0421C28.1156 69.1084 28.0352 69.175 27.9551 69.2414C26.9353 69.3081 25.9723 69.4741 25.0662 69.7396C24.5045 69.7396 23.9426 69.7396 23.381 69.7396C22.9496 69.5784 22.4681 69.4787 21.9365 69.4407C24.4301 69.1186 24.35 68.8529 21.6958 68.6435C22.0167 68.5771 22.3379 68.5105 22.6588 68.4442C22.5331 68.3324 22.4529 68.1994 22.418 68.0456C23.9414 66.0209 26.0279 64.5262 28.6773 63.5614C29.244 62.926 29.9262 62.3945 30.7236 61.967C32.839 59.4796 35.2464 57.1546 37.9458 54.9916C38.3211 54.6495 38.5216 54.2509 38.5476 53.7959C38.5667 53.5109 38.4865 53.245 38.3069 52.9987C38.6952 52.8139 39.0963 52.6477 39.5106 52.5004C39.2128 52.4542 38.9721 52.3546 38.7884 52.2015C40.8388 52.2665 42.8449 52.2001 44.8069 52.0022Z" fill="#2E87C5"/>
<path fill-rule="evenodd" clip-rule="evenodd" d="M49.381 52.2016C49.7305 52.3614 50.1316 52.4611 50.5847 52.5005C49.653 52.5215 48.7702 52.6875 47.9365 52.9988C47.0626 53.8888 46.1399 54.7526 45.168 55.5896C44.68 56.1319 44.3189 56.7298 44.0847 57.3833C41.8983 58.6941 39.8922 60.1888 38.0662 61.8675C37.5452 62.0496 37.0637 62.2822 36.6217 62.565C35.7902 63.352 35.1082 64.2156 34.5754 65.1559C33.6394 65.5987 32.9574 66.2297 32.5291 67.0492C31.5828 67.4741 30.7804 68.0387 30.1217 68.7432C29.6402 68.9092 29.1588 69.0754 28.6773 69.2414C29.6855 69.2765 30.6485 69.3762 31.5662 69.5404C32.915 69.7417 34.6002 69.808 36.6217 69.7397C39.0291 69.7397 41.4365 69.7397 43.8439 69.7397C45.85 69.7397 47.8563 69.7397 49.8624 69.7397C51.5476 69.7397 53.2328 69.7397 54.918 69.7397C57.3254 69.7397 59.7328 69.7397 62.1402 69.7397C49.7823 70.0054 37.4241 70.0054 25.0662 69.7397C25.9723 69.4742 26.9353 69.3082 27.955 69.2414C28.0352 69.1751 28.1156 69.1085 28.1958 69.0422C27.8749 68.8429 27.5537 68.6436 27.2328 68.4443C27.4736 68.3779 27.7143 68.3113 27.955 68.245C27.8749 68.1786 27.7945 68.112 27.7143 68.0457C29.2033 66.9388 30.3668 65.6433 31.205 64.1594C32.2378 63.4068 33.3212 62.676 34.455 61.9671C35.9279 60.5188 37.4525 59.1238 39.0291 57.7819C40.6548 56.9385 42.2598 56.0416 43.8439 55.0914C44.0262 54.79 44.2669 54.5242 44.5661 54.2942C45.7441 53.8494 46.7872 53.2515 47.6958 52.5005C46.9735 52.4342 46.2513 52.3676 45.5291 52.3012C46.8106 52.2018 48.0944 52.1685 49.381 52.2016Z" fill="#3888CC"/>
<path fill-rule="evenodd" clip-rule="evenodd" d="M19.77 48.0164C20.4888 48.9435 21.3716 49.7407 22.4181 50.4079C22.2602 50.563 22.0597 50.6957 21.8163 50.8065C21.3343 50.4063 20.8528 50.0077 20.3718 49.6107C20.2599 49.8959 20.0591 50.1283 19.77 50.3083C18.2372 50.3152 17.3946 50.9464 17.2422 52.2016C16.8734 52.6125 16.3919 52.8784 15.7978 52.9988C15.6372 53.3974 15.4769 53.796 15.3163 54.1946C13.7679 55.1436 12.4837 56.2728 11.4644 57.5826C9.80936 58.6203 8.40512 59.8494 7.25149 61.2696C6.72691 61.6656 6.28564 61.6323 5.92742 61.1699C5.87686 61.4804 5.75649 61.7461 5.5663 61.9671C4.68616 61.3088 4.04434 60.5117 3.64038 59.5756C5.38888 58.8232 6.71295 57.694 7.6126 56.1875C7.95421 55.9962 8.31532 55.8302 8.69593 55.6893C9.95765 54.3121 11.4421 53.1496 13.1496 52.2016C13.7659 51.2816 14.5284 50.4514 15.4367 49.7104C16.8582 49.0886 18.3027 48.5238 19.77 48.0164Z" fill="#359CA6"/>
<path fill-rule="evenodd" clip-rule="evenodd" d="M49.3809 52.2017C50.9859 52.2017 52.5907 52.2017 54.1957 52.2017C54.7076 52.3264 55.1089 52.5921 55.3994 52.9988C54.2995 53.4875 53.1762 53.9194 52.0291 54.2943C49.8882 56.2031 47.4808 57.7975 44.8069 59.0774C44.1465 60.0904 43.3841 61.0536 42.5198 61.9672C40.2872 63.2178 38.2811 64.6792 36.5013 66.3517C35.8898 67.167 35.288 67.8646 34.6958 68.4443C35.1409 68.6622 35.5422 68.9278 35.8995 69.2415C34.4683 69.4731 33.0238 69.5728 31.5661 69.5405C30.6484 69.3763 29.6855 69.2766 28.6772 69.2415C29.1587 69.0755 29.6402 68.9093 30.1217 68.7433C30.7804 68.0388 31.5827 67.4742 32.5291 67.0493C32.9574 66.2298 33.6394 65.5988 34.5754 65.1559C35.1081 64.2157 35.7902 63.3521 36.6217 62.5651C37.0637 62.2823 37.5452 62.0497 38.0661 61.8675C39.8921 60.1889 41.8982 58.6941 44.0846 57.3834C44.3189 56.7299 44.68 56.132 45.168 55.5897C46.1398 54.7527 47.0626 53.8889 47.9365 52.9988C48.7702 52.6875 49.653 52.5215 50.5846 52.5006C50.1316 52.4611 49.7305 52.3615 49.3809 52.2017Z" fill="#2B81CC"/>
<path fill-rule="evenodd" clip-rule="evenodd" d="M28.4366 52.0022C33.8935 52.0022 39.3501 52.0022 44.8069 52.0022C42.8449 52.2001 40.8388 52.2665 38.7884 52.2015C37.986 52.2015 37.1834 52.2015 36.381 52.2015C34.7741 52.1684 33.1691 52.2015 31.5662 52.3011C31.8871 52.3675 32.2083 52.4341 32.5292 52.5004C31.8151 52.5389 31.0929 52.6718 30.3625 52.899C30.6033 52.9654 30.844 53.032 31.0847 53.0983C30.6049 53.6458 30.0031 54.0777 29.2792 54.3938C28.3085 55.5329 27.4257 56.7287 26.631 57.9811C25.3 59.2151 23.9759 60.4442 22.6588 61.6681C21.0983 62.3991 19.7341 63.2959 18.5662 64.3586C17.5835 64.3275 16.6206 64.4271 15.6773 64.6575C15.0066 65.2008 14.2042 65.533 13.2699 65.654C13.5006 65.8826 13.4204 66.0819 13.0292 66.2519C13.4315 66.6192 13.6722 67.0509 13.7514 67.5473C12.7596 67.303 11.8768 66.9044 11.1033 66.3516C11.6139 65.7616 12.1758 65.197 12.7885 64.6575C14.3465 63.8631 15.791 62.9663 17.1218 61.967C17.3223 61.6348 17.5231 61.3028 17.7236 60.9705C18.7124 60.7499 19.274 60.2184 19.4088 59.3762C20.9575 58.0698 22.5625 56.8074 24.2236 55.5895C24.8553 54.1666 26.0188 53.3028 27.7144 52.9987C27.6785 52.789 27.7185 52.5897 27.8347 52.4008C28.2259 52.5825 28.4267 52.4496 28.4366 52.0022Z" fill="#3392B8"/>
<path fill-rule="evenodd" clip-rule="evenodd" d="M38.5476 53.7959C38.5216 54.2509 38.3211 54.6495 37.9458 54.9917C35.2463 57.1546 32.8389 59.4796 30.7236 61.9671C29.9262 62.3946 29.244 62.9261 28.6773 63.5614C26.0279 64.5262 23.9414 66.021 22.418 68.0456C22.4529 68.1995 22.5331 68.3324 22.6587 68.4442C22.3378 68.5106 22.0167 68.5771 21.6958 68.6435C24.3499 68.853 24.4301 69.1186 21.9365 69.4407C22.4681 69.4788 22.9496 69.5784 23.381 69.7396C22.3482 69.7998 21.3852 69.6671 20.4921 69.341C20.4714 69.1425 20.5518 68.9765 20.7328 68.8428C19.8469 68.5987 19.9271 68.4326 20.9736 68.3446C21.0537 67.946 21.1341 67.5474 21.2143 67.1488C21.4676 67.1785 21.7083 67.1454 21.9365 67.0491C22.2423 66.4108 22.7237 65.8793 23.381 65.4548C24.4566 64.6982 25.5399 63.9341 26.631 63.1628C27.682 61.9238 28.7654 60.6948 29.881 59.4759C30.5182 59.217 31.1603 58.9513 31.8069 58.6787C33.1478 57.6664 34.5118 56.703 35.8995 55.7889C36.4804 54.8426 37.3632 54.1783 38.5476 53.7959Z" fill="#308AC3"/>
<path fill-rule="evenodd" clip-rule="evenodd" d="M84.2885 53.1981C82.9427 60.2602 78.2885 65.2093 70.3255 68.0457C68.2185 68.7269 66.0519 69.2251 63.8255 69.5404C61.2626 69.5063 61.2626 69.4067 63.8255 69.2415C63.7453 69.1751 63.6649 69.1085 63.5848 69.0422C64.3383 68.6794 65.1409 68.4801 65.9922 68.4443C64.9233 67.7918 64.8029 67.0277 65.6311 66.1524C66.613 65.7388 67.4556 65.1742 68.1588 64.4583C69.6172 64.0418 70.7408 63.311 71.5292 62.2661C72.4175 61.6333 73.3805 61.1018 74.4181 60.6717C75.5214 59.2254 76.7251 57.8303 78.0292 56.4865C78.3287 56.3956 78.5292 56.4952 78.6311 56.7854C78.6703 56.3517 78.8708 55.9864 79.2329 55.6893C80.3073 55.3296 81.3103 54.8977 82.2422 54.3939C82.5111 54.6826 82.6716 55.0149 82.7236 55.3903C82.7357 54.1455 83.0164 52.9498 83.5662 51.803C83.4788 51.6669 83.3987 51.534 83.3255 51.4044C83.3209 51.0935 83.2408 50.7946 83.0848 50.5076C83.1873 49.7506 83.6286 49.5183 84.4088 49.81C84.5694 50.6736 84.5694 51.5373 84.4088 52.4009C84.3287 52.0687 84.2483 51.7366 84.1681 51.4044C84.0155 52.0133 84.0554 52.6111 84.2885 53.1981Z" fill="#2B69EB"/>
<path fill-rule="evenodd" clip-rule="evenodd" d="M61.6587 52.0022C62.06 52.0022 62.4611 52.0022 62.8624 52.0022C61.8029 53.1121 60.4389 53.9424 58.7698 54.4934C56.899 55.9102 54.8927 57.1724 52.7513 58.28C51.5476 59.5422 50.1833 60.6716 48.6587 61.6681C48.8602 61.8696 48.9404 62.1022 48.8995 62.3656C48.5689 62.3343 48.2478 62.3676 47.9365 62.4653C46.8905 63.5303 45.6868 64.4604 44.3254 65.2554C44.7397 65.4027 45.1408 65.5689 45.5291 65.7537C45.1215 65.8988 44.7604 66.0981 44.4458 66.3516C44.3858 66.1275 44.2655 65.9283 44.0847 65.7537C44.0045 65.787 43.9241 65.82 43.8439 65.8533C42.9657 66.6463 42.0027 67.3769 40.955 68.0456C41.228 68.2481 41.1479 68.381 40.7143 68.4442C41.1156 68.6768 41.5167 68.9091 41.918 69.1417C40.1276 69.3976 38.3623 69.5969 36.6217 69.7396C34.6002 69.808 32.915 69.7416 31.5662 69.5403C33.0238 69.5726 34.4683 69.4729 35.8995 69.2414C35.5422 68.9277 35.1409 68.662 34.6958 68.4442C35.288 67.8644 35.8899 67.1669 36.5013 66.3516C38.2811 64.6791 40.2872 63.2176 42.5199 61.967C43.3841 61.0535 44.1465 60.0903 44.8069 59.0772C47.4808 57.7973 49.8882 56.203 52.0291 54.2941C53.1762 53.9192 54.2995 53.4874 55.3995 52.9987C55.1089 52.5919 54.7076 52.3263 54.1958 52.2015C56.7269 52.2669 59.2145 52.2003 61.6587 52.0022Z" fill="#2B7ED1"/>
<path fill-rule="evenodd" clip-rule="evenodd" d="M83.3253 51.4045C83.3985 51.534 83.4787 51.6669 83.5661 51.803C83.0162 52.9498 82.7355 54.1456 82.7235 55.3904C82.6715 55.0149 82.5109 54.6827 82.242 54.3939C81.3101 54.8977 80.3072 55.3296 79.2328 55.6893C78.8707 55.9865 78.6701 56.3518 78.6309 56.7855C78.5291 56.4953 78.3285 56.3956 78.0291 56.4865C76.725 57.8304 75.5213 59.2255 74.4179 60.6717C73.3804 61.1018 72.4174 61.6334 71.5291 62.2661C70.7406 63.311 69.6171 64.0419 68.1587 64.4584C67.4555 65.1743 66.6129 65.7389 65.6309 66.1524C64.8028 67.0277 64.9231 67.7918 65.992 68.4443C65.1408 68.4802 64.3381 68.6795 63.5846 69.0422C63.6648 69.1086 63.7452 69.1751 63.8254 69.2415C61.2624 69.4067 61.2624 69.5064 63.8254 69.5405C63.3181 69.7334 62.7562 69.7999 62.1402 69.7397C59.7328 69.7397 57.3254 69.7397 54.918 69.7397C55.4252 69.5468 55.9871 69.4803 56.6032 69.5405C57.6711 69.5982 58.7144 69.4986 59.7328 69.2415C60.0537 69.1086 60.0537 68.9758 59.7328 68.8429C59.8934 68.7765 60.0537 68.71 60.2143 68.6436C59.8934 68.245 59.8934 67.8464 60.2143 67.4478C61.1772 67.0492 62.1402 66.6506 63.1031 66.2521C63.7486 65.6845 64.551 65.3522 65.5106 65.2556C67.2022 64.0921 68.9676 63.0292 70.8068 62.0668C71.0064 61.7049 71.2072 61.3396 71.4087 60.9707C72.4087 60.5416 73.0505 59.8774 73.3346 58.9777C73.4148 59.0441 73.4952 59.1107 73.5754 59.177C74.5742 58.4317 75.2162 57.5015 75.5013 56.3869C76.5993 55.5618 77.6427 54.6982 78.6309 53.796C78.9282 52.0605 80.0518 51.1304 82.0013 51.0059C82.3222 51.1388 82.5629 51.3381 82.7235 51.6037C82.885 51.4539 83.0856 51.3873 83.3253 51.4045Z" fill="#2A6BE8"/>
</svg>
