<svg width="85" height="78" viewBox="0 0 85 78" fill="none" xmlns="http://www.w3.org/2000/svg">
<path fill-rule="evenodd" clip-rule="evenodd" d="M34.5976 2.19226C32.1933 2.47247 29.7859 2.73814 27.3754 2.98945C27.4676 4.43037 26.7054 5.42685 25.0884 5.9789C25.1018 7.11091 25.2222 8.24012 25.4495 9.36694C25.6418 9.95088 25.722 10.5488 25.6902 11.1606C25.6902 11.2935 25.6902 11.4263 25.6902 11.5592C25.61 11.5592 25.5296 11.5592 25.4495 11.5592C25.248 9.82592 24.967 8.09882 24.6069 6.37749C24.0772 6.84205 23.5958 6.84205 23.1624 6.37749C23.1193 7.08001 22.999 7.74447 22.8013 8.37046C22.5211 6.48232 22.2804 4.58901 22.0791 2.69051C22.0878 2.27318 22.1679 1.87458 22.3198 1.49473C26.4656 0.859567 30.6384 0.361325 34.8383 0C35.0449 0.763306 34.9645 1.49413 34.5976 2.19226Z" fill="#8CCD6B"/>
<path fill-rule="evenodd" clip-rule="evenodd" d="M34.5976 2.19238C34.5976 2.72391 34.5976 3.25523 34.5976 3.78676C34.4159 4.29556 34.2553 4.82709 34.1161 5.38113C33.242 5.19937 32.3595 5.16609 31.468 5.28148C30.9952 5.57066 30.6743 5.93597 30.505 6.37761C30.272 6.79753 30.1916 7.26269 30.2643 7.77269C28.6109 8.07502 27.1262 8.67291 25.8106 9.56636C25.7184 9.45555 25.598 9.38919 25.4495 9.36706C25.2222 8.24024 25.1019 7.11102 25.0884 5.97902C26.7054 5.42697 27.4676 4.43048 27.3754 2.98957C29.7859 2.73826 32.1934 2.47259 34.5976 2.19238Z" fill="#A1F88A"/>
<path fill-rule="evenodd" clip-rule="evenodd" d="M34.1162 5.38119C34.1614 6.53432 34.0011 7.66373 33.6347 8.76923C33.1823 8.93684 32.7008 9.0034 32.1902 8.96853C30.7094 8.53466 30.1478 7.6711 30.5051 6.37767C30.6743 5.93603 30.9952 5.57072 31.468 5.28154C32.3595 5.16615 33.242 5.19943 34.1162 5.38119Z" fill="#6ABD51"/>
<path fill-rule="evenodd" clip-rule="evenodd" d="M21.3569 9.36707C19.6 9.72839 17.9148 10.2597 16.3014 10.9614C16.7547 12.0464 16.5139 13.0096 15.5792 13.8512C15.3509 13.9475 15.1102 13.9806 14.8569 13.9509C15.0011 14.6411 15.2419 15.3053 15.5792 15.9439C15.6593 16.2095 15.7397 16.4754 15.8199 16.741C15.642 16.7149 15.4814 16.7482 15.3384 16.8407C14.939 17.4075 14.4575 17.9057 13.894 18.3354C12.9158 16.0726 11.9127 13.8138 10.8847 11.5593C10.7193 11.1472 10.7595 10.7486 11.0051 10.3636C11.552 9.93486 12.1941 9.63592 12.931 9.46672C15.6429 8.64203 18.3715 7.87812 21.1162 7.1748C21.2953 7.89606 21.3755 8.62668 21.3569 9.36707Z" fill="#8FD563"/>
<path fill-rule="evenodd" clip-rule="evenodd" d="M33.6346 8.76904C33.5513 9.70893 33.3908 10.639 33.1531 11.5592C31.1591 11.6551 29.7146 12.4522 28.8198 13.9508C28.0095 14.0082 27.2069 14.0412 26.4124 14.0504C26.0258 13.2558 25.785 12.4255 25.6902 11.5592C25.6902 11.4263 25.6902 11.2935 25.6902 11.1606C27.0145 10.7399 28.3788 10.3746 29.7828 10.0645C30.4607 9.4608 31.2633 9.09529 32.1902 8.96834C32.7008 9.00322 33.1823 8.93665 33.6346 8.76904Z" fill="#77D86B"/>
<path fill-rule="evenodd" clip-rule="evenodd" d="M34.5975 3.78662C34.4766 4.85047 34.4364 5.91352 34.4771 6.97537C34.5573 6.84244 34.6377 6.70971 34.7179 6.57677C34.7684 6.88728 34.8888 7.15294 35.079 7.37396C35.079 7.70619 35.079 8.03822 35.079 8.37044C34.7439 10.4463 34.3426 12.5059 33.8753 14.5486C33.7267 14.5708 33.6064 14.6371 33.5142 14.7479C32.8704 17.3512 32.5897 17.3512 32.6716 14.7479C32.9106 13.6962 33.0712 12.6334 33.1531 11.5592C33.3907 10.639 33.5512 9.70892 33.6345 8.76904C34.0009 7.66354 34.1613 6.53413 34.116 5.38099C34.2552 4.82695 34.4157 4.29543 34.5975 3.78662Z" fill="#00BAA3"/>
<path fill-rule="evenodd" clip-rule="evenodd" d="M30.505 6.37744C30.1478 7.67088 30.7094 8.53443 32.1902 8.9683C31.2633 9.09525 30.4607 9.46076 29.7828 10.0644C28.3788 10.3745 27.0145 10.7398 25.6902 11.1606C25.722 10.5487 25.6418 9.95083 25.4495 9.36689C25.598 9.38901 25.7184 9.45538 25.8106 9.56619C27.1262 8.67274 28.6109 8.07485 30.2643 7.77252C30.1916 7.26252 30.272 6.79736 30.505 6.37744Z" fill="#84E573"/>
<path fill-rule="evenodd" clip-rule="evenodd" d="M21.3567 9.36694C21.6961 10.205 21.8567 11.0685 21.8382 11.9578C20.8446 11.9847 20.2026 12.3833 19.9122 13.1536C19.7538 13.3325 19.5935 13.5318 19.4308 13.7515C19.1171 13.5087 18.8763 13.5751 18.7085 13.9508C18.4083 14.2509 18.4083 14.5499 18.7085 14.8476C17.6635 15.2348 16.6204 15.6001 15.5789 15.9437C15.2416 15.3052 15.0009 14.6409 14.8567 13.9508C15.1099 13.9805 15.3507 13.9474 15.5789 13.8511C16.5137 13.0095 16.7544 12.0463 16.3011 10.9613C17.9146 10.2596 19.5998 9.72827 21.3567 9.36694Z" fill="#96F57D"/>
<path fill-rule="evenodd" clip-rule="evenodd" d="M33.1531 11.5593C33.0712 12.6335 32.9107 13.6964 32.6716 14.7481C32.3038 16.5784 31.9828 18.4384 31.7086 20.3284C31.2349 20.6901 30.673 20.7898 30.0235 20.6273C27.6572 18.6441 27.2561 16.4186 28.8198 13.9509C29.7146 12.4524 31.159 11.6552 33.1531 11.5593Z" fill="#57B44E"/>
<path fill-rule="evenodd" clip-rule="evenodd" d="M25.4494 11.5592C25.4932 11.9759 25.4128 12.3745 25.2087 12.7549C24.6412 12.9349 24.2801 13.2671 24.1253 13.7514C24.0452 13.6851 23.9648 13.6185 23.8846 13.5521C23.7657 13.8778 23.7257 14.21 23.7642 14.5486C23.6037 13.6185 23.4433 12.6886 23.2828 11.7585C23.1814 10.6221 23.0208 9.49265 22.8013 8.37041C22.9989 7.74442 23.1193 7.07996 23.1624 6.37744C23.5957 6.842 24.0772 6.842 24.6068 6.37744C24.967 8.09877 25.2479 9.82587 25.4494 11.5592Z" fill="#7ABD66"/>
<path fill-rule="evenodd" clip-rule="evenodd" d="M21.8382 11.9578C21.8382 12.0241 21.8382 12.0907 21.8382 12.1571C21.805 13.1364 21.9653 14.0665 22.3197 14.9472C22.3197 15.0136 22.3197 15.0801 22.3197 15.1465C22.3197 15.3458 22.3197 15.5451 22.3197 15.7444C20.4477 15.5874 19.6453 14.7238 19.9123 13.1535C20.2026 12.3833 20.8447 11.9847 21.8382 11.9578Z" fill="#5CBE40"/>
<path fill-rule="evenodd" clip-rule="evenodd" d="M21.8383 12.1572C22.0985 12.7804 22.2588 13.4447 22.3197 14.1502C22.3197 14.4159 22.3197 14.6817 22.3197 14.9474C21.9654 14.0667 21.805 13.1366 21.8383 12.1572Z" fill="#85C971"/>
<path fill-rule="evenodd" clip-rule="evenodd" d="M19.9124 13.1536C19.6454 14.7238 20.4478 15.5874 22.3198 15.7444C22.3596 16.4782 22.3196 17.2089 22.1995 17.9367C22.1193 17.8703 22.0389 17.8038 21.9587 17.7374C20.503 18.3084 19.0183 18.8397 17.505 19.3318C17.2782 19.3102 17.0777 19.2439 16.9032 19.1325C16.6853 18.2681 16.3242 17.4709 15.8198 16.7409C15.7397 16.4752 15.6593 16.2094 15.5791 15.9437C16.6205 15.6001 17.6637 15.2348 18.7087 14.8476C18.4085 14.5498 18.4085 14.2509 18.7087 13.9508C18.8765 13.5751 19.1173 13.5087 19.4309 13.7515C19.5937 13.5318 19.754 13.3325 19.9124 13.1536Z" fill="#72D762"/>
<path fill-rule="evenodd" clip-rule="evenodd" d="M33.8754 14.5488C33.5468 16.3337 33.3061 18.1274 33.1532 19.9298C32.9242 20.2126 32.8441 20.5447 32.9124 20.9263C32.5111 20.9263 32.1101 20.9263 31.7087 20.9263C31.7087 20.727 31.7087 20.5277 31.7087 20.3284C31.9829 18.4385 32.3039 16.5785 32.6717 14.7481C32.5899 17.3513 32.8706 17.3513 33.5143 14.7481C33.6065 14.6373 33.7269 14.571 33.8754 14.5488Z" fill="#00BAA4"/>
<path fill-rule="evenodd" clip-rule="evenodd" d="M25.4494 11.5593C25.5295 11.5593 25.6099 11.5593 25.6901 11.5593C25.7849 12.4257 26.0257 13.2559 26.4123 14.0505C27.2068 14.0414 28.0094 14.0083 28.8197 13.9509C27.2561 16.4186 27.6572 18.6441 30.0234 20.6273C30.6729 20.7898 31.2348 20.6901 31.7086 20.3284C31.7086 20.5277 31.7086 20.727 31.7086 20.9263C29.3012 20.9263 26.8938 20.9263 24.4864 20.9263C24.4864 20.8599 24.4864 20.7933 24.4864 20.727C25.2888 20.727 26.0914 20.727 26.8938 20.727C26.8936 18.9612 26.6126 17.2341 26.0512 15.5453C25.4169 15.7392 24.9354 16.0714 24.6068 16.5417C24.5266 16.4754 24.4462 16.4088 24.366 16.3424C24.2461 16.9367 24.2059 17.5346 24.2457 18.1361C24.0254 16.974 23.8648 15.7782 23.7642 14.5488C23.7257 14.2102 23.7656 13.8779 23.8845 13.5523C23.9647 13.6187 24.0451 13.6852 24.1253 13.7516C24.2801 13.2673 24.6412 12.9351 25.2086 12.7551C25.4128 12.3746 25.4932 11.9761 25.4494 11.5593Z" fill="#5FBB5B"/>
<path fill-rule="evenodd" clip-rule="evenodd" d="M24.4865 20.7269C24.318 19.8703 24.2378 19.0068 24.2458 18.136C24.206 17.5345 24.2462 16.9367 24.3661 16.3424C24.4463 16.4087 24.5267 16.4753 24.6069 16.5416C24.9355 16.0713 25.417 15.7391 26.0513 15.5452C26.6127 17.234 26.8937 18.9611 26.8939 20.7269C26.0915 20.7269 25.2889 20.7269 24.4865 20.7269Z" fill="#4AAE49"/>
<path fill-rule="evenodd" clip-rule="evenodd" d="M23.2828 11.7585C23.4434 12.6887 23.6037 13.6186 23.7643 14.5487C23.8649 15.7782 24.0255 16.9739 24.2457 18.136C24.2378 19.0068 24.318 19.8703 24.4865 20.7269C24.4865 20.7933 24.4865 20.8598 24.4865 20.9262C24.005 20.9262 23.5235 20.9262 23.042 20.9262C22.7707 18.9761 22.53 17.0495 22.3198 15.1466C22.3198 15.0802 22.3198 15.0137 22.3198 14.9473C22.3198 14.6816 22.3198 14.4158 22.3198 14.1501C22.6441 14.2838 22.925 14.2838 23.1624 14.1501C23.2825 13.3557 23.3227 12.5585 23.2828 11.7585Z" fill="#00BAA3"/>
<path fill-rule="evenodd" clip-rule="evenodd" d="M22.3197 15.1465C22.5299 17.0494 22.7706 18.976 23.0419 20.9261C20.5638 20.9962 18.1161 21.2619 15.6994 21.7233C15.4054 21.5694 15.1647 21.3701 14.9771 21.1254C14.6861 20.1702 14.325 19.24 13.8938 18.3352C14.4574 17.9055 14.9389 17.4073 15.3382 16.8405C15.4812 16.748 15.6418 16.7147 15.8197 16.7409C16.3241 17.4709 16.6852 18.2681 16.9031 19.1324C17.0776 19.2438 17.2781 19.3102 17.5049 19.3317C19.0182 18.8397 20.5028 18.3083 21.9586 17.7373C22.0388 17.8037 22.1192 17.8703 22.1993 17.9366C22.3195 17.2088 22.3594 16.4782 22.3197 15.7444C22.3197 15.5451 22.3197 15.3458 22.3197 15.1465Z" fill="#69C257"/>
<path fill-rule="evenodd" clip-rule="evenodd" d="M58.19 16.741C58.0889 17.7398 58.0487 18.7363 58.0696 19.7304C58.4428 19.513 58.7237 19.2473 58.9122 18.9332C58.9122 19.1989 58.9122 19.4648 58.9122 19.7304C58.6809 20.0822 58.6005 20.4808 58.6715 20.9262C58.2702 20.9262 57.8691 20.9262 57.4678 20.9262C57.4678 20.8598 57.4678 20.7933 57.4678 20.7269C57.578 19.3557 57.8188 18.027 58.19 16.741Z" fill="#0E6177"/>
<path fill-rule="evenodd" clip-rule="evenodd" d="M33.0107 18.9191C35.6588 18.9191 38.307 18.9191 40.9551 18.9191C40.3644 19.1425 39.7223 19.3085 39.0292 19.4174C39.3114 19.5009 39.5521 19.6336 39.7514 19.8159C39.1094 20.0816 38.6279 20.4802 38.307 21.0117C36.2022 21.3059 34.3564 22.0365 32.77 23.204C33.14 23.4252 33.3003 23.7242 33.2514 24.1008C32.4062 24.1803 31.6038 24.3133 30.844 24.4994C29.5602 24.4994 28.2761 24.4994 26.9922 24.4994C27.4388 24.1939 27.88 23.8617 28.3163 23.5029C28.8536 22.4138 29.5758 21.4173 30.4829 20.5135C30.6276 19.24 31.4702 18.7085 33.0107 18.9191Z" fill="#3CAD81"/>
<path fill-rule="evenodd" clip-rule="evenodd" d="M50.5846 18.9192C51.5174 18.8365 52.4002 18.9362 53.2327 19.2182C51.9785 20.3861 50.4539 21.2496 48.6587 21.809C48.395 22.5359 47.9136 23.1338 47.2142 23.6027C44.9226 24.0302 42.5956 24.2628 40.2327 24.3003C39.9658 24.1428 39.6448 24.0432 39.2698 24.0013C39.5907 23.9349 39.9118 23.8684 40.2327 23.802C40.759 22.4514 41.8823 21.6542 43.6031 21.4105C44.4358 20.571 45.3988 19.8735 46.492 19.3178C47.8878 19.1931 49.2518 19.0602 50.5846 18.9192Z" fill="#34A58C"/>
<path fill-rule="evenodd" clip-rule="evenodd" d="M33.0105 18.9193C33.0105 18.8529 33.0105 18.7863 33.0105 18.72C41.3562 18.72 49.7018 18.72 58.0475 18.72C58.3891 18.9095 58.7902 18.9759 59.2512 18.9193C59.3518 19.0632 59.5122 19.1628 59.7327 19.2182C59.6525 19.4175 59.5721 19.6168 59.492 19.8161C57.4425 20.2665 55.6769 21.1301 54.1957 22.407C54.3562 22.4733 54.5166 22.5399 54.6771 22.6063C53.9491 22.9078 53.3071 23.3064 52.7512 23.802C51.4117 23.8517 50.1276 24.0177 48.8994 24.3003C48.6606 24.266 48.5002 24.3326 48.4179 24.4996C45.1277 24.4996 41.8377 24.4996 38.5475 24.4996C39.0548 24.3067 39.6167 24.2401 40.2327 24.3003C42.5956 24.2628 44.9226 24.0302 47.2142 23.6027C47.9135 23.1338 48.395 22.5359 48.6586 21.8091C50.4538 21.2496 51.9784 20.3861 53.2327 19.2182C52.4002 18.9362 51.5174 18.8366 50.5846 18.9193C47.3748 18.9193 44.1647 18.9193 40.9549 18.9193C38.3068 18.9193 35.6586 18.9193 33.0105 18.9193Z" fill="#38A694"/>
<path fill-rule="evenodd" clip-rule="evenodd" d="M58.0476 18.72C63.3439 18.72 68.6402 18.72 73.9365 18.72C73.3421 18.8828 72.7003 18.9824 72.0105 19.0189C72.2051 19.0803 72.3656 19.1799 72.492 19.3179C72.2173 19.5022 72.2173 19.6684 72.492 19.8161C72.2361 20.0529 71.915 20.1525 71.5291 20.115C71.3784 20.6761 71.0572 21.1743 70.5661 21.6098C69.9459 21.7656 69.4645 22.0646 69.1217 22.5066C67.6632 22.4897 66.6201 23.0212 65.992 24.101C66.4191 24.2379 66.8204 24.4039 67.1957 24.5992C66.8845 24.6969 66.5633 24.7302 66.2328 24.6989C60.3007 24.5071 54.3623 24.4408 48.418 24.4996C48.5003 24.3326 48.6606 24.266 48.8994 24.3003C51.629 24.3336 54.3575 24.3003 57.0846 24.2006C57.0045 24.1343 56.9241 24.0677 56.8439 24.0013C57.0846 23.935 57.3254 23.8684 57.5661 23.802C57.887 23.6691 57.887 23.5364 57.5661 23.4034C60.2903 22.8243 62.9385 22.2264 65.5105 21.6098C65.0498 21.3282 64.7289 20.9627 64.5476 20.5136C64.9874 20.1176 65.2282 19.6525 65.2698 19.1186C63.2688 18.9711 61.2624 18.9047 59.2513 18.9193C58.7903 18.9759 58.3892 18.9095 58.0476 18.72Z" fill="#329D9F"/>
<path fill-rule="evenodd" clip-rule="evenodd" d="M40.9551 18.9192C44.1649 18.9192 47.3749 18.9192 50.5847 18.9192C49.252 19.0601 47.8879 19.193 46.4921 19.3178C45.3989 19.8734 44.436 20.571 43.6032 21.4104C41.8824 21.6541 40.7591 22.4513 40.2329 23.802C39.912 23.8683 39.5908 23.9349 39.2699 24.0013C39.645 24.0431 39.9659 24.1428 40.2329 24.3002C39.6168 24.24 39.0549 24.3066 38.5477 24.4995C35.9797 24.4995 33.412 24.4995 30.844 24.4995C31.6038 24.3134 32.4062 24.1804 33.2514 24.1009C33.3003 23.7242 33.1399 23.4253 32.7699 23.2041C34.3564 22.0366 36.2022 21.306 38.3069 21.0118C38.6279 20.4803 39.1093 20.0817 39.7514 19.816C39.5521 19.6337 39.3113 19.5009 39.0292 19.4174C39.7223 19.3086 40.3643 19.1426 40.9551 18.9192Z" fill="#37A986"/>
<path fill-rule="evenodd" clip-rule="evenodd" d="M73.9366 18.7197C77.2694 18.6542 80.5594 18.7205 83.807 18.919C81.719 18.886 79.6325 18.919 77.5477 19.0187C77.949 19.0851 78.3501 19.1516 78.7514 19.218C78.0415 20.3339 76.9182 20.9981 75.3811 21.211C74.752 21.6341 74.1904 22.099 73.6959 22.606C71.7396 22.5512 70.2952 23.2155 69.3626 24.599C68.7761 24.5884 68.2145 24.6215 67.6774 24.6986C67.856 24.8555 68.0565 24.9882 68.2792 25.0972C68.6158 24.9874 68.9369 24.9211 69.2422 24.8979C69.3079 25.217 69.4283 25.516 69.6033 25.7948C69.5484 25.8743 69.468 25.9074 69.3626 25.8944C68.3303 25.4333 67.2869 25.0347 66.2329 24.6986C66.5635 24.7299 66.8846 24.6967 67.1959 24.599C66.8206 24.4037 66.4193 24.2377 65.9922 24.1008C66.6203 23.021 67.6634 22.4894 69.1218 22.5064C69.4646 22.0643 69.9461 21.7654 70.5663 21.6096C71.0574 21.1741 71.3785 20.6758 71.5292 20.1148C71.9151 20.1523 72.2363 20.0526 72.4922 19.8159C72.2175 19.6682 72.2175 19.502 72.4922 19.3176C72.3658 19.1797 72.2052 19.0801 72.0107 19.0187C72.7004 18.9822 73.3422 18.8826 73.9366 18.7197Z" fill="#3199A6"/>
<path fill-rule="evenodd" clip-rule="evenodd" d="M59.2513 18.9192C61.2624 18.9046 63.2687 18.971 65.2698 19.1185C65.2281 19.6524 64.9874 20.1176 64.5475 20.5136C64.7288 20.9626 65.0497 21.3281 65.5105 21.6097C62.9384 22.2263 60.2903 22.8242 57.5661 23.4034C57.887 23.5363 57.887 23.669 57.5661 23.802C57.3253 23.8683 57.0846 23.9349 56.8439 24.0013C56.924 24.0676 57.0044 24.1342 57.0846 24.2006C54.3575 24.3002 51.6289 24.3335 48.8994 24.3002C50.1277 24.0176 51.4118 23.8516 52.7513 23.802C53.3071 23.3063 53.9492 22.9077 54.6772 22.6062C54.5166 22.5398 54.3563 22.4733 54.1957 22.4069C55.677 21.13 57.4426 20.2664 59.492 19.816C59.5722 19.6167 59.6526 19.4174 59.7327 19.2181C59.5122 19.1627 59.3519 19.0631 59.2513 18.9192Z" fill="#31A298"/>
<path fill-rule="evenodd" clip-rule="evenodd" d="M82.3624 20.7129C82.1279 21.6225 82.1279 22.5193 82.3624 23.4034C81.8142 23.4448 81.2928 23.6111 80.7976 23.9016C80.385 23.6176 80.064 23.684 79.8346 24.1009C79.6618 23.9114 79.4612 23.8783 79.2328 24.0013C77.746 25.0663 76.3015 26.1624 74.8994 27.2897C75.7524 27.6837 76.6349 27.8166 77.5476 27.6883C77.7934 27.7883 77.8336 27.921 77.668 28.0869C77.0115 28.7308 76.249 29.2621 75.3809 29.6812C74.683 31.2013 73.3989 32.231 71.5291 32.7703C71.6897 32.8367 71.85 32.9033 72.0106 32.9696C71.3685 33.1026 70.7267 33.2353 70.0846 33.3682C69.9508 33.4445 69.8706 33.5442 69.8439 33.6672C69.2822 33.6672 68.7204 33.6672 68.1587 33.6672C68.132 33.5442 68.0518 33.4445 67.918 33.3682C69.3013 32.1605 70.9063 31.164 72.7328 30.3788C73.5031 29.5858 74.3055 28.7886 75.1402 27.9872C74.5376 27.7441 73.8958 27.6777 73.2143 27.7879C72.747 27.426 72.5864 27.0274 72.7328 26.5921C72.1548 26.4317 72.195 26.2657 72.8531 26.0939C72.9892 25.1375 73.5511 24.4068 74.5383 23.9016C74.6185 24.0346 74.6989 24.1673 74.7791 24.3002C75.2177 23.5022 75.9801 23.0704 77.0661 23.0048C77.239 22.6088 77.4797 22.2433 77.7883 21.9087C78.8895 21.427 80.0128 20.9951 81.1587 20.6132C81.5836 20.4857 81.9849 20.519 82.3624 20.7129Z" fill="#2C92B1"/>
<path fill-rule="evenodd" clip-rule="evenodd" d="M18.8069 18.9192C23.4996 18.7205 28.2343 18.6541 33.0106 18.7199C33.0106 18.7862 33.0106 18.8528 33.0106 18.9192C31.4701 18.7085 30.6275 19.24 30.4828 20.5135C29.5757 21.4173 28.8535 22.4138 28.3161 23.503C27.8799 23.8617 27.4386 24.1939 26.9921 24.4995C23.698 25.1027 21.13 26.5644 19.2884 28.884C18.6718 28.4501 18.6718 28.0182 19.2884 27.5886C19.1783 27.5061 19.0979 27.4064 19.0476 27.2896C19.4179 26.8739 19.9795 26.4753 20.7328 26.0938C20.4172 25.9428 20.2968 25.7435 20.3717 25.4959C22.3138 24.4761 23.4773 23.0147 23.8624 21.1114C24.193 21.1427 24.5141 21.1094 24.8254 21.0118C24.6997 20.9 24.6196 20.767 24.5847 20.6132C24.9275 20.1345 25.088 19.6695 25.0661 19.2181C22.9924 18.9596 20.9059 18.86 18.8069 18.9192Z" fill="#58BB82"/>
<path fill-rule="evenodd" clip-rule="evenodd" d="M18.5661 19.1184C18.5661 18.9855 18.6462 18.9191 18.8068 18.9191C20.9058 18.8599 22.9923 18.9596 25.0661 19.2181C25.088 19.6695 24.9274 20.1344 24.5846 20.6132C24.6195 20.767 24.6997 20.8999 24.8253 21.0117C24.514 21.1094 24.1929 21.1427 23.8624 21.1114C23.2124 21.0574 22.5703 20.991 21.9364 20.9121C21.7905 22.1647 21.2289 23.2608 20.2513 24.2005C20.3314 24.2669 20.4118 24.3334 20.492 24.3998C18.4329 26.0384 16.3866 27.6661 14.3531 29.2826C13.1708 30.9262 11.646 32.3212 9.77904 33.4678C8.27153 35.281 6.62655 37.0081 4.84386 38.6495C3.15844 39.8128 1.67379 41.1415 0.390163 42.6354C0.29796 42.5246 0.17759 42.4583 0.0290527 42.4361C0.0290527 41.2404 0.0290527 40.0446 0.0290527 38.8488C0.185775 38.9666 0.346349 39.0993 0.510534 39.2474C0.845644 39.0272 1.12659 38.7613 1.35313 38.4502C1.70413 38.6987 2.06524 38.6987 2.43646 38.4502C3.06864 37.9872 3.7107 37.5221 4.36238 37.0551C8.90877 32.5919 13.6032 28.2074 18.4457 23.9015C19.3398 22.8006 19.7009 21.6049 19.529 20.3142C19.7741 20.0448 20.095 19.8455 20.492 19.7163C20.2173 19.532 20.2173 19.3658 20.492 19.2181C19.855 19.119 19.2129 19.0857 18.5661 19.1184Z" fill="#66C37F"/>
<path fill-rule="evenodd" clip-rule="evenodd" d="M15.1958 19.5171C15.6048 19.4852 16.0061 19.5183 16.3995 19.6168C16.1713 19.713 15.9305 19.7461 15.6773 19.7164C15.5829 20.2437 15.5829 20.742 15.6773 21.2111C15.2759 21.6761 14.8749 22.1412 14.4735 22.6062C14.5537 22.6726 14.6341 22.7391 14.7143 22.8055C13.266 24.6053 11.6208 26.2994 9.77911 27.8876C8.68543 29.4911 7.28119 30.8862 5.56615 32.0728C5.20504 32.5378 4.84393 33.0029 4.48282 33.4679C4.16528 33.8639 3.724 34.0965 3.15875 34.1654C2.42714 34.904 1.62475 35.6015 0.751341 36.258C0.610267 36.2164 0.489897 36.1498 0.39023 36.0587C0.270101 35.131 0.229897 34.2011 0.26986 33.2686C0.198841 32.8231 0.279249 32.4246 0.5106 32.0728C0.472082 32.4114 0.512045 32.7436 0.630971 33.0693C2.46854 31.05 4.43443 29.1236 6.52911 27.2897C7.07824 26.8805 7.68009 26.5483 8.33467 26.2932C9.54366 24.5595 10.9079 22.8988 12.4273 21.3108C12.5462 20.9851 12.5861 20.6529 12.5476 20.3143C12.3069 20.3143 12.0661 20.3143 11.8254 20.3143C12.8784 19.9255 14.0017 19.6598 15.1958 19.5171Z" fill="#7DCD79"/>
<path fill-rule="evenodd" clip-rule="evenodd" d="M84.2884 19.1186C84.437 19.1407 84.5573 19.2071 84.6495 19.3179C84.7699 21.0438 84.8099 22.7711 84.7699 24.4996C84.6897 24.4996 84.6093 24.4996 84.5292 24.4996C84.565 24.2899 84.5251 24.0906 84.4088 23.9017C84.3286 24.2339 84.2482 24.5659 84.1681 24.8982C84.078 24.7156 83.9576 24.5494 83.8069 24.3999C83.2831 24.3674 82.8418 24.2014 82.4829 23.9017C82.3625 24.101 82.2421 24.3003 82.1218 24.4996C81.081 25.1302 80.0377 25.7611 78.9921 26.3929C77.8385 26.7154 76.7152 26.9812 75.6218 27.1901C76.4586 27.44 77.3411 27.5729 78.2699 27.5887C77.9969 27.7912 78.0771 27.9241 78.5107 27.9873C77.6815 28.6073 77.1599 29.3712 76.9458 30.2792C75.4997 30.7144 74.7373 31.578 74.6588 32.87C73.8612 32.9787 73.0588 33.0783 72.2514 33.169C72.3316 33.2354 72.412 33.3019 72.4921 33.3683C72.0391 33.4077 71.638 33.5074 71.2884 33.6672C70.807 33.6672 70.3255 33.6672 69.844 33.6672C69.8707 33.5443 69.9509 33.4446 70.0847 33.3683C70.7268 33.2354 71.3686 33.1026 72.0107 32.9697C71.8501 32.9033 71.6898 32.8368 71.5292 32.7704C73.399 32.2311 74.6831 31.2013 75.381 29.6813C76.2491 29.2622 77.0116 28.7308 77.6681 28.0869C77.8337 27.9211 77.7935 27.7884 77.5477 27.6883C76.635 27.8167 75.7525 27.6837 74.8995 27.2897C76.3016 26.1625 77.7461 25.0664 79.2329 24.0013C79.4613 23.8784 79.6619 23.9115 79.8347 24.101C80.0642 23.6841 80.3851 23.6177 80.7977 23.9017C81.2929 23.6111 81.8143 23.4449 82.3625 23.4035C82.128 22.5194 82.128 21.6225 82.3625 20.7129C82.2778 19.5425 82.9198 19.011 84.2884 19.1186Z" fill="#2C8FB4"/>
<path fill-rule="evenodd" clip-rule="evenodd" d="M18.5663 19.1185C19.2131 19.0858 19.8552 19.1191 20.4922 19.2182C20.2175 19.3658 20.2175 19.5321 20.4922 19.7164C20.0952 19.8455 19.7743 20.0448 19.5292 20.3143C19.7011 21.6049 19.34 22.8007 18.4459 23.9016C13.6034 28.2074 8.90896 32.592 4.36258 37.0552C3.71089 37.5222 3.06884 37.9873 2.43665 38.4503C2.06543 38.6988 1.70432 38.6988 1.35332 38.4503C1.12678 38.7614 0.845841 39.0273 0.51073 39.2475C0.346545 39.0994 0.185971 38.9667 0.0292488 38.8489C-0.0494734 36.9526 0.0306932 35.0925 0.269989 33.2686C0.230026 34.2011 0.27023 35.131 0.39036 36.0587C0.490026 36.1498 0.610396 36.2164 0.75147 36.258C1.62488 35.6015 2.42726 34.904 3.15888 34.1654C3.72413 34.0965 4.16541 33.8639 4.48295 33.4679C4.84406 33.0029 5.20517 32.5378 5.56628 32.0728C7.28132 30.8862 8.68556 29.4911 9.77924 27.8876C11.6209 26.2994 13.2661 24.6053 14.7144 22.8055C14.6343 22.7391 14.5538 22.6726 14.4737 22.6062C14.875 22.1412 15.2761 21.6761 15.6774 21.2111C15.583 20.742 15.583 20.2437 15.6774 19.7164C15.9306 19.7461 16.1714 19.713 16.3996 19.6168C16.0062 19.5183 15.6049 19.4852 15.1959 19.5171C16.2506 19.1761 17.3739 19.0434 18.5663 19.1185Z" fill="#71C77D"/>
<path fill-rule="evenodd" clip-rule="evenodd" d="M26.9921 24.4995C28.276 24.4995 29.5601 24.4995 30.8439 24.4995C33.4119 24.4995 35.9797 24.4995 38.5476 24.4995C41.8378 24.4995 45.1278 24.4995 48.418 24.4995C54.3624 24.4407 60.3007 24.507 66.2328 24.6988C67.2868 25.0348 68.3301 25.4334 69.3624 25.8945C70.2284 26.3442 71.031 26.8757 71.7698 27.4889C68.7204 27.6219 65.6712 27.7546 62.6217 27.8875C57.122 28.7865 53.9119 31.5101 52.9921 36.0587C52.7545 37.0163 52.6741 38.0128 52.7513 39.0481C52.6777 39.6231 52.7578 40.1546 52.9921 40.6425C53.2056 41.4235 53.5268 42.1542 53.955 42.8348C54.2918 43.858 54.9336 44.7215 55.881 45.4256C56.8172 46.5985 58.1013 47.3957 59.7328 47.8172C59.7328 47.8835 59.7328 47.9501 59.7328 48.0165C59.6647 48.1737 59.5443 48.3067 59.3717 48.4151C59.33 49.2204 59.2097 50.0176 59.0106 50.8066C58.8695 50.765 58.7491 50.6984 58.6495 50.6073C58.6093 50.8399 58.5693 51.0723 58.5291 51.3049C58.819 51.9022 59.0195 52.5333 59.131 53.1982C59.0433 54.9086 59.0835 56.5693 59.2513 58.1806C58.8105 58.2906 58.4095 58.2906 58.0476 58.1806C57.8343 58.345 57.7542 58.5443 57.8069 58.7785C50.4265 58.9834 40.1548 59.0497 26.9921 58.9778C25.7824 58.9375 24.6588 58.6717 23.6217 58.1806C23.1807 58.0315 22.7794 57.8322 22.418 57.5827C21.3715 56.9155 20.4887 56.1183 19.7699 55.1912C19.5291 54.7926 19.2884 54.394 19.0477 53.9954C18.6531 53.0268 18.4123 52.0303 18.3254 51.0059C18.3254 44.8277 18.3254 38.6495 18.3254 32.4713C18.338 31.7343 18.4184 31.0035 18.5662 30.2791C18.8637 29.8508 19.1045 29.3858 19.2884 28.884C21.1301 26.5644 23.698 25.1027 26.9921 24.4995Z" fill="#FBFDFB"/>
<path fill-rule="evenodd" clip-rule="evenodd" d="M11.8256 20.3142C12.0663 20.3142 12.307 20.3142 12.5478 20.3142C12.5863 20.6528 12.5463 20.985 12.4274 21.3107C10.9081 22.8987 9.54382 24.5594 8.33482 26.2931C7.68025 26.5482 7.0784 26.8804 6.52927 27.2896C4.43458 29.1235 2.4687 31.0499 0.631124 33.0692C0.512198 32.7435 0.472235 32.4113 0.510754 32.0727C1.58085 26.3862 5.35229 22.4666 11.8256 20.3142Z" fill="#88D176"/>
<path fill-rule="evenodd" clip-rule="evenodd" d="M84.5291 24.4995C84.6215 25.4635 84.4609 26.3934 84.0476 27.2897C83.0574 27.6849 82.0143 27.9838 80.918 28.1865C79.6411 29.7737 78.1966 31.2351 76.5846 32.571C75.6301 33.1669 74.587 33.5324 73.455 33.6671C72.7328 33.6671 72.0106 33.6671 71.2883 33.6671C71.6379 33.5073 72.039 33.4077 72.492 33.3682C72.4119 33.3018 72.3315 33.2353 72.2513 33.1689C73.0587 33.0782 73.8611 32.9786 74.6587 32.87C74.7372 31.5779 75.4996 30.7144 76.9457 30.2791C77.1598 29.3711 77.6814 28.6072 78.5105 27.9872C78.077 27.924 77.9968 27.7911 78.2698 27.5886C77.341 27.5729 76.4585 27.4399 75.6217 27.19C76.7151 26.9811 77.8384 26.7153 78.992 26.3928C80.0376 25.761 81.0809 25.1301 82.1217 24.4995C82.242 24.3002 82.3624 24.1009 82.4828 23.9016C82.8417 24.2014 83.283 24.3674 83.8068 24.3999C83.9575 24.5493 84.0779 24.7155 84.1679 24.8981C84.2481 24.5659 84.3285 24.2338 84.4087 23.9016C84.525 24.0905 84.5649 24.2898 84.5291 24.4995Z" fill="#2A8CB9"/>
<path fill-rule="evenodd" clip-rule="evenodd" d="M83.8068 18.9191C84.0456 18.8849 84.206 18.9514 84.2883 19.1184C82.9197 19.0108 82.2776 19.5423 82.3624 20.7128C81.9849 20.5189 81.5836 20.4856 81.1587 20.6132C80.0128 20.995 78.8895 21.4269 77.7883 21.9086C77.4797 22.2432 77.2389 22.6087 77.0661 23.0047C75.9801 23.0703 75.2177 23.5022 74.7791 24.3001C74.6989 24.1672 74.6185 24.0345 74.5383 23.9016C73.551 24.4068 72.9892 25.1374 72.8531 26.0938C72.195 26.2656 72.1547 26.4316 72.7328 26.5921C72.5864 27.0273 72.747 27.4259 73.2142 27.7878C73.8958 27.6776 74.5376 27.744 75.1402 27.9871C74.3055 28.7885 73.5031 29.5857 72.7328 30.3787C70.9063 31.1639 69.3013 32.1604 67.918 33.3681C68.0518 33.4445 68.132 33.5441 68.1587 33.6671C67.0352 33.6671 65.9119 33.6671 64.7883 33.6671C65.9672 32.4843 67.4921 31.4545 69.3624 30.578C70.3095 29.8801 71.1119 29.1162 71.7698 28.2861C71.7799 28.0162 71.7799 27.7504 71.7698 27.4889C71.031 26.8757 70.2283 26.3441 69.3624 25.8945C69.4678 25.9075 69.5483 25.8744 69.6031 25.7949C69.4281 25.5161 69.3078 25.2171 69.242 24.898C68.9368 24.9212 68.6156 24.9875 68.2791 25.0973C68.0564 24.9883 67.8558 24.8556 67.6772 24.6987C68.2143 24.6216 68.776 24.5885 69.3624 24.5991C70.295 23.2156 71.7395 22.5513 73.6957 22.6061C74.1902 22.0991 74.7519 21.6342 75.3809 21.2111C76.918 20.9982 78.0413 20.3339 78.7513 19.2181C78.35 19.1517 77.9489 19.0852 77.5476 19.0188C79.6324 18.9191 81.7189 18.8861 83.8068 18.9191Z" fill="#2D95AB"/>
<path fill-rule="evenodd" clip-rule="evenodd" d="M84.5291 24.4995C84.6093 24.4995 84.6897 24.4995 84.7699 24.4995C84.7699 25.2303 84.7699 25.961 84.7699 26.6918C84.4408 27.6526 84.1598 28.6491 83.9273 29.6812C83.5197 29.9856 83.0782 30.2512 82.6032 30.4784C82.03 30.3124 81.4684 30.3788 80.918 30.6777C79.9298 31.3746 79.0472 32.1718 78.2699 33.0693C77.7648 33.1603 77.3637 33.3596 77.0662 33.6672C75.8625 33.6672 74.6588 33.6672 73.4551 33.6672C74.587 33.5324 75.6302 33.1669 76.5847 32.571C78.1967 31.2351 79.6411 29.7737 80.918 28.1865C82.0144 27.9838 83.0575 27.6849 84.0477 27.2897C84.461 26.3934 84.6216 25.4635 84.5291 24.4995Z" fill="#2987BE"/>
<path fill-rule="evenodd" clip-rule="evenodd" d="M62.6217 27.8875C62.0988 28.1469 61.5369 28.3793 60.9365 28.585C61.8766 29.0782 61.8766 29.6098 60.9365 30.1794C57.6516 31.5031 55.2844 33.5293 53.8347 36.2579C53.6741 36.5236 53.5138 36.5236 53.3532 36.2579C53.0915 36.7426 52.9711 36.676 52.9921 36.0586C53.9119 31.5101 57.122 28.7865 62.6217 27.8875Z" fill="#36A596"/>
<path fill-rule="evenodd" clip-rule="evenodd" d="M84.7699 26.6917C84.7699 28.1531 84.7699 29.6147 84.7699 31.0762C84.4177 31.6149 84.2171 32.2128 84.168 32.8698C83.4896 32.7447 82.8475 32.5454 82.2421 32.272C81.4175 32.4894 80.8157 32.9213 80.4365 33.5674C79.8096 33.6451 79.2478 33.8113 78.7513 34.0656C78.2749 33.7332 77.7133 33.6005 77.0662 33.667C77.3637 33.3595 77.7648 33.1602 78.2699 33.0691C79.0472 32.1717 79.9298 31.3745 80.918 30.6776C81.4683 30.3786 82.03 30.3123 82.6032 30.4783C83.0782 30.2511 83.5197 29.9854 83.9273 29.6811C84.1598 28.6489 84.4408 27.6525 84.7699 26.6917Z" fill="#2983C3"/>
<path fill-rule="evenodd" clip-rule="evenodd" d="M23.8624 21.1114C23.4772 23.0147 22.3137 24.4761 20.3716 25.4959C20.2968 25.7435 20.4171 25.9428 20.7327 26.0938C19.9795 26.4753 19.4178 26.8739 19.0476 27.2896C19.0979 27.4064 19.1783 27.506 19.2883 27.5885C18.6718 28.0182 18.6718 28.4501 19.2883 28.884C19.1044 29.3858 18.8636 29.8508 18.5661 30.2791C18.4043 30.1262 18.2038 29.9933 17.9642 29.8805C17.762 30.4712 17.5213 30.5375 17.242 30.0798C15.462 31.322 13.9776 32.7836 12.7883 34.4643C12.984 34.7262 13.2248 34.9587 13.5105 35.1618C12.548 35.8932 11.8258 36.757 11.3439 37.7527C7.39571 39.7843 3.62427 42.0099 0.0290527 44.4291C0.0290527 43.7649 0.0290527 43.1004 0.0290527 42.4362C0.17759 42.4583 0.29796 42.5246 0.390163 42.6355C1.67379 41.1415 3.15844 39.8128 4.84386 38.6495C6.62655 37.0081 8.27153 35.281 9.77904 33.4678C11.646 32.3212 13.1708 30.9262 14.3531 29.2826C16.3866 27.6661 18.4329 26.0384 20.492 24.3998C20.4118 24.3334 20.3314 24.2669 20.2513 24.2005C21.2289 23.2608 21.7905 22.1647 21.9364 20.9121C22.5703 20.991 23.2124 21.0574 23.8624 21.1114Z" fill="#5BC082"/>
<path fill-rule="evenodd" clip-rule="evenodd" d="M84.7697 31.0762C84.7697 31.7404 84.7697 32.4049 84.7697 33.0691C84.6361 34.0144 84.3552 34.9443 83.9271 35.8593C83.6062 35.8593 83.2851 35.8593 82.9642 35.8593C82.6298 35.5151 82.2285 35.2492 81.7605 35.0621C81.0963 35.4368 80.3741 35.7024 79.5938 35.8593C79.4332 35.0621 79.2729 35.0621 79.1123 35.8593C79.0565 35.6128 78.9361 35.4135 78.7512 35.2614C78.7512 34.8628 78.7512 34.4642 78.7512 34.0656C79.2476 33.8113 79.8095 33.6451 80.4364 33.5674C80.8156 32.9213 81.4174 32.4894 82.242 32.272C82.8474 32.5454 83.4895 32.7447 84.1679 32.8698C84.217 32.2128 84.4175 31.6149 84.7697 31.0762Z" fill="#287ECA"/>
<path fill-rule="evenodd" clip-rule="evenodd" d="M23.6217 32.4715C27.3941 32.4382 31.1658 32.4715 34.9365 32.5711C34.6317 32.6327 34.3508 32.7323 34.0939 32.8701C34.1606 33.3944 34.1204 33.8927 33.9735 34.3648C34.455 34.6304 34.9365 34.8963 35.418 35.162C31.4867 35.2616 27.5547 35.2949 23.6217 35.2616C22.4464 34.6825 22.1654 33.8853 22.7791 32.8701C22.9755 32.6064 23.2565 32.4737 23.6217 32.4715Z" fill="#C5E2E7"/>
<path fill-rule="evenodd" clip-rule="evenodd" d="M23.6218 32.4714C32.0872 32.2394 40.5936 32.2061 49.1403 32.3718C50.4309 32.8951 50.6717 33.659 49.8625 34.6637C49.506 34.859 49.1849 35.0916 48.8996 35.3612C40.433 35.5268 32.0071 35.4935 23.6218 35.2616C27.5548 35.2948 31.4868 35.2616 35.4181 35.1619C34.9366 34.8962 34.4551 34.6304 33.9737 34.3647C34.1205 33.8926 34.1607 33.3943 34.094 32.87C34.3509 32.7323 34.6319 32.6326 34.9366 32.571C31.1659 32.4714 27.3942 32.4381 23.6218 32.4714Z" fill="#E0EDF2"/>
<path fill-rule="evenodd" clip-rule="evenodd" d="M62.6217 27.8874C64.2286 27.8543 65.8336 27.8874 67.4365 27.987C66.4735 28.0534 65.5106 28.12 64.5476 28.1863C64.3531 28.2477 64.1925 28.3474 64.0661 28.4853C63.0329 29.8535 62.2305 31.3149 61.6587 32.8698C61.436 33.0972 61.2352 33.0972 61.0569 32.8698C60.775 33.2861 60.454 33.6847 60.0939 34.0656C59.8739 33.8356 59.6733 33.8689 59.492 34.1652C59.5722 34.2316 59.6526 34.2982 59.7328 34.3645C59.4417 34.9698 59.241 35.601 59.1309 36.2579C58.6877 35.6305 58.1261 35.6305 57.4458 36.2579C57.3656 36.1915 57.2852 36.1249 57.205 36.0586C56.4219 36.4657 55.6595 36.8976 54.918 37.354C54.6067 37.4516 54.2856 37.4849 53.955 37.4536C53.9902 37.9403 53.7896 38.0733 53.3532 37.8522C53.3527 38.3606 53.1519 38.7592 52.7513 39.048C52.674 38.0127 52.7544 37.0162 52.9921 36.0586C52.9711 36.676 53.0915 36.7425 53.3532 36.2579C53.5137 36.5235 53.6741 36.5235 53.8346 36.2579C55.2844 33.5293 57.6516 31.503 60.9365 30.1793C61.8766 29.6097 61.8766 29.0782 60.9365 28.5849C61.5369 28.3793 62.0988 28.1469 62.6217 27.8874Z" fill="#309E9D"/>
<path fill-rule="evenodd" clip-rule="evenodd" d="M18.0847 35.0621C18.0847 36.2579 18.0847 37.4536 18.0847 38.6494C17.83 38.8687 17.6293 39.1345 17.4829 39.4466C17.4027 38.7824 17.3223 38.1179 17.2422 37.4536C17.1952 38.4338 17.0748 39.397 16.881 40.3435C15.8461 40.5958 14.8027 40.8283 13.7514 41.041C12.8077 41.7957 11.9252 42.5929 11.1033 43.4326C8.91325 44.7342 6.74659 46.0296 4.60328 47.3188C4.24722 48.0778 3.64537 48.6426 2.79772 49.0129C2.42072 48.9011 2.09982 49.034 1.83476 49.4115C1.60582 49.3349 1.40528 49.2686 1.23291 49.2122C1.73245 48.5852 2.17372 47.9209 2.55698 47.2192C4.64348 45.4919 6.72974 43.7648 8.81624 42.0375C9.61501 40.5964 10.6581 39.4669 11.9459 38.6494C12.6178 38.2909 13.1395 37.8257 13.5107 37.2544C13.4305 37.1214 13.3501 36.9887 13.2699 36.8558C14.5923 36.1419 15.9566 35.4776 17.3625 34.8628C17.5546 35.1773 17.675 35.5093 17.7236 35.8593C17.7742 35.5488 17.8946 35.2831 18.0847 35.0621Z" fill="#3DB381"/>
<path fill-rule="evenodd" clip-rule="evenodd" d="M84.7697 33.0693C84.7697 33.9329 84.7697 34.7966 84.7697 35.6602C84.5848 35.8123 84.4645 36.0116 84.4086 36.2581C84.1407 36.0167 83.8597 36.0167 83.566 36.2581C82.5754 37.4447 81.3317 38.3746 79.8346 39.0482C79.6487 39.0193 79.4881 38.953 79.3531 38.8489C79.3105 39.6174 79.1901 40.3482 78.992 41.0412C79.0656 40.4662 78.9855 39.9347 78.7512 39.4468C78.7512 38.0518 78.7512 36.6567 78.7512 35.2616C78.9361 35.4137 79.0565 35.613 79.1123 35.8595C79.2729 35.0623 79.4332 35.0623 79.5938 35.8595C80.3741 35.7026 81.0963 35.437 81.7605 35.0623C82.2285 35.2494 82.6298 35.5153 82.9642 35.8595C83.2851 35.8595 83.6062 35.8595 83.9271 35.8595C84.3552 34.9445 84.6361 34.0146 84.7697 33.0693Z" fill="#2678D0"/>
<path fill-rule="evenodd" clip-rule="evenodd" d="M64.7884 33.6671C65.9119 33.6671 67.0352 33.6671 68.1587 33.6671C68.7204 33.6671 69.2823 33.6671 69.8439 33.6671C70.3254 33.6671 70.8069 33.6671 71.2884 33.6671C72.0106 33.6671 72.7328 33.6671 73.455 33.6671C74.6587 33.6671 75.8624 33.6671 77.0661 33.6671C77.7132 33.6005 78.2749 33.7332 78.7513 34.0657C78.7513 34.4643 78.7513 34.8628 78.7513 35.2614C78.7513 36.6565 78.7513 38.0516 78.7513 39.4467C78.8214 40.7267 78.7412 41.9889 78.5106 43.2333C78.4304 43.2333 78.35 43.2333 78.2698 43.2333C73.2143 43.2333 68.1587 43.2333 63.1032 43.2333C62.3169 42.9248 61.5145 42.5926 60.6958 42.2368C60.1515 41.6658 59.67 41.0679 59.2513 40.4432C59.0948 40.0575 59.0147 39.6589 59.0106 39.2474C58.8043 38.0167 59.0852 36.8873 59.8532 35.8593C61.0453 34.4194 62.6903 33.6886 64.7884 33.6671Z" fill="#F3F7F8"/>
<path fill-rule="evenodd" clip-rule="evenodd" d="M71.7698 27.489C71.7799 27.7505 71.7799 28.0164 71.7698 28.2862C71.1119 29.1163 70.3095 29.8802 69.3624 30.5781C67.4921 31.4546 65.9672 32.4844 64.7883 33.6672C62.6903 33.6887 61.0453 34.4196 59.8532 35.8595C59.0852 36.8874 58.8042 38.0169 59.0106 39.2475C58.8502 38.6779 58.6897 38.08 58.5291 37.4538C58.3502 37.7345 58.1494 38.0001 57.9272 38.251C57.811 38.0621 57.771 37.8628 57.8069 37.6531C57.4886 37.687 57.2077 37.6207 56.9643 37.4538C56.4775 37.9724 55.956 38.4707 55.3995 38.9486C54.6089 39.0781 53.8866 39.3105 53.2328 39.6461C53.3012 40.0278 53.221 40.3598 52.992 40.6426C52.7578 40.1547 52.6776 39.6232 52.7513 39.0482C53.1519 38.7594 53.3527 38.3608 53.3532 37.8524C53.7896 38.0735 53.9902 37.9405 53.955 37.4538C54.2855 37.4851 54.6067 37.4519 54.918 37.3542C55.6595 36.8978 56.4219 36.4659 57.205 36.0588C57.2852 36.1251 57.3656 36.1917 57.4457 36.2581C58.1261 35.6307 58.6877 35.6307 59.1309 36.2581C59.241 35.6012 59.4417 34.97 59.7328 34.3647C59.6526 34.2984 59.5722 34.2318 59.492 34.1655C59.6733 33.8691 59.8739 33.8358 60.0939 34.0658C60.454 33.6849 60.7749 33.2864 61.0569 32.87C61.2352 33.0974 61.436 33.0974 61.6587 32.87C62.2305 31.3151 63.0329 29.8537 64.0661 28.4855C64.1925 28.3476 64.3531 28.2479 64.5476 28.1866C65.5106 28.1202 66.4735 28.0536 67.4365 27.9873C65.8336 27.8876 64.2286 27.8545 62.6217 27.8876C65.6711 27.7547 68.7203 27.6219 71.7698 27.489Z" fill="#339CA5"/>
<path fill-rule="evenodd" clip-rule="evenodd" d="M18.5661 30.279C18.4183 31.0034 18.3379 31.7342 18.3253 32.4712C18.0882 33.2951 18.008 34.1589 18.0846 35.0621C17.8944 35.2831 17.774 35.5488 17.7235 35.8593C17.6749 35.5093 17.5545 35.1773 17.3624 34.8628C15.9564 35.4776 14.5922 36.1419 13.2698 36.8558C13.3499 36.9887 13.4304 37.1214 13.5105 37.2543C13.1393 37.8257 12.6176 38.2909 11.9457 38.6494C10.658 39.4669 9.61486 40.5964 8.81608 42.0375C6.72958 43.7648 4.64333 45.4919 2.55683 47.2192C2.17357 47.9209 1.73229 48.5852 1.23276 49.2121C0.680256 49.9171 0.399552 50.7142 0.390164 51.6037C0.345386 51.0983 0.225016 50.6333 0.0290527 50.2086C0.0290527 48.282 0.0290527 46.3556 0.0290527 44.429C3.62427 42.0098 7.39571 39.7842 11.3439 37.7526C11.8258 36.7569 12.548 35.8932 13.5105 35.1617C13.2248 34.9586 12.984 34.7261 12.7883 34.4642C13.9776 32.7835 15.462 31.3219 17.242 30.0797C17.5213 30.5375 17.762 30.4711 17.9642 29.8804C18.2038 29.9932 18.4043 30.1261 18.5661 30.279Z" fill="#45B880"/>
<path fill-rule="evenodd" clip-rule="evenodd" d="M18.0846 38.6496C18.0846 40.3104 18.0846 41.9713 18.0846 43.6321C17.8944 43.8531 17.774 44.1187 17.7235 44.4292C17.6226 44.1957 17.4623 43.9964 17.242 43.8314C16.0732 44.0316 14.9097 44.2642 13.7513 44.5289C13.2204 45.0351 12.6186 45.467 11.9457 45.8243C11.8017 46.7076 11.1999 47.2389 10.1402 47.4187C9.81901 48.127 9.25712 48.6252 8.45497 48.9134C8.08399 49.2281 7.80305 49.5936 7.61238 50.0095C6.72669 50.4594 5.96451 51.024 5.32534 51.7036C4.39657 52.0256 3.55398 52.4575 2.79757 52.999C2.37651 52.8398 2.05561 52.9727 1.83461 53.3976C1.54163 53.221 1.22048 53.0217 0.871644 52.7997C0.751756 53.2071 0.470812 53.4729 0.0290527 53.5969C0.0290527 52.4675 0.0290527 51.3383 0.0290527 50.2088C0.225016 50.6335 0.345386 51.0985 0.390163 51.6039C0.399552 50.7145 0.680256 49.9173 1.23276 49.2124C1.40513 49.2688 1.60566 49.3351 1.83461 49.4117C2.09966 49.0342 2.42057 48.9013 2.79757 49.0131C3.64522 48.6428 4.24707 48.078 4.60312 47.319C6.74644 46.0298 8.9131 44.7344 11.1031 43.4328C11.925 42.5931 12.8076 41.7959 13.7513 41.0412C14.8026 40.8285 15.8459 40.596 16.8809 40.3437C17.0747 39.3972 17.1951 38.434 17.242 37.4539C17.3222 38.1181 17.4026 38.7826 17.4827 39.4468C17.6291 39.1347 17.8299 38.8689 18.0846 38.6496Z" fill="#3CB086"/>
<path fill-rule="evenodd" clip-rule="evenodd" d="M59.0107 39.2475C59.0148 39.6591 59.095 40.0577 59.2514 40.4433C57.3219 40.0573 55.6767 40.5224 54.3163 41.8384C54.2361 41.772 54.1557 41.7055 54.0755 41.6391C53.7286 41.9988 53.6884 42.3974 53.9551 42.8349C53.5269 42.1543 53.2057 41.4236 52.9922 40.6426C53.2211 40.3598 53.3013 40.0278 53.2329 39.6461C53.8868 39.3105 54.609 39.0781 55.3996 38.9486C55.9562 38.4707 56.4776 37.9724 56.9644 37.4539C57.2078 37.6207 57.4887 37.687 57.807 37.6532C57.7711 37.8628 57.8111 38.0621 57.9274 38.251C58.1496 38.0001 58.3503 37.7345 58.5292 37.4539C58.6898 38.08 58.8504 38.6779 59.0107 39.2475Z" fill="#3197AB"/>
<path fill-rule="evenodd" clip-rule="evenodd" d="M84.7697 35.6602C84.7697 36.8559 84.7697 38.0517 84.7697 39.2475C84.5738 39.6722 84.4534 40.1372 84.4086 40.6426C84.3284 40.3769 84.248 40.111 84.1679 39.8454C84.0516 40.0343 84.0116 40.2336 84.0475 40.4433C83.2107 40.4421 82.7292 40.7741 82.6031 41.4398C82.2826 40.7691 81.8413 40.7028 81.279 41.2405C80.7912 41.137 80.3098 41.0705 79.8345 41.0412C79.7582 41.4001 79.5976 41.4665 79.3531 41.2405C79.1169 42.5088 78.9965 42.4424 78.9919 41.0412C79.1901 40.3482 79.3104 39.6174 79.3531 38.8489C79.4881 38.9529 79.6487 39.0193 79.8345 39.0482C81.3317 38.3746 82.5754 37.4447 83.566 36.258C83.8597 36.0167 84.1407 36.0167 84.4086 36.258C84.4645 36.0115 84.5848 35.8122 84.7697 35.6602Z" fill="#2773D5"/>
<path fill-rule="evenodd" clip-rule="evenodd" d="M59.2514 40.4433C59.6701 41.0681 60.1515 41.666 60.6959 42.237C60.6959 42.4363 60.6959 42.6356 60.6959 42.8349C60.1812 42.8753 59.7798 43.0746 59.4922 43.4328C59.1869 43.2478 58.866 43.2145 58.5292 43.3331C57.9086 43.773 57.2265 44.1383 56.4829 44.4293C56.4027 44.3629 56.3223 44.2963 56.2422 44.23C55.9576 44.6303 55.8372 45.0289 55.881 45.4257C54.9337 44.7216 54.2919 43.8581 53.9551 42.8349C53.6884 42.3974 53.7286 41.9988 54.0755 41.6391C54.1557 41.7055 54.2361 41.772 54.3162 41.8384C55.6767 40.5224 57.3219 40.0573 59.2514 40.4433Z" fill="#3091B2"/>
<path fill-rule="evenodd" clip-rule="evenodd" d="M84.7699 39.2476C84.7699 40.5097 84.7699 41.772 84.7699 43.0342C84.5703 44.3936 84.4499 45.7887 84.4087 47.2194C84.3286 46.6879 84.2482 46.1566 84.168 45.6251C84.0878 46.0236 84.0074 46.4222 83.9273 46.8208C83.6827 46.5948 83.5221 46.6612 83.4458 47.0201C83.2674 46.7927 83.0666 46.7927 82.8439 47.0201C82.6147 46.7122 82.5346 46.38 82.6032 46.0236C82.1037 45.9842 81.6222 45.9509 81.1588 45.924C80.6558 46.314 80.4551 46.7459 80.5569 47.2194C79.8749 46.9868 79.6741 47.1531 79.955 47.7177C79.3595 47.7402 78.878 47.9395 78.5106 48.3156C78.7311 48.371 78.8915 48.4706 78.9921 48.6145C77.7884 48.6145 76.5847 48.6145 75.381 48.6145C75.3401 48.351 75.4202 48.1185 75.6217 47.917C76.6954 47.4558 77.7788 47.0241 78.8717 46.6215C79.149 46.0356 79.3898 45.4377 79.5939 44.8279C81.1809 44.063 82.1841 42.9337 82.6032 41.4398C82.7293 40.7742 83.2108 40.4421 84.0476 40.4433C84.0118 40.2337 84.0517 40.0344 84.168 39.8454C84.2482 40.1111 84.3286 40.377 84.4087 40.6426C84.4535 40.1372 84.5739 39.6723 84.7699 39.2476Z" fill="#266EDD"/>
<path fill-rule="evenodd" clip-rule="evenodd" d="M63.1031 43.2334C68.1586 43.2334 73.2142 43.2334 78.2697 43.2334C76.5489 43.4311 74.7836 43.4975 72.9734 43.4327C72.0105 43.4327 71.0475 43.4327 70.0845 43.4327C68.1569 43.3996 66.231 43.4327 64.3068 43.5323C64.7883 43.5987 65.2697 43.6653 65.7512 43.7316C65.1763 43.792 64.6546 43.9582 64.1864 44.2299C63.8183 45.1387 63.2966 45.9691 62.6216 46.7211C62.4822 47.0051 62.4822 47.3373 62.6216 47.7176C61.6712 48.0536 61.6712 48.3525 62.6216 48.6144C61.617 48.5393 60.654 48.34 59.7327 48.0165C59.7327 47.9502 59.7327 47.8836 59.7327 47.8172C59.712 47.6187 59.7924 47.4527 59.9734 47.319C59.0777 46.9774 58.9173 46.5124 59.492 45.9239C59.2695 45.7545 59.2695 45.5552 59.492 45.326C60.7843 44.7176 61.988 44.02 63.1031 43.2334Z" fill="#388BC6"/>
<path fill-rule="evenodd" clip-rule="evenodd" d="M70.0847 43.4326C70.1854 43.5765 70.3457 43.6761 70.5662 43.7315C70.2549 43.8292 69.9338 43.8624 69.6032 43.8312C69.2274 44.4458 68.7862 45.0437 68.2792 45.6248C67.6393 46.1478 66.9972 46.6793 66.3532 47.2192C66.314 47.6529 66.1135 48.0182 65.7514 48.3153C65.1093 48.3817 64.4675 48.4483 63.8255 48.5146C65.0265 48.6141 66.2302 48.6474 67.4366 48.6143C69.1668 48.5495 70.852 48.6161 72.4921 48.8136C69.1829 48.8764 65.893 48.8098 62.6218 48.6143C61.6713 48.3524 61.6713 48.0535 62.6218 47.7174C62.4824 47.3372 62.4824 47.005 62.6218 46.721C63.2968 45.969 63.8185 45.1385 64.1866 44.2298C64.6548 43.9581 65.1765 43.7919 65.7514 43.7315C65.2699 43.6651 64.7884 43.5986 64.307 43.5322C66.2312 43.4326 68.1571 43.3995 70.0847 43.4326Z" fill="#2D81CB"/>
<path fill-rule="evenodd" clip-rule="evenodd" d="M70.0847 43.4326C71.0477 43.4326 72.0106 43.4326 72.9736 43.4326C73.2389 43.7499 73.0783 43.9159 72.4921 43.9309C72.7742 44.0144 73.015 44.1471 73.2143 44.3295C71.7776 44.7691 70.8948 45.6327 70.5662 46.9203C70.7475 47.3703 70.7475 47.7689 70.5662 48.1161C69.5055 48.3236 68.4623 48.4896 67.4365 48.6143C66.2302 48.6474 65.0265 48.6141 63.8254 48.5147C64.4675 48.4483 65.1093 48.3818 65.7514 48.3154C66.1134 48.0182 66.314 47.6529 66.3532 47.2193C66.9972 46.6794 67.6393 46.1478 68.2791 45.6249C68.7861 45.0437 69.2274 44.4458 69.6032 43.8312C69.9337 43.8625 70.2549 43.8292 70.5662 43.7316C70.3457 43.6762 70.1853 43.5765 70.0847 43.4326Z" fill="#277AD0"/>
<path fill-rule="evenodd" clip-rule="evenodd" d="M18.0847 43.6318C18.1247 44.9621 18.0847 46.2909 17.9644 47.6178C17.5149 47.1578 17.2742 46.6263 17.2421 46.0234C17.123 46.4166 17.0828 46.8152 17.1218 47.2192C16.6865 47.2174 16.2852 47.317 15.9181 47.5181C14.2832 48.6224 12.598 49.6853 10.8625 50.7069C9.68819 51.9473 8.24375 52.8772 6.52919 53.497C6.01112 53.9891 5.65001 54.5537 5.44586 55.191C5.20247 55.3579 4.92153 55.4242 4.60327 55.3903C4.62903 55.8693 4.38829 56.2346 3.88105 56.4865C3.14847 56.6455 2.46646 56.8781 1.83475 57.184C1.51385 57.0511 1.1927 56.9183 0.871792 56.7854C0.771403 57.0357 0.570866 57.1687 0.26994 57.184C0.0316073 56.0261 -0.0485593 54.8303 0.0291999 53.5967C0.470959 53.4727 0.751903 53.2068 0.871792 52.7995C1.22062 53.0215 1.54177 53.2208 1.83475 53.3974C2.05575 52.9725 2.37666 52.8395 2.79772 52.9988C3.55412 52.4573 4.39671 52.0254 5.32549 51.7034C5.96466 51.0237 6.72684 50.4591 7.61253 50.0093C7.80319 49.5934 8.08414 49.2279 8.45512 48.9132C9.25727 48.625 9.81915 48.1268 10.1403 47.4185C11.2 47.2387 11.8019 46.7074 11.9459 45.8241C12.6187 45.4668 13.2206 45.0349 13.7514 44.5287C14.9099 44.264 16.0734 44.0314 17.2421 43.8311C17.4624 43.9962 17.6228 44.1954 17.7236 44.429C17.7742 44.1185 17.8946 43.8529 18.0847 43.6318Z" fill="#3BAC8C"/>
<path fill-rule="evenodd" clip-rule="evenodd" d="M60.6959 42.2368C61.5147 42.5926 62.317 42.9248 63.1033 43.2333C61.9882 44.0199 60.7845 44.7175 59.4922 45.3259C59.2697 45.5551 59.2697 45.7544 59.4922 45.9238C58.9175 46.5123 59.0779 46.9773 59.9737 47.3189C59.7926 47.4526 59.7122 47.6186 59.7329 47.8171C58.1014 47.3956 56.8173 46.5984 55.8811 45.4256C55.8373 45.0288 55.9576 44.6302 56.2422 44.2298C56.3224 44.2961 56.4028 44.3627 56.4829 44.4291C57.2266 44.1381 57.9086 43.7728 58.5292 43.3329C58.866 43.2144 59.1869 43.2476 59.4922 43.4326C59.7799 43.0745 60.1812 42.8752 60.6959 42.8347C60.6959 42.6354 60.6959 42.4361 60.6959 42.2368Z" fill="#2E8BB9"/>
<path fill-rule="evenodd" clip-rule="evenodd" d="M18.3256 32.4714C18.3256 38.6496 18.3256 44.8278 18.3256 51.006C18.1354 50.785 18.015 50.5193 17.9644 50.2088C17.9117 50.4954 17.7914 50.7611 17.6033 51.006C17.4088 50.6228 17.2884 50.2242 17.2422 49.8102C17.1678 50.0626 17.0475 50.2951 16.8811 50.5078C16.1305 50.6818 15.4083 50.9142 14.7144 51.2053C13.4299 52.1346 12.0656 52.9649 10.6219 53.6965C9.25109 54.8802 7.84685 56.0427 6.4089 57.1842C6.19416 57.8722 5.79309 58.4701 5.2052 58.9779C3.74463 59.8899 2.42055 60.8864 1.23298 61.9673C0.704075 60.4037 0.383168 58.8093 0.27002 57.1842C0.570945 57.1689 0.771482 57.0359 0.871871 56.7856C1.19278 56.9186 1.51393 57.0513 1.83483 57.1842C2.46654 56.8783 3.14855 56.6457 3.88113 56.4867C4.38837 56.2348 4.62911 55.8695 4.60335 55.3906C4.92161 55.4244 5.20255 55.3581 5.44594 55.1913C5.65009 54.5539 6.0112 53.9893 6.52927 53.4972C8.24383 52.8774 9.68827 51.9475 10.8626 50.7071C12.5981 49.6855 14.2833 48.6226 15.9182 47.5183C16.2853 47.3172 16.6866 47.2176 17.1219 47.2194C17.0829 46.8154 17.1231 46.4168 17.2422 46.0236C17.2742 46.6265 17.515 47.158 17.9644 47.618C18.0848 46.2911 18.1248 44.9624 18.0848 43.632C18.0848 41.9713 18.0848 40.3104 18.0848 38.6496C18.0848 37.4539 18.0848 36.2581 18.0848 35.0623C18.0083 34.1591 18.0884 33.2953 18.3256 32.4714Z" fill="#3EAA93"/>
<path fill-rule="evenodd" clip-rule="evenodd" d="M78.7514 39.4468C78.9856 39.9347 79.0658 40.4662 78.9921 41.0412C78.9967 42.4424 79.1171 42.5088 79.3532 41.2404C79.5978 41.4664 79.7584 41.4001 79.8347 41.0412C80.3099 41.0704 80.7914 41.137 81.2791 41.2404C81.8415 40.7027 82.2828 40.7691 82.6032 41.4397C82.1841 42.9337 81.1809 44.0629 79.594 44.8278C79.3898 45.4376 79.1491 46.0355 78.8717 46.6215C77.7788 47.024 76.6954 47.4557 75.6217 47.9169C75.4202 48.1184 75.3401 48.351 75.381 48.6144C76.5847 48.6144 77.7884 48.6144 78.9921 48.6144C80.8591 48.7735 82.7048 48.84 84.5291 48.8137C84.5691 49.8124 84.5289 50.8089 84.4088 51.8032C84.369 50.6622 83.8876 50.5956 82.9643 51.6039C82.8719 52.1141 82.6713 52.5792 82.3625 52.999C81.9932 52.8588 81.5919 52.8921 81.1588 53.0986C79.6539 54.7434 77.8484 56.1052 75.7421 57.1842C75.6258 57.3731 75.5859 57.5724 75.6217 57.7821C75.0505 57.9403 74.4888 58.1396 73.9366 58.38C73.5218 59.1554 72.8397 59.6868 71.8903 59.9743C71.5084 60.4068 71.1873 60.872 70.9273 61.3694C70.6704 61.5071 70.3895 61.6068 70.0847 61.6684C69.7438 62.4632 69.142 63.0941 68.2792 63.5617C67.5379 65.172 66.2138 66.3347 64.3069 67.0494C63.0686 68.0777 61.7045 68.9413 60.2143 69.6402C58.5771 70.96 57.0525 72.355 55.6403 73.8255C54.7575 74.1577 53.8749 74.4897 52.9921 74.8219C52.6712 75.0212 52.6712 75.2205 52.9921 75.4198C52.3501 75.5528 52.3501 75.6855 52.9921 75.8184C52.6712 76.0177 52.6712 76.217 52.9921 76.4163C51.9117 76.5678 50.8683 76.734 49.8625 76.9146C47.8564 76.9146 45.8501 76.9146 43.844 76.9146C45.0034 76.7499 46.2071 76.6503 47.4551 76.6156C46.8935 76.5492 46.3316 76.4827 45.7699 76.4163C46.3667 75.9272 47.1291 75.429 48.057 74.9216C49.1576 73.6004 50.4013 72.3714 51.7884 71.2346C52.97 70.7856 54.0131 70.1877 54.9181 69.4409C55.914 68.4664 56.9571 67.5362 58.0477 66.6508C58.6093 66.4182 59.1712 66.1858 59.7329 65.9532C61.0232 64.9512 62.3071 63.9547 63.5847 62.9638C63.798 62.7994 63.8782 62.6001 63.8255 62.3659C64.4511 62.3561 64.9728 62.1568 65.3903 61.768C65.9281 60.9792 66.6101 60.2817 67.4366 59.6754C67.3564 59.609 67.276 59.5425 67.1958 59.4761C67.5167 59.1439 67.8379 58.8118 68.1588 58.4796C68.0786 58.4132 67.9982 58.3467 67.918 58.2803C68.4739 58.1296 68.9554 58.2293 69.3625 58.5793C70.6454 57.9477 71.4078 57.0178 71.6495 55.7891C71.7297 55.8555 71.8101 55.922 71.8903 55.9884C72.3691 55.0282 73.0511 54.3307 73.9366 53.8958C74.2575 53.8294 74.5786 53.7629 74.8995 53.6965C76.4593 52.5206 77.9037 51.2583 79.2328 49.9099C79.7374 49.5579 80.2991 49.2922 80.918 49.1127C78.4362 48.8865 75.9487 48.7203 73.4551 48.6144C73.2933 47.9352 73.534 47.4037 74.1773 47.0201C74.3184 47.0617 74.4387 47.1283 74.5384 47.2193C74.6922 46.6988 74.9732 46.2336 75.381 45.8243C76.2409 45.2192 77.1637 44.6877 78.1495 44.2299C78.3924 43.926 78.5128 43.5937 78.5106 43.2334C78.7413 41.989 78.8214 40.7269 78.7514 39.4468Z" fill="#2974DD"/>
<path fill-rule="evenodd" clip-rule="evenodd" d="M59.7329 48.0166C60.6542 48.3401 61.6172 48.5394 62.6218 48.6145C65.893 48.81 69.1829 48.8766 72.4921 48.8138C72.9628 54.6635 69.753 58.118 62.8625 59.1772C62.4612 59.1772 62.0601 59.1772 61.6588 59.1772C56.0416 59.1772 50.4242 59.1772 44.807 59.1772C39.3501 59.1772 33.8935 59.1772 28.4366 59.1772C27.8986 59.236 27.4171 59.1694 26.9922 58.9779C40.1549 59.0499 50.4266 58.9835 57.807 58.7786C57.7542 58.5444 57.8344 58.3452 58.0477 58.1807C58.4095 58.2907 58.8106 58.2907 59.2514 58.1807C59.0836 56.5694 59.0434 54.9087 59.131 53.1983C59.0196 52.5335 58.819 51.9023 58.5292 51.305C58.5694 51.0724 58.6094 50.84 58.6496 50.6075C58.7492 50.6985 58.8696 50.7651 59.0107 50.8068C59.2098 50.0177 59.3301 49.2206 59.3718 48.4152C59.5444 48.3068 59.6648 48.1738 59.7329 48.0166Z" fill="#F3F7F8"/>
<path fill-rule="evenodd" clip-rule="evenodd" d="M18.3255 51.0058C18.4124 52.0302 18.6531 53.0267 19.0477 53.9953C18.6052 53.9002 18.1637 53.8339 17.7236 53.796C17.1384 54.1788 16.4963 54.1788 15.7977 53.796C14.6602 54.3439 13.8578 55.141 13.3903 56.1876C12.3472 56.9847 11.3038 57.7819 10.2607 58.5791C9.89475 59.5467 9.17253 60.2775 8.09401 60.7714C7.92814 60.6006 7.72761 60.4678 7.49216 60.3728C7.25142 60.705 6.93052 60.9707 6.5292 61.17C5.49257 62.4261 4.36904 63.6219 3.15883 64.7573C3.0895 65.0286 3.00933 65.2942 2.91809 65.5545C2.1718 64.4344 1.61015 63.2387 1.23291 61.9672C2.42048 60.8862 3.74456 59.8897 5.20513 58.9777C5.79302 58.4699 6.19409 57.872 6.40883 57.184C7.84677 56.0425 9.25101 54.88 10.6218 53.6963C12.0655 52.9647 13.4298 52.1345 14.7144 51.2051C15.4082 50.914 16.1304 50.6816 16.881 50.5076C17.0474 50.2949 17.1678 50.0624 17.2422 49.8101C17.2884 50.224 17.4087 50.6226 17.6033 51.0058C17.7913 50.7609 17.9117 50.4952 17.9644 50.2087C18.0149 50.5192 18.1353 50.7848 18.3255 51.0058Z" fill="#38A499"/>
<path fill-rule="evenodd" clip-rule="evenodd" d="M82.3625 52.999C80.9746 54.5812 79.7307 56.2419 78.631 57.9814C77.7117 58.4753 76.7889 58.9735 75.8625 59.4761C75.2862 59.8652 74.9251 60.3634 74.7792 60.9709C74.3991 61.278 73.9575 61.5105 73.4551 61.6684C72.9587 62.3938 72.2767 62.9584 71.4088 63.3624C71.2083 64.06 70.6866 64.4918 69.844 64.6578C68.9807 65.5027 68.1381 66.3331 67.3162 67.149C66.0634 67.9548 64.8597 68.8186 63.7051 69.7399C63.5917 70.0879 63.4312 70.4201 63.2236 70.7364C62.3811 71.1683 61.699 71.7329 61.1774 72.4304C60.757 72.5243 60.3557 72.6572 59.9736 72.829C59.5822 73.3528 59.1007 73.8177 58.5292 74.2241C57.2451 74.3937 56.3623 74.9583 55.8811 75.9181C55.6006 76.1341 55.2797 76.3002 54.9181 76.4163C55.5286 76.4534 56.0903 76.5531 56.6033 76.7153C55.9872 76.6551 55.4253 76.7217 54.9181 76.9146C53.2329 76.9146 51.5477 76.9146 49.8625 76.9146C50.8684 76.734 51.9117 76.5678 52.9922 76.4163C52.6713 76.217 52.6713 76.0178 52.9922 75.8185C52.3501 75.6855 52.3501 75.5528 52.9922 75.4199C52.6713 75.2206 52.6713 75.0213 52.9922 74.822C53.875 74.4897 54.7575 74.1577 55.6403 73.8255C57.0525 72.3551 58.5771 70.96 60.2144 69.6403C61.7046 68.9413 63.0686 68.0778 64.307 67.0494C66.2139 66.3347 67.538 65.172 68.2792 63.5617C69.142 63.0942 69.7439 62.4632 70.0848 61.6684C70.3895 61.6068 70.6705 61.5072 70.9273 61.3694C71.1873 60.872 71.5085 60.4068 71.8903 59.9744C72.8398 59.6868 73.5218 59.1555 73.9366 58.38C74.4889 58.1396 75.0505 57.9403 75.6218 57.7821C75.5859 57.5724 75.6259 57.3731 75.7422 57.1842C77.8484 56.1052 79.6539 54.7434 81.1588 53.0986C81.5919 52.8922 81.9932 52.8589 82.3625 52.999Z" fill="#2A71E1"/>
<path fill-rule="evenodd" clip-rule="evenodd" d="M84.7698 43.0342C84.81 48.6149 84.7698 54.1952 84.6494 59.7751C84.5936 60.0216 84.4732 60.2209 84.2883 60.373C84.0553 59.7861 84.0153 59.1882 84.1679 58.5793C84.2481 58.9115 84.3285 59.2436 84.4087 59.5758C84.5693 58.7123 84.5693 57.8485 84.4087 56.9849C83.6284 56.6932 83.1872 56.9256 83.0846 57.6825C83.2406 57.9695 83.3208 58.2684 83.3253 58.5793C83.0856 58.5622 82.885 58.6287 82.7235 58.7786C82.5629 58.513 82.3222 58.3137 82.0013 58.1807C80.0518 58.3053 78.9282 59.2354 78.6309 60.9709C77.6427 61.8731 76.5993 62.7367 75.5013 63.5617C75.2162 64.6764 74.5742 65.6065 73.5754 66.3519C73.4952 66.2855 73.4148 66.219 73.3346 66.1526C73.0505 67.0522 72.4087 67.7165 71.4087 68.1456C71.2072 68.5145 71.0064 68.8798 70.8068 69.2417C68.9676 70.2041 67.2022 71.2669 65.5106 72.4304C64.551 72.5271 63.7486 72.8593 63.1031 73.4269C62.1402 73.8255 61.1772 74.2241 60.2143 74.6227C59.8934 75.0213 59.8934 75.4199 60.2143 75.8185C60.0537 75.8848 59.8934 75.9514 59.7328 76.0178C60.0537 76.1507 60.0537 76.2834 59.7328 76.4164C58.7144 76.6735 57.6711 76.7731 56.6032 76.7153C56.0901 76.5531 55.5285 76.4534 54.918 76.4164C55.2796 76.3002 55.6005 76.1342 55.8809 75.9181C56.3622 74.9583 57.245 74.3937 58.5291 74.2241C59.1006 73.8177 59.5821 73.3528 59.9735 72.829C60.3556 72.6572 60.7569 72.5243 61.1772 72.4304C61.6989 71.7329 62.3809 71.1683 63.2235 70.7364C63.431 70.4201 63.5916 70.0879 63.705 69.7399C64.8596 68.8186 66.0633 67.9548 67.3161 67.1491C68.138 66.3332 68.9806 65.5027 69.8439 64.6579C70.6865 64.4919 71.2082 64.06 71.4087 63.3624C72.2766 62.9585 72.9586 62.3939 73.455 61.6684C73.9574 61.5106 74.3989 61.278 74.7791 60.9709C74.9249 60.3634 75.2861 59.8652 75.8624 59.4762C76.7888 58.9735 77.7115 58.4753 78.6309 57.9814C79.7306 56.242 80.9745 54.5812 82.3624 52.999C82.6713 52.5793 82.8718 52.1141 82.9642 51.6039C83.8875 50.5957 84.369 50.6623 84.4087 51.8032C84.5288 50.8089 84.569 49.8125 84.5291 48.8138C82.7047 48.8401 80.859 48.7735 78.992 48.6145C78.8914 48.4706 78.7311 48.3709 78.5105 48.3155C78.8779 47.9395 79.3594 47.7402 79.955 47.7177C79.674 47.153 79.8748 46.9868 80.5568 47.2194C80.455 46.7459 80.6558 46.314 81.1587 45.924C81.6221 45.9509 82.1036 45.9842 82.6031 46.0236C82.5345 46.38 82.6147 46.7122 82.8439 47.0201C83.0666 46.7927 83.2673 46.7927 83.4457 47.0201C83.522 46.6612 83.6826 46.5948 83.9272 46.8208C84.0074 46.4222 84.0878 46.0236 84.1679 45.625C84.2481 46.1566 84.3285 46.6879 84.4087 47.2194C84.4498 45.7887 84.5702 44.3936 84.7698 43.0342Z" fill="#2A6EE4"/>
<path fill-rule="evenodd" clip-rule="evenodd" d="M19.0476 53.9954C19.2883 54.394 19.5291 54.7926 19.7698 55.1912C18.3025 55.6986 16.858 56.2634 15.4365 56.8852C14.5282 57.6262 13.7657 58.4565 13.1494 59.3764C11.4419 60.3245 9.95746 61.487 8.69574 62.8641C8.31513 63.005 7.95402 63.1711 7.61241 63.3624C6.71276 64.8689 5.38869 65.9981 3.64019 66.7504C3.27715 66.4154 3.03641 66.0168 2.91797 65.5546C3.00921 65.2944 3.08938 65.0287 3.15871 64.7575C4.36891 63.6221 5.49245 62.4263 6.52908 61.1701C6.93039 60.9708 7.2513 60.7052 7.49204 60.3729C7.72748 60.468 7.92802 60.6007 8.09389 60.7715C9.17241 60.2777 9.89463 59.5468 10.2606 58.5793C11.3037 57.7821 12.3471 56.9849 13.3902 56.1877C13.8577 55.1412 14.6601 54.344 15.7976 53.7961C16.4962 54.179 17.1383 54.179 17.7235 53.7961C18.1636 53.834 18.6051 53.9004 19.0476 53.9954Z" fill="#36A09F"/>
<path fill-rule="evenodd" clip-rule="evenodd" d="M22.418 57.5828C22.7793 57.8324 23.1807 58.0316 23.6217 58.1807C23.601 58.3792 23.6814 58.5452 23.8624 58.679C22.5993 59.5832 21.2352 60.3804 19.7699 61.0705C19.18 62.024 18.3374 62.7879 17.2421 63.3624C16.6855 64.1536 16.0437 64.8845 15.3162 65.5547C14.8392 65.9846 14.2776 66.3168 13.631 66.5512C13.5176 66.8992 13.357 67.2314 13.1495 67.5477C12.4145 67.9323 11.8127 68.4306 11.3439 69.0424C9.85664 69.144 8.85347 69.7752 8.33468 70.9357C8.25451 70.8693 8.1741 70.8028 8.09394 70.7364C7.97188 71.0346 8.09225 71.2671 8.45505 71.434C8.3212 71.5103 8.24103 71.6099 8.21431 71.7329C7.06188 71.0457 6.17909 70.1822 5.56616 69.142C5.75635 68.921 5.87672 68.6554 5.92727 68.3449C6.28549 68.8072 6.72677 68.8405 7.25135 68.4445C8.40497 67.0243 9.80921 65.7952 11.4643 64.7575C12.4836 63.4477 13.7677 62.3185 15.3162 61.3695C15.4767 60.9709 15.6371 60.5723 15.7976 60.1737C16.3918 60.0533 16.8733 59.7875 17.2421 59.3765C17.3945 58.1213 18.2371 57.4902 19.7699 57.4832C20.059 57.3032 20.2598 57.0708 20.3717 56.7856C20.8527 57.1826 21.3342 57.5812 21.8161 57.9814C22.0595 57.8706 22.2601 57.7379 22.418 57.5828Z" fill="#3499AB"/>
<path fill-rule="evenodd" clip-rule="evenodd" d="M23.6217 58.1807C24.6588 58.6717 25.7823 58.9376 26.9921 58.9779C27.417 59.1694 27.8985 59.2359 28.4365 59.1771C28.4266 59.6246 28.2259 59.7575 27.8347 59.5757C27.7184 59.7647 27.6784 59.964 27.7143 60.1736C26.0188 60.4778 24.8553 61.3415 24.2236 62.7645C22.5624 63.9824 20.9574 65.2447 19.4087 66.5511C19.2739 67.3934 18.7123 67.9249 17.7236 68.1455C17.523 68.4777 17.3222 68.8098 17.1217 69.142C15.7909 70.1413 14.3465 71.0381 12.7884 71.8325C12.1757 72.372 11.6138 72.9366 11.1032 73.5265C10.054 73.0257 9.09109 72.4278 8.21431 71.7328C8.24103 71.6099 8.3212 71.5102 8.45505 71.4339C8.09226 71.2671 7.97189 71.0345 8.09394 70.7364C8.17411 70.8027 8.25451 70.8693 8.33468 70.9357C8.85348 69.7751 9.85664 69.144 11.3439 69.0423C11.8127 68.4305 12.4145 67.9323 13.1495 67.5476C13.357 67.2313 13.5176 66.8991 13.631 66.5511C14.2776 66.3168 14.8392 65.9845 15.3162 65.5546C16.0437 64.8844 16.6855 64.1536 17.2421 63.3624C18.3374 62.7878 19.18 62.0239 19.7699 61.0705C21.2352 60.3803 22.5993 59.5831 23.8624 58.6789C23.6814 58.5452 23.601 58.3792 23.6217 58.1807Z" fill="#3294B2"/>
<path fill-rule="evenodd" clip-rule="evenodd" d="M78.2699 43.2334C78.3501 43.2334 78.4305 43.2334 78.5107 43.2334C78.5128 43.5937 78.3925 43.926 78.1496 44.2299C77.1637 44.6877 76.241 45.2192 75.381 45.8243C74.9732 46.2336 74.6923 46.6988 74.5385 47.2193C74.4388 47.1283 74.3184 47.0617 74.1773 47.02C73.5341 47.4037 73.2933 47.9352 73.4551 48.6144C75.9487 48.7202 78.4363 48.8864 80.9181 49.1126C80.2991 49.2922 79.7375 49.5579 79.2329 49.9098C77.9038 51.2583 76.4593 52.5206 74.8996 53.6965C74.5787 53.7628 74.2575 53.8294 73.9366 53.8958C73.0512 54.3306 72.3691 55.0282 71.8903 55.9884C71.8101 55.922 71.7297 55.8555 71.6496 55.7891C71.4079 57.0178 70.6454 57.9477 69.3625 58.5792C68.9554 58.2293 68.474 58.1296 67.9181 58.2803C67.9983 58.3467 68.0787 58.4132 68.1588 58.4796C67.8379 58.8118 67.5168 59.1438 67.1959 59.4761C67.276 59.5424 67.3564 59.609 67.4366 59.6754C66.6101 60.2816 65.9281 60.9792 65.3903 61.768C64.9729 62.1568 64.4512 62.3561 63.8255 62.3659C63.8782 62.6001 63.7981 62.7993 63.5848 62.9638C62.3072 63.9547 61.0233 64.9512 59.7329 65.9532C59.1713 66.1858 58.6094 66.4182 58.0477 66.6508C56.9572 67.5362 55.914 68.4664 54.9181 69.4409C54.0132 70.1877 52.97 70.7856 51.7885 71.2346C50.4013 72.3714 49.1577 73.6004 48.057 74.9216C47.1292 75.429 46.3668 75.9272 45.77 76.4163C46.3316 76.4827 46.8935 76.5492 47.4551 76.6156C46.2072 76.6503 45.0034 76.7499 43.844 76.9145C41.4366 76.9145 39.0292 76.9145 36.6218 76.9145C38.3624 76.7718 40.1277 76.5725 41.9181 76.3166C41.5168 76.0841 41.1157 75.8517 40.7144 75.6191C41.148 75.5559 41.2282 75.423 40.9552 75.2205C42.0029 74.5519 42.9658 73.8213 43.844 73.0282C43.9242 72.995 44.0046 72.9619 44.0848 72.9286C44.2656 73.1032 44.3859 73.3025 44.4459 73.5265C44.7605 73.273 45.1217 73.0737 45.5292 72.9286C45.1409 72.7439 44.7398 72.5776 44.3255 72.4304C45.6869 71.6354 46.8906 70.7052 47.9366 69.6402C48.2479 69.5426 48.5691 69.5093 48.8996 69.5406C48.9405 69.2771 48.8604 69.0445 48.6589 68.843C50.1835 67.8465 51.5477 66.7171 52.7514 65.455C54.8928 64.3473 56.8992 63.0851 58.77 61.6683C60.439 61.1173 61.803 60.287 62.8625 59.1771C69.753 58.1179 72.9628 54.6635 72.4922 48.8137C70.852 48.6162 69.1668 48.5496 67.4366 48.6144C68.4624 48.4896 69.5055 48.3236 70.5662 48.1162C70.7475 47.769 70.7475 47.3704 70.5662 46.9204C70.8948 45.6327 71.7776 44.7692 73.2144 44.3295C73.015 44.1472 72.7743 44.0144 72.4922 43.9309C73.0784 43.916 73.2389 43.75 72.9736 43.4327C74.7838 43.4975 76.5491 43.4311 78.2699 43.2334Z" fill="#2A78D7"/>
<path fill-rule="evenodd" clip-rule="evenodd" d="M36.381 59.3764C35.0451 59.56 33.6808 59.7593 32.2884 59.9743C31.4689 61.0262 30.7869 62.1556 30.2421 63.3623C28.899 64.5828 27.6149 65.845 26.3902 67.149C25.0125 68.1676 23.5278 69.0644 21.9365 69.8395C21.1585 70.8597 20.0352 71.4243 18.5662 71.5335C19.734 70.4709 21.0983 69.574 22.6588 68.843C23.9758 67.6191 25.2999 66.3901 26.631 65.156C27.4257 63.9036 28.3084 62.7079 29.2791 61.5687C30.003 61.2526 30.6049 60.8207 31.0847 60.2732C30.8439 60.2069 30.6032 60.1403 30.3624 60.074C31.0929 59.8468 31.8151 59.7138 32.5291 59.6754C32.2082 59.609 31.8871 59.5424 31.5661 59.4761C33.169 59.3764 34.774 59.3433 36.381 59.3764Z" fill="#2F90BC"/>
<path fill-rule="evenodd" clip-rule="evenodd" d="M36.3809 59.3765C37.1833 59.3765 37.9859 59.3765 38.7883 59.3765C38.972 59.5295 39.2127 59.6292 39.5105 59.6754C39.0962 59.8227 38.6951 59.9889 38.3068 60.1737C38.4864 60.42 38.5666 60.6858 38.5475 60.9708C37.3631 61.3533 36.4803 62.0175 35.8994 62.9638C34.5118 63.878 33.1477 64.8414 31.8068 65.8536C31.1602 66.1262 30.5181 66.3919 29.8809 66.6508C28.7653 67.8697 27.682 69.0988 26.6309 70.3378C25.5399 71.1091 24.4565 71.8732 23.3809 72.6297C22.7237 73.0542 22.2422 73.5857 21.9365 74.2241C21.7082 74.3203 21.4675 74.3534 21.2142 74.3237C21.1341 74.7223 21.0537 75.1209 20.9735 75.5195C19.927 75.6076 19.8468 75.7736 20.7327 76.0177C20.5517 76.1515 20.4713 76.3175 20.492 76.516C18.1181 76.2374 15.8712 75.6395 13.7513 74.7223C13.6721 74.2259 13.4313 73.7942 13.0291 73.4269C13.4203 73.2569 13.5004 73.0576 13.2698 72.829C14.2041 72.708 15.0065 72.3758 15.6772 71.8325C16.6204 71.6021 17.5834 71.5025 18.5661 71.5336C20.0351 71.4243 21.1584 70.8597 21.9365 69.8395C23.5277 69.0645 25.0124 68.1676 26.3902 67.149C27.6148 65.845 28.8989 64.5829 30.242 63.3624C30.7868 62.1557 31.4688 61.0262 32.2883 59.9744C33.6807 59.7593 35.045 59.56 36.3809 59.3765Z" fill="#2F8DBE"/>
<path fill-rule="evenodd" clip-rule="evenodd" d="M44.8069 59.177C50.4241 59.177 56.0415 59.177 61.6587 59.177C59.2145 59.3751 56.7269 59.4417 54.1958 59.3763C52.5908 59.3763 50.986 59.3763 49.381 59.3763C48.0944 59.3432 46.8106 59.3765 45.5291 59.4759C46.2513 59.5423 46.9736 59.6089 47.6958 59.6752C46.7872 60.4262 45.7441 61.0241 44.5661 61.4689C44.2669 61.6989 44.0262 61.9648 43.8439 62.2661C42.2599 63.2163 40.6548 64.1132 39.0291 64.9566C37.4525 66.2985 35.9279 67.6935 34.455 69.1418C33.3212 69.8507 32.2378 70.5816 31.2051 71.3341C30.3668 72.8181 29.2033 74.1135 27.7143 75.2204C27.7945 75.2867 27.8749 75.3533 27.9551 75.4197C27.7143 75.486 27.4736 75.5526 27.2328 75.619C27.5537 75.8183 27.8749 76.0176 28.1958 76.2169C28.1156 76.2832 28.0352 76.3498 27.9551 76.4162C26.9353 76.4829 25.9723 76.6489 25.0662 76.9144C24.5045 76.9144 23.9426 76.9144 23.381 76.9144C22.9496 76.7532 22.4681 76.6535 21.9365 76.6155C24.4301 76.2934 24.35 76.0277 21.6958 75.8183C22.0167 75.7519 22.3379 75.6853 22.6588 75.619C22.5331 75.5072 22.4529 75.3742 22.418 75.2204C23.9414 73.1957 26.0279 71.701 28.6773 70.7362C29.244 70.1009 29.9262 69.5693 30.7236 69.1418C32.839 66.6544 35.2464 64.3294 37.9458 62.1665C38.3211 61.8243 38.5216 61.4257 38.5476 60.9707C38.5667 60.6857 38.4865 60.4198 38.3069 60.1735C38.6952 59.9887 39.0963 59.8225 39.5106 59.6752C39.2128 59.629 38.9721 59.5294 38.7884 59.3763C40.8388 59.4413 42.8449 59.3749 44.8069 59.177Z" fill="#2E87C5"/>
<path fill-rule="evenodd" clip-rule="evenodd" d="M49.381 59.3764C49.7305 59.5362 50.1316 59.6359 50.5847 59.6753C49.653 59.6963 48.7702 59.8623 47.9365 60.1736C47.0626 61.0636 46.1399 61.9274 45.168 62.7644C44.68 63.3067 44.3189 63.9046 44.0847 64.5581C41.8983 65.8689 39.8922 67.3636 38.0662 69.0423C37.5452 69.2244 37.0637 69.457 36.6217 69.7398C35.7902 70.5268 35.1082 71.3904 34.5754 72.3307C33.6394 72.7735 32.9574 73.4045 32.5291 74.224C31.5828 74.6489 30.7804 75.2135 30.1217 75.918C29.6402 76.084 29.1588 76.2502 28.6773 76.4163C29.6855 76.4513 30.6485 76.551 31.5662 76.7152C32.915 76.9165 34.6002 76.9829 36.6217 76.9145C39.0291 76.9145 41.4365 76.9145 43.8439 76.9145C45.85 76.9145 47.8563 76.9145 49.8624 76.9145C51.5476 76.9145 53.2328 76.9145 54.918 76.9145C57.3254 76.9145 59.7328 76.9145 62.1402 76.9145C49.7823 77.1802 37.4241 77.1802 25.0662 76.9145C25.9723 76.649 26.9353 76.483 27.955 76.4163C28.0352 76.3499 28.1156 76.2833 28.1958 76.217C27.8749 76.0177 27.5537 75.8184 27.2328 75.6191C27.4736 75.5527 27.7143 75.4861 27.955 75.4198C27.8749 75.3534 27.7945 75.2868 27.7143 75.2205C29.2033 74.1136 30.3668 72.8182 31.205 71.3342C32.2378 70.5816 33.3212 69.8508 34.455 69.1419C35.9279 67.6936 37.4525 66.2986 39.0291 64.9567C40.6548 64.1133 42.2598 63.2164 43.8439 62.2662C44.0262 61.9649 44.2669 61.699 44.5661 61.469C45.7441 61.0242 46.7872 60.4263 47.6958 59.6753C46.9735 59.609 46.2513 59.5424 45.5291 59.476C46.8106 59.3766 48.0944 59.3433 49.381 59.3764Z" fill="#3888CC"/>
<path fill-rule="evenodd" clip-rule="evenodd" d="M19.77 55.1912C20.4888 56.1183 21.3716 56.9155 22.4181 57.5827C22.2602 57.7378 22.0597 57.8705 21.8163 57.9813C21.3343 57.5811 20.8528 57.1825 20.3718 56.7855C20.2599 57.0707 20.0591 57.3031 19.77 57.4831C18.2372 57.49 17.3946 58.1212 17.2422 59.3764C16.8734 59.7873 16.3919 60.0532 15.7978 60.1736C15.6372 60.5722 15.4769 60.9708 15.3163 61.3694C13.7679 62.3184 12.4837 63.4476 11.4644 64.7574C9.80936 65.7951 8.40512 67.0242 7.25149 68.4444C6.72691 68.8404 6.28564 68.8071 5.92742 68.3447C5.87686 68.6552 5.75649 68.9209 5.5663 69.1419C4.68616 68.4837 4.04434 67.6865 3.64038 66.7504C5.38888 65.998 6.71295 64.8688 7.6126 63.3623C7.95421 63.171 8.31532 63.005 8.69593 62.8641C9.95765 61.4869 11.4421 60.3244 13.1496 59.3764C13.7659 58.4564 14.5284 57.6262 15.4367 56.8852C16.8582 56.2634 18.3027 55.6986 19.77 55.1912Z" fill="#359CA6"/>
<path fill-rule="evenodd" clip-rule="evenodd" d="M49.3809 59.3765C50.9859 59.3765 52.5907 59.3765 54.1957 59.3765C54.7076 59.5012 55.1089 59.7669 55.3994 60.1737C54.2995 60.6623 53.1762 61.0942 52.0291 61.4691C49.8882 63.3779 47.4808 64.9723 44.8069 66.2522C44.1465 67.2652 43.3841 68.2284 42.5198 69.142C40.2872 70.3926 38.2811 71.854 36.5013 73.5265C35.8898 74.3419 35.288 75.0394 34.6958 75.6191C35.1409 75.837 35.5422 76.1026 35.8995 76.4163C34.4683 76.6479 33.0238 76.7476 31.5661 76.7153C30.6484 76.5511 29.6855 76.4514 28.6772 76.4163C29.1587 76.2503 29.6402 76.0841 30.1217 75.9181C30.7804 75.2136 31.5827 74.649 32.5291 74.2241C32.9574 73.4046 33.6394 72.7736 34.5754 72.3308C35.1081 71.3905 35.7902 70.5269 36.6217 69.7399C37.0637 69.4571 37.5452 69.2245 38.0661 69.0424C39.8921 67.3637 41.8982 65.869 44.0846 64.5582C44.3189 63.9047 44.68 63.3068 45.168 62.7645C46.1398 61.9275 47.0626 61.0637 47.9365 60.1737C48.7702 59.8624 49.653 59.6963 50.5846 59.6754C50.1316 59.6359 49.7305 59.5363 49.3809 59.3765Z" fill="#2B81CC"/>
<path fill-rule="evenodd" clip-rule="evenodd" d="M28.4366 59.177C33.8935 59.177 39.3501 59.177 44.8069 59.177C42.8449 59.3749 40.8388 59.4413 38.7884 59.3763C37.986 59.3763 37.1834 59.3763 36.381 59.3763C34.7741 59.3432 33.1691 59.3763 31.5662 59.4759C31.8871 59.5423 32.2083 59.6089 32.5292 59.6752C31.8151 59.7137 31.0929 59.8466 30.3625 60.0738C30.6033 60.1402 30.844 60.2068 31.0847 60.2731C30.6049 60.8206 30.0031 61.2525 29.2792 61.5686C28.3085 62.7077 27.4257 63.9035 26.631 65.1559C25.3 66.3899 23.9759 67.619 22.6588 68.8429C21.0983 69.5739 19.7341 70.4707 18.5662 71.5334C17.5835 71.5023 16.6206 71.602 15.6773 71.8323C15.0066 72.3756 14.2042 72.7079 13.2699 72.8288C13.5006 73.0574 13.4204 73.2567 13.0292 73.4267C13.4315 73.794 13.6722 74.2257 13.7514 74.7221C12.7596 74.4778 11.8768 74.0792 11.1033 73.5264C11.6139 72.9364 12.1758 72.3718 12.7885 71.8323C14.3465 71.0379 15.791 70.1411 17.1218 69.1418C17.3223 68.8096 17.5231 68.4776 17.7236 68.1454C18.7124 67.9247 19.274 67.3932 19.4088 66.551C20.9575 65.2446 22.5625 63.9822 24.2236 62.7643C24.8553 61.3414 26.0188 60.4776 27.7144 60.1735C27.6785 59.9638 27.7185 59.7645 27.8347 59.5756C28.2259 59.7574 28.4267 59.6244 28.4366 59.177Z" fill="#3392B8"/>
<path fill-rule="evenodd" clip-rule="evenodd" d="M38.5476 60.9707C38.5216 61.4257 38.3211 61.8243 37.9458 62.1665C35.2463 64.3295 32.8389 66.6544 30.7236 69.1419C29.9262 69.5694 29.244 70.1009 28.6773 70.7362C26.0279 71.701 23.9414 73.1958 22.418 75.2204C22.4529 75.3743 22.5331 75.5072 22.6587 75.619C22.3378 75.6854 22.0167 75.7519 21.6958 75.8183C24.3499 76.0278 24.4301 76.2934 21.9365 76.6155C22.4681 76.6536 22.9496 76.7532 23.381 76.9144C22.3482 76.9746 21.3852 76.8419 20.4921 76.5158C20.4714 76.3173 20.5518 76.1513 20.7328 76.0176C19.8469 75.7735 19.9271 75.6075 20.9736 75.5194C21.0537 75.1208 21.1341 74.7222 21.2143 74.3236C21.4676 74.3533 21.7083 74.3202 21.9365 74.2239C22.2423 73.5856 22.7237 73.0541 23.381 72.6296C24.4566 71.873 25.5399 71.1089 26.631 70.3376C27.682 69.0986 28.7654 67.8696 29.881 66.6507C30.5182 66.3918 31.1603 66.1261 31.8069 65.8535C33.1478 64.8412 34.5118 63.8778 35.8995 62.9637C36.4804 62.0174 37.3632 61.3532 38.5476 60.9707Z" fill="#308AC3"/>
<path fill-rule="evenodd" clip-rule="evenodd" d="M84.2885 60.3729C82.9427 67.435 78.2885 72.3841 70.3255 75.2205C68.2185 75.9017 66.0519 76.3999 63.8255 76.7152C61.2626 76.6811 61.2626 76.5815 63.8255 76.4163C63.7453 76.3499 63.6649 76.2833 63.5848 76.217C64.3383 75.8542 65.1409 75.655 65.9922 75.6191C64.9233 74.9666 64.8029 74.2025 65.6311 73.3272C66.613 72.9136 67.4556 72.349 68.1588 71.6331C69.6172 71.2166 70.7408 70.4858 71.5292 69.4409C72.4175 68.8081 73.3805 68.2766 74.4181 67.8465C75.5214 66.4002 76.7251 65.0051 78.0292 63.6613C78.3287 63.5704 78.5292 63.67 78.6311 63.9602C78.6703 63.5266 78.8708 63.1612 79.2329 62.8641C80.3073 62.5044 81.3103 62.0725 82.2422 61.5687C82.5111 61.8574 82.6716 62.1897 82.7236 62.5651C82.7357 61.3203 83.0164 60.1246 83.5662 58.9778C83.4788 58.8417 83.3987 58.7088 83.3255 58.5792C83.3209 58.2683 83.2408 57.9694 83.0848 57.6824C83.1873 56.9254 83.6286 56.6931 84.4088 56.9848C84.5694 57.8484 84.5694 58.7121 84.4088 59.5757C84.3287 59.2435 84.2483 58.9114 84.1681 58.5792C84.0155 59.1881 84.0554 59.786 84.2885 60.3729Z" fill="#2B69EB"/>
<path fill-rule="evenodd" clip-rule="evenodd" d="M61.6587 59.177C62.06 59.177 62.4611 59.177 62.8624 59.177C61.8029 60.2869 60.4389 61.1172 58.7698 61.6682C56.899 63.085 54.8927 64.3472 52.7513 65.4548C51.5476 66.717 50.1833 67.8464 48.6587 68.8429C48.8602 69.0444 48.9404 69.277 48.8995 69.5404C48.5689 69.5091 48.2478 69.5424 47.9365 69.6401C46.8905 70.7051 45.6868 71.6352 44.3254 72.4302C44.7397 72.5775 45.1408 72.7437 45.5291 72.9285C45.1215 73.0736 44.7604 73.2729 44.4458 73.5264C44.3858 73.3024 44.2655 73.1031 44.0847 72.9285C44.0045 72.9618 43.9241 72.9948 43.8439 73.0281C42.9657 73.8211 42.0027 74.5517 40.955 75.2204C41.228 75.4229 41.1479 75.5558 40.7143 75.619C41.1156 75.8516 41.5167 76.0839 41.918 76.3165C40.1276 76.5724 38.3623 76.7717 36.6217 76.9144C34.6002 76.9828 32.915 76.9164 31.5662 76.7151C33.0238 76.7474 34.4683 76.6477 35.8995 76.4162C35.5422 76.1025 35.1409 75.8368 34.6958 75.619C35.288 75.0392 35.8899 74.3417 36.5013 73.5264C38.2811 71.8539 40.2872 70.3924 42.5199 69.1418C43.3841 68.2283 44.1465 67.2651 44.8069 66.252C47.4808 64.9722 49.8882 63.3778 52.0291 61.4689C53.1762 61.094 54.2995 60.6622 55.3995 60.1735C55.1089 59.7667 54.7076 59.5011 54.1958 59.3763C56.7269 59.4417 59.2145 59.3751 61.6587 59.177Z" fill="#2B7ED1"/>
<path fill-rule="evenodd" clip-rule="evenodd" d="M83.3253 58.5793C83.3985 58.7088 83.4787 58.8417 83.5661 58.9779C83.0162 60.1246 82.7355 61.3204 82.7235 62.5652C82.6715 62.1897 82.5109 61.8575 82.242 61.5687C81.3101 62.0725 80.3072 62.5044 79.2328 62.8641C78.8707 63.1613 78.6701 63.5266 78.6309 63.9603C78.5291 63.6701 78.3285 63.5704 78.0291 63.6613C76.725 65.0052 75.5213 66.4003 74.4179 67.8466C73.3804 68.2766 72.4174 68.8082 71.5291 69.4409C70.7406 70.4858 69.6171 71.2167 68.1587 71.6332C67.4555 72.3491 66.6129 72.9137 65.6309 73.3272C64.8028 74.2025 64.9231 74.9666 65.992 75.6191C65.1408 75.655 64.3381 75.8543 63.5846 76.217C63.6648 76.2834 63.7452 76.3499 63.8254 76.4163C61.2624 76.5815 61.2624 76.6812 63.8254 76.7153C63.3181 76.9082 62.7562 76.9747 62.1402 76.9146C59.7328 76.9146 57.3254 76.9146 54.918 76.9146C55.4252 76.7216 55.9871 76.6551 56.6032 76.7153C57.6711 76.7731 58.7144 76.6734 59.7328 76.4163C60.0537 76.2834 60.0537 76.1506 59.7328 76.0177C59.8934 75.9514 60.0537 75.8848 60.2143 75.8184C59.8934 75.4198 59.8934 75.0212 60.2143 74.6226C61.1772 74.224 62.1402 73.8255 63.1031 73.4269C63.7486 72.8593 64.551 72.527 65.5106 72.4304C67.2022 71.2669 68.9676 70.204 70.8068 69.2416C71.0064 68.8797 71.2072 68.5144 71.4087 68.1455C72.4087 67.7164 73.0505 67.0522 73.3346 66.1525C73.4148 66.2189 73.4952 66.2855 73.5754 66.3518C74.5742 65.6065 75.2162 64.6763 75.5013 63.5617C76.5993 62.7366 77.6427 61.873 78.6309 60.9708C78.9282 59.2353 80.0518 58.3052 82.0013 58.1807C82.3222 58.3136 82.5629 58.5129 82.7235 58.7786C82.885 58.6287 83.0856 58.5621 83.3253 58.5793Z" fill="#2A6BE8"/>
</svg>
