<svg width="20" height="20" viewBox="0 0 20 20" fill="none" xmlns="http://www.w3.org/2000/svg">
<path d="M12.4919 1.66553H4.99677C4.55503 1.66553 4.13138 1.84101 3.81902 2.15337C3.50666 2.46573 3.33118 2.88938 3.33118 3.33112V16.6558C3.33118 17.0976 3.50666 17.5212 3.81902 17.8336C4.13138 18.146 4.55503 18.3214 4.99677 18.3214H14.9903C15.4321 18.3214 15.8557 18.146 16.1681 17.8336C16.4804 17.5212 16.6559 17.0976 16.6559 16.6558V5.8295L12.4919 1.66553Z" stroke="#4A5565" stroke-width="1.66559" stroke-linecap="round" stroke-linejoin="round"/>
<path d="M11.6592 1.66553V4.99671C11.6592 5.43845 11.8347 5.8621 12.147 6.17446C12.4594 6.48682 12.883 6.6623 13.3248 6.6623H16.656" stroke="#4A5565" stroke-width="1.66559" stroke-linecap="round" stroke-linejoin="round"/>
<path d="M8.32794 7.49512H6.66235" stroke="#4A5565" stroke-width="1.66559" stroke-linecap="round" stroke-linejoin="round"/>
<path d="M13.3247 10.8264H6.66235" stroke="#4A5565" stroke-width="1.66559" stroke-linecap="round" stroke-linejoin="round"/>
<path d="M13.3247 14.1575H6.66235" stroke="#4A5565" stroke-width="1.66559" stroke-linecap="round" stroke-linejoin="round"/>
</svg>
