<svg width="24" height="24" viewBox="0 0 24 24" fill="none" xmlns="http://www.w3.org/2000/svg">
<path fill-rule="evenodd" clip-rule="evenodd" d="M5.36337 0.0916134C4.88205 0.262942 4.4501 0.627723 4.23794 1.0421C3.97034 1.56475 3.98449 1.015 3.98449 10.8839V19.9669L3.87902 19.9872C3.37052 20.0852 3.22746 20.1285 3.02032 20.2469C2.49415 20.5478 2.11151 21.1033 2.01738 21.7031C1.99109 21.8706 1.96943 22.3512 1.96924 22.771C1.96882 23.6053 2.00707 23.7814 2.21862 23.92C2.33243 23.9946 2.9209 23.9999 11.0134 23.9999H19.6861L19.8392 23.8632L19.9923 23.7266L20.0068 22.8107C20.0229 21.7916 19.9834 21.4755 19.7926 21.0961C19.5319 20.5776 18.906 20.103 18.3917 20.0338C18.2923 20.0204 18.1636 19.9999 18.1056 19.9882L18.0001 19.9669V17.999V16.0312H18.3026C18.9076 16.0312 18.9518 16.101 18.9856 17.1093C19.015 17.9884 19.0665 18.1648 19.3991 18.5256C20.1304 19.3191 21.4156 19.0992 21.8838 18.1006L22.0079 17.8359L22.022 10.6874C22.0313 5.93838 22.02 3.48391 21.9883 3.37493C21.9268 3.16319 19.827 1.0548 19.629 1.00596C19.2605 0.91502 18.915 1.26068 19.0063 1.62883C19.0263 1.70941 19.3619 2.08324 19.9015 2.62596L20.7647 3.49418L19.9449 4.31294C19.4941 4.76322 19.0935 5.19836 19.0549 5.27993C18.9551 5.49011 18.9548 7.08489 19.0544 7.46744C19.2386 8.17441 19.7002 8.67668 20.3814 8.911C20.5235 8.95994 20.7209 8.99993 20.82 8.99993H21.0001V13.2128C21.0001 15.5299 20.987 17.4913 20.971 17.5715C20.9368 17.7423 20.7608 17.9341 20.6122 17.9625C20.419 17.9995 20.204 17.9097 20.1079 17.7521C20.0289 17.6225 20.0161 17.5143 20.0159 16.9777C20.0157 16.2739 19.9655 16.0115 19.7701 15.6928C19.4842 15.2264 19.0357 14.9999 18.398 14.9999H18.0001L17.9996 8.33196C17.9991 1.18718 18.0092 1.50846 17.769 1.03746C17.642 0.788692 17.2114 0.358004 16.9626 0.231067C16.4948 -0.00757409 16.7137 0.000722787 10.9689 0.00386341C5.91321 0.00662904 5.58785 0.0116915 5.36337 0.0916134ZM6.2486 2.10696C6.1443 2.1708 6.08323 2.25597 6.04807 2.38661C6.01366 2.5143 6.00166 3.5463 6.01052 5.61138C6.02271 8.45608 6.02894 8.65629 6.10868 8.77375C6.15551 8.84275 6.25882 8.92183 6.33832 8.94954C6.43751 8.98413 7.90005 8.99993 11.0008 8.99993C15.9534 8.99993 15.7632 9.01066 15.912 8.7228C15.9782 8.59488 15.985 8.23118 15.9738 5.43893L15.9611 2.29891L15.8311 2.16893L15.7011 2.03899L11.0498 2.02708C6.50243 2.01541 6.39523 2.01719 6.2486 2.10696Z" fill="#073C53"/>
</svg>
