<svg width="24" height="24" viewBox="0 0 24 24" fill="none" xmlns="http://www.w3.org/2000/svg">
<path d="M8.61991 0.878714C9.01579 1.11478 9.24554 1.43414 9.37504 1.87517C9.38657 2.00934 9.38657 2.00934 9.38631 2.15102C9.3865 2.23206 9.3865 2.23206 9.3867 2.31473C9.3862 2.40263 9.3862 2.40263 9.38568 2.49231C9.38565 2.55516 9.38567 2.618 9.38572 2.68085C9.38575 2.8509 9.3852 3.02094 9.38454 3.19099C9.38396 3.36891 9.3839 3.54683 9.38379 3.72475C9.3835 4.06142 9.38273 4.39808 9.38179 4.73474C9.38074 5.11813 9.38023 5.50152 9.37976 5.88491C9.37878 6.67333 9.37713 7.46175 9.37504 8.25017C9.43056 8.24919 9.48608 8.24821 9.54328 8.2472C9.75145 8.24378 9.95963 8.24164 10.1678 8.23987C10.2575 8.23894 10.3472 8.23766 10.4369 8.23603C11.1417 8.22352 11.6991 8.25479 12.2344 8.7658C12.7568 9.313 12.7783 9.89884 12.7786 10.615C12.7793 10.7025 12.7801 10.7901 12.781 10.8776C12.783 11.1064 12.7839 11.3352 12.7846 11.564C12.7856 11.7981 12.7875 12.0322 12.7894 12.2663C12.7929 12.7245 12.7953 13.1826 12.7969 13.6408C12.9122 13.4041 13.0274 13.1674 13.1426 12.9307C13.1817 12.8504 13.2208 12.7701 13.2598 12.6899C13.478 12.2419 13.6956 11.7936 13.9102 11.3439C13.9497 11.2614 13.9893 11.1789 14.0288 11.0964C14.1131 10.9199 14.1962 10.7429 14.2785 10.5655C14.3363 10.4412 14.3947 10.3172 14.4532 10.1933C14.4814 10.1332 14.5093 10.0731 14.5369 10.0128C14.7237 9.60548 14.9009 9.29247 15.2842 9.04998C15.6397 8.92288 16.0664 8.95648 16.4087 9.10052C16.5071 9.1478 16.605 9.19647 16.7022 9.24627C16.7864 9.28731 16.8705 9.32835 16.9547 9.36938C17.0477 9.41499 17.1404 9.46122 17.233 9.5076C17.4585 9.62038 17.6853 9.73055 17.9121 9.84063C18.2453 10.0024 18.5781 10.1648 18.9106 10.3277C19.3767 10.5559 19.8445 10.7805 20.3132 11.0034C20.692 11.1839 21.0702 11.366 21.4484 11.5478C21.5622 11.6025 21.676 11.6571 21.7898 11.7117C21.9455 11.7863 22.101 11.8611 22.2566 11.9359C22.3168 11.9648 22.377 11.9937 22.4372 12.0225C22.5214 12.0629 22.6056 12.1034 22.6897 12.1439C22.7621 12.1787 22.7621 12.1787 22.836 12.2141C23.1885 12.3927 23.1885 12.3927 23.25 12.5158C23.3031 12.9003 23.1277 13.1858 22.9571 13.5207C22.9268 13.5814 22.8967 13.6421 22.8666 13.7029C22.8054 13.8265 22.7438 13.9499 22.682 14.0733C22.5556 14.326 22.4341 14.5811 22.3125 14.8361C22.1093 15.2603 21.9049 15.684 21.7002 16.1076C21.5051 16.5115 21.3105 16.9157 21.1172 17.3205C20.91 17.7545 20.7012 18.1877 20.492 18.6208C20.2785 19.0626 20.0658 19.5048 19.8536 19.9472C19.7282 20.2088 19.6024 20.4702 19.4762 20.7314C19.4553 20.7747 19.4553 20.7747 19.4339 20.8189C19.3638 20.9642 19.2935 21.1094 19.2232 21.2546C19.0952 21.5191 18.9681 21.7839 18.8436 22.0501C18.8222 22.0957 18.8008 22.1414 18.7787 22.1884C18.7393 22.2726 18.7002 22.3569 18.6613 22.4413C18.644 22.4783 18.6267 22.5152 18.6089 22.5533C18.5941 22.5851 18.5794 22.617 18.5642 22.6498C18.5098 22.7448 18.4592 22.8049 18.375 22.8752C18.0623 22.9449 17.8021 22.8294 17.5295 22.6882C17.4903 22.6688 17.4512 22.6494 17.4109 22.6294C17.2846 22.5666 17.1589 22.5026 17.0332 22.4386C16.9458 22.3949 16.8584 22.3513 16.7709 22.3078C16.5998 22.2226 16.4289 22.1371 16.2582 22.0512C15.9928 21.918 15.7255 21.7892 15.4571 21.6623C15.3755 21.6235 15.294 21.5847 15.2124 21.5458C15.1511 21.5166 15.1511 21.5166 15.0885 21.4868C14.8125 21.3548 14.5372 21.2213 14.2618 21.0881C13.7434 20.8374 13.2241 20.5891 12.7032 20.3439C12.6969 20.379 12.6907 20.414 12.6843 20.4501C12.6033 20.8209 12.3739 21.1255 12.0938 21.3752C12.0085 21.4157 11.9226 21.4548 11.836 21.4924C11.7111 21.5509 11.7111 21.5509 11.625 21.6564C11.5988 21.8629 11.6077 22.0552 11.6195 22.2621C11.6313 22.4928 11.5891 22.651 11.4375 22.8283C11.2114 23.0644 11.0087 23.2316 10.6749 23.2659C10.2757 23.2703 9.9996 23.2557 9.70481 22.975C9.34947 22.5906 9.37504 22.3713 9.37504 21.797C8.38504 21.797 7.39504 21.797 6.37504 21.797C6.37504 22.0136 6.37504 22.2302 6.37504 22.4533C6.25838 22.7984 6.03141 23.0463 5.70341 23.2114C5.39994 23.3054 5.00756 23.31 4.7139 23.1799C4.44182 23.0154 4.21769 22.7583 4.12504 22.4533C4.11423 22.2934 4.11423 22.2934 4.11625 22.1222C4.11655 22.0656 4.11685 22.009 4.11716 21.9507C4.12348 21.8275 4.13548 21.7264 4.17191 21.6095C4.13747 21.6047 4.10303 21.5999 4.06754 21.5949C3.68403 21.4998 3.39244 21.1318 3.18754 20.8127C2.92396 20.3381 2.97361 19.7991 2.97578 19.2742C2.97552 19.1706 2.97519 19.067 2.97478 18.9634C2.97393 18.6831 2.97426 18.4028 2.97485 18.1226C2.97533 17.8286 2.97489 17.5347 2.97459 17.2408C2.97423 16.7157 2.97481 16.1907 2.97576 15.6656C2.9766 15.1904 2.97646 14.7152 2.97559 14.24C2.97459 13.687 2.97422 13.1339 2.97477 12.5809C2.97506 12.2886 2.9751 11.9963 2.97448 11.704C2.97394 11.4291 2.97432 11.1542 2.9754 10.8794C2.97565 10.7788 2.97558 10.6781 2.97516 10.5775C2.97251 9.86995 3.00241 9.30344 3.51566 8.7658C4.08859 8.21886 4.69869 8.22483 5.44633 8.23845C5.53657 8.2394 5.62681 8.24025 5.71705 8.24102C5.9364 8.24307 6.15571 8.24629 6.37504 8.25017C6.37486 8.21775 6.37469 8.18533 6.37451 8.15192C6.37037 7.36157 6.36727 6.57123 6.36532 5.78087C6.36436 5.39865 6.36304 5.01644 6.36089 4.63423C6.35902 4.30094 6.35781 3.96766 6.3574 3.63436C6.35715 3.45802 6.35658 3.2817 6.35521 3.10536C6.35393 2.93907 6.35355 2.7728 6.35383 2.6065C6.35375 2.51702 6.35275 2.42754 6.35171 2.33806C6.35389 1.87928 6.44412 1.49252 6.76395 1.15008C7.26069 0.70347 8.01272 0.587343 8.61991 0.878714ZM7.35941 1.73455C7.16042 1.98732 7.11909 2.19091 7.1194 2.50614C7.11934 2.55695 7.11927 2.60776 7.1192 2.6601C7.11937 2.71536 7.11954 2.77063 7.11972 2.82756C7.11971 2.88612 7.1197 2.94467 7.11969 3.005C7.11972 3.16517 7.11996 3.32534 7.12028 3.48551C7.12058 3.65305 7.1206 3.82058 7.12066 3.98812C7.12081 4.3052 7.12119 4.62227 7.12166 4.93935C7.12219 5.3004 7.12244 5.66146 7.12268 6.02251C7.12317 6.76507 7.12403 7.50762 7.12504 8.25017C7.62004 8.25017 8.11504 8.25017 8.62504 8.25017C8.62822 7.47516 8.6308 6.70014 8.63232 5.92512C8.63305 5.56524 8.63403 5.20536 8.63565 4.84548C8.63705 4.53167 8.63796 4.21787 8.63827 3.90406C8.63845 3.73802 8.63888 3.57199 8.63991 3.40595C8.64105 3.22025 8.64107 3.03456 8.641 2.84885C8.64151 2.79426 8.64201 2.73967 8.64253 2.68343C8.64132 2.18394 8.64132 2.18394 8.41635 1.75245C8.19423 1.56186 8.04387 1.53036 7.75968 1.53405C7.58326 1.55332 7.48982 1.61656 7.35941 1.73455ZM4.09556 9.35833C3.77751 9.71086 3.74285 10.0613 3.74377 10.5263C3.74366 10.5661 3.74356 10.6058 3.74345 10.6468C3.74315 10.7797 3.74319 10.9125 3.74323 11.0454C3.74309 11.1408 3.74293 11.2363 3.74275 11.3317C3.74234 11.5906 3.74223 11.8496 3.7422 12.1086C3.74216 12.2705 3.74206 12.4323 3.74194 12.5942C3.74151 13.1591 3.74131 13.724 3.74135 14.2889C3.74138 14.8151 3.74088 15.3414 3.74014 15.8676C3.73953 16.3197 3.73928 16.7718 3.73931 17.2238C3.73932 17.4937 3.73919 17.7636 3.73869 18.0335C3.73824 18.2874 3.73824 18.5413 3.73858 18.7952C3.73862 18.8882 3.73851 18.9812 3.73823 19.0743C3.73787 19.2016 3.73809 19.3289 3.73845 19.4562C3.73821 19.4927 3.73797 19.5292 3.73772 19.5668C3.74031 19.9839 3.80153 20.3502 4.10819 20.6547C4.41704 20.9333 4.72035 21.0057 5.1338 21.0064C5.18407 21.0066 5.23433 21.0068 5.28611 21.007C5.34054 21.007 5.39497 21.007 5.45105 21.007C5.50894 21.0071 5.56682 21.0073 5.62646 21.0075C5.78472 21.0078 5.94298 21.008 6.10124 21.008C6.20029 21.008 6.29934 21.0081 6.39839 21.0083C6.74444 21.0087 7.0905 21.0089 7.43656 21.0089C7.75831 21.0088 8.08007 21.0093 8.40182 21.0101C8.67874 21.0107 8.95566 21.0109 9.23258 21.0109C9.39768 21.0109 9.56276 21.011 9.72785 21.0115C9.91218 21.0121 10.0965 21.0118 10.2808 21.0116C10.362 21.012 10.362 21.012 10.4449 21.0124C10.9077 21.0106 11.3124 20.9866 11.6545 20.642C11.7887 20.4933 11.9061 20.3552 11.9532 20.1564C11.9474 20.0376 11.9474 20.0376 11.9063 19.922C11.824 19.8529 11.824 19.8529 11.7168 19.8082C11.6586 19.7798 11.6586 19.7798 11.5993 19.7508C11.5381 19.7225 11.5381 19.7225 11.4756 19.6935C11.115 19.5259 10.859 19.3645 10.6716 19.0045C10.5704 18.6326 10.6149 18.2935 10.7762 17.9474C10.7905 17.9156 10.8049 17.8838 10.8197 17.851C11.0214 17.4091 11.2375 16.9739 11.4522 16.5383C11.516 16.4087 11.5797 16.279 11.6433 16.1494C11.6825 16.0695 11.7218 15.9897 11.7611 15.9099C11.7788 15.8738 11.7966 15.8378 11.8148 15.8007C11.8302 15.7693 11.8457 15.738 11.8616 15.7056C11.8764 15.6739 11.8911 15.6422 11.9063 15.6095C11.9234 15.5773 11.9405 15.545 11.9581 15.5118C12.0229 15.3006 12.013 15.093 12.0122 14.8733C12.0123 14.8228 12.0125 14.7722 12.0127 14.7201C12.0131 14.553 12.0128 14.3858 12.0125 14.2187C12.0126 14.1023 12.0126 13.986 12.0128 13.8696C12.0129 13.5944 12.0126 13.3191 12.0121 13.0439C12.0116 12.763 12.0121 12.4821 12.0126 12.2012C12.0129 11.9608 12.0128 11.7204 12.0126 11.48C12.0125 11.365 12.0126 11.2499 12.0128 11.1349C12.0131 10.9737 12.0127 10.8125 12.0122 10.6513C12.0125 10.5805 12.0125 10.5805 12.0127 10.5082C12.0101 10.0629 11.9722 9.67364 11.6419 9.34569C11.3014 9.03851 10.9716 8.99379 10.5194 8.9956C10.4592 8.99571 10.399 8.99583 10.337 8.99595C10.2234 8.99659 10.2234 8.99659 10.1075 8.99724C9.74491 8.99869 9.74491 8.99869 9.37504 9.00017C9.37504 9.61892 9.37504 10.2377 9.37504 10.8752C9.12754 10.8752 8.88004 10.8752 8.62504 10.8752C8.62504 10.2564 8.62504 9.63767 8.62504 9.00017C8.13004 9.00017 7.63504 9.00017 7.12504 9.00017C7.12504 9.61892 7.12504 10.2377 7.12504 10.8752C6.87754 10.8752 6.63004 10.8752 6.37504 10.8752C6.37504 10.2564 6.37504 9.63767 6.37504 9.00017C6.13624 8.99824 5.89744 8.99631 5.6514 8.99431C5.57693 8.99346 5.50246 8.99261 5.42574 8.99173C4.69914 8.98579 4.69914 8.98579 4.09556 9.35833ZM15.5215 9.85271C15.4522 9.96441 15.4282 10.0401 15.4219 10.172C15.5214 10.4012 15.6726 10.4817 15.8905 10.5813C15.9234 10.597 15.9564 10.6128 15.9904 10.629C16.0611 10.6629 16.132 10.6964 16.203 10.7297C16.3485 10.7984 16.4928 10.8694 16.6372 10.9404C16.8265 11.0335 17.0164 11.1256 17.2061 11.2179C17.2462 11.2375 17.2862 11.257 17.3275 11.2771C17.915 11.5631 18.5034 11.847 19.0933 12.1279C19.3228 12.2373 19.5521 12.3472 19.7813 12.4572C19.8523 12.4912 19.8523 12.4912 19.9247 12.5259C20.2107 12.6631 20.4961 12.8014 20.7812 12.9404C20.881 12.989 20.9808 13.0375 21.0805 13.0861C21.1456 13.1178 21.2106 13.1496 21.2756 13.1814C21.3666 13.226 21.4577 13.2704 21.5488 13.3147C21.6012 13.3403 21.6537 13.3659 21.7077 13.3924C21.8174 13.4415 21.914 13.4772 22.0313 13.5002C22.0785 13.4174 22.1253 13.3343 22.1719 13.2511C22.198 13.2049 22.2241 13.1587 22.251 13.1111C22.3228 12.9869 22.3228 12.9869 22.3125 12.8439C22.2742 12.8256 22.2742 12.8256 22.2351 12.807C21.6763 12.5403 21.1181 12.2725 20.5606 12.0031C19.942 11.7042 19.3227 11.4066 18.7032 11.1095C18.5117 11.0178 18.3203 10.926 18.1289 10.8342C18.0582 10.8002 18.0582 10.8002 17.9859 10.7656C17.7116 10.6339 17.4375 10.5017 17.1636 10.3691C17.1013 10.3389 17.039 10.3088 16.9767 10.2786C16.8565 10.2204 16.7364 10.1621 16.6163 10.1038C16.5617 10.0774 16.5072 10.0509 16.451 10.0237C16.3786 9.9886 16.3786 9.9886 16.3047 9.95276C15.9192 9.76367 15.9192 9.76367 15.5215 9.85271ZM15 10.9689C14.702 11.5617 14.4094 12.157 14.1182 12.7531C14.0953 12.7999 14.0725 12.8467 14.0489 12.8949C13.7628 13.4803 13.4779 14.0663 13.1981 14.6548C13.0511 14.964 12.9019 15.2721 12.753 15.5803C12.4056 16.2991 12.4056 16.2991 12.0602 17.0189C11.9483 17.2532 11.8354 17.4868 11.7203 17.7195C11.6983 17.7643 11.6763 17.8092 11.6536 17.8554C11.6124 17.9395 11.5708 18.0234 11.5287 18.107C11.3867 18.3919 11.3867 18.3919 11.3907 18.7033C11.5459 18.8811 11.6948 18.986 11.9074 19.086C11.9624 19.1122 12.0174 19.1384 12.0741 19.1654C12.1334 19.193 12.1927 19.2206 12.252 19.2482C12.3137 19.2774 12.3754 19.3067 12.437 19.3359C12.5613 19.3949 12.6856 19.4535 12.8101 19.512C13.0465 19.623 13.2821 19.7359 13.5176 19.8488C13.56 19.869 13.6023 19.8892 13.6459 19.9101C14.0277 20.0924 14.4084 20.2767 14.7891 20.4611C15.2588 20.6887 15.7288 20.9157 16.2001 21.1401C16.438 21.2535 16.6755 21.3679 16.9124 21.4834C16.9658 21.5093 17.0191 21.5352 17.0741 21.5619C17.1773 21.612 17.2804 21.6624 17.3833 21.7129C17.4298 21.7355 17.4764 21.7581 17.5243 21.7813C17.5653 21.8013 17.6063 21.8214 17.6486 21.842C17.7659 21.8909 17.8749 21.9173 18 21.9377C18.7192 20.4725 18.7192 20.4725 19.427 19.0018C19.574 18.6926 19.7231 18.3845 19.8721 18.0763C20.1476 17.5062 20.422 16.9355 20.6958 16.3644C20.7685 16.213 20.8413 16.0616 20.9142 15.9102C21.0319 15.6656 21.1493 15.4208 21.2665 15.1759C21.3057 15.0939 21.3451 15.0119 21.3845 14.93C21.4324 14.8304 21.48 14.7308 21.5274 14.631C21.5528 14.578 21.5781 14.5249 21.6043 14.4703C21.6652 14.345 21.6652 14.345 21.6563 14.2033C20.2683 13.5256 20.2683 13.5256 18.8759 12.8571C18.6443 12.7466 18.413 12.6356 18.1817 12.5246C18.1335 12.5015 18.0853 12.4783 18.0356 12.4545C17.5971 12.2439 17.159 12.0323 16.721 11.8205C16.447 11.6881 16.1728 11.5562 15.898 11.4254C15.8482 11.4017 15.7984 11.378 15.747 11.3535C15.6538 11.3092 15.5605 11.265 15.4672 11.2209C15.426 11.2013 15.3849 11.1817 15.3424 11.1616C15.3067 11.1446 15.2709 11.1277 15.234 11.1102C15.1407 11.0627 15.1407 11.0627 15 10.9689ZM4.99808 21.8732C4.89908 22.0179 4.89323 22.0937 4.92191 22.2658C4.99222 22.383 4.99222 22.383 5.10941 22.4533C5.28152 22.482 5.35729 22.4761 5.50199 22.3771C5.60099 22.2324 5.60685 22.1567 5.57816 21.9845C5.50785 21.8674 5.50785 21.8674 5.39066 21.797C5.21855 21.7684 5.14278 21.7742 4.99808 21.8732ZM10.2481 21.8732C10.1491 22.0179 10.1432 22.0937 10.1719 22.2658C10.2422 22.383 10.2422 22.383 10.3594 22.4533C10.5315 22.482 10.6073 22.4761 10.752 22.3771C10.851 22.2324 10.8568 22.1567 10.8282 21.9845C10.7578 21.8674 10.7578 21.8674 10.6407 21.797C10.4686 21.7684 10.3928 21.7742 10.2481 21.8732Z" fill="#0082BB"/>
<path d="M19.3127 0.750078C19.4248 0.813615 19.4248 0.813615 19.5119 0.899492C19.558 0.94481 19.558 0.94481 19.605 0.991044C19.6323 1.01981 19.6596 1.04857 19.6877 1.0782C19.7264 1.11591 19.7651 1.15361 19.8049 1.19246C19.9026 1.35939 19.9135 1.50155 19.8752 1.68758C19.7871 1.85283 19.6752 1.9954 19.5588 2.14168C19.5291 2.1805 19.4994 2.21932 19.4687 2.25932C19.3506 2.41301 19.2303 2.56442 19.1069 2.71388C19.023 2.81256 19.023 2.81256 18.9846 2.9532C19.0333 2.97004 19.0333 2.97004 19.0829 2.98723C19.2432 3.05761 19.3791 3.15126 19.5207 3.25258C19.5787 3.2931 19.6367 3.3336 19.6947 3.37407C19.7853 3.43766 19.8758 3.50145 19.9659 3.56575C20.0534 3.62801 20.1415 3.68937 20.2297 3.75063C20.2565 3.77006 20.2832 3.78948 20.3108 3.8095C20.4316 3.89254 20.5074 3.93843 20.656 3.93316C20.7672 3.89017 20.8531 3.84274 20.9499 3.77333C20.9834 3.75022 21.0169 3.72711 21.0514 3.70329C21.1205 3.6546 21.1894 3.60553 21.2579 3.55608C21.4974 3.39223 21.6467 3.33448 21.9377 3.37508C22.0382 3.42873 22.0382 3.42873 22.1164 3.50691C22.1468 3.5364 22.1771 3.56589 22.2083 3.59627C22.26 3.6492 22.26 3.6492 22.3127 3.7032C22.3582 3.74773 22.4037 3.79216 22.4493 3.8365C22.8658 4.24442 22.8658 4.24442 22.8987 4.4825C22.8949 4.64944 22.8613 4.72565 22.7487 4.84779C22.7188 4.88024 22.689 4.91269 22.6583 4.94612C22.6216 4.98455 22.5849 5.02298 22.5471 5.06258C22.5143 5.09712 22.5143 5.09712 22.4807 5.13235C22.3246 5.29613 22.1666 5.45792 22.0074 5.61873C21.9512 5.6757 21.8952 5.73292 21.8395 5.79039C21.1604 6.49104 21.1604 6.49104 20.6534 6.59535C20.2517 6.59377 19.9792 6.48904 19.6408 6.28133C19.6068 6.26068 19.5727 6.24004 19.5376 6.21877C19.3317 6.09354 19.1269 5.9665 18.9227 5.8384C18.6606 5.67405 18.3966 5.51302 18.1321 5.35262C17.7484 5.11964 17.3657 4.8851 16.9836 4.64949C16.5579 4.38703 16.1311 4.12645 15.7033 3.86726C15.286 3.61431 14.8692 3.36056 14.4534 3.105C14.3755 3.05711 14.2976 3.00928 14.2196 2.96144C13.5587 2.5546 13.5587 2.5546 13.5002 2.43758C13.4743 2.25 13.4592 2.13035 13.5586 1.96608C13.894 1.56873 14.3388 1.22353 14.8596 1.12508C15.5435 1.07857 16.0129 1.21663 16.584 1.59803C16.7439 1.70468 16.7439 1.70468 16.9292 1.72919C17.1256 1.66798 17.3008 1.5733 17.4826 1.47792C17.5655 1.43532 17.6485 1.39275 17.7315 1.35021C17.8616 1.28314 17.9915 1.21585 18.1212 1.14805C18.2469 1.08252 18.373 1.01796 18.4992 0.953508C18.5375 0.933148 18.5759 0.912788 18.6154 0.891812C18.862 0.76688 19.0359 0.722439 19.3127 0.750078ZM18.3119 1.95564C18.2413 1.99199 18.1706 2.02831 18.1 2.06459C17.9887 2.12196 17.8776 2.17953 17.7668 2.23774C17.6598 2.29382 17.5523 2.34892 17.4447 2.40389C17.412 2.42132 17.3794 2.43875 17.3458 2.45671C17.1141 2.57377 16.9476 2.60501 16.6877 2.5782C16.5635 2.52805 16.5635 2.52805 16.4559 2.45845C16.4161 2.4335 16.3763 2.40854 16.3352 2.38283C16.2949 2.35642 16.2546 2.33002 16.2131 2.30281C15.7927 2.0336 15.4656 1.86118 14.9533 1.92195C14.7848 1.97883 14.6147 2.03673 14.5315 2.2032C14.5535 2.21631 14.5755 2.22943 14.5982 2.24294C15.1378 2.56468 15.6743 2.89121 16.209 3.22114C16.5912 3.45679 16.9746 3.69031 17.3586 3.92293C17.7377 4.15256 18.116 4.3833 18.4924 4.61726C18.8923 4.86579 19.2941 5.11113 19.6965 5.35555C19.7259 5.3734 19.7552 5.39125 19.7855 5.40964C19.8688 5.46026 19.9521 5.51082 20.0354 5.56136C20.0837 5.59062 20.1319 5.61988 20.1816 5.65003C20.3612 5.75701 20.4598 5.79286 20.6721 5.7657C20.7827 5.67965 20.8709 5.5998 20.9662 5.4991C20.9928 5.47205 21.0195 5.445 21.0469 5.41713C21.1317 5.33083 21.2153 5.24361 21.299 5.15633C21.3564 5.09755 21.4138 5.03883 21.4713 4.98018C21.6119 4.83649 21.7516 4.69196 21.8908 4.54695C21.8266 4.39877 21.7976 4.35979 21.6565 4.2657C21.6329 4.28274 21.6093 4.29978 21.585 4.31734C21.4766 4.3948 21.3674 4.47087 21.258 4.54695C21.2209 4.57378 21.1838 4.60061 21.1456 4.62825C21.1087 4.65363 21.0719 4.67901 21.0339 4.70516C21.0005 4.72872 20.9671 4.75229 20.9327 4.77657C20.7617 4.85015 20.618 4.86615 20.4377 4.8282C20.2668 4.74802 20.1151 4.6444 19.9598 4.53743C19.9152 4.5077 19.8706 4.47797 19.8247 4.44735C19.6828 4.35244 19.5417 4.25637 19.4006 4.16023C19.3054 4.09625 19.2101 4.03235 19.1148 3.96852C18.9019 3.82577 18.6895 3.68233 18.4777 3.53799C18.3886 3.47787 18.2987 3.4194 18.2084 3.36121C18.094 3.28133 18.094 3.28133 18.0471 3.18758C18.0106 2.92928 18.0378 2.80026 18.189 2.58608C18.2492 2.50756 18.3103 2.42975 18.3723 2.35262C18.4334 2.2743 18.4944 2.19587 18.5552 2.11733C18.5961 2.06604 18.5961 2.06604 18.6378 2.01372C18.7118 1.91968 18.7118 1.91968 18.7502 1.78133C18.5886 1.78133 18.4525 1.88179 18.3119 1.95564Z" fill="#0082BB"/>
<path d="M18.5459 13.5486C19.0887 14.0106 19.4409 14.6078 19.5364 15.3194C19.5939 16.1426 19.3786 16.8295 18.8424 17.4546C18.388 17.9434 17.7804 18.252 17.1124 18.2924C16.2925 18.3128 15.5963 18.1201 14.9853 17.5459C14.4448 16.9716 14.2197 16.3115 14.2277 15.5337C14.2533 14.8051 14.5631 14.1409 15.0937 13.6407C16.0889 12.8068 17.5142 12.7557 18.5459 13.5486ZM15.5566 14.3321C15.4587 14.4266 15.4587 14.4267 15.4687 14.5313C15.5425 14.572 15.6168 14.6119 15.6913 14.6514C15.7327 14.6737 15.774 14.696 15.8166 14.719C15.9314 14.7726 15.9314 14.7726 16.0372 14.7611C16.1537 14.7049 16.2001 14.6369 16.2743 14.5313C16.4533 14.2891 16.6585 14.0835 16.8749 13.875C16.9059 13.8441 16.9368 13.8132 16.9687 13.7813C16.4491 13.7391 15.9286 13.9788 15.5566 14.3321ZM17.2089 14.6367C17.1674 14.6737 17.126 14.7107 17.0833 14.7488C16.9842 14.8444 16.9008 14.9303 16.828 15.0469C16.828 15.0933 16.828 15.1397 16.828 15.1875C16.9982 15.2649 17.1684 15.3422 17.3437 15.4219C17.3675 15.3195 17.3909 15.2169 17.414 15.1143C17.427 15.0572 17.4401 15.0001 17.4535 14.9413C17.4837 14.7693 17.4897 14.6117 17.4843 14.4375C17.3829 14.4375 17.2779 14.5747 17.2089 14.6367ZM18.2812 14.4844C18.2586 14.6328 18.2362 14.7813 18.2138 14.9297C18.2075 14.9713 18.2012 15.0129 18.1946 15.0557C18.1575 15.3024 18.1235 15.5492 18.0937 15.7969C18.3953 15.9361 18.3953 15.9361 18.703 16.0782C18.7774 15.5102 18.7177 15.0076 18.3749 14.5313C18.344 14.5158 18.313 14.5003 18.2812 14.4844ZM15.0937 15.2344C14.9898 15.3383 15.0295 15.5831 15.0284 15.7264C15.0363 16.1569 15.2058 16.537 15.4687 16.875C15.4841 16.875 15.4996 16.875 15.5155 16.875C15.5173 16.8319 15.519 16.7887 15.5208 16.7443C15.5429 16.319 15.6044 15.9315 15.703 15.5157C15.5019 15.4228 15.3009 15.33 15.0937 15.2344ZM16.4062 15.8907C16.3087 16.2075 16.3025 16.4979 16.3124 16.8282C16.5883 16.6433 16.7838 16.4477 16.9687 16.1719C16.86 16.0463 16.7663 16.0002 16.6083 15.9522C16.5704 15.9404 16.5325 15.9286 16.4935 15.9165C16.4503 15.9037 16.4503 15.9037 16.4062 15.8907ZM17.6718 16.5C17.6113 16.5769 17.5542 16.6566 17.4989 16.7373C17.3391 16.9632 17.1706 17.1557 16.9687 17.3438C16.9216 17.3905 16.8747 17.4373 16.828 17.4844C17.3176 17.5213 17.7673 17.3298 18.1405 17.0157C18.2048 16.9389 18.2677 16.8611 18.328 16.7813C18.2364 16.7342 18.1445 16.6874 18.0526 16.6407C18.0015 16.6145 17.9504 16.5884 17.8977 16.5616C17.7757 16.4934 17.7757 16.4934 17.6718 16.5Z" fill="#0082BB"/>
<path d="M14.6719 5.81257C14.6972 5.83994 14.7225 5.86732 14.7486 5.89552C14.8484 5.98557 14.9557 5.98049 15.085 5.97645C15.245 5.94015 15.3488 5.84892 15.4708 5.74262C15.6712 5.58817 15.8613 5.56243 16.1104 5.55769C16.1637 5.55581 16.2171 5.55394 16.272 5.55201C16.7657 5.6234 17.0696 5.93418 17.3978 6.28165C17.815 6.72178 18.2342 7.12967 18.75 7.4532C18.7766 7.47002 18.8032 7.48685 18.8307 7.50419C19.7811 8.09771 20.795 8.38978 21.8906 8.5782C21.8783 8.55009 21.866 8.52199 21.8534 8.49304C21.7972 8.36429 21.7414 8.23541 21.6855 8.10652C21.6565 8.04022 21.6565 8.04022 21.627 7.97257C21.5262 7.73928 21.4372 7.51221 21.375 7.2657C21.4733 7.20944 21.572 7.1539 21.6709 7.0987C21.6988 7.08266 21.7267 7.06662 21.7554 7.05009C21.8298 7.00893 21.907 6.97292 21.9844 6.93757C22.125 6.98445 22.125 6.98445 22.1745 7.06021C22.1893 7.09297 22.2042 7.12574 22.2195 7.15949C22.2364 7.19656 22.2533 7.23362 22.2707 7.27181C22.2884 7.31233 22.306 7.35285 22.3242 7.3946C22.3427 7.43664 22.3612 7.47867 22.3803 7.52197C22.8781 8.67648 23.25 9.98479 23.25 11.2501C22.987 11.2655 22.7241 11.281 22.4531 11.2969C22.4373 11.193 22.4215 11.0891 22.4052 10.982C22.3895 10.8802 22.3738 10.7784 22.3581 10.6767C22.3473 10.6065 22.3366 10.5363 22.326 10.4661C22.3105 10.3646 22.2949 10.2631 22.2792 10.1617C22.2698 10.1008 22.2605 10.0399 22.2509 9.97721C22.2173 9.78884 22.1734 9.60698 22.125 9.42195C22.0834 9.4174 22.0834 9.4174 22.0409 9.41276C20.4726 9.23674 19.0044 8.79836 17.7656 7.78132C17.741 7.76143 17.7165 7.74153 17.6911 7.72103C17.4142 7.49595 17.15 7.26436 16.9037 7.00569C16.8688 6.96922 16.8338 6.93275 16.7978 6.89518C16.7294 6.82321 16.6619 6.75042 16.5955 6.67674C16.3924 6.45933 16.3924 6.45933 16.1135 6.39082C15.9424 6.42108 15.8682 6.44353 15.7412 6.55671C15.4599 6.80192 15.2055 6.82065 14.8396 6.81452C14.5093 6.77991 14.2686 6.64285 14.0449 6.40144C13.7423 6.07532 13.2835 5.89258 12.8438 5.85945C12.2265 5.84486 11.7883 6.1051 11.3373 6.49812C10.9636 6.80811 10.601 6.88186 10.125 6.93757C10.125 6.6746 10.125 6.41163 10.125 6.1407C10.1965 6.12039 10.2681 6.10009 10.3418 6.07917C10.5893 5.99055 10.7663 5.86657 10.9658 5.70124C11.3455 5.38767 11.7438 5.1496 12.2344 5.06257C12.2676 5.05635 12.3008 5.05012 12.3351 5.04371C13.2286 4.91162 14.0068 5.24054 14.6719 5.81257Z" fill="#0082BB"/>
<path d="M5.34379 2.85938C5.52613 2.92957 5.60017 3.03301 5.70707 3.19336C5.73583 3.23602 5.76459 3.27868 5.79423 3.32263C5.82649 3.37176 5.82649 3.37176 5.85941 3.42188C5.78823 3.60185 5.68232 3.68789 5.53129 3.80566C3.35734 5.54257 1.95253 8.01819 1.61559 10.7912C1.59177 11.0121 1.58548 11.2309 1.58427 11.4529C1.58377 11.5136 1.58377 11.5136 1.58327 11.5755C1.58245 11.7053 1.58215 11.835 1.58207 11.9648C1.58204 12.0091 1.58201 12.0534 1.58197 12.0991C1.58269 12.733 1.59864 13.3472 1.73441 13.9688C1.74246 14.0082 1.7505 14.0476 1.75879 14.0882C1.94205 14.9785 2.24617 15.8161 2.62504 16.6406C2.48929 16.7483 2.35236 16.8302 2.1973 16.9072C2.15658 16.9277 2.11585 16.9482 2.07389 16.9693C1.96879 17.0156 1.96879 17.0156 1.87504 17.0156C1.47746 16.1802 1.17388 15.3497 0.969764 14.4463C0.952708 14.3709 0.952708 14.3709 0.935306 14.294C0.77422 13.5457 0.73095 12.8186 0.73246 12.0557C0.73247 12.0093 0.73248 11.963 0.73249 11.9152C0.734092 11.1628 0.779293 10.441 0.937538 9.70312C0.946065 9.66177 0.954593 9.62042 0.963379 9.57781C1.3043 7.96277 2.01669 6.40086 3.04691 5.10938C3.08051 5.06678 3.11411 5.02418 3.14872 4.98029C3.41322 4.6506 3.69469 4.33868 3.98441 4.03125C4.0329 3.97977 4.0329 3.97977 4.08237 3.92725C4.32839 3.67368 4.59888 3.45415 4.87504 3.23438C4.9203 3.19806 4.96555 3.16174 5.01218 3.12433C5.12256 3.03581 5.2331 2.9475 5.34379 2.85938Z" fill="#0082BB"/>
<path d="M9.75 11.625C9.9975 11.625 10.245 11.625 10.5 11.625C10.5 14.4713 10.5 17.3175 10.5 20.25C10.2525 20.25 10.005 20.25 9.75 20.25C9.75 17.4037 9.75 14.5575 9.75 11.625Z" fill="#0082BB"/>
<path d="M7.5 11.625C7.7475 11.625 7.995 11.625 8.25 11.625C8.25 14.4713 8.25 17.3175 8.25 20.25C8.0025 20.25 7.755 20.25 7.5 20.25C7.5 17.4037 7.5 14.5575 7.5 11.625Z" fill="#0082BB"/>
<path d="M5.25 11.625C5.4975 11.625 5.745 11.625 6 11.625C6 14.4713 6 17.3175 6 20.25C5.7525 20.25 5.505 20.25 5.25 20.25C5.25 17.4037 5.25 14.5575 5.25 11.625Z" fill="#0082BB"/>
<path d="M13.5 18.1875C13.7121 18.2172 13.8886 18.3008 14.0782 18.3951C14.1114 18.4114 14.1446 18.4276 14.1788 18.4443C14.2866 18.4972 14.3943 18.5503 14.502 18.6035C14.5763 18.64 14.6506 18.6764 14.725 18.7128C14.873 18.7852 15.021 18.8578 15.169 18.9304C15.44 19.0633 15.712 19.1941 15.9844 19.3242C16.0251 19.3437 16.0658 19.3632 16.1077 19.3833C16.393 19.5197 16.6805 19.6512 16.9688 19.7812C16.8916 20.0477 16.7676 20.2859 16.6406 20.5312C16.4118 20.4614 16.2041 20.3675 15.9904 20.2619C15.9552 20.2447 15.92 20.2275 15.8837 20.2097C15.8086 20.173 15.7334 20.1361 15.6584 20.0992C15.502 20.0223 15.3454 19.9458 15.1889 19.8693C15.1108 19.8312 15.0328 19.793 14.9547 19.7548C14.6365 19.5991 14.3176 19.4449 13.998 19.292C13.9352 19.2618 13.9352 19.2618 13.8711 19.231C13.6556 19.1281 13.439 19.0298 13.2188 18.9375C13.2482 18.7524 13.3062 18.6001 13.3857 18.4307C13.4071 18.3849 13.4284 18.3392 13.4504 18.2921C13.4668 18.2576 13.4831 18.223 13.5 18.1875Z" fill="#0082BB"/>
<path d="M15.328 22.0312C15.3595 22.1219 15.3907 22.2127 15.4218 22.3036C15.4392 22.3542 15.4566 22.4048 15.4745 22.4569C15.5155 22.5937 15.5155 22.5937 15.5155 22.7343C14.6007 23.0175 13.641 23.2622 12.6767 23.2528C12.591 23.2522 12.591 23.2522 12.5036 23.2516C12.4611 23.251 12.4187 23.2505 12.3749 23.2499C12.3358 22.9815 12.3254 22.7241 12.328 22.453C12.3545 22.4514 12.3811 22.4498 12.4084 22.4482C13.2811 22.3918 14.1405 22.2669 14.9773 22.0063C15.1085 21.9815 15.1999 21.9971 15.328 22.0312Z" fill="#0082BB"/>
<path d="M11.9129 0.737003C12.0525 0.738497 12.192 0.738928 12.3315 0.739201C12.4208 0.739629 12.51 0.740115 12.5993 0.740665C12.6408 0.740865 12.6822 0.741064 12.7249 0.741269C12.7823 0.741945 12.7823 0.741945 12.8408 0.742634C12.8743 0.742954 12.9078 0.743274 12.9423 0.743604C13.0312 0.750187 13.0312 0.750187 13.1719 0.797062C13.1732 0.859556 13.1741 0.922059 13.1748 0.984562C13.1753 1.01937 13.1759 1.05417 13.1765 1.09003C13.1704 1.26003 13.1477 1.42534 13.125 1.59394C13.0944 1.59227 13.0638 1.59061 13.0323 1.58889C12.0644 1.53812 11.133 1.56812 10.1719 1.68769C10.0993 1.42154 10.0588 1.1651 10.0312 0.890812C10.6624 0.776166 11.2718 0.730072 11.9129 0.737003Z" fill="#0082BB"/>
</svg>
