<svg width="18" height="18" viewBox="0 0 18 18" fill="none" xmlns="http://www.w3.org/2000/svg">
<path d="M3.81355 2.55678C3.87797 2.55654 3.87797 2.55654 3.94369 2.55629C4.062 2.55593 4.1803 2.55587 4.2986 2.55596C4.42656 2.55597 4.55451 2.55558 4.68246 2.55525C4.93284 2.55467 5.18321 2.55447 5.43359 2.55443C5.6373 2.5544 5.841 2.55425 6.04471 2.55403C6.62324 2.55341 7.20178 2.55309 7.78031 2.55314C7.81146 2.55314 7.8426 2.55315 7.8747 2.55315C7.90588 2.55315 7.93707 2.55316 7.9692 2.55316C8.47415 2.55319 8.97909 2.55251 9.48404 2.55152C10.0035 2.55051 10.5229 2.55003 11.0424 2.55009C11.3336 2.55011 11.6248 2.54992 11.9161 2.54916C12.1641 2.54852 12.4122 2.54837 12.6602 2.54885C12.7866 2.54907 12.9129 2.54909 13.0392 2.54847C13.9627 2.54426 14.7422 2.63917 15.4335 3.30446C15.6796 3.56009 15.8722 3.84965 15.996 4.18337C16.0148 4.23262 16.0148 4.23262 16.0339 4.28287C16.1812 4.73709 16.1521 5.20296 16.1454 5.67531C16.1447 5.76267 16.1441 5.85004 16.1435 5.9374C16.1419 6.14961 16.1396 6.3618 16.1366 6.57399C16.1638 6.5785 16.1909 6.583 16.2189 6.58765C16.4244 6.63492 16.6007 6.83283 16.7167 7.00287C16.8337 7.22869 16.8451 7.44443 16.8454 7.69443C16.8456 7.72549 16.8458 7.75655 16.8459 7.78856C16.8464 7.89109 16.8467 7.99362 16.8469 8.09615C16.8471 8.16765 16.8473 8.23916 16.8475 8.31067C16.8479 8.46056 16.8481 8.61045 16.8482 8.76034C16.8484 8.95188 16.8492 9.14341 16.8502 9.33495C16.8509 9.48268 16.8511 9.6304 16.8511 9.77813C16.8512 9.84872 16.8515 9.9193 16.852 9.98989C16.8526 10.0889 16.8525 10.1879 16.8523 10.2869C16.8526 10.3158 16.8529 10.3446 16.8533 10.3743C16.851 10.6878 16.7611 10.974 16.5373 11.2016C16.4087 11.3191 16.304 11.3721 16.1366 11.4256C16.1369 11.4477 16.1372 11.4699 16.1376 11.4927C16.1407 11.726 16.1428 11.9593 16.1443 12.1927C16.145 12.2794 16.146 12.3662 16.1472 12.453C16.1593 13.3299 16.0457 14.0602 15.4151 14.7144C14.8309 15.2877 14.0883 15.4561 13.2997 15.451C13.2397 15.4511 13.1797 15.4513 13.1197 15.4516C12.9586 15.4521 12.7975 15.4517 12.6364 15.4511C12.4672 15.4506 12.2979 15.4508 12.1286 15.451C11.8449 15.4511 11.5611 15.4506 11.2774 15.4498C10.9496 15.4488 10.6219 15.4488 10.2941 15.4492C9.97785 15.4496 9.66159 15.4493 9.34534 15.4488C9.21108 15.4486 9.07683 15.4486 8.94257 15.4488C8.78472 15.449 8.62688 15.4486 8.46903 15.4479C8.41118 15.4477 8.35333 15.4477 8.29548 15.4478C8.21644 15.448 8.13743 15.4476 8.05839 15.447C7.99212 15.4469 7.99212 15.4469 7.9245 15.4467C7.7461 15.4268 7.63228 15.3707 7.51234 15.2378C7.40264 15.0794 7.4003 14.9548 7.41786 14.7654C7.47717 14.6 7.55261 14.5103 7.69911 14.4138C7.82555 14.3702 7.94921 14.3742 8.08204 14.3741C8.11859 14.374 8.11859 14.374 8.15589 14.3738C8.23755 14.3736 8.31921 14.3737 8.40086 14.3737C8.45943 14.3736 8.51799 14.3735 8.57656 14.3733C8.70272 14.373 8.82889 14.3729 8.95506 14.3727C9.15485 14.3725 9.35463 14.372 9.55442 14.3713C9.62288 14.3711 9.69134 14.3709 9.75979 14.3706C9.79408 14.3705 9.82837 14.3704 9.86369 14.3703C10.3288 14.3688 10.7938 14.3677 11.2589 14.3672C11.5726 14.3669 11.8864 14.3661 12.2001 14.3648C12.366 14.3641 12.5319 14.3637 12.6978 14.3638C12.8541 14.364 13.0104 14.3635 13.1667 14.3625C13.2237 14.3623 13.2808 14.3623 13.3379 14.3625C13.8424 14.3646 14.2752 14.2811 14.6577 13.9295C15.1164 13.4471 15.0936 12.8146 15.1039 12.1924C15.1052 12.1247 15.1066 12.057 15.108 11.9894C15.1114 11.8249 15.1143 11.6604 15.1171 11.4959C15.0795 11.4962 15.0795 11.4962 15.0412 11.4966C14.8033 11.4987 14.5655 11.5003 14.3276 11.5013C14.2054 11.5019 14.0831 11.5026 13.9609 11.5038C13.8199 11.5052 13.6788 11.5057 13.5378 11.5062C13.4946 11.5067 13.4514 11.5073 13.4069 11.5078C12.7604 11.5079 12.2085 11.2766 11.7421 10.8279C11.2178 10.2814 11.0574 9.59822 11.0689 8.86354C11.0877 8.20321 11.3138 7.62929 11.7649 7.14336C12.2703 6.67156 12.8464 6.49116 13.5275 6.49681C13.5731 6.49691 13.6187 6.49701 13.6657 6.49711C13.7858 6.49738 13.906 6.49807 14.0261 6.49885C14.1491 6.49958 14.2722 6.49989 14.3952 6.50025C14.6358 6.501 14.8765 6.50219 15.1171 6.50368C15.1138 6.30547 15.11 6.10728 15.1059 5.90909C15.1046 5.84182 15.1034 5.77455 15.1022 5.70728C15.0915 5.06357 15.0671 4.51151 14.6054 4.01967C14.3641 3.79335 14.0382 3.65197 13.7074 3.6513C13.6528 3.65107 13.6528 3.65107 13.5971 3.65083C13.5572 3.65084 13.5173 3.65084 13.4761 3.65085C13.4337 3.65072 13.3912 3.65059 13.3475 3.65046C13.2296 3.65014 13.1116 3.64997 12.9937 3.64988C12.8666 3.64974 12.7394 3.64941 12.6122 3.6491C12.3051 3.64841 11.9979 3.64805 11.6907 3.64774C11.546 3.64758 11.4013 3.6474 11.2566 3.64721C10.7753 3.64661 10.294 3.6461 9.81275 3.64585C9.68788 3.64578 9.563 3.64571 9.43813 3.64565C9.40709 3.64563 9.37606 3.64561 9.34408 3.64559C8.84161 3.6453 8.33915 3.64441 7.83668 3.64327C7.32054 3.64211 6.8044 3.64147 6.28826 3.64136C5.99858 3.64129 5.7089 3.64098 5.41922 3.64008C5.17244 3.63932 4.92567 3.63903 4.67889 3.63938C4.55309 3.63954 4.42731 3.63947 4.30151 3.63879C4.1648 3.63805 4.0281 3.63841 3.89139 3.63888C3.85209 3.63849 3.81278 3.6381 3.77229 3.63771C3.33044 3.6413 2.96406 3.77989 2.63661 4.0779C2.21984 4.53108 2.22971 5.07155 2.23174 5.65106C2.23219 5.7795 2.23178 5.90791 2.23117 6.03634C2.23024 6.26242 2.23004 6.48848 2.23009 6.71456C2.23017 7.07721 2.22967 7.43986 2.22813 7.80252C2.22779 7.92891 2.22809 8.05529 2.22844 8.18169C2.22822 8.2591 2.22798 8.33651 2.22771 8.41392C2.22798 8.44893 2.22825 8.48395 2.22853 8.52002C2.22716 8.70641 2.21524 8.83937 2.10927 8.99977C1.93607 9.15607 1.82973 9.18789 1.60101 9.18558C1.43771 9.16727 1.34211 9.08208 1.23695 8.96242C1.16801 8.84993 1.15558 8.7575 1.15511 8.62865C1.15491 8.59579 1.15471 8.56293 1.1545 8.52907C1.15446 8.49308 1.15443 8.45708 1.15438 8.42C1.15421 8.38202 1.15404 8.34405 1.15386 8.30493C1.15334 8.17889 1.1531 8.05286 1.15291 7.92682C1.15271 7.83908 1.1525 7.75134 1.1523 7.66361C1.15198 7.50285 1.15176 7.34209 1.15165 7.18133C1.15148 6.92256 1.15067 6.66381 1.14957 6.40505C1.14891 6.22357 1.14873 6.04209 1.14867 5.8606C1.14857 5.77397 1.14829 5.68734 1.14782 5.60071C1.14325 4.67955 1.26879 3.9588 1.9225 3.26271C2.44701 2.75745 3.10107 2.55482 3.81355 2.55678ZM12.4366 7.97186C12.1273 8.36659 12.0872 8.83379 12.1288 9.31618C12.194 9.69004 12.3556 9.96732 12.6496 10.2061C13.0562 10.4892 13.4859 10.4818 13.9634 10.481C14.0149 10.481 14.0665 10.4811 14.118 10.4811C14.2254 10.4812 14.3328 10.4811 14.4402 10.4809C14.5781 10.4807 14.7161 10.4808 14.854 10.481C14.9601 10.4812 15.0662 10.4811 15.1724 10.481C15.2233 10.481 15.2742 10.481 15.3251 10.4811C15.3958 10.4812 15.4666 10.4811 15.5374 10.4809C15.5777 10.4809 15.618 10.4808 15.6595 10.4808C15.7475 10.4866 15.7475 10.4866 15.785 10.4412C15.7884 10.3513 15.7895 10.2624 15.789 10.1726C15.789 10.1444 15.7891 10.1163 15.7891 10.0873C15.789 9.99393 15.7888 9.90053 15.7885 9.80713C15.7884 9.74255 15.7884 9.67796 15.7883 9.61338C15.7882 9.44305 15.7879 9.27273 15.7875 9.1024C15.7871 8.92874 15.7869 8.75507 15.7868 8.5814C15.7864 8.24039 15.7858 7.89938 15.785 7.55837C15.48 7.55211 15.175 7.54628 14.87 7.54097C14.7283 7.53849 14.5866 7.53588 14.445 7.53293C14.308 7.53008 14.171 7.52762 14.034 7.5254C13.982 7.5245 13.93 7.52347 13.878 7.52229C13.3262 7.50996 12.8325 7.54716 12.4366 7.97186Z" fill="white"/>
<path d="M6.25774 10.0899C6.28701 10.1158 6.31629 10.1418 6.34645 10.1685C6.91496 10.7029 7.24471 11.457 7.28441 12.2334C7.30058 13.0823 7.03133 13.8932 6.44362 14.5144C5.88249 15.0811 5.12572 15.4294 4.3254 15.4421C3.43626 15.445 2.66765 15.1583 2.02223 14.5422C1.41884 13.9099 1.13963 13.1219 1.15253 12.2538C1.18179 11.3997 1.5821 10.6586 2.18593 10.0705C3.34484 9.06407 5.10987 9.06351 6.25774 10.0899ZM2.70695 11.0391C2.30732 11.5235 2.17457 12.0364 2.21477 12.6563C2.28827 13.1989 2.59674 13.666 3.02116 14.0032C3.52107 14.3529 4.07549 14.46 4.67282 14.3546C5.19082 14.2196 5.66286 13.8941 5.94133 13.4297C6.21538 12.9113 6.32301 12.3919 6.1557 11.8138C5.95547 11.2601 5.63393 10.8318 5.09936 10.5656C4.25884 10.1953 3.34214 10.3635 2.70695 11.0391Z" fill="white"/>
<path d="M4.39453 11.0039C4.57499 11.0958 4.6821 11.1987 4.74609 11.3906C4.74853 11.469 4.74907 11.5474 4.74829 11.6258C4.74797 11.6672 4.74766 11.7087 4.74733 11.7514C4.74692 11.7832 4.74651 11.8149 4.74609 11.8477C4.78749 11.8458 4.78749 11.8458 4.82973 11.844C5.05337 11.8382 5.22107 11.835 5.41406 11.9531C5.52697 12.0611 5.58163 12.134 5.6228 12.2849C5.6262 12.4787 5.5974 12.6057 5.47119 12.7551C5.30479 12.8938 5.20176 12.9108 4.9834 12.9068C4.91678 12.9058 4.91678 12.9058 4.84882 12.9048C4.79797 12.9036 4.79797 12.9036 4.74609 12.9024C4.74773 12.9321 4.74936 12.9618 4.75104 12.9925C4.7658 13.4564 4.7658 13.4564 4.60547 13.6406C4.46683 13.7533 4.33711 13.7927 4.15942 13.7791C4.00353 13.7512 3.89115 13.7163 3.79028 13.5872C3.65954 13.3716 3.67798 13.147 3.69141 12.9024C3.65873 12.904 3.62606 12.9056 3.59239 12.9073C3.14602 12.9203 3.14602 12.9203 2.95312 12.7617C2.85658 12.6394 2.81848 12.5305 2.8125 12.375C2.84322 12.2065 2.89018 12.0679 3.02124 11.9531C3.18184 11.8483 3.29884 11.8434 3.48926 11.8455C3.52714 11.8458 3.56503 11.8461 3.60406 11.8464C3.63289 11.8468 3.66171 11.8473 3.69141 11.8477C3.69018 11.8171 3.68896 11.7866 3.6877 11.7551C3.67794 11.3397 3.67794 11.3397 3.79688 11.1797C3.99182 11.0038 4.13613 10.975 4.39453 11.0039Z" fill="white"/>
</svg>
