<svg width="24" height="24" viewBox="0 0 24 24" fill="none" xmlns="http://www.w3.org/2000/svg">
<g clip-path="url(#clip0_701_1899)">
<path d="M1.35636 0.547702C1.40987 0.546947 1.46337 0.546191 1.5185 0.545413C1.86132 0.545215 2.16169 0.554723 2.43851 0.780246C2.46987 0.820307 2.46987 0.820307 2.50187 0.861178C2.5235 0.887644 2.54513 0.914111 2.56742 0.941379C2.69805 1.14523 2.73029 1.31836 2.72931 1.55887C2.7293 1.61704 2.72929 1.6752 2.72929 1.73513C2.72881 1.79812 2.72832 1.86111 2.72782 1.92411C2.72764 1.98893 2.72751 2.05375 2.72742 2.11858C2.72706 2.28865 2.72614 2.45872 2.7251 2.6288C2.72414 2.80256 2.72371 2.97632 2.72324 3.15009C2.72224 3.49064 2.72064 3.83118 2.71866 4.17173C2.82695 4.17173 2.93523 4.17173 3.04679 4.17173C3.05066 4.11565 3.05452 4.05958 3.05851 4.0018C3.09285 3.73509 3.22014 3.56224 3.41886 3.38657C3.68424 3.1916 3.89709 3.17247 4.21665 3.1716C4.27724 3.17113 4.27724 3.17113 4.33906 3.17066C4.42436 3.17018 4.50966 3.16996 4.59496 3.16998C4.72459 3.16977 4.85415 3.16807 4.98377 3.16629C5.06693 3.16602 5.15009 3.16583 5.23325 3.16574C5.27159 3.16507 5.30994 3.1644 5.34944 3.1637C5.66078 3.16615 5.90258 3.25291 6.14164 3.45505C6.32867 3.68533 6.42179 3.86731 6.42179 4.17173C7.41179 4.17173 8.40179 4.17173 9.42179 4.17173C9.42179 3.95516 9.42179 3.7386 9.42179 3.51548C9.46066 3.34364 9.49732 3.20629 9.56241 3.04673C9.58471 2.9899 9.58471 2.9899 9.60746 2.93192C9.85876 2.36426 10.3035 1.96106 10.8702 1.72434C11.5982 1.44912 12.491 1.43262 13.2097 1.74448C13.8347 2.05655 14.2747 2.5421 14.5048 3.202C14.578 3.51548 14.578 3.51548 14.578 4.17173C15.568 4.17173 16.558 4.17173 17.578 4.17173C17.5935 4.04798 17.609 3.92423 17.6249 3.79673C17.7588 3.54382 17.9394 3.36213 18.1936 3.22862C18.3795 3.17154 18.5544 3.17213 18.7479 3.1716C18.7883 3.17129 18.8287 3.17098 18.8703 3.17066C18.9556 3.17018 19.0409 3.16996 19.1262 3.16998C19.2558 3.16977 19.3854 3.16807 19.515 3.16629C19.5982 3.16602 19.6813 3.16583 19.7645 3.16574C19.8028 3.16507 19.8412 3.1644 19.8807 3.1637C20.1919 3.16614 20.4357 3.25199 20.6729 3.4567C20.858 3.68835 20.9706 3.86505 20.953 4.17173C21.0613 4.17173 21.1696 4.17173 21.2812 4.17173C21.2807 4.13615 21.2803 4.10057 21.2799 4.06392C21.2761 3.7274 21.2733 3.3909 21.2715 3.05437C21.2705 2.88139 21.2692 2.70842 21.267 2.53545C21.265 2.36828 21.2639 2.20114 21.2634 2.03396C21.2629 1.93965 21.2614 1.84536 21.2599 1.75107C21.2598 1.3849 21.2759 1.10189 21.5332 0.819699C21.8555 0.526045 22.2221 0.546553 22.6317 0.547702C22.7117 0.546569 22.7117 0.546569 22.7933 0.545413C23.1454 0.54521 23.4875 0.556069 23.7729 0.783542C23.7936 0.811095 23.8144 0.838649 23.8358 0.867038C23.8576 0.894591 23.8794 0.922145 23.9018 0.950534C24.0053 1.11317 24.0061 1.25554 24.0068 1.443C24.0073 1.52787 24.0073 1.52787 24.0078 1.61446C24.008 1.67726 24.0081 1.74006 24.0082 1.80286C24.0085 1.86892 24.0088 1.93499 24.0091 2.00105C24.0101 2.21808 24.0106 2.43511 24.0111 2.65213C24.0113 2.72687 24.0115 2.80161 24.0117 2.87634C24.0126 3.22744 24.0132 3.57854 24.0136 3.92963C24.0141 4.33484 24.0153 4.74003 24.0172 5.14523C24.0186 5.45849 24.0193 5.77175 24.0195 6.08501C24.0196 6.27208 24.02 6.45914 24.0212 6.64621C24.0223 6.82224 24.0225 6.99825 24.022 7.17428C24.022 7.23879 24.0223 7.3033 24.0229 7.36781C24.0267 7.76756 24.0194 7.98991 23.7375 8.28006C23.4343 8.52182 23.1503 8.49599 22.7797 8.49806C22.7127 8.4986 22.6458 8.49956 22.5788 8.50094C21.8863 8.51531 21.8863 8.51531 21.5624 8.29672C21.3384 8.06681 21.2692 7.8517 21.2705 7.53458C21.2705 7.47642 21.2705 7.41825 21.2705 7.35832C21.271 7.29533 21.2715 7.23234 21.272 7.16934C21.2722 7.10452 21.2723 7.0397 21.2724 6.97487C21.2728 6.8048 21.2737 6.63473 21.2747 6.46465C21.2757 6.29089 21.2761 6.11713 21.2766 5.94336C21.2776 5.60281 21.2792 5.26227 21.2812 4.92172C21.1574 4.92172 21.0337 4.92172 20.9062 4.92172C20.9023 4.9546 20.8984 4.98747 20.8944 5.02133C20.8593 5.1561 20.8593 5.1561 20.7648 5.27726C20.6427 5.48741 20.6455 5.64499 20.6477 5.88353C20.6474 5.92763 20.647 5.97172 20.6467 6.01715C20.6458 6.16252 20.6462 6.30785 20.6465 6.45322C20.6461 6.55469 20.6455 6.65616 20.6448 6.75762C20.6433 7.02469 20.6428 7.29175 20.6426 7.55883C20.6422 7.98559 20.6406 8.41235 20.6383 8.83912C20.6377 8.98769 20.6378 9.13625 20.6379 9.28482C20.6376 9.37676 20.6372 9.46871 20.6369 9.56066C20.6372 9.6219 20.6372 9.6219 20.6375 9.68438C20.6339 10.2332 20.5315 10.5933 20.1415 10.9832C19.7648 11.2198 19.3422 11.2727 18.9087 11.1755C17.9723 10.8658 17.0954 10.2401 16.3225 9.64237C16.2433 9.58134 16.1612 9.52405 16.078 9.4686C15.6509 10.1522 15.3323 10.7203 15.2343 11.5311C15.2797 11.5156 15.3252 11.5002 15.372 11.4842C15.7876 11.3682 16.1866 11.44 16.5666 11.6368C17.0029 11.9054 17.207 12.2645 17.3437 12.7498C17.4029 13.0363 17.4373 13.3269 17.4726 13.617C17.4776 13.6573 17.4826 13.6976 17.4877 13.7391C17.6132 14.7631 17.6606 15.7165 17.3733 16.7187C17.275 17.081 17.2375 17.428 17.2283 17.803C17.198 17.9828 17.1465 18.0619 17.0155 18.1873C16.9218 18.2168 16.9218 18.2168 16.828 18.2137C16.7971 18.2138 16.7662 18.2138 16.7343 18.2139C16.5931 18.1739 16.5394 18.1182 16.453 17.9998C16.4336 17.8727 16.4263 17.7692 16.4296 17.6424C16.4301 17.6076 16.4305 17.5728 16.431 17.5369C16.4455 17.088 16.5575 16.6573 16.6775 16.2266C16.7631 15.9086 16.8067 15.616 16.8046 15.287C16.8044 15.2388 16.8043 15.1906 16.8041 15.1409C16.7943 14.652 16.7374 14.1691 16.6757 13.6844C16.6709 13.6454 16.6661 13.6065 16.6612 13.5663C16.6471 13.4536 16.6319 13.3412 16.6164 13.2287C16.6122 13.1954 16.608 13.162 16.6038 13.1277C16.5595 12.8262 16.462 12.5618 16.2333 12.3543C16.0068 12.2475 15.7982 12.1916 15.5523 12.2654C15.3503 12.3579 15.2105 12.4629 15.0937 12.6561C15.0148 12.898 14.9722 13.1354 14.9395 13.3865C14.9344 13.4246 14.9294 13.4627 14.9241 13.502C14.9135 13.5825 14.903 13.6631 14.8927 13.7437C14.8771 13.864 14.8607 13.9842 14.8443 14.1044C14.7929 14.4922 14.7553 14.876 14.7533 15.2675C14.753 15.3007 14.7527 15.3338 14.7524 15.3679C14.7557 15.7107 14.838 16.0327 14.9282 16.3616C14.9658 16.4998 14.9992 16.6388 15.0321 16.7782C15.043 16.8221 15.0538 16.866 15.0649 16.9113C15.1393 17.3023 15.1471 17.6926 15.1451 18.0896C15.145 18.1666 15.145 18.1666 15.1449 18.2452C15.1447 18.4076 15.1441 18.5699 15.1435 18.7323C15.1432 18.8431 15.143 18.9538 15.1428 19.0646C15.1424 19.3347 15.1414 19.6048 15.1405 19.8748C15.5737 19.8748 16.0068 19.8748 16.453 19.8748C16.453 19.6892 16.453 19.5036 16.453 19.3123C16.5937 19.1248 16.5937 19.1248 16.7519 19.078C16.9218 19.078 16.9218 19.078 17.0566 19.1629C17.1562 19.2655 17.1562 19.2655 17.203 19.3592C17.1987 19.4079 17.1943 19.4566 17.1899 19.5068C17.1445 20.1597 17.4588 20.6091 17.803 21.132C18.0767 21.5482 18.3116 21.9405 18.2343 22.453C18.149 22.7894 17.9969 23.04 17.7187 23.2498C17.3906 23.4431 17.0336 23.4447 16.6643 23.4452C16.6007 23.4455 16.6007 23.4455 16.5358 23.4457C16.4464 23.4459 16.357 23.446 16.2675 23.446C16.1315 23.4461 15.9956 23.447 15.8596 23.4479C15.7724 23.448 15.6852 23.4481 15.5979 23.4482C15.5577 23.4485 15.5174 23.4488 15.476 23.4492C15.0382 23.4475 14.6801 23.3552 14.3437 23.0623C14.0452 22.6874 14.0292 22.307 14.0624 21.8436C14.0894 21.6766 14.1251 21.5134 14.1625 21.3484C14.345 20.5313 14.3703 19.7289 14.3671 18.8934C14.367 18.8372 14.3669 18.781 14.3668 18.723C14.3643 18.0547 14.3368 17.3971 14.2499 16.7342C14.1889 16.7541 14.1889 16.7541 14.1267 16.7744C13.4926 16.9609 12.85 16.9505 12.195 16.9462C12.0325 16.9451 11.8701 16.9457 11.7077 16.9468C11.0367 16.9506 10.3934 16.9441 9.74991 16.7342C9.64952 17.4444 9.63395 18.1505 9.63273 18.867C9.6324 18.9553 9.6324 18.9553 9.63206 19.0453C9.63087 19.8954 9.68746 20.6917 9.87589 21.5202C9.97638 21.9824 10.0283 22.4962 9.7783 22.9177C9.53816 23.2297 9.23507 23.3531 8.85929 23.4373C8.70489 23.4545 8.55292 23.4561 8.39768 23.4544C8.35565 23.4544 8.31361 23.4544 8.2703 23.4544C8.18219 23.4543 8.09407 23.4539 8.00596 23.4531C7.87215 23.452 7.73838 23.4521 7.60456 23.4525C7.51835 23.4522 7.43213 23.4519 7.34592 23.4514C7.30651 23.4515 7.26709 23.4515 7.22648 23.4516C6.79915 23.4465 6.42858 23.3937 6.11271 23.0825C5.84724 22.7923 5.75126 22.522 5.74228 22.1313C5.79546 21.7951 5.92161 21.5401 6.14567 21.2848C6.79204 20.5049 6.82435 19.7041 6.81437 18.7293C6.81417 18.6977 6.81398 18.666 6.81378 18.6334C6.80887 17.8706 6.75469 17.1504 6.54414 16.4153C6.29078 15.5031 6.41036 14.5406 6.52726 13.6141C6.53445 13.5553 6.53445 13.5553 6.54179 13.4952C6.62049 12.8628 6.70498 12.2139 7.22031 11.7787C7.5792 11.5204 7.99314 11.3793 8.43741 11.4373C8.54722 11.467 8.65669 11.4981 8.76554 11.5311C8.64153 10.7367 8.36642 10.1355 7.92179 9.4686C7.88868 9.494 7.88868 9.494 7.85491 9.51991C7.15627 10.0529 6.43035 10.5109 5.65714 10.9276C5.6255 10.9448 5.59386 10.9619 5.56126 10.9796C5.10389 11.2203 4.6364 11.2876 4.13663 11.1356C3.82805 11.0106 3.60479 10.7803 3.46152 10.4806C3.36894 10.1978 3.36832 9.92026 3.36901 9.626C3.36892 9.5813 3.36883 9.5366 3.36874 9.49054C3.36856 9.39379 3.36846 9.29703 3.36844 9.20028C3.36828 8.99429 3.36728 8.78832 3.36632 8.58234C3.36454 8.19918 3.36307 7.81604 3.36317 7.43288C3.36321 7.166 3.36211 6.89914 3.36027 6.63226C3.35978 6.53078 3.35971 6.4293 3.36007 6.32783C3.36052 6.18567 3.35952 6.0436 3.35821 5.90145C3.35868 5.85985 3.35916 5.81825 3.35965 5.77538C3.35529 5.5123 3.30113 5.354 3.14387 5.1418C3.09366 5.06235 3.09366 5.06235 3.09366 4.92172C2.96991 4.92172 2.84616 4.92172 2.71866 4.92172C2.71908 4.9573 2.7195 4.99288 2.71993 5.02953C2.72369 5.36605 2.72654 5.70255 2.72838 6.03908C2.72935 6.21206 2.73068 6.38503 2.73281 6.558C2.73486 6.72517 2.73597 6.89231 2.73645 7.05949C2.73696 7.1538 2.73843 7.24809 2.73991 7.34238C2.73999 7.6836 2.71968 7.91488 2.53116 8.20297C2.20921 8.51667 1.863 8.50034 1.43934 8.49902C1.33924 8.49887 1.2392 8.49997 1.1391 8.50116C1.07487 8.50127 1.01063 8.5013 0.946386 8.50125C0.888473 8.50139 0.830559 8.50153 0.770891 8.50168C0.555907 8.47846 0.398389 8.40982 0.240698 8.26139C0.207071 8.21942 0.207071 8.21942 0.172765 8.17661C0.149744 8.14851 0.126722 8.12041 0.103002 8.09146C-0.0181408 7.9277 -0.00683041 7.80187 -0.00838304 7.59994C-0.00884507 7.55031 -0.00884507 7.55031 -0.00931644 7.49967C-0.0102417 7.38999 -0.0107881 7.28031 -0.0112555 7.17063C-0.0114465 7.13319 -0.0116376 7.09576 -0.0118344 7.0572C-0.0128123 6.85912 -0.0134827 6.66105 -0.013922 6.46297C-0.014441 6.25826 -0.0160539 6.05357 -0.0179144 5.84886C-0.0191391 5.69155 -0.0195324 5.53424 -0.0197008 5.37692C-0.0199293 5.30146 -0.020475 5.22599 -0.0213432 5.15053C-0.0224828 5.04492 -0.022442 4.93938 -0.0221159 4.83377C-0.0223909 4.77368 -0.0226659 4.71359 -0.0229492 4.65167C-8.60691e-05 4.49985 -8.60691e-05 4.49985 0.0847869 4.3867C0.234673 4.27811 0.335192 4.28659 0.515539 4.31235C0.652215 4.41404 0.697853 4.46975 0.727051 4.63922C0.727326 4.69348 0.727601 4.74774 0.727884 4.80364C0.728657 4.86527 0.72943 4.92689 0.730227 4.99038C0.730149 5.05746 0.730058 5.12454 0.729955 5.19162C0.730539 5.26049 0.731211 5.32936 0.731967 5.39823C0.733749 5.57929 0.734462 5.76034 0.734911 5.9414C0.735837 6.23155 0.738498 6.52168 0.740947 6.81182C0.741667 6.91325 0.742003 7.01467 0.742266 7.1161C0.742595 7.17742 0.742925 7.23875 0.743265 7.30194C0.743428 7.35612 0.743591 7.41031 0.743759 7.46614C0.741245 7.59203 0.741245 7.59203 0.796789 7.68735C1.16804 7.68735 1.53929 7.68735 1.92179 7.68735C1.92287 6.86919 1.92371 6.05102 1.92422 5.23286C1.92446 4.853 1.92479 4.47314 1.92533 4.09328C1.92579 3.76231 1.92609 3.43134 1.9262 3.10037C1.92626 2.92502 1.92641 2.74967 1.92674 2.57432C1.92712 2.37889 1.92713 2.18345 1.92711 1.98802C1.92736 1.90017 1.92736 1.90017 1.92762 1.81055C1.92756 1.75763 1.92749 1.70472 1.92743 1.6502C1.92747 1.60392 1.92751 1.55764 1.92756 1.50996C1.93344 1.40733 1.93344 1.40733 1.87491 1.35923C1.79144 1.35513 1.70781 1.35421 1.62424 1.35465C1.57364 1.3548 1.52303 1.35495 1.47089 1.35511C1.391 1.35569 1.391 1.35569 1.30948 1.3563C1.22932 1.35661 1.22932 1.35661 1.14753 1.35694C1.01499 1.35749 0.882452 1.35826 0.749914 1.35923C0.74923 1.41529 0.748547 1.47135 0.747843 1.52911C0.745127 1.73695 0.741507 1.94477 0.737612 2.15259C0.736052 2.24256 0.734738 2.33255 0.733675 2.42253C0.732104 2.55182 0.729652 2.68107 0.727026 2.81034C0.726576 2.87077 0.726576 2.87077 0.726118 2.93242C0.72519 2.96995 0.724262 3.00748 0.723306 3.04614C0.722526 3.09564 0.722526 3.09564 0.721729 3.14613C0.697307 3.26124 0.65388 3.30269 0.562414 3.37485C0.389447 3.42749 0.313513 3.43754 0.149328 3.35727C0.0467889 3.2811 0.0467889 3.2811 -8.60691e-05 3.23423C-0.00540253 3.17124 -0.00756255 3.10798 -0.00838304 3.04478C-0.00898469 3.00455 -0.00958634 2.96432 -0.0102062 2.92287C-0.0105525 2.87903 -0.0108987 2.83518 -0.0112555 2.79001C-0.0116339 2.74508 -0.0120122 2.70014 -0.0124021 2.65385C-0.0130519 2.5584 -0.013554 2.46296 -0.013922 2.36752C-0.0147258 2.22213 -0.0167816 2.0768 -0.0188544 1.93143C-0.0193293 1.83872 -0.0197284 1.74601 -0.0200446 1.65329C-0.0208653 1.61002 -0.0216859 1.56674 -0.0225315 1.52216C-0.0214057 1.18461 0.0515991 0.979415 0.295812 0.735202C0.626559 0.527524 0.977281 0.546635 1.35636 0.547702ZM22.0312 1.4061C22.017 1.52044 22.017 1.52044 22.0196 1.65552C22.0194 1.70843 22.0192 1.76134 22.019 1.81586C22.0192 1.87418 22.0195 1.93251 22.0198 1.9926C22.0197 2.0538 22.0196 2.115 22.0195 2.17806C22.0193 2.34619 22.0196 2.51431 22.0201 2.68243C22.0205 2.85808 22.0204 3.03373 22.0204 3.20937C22.0205 3.50433 22.0209 3.79928 22.0215 4.09424C22.0223 4.4357 22.0225 4.77716 22.0225 5.11862C22.0224 5.44659 22.0227 5.77456 22.0231 6.10253C22.0232 6.24236 22.0233 6.38218 22.0233 6.522C22.0234 6.71697 22.0239 6.91194 22.0244 7.10692C22.0243 7.16534 22.0243 7.22375 22.0243 7.28394C22.0245 7.33672 22.0247 7.3895 22.0249 7.44388C22.025 7.49004 22.0251 7.53619 22.0251 7.58375C22.0196 7.68615 22.0196 7.68615 22.078 7.73422C22.2642 7.74735 22.451 7.74509 22.6376 7.74594C22.7166 7.74739 22.7166 7.74739 22.7972 7.74887C22.8474 7.74911 22.8977 7.74936 22.9494 7.74961C23.0189 7.75026 23.0189 7.75026 23.0899 7.75093C23.1272 7.74542 23.1646 7.73991 23.203 7.73422C23.3075 7.57749 23.3086 7.52743 23.309 7.34451C23.3095 7.26703 23.3095 7.26703 23.31 7.18797C23.3099 7.13128 23.3098 7.07459 23.3097 7.01618C23.3099 6.95649 23.3101 6.8968 23.3104 6.8353C23.311 6.67154 23.311 6.50777 23.3109 6.344C23.3109 6.20735 23.3111 6.07071 23.3113 5.93406C23.3118 5.61176 23.3119 5.28946 23.3116 4.96716C23.3113 4.63445 23.3119 4.30176 23.3129 3.96905C23.3137 3.68354 23.314 3.39803 23.3138 3.11252C23.3137 2.94193 23.3139 2.77135 23.3145 2.60076C23.3152 2.41064 23.3148 2.22053 23.3142 2.0304C23.3146 1.97371 23.315 1.91701 23.3153 1.8586C23.315 1.80694 23.3147 1.75529 23.3143 1.70206C23.3143 1.63461 23.3143 1.63461 23.3144 1.56579C23.2937 1.433 23.2634 1.39107 23.1562 1.31235C23.0446 1.2915 23.0446 1.2915 22.9201 1.29532C22.8517 1.29537 22.8517 1.29537 22.7818 1.29541C22.7342 1.29617 22.6866 1.29692 22.6376 1.2977C22.5898 1.29755 22.5421 1.2974 22.4929 1.29724C22.2363 1.28237 22.2363 1.28237 22.0312 1.4061ZM10.5937 2.81235C10.2944 3.1764 10.1497 3.55101 10.1515 4.01902C10.1512 4.05691 10.151 4.0948 10.1507 4.13385C10.1504 4.2135 10.1505 4.29315 10.1509 4.3728C10.1513 4.49337 10.1499 4.61384 10.1484 4.73441C10.1457 5.34733 10.2242 5.75594 10.6605 6.21244C11.0939 6.62742 11.3874 6.86029 11.9911 6.86118C12.0316 6.86233 12.0722 6.86347 12.1139 6.86466C12.5587 6.86667 12.8393 6.6893 13.1542 6.3895C13.1805 6.36481 13.2068 6.34012 13.2338 6.31468C13.5949 5.96695 13.8332 5.61757 13.8447 5.10146C13.845 5.04784 13.845 5.04784 13.8454 4.99314C13.8459 4.95533 13.8463 4.91753 13.8467 4.87858C13.8474 4.79876 13.8478 4.71894 13.848 4.63912C13.8485 4.51874 13.8508 4.39847 13.8532 4.27811C13.859 3.69433 13.7813 3.19416 13.3602 2.75376C12.843 2.30561 12.2963 2.25775 11.6405 2.28778C11.2266 2.32166 10.8848 2.52401 10.5937 2.81235ZM3.84603 3.99887C3.76198 4.13389 3.77643 4.26754 3.77628 4.42368C3.77537 4.48495 3.77447 4.54622 3.77353 4.60935C3.79982 4.80346 3.84703 4.87898 3.98429 5.01547C4.19192 5.11929 4.47406 5.07313 4.70206 5.07407C4.78903 5.07552 4.78903 5.07552 4.87775 5.077C4.93368 5.07724 4.9896 5.07748 5.04722 5.07773C5.09841 5.07817 5.14961 5.07861 5.20236 5.07906C5.36192 5.06019 5.44897 5.01554 5.57804 4.92172C5.69638 4.76191 5.68583 4.59703 5.68644 4.40317C5.68722 4.34559 5.68801 4.288 5.68882 4.22867C5.68344 4.08408 5.68344 4.08408 5.62275 3.99941C5.48224 3.9042 5.33769 3.91729 5.17374 3.91867C5.1389 3.91854 5.10406 3.9184 5.06816 3.91827C4.99456 3.91817 4.92096 3.91843 4.84736 3.91902C4.73469 3.91977 4.6221 3.91902 4.50944 3.91812C4.4379 3.91822 4.36637 3.9184 4.29484 3.91867C4.26114 3.91839 4.22745 3.9181 4.19273 3.91781C4.05681 3.91973 3.96061 3.92173 3.84603 3.99887ZM18.3772 3.99951C18.2963 4.12858 18.3095 4.2504 18.3105 4.40024C18.3101 4.45716 18.3097 4.51408 18.3094 4.57273C18.3294 4.74585 18.3611 4.83279 18.4687 4.9686C18.7105 5.12493 19.0089 5.07964 19.286 5.07993C19.3436 5.08108 19.4012 5.08222 19.4605 5.08341C19.516 5.08359 19.5715 5.08377 19.6286 5.08396C19.6792 5.08434 19.7298 5.08473 19.782 5.08512C19.9543 5.05705 20.0318 4.99491 20.1562 4.87485C20.2269 4.73335 20.2136 4.58755 20.2148 4.43247C20.2157 4.40053 20.2167 4.3686 20.2177 4.3357C20.22 4.15881 20.22 4.15881 20.1541 3.99856C20.0133 3.90456 19.8686 3.91729 19.705 3.91867C19.6701 3.91854 19.6353 3.9184 19.5994 3.91827C19.5258 3.91817 19.4522 3.91843 19.3786 3.91902C19.2659 3.91977 19.1533 3.91902 19.0407 3.91812C18.9692 3.91822 18.8976 3.9184 18.8261 3.91867C18.7924 3.91839 18.7587 3.9181 18.724 3.91781C18.5876 3.91973 18.4918 3.92162 18.3772 3.99951ZM6.37491 4.92172C6.29757 5.07641 6.22023 5.2311 6.14054 5.39047C6.00566 5.51996 5.87362 5.61529 5.71866 5.7186C5.6992 5.8183 5.6992 5.8183 5.70493 5.93283C5.70538 5.97483 5.70584 6.01682 5.7063 6.06009C5.70748 6.10402 5.70866 6.14795 5.70988 6.19321C5.71051 6.2375 5.71114 6.28179 5.7118 6.32743C5.71346 6.43701 5.71577 6.54654 5.71866 6.6561C5.75305 6.62111 5.78743 6.58613 5.82285 6.55008C6.4982 5.88423 7.32022 5.44932 8.27738 5.42252C8.31028 5.42154 8.34317 5.42057 8.37706 5.41957C8.48116 5.41652 8.58526 5.41375 8.68937 5.41098C8.76035 5.40896 8.83134 5.40691 8.90232 5.40485C9.07547 5.39986 9.24863 5.3951 9.42179 5.39047C9.42179 5.23579 9.42179 5.0811 9.42179 4.92172C8.41632 4.92172 7.41085 4.92172 6.37491 4.92172ZM14.578 4.92172C14.578 5.07641 14.578 5.2311 14.578 5.39047C14.6403 5.39113 14.6403 5.39113 14.7038 5.3918C15.9073 5.40777 16.8936 5.46038 17.8593 6.2811C17.8908 6.30745 17.9223 6.33379 17.9547 6.36093C18.0674 6.45629 18.1767 6.55167 18.2812 6.6561C18.2921 6.50577 18.2987 6.35554 18.3046 6.20493C18.3077 6.16257 18.3109 6.12021 18.3141 6.07657C18.324 5.83251 18.324 5.83251 18.2009 5.63235C18.1347 5.58439 18.0669 5.53859 17.9976 5.49521C17.8882 5.42596 17.8315 5.35348 17.7685 5.24106C17.7506 5.21043 17.7328 5.17979 17.7145 5.14823C17.6718 5.06235 17.6718 5.06235 17.6249 4.92172C16.6194 4.92172 15.614 4.92172 14.578 4.92172ZM4.12491 5.81235C4.1228 6.35836 4.12108 6.90436 4.12006 7.45038C4.11957 7.70391 4.1189 7.95744 4.11784 8.21097C4.11682 8.45564 4.11626 8.7003 4.11602 8.94497C4.11585 9.03832 4.11551 9.13167 4.115 9.22502C4.11432 9.35576 4.11423 9.48649 4.11427 9.61722C4.11393 9.65583 4.1136 9.69444 4.11325 9.73421C4.1141 9.97008 4.13054 10.1582 4.28605 10.3475C4.45672 10.484 4.66713 10.4757 4.87491 10.453C4.99787 10.4073 5.10091 10.3624 5.21476 10.3006C5.24642 10.2841 5.27808 10.2675 5.31071 10.2504C5.98633 9.89088 6.62334 9.49027 7.22681 9.01967C7.32174 8.94571 7.41679 8.87194 7.51237 8.7988C7.54247 8.77562 7.57258 8.75244 7.6036 8.72856C7.78188 8.60767 7.94696 8.61067 8.15616 8.62485C8.30954 8.68851 8.41393 8.74199 8.53116 8.85922C8.69922 7.96835 8.72751 7.04183 8.62491 6.14047C7.75832 6.10328 7.13082 6.37495 6.49192 6.94907C6.23252 7.19619 6.03087 7.45601 5.84025 7.75913C5.73978 7.91475 5.70237 7.96095 5.51945 8.00669C5.31984 8.01667 5.22878 7.9818 5.06241 7.87485C5.00944 7.76889 5.00838 7.70745 5.00591 7.58973C5.00498 7.55032 5.00404 7.51091 5.00308 7.47031C5.0023 7.42773 5.00151 7.38515 5.00071 7.34128C4.99973 7.29771 4.99876 7.25415 4.99776 7.20926C4.99469 7.0698 4.99193 6.93033 4.98917 6.79087C4.98715 6.69644 4.9851 6.60202 4.98304 6.5076C4.97801 6.27586 4.97327 6.0441 4.96866 5.81235C4.69023 5.81235 4.41179 5.81235 4.12491 5.81235ZM9.37491 6.14047C9.37541 6.18169 9.3759 6.2229 9.3764 6.26536C9.3885 7.44044 9.39728 8.61471 9.06508 9.75415C9.03826 9.88531 9.08796 9.95203 9.14933 10.0692C9.32834 10.4441 9.46222 10.8468 9.4813 11.2641C9.49078 11.4575 9.50402 11.6265 9.56241 11.8123C9.69558 11.9235 9.81784 11.9762 9.97953 12.0378C10.375 12.1897 10.5804 12.5205 10.7969 12.8681C10.8638 12.9883 10.8638 12.9883 10.9687 13.0311C11.0342 13.0362 11.0999 13.0386 11.1657 13.0394C11.2267 13.0403 11.2267 13.0403 11.2889 13.0412C11.333 13.0416 11.377 13.0419 11.4224 13.0423C11.4902 13.0428 11.4902 13.0428 11.5594 13.0434C11.6551 13.0441 11.7509 13.0446 11.8466 13.0449C11.9931 13.0457 12.1396 13.0478 12.2861 13.0499C12.3791 13.0503 12.472 13.0507 12.565 13.0511C12.6088 13.0519 12.6527 13.0527 12.6979 13.0535C12.9405 13.0559 12.9405 13.0558 13.1487 12.9436C13.1718 12.9106 13.1949 12.8776 13.2187 12.8436C13.2469 12.8041 13.2751 12.7647 13.3042 12.724C13.333 12.6813 13.3618 12.6386 13.3915 12.5946C13.5817 12.3304 13.8009 12.0705 14.12 11.9655C14.2389 11.9244 14.3348 11.8854 14.4374 11.8123C14.5052 11.6626 14.5108 11.5151 14.5194 11.3524C14.528 11.2635 14.537 11.1747 14.5465 11.086C14.5512 11.0422 14.5558 10.9985 14.5606 10.9534C14.6081 10.6121 14.7335 10.2711 14.8965 9.96903C14.9739 9.73312 14.9202 9.58646 14.8505 9.35434C14.5719 8.30422 14.612 7.21844 14.6249 6.14047C14.5156 6.13656 14.4061 6.13683 14.2968 6.14047C14.1995 6.22815 14.1995 6.22815 14.1386 6.34848C14.116 6.38709 14.0934 6.42571 14.0701 6.46549C14.0431 6.51343 14.0431 6.51343 14.0155 6.56235C14.0001 6.57782 13.9846 6.59329 13.9687 6.60922C13.9663 6.67657 13.967 6.74402 13.969 6.81137C13.9898 7.789 13.9262 8.76298 13.2187 9.51547C12.8622 9.88213 12.5092 10.0539 11.9959 10.0793C11.5233 10.0748 11.1422 9.8734 10.7958 9.55649C10.2585 8.97992 10.0153 8.16168 10.0356 7.38578C10.0371 7.31774 10.0371 7.31774 10.0387 7.24833C10.0414 7.15814 10.0455 7.06799 10.0511 6.97793C10.0623 6.6414 9.97071 6.48153 9.74991 6.23422C9.73445 6.20329 9.71898 6.17235 9.70304 6.14047C9.59476 6.14047 9.48648 6.14047 9.37491 6.14047ZM19.0312 5.81235C19.0307 5.87101 19.0303 5.92966 19.0298 5.9901C19.028 6.20781 19.0249 6.4255 19.0214 6.64319C19.0201 6.73739 19.0191 6.8316 19.0185 6.92581C19.0175 7.06128 19.0153 7.19668 19.0129 7.33213C19.0128 7.37422 19.0127 7.41632 19.0127 7.45969C19.0058 7.75155 19.0058 7.75155 18.8974 7.90035C18.7665 7.98918 18.6733 8.00903 18.5155 8.01547C18.3015 7.95676 18.2215 7.86315 18.0995 7.68149C17.9384 7.44997 17.7694 7.23797 17.578 7.0311C17.5543 7.00379 17.5305 6.97648 17.5061 6.94834C17.0827 6.48652 16.4742 6.1669 15.847 6.12949C15.6891 6.12885 15.5326 6.13197 15.3749 6.14047C15.2966 6.82832 15.3097 7.51724 15.3691 8.2059C15.3727 8.25025 15.3764 8.29459 15.3802 8.34028C15.3841 8.38156 15.3881 8.42284 15.3921 8.46536C15.3973 8.52012 15.3973 8.52012 15.4025 8.57597C15.4183 8.6858 15.4183 8.6858 15.5155 8.81235C15.5436 8.79011 15.5716 8.76788 15.6005 8.74497C15.7871 8.61171 15.9479 8.60967 16.1718 8.62485C16.4042 8.72203 16.5767 8.85981 16.7665 9.02036C17.416 9.5528 18.5389 10.4732 19.4062 10.4636C19.589 10.4429 19.7021 10.3445 19.828 10.2186C19.892 10.0237 19.8811 9.8254 19.8802 9.62255C19.8802 9.58137 19.8803 9.54019 19.8803 9.49777C19.8802 9.36183 19.8799 9.22588 19.8795 9.08994C19.8794 8.99562 19.8793 8.9013 19.8793 8.80698C19.8791 8.55885 19.8787 8.31071 19.8781 8.06257C19.8777 7.80932 19.8774 7.55608 19.8772 7.30283C19.8767 6.806 19.8759 6.30918 19.8749 5.81235C19.5965 5.81235 19.318 5.81235 19.0312 5.81235ZM12.8737 7.444C12.5972 7.56876 12.3124 7.55685 12.0146 7.55844C11.9704 7.55941 11.9262 7.56038 11.8806 7.56137C11.5682 7.56309 11.3091 7.51047 11.0155 7.4061C10.9595 7.38773 10.9034 7.36936 10.8456 7.35044C10.8089 7.33787 10.7721 7.3253 10.7343 7.31235C10.7564 7.99746 10.9203 8.65035 11.4286 9.14047C11.6202 9.29513 11.8009 9.36369 12.0468 9.37485C12.3716 9.34005 12.5915 9.14834 12.7968 8.9061C13.0517 8.48582 13.2197 8.06792 13.248 7.57309C13.2515 7.51514 13.255 7.4572 13.2586 7.39749C13.2609 7.35393 13.2632 7.31036 13.2655 7.26547C13.1367 7.26547 12.9857 7.38515 12.8737 7.444ZM7.55265 12.5184C7.46896 12.6549 7.43251 12.7734 7.40616 12.9309C7.3985 12.9766 7.39083 13.0222 7.38293 13.0692C7.37513 13.1185 7.36733 13.1678 7.35929 13.2186C7.35106 13.2697 7.34284 13.3208 7.33436 13.3734C7.14913 14.5619 7.06913 15.6371 7.4219 16.8051C7.48187 17.0297 7.50593 17.2482 7.50954 17.4802C7.51047 17.5336 7.51141 17.5871 7.51237 17.6422C7.51315 17.6992 7.51394 17.7562 7.51475 17.8149C7.51572 17.8738 7.51669 17.9327 7.5177 17.9934C7.52024 18.1492 7.52259 18.305 7.52486 18.4609C7.52723 18.6202 7.52983 18.7795 7.53242 18.9388C7.53746 19.2508 7.54212 19.5628 7.54679 19.8748C7.97991 19.8748 8.41304 19.8748 8.85929 19.8748C8.86158 19.7138 8.86388 19.5528 8.86625 19.3869C8.86879 19.2286 8.87147 19.0704 8.87417 18.9121C8.87595 18.8032 8.87758 18.6944 8.87906 18.5855C8.88954 17.8251 8.9079 17.0922 9.12003 16.3563C9.14072 16.2825 9.16129 16.2087 9.18174 16.1349C9.19071 16.1036 9.19969 16.0722 9.20894 16.0399C9.37353 15.3742 9.27938 14.6614 9.18875 13.9908C9.17259 13.8706 9.15748 13.7503 9.14246 13.6299C9.1323 13.5518 9.12208 13.4737 9.11179 13.3957C9.10739 13.3605 9.10299 13.3253 9.09846 13.2891C9.03165 12.7911 9.03165 12.7911 8.74796 12.4012C8.34565 12.0967 7.88268 12.1134 7.55265 12.5184ZM9.74991 12.7498C9.76245 12.8749 9.77516 12.9999 9.788 13.1248C9.79204 13.1647 9.79608 13.2045 9.80025 13.2455C9.82331 13.4668 9.84945 13.6871 9.8812 13.9073C9.97996 14.6031 10 15.2819 9.98429 15.9842C10.4132 16.1403 10.7919 16.1997 11.247 16.1966C11.3372 16.1969 11.3372 16.1969 11.4292 16.1972C11.5554 16.1974 11.6816 16.1971 11.8078 16.1962C11.9677 16.1951 12.1276 16.1957 12.2876 16.1968C12.4427 16.1977 12.5977 16.1971 12.7528 16.1966C12.8093 16.197 12.8658 16.1974 12.9239 16.1978C13.3155 16.1935 13.648 16.1179 14.0155 15.9842C14.0143 15.9539 14.013 15.9237 14.0116 15.8925C13.9794 15.0835 14.0593 14.308 14.1707 13.5079C14.1761 13.4681 14.1816 13.4282 14.1872 13.3872C14.1977 13.3118 14.2084 13.2364 14.2195 13.1611C14.2414 13.0042 14.2539 12.9023 14.203 12.7498C14.0457 12.9259 13.9065 13.0975 13.7812 13.2977C13.6305 13.5299 13.4845 13.6456 13.2187 13.7342C13.1409 13.7392 13.0629 13.7417 12.9849 13.7425C12.9373 13.7431 12.8897 13.7437 12.8407 13.7443C12.7636 13.7449 12.7636 13.7449 12.6849 13.7454C12.6054 13.746 12.6054 13.746 12.5243 13.7465C12.4119 13.7472 12.2996 13.7477 12.1872 13.7481C12.016 13.7489 11.8449 13.7509 11.6737 13.753C11.5645 13.7535 11.4553 13.7539 11.346 13.7542C11.2951 13.755 11.2442 13.7558 11.1917 13.7567C10.8764 13.7558 10.675 13.7145 10.4062 13.5467C10.3095 13.4471 10.3095 13.4471 10.2187 13.3123C10.1632 13.2311 10.1075 13.1501 10.0517 13.0692C10.011 13.0087 10.011 13.0087 9.96946 12.9471C9.8915 12.8332 9.8915 12.8332 9.74991 12.7498ZM7.23624 20.8047C7.19756 20.8846 7.16053 20.9654 7.12491 21.0467C7.07237 21.133 7.01874 21.2186 6.96415 21.3036C6.91019 21.3927 6.85636 21.4819 6.80265 21.5711C6.77485 21.6161 6.74706 21.661 6.71842 21.7073C6.6922 21.751 6.66597 21.7947 6.63895 21.8398C6.61521 21.8788 6.59147 21.9178 6.56701 21.9581C6.50569 22.1009 6.50321 22.2052 6.51554 22.3592C6.5869 22.4987 6.68818 22.6193 6.83991 22.6713C6.93702 22.6873 7.02799 22.6939 7.12636 22.6949C7.16297 22.6954 7.19959 22.6958 7.23732 22.6963C7.27648 22.6965 7.31564 22.6967 7.35599 22.6969C7.39668 22.6971 7.43736 22.6974 7.47928 22.6977C7.56525 22.6981 7.65122 22.6984 7.7372 22.6986C7.86826 22.6991 7.99929 22.7005 8.13035 22.702C8.21403 22.7023 8.2977 22.7025 8.38138 22.7027C8.42036 22.7033 8.45933 22.7039 8.49949 22.7045C8.73195 22.7036 8.89329 22.6777 9.09366 22.5467C9.33241 22.1886 9.1452 21.6453 9.07023 21.2518C9.05905 21.1913 9.04787 21.1308 9.03635 21.0685C9.00895 20.9206 8.98117 20.7727 8.95304 20.6248C8.73791 20.6144 8.52292 20.6067 8.30759 20.6017C8.23446 20.5996 8.16135 20.5967 8.08828 20.593C7.60459 20.5485 7.60459 20.5485 7.23624 20.8047ZM15.0468 20.6248C15.007 20.8337 14.9682 21.0427 14.9296 21.2518C14.9184 21.3105 14.9072 21.3691 14.8957 21.4296C14.7993 21.9149 14.7993 21.9149 14.8124 22.4061C14.9309 22.563 15.0018 22.6255 15.1874 22.6873C15.3263 22.6925 15.4641 22.695 15.6031 22.6952C15.6439 22.6954 15.6848 22.6955 15.7269 22.6957C15.8133 22.6959 15.8998 22.696 15.9862 22.696C16.1182 22.6961 16.2502 22.697 16.3822 22.6979C16.4662 22.698 16.5503 22.6981 16.6343 22.6982C16.6737 22.6985 16.713 22.6988 16.7536 22.6992C17.019 22.6981 17.207 22.6809 17.4052 22.4881C17.502 22.3303 17.503 22.2612 17.4843 22.078C17.4315 21.9636 17.3785 21.863 17.3133 21.7564C17.2871 21.7121 17.2871 21.7121 17.2603 21.6669C17.2047 21.5731 17.1482 21.4798 17.0917 21.3866C17.0541 21.3232 17.0165 21.2598 16.9789 21.1963C16.943 21.1359 16.9069 21.0756 16.8709 21.0152C16.8539 20.9869 16.837 20.9585 16.8195 20.9293C16.7509 20.8161 16.6876 20.7188 16.5937 20.6248C16.476 20.6166 16.3637 20.614 16.2461 20.6157C16.1948 20.6159 16.1948 20.6159 16.1425 20.6161C16.0331 20.6166 15.9237 20.6178 15.8144 20.619C15.7403 20.6195 15.6662 20.6199 15.5921 20.6203C15.4103 20.6213 15.2286 20.6229 15.0468 20.6248Z" fill="#088679"/>
</g>
<defs>
<clipPath id="clip0_701_1899">
<rect width="24" height="24" fill="white"/>
</clipPath>
</defs>
</svg>
